<svg width="1080" height="1080" viewBox="0 0 1080 1080" fill="none" xmlns="http://www.w3.org/2000/svg">
<g clip-path="url(#clip0)">
<path d="M710.026 768.84C698.814 768.84 687.565 768.314 676.375 767.268C669.42 766.615 663.01 763.228 658.554 757.852C654.098 752.475 651.962 745.55 652.616 738.6C653.269 731.65 656.659 725.244 662.039 720.791C667.419 716.338 674.349 714.204 681.304 714.857C697.852 716.418 714.499 716.625 731.081 715.474L744.746 714.158L745.716 714.022L759.261 712.037L772.271 709.473L773.633 709.195L774.077 709.082L780.692 707.435C813.147 699.416 843.975 685.86 871.817 667.363C885.677 658.209 898.764 647.935 910.946 636.646L920.156 627.675C922.015 625.742 923.858 623.757 925.807 621.659C926.851 620.531 927.899 619.406 928.953 618.283L929.254 617.967C930.006 617.215 930.939 616.087 931.94 614.899L937.32 608.56C938.946 606.71 940.676 604.447 942.505 602.048C943.202 601.121 943.91 600.201 944.627 599.289C954.691 586.012 963.641 571.928 971.385 557.179C979.036 542.382 985.419 526.964 990.468 511.091C992.769 504.658 997.484 499.37 1003.62 496.347C1009.75 493.324 1016.81 492.802 1023.32 494.892C1029.83 496.982 1035.27 501.52 1038.5 507.546C1041.72 513.572 1042.47 520.614 1040.59 527.183C1034.62 545.914 1027.06 564.107 1018.02 581.565C1008.88 598.974 998.306 615.595 986.412 631.254L986.254 631.465L984.298 634.014C982.146 636.834 979.715 640.03 976.916 643.21L972.1 648.895C970.685 650.572 969.09 652.467 967.171 654.46C966.208 655.482 965.252 656.513 964.289 657.543C962.182 659.799 960.008 662.145 957.75 664.491L957.133 665.115L946.937 675.026C918.133 701.799 885.075 723.6 849.115 739.536L849.002 739.589C830.999 747.44 812.373 753.781 793.318 758.546L786.869 760.147C785.079 760.621 783.521 760.899 782.264 761.17L767.553 764.05L753.422 766.125C752.331 766.283 750.863 766.501 749.163 766.644L735.136 767.983C726.806 768.562 718.431 768.84 710.026 768.84Z" fill="#FF7F41"/>
<path d="M819.836 714.916C815.467 714.918 811.234 713.4 807.862 710.623C804.491 707.847 802.192 703.984 801.36 699.698C800.528 695.412 801.214 690.97 803.302 687.135C805.389 683.3 808.747 680.31 812.8 678.679C847.84 664.487 879.667 643.397 906.386 616.665C933.085 589.954 953.976 558.021 967.751 522.866C981.514 487.681 988.062 450.091 987.007 412.328C985.809 374.589 976.93 337.49 960.911 303.294C959.86 301.059 959.261 298.64 959.146 296.173C959.031 293.707 959.404 291.242 960.242 288.92C961.081 286.598 962.369 284.463 964.033 282.638C965.697 280.813 967.704 279.334 969.94 278.284C972.177 277.234 974.598 276.635 977.066 276.52C979.534 276.406 982 276.778 984.324 277.616C986.648 278.454 988.784 279.741 990.611 281.404C992.437 283.067 993.918 285.073 994.968 287.307C1013.16 326.151 1023.25 368.29 1024.61 411.155C1025.83 454.003 1018.4 496.658 1002.79 536.582C987.136 576.53 963.402 612.82 933.069 643.179C902.754 673.512 866.644 697.443 826.886 713.548C824.647 714.454 822.252 714.919 819.836 714.916Z" fill="#FDDA24"/>
<path d="M414.59 410.885C413.457 410.886 412.326 410.813 411.204 410.667C404.277 409.777 397.988 406.173 393.719 400.65C389.45 395.126 387.552 388.135 388.441 381.213C390.826 362.548 394.77 344.116 400.232 326.109L400.323 325.816L403.242 316.635C403.701 315.131 404.183 313.897 404.499 313.063C404.567 312.89 404.642 312.709 404.702 312.529L404.868 312.07C405.424 310.611 405.966 309.145 406.516 307.686C407.479 305.069 408.487 302.37 409.526 299.618L409.864 298.798L414.921 287.09C415.545 285.586 416.17 284.323 416.599 283.473L416.862 282.947L418.367 279.819L421.437 273.592C447.362 222.868 486.287 179.924 534.242 149.14C582.197 118.357 637.464 100.835 694.407 98.3636C697.875 98.1886 701.343 98.7006 704.612 99.8701C707.881 101.04 710.887 102.844 713.455 105.178C716.024 107.513 718.106 110.332 719.58 113.473C721.054 116.615 721.892 120.017 722.046 123.483C722.2 126.949 721.666 130.412 720.476 133.672C719.285 136.931 717.462 139.923 715.11 142.476C712.758 145.028 709.924 147.091 706.771 148.545C703.619 149.999 700.21 150.816 696.74 150.948C649.148 153.123 602.975 167.818 562.89 193.548C522.805 219.277 490.231 255.128 468.46 297.475L464.291 305.934C464.125 306.288 463.952 306.641 463.772 306.987C463.704 307.137 463.629 307.28 463.561 307.423L463.418 307.754L458.444 319.274C457.594 321.44 456.766 323.673 455.893 326.042C455.336 327.545 454.775 329.049 454.208 330.553C454.042 331.012 453.869 331.463 453.696 331.922C453.636 332.065 453.583 332.208 453.531 332.35L450.603 341.577C446.013 356.725 442.695 372.229 440.686 387.928C439.869 394.269 436.769 400.096 431.967 404.321C427.165 408.546 420.988 410.879 414.59 410.885Z" fill="#F5B6CD"/>
<path d="M1030.41 425.307C1024.6 425.313 1019.02 423.083 1014.81 419.079C1010.61 415.075 1008.11 409.606 1007.84 403.808L1007.64 399.582C1007.59 398.928 1007.53 398.281 1007.46 397.627C1007.39 396.973 1007.35 396.499 1007.29 395.935L1006.41 386.656C1006.3 385.258 1006.04 383.513 1005.77 381.671C1005.65 380.919 1005.53 380.107 1005.42 379.325L1004.2 370.775C1003.95 369.271 1003.62 367.662 1003.28 365.962C1003.07 364.91 1002.86 363.857 1002.66 362.797L1001.83 358.593C1001.72 358.067 1001.61 357.533 1001.51 356.999C1001.4 356.465 1001.29 355.871 1001.24 355.645L1001.12 355.187L997.813 341.915C997.76 341.697 997.564 341.073 997.421 340.606C997.226 339.967 997.022 339.32 996.842 338.666C990.683 317.379 982.217 296.826 971.596 277.374L970.279 274.908C970.099 274.614 969.926 274.329 969.76 274.035L963.274 263.057L955.297 250.905L946.757 239.182L938.758 229.219L938.156 228.467L937.87 228.106L933.543 223.218C918.9 206.573 902.459 191.598 884.519 178.567C879.67 175.058 876.414 169.767 875.467 163.859C874.521 157.951 875.962 151.91 879.474 147.063C882.985 142.217 888.279 138.963 894.191 138.018C900.103 137.072 906.149 138.513 910.999 142.022C931.632 157.004 950.544 174.221 967.39 193.358L971.905 198.456C972.559 199.208 973.094 199.87 973.477 200.358L982.928 212.157L992.748 225.692L1001.89 239.678L1009.05 251.792C1009.37 252.334 1009.85 253.131 1010.36 254.093L1011.32 255.913C1023.49 278.227 1033.18 301.8 1040.24 326.214C1040.36 326.62 1040.47 326.966 1040.58 327.334C1040.92 328.44 1041.33 329.808 1041.73 331.417L1044.89 344.11C1045.33 345.787 1045.64 347.261 1045.85 348.457C1045.92 348.803 1045.98 349.141 1046.05 349.487L1046.11 349.735L1046.99 354.247L1047.56 357.089C1047.97 359.135 1048.39 361.248 1048.77 363.503L1048.85 363.962L1050.16 372.933C1050.26 373.617 1050.37 374.302 1050.46 374.986C1050.82 377.355 1051.22 380.039 1051.45 382.972L1052.31 391.807C1052.31 392.258 1052.39 392.702 1052.44 393.153C1052.54 394.228 1052.66 395.447 1052.75 396.785V397.199L1052.96 401.658C1053.1 404.617 1052.66 407.575 1051.65 410.363C1050.65 413.151 1049.1 415.713 1047.11 417.905C1045.11 420.096 1042.7 421.873 1040.02 423.134C1037.34 424.395 1034.43 425.115 1031.47 425.254L1030.41 425.307Z" fill="#00C389"/>
<path d="M533.141 178.101C527.466 178.108 521.941 176.282 517.388 172.897C512.835 169.512 509.499 164.748 507.875 159.314C506.251 153.88 506.427 148.068 508.376 142.742C510.325 137.416 513.944 132.862 518.693 129.758C558.524 103.691 603.291 86.0833 650.216 78.0271C697.141 69.9709 745.222 71.6383 791.475 82.9258C798.086 84.7312 803.732 89.0407 807.215 94.9391C810.697 100.838 811.742 107.86 810.127 114.516C808.512 121.172 804.364 126.936 798.564 130.585C792.765 134.234 785.77 135.48 779.066 134.059C759.466 129.306 739.437 126.535 719.282 125.787C658.436 123.556 598.407 140.328 547.543 173.77C543.267 176.585 538.261 178.09 533.141 178.101Z" fill="#FF7F41"/>
<path d="M465.696 650.031C463.004 650.035 460.342 649.461 457.892 648.346C455.442 647.232 453.261 645.603 451.496 643.571C404.338 589.43 375.232 519.979 369.528 448.062V447.987C368.204 430.13 368.204 412.199 369.528 394.342V394.094C371.087 376.3 373.914 358.639 377.986 341.246L378.107 340.75L381.297 328.621C381.816 326.485 382.418 324.598 382.953 322.921C383.103 322.462 383.246 322.004 383.389 321.545L385.391 315.229C385.601 314.589 385.805 313.943 386.008 313.304C386.444 311.905 386.941 310.296 387.513 308.687L387.603 308.438L392.118 296.287C392.216 296.039 392.306 295.791 392.396 295.535C392.69 294.73 393.059 293.73 393.555 292.595L394.782 289.737C395.354 288.429 395.895 287.166 396.437 285.902C397.573 283.27 398.74 280.548 399.959 277.834L400.252 277.202L405.979 265.577L406.34 264.825C406.709 264.073 407.168 263.118 407.755 262.058L412.442 253.621C412.774 253.027 413.105 252.433 413.428 251.839C414.136 250.575 414.933 249.131 415.806 247.665L415.964 247.402L419.328 241.988C421.96 237.752 426.168 234.734 431.027 233.599C435.886 232.464 440.997 233.304 445.236 235.935C449.475 238.565 452.494 242.771 453.63 247.626C454.766 252.481 453.925 257.589 451.293 261.825L448.02 267.088C447.501 267.968 446.959 268.961 446.379 270.006C446.003 270.69 445.627 271.367 445.243 272.044L440.646 280.315C440.54 280.503 440.329 280.939 440.171 281.255C440.013 281.571 439.788 282.045 439.592 282.436L434.174 293.452C433.113 295.821 432.09 298.204 431.006 300.723L429.336 304.603L428.072 307.514C427.921 307.874 427.816 308.175 427.703 308.484C427.59 308.792 427.394 309.311 427.236 309.724L422.879 321.395C422.548 322.327 422.217 323.387 421.864 324.515C421.623 325.267 421.389 326.019 421.149 326.771L419.26 332.719C419.094 333.253 418.921 333.795 418.748 334.328C418.365 335.547 417.996 336.697 417.785 337.569L417.687 337.953L414.527 349.984C410.907 365.51 408.393 381.273 407.002 397.155C405.824 413.109 405.824 429.129 407.002 445.084C412.081 509.001 437.952 570.759 479.835 618.862C482.211 621.579 483.754 624.922 484.28 628.492C484.806 632.061 484.294 635.707 482.803 638.993C481.312 642.28 478.906 645.068 475.873 647.025C472.839 648.982 469.306 650.026 465.696 650.031Z" fill="#59CBE8"/>
<path d="M630.822 733.316C628.481 733.311 626.151 732.998 623.892 732.384C601.131 726.228 579.118 717.583 558.253 706.607C537.45 695.578 517.907 682.326 499.965 667.084L495.39 663.211C494.518 662.459 493.795 661.797 493.321 661.346L492.922 660.978L483.757 652.428C482.771 651.481 481.913 650.593 481.229 649.879C480.958 649.608 480.694 649.33 480.431 649.059L480.296 648.924L474.825 643.307C472.839 641.344 471.198 639.479 469.746 637.825L468.444 636.321L468.324 636.186L462.507 629.599C461.183 628.035 459.986 626.531 458.835 625.087C458.263 624.335 457.699 623.658 457.119 622.951L454.41 619.598L453.891 618.958C453.191 618.086 452.251 616.936 451.257 615.537C437.215 596.853 425.201 576.731 415.417 555.508C413.971 552.368 413.157 548.975 413.024 545.521C412.89 542.067 413.438 538.621 414.637 535.379C417.059 528.832 421.984 523.513 428.329 520.595C434.675 517.676 441.92 517.396 448.472 519.816C455.025 522.236 460.346 527.157 463.267 533.498C471.522 551.432 481.67 568.432 493.539 584.21L494.119 584.962C494.337 585.256 494.578 585.541 494.803 585.827L495.556 586.775L498.024 589.843C498.671 590.64 499.311 591.444 499.958 592.249C500.876 593.407 501.749 594.505 502.584 595.497L507.648 601.22C508.198 601.829 508.747 602.453 509.289 603.07C510.274 604.19 511.208 605.25 511.892 605.927L512.321 606.356L517.912 612.093L519.086 613.296C519.417 613.642 519.748 613.988 520.087 614.326L528.74 622.387L529.493 623.072L529.576 623.154L534.015 626.914C549.056 639.699 565.44 650.816 582.881 660.068C600.311 669.225 618.697 676.438 637.707 681.574C643.869 683.244 649.213 687.093 652.747 692.406C656.281 697.719 657.764 704.133 656.919 710.457C656.075 716.78 652.961 722.582 648.156 726.783C643.351 730.984 637.183 733.297 630.799 733.294L630.822 733.316ZM529.327 622.959L529.418 623.034L529.327 622.959Z" fill="#9063CD"/>
<path d="M729.059 1007H83.2048L45.6484 558.027L729.059 635.539V1007Z" fill="#00C389"/>
<path d="M808.144 1007H729.059V632.916L853.647 648.7L808.144 1007Z" fill="#F5B6CD"/>
<path d="M874.73 651.278L27 556.328V523.543L874.73 625.148V651.278Z" fill="#2C2A29"/>
<path d="M684.765 668.738H120.457V1007H684.765V668.738Z" fill="#9063CD"/>
<path d="M346.707 850.209H176.082V1007H346.707V850.209Z" fill="#2C2A29"/>
<path d="M261.392 824.418C296.696 824.418 325.315 795.818 325.315 760.539C325.315 725.26 296.696 696.66 261.392 696.66C226.088 696.66 197.469 725.26 197.469 760.539C197.469 795.818 226.088 824.418 261.392 824.418Z" fill="#2C2A29"/>
<path d="M261.392 806.662C286.883 806.662 307.549 786.011 307.549 760.537C307.549 735.063 286.883 714.412 261.392 714.412C235.9 714.412 215.234 735.063 215.234 760.537C215.234 786.011 235.9 806.662 261.392 806.662Z" fill="#FF7F41"/>
<path d="M261.392 780.51C272.43 780.51 281.378 771.569 281.378 760.538C281.378 749.508 272.43 740.566 261.392 740.566C250.354 740.566 241.406 749.508 241.406 760.538C241.406 771.569 250.354 780.51 261.392 780.51Z" fill="#59CBE8"/>
<path d="M261.389 808.167C251.962 808.167 242.747 805.373 234.909 800.14C227.071 794.906 220.962 787.467 217.355 778.764C213.747 770.061 212.803 760.485 214.642 751.245C216.481 742.006 221.021 733.52 227.686 726.859C234.352 720.197 242.845 715.661 252.09 713.823C261.336 711.986 270.919 712.929 279.628 716.534C288.337 720.139 295.781 726.243 301.018 734.076C306.255 741.909 309.051 751.117 309.051 760.537C309.037 773.165 304.011 785.272 295.076 794.201C286.14 803.13 274.025 808.153 261.389 808.167ZM261.389 715.916C252.557 715.916 243.924 718.533 236.581 723.436C229.238 728.339 223.515 735.308 220.135 743.462C216.756 751.615 215.872 760.587 217.594 769.243C219.317 777.898 223.57 785.849 229.815 792.089C236.06 798.33 244.016 802.58 252.677 804.301C261.339 806.023 270.317 805.139 278.476 801.762C286.635 798.385 293.609 792.666 298.516 785.328C303.422 777.99 306.041 769.363 306.041 760.537C306.025 748.709 301.315 737.369 292.945 729.006C284.574 720.642 273.226 715.938 261.389 715.924V715.916Z" fill="#F5B6CD"/>
<path d="M176.08 668.738H120.457V850.208H176.08V668.738Z" fill="#59CBE8"/>
<path d="M488.143 668.738H346.699V850.208H488.143V668.738Z" fill="#59CBE8"/>
<path d="M629.588 850.209H488.145V1007H629.588V850.209Z" fill="#59CBE8"/>
<path d="M684.758 668.738H629.586V850.208H684.758V668.738Z" fill="#59CBE8"/>
<path d="M840.874 528.026L834.553 521.957C834.553 521.844 834.553 521.732 834.553 521.619V323.448C834.553 319.165 833.709 314.925 832.069 310.969C830.428 307.012 828.024 303.418 824.994 300.39C821.963 297.362 818.366 294.961 814.406 293.323C810.447 291.685 806.203 290.842 801.918 290.843H603.617C600.69 290.844 597.777 291.238 594.956 292.016L590.441 287.662L579.695 301.31C578.504 302.598 577.417 303.978 576.445 305.438C572.894 310.774 571.004 317.04 571.012 323.448V521.619C571.008 525.901 571.848 530.142 573.485 534.1C575.121 538.058 577.522 541.655 580.549 544.686C583.577 547.716 587.173 550.121 591.131 551.763C595.089 553.404 599.331 554.251 603.617 554.254H801.925C807.098 554.26 812.199 553.035 816.804 550.682C821.41 548.328 825.389 544.913 828.413 540.719L840.874 528.026Z" fill="#9063CD"/>
<path d="M816.616 275.441H618.299C600.28 275.441 585.672 290.039 585.672 308.046V506.225C585.672 524.232 600.28 538.83 618.299 538.83H816.616C834.635 538.83 849.243 524.232 849.243 506.225V308.046C849.243 290.039 834.635 275.441 816.616 275.441Z" fill="#E6DCCB"/>
<path d="M715.904 495.337H644.592C642.809 489.065 642.809 482.42 644.592 476.147H669.13V407.719C659.882 410.727 648.678 413.938 646.368 414.118C642.259 409.611 640.096 403.666 640.348 397.575C653.14 389.935 667.023 383.355 682.848 377.137C685.339 377.317 691.742 382.649 692.277 384.07V476.147H715.927C717.703 482.422 717.695 489.067 715.904 495.337Z" fill="#2C2A29"/>
<path d="M805.184 456.242C805.184 482.719 789.382 497.119 760.366 497.119C752.179 497.119 740.049 495.336 731.373 490.892C730.305 487.885 729.77 485.561 729.77 480.764C729.731 477.039 731.071 473.432 733.533 470.635C738.514 473.297 749.719 477.741 761.45 477.741C776.567 477.741 782.437 468.86 782.437 459.791C782.437 449.309 776.748 440.955 755.942 437.759L746.694 436.33C741.712 433.849 733.901 427.269 733.901 421.938L744.572 378.926H804.507C804.326 385.693 802.904 390.656 797.735 398.123H762.676L757.341 418.208L772.812 421.584C792.731 426.028 805.184 437.759 805.184 456.242Z" fill="#2C2A29"/>
<path d="M613.423 275.441H821.492C825.136 275.441 828.745 276.159 832.112 277.552C835.479 278.946 838.538 280.989 841.115 283.564C843.692 286.139 845.736 289.196 847.131 292.561C848.525 295.926 849.243 299.532 849.243 303.174V335.433H585.672V303.174C585.672 295.819 588.596 288.765 593.8 283.564C599.004 278.363 606.063 275.441 613.423 275.441Z" fill="#59CBE8"/>
<path d="M794.206 323.222C804.035 323.222 812.003 315.26 812.003 305.438C812.003 295.616 804.035 287.654 794.206 287.654C784.378 287.654 776.41 295.616 776.41 305.438C776.41 315.26 784.378 323.222 794.206 323.222Z" fill="#FDDA24"/>
<path d="M640.71 323.222C650.539 323.222 658.506 315.26 658.506 305.438C658.506 295.616 650.539 287.654 640.71 287.654C630.882 287.654 622.914 295.616 622.914 305.438C622.914 315.26 630.882 323.222 640.71 323.222Z" fill="#FDDA24"/>
</g>
<defs>
<clipPath id="clip0">
<rect width="1026" height="934" fill="white" transform="translate(27 73)"/>
</clipPath>
</defs>
</svg>
