<svg width="998" height="1019" viewBox="0 0 998 1019" fill="none" xmlns="http://www.w3.org/2000/svg">
<path d="M367.475 556.526V414.162H274.22V557.426C241.454 568.814 213.804 591.473 196.208 621.358C178.612 651.243 172.215 686.407 178.16 720.572C184.105 754.736 202.004 785.675 228.662 807.865C255.319 830.055 288.999 842.05 323.687 841.709C358.375 841.368 391.812 828.712 418.028 806.002C444.243 783.292 461.53 752.006 466.801 717.731C472.072 683.457 464.984 648.425 446.803 618.892C428.621 589.36 400.531 567.249 367.547 556.508L367.475 556.526Z" fill="#9063CD"/>
<path d="M270.202 414.162H368.628C372.947 414.162 377.088 412.447 380.142 409.394C383.196 406.342 384.912 402.201 384.912 397.884C384.912 393.567 383.196 389.426 380.142 386.373C377.088 383.32 372.947 381.605 368.628 381.605H270.202C265.883 381.605 261.741 383.32 258.687 386.373C255.634 389.426 253.918 393.567 253.918 397.884C253.918 402.201 255.634 406.342 258.687 409.394C261.741 412.447 265.883 414.162 270.202 414.162Z" fill="#9063CD"/>
<path d="M337.916 814.152C327.451 814.223 317.064 812.336 307.293 808.587C306.104 808.079 305.025 807.341 304.121 806.416C303.216 805.491 302.503 804.398 302.021 803.197C301.539 801.996 301.299 800.713 301.313 799.419C301.328 798.126 301.597 796.848 302.106 795.658C302.614 794.469 303.352 793.391 304.277 792.487C305.203 791.583 306.297 790.869 307.498 790.388C308.699 789.906 309.983 789.666 311.277 789.68C312.571 789.695 313.849 789.964 315.039 790.472C330.562 796.039 347.595 795.674 362.865 789.446C383.202 780.767 399.378 761.103 410.943 731.013C411.923 728.637 413.794 726.739 416.156 725.722C418.518 724.706 421.183 724.653 423.583 725.574C425.983 726.496 427.928 728.318 429.003 730.653C430.078 732.988 430.197 735.65 429.335 738.072C415.716 773.51 395.83 796.937 370.25 807.723C360.012 812.009 349.016 814.195 337.916 814.152Z" fill="white"/>
<path d="M332.654 502C330.041 502 327.535 500.962 325.687 499.115C323.839 497.268 322.801 494.763 322.801 492.15V438.705C322.801 436.093 323.839 433.588 325.687 431.74C327.535 429.893 330.041 428.855 332.654 428.855C335.267 428.855 337.774 429.893 339.622 431.74C341.469 433.588 342.508 436.093 342.508 438.705V492.15C342.508 494.763 341.469 497.268 339.622 499.115C337.774 500.962 335.267 502 332.654 502Z" fill="white"/>
<path d="M332.654 562.808C331.36 562.808 330.079 562.554 328.883 562.059C327.688 561.564 326.602 560.838 325.687 559.923C324.772 559.009 324.046 557.923 323.551 556.728C323.056 555.533 322.801 554.252 322.801 552.959V526.254C322.801 523.642 323.839 521.136 325.687 519.289C327.535 517.442 330.041 516.404 332.654 516.404C335.267 516.404 337.774 517.442 339.622 519.289C341.469 521.136 342.508 523.642 342.508 526.254V552.959C342.508 554.252 342.253 555.533 341.757 556.728C341.262 557.923 340.536 559.009 339.622 559.923C338.707 560.838 337.62 561.564 336.425 562.059C335.229 562.554 333.948 562.808 332.654 562.808Z" fill="white"/>
<path d="M288.739 359.601C299.872 359.601 308.896 350.579 308.896 339.451C308.896 328.322 299.872 319.301 288.739 319.301C277.607 319.301 268.582 328.322 268.582 339.451C268.582 350.579 277.607 359.601 288.739 359.601Z" fill="#FDDA24"/>
<path d="M288.739 297.278C299.872 297.278 308.896 288.257 308.896 277.128C308.896 266 299.872 256.979 288.739 256.979C277.607 256.979 268.582 266 268.582 277.128C268.582 288.257 277.607 297.278 288.739 297.278Z" fill="#00C389"/>
<path d="M351.083 329.007C362.215 329.007 371.24 319.985 371.24 308.857C371.24 297.728 362.215 288.707 351.083 288.707C339.95 288.707 330.926 297.728 330.926 308.857C330.926 319.985 339.95 329.007 351.083 329.007Z" fill="#F5B6CD"/>
<path d="M323.001 690.101C397.834 690.101 458.498 681.313 458.498 670.473C458.498 659.633 397.834 650.846 323.001 650.846C248.168 650.846 187.504 659.633 187.504 670.473C187.504 681.313 248.168 690.101 323.001 690.101Z" fill="#F5B6CD"/>
<path d="M626.04 417.583C626.04 415.447 625.618 413.332 624.797 411.36C623.977 409.388 622.775 407.598 621.26 406.091C619.745 404.585 617.947 403.394 615.969 402.584C613.992 401.775 611.874 401.365 609.738 401.377H511.33C507.368 401.241 503.493 402.561 500.439 405.088C497.384 407.615 495.362 411.172 494.754 415.089C494.146 419.005 494.995 423.008 497.14 426.341C499.285 429.674 502.577 432.106 506.394 433.177V776.589C506.394 790.534 511.936 803.909 521.8 813.769C531.665 823.63 545.044 829.17 558.994 829.17C572.944 829.17 586.323 823.63 596.187 813.769C606.051 803.909 611.593 790.534 611.593 776.589V433.753C615.574 433.318 619.252 431.424 621.92 428.439C624.587 425.453 626.055 421.586 626.04 417.583Z" fill="#F5B6CD"/>
<path d="M558.957 544.209C588.017 544.209 611.575 538.227 611.575 530.848C611.575 523.468 588.017 517.486 558.957 517.486C529.897 517.486 506.34 523.468 506.34 530.848C506.34 538.227 529.897 544.209 558.957 544.209Z" fill="#9063CD"/>
<path d="M600.908 602.407H555.154C552.541 602.407 550.035 601.369 548.187 599.522C546.339 597.675 545.301 595.169 545.301 592.557C545.301 589.945 546.339 587.439 548.187 585.592C550.035 583.745 552.541 582.707 555.154 582.707H600.908C603.522 582.707 606.028 583.745 607.876 585.592C609.724 587.439 610.762 589.945 610.762 592.557C610.762 595.169 609.724 597.675 607.876 599.522C606.028 601.369 603.522 602.407 600.908 602.407Z" fill="white"/>
<path d="M600.912 660.677H555.157C553.829 660.734 552.503 660.521 551.259 660.052C550.015 659.583 548.879 658.868 547.919 657.948C546.959 657.029 546.196 655.925 545.674 654.703C545.152 653.48 544.883 652.165 544.883 650.836C544.883 649.507 545.152 648.192 545.674 646.97C546.196 645.747 546.959 644.643 547.919 643.724C548.879 642.805 550.015 642.089 551.259 641.62C552.503 641.151 553.829 640.939 555.157 640.995H600.912C603.45 641.104 605.848 642.188 607.605 644.022C609.363 645.855 610.344 648.297 610.344 650.836C610.344 653.376 609.363 655.817 607.605 657.651C605.848 659.484 603.45 660.568 600.912 660.677Z" fill="white"/>
<path d="M600.914 630.336H578.037C575.424 630.336 572.917 629.299 571.07 627.452C569.222 625.604 568.184 623.099 568.184 620.487C568.184 617.874 569.222 615.369 571.07 613.522C572.917 611.675 575.424 610.637 578.037 610.637H600.914C603.527 610.637 606.034 611.675 607.881 613.522C609.729 615.369 610.767 617.874 610.767 620.487C610.767 623.099 609.729 625.604 607.881 627.452C606.034 629.299 603.527 630.336 600.914 630.336Z" fill="white"/>
<path d="M600.914 689.491H578.037C575.424 689.491 572.917 688.453 571.07 686.606C569.222 684.759 568.184 682.253 568.184 679.641C568.184 677.029 569.222 674.523 571.07 672.676C572.917 670.829 575.424 669.791 578.037 669.791H600.914C603.527 669.791 606.034 670.829 607.881 672.676C609.729 674.523 610.767 677.029 610.767 679.641C610.767 682.253 609.729 684.759 607.881 686.606C606.034 688.453 603.527 689.491 600.914 689.491Z" fill="white"/>
<path d="M588.682 191.09C592.103 191.073 595.498 191.684 598.698 192.891C641.982 209.44 681.033 235.42 713.015 268.945C744.997 302.47 769.105 342.696 783.588 386.701C785.748 393.743 785.059 401.351 781.667 407.891C778.276 414.43 772.454 419.379 765.452 421.673C758.451 423.968 750.828 423.425 744.222 420.162C737.616 416.899 732.554 411.175 730.124 404.221C718.241 368.188 698.485 335.25 672.288 307.795C646.092 280.34 614.112 259.057 578.667 245.489C572.526 243.142 567.401 238.719 564.181 232.988C560.962 227.258 559.852 220.581 561.045 214.117C562.237 207.654 565.656 201.811 570.708 197.605C575.76 193.399 582.126 191.094 588.7 191.09H588.682Z" fill="#FF7F41"/>
<path d="M615.901 177.243C618.729 177.246 621.532 177.771 624.169 178.791C663.625 193.859 699.539 216.915 729.661 246.512C759.783 276.109 783.461 311.609 799.211 350.785C814.96 389.961 822.442 431.968 821.186 474.171C819.929 516.374 809.963 557.862 791.911 596.032C790.679 598.898 788.883 601.487 786.629 603.644C784.376 605.801 781.71 607.482 778.793 608.587C775.875 609.692 772.764 610.198 769.647 610.076C766.529 609.953 763.468 609.204 760.646 607.874C757.824 606.543 755.299 604.658 753.222 602.331C751.144 600.004 749.557 597.282 748.554 594.329C747.552 591.375 747.154 588.25 747.386 585.139C747.618 582.029 748.474 578.997 749.903 576.224C765.223 543.843 773.683 508.646 774.751 472.842C775.82 437.038 769.474 401.399 756.112 368.162C742.749 334.926 722.659 304.809 697.102 279.701C671.545 254.594 641.072 235.038 607.597 222.26C602.482 220.346 598.204 216.692 595.513 211.941C592.823 207.19 591.891 201.643 592.882 196.274C593.872 190.904 596.722 186.055 600.931 182.575C605.139 179.095 610.439 177.208 615.901 177.243Z" fill="#FDDA24"/>
<path d="M810.172 529.533C811.95 529.541 813.719 529.789 815.431 530.271C817.851 530.962 820.11 532.123 822.081 533.687C824.051 535.251 825.694 537.188 826.916 539.387C828.137 541.586 828.913 544.004 829.198 546.503C829.484 549.002 829.274 551.533 828.581 553.951C827.591 557.444 803.525 640.385 757.122 693.613C753.778 697.434 749.052 699.77 743.985 700.108C738.918 700.445 733.924 698.757 730.102 695.414C726.28 692.071 723.943 687.347 723.605 682.282C723.267 677.216 724.956 672.224 728.3 668.403C769.155 621.585 791.6 544.155 791.816 543.381C792.965 539.398 795.376 535.896 798.685 533.399C801.995 530.903 806.025 529.546 810.172 529.533Z" fill="#59CBE8"/>
</svg>
