<svg width="1080" height="1080" viewBox="0 0 1080 1080" fill="none" xmlns="http://www.w3.org/2000/svg">
<ellipse cx="540.5" cy="867.5" rx="515.5" ry="141.5" fill="#FDDA24"/>
<rect x="495" y="667" width="91" height="202" fill="#B28038"/>
<ellipse cx="540.5" cy="867.5" rx="45.5" ry="12.5" fill="#B28038"/>
<path d="M790 625.621C790 660.624 678.071 689 540 689C401.929 689 290 660.624 290 625.621C290 590.618 540 145 540 145C540 145 790 590.618 790 625.621Z" fill="#00C389"/>
<path d="M540 38L559.308 97.4245H621.791L571.241 134.151L590.55 193.575L540 156.849L489.45 193.575L508.759 134.151L458.209 97.4245H520.692L540 38Z" fill="#FDDA24"/>
<circle cx="467.5" cy="305.5" r="35.5" fill="#9063CD"/>
<circle cx="754.5" cy="576.5" r="35.5" fill="#F5B6CD"/>
<circle cx="703.5" cy="452.5" r="35.5" fill="#9063CD"/>
<circle cx="539.5" cy="608.5" r="35.5" fill="#9063CD"/>
<circle cx="539.5" cy="474.5" r="35.5" fill="#F5B6CD"/>
<ellipse cx="621.5" cy="306" rx="35.5" ry="35" fill="#F5B6CD"/>
<circle cx="316.5" cy="576.5" r="35.5" fill="#F5B6CD"/>
<circle cx="376.5" cy="452.5" r="35.5" fill="#9063CD"/>
<path fill-rule="evenodd" clip-rule="evenodd" d="M137.366 184.143V154.843L111.443 169.81L104.698 194.98L96.971 192.91L101.645 175.467L84.2017 185.538L80.2017 178.609L97.9936 168.337L80.0005 163.516L82.071 155.789L107.792 162.68L133.165 148.031L107.242 133.064L82.0706 139.809L80 132.082L97.4436 127.408L80.0005 117.337L84.0005 110.409L101.792 120.68L96.9706 102.688L104.698 100.617L111.59 126.337L137.366 141.219V111.456L118.537 92.6274L124.194 86.9706L137.366 100.143V80H145.366V99.7395L158.135 86.9706L163.792 92.6274L145.366 111.053V140.987L170.739 126.338L177.631 100.617L185.359 102.687L180.537 120.681L197.981 110.609L201.981 117.538L184.886 127.407L202.329 132.081L200.259 139.809L175.088 133.064L149.165 148.031L174.538 162.681L200.259 155.789L202.33 163.516L184.336 168.337L201.78 178.409L197.78 185.337L180.685 175.467L185.359 192.91L177.632 194.98L170.887 169.81L145.366 155.076V184.544L163.793 202.971L158.136 208.628L145.366 195.858V216H137.366V195.456L124.195 208.628L118.538 202.971L137.366 184.143Z" fill="#59CBE8"/>
<path fill-rule="evenodd" clip-rule="evenodd" d="M935.366 184.143V154.843L909.443 169.81L902.698 194.98L894.971 192.91L899.645 175.467L882.202 185.538L878.202 178.609L895.994 168.337L878 163.516L880.071 155.789L905.792 162.68L931.165 148.031L905.242 133.064L880.071 139.809L878 132.082L895.444 127.408L878.001 117.337L882.001 110.409L899.792 120.68L894.971 102.688L902.698 100.617L909.59 126.337L935.366 141.219V111.456L916.537 92.6274L922.194 86.9706L935.366 100.143V80H943.366V99.7395L956.135 86.9706L961.792 92.6274L943.366 111.053V140.987L968.739 126.338L975.631 100.617L983.359 102.687L978.537 120.681L995.981 110.609L999.981 117.538L982.886 127.407L1000.33 132.081L998.259 139.809L973.088 133.064L947.165 148.031L972.538 162.681L998.259 155.789L1000.33 163.516L982.336 168.337L999.78 178.409L995.78 185.337L978.685 175.467L983.359 192.91L975.632 194.98L968.887 169.81L943.366 155.076V184.544L961.793 202.971L956.136 208.628L943.366 195.858V216H935.366V195.456L922.195 208.628L916.538 202.971L935.366 184.143Z" fill="#59CBE8"/>
<path fill-rule="evenodd" clip-rule="evenodd" d="M653.567 142.428C654.994 136.857 660.666 133.498 666.237 134.925C688.259 140.567 709.281 149.425 728.488 161.234C747.692 173.034 765.063 187.772 779.841 204.958C794.626 222.136 806.79 241.744 815.723 263.031C824.66 284.31 830.351 307.209 832.563 330.745C833.101 336.47 828.897 341.547 823.172 342.086C817.447 342.624 812.369 338.419 811.831 332.694C809.811 311.206 804.622 290.374 796.524 271.094L796.523 271.091C788.433 251.811 777.421 234.068 764.058 218.542L764.055 218.538C750.696 203.002 734.977 189.661 717.584 178.975L717.581 178.973C700.188 168.279 681.106 160.23 661.069 155.098C655.499 153.671 652.14 147.998 653.567 142.428Z" fill="#FDDA23"/>
<path fill-rule="evenodd" clip-rule="evenodd" d="M827.195 296.434C831.736 295.485 836.186 298.397 837.135 302.938C840 316.645 841.694 330.675 842.223 344.816L842.335 347.375L842.336 347.396C842.362 348.056 842.375 348.775 842.387 349.38C842.392 349.625 842.396 349.851 842.401 350.047L842.401 350.055L842.728 365.169C842.828 369.807 839.15 373.648 834.511 373.748C829.873 373.848 826.032 370.169 825.932 365.531L825.606 350.445C825.605 350.442 825.605 350.439 825.605 350.437C825.597 350.081 825.591 349.773 825.586 349.49C825.576 348.985 825.568 348.557 825.549 348.069L825.436 345.498L825.435 345.47C824.942 332.242 823.359 319.144 820.691 306.375C819.742 301.834 822.654 297.383 827.195 296.434Z" fill="#59CBE8"/>
<path fill-rule="evenodd" clip-rule="evenodd" d="M778.911 199.485C784.225 195.058 792.121 195.777 796.548 201.091C807.824 214.628 817.572 231 824.392 243.674C827.836 250.072 830.601 255.657 832.512 259.656C833.469 261.657 834.214 263.266 834.725 264.388C834.981 264.949 835.178 265.388 835.315 265.694C835.383 265.846 835.436 265.966 835.473 266.051L835.518 266.151L835.537 266.196C835.538 266.197 835.539 266.199 824.066 271.219L835.539 266.199C838.311 272.535 835.422 279.919 829.086 282.692C822.75 285.464 815.367 282.576 812.593 276.241L812.592 276.239L812.564 276.174C812.539 276.117 812.498 276.026 812.443 275.903C812.333 275.655 812.163 275.277 811.936 274.779C811.481 273.782 810.8 272.31 809.914 270.457C808.14 266.745 805.555 261.525 802.337 255.544C795.833 243.459 787.011 228.775 777.304 217.122C772.877 211.808 773.596 203.912 778.911 199.485Z" fill="#FF7F41"/>
<path fill-rule="evenodd" clip-rule="evenodd" d="M426.422 142.428C424.995 136.857 419.322 133.498 413.752 134.925C391.729 140.567 370.707 149.425 351.5 161.234C332.296 173.034 314.925 187.772 300.147 204.958C285.362 222.136 273.198 241.744 264.265 263.031C255.328 284.31 249.638 307.209 247.425 330.745C246.887 336.47 251.092 341.547 256.817 342.086C262.542 342.624 267.619 338.419 268.157 332.694C270.177 311.206 275.367 290.374 283.464 271.094L283.465 271.091C291.556 251.811 302.567 234.068 315.93 218.542L315.933 218.538C329.293 203.002 345.011 189.661 362.404 178.975L362.407 178.973C379.8 168.279 398.882 160.23 418.919 155.098C424.49 153.671 427.848 147.998 426.422 142.428Z" fill="#FDDA23"/>
<path fill-rule="evenodd" clip-rule="evenodd" d="M252.794 296.434C248.252 295.485 243.802 298.397 242.853 302.938C239.988 316.645 238.294 330.675 237.766 344.816L237.653 347.375L237.652 347.396C237.627 348.056 237.613 348.775 237.601 349.38C237.596 349.625 237.592 349.851 237.587 350.047L237.587 350.055L237.26 365.169C237.16 369.807 240.839 373.648 245.477 373.748C250.115 373.848 253.956 370.169 254.056 365.531L254.383 350.445C254.383 350.442 254.383 350.439 254.383 350.437C254.391 350.081 254.397 349.773 254.403 349.49C254.412 348.985 254.42 348.557 254.439 348.069L254.552 345.498L254.553 345.47C255.046 332.242 256.629 319.144 259.298 306.375C260.247 301.834 257.335 297.383 252.794 296.434Z" fill="#59CBE8"/>
<path fill-rule="evenodd" clip-rule="evenodd" d="M301.078 199.485C295.764 195.058 287.867 195.777 283.44 201.091C272.164 214.628 262.417 231 255.596 243.674C252.153 250.072 249.387 255.657 247.476 259.656C246.519 261.657 245.774 263.266 245.263 264.388C245.007 264.949 244.81 265.388 244.673 265.694C244.605 265.846 244.552 265.966 244.515 266.051L244.47 266.151L244.451 266.196C244.45 266.197 244.45 266.199 255.923 271.219L244.45 266.199C241.677 272.535 244.566 279.919 250.902 282.692C257.238 285.464 264.622 282.576 267.395 276.241L267.396 276.239L267.425 276.174C267.45 276.117 267.49 276.026 267.545 275.903C267.656 275.655 267.826 275.277 268.053 274.779C268.507 273.782 269.188 272.31 270.074 270.457C271.848 266.745 274.433 261.525 277.652 255.544C284.155 243.459 292.977 228.775 302.684 217.122C307.111 211.808 306.392 203.912 301.078 199.485Z" fill="#FF7F41"/>
<path d="M754 742.846L869.808 809.787V942.999L754 876.728V742.846Z" fill="#9063CD"/>
<path d="M984.945 742.846L869.137 809.787V942.999L984.945 876.728V742.846Z" fill="#FF7F41"/>
<path d="M869.807 676.574L753.999 742.846L869.137 809.787L984.945 742.846L869.807 676.574Z" fill="#59CBE8"/>
<mask id="mask0" mask-type="alpha" maskUnits="userSpaceOnUse" x="754" y="676" width="231" height="134">
<path d="M869.807 676.574L753.999 742.846L869.137 809.787L984.945 742.846L869.807 676.574Z" fill="#59CBE8"/>
</mask>
<g mask="url(#mask0)">
<path fill-rule="evenodd" clip-rule="evenodd" d="M939.087 790.855L857.091 743.514L865.793 728.441L947.789 775.782L939.087 790.855Z" fill="#FDDA24"/>
<path fill-rule="evenodd" clip-rule="evenodd" d="M884.597 743.514L744.628 824.325L735.926 809.252L875.895 728.441L884.597 743.514Z" fill="#FDDA24"/>
</g>
<mask id="mask1" mask-type="alpha" maskUnits="userSpaceOnUse" x="869" y="742" width="116" height="201">
<path d="M984.945 742.846L869.137 809.787V942.999L984.945 876.728V742.846Z" fill="#FF7F41"/>
</mask>
<g mask="url(#mask1)">
<path fill-rule="evenodd" clip-rule="evenodd" d="M937.416 747.532L937.416 949.693L920.012 949.693L920.012 747.532L937.416 747.532Z" fill="#FDDA24"/>
</g>
<mask id="mask2" mask-type="alpha" maskUnits="userSpaceOnUse" x="754" y="742" width="116" height="201">
<path d="M754 742.846L869.808 809.787V942.999L754 876.728V742.846Z" fill="#9063CD"/>
</mask>
<g mask="url(#mask2)">
<path fill-rule="evenodd" clip-rule="evenodd" d="M819.604 747.532L819.604 949.693L802.199 949.693L802.199 747.532L819.604 747.532Z" fill="#FDDA24"/>
</g>
<path fill-rule="evenodd" clip-rule="evenodd" d="M928.17 670.867C922.295 671.686 913.917 675.447 904.318 685.047C896.823 692.542 891.618 706.877 888.621 722.339C888.185 724.591 887.81 726.785 887.489 728.886C889.589 728.564 891.784 728.189 894.035 727.753C909.497 724.756 923.833 719.552 931.328 712.057C940.927 702.457 944.688 694.08 945.508 688.204C946.255 682.845 944.775 678.639 941.255 675.119C937.735 671.599 933.529 670.119 928.17 670.867ZM885.656 746.722C903.079 744.457 929.259 738.739 943.634 724.364C966.468 701.53 968.454 677.704 953.562 662.812C938.671 647.921 914.844 649.906 892.011 672.74C877.635 687.115 871.917 713.295 869.653 730.718C868.32 740.97 868.184 748.19 868.184 748.19C868.184 748.19 875.404 748.054 885.656 746.722Z" fill="#FDDA24"/>
<path fill-rule="evenodd" clip-rule="evenodd" d="M809.221 670.867C815.096 671.686 823.473 675.447 833.073 685.047C840.568 692.542 845.773 706.877 848.769 722.339C849.206 724.591 849.58 726.785 849.902 728.886C847.801 728.564 845.607 728.189 843.355 727.753C827.893 724.756 813.558 719.552 806.063 712.057C796.463 702.457 792.703 694.08 791.883 688.204C791.135 682.845 792.615 678.639 796.135 675.119C799.656 671.599 803.861 670.119 809.221 670.867ZM851.735 746.722C834.311 744.457 808.131 738.739 793.756 724.364C770.923 701.53 768.937 677.704 783.829 662.812C798.72 647.921 822.546 649.906 845.38 672.74C859.755 687.115 865.474 713.295 867.738 730.718C869.07 740.97 869.206 748.19 869.206 748.19C869.206 748.19 861.986 748.054 851.735 746.722Z" fill="#FDDA24"/>
<path d="M324.945 742.846L209.137 809.787V942.999L324.945 876.728V742.846Z" fill="#9063CD"/>
<path d="M94 742.846L209.808 809.787V942.999L94 876.728V742.846Z" fill="#FF7F41"/>
<path d="M209.138 676.574L324.946 742.846L209.808 809.787L94 742.846L209.138 676.574Z" fill="#59CBE8"/>
<mask id="mask3" mask-type="alpha" maskUnits="userSpaceOnUse" x="94" y="676" width="231" height="134">
<path d="M209.138 676.574L324.946 742.846L209.808 809.787L94 742.846L209.138 676.574Z" fill="#59CBE8"/>
</mask>
<g mask="url(#mask3)">
<path fill-rule="evenodd" clip-rule="evenodd" d="M139.858 790.855L221.855 743.514L213.152 728.441L131.156 775.782L139.858 790.855Z" fill="#FDDA24"/>
<path fill-rule="evenodd" clip-rule="evenodd" d="M194.348 743.514L334.317 824.325L343.02 809.252L203.051 728.441L194.348 743.514Z" fill="#FDDA24"/>
</g>
<mask id="mask4" mask-type="alpha" maskUnits="userSpaceOnUse" x="94" y="742" width="116" height="201">
<path d="M94 742.846L209.808 809.787V942.999L94 876.728V742.846Z" fill="#FF7F41"/>
</mask>
<g mask="url(#mask4)">
<path fill-rule="evenodd" clip-rule="evenodd" d="M141.529 747.532L141.529 949.693L158.934 949.693L158.934 747.532L141.529 747.532Z" fill="#FDDA24"/>
</g>
<mask id="mask5" mask-type="alpha" maskUnits="userSpaceOnUse" x="209" y="742" width="116" height="201">
<path d="M324.945 742.846L209.137 809.787V942.999L324.945 876.728V742.846Z" fill="#9063CD"/>
</mask>
<g mask="url(#mask5)">
<path fill-rule="evenodd" clip-rule="evenodd" d="M259.341 747.532L259.341 949.693L276.746 949.693L276.746 747.532L259.341 747.532Z" fill="#FDDA24"/>
</g>
<path fill-rule="evenodd" clip-rule="evenodd" d="M150.775 670.867C156.651 671.686 165.028 675.447 174.628 685.047C182.123 692.542 187.327 706.877 190.324 722.339C190.76 724.591 191.135 726.785 191.457 728.886C189.356 728.564 187.162 728.189 184.91 727.753C169.448 724.756 155.113 719.552 147.618 712.057C138.018 702.457 134.258 694.08 133.438 688.204C132.69 682.845 134.17 678.639 137.69 675.119C141.21 671.599 145.416 670.119 150.775 670.867ZM193.289 746.722C175.866 744.457 149.686 738.739 135.311 724.364C112.477 701.53 110.492 677.704 125.383 662.812C140.275 647.921 164.101 649.906 186.935 672.74C201.31 687.115 207.029 713.295 209.293 730.718C210.625 740.97 210.761 748.19 210.761 748.19C210.761 748.19 203.541 748.054 193.289 746.722Z" fill="#FDDA24"/>
<path fill-rule="evenodd" clip-rule="evenodd" d="M269.725 670.867C263.849 671.686 255.472 675.447 245.872 685.047C238.377 692.542 233.173 706.877 230.176 722.339C229.74 724.591 229.365 726.785 229.043 728.886C231.144 728.564 233.338 728.189 235.59 727.753C251.052 724.756 265.387 719.552 272.882 712.057C282.482 702.457 286.242 694.08 287.062 688.204C287.81 682.845 286.33 678.639 282.81 675.119C279.29 671.599 275.084 670.119 269.725 670.867ZM227.211 746.722C244.634 744.457 270.814 738.739 285.189 724.364C308.023 701.53 310.008 677.704 295.117 662.812C280.225 647.921 256.399 649.906 233.565 672.74C219.19 687.115 213.471 713.295 211.207 730.718C209.875 740.97 209.739 748.19 209.739 748.19C209.739 748.19 216.959 748.054 227.211 746.722Z" fill="#FDDA24"/>
</svg>
