<svg width="1080" height="1080" viewBox="0 0 1080 1080" fill="none" xmlns="http://www.w3.org/2000/svg">
<path d="M543.551 366.648H295.297V689.331H543.551V366.648Z" fill="#59CBE8"/>
<path d="M517.532 336.576H269.277V659.259H517.532V336.576Z" fill="#FDDA24"/>
<path d="M486.254 312.229H238V634.911H486.254V312.229Z" fill="#FF7F41"/>
<path d="M457.1 416.107H269.277V441.919H457.1V416.107Z" fill="#2C2A29"/>
<path d="M457.1 469.801H269.277V495.613H457.1V469.801Z" fill="#2C2A29"/>
<path d="M457.1 523.486H269.277V549.298H457.1V523.486Z" fill="#2C2A29"/>
<path d="M457.1 577.174H269.277V602.986H457.1V577.174Z" fill="#2C2A29"/>
<path d="M332.303 825.481L351.602 844.779L452.59 743.791L433.292 724.493L332.303 825.481Z" fill="#2C2A29"/>
<path d="M488.414 815.336C558.371 815.336 615.082 758.625 615.082 688.668C615.082 618.711 558.371 562 488.414 562C418.457 562 361.746 618.711 361.746 688.668C361.746 758.625 418.457 815.336 488.414 815.336Z" fill="#9063CD"/>
<path d="M488.413 788.319C543.449 788.319 588.065 743.703 588.065 688.667C588.065 633.631 543.449 589.016 488.413 589.016C433.377 589.016 388.762 633.631 388.762 688.667C388.762 743.703 433.377 788.319 488.413 788.319Z" fill="#59CBE8"/>
<path d="M286.382 847.623C274.489 859.517 274.489 878.801 286.382 890.695C298.276 902.589 317.56 902.589 329.454 890.695L379.57 840.579C391.464 828.685 391.464 809.401 379.57 797.507C367.676 785.613 348.392 785.613 336.499 797.507L286.382 847.623Z" fill="#00C389"/>
<path d="M488.413 743.806C518.865 743.806 543.552 719.12 543.552 688.667C543.552 658.214 518.865 633.527 488.413 633.527C457.96 633.527 433.273 658.214 433.273 688.667C433.273 719.12 457.96 743.806 488.413 743.806Z" fill="#2C2A29"/>
<path d="M750.945 449.308H689.672C679.384 449.296 669.52 445.205 662.245 437.93C654.971 430.655 650.879 420.792 650.867 410.504V349.224C650.879 338.936 654.971 329.073 662.245 321.798C669.52 314.523 679.384 310.431 689.672 310.42H750.945C761.232 310.438 771.092 314.533 778.366 321.806C785.64 329.079 789.735 338.938 789.755 349.224V410.504C789.735 420.79 785.64 430.649 778.366 437.922C771.092 445.195 761.232 449.289 750.945 449.308ZM689.672 343.36C688.117 343.361 686.626 343.98 685.526 345.079C684.427 346.179 683.809 347.669 683.807 349.224V410.504C683.809 412.058 684.427 413.549 685.526 414.649C686.626 415.748 688.117 416.366 689.672 416.368H750.945C752.501 416.366 753.992 415.748 755.092 414.649C756.193 413.55 756.812 412.059 756.815 410.504V349.224C756.812 347.669 756.193 346.178 755.092 345.079C753.992 343.98 752.501 343.361 750.945 343.36H689.672Z" fill="#F5B6CD"/>
<path d="M750.945 623.198H689.672C679.384 623.187 669.52 619.095 662.245 611.82C654.971 604.546 650.879 594.682 650.867 584.394V523.115C650.879 512.827 654.971 502.963 662.245 495.689C669.52 488.414 679.384 484.322 689.672 484.311H750.945C761.232 484.329 771.092 488.423 778.366 495.696C785.64 502.969 789.735 512.829 789.755 523.115V584.394C789.735 594.68 785.64 604.54 778.366 611.813C771.092 619.086 761.232 623.18 750.945 623.198ZM689.672 517.251C688.117 517.252 686.626 517.87 685.526 518.97C684.427 520.069 683.809 521.56 683.807 523.115V584.394C683.809 585.949 684.427 587.44 685.526 588.539C686.626 589.639 688.117 590.257 689.672 590.258H750.945C752.501 590.257 753.992 589.639 755.092 588.54C756.193 587.44 756.812 585.949 756.815 584.394V523.115C756.812 521.56 756.193 520.069 755.092 518.969C753.992 517.87 752.501 517.252 750.945 517.251H689.672Z" fill="#F5B6CD"/>
<path d="M750.945 790.922H689.672C679.383 790.912 669.519 786.82 662.244 779.545C654.969 772.27 650.877 762.406 650.867 752.117V690.843C650.877 680.555 654.969 670.691 662.244 663.416C669.519 656.141 679.383 652.049 689.672 652.039H750.945C761.234 652.049 771.099 656.14 778.375 663.415C785.651 670.69 789.744 680.554 789.755 690.843V752.117C789.744 762.406 785.651 772.271 778.375 779.545C771.099 786.82 761.234 790.912 750.945 790.922ZM689.672 684.979C688.117 684.981 686.626 685.599 685.526 686.698C684.427 687.798 683.809 689.289 683.807 690.843V752.117C683.809 753.672 684.427 755.163 685.526 756.262C686.626 757.362 688.117 757.98 689.672 757.982H750.945C752.501 757.98 753.992 757.362 755.092 756.263C756.193 755.163 756.812 753.673 756.815 752.117V690.843C756.812 689.288 756.193 687.797 755.092 686.698C753.992 685.599 752.501 684.981 750.945 684.979H689.672Z" fill="#F5B6CD"/>
<path d="M718.778 423.107C716.614 423.111 714.471 422.687 712.472 421.86C710.473 421.032 708.658 419.817 707.13 418.285L678.683 389.837C677.154 388.306 675.941 386.489 675.114 384.489C674.287 382.49 673.862 380.347 673.863 378.183C673.865 376.019 674.292 373.876 675.121 371.878C675.951 369.879 677.165 368.063 678.696 366.534C680.227 365.005 682.045 363.792 684.044 362.965C686.044 362.138 688.187 361.713 690.351 361.714C692.515 361.715 694.658 362.143 696.656 362.972C698.655 363.801 700.471 365.016 702 366.547L718.805 383.347L795.809 306.343C797.331 304.781 799.148 303.538 801.154 302.684C803.161 301.83 805.317 301.383 807.497 301.369C809.678 301.356 811.84 301.775 813.857 302.603C815.874 303.431 817.707 304.651 819.249 306.193C820.791 307.735 822.011 309.568 822.839 311.585C823.667 313.602 824.086 315.764 824.072 317.944C824.058 320.125 823.612 322.281 822.758 324.287C821.904 326.294 820.66 328.111 819.099 329.633L730.42 418.285C728.893 419.816 727.079 421.031 725.081 421.859C723.083 422.686 720.941 423.11 718.778 423.107Z" fill="#00C389"/>
<path d="M718.778 594.119C716.614 594.122 714.472 593.698 712.473 592.87C710.474 592.043 708.658 590.828 707.13 589.297L678.683 560.85C675.594 557.758 673.861 553.565 673.863 549.195C673.866 544.825 675.604 540.634 678.696 537.546C681.788 534.458 685.981 532.724 690.351 532.726C694.721 532.729 698.912 534.467 702 537.559L718.805 554.359L795.782 477.36C797.304 475.799 799.121 474.555 801.128 473.701C803.134 472.848 805.29 472.401 807.471 472.387C809.651 472.373 811.813 472.792 813.83 473.62C815.847 474.448 817.68 475.669 819.222 477.211C820.764 478.753 821.984 480.585 822.812 482.603C823.64 484.62 824.059 486.781 824.045 488.962C824.031 491.142 823.585 493.298 822.731 495.305C821.877 497.311 820.634 499.128 819.072 500.65L730.42 589.302C728.892 590.832 727.077 592.045 725.079 592.872C723.082 593.698 720.94 594.122 718.778 594.119Z" fill="#00C389"/>
</svg>
