<svg width="1080" height="1080" viewBox="0 0 1080 1080" fill="none" xmlns="http://www.w3.org/2000/svg">
<path d="M207.472 284.94C218.165 284.94 226.829 276.276 226.829 265.583V264.963C226.829 249.097 219.213 233.825 205.93 223.059C198.348 216.911 189.31 212.479 179.525 209.976V196.747C179.525 186.054 170.862 177.391 160.169 177.391C149.476 177.391 140.812 186.054 140.812 196.747V209.129C129.612 211.391 119.253 216.144 110.723 223.052C97.44 233.818 89.8242 249.09 89.8242 264.956V268.634C89.8242 284.499 97.44 299.771 110.723 310.537C123.011 320.496 139.11 325.983 156.057 325.983H160.596C175.254 325.983 188.116 334.693 188.116 344.618V350.973C188.116 360.905 175.254 369.608 160.596 369.608H156.057C141.64 369.608 128.971 361.185 128.557 351.46C128.557 351.427 128.557 351.386 128.557 351.353C128.557 340.654 119.887 331.983 109.187 331.983C98.6215 331.983 90.0311 340.447 89.8309 350.966H89.8242C89.8242 351.046 89.8242 351.126 89.8309 351.206C89.8309 351.253 89.8242 351.3 89.8242 351.346C89.8242 351.533 89.8309 351.714 89.8376 351.9C90.1313 367.426 97.7004 382.317 110.723 392.87C119.246 399.778 129.605 404.53 140.812 406.793V423.219C140.812 433.912 149.476 442.576 160.169 442.576C170.862 442.576 179.525 433.912 179.525 423.219V405.952C189.31 403.449 198.348 399.017 205.93 392.87C219.213 382.103 226.829 366.832 226.829 350.966V344.612C226.829 328.746 219.213 313.474 205.93 302.708C193.642 292.749 177.543 287.263 160.596 287.263H156.057C141.4 287.263 128.537 278.552 128.537 268.627V264.949C128.537 255.017 141.4 246.313 156.057 246.313H160.596C175.254 246.313 188.116 255.024 188.116 264.949V265.57C188.116 276.269 196.786 284.94 207.472 284.94Z" fill="#00C389"/>
<path d="M182.274 769.648C175.272 769.648 168.351 766.518 163.752 760.544C130.672 717.606 106.223 667.305 93.0334 615.082C86.3988 588.791 82.4674 561.711 81.3394 534.586C80.218 507.626 81.8466 480.354 86.1852 453.521C88.2477 440.786 100.242 432.129 112.977 434.185C125.713 436.241 134.37 448.242 132.314 460.977C128.476 484.706 127.034 508.821 128.029 532.643C129.023 556.572 132.494 580.461 138.341 603.642C149.975 649.717 171.561 694.111 200.77 732.03C208.646 742.249 206.737 756.92 196.518 764.796C192.266 768.066 187.253 769.648 182.274 769.648Z" fill="#F5B6CD"/>
<path d="M854.186 547.117C854.073 547.117 853.959 547.117 853.839 547.117C840.937 546.93 830.631 536.324 830.818 523.421L830.898 517.755L830.791 508.443L830.518 500.848C830.458 499.413 830.364 497.884 830.257 496.275C830.197 495.348 830.137 494.42 830.084 493.492C829.41 483.634 828.322 473.702 826.847 463.977C823.896 444.707 819.197 425.263 812.876 406.214C806.609 387.531 798.673 369.149 789.288 351.588C779.99 334.281 769.064 317.487 756.856 301.735C744.841 286.276 731.265 271.559 716.521 258.016C702.17 244.846 686.324 232.625 669.417 221.699C653.131 211.179 635.443 201.815 616.861 193.872C608.15 190.147 599.053 186.737 589.027 183.446C579.336 180.282 569.698 177.566 560.42 175.39C547.858 172.439 540.069 159.864 543.019 147.303C545.969 134.741 558.544 126.951 571.106 129.902C581.659 132.378 592.585 135.455 603.565 139.039C614.925 142.77 625.271 146.648 635.23 150.907C656.228 159.884 676.266 170.497 694.775 182.451C713.884 194.806 731.832 208.65 748.119 223.594C764.785 238.906 780.137 255.553 793.767 273.08C807.583 290.902 819.925 309.885 830.478 329.522C841.11 349.432 850.088 370.224 857.183 391.383L857.203 391.449C864.358 412.995 869.678 435.028 873.029 456.935C874.704 468.001 875.939 479.262 876.7 490.442L876.713 490.702C876.76 491.576 876.82 492.444 876.873 493.318C876.987 495.141 877.107 497.023 877.187 499.012L877.488 507.602L877.608 517.855L877.521 524.095C877.354 536.878 866.928 547.117 854.186 547.117Z" fill="#FF7F41"/>
<path d="M795.451 377.62C789.304 377.62 783.39 374.21 780.48 368.329C760.462 327.874 731.568 290.889 696.919 261.387C679.485 246.543 660.602 233.52 640.805 222.681C620.868 211.754 599.736 202.85 578.003 196.202C534.598 182.933 487.861 178.494 442.861 183.36C397.9 188.186 353.273 202.577 313.785 224.984C305.769 229.529 295.584 226.719 291.038 218.703C286.493 210.686 289.303 200.501 297.319 195.955C340.745 171.312 389.837 155.487 439.29 150.18C488.729 144.834 540.077 149.713 587.761 164.291C611.67 171.599 634.911 181.398 656.845 193.412C678.631 205.34 699.396 219.664 718.559 235.983C756.631 268.402 788.389 309.051 810.396 353.538C814.481 361.801 811.097 371.807 802.84 375.892C800.457 377.066 797.934 377.62 795.451 377.62Z" fill="#FDDA24"/>
<path d="M463.299 893.247C462.919 893.247 462.545 893.24 462.165 893.22C439.785 892.146 417.831 889.209 396.906 884.496C386.253 882.113 375.561 879.237 365.161 875.953C355.129 872.796 344.704 868.964 334.198 864.586C313.566 855.942 293.949 845.63 275.847 833.922C257.465 822.068 239.971 808.498 223.872 793.607C207.919 778.836 193.048 762.423 179.665 744.808C173.044 736.091 166.73 726.987 160.896 717.742C155.142 708.618 149.656 698.98 144.57 689.088C134.484 669.418 126.121 648.906 119.713 628.108C113.285 607.156 108.66 585.51 105.95 563.731C104.361 550.929 113.446 539.255 126.254 537.666C139.056 536.071 150.73 545.162 152.319 557.97C154.695 577.06 158.747 596.043 164.373 614.378C169.973 632.547 177.296 650.515 186.14 667.756C190.592 676.426 195.397 684.863 200.41 692.819C205.523 700.916 211.063 708.905 216.87 716.554C228.611 732.006 241.64 746.397 255.603 759.319C269.713 772.368 285.059 784.269 301.198 794.682C317.01 804.907 334.171 813.918 352.219 821.487C361.404 825.318 370.495 828.662 379.218 831.406C388.363 834.296 397.747 836.819 407.139 838.921C425.467 843.053 444.717 845.623 464.401 846.564C477.29 847.185 487.235 858.131 486.614 871.02C486.013 883.508 475.688 893.247 463.299 893.247Z" fill="#00C389"/>
<path d="M257.308 235.377C251.047 235.377 244.879 232.446 240.968 226.953C234.56 217.942 236.669 205.44 245.687 199.033C246.628 198.359 247.569 197.685 248.51 197.004C250.413 195.629 252.382 194.207 254.457 192.785L254.551 192.719C255.379 192.158 256.206 191.591 257.034 191.023C259.11 189.601 261.252 188.126 263.568 186.665C275.723 178.735 288.438 171.393 301.354 164.838C314.263 158.317 327.772 152.417 341.529 147.277C355.579 142.051 369.669 137.666 383.439 134.248C397.563 130.731 412.04 127.961 426.471 126.025C437.431 124.55 447.51 132.239 448.985 143.206C450.46 154.166 442.764 164.244 431.804 165.719C418.835 167.462 405.819 169.951 393.104 173.115C380.783 176.179 368.141 180.11 355.519 184.809C343.157 189.428 331.009 194.734 319.442 200.575C307.802 206.482 296.321 213.116 285.341 220.278L285.108 220.432C283.372 221.527 281.583 222.755 279.688 224.056C278.8 224.664 277.912 225.271 277.018 225.878C275.376 227 273.707 228.208 271.945 229.476C270.931 230.21 269.909 230.945 268.888 231.672C265.377 234.175 261.319 235.377 257.308 235.377Z" fill="#00C389"/>
<path d="M478.917 909.155H478.817C468.712 909.101 458.333 908.667 447.974 907.866C438.182 907.085 428.143 905.877 417.25 904.175C376.161 897.621 336.68 884.678 299.849 865.695C291.659 861.47 288.442 851.412 292.66 843.222C296.885 835.032 306.944 831.815 315.141 836.033C348.821 853.394 384.931 865.228 422.456 871.215C432.462 872.777 441.679 873.885 450.597 874.6C460.101 875.34 469.653 875.741 478.937 875.788C488.402 875.774 497.947 875.414 507.305 874.713C516.176 874.046 525.387 872.964 535.459 871.396C573.051 865.442 609.147 853.654 642.694 836.354C643.475 835.946 644.25 835.539 645.037 835.139C646.405 834.431 647.7 833.764 648.915 833.096L655.69 829.358C659.762 827.009 663.613 824.786 667.357 822.437L667.431 822.39C675.814 817.191 683.73 811.864 690.952 806.558C706.504 795.104 720.948 782.662 733.857 769.587C740.332 763.025 750.898 762.959 757.452 769.433C764.013 775.908 764.08 786.474 757.606 793.028C743.469 807.352 727.697 820.948 710.716 833.443C702.787 839.264 694.156 845.077 685.052 850.724C680.8 853.387 676.515 855.864 672.37 858.26L671.496 858.761L664.994 862.338C663.393 863.219 661.837 864.027 660.329 864.801C659.601 865.175 658.874 865.555 658.146 865.936L658.026 865.996C621.302 884.945 581.794 897.854 540.618 904.375C529.618 906.084 519.553 907.266 509.788 908C499.596 908.754 489.21 909.141 478.917 909.155Z" fill="#59CBE8"/>
<path d="M807.381 737.561L783.527 761.414L908.353 886.24L932.207 862.387L807.381 737.561Z" fill="#2C2A29"/>
<path d="M739.252 849.847C825.722 849.847 895.82 779.749 895.82 693.279C895.82 606.809 825.722 536.711 739.252 536.711C652.782 536.711 582.684 606.809 582.684 693.279C582.684 779.749 652.782 849.847 739.252 849.847Z" fill="#9063CD"/>
<path d="M739.253 816.455C807.28 816.455 862.428 761.308 862.428 693.28C862.428 625.253 807.28 570.105 739.253 570.105C671.225 570.105 616.078 625.253 616.078 693.28C616.078 761.308 671.225 816.455 739.253 816.455Z" fill="#59CBE8"/>
<path d="M988.979 943.006C974.275 957.711 950.446 957.711 935.742 943.006L873.794 881.059C859.09 866.354 859.09 842.526 873.794 827.821C888.498 813.117 912.327 813.117 927.031 827.821L988.979 889.769C1003.68 904.467 1003.68 928.302 988.979 943.006Z" fill="#00C389"/>
<path d="M739.253 761.436C776.894 761.436 807.408 730.921 807.408 693.28C807.408 655.639 776.894 625.125 739.253 625.125C701.612 625.125 671.098 655.639 671.098 693.28C671.098 730.921 701.612 761.436 739.253 761.436Z" fill="#2C2A29"/>
</svg>
