<svg width="1080" height="1080" viewBox="0 0 1080 1080" fill="none" xmlns="http://www.w3.org/2000/svg">
<path d="M827 831.8L755.5 807.2L789.9 641L899.1 678.5L827 831.8Z" fill="#FF7F41"/>
<path d="M898.899 686.801L785.099 647.701C783.399 647.101 782.399 645.201 782.999 643.501L785.999 634.801C786.599 633.101 788.499 632.101 790.199 632.701L903.999 671.801C905.699 672.401 906.699 674.301 906.099 676.001L903.099 684.701C902.499 686.401 900.599 687.401 898.899 686.801Z" fill="#FF7F41"/>
<path d="M838.601 686.1L822.801 677.5L857.301 614.3C858.901 611.4 861.601 609.3 864.701 608.5C867.901 607.7 871.201 608.2 874.001 610L920.501 639.7L910.801 654.9L869.901 628.8L838.601 686.1Z" fill="#FF7F41"/>
<path d="M815.4 760.999C830.533 760.999 842.8 748.732 842.8 733.599C842.8 718.467 830.533 706.199 815.4 706.199C800.267 706.199 788 718.467 788 733.599C788 748.732 800.267 760.999 815.4 760.999Z" fill="white"/>
<path d="M343 420H239.3H225.1V483.4V542C221.6 540.3 217.7 539.3 213.6 539.3C199.4 539.3 188 550.8 188 564.9C188 579.1 199.5 590.5 213.6 590.5C227.7 590.5 239.3 579.1 239.3 564.9V483.4H343V542C339.5 540.3 335.6 539.3 331.5 539.3C317.3 539.3 305.9 550.8 305.9 564.9C305.9 579.1 317.4 590.5 331.5 590.5C345.6 590.5 357.1 579 357.1 564.9V483.4V420H343Z" fill="#9063CD"/>
<path d="M285.8 700.699C177.8 700.699 90 612.899 90 504.999C90 482.399 93.8 460.199 101.4 438.999C104.6 430.199 114.3 425.599 123.1 428.699C131.9 431.899 136.5 441.599 133.4 450.399C127.2 467.899 124 486.199 124 504.999C124 594.199 196.6 666.799 285.8 666.799C375 666.799 447.5 594.199 447.5 504.999C447.5 474.099 438.8 444.099 422.2 418.199C406.1 392.899 383.4 372.699 356.5 359.599C348.1 355.499 344.6 345.299 348.7 336.899C352.8 328.499 363 324.999 371.4 329.099C403.9 344.999 431.4 369.499 450.8 399.999C470.8 431.399 481.4 467.699 481.4 505.099C481.5 612.899 393.7 700.699 285.8 700.699Z" fill="#FF7F41"/>
<path d="M141.099 416.899C137.599 416.899 134.099 415.799 131.099 413.599C123.499 408.099 121.799 397.399 127.399 389.899C145.199 365.499 168.699 345.199 195.499 331.199C223.199 316.799 254.399 309.199 285.799 309.199C295.199 309.199 302.799 316.799 302.799 326.199C302.799 335.599 295.199 343.199 285.799 343.199C259.499 343.199 234.399 349.299 211.199 361.399C189.099 372.899 169.599 389.699 154.899 409.899C151.599 414.499 146.399 416.899 141.099 416.899Z" fill="#FF7F41"/>
<path d="M912.298 603.698C909.898 603.698 907.398 602.998 905.198 601.498C900.498 598.298 895.498 595.298 890.398 592.698C884.298 589.498 881.898 581.998 884.998 575.898C888.198 569.798 895.698 567.398 901.798 570.498C907.798 573.598 913.598 577.098 919.198 580.898C924.898 584.798 926.298 592.598 922.398 598.298C920.198 601.798 916.298 603.698 912.298 603.698Z" fill="#F5B6CD"/>
<path d="M972.401 686.1C967.001 686.1 962.001 682.6 960.401 677.2C954.701 658 945.101 640.6 931.901 625.4C927.401 620.2 927.901 612.3 933.101 607.8C938.301 603.3 946.201 603.8 950.701 609C966.301 626.9 977.601 647.5 984.301 670.1C986.301 676.7 982.501 683.7 975.901 685.6C974.801 685.9 973.601 686.1 972.401 686.1Z" fill="#F5B6CD"/>
<path d="M826.098 882.4C734.998 882.4 660.898 808.3 660.898 717.2C660.898 626.1 734.998 552 826.098 552C832.998 552 838.598 557.6 838.598 564.5C838.598 571.4 832.998 577 826.098 577C748.798 577.1 685.998 640 685.998 717.3C685.998 794.6 748.898 857.5 826.198 857.5C903.498 857.5 966.398 794.6 966.398 717.3C966.398 715.3 966.398 713.2 966.298 711.2C965.998 704.3 971.398 698.5 978.298 698.2C985.198 697.9 990.998 703.3 991.298 710.2C991.398 712.6 991.498 715 991.498 717.4C991.298 808.3 917.198 882.4 826.098 882.4Z" fill="#F5B6CD"/>
<path d="M766.998 443.1C658.298 443.1 569.898 354.7 569.898 246C569.898 137.4 658.298 49 766.998 49C807.498 49 846.398 61.2 879.598 84.3C911.998 106.9 936.598 138.1 950.798 174.8C954.098 183.3 949.898 192.9 941.398 196.2C932.898 199.5 923.298 195.3 919.998 186.8C908.198 156.3 887.698 130.3 860.698 111.5C833.098 92.2 800.698 82 766.998 82C676.498 82 602.898 155.6 602.898 246.1C602.898 336.6 676.498 410.2 766.998 410.2C794.998 410.2 822.598 403 846.898 389.5C854.898 385.1 864.898 387.9 869.398 395.9C873.798 403.9 870.998 413.9 862.998 418.4C833.698 434.5 800.598 443.1 766.998 443.1Z" fill="#00C389"/>
<path d="M832.4 186H700.1C666.9 186 640 212.9 640 246.1C640 279.3 666.9 306.2 700.1 306.2C722.3 306.2 741.7 294.1 752.1 276.2H780.4C790.8 294.1 810.2 306.2 832.4 306.2C865.6 306.2 892.5 279.3 892.5 246.1C892.5 212.9 865.6 186 832.4 186Z" fill="#FDDA24"/>
<path d="M726.398 235.698H708.098V217.398H687.198V235.698H668.898V256.598H687.198V274.898H708.098V256.598H726.398V235.698Z" fill="white"/>
<path d="M807.201 255.3C813.497 255.3 818.601 250.196 818.601 243.9C818.601 237.604 813.497 232.5 807.201 232.5C800.905 232.5 795.801 237.604 795.801 243.9C795.801 250.196 800.905 255.3 807.201 255.3Z" fill="#00C389"/>
<path d="M860.701 255.3C866.997 255.3 872.101 250.196 872.101 243.9C872.101 237.604 866.997 232.5 860.701 232.5C854.405 232.5 849.301 237.604 849.301 243.9C849.301 250.196 854.405 255.3 860.701 255.3Z" fill="#F5B6CD"/>
<path d="M833.9 281.999C840.196 281.999 845.3 276.895 845.3 270.599C845.3 264.303 840.196 259.199 833.9 259.199C827.604 259.199 822.5 264.303 822.5 270.599C822.5 276.895 827.604 281.999 833.9 281.999Z" fill="#9063CD"/>
<path d="M833.9 228.499C840.196 228.499 845.3 223.395 845.3 217.099C845.3 210.803 840.196 205.699 833.9 205.699C827.604 205.699 822.5 210.803 822.5 217.099C822.5 223.395 827.604 228.499 833.9 228.499Z" fill="#FF7F41"/>
<path d="M777.802 249.199H754.602V260.099H777.802V249.199Z" fill="white"/>
<path d="M921.698 355.602C918.798 355.602 915.898 354.802 913.198 353.202C905.398 348.502 902.898 338.402 907.598 330.602C922.898 305.202 930.998 276.002 930.998 246.102C930.998 237.002 938.398 229.602 947.498 229.602C956.598 229.602 963.998 237.002 963.998 246.102C963.998 282.002 954.298 317.102 935.898 347.602C932.798 352.702 927.298 355.602 921.698 355.602Z" fill="#00C389"/>
<path d="M577.502 1031.7C688.732 1031.7 778.902 941.529 778.902 830.298C778.902 719.068 688.732 628.898 577.502 628.898C466.271 628.898 376.102 719.068 376.102 830.298C376.102 941.529 466.271 1031.7 577.502 1031.7Z" fill="#E4AC7B"/>
<path d="M670.904 905.198L438.304 905.298C413.404 905.298 393.204 885.099 393.204 860.198L393.004 334.098C393.004 309.198 413.204 288.998 438.104 288.998L670.704 288.898C695.604 288.898 715.804 309.098 715.804 333.998L716.004 860.098C716.104 884.998 695.904 905.198 670.904 905.198Z" fill="#59CBE8"/>
<path d="M554.605 889.799C565.927 889.799 575.105 880.621 575.105 869.299C575.105 857.977 565.927 848.799 554.605 848.799C543.284 848.799 534.105 857.977 534.105 869.299C534.105 880.621 543.284 889.799 554.605 889.799Z" fill="white"/>
<path d="M691.703 357.398L691.803 829.498H691.703L417.403 829.598V775.198L417.203 357.498L691.703 357.398Z" fill="white"/>
<path d="M638.304 684.517L469.004 682.017C465.704 682.017 463.004 679.217 463.004 675.917L465.504 506.617C465.504 503.317 468.304 500.617 471.604 500.617L640.904 503.117C644.204 503.117 646.904 505.917 646.904 509.217L644.504 678.517C644.404 681.817 641.704 684.517 638.304 684.517Z" fill="#F5B6CD"/>
<path d="M545.841 501.696L543.176 683.078L564.174 683.387L566.839 502.005L545.841 501.696Z" fill="#59CBE8"/>
<path d="M464.472 580.713L464.164 601.711L645.546 604.371L645.854 583.373L464.472 580.713Z" fill="#59CBE8"/>
<path d="M556.302 514.319C555.002 514.319 553.702 514.119 552.402 513.619L491.702 489.519C483.002 486.119 476.702 478.619 474.602 469.519C472.502 460.419 475.102 450.919 481.402 444.119C487.002 438.019 495.002 434.719 503.302 435.019C511.602 435.319 519.302 439.319 524.402 445.919L564.602 497.419C567.502 501.119 567.602 506.419 564.702 510.219C562.702 512.819 559.502 514.319 556.302 514.319ZM502.102 455.919C500.802 455.919 498.602 456.219 496.802 458.219C494.502 460.719 494.802 463.619 495.102 464.719C495.402 465.819 496.302 468.619 499.502 469.819L524.302 479.719L507.902 458.619C506.102 456.319 503.702 455.919 502.502 455.819C502.402 455.919 502.302 455.919 502.102 455.919Z" fill="#59CBE8"/>
<path d="M556.304 514.319C553.004 514.319 549.704 512.719 547.704 509.819C545.004 505.919 545.204 500.719 548.204 497.119L589.904 446.819C595.204 440.419 603.004 436.719 611.304 436.619C619.604 436.519 627.504 440.019 633.004 446.319C639.104 453.319 641.404 462.919 639.004 471.919C636.604 480.919 630.104 488.219 621.304 491.419L559.904 513.719C558.704 514.119 557.504 514.319 556.304 514.319ZM611.704 457.519C611.604 457.519 611.604 457.519 611.704 457.519C610.404 457.519 608.004 457.919 606.104 460.119L589.104 480.719L614.204 471.619C617.404 470.419 618.504 467.719 618.704 466.619C619.004 465.519 619.404 462.619 617.204 460.019C615.304 457.819 612.904 457.519 611.704 457.519Z" fill="#59CBE8"/>
<path d="M691.702 775.098H417.402V829.598H691.702V775.098Z" fill="#FDDA24"/>
<path d="M416.902 830.098V774.598H417.402L692.202 774.498V829.998H691.702L416.902 830.098ZM417.902 775.698V829.198L691.202 829.098V775.598L417.902 775.698Z" fill="#FDDA24"/>
<path d="M773.104 851.397C766.304 883.097 752.704 913.297 733.104 939.697C728.704 945.597 725.104 952.597 722.104 960.197C718.604 968.997 692.404 982.097 682.804 976.997L626.404 905.497C624.204 896.697 623.004 887.497 623.004 877.997C623.004 840.297 641.604 806.997 670.104 786.697C679.204 780.197 681.004 778.197 691.804 774.697V726.897L649.304 639.497C632.604 613.497 640.204 578.997 666.104 562.297C667.204 561.597 668.404 561.297 669.604 561.297C671.704 561.297 673.804 562.297 675.004 564.297L720.904 635.797L760.604 697.097C770.004 711.597 775.304 728.297 776.104 745.597L777.104 767.697L777.404 774.197V774.397L778.204 792.297C779.004 812.297 777.304 832.097 773.104 851.397Z" fill="#E4AC7B"/>
<path d="M379.102 823.999L346.302 782.799C333.202 766.399 335.902 742.499 352.402 729.399L382.102 705.699L438.602 776.599C451.702 792.999 449.002 816.899 432.502 829.999C416.102 843.099 392.202 840.399 379.102 823.999Z" fill="#E4AC7B"/>
<path d="M379.102 747.198L346.302 705.998C333.202 689.598 335.902 665.698 352.302 652.598L382.002 628.898L438.502 699.798C451.602 716.198 448.902 740.098 432.402 753.198C416.002 766.298 392.102 763.598 379.102 747.198Z" fill="#E4AC7B"/>
<path d="M379.102 670.3L346.302 629.1C333.202 612.7 335.902 588.8 352.402 575.7L382.102 552L438.602 622.9C451.702 639.3 449.002 663.2 432.602 676.3C416.002 689.5 392.102 686.8 379.102 670.3Z" fill="#E4AC7B"/>
<path d="M382.004 475.298L393.104 466.898V507.798L382.004 475.298Z" fill="#E4AC7B"/>
<path d="M379.001 593.499L346.201 552.299C333.101 535.899 335.801 511.999 352.301 498.899L382.001 475.199L438.501 546.099C451.601 562.499 448.901 586.399 432.401 599.499C416.001 612.599 392.101 609.899 379.001 593.499Z" fill="#E4AC7B"/>
</svg>
