<svg width="1080" height="1080" viewBox="0 0 1080 1080" fill="none" xmlns="http://www.w3.org/2000/svg">
<path d="M600.152 658.26C585.426 658.26 571.304 664.109 560.891 674.522C550.479 684.935 544.629 699.057 544.629 713.783H655.674C655.675 706.491 654.239 699.271 651.449 692.534C648.659 685.797 644.57 679.676 639.414 674.52C634.258 669.364 628.137 665.275 621.4 662.485C614.663 659.695 607.443 658.259 600.152 658.26Z" fill="#00C389"/>
<path d="M845.301 711.412H754.133L755.607 491.811H864.633L845.301 711.412Z" fill="#F5B6CD"/>
<path d="M754.937 591.651H613.829L608.332 491.811H755.606L754.937 591.651Z" fill="#FF7F41"/>
<path d="M754.133 711.412H633.648L627.082 592.137H754.932L754.133 711.412Z" fill="#9063CD"/>
<path d="M811.529 682.318L789.578 682.226L789.767 638.346L813.932 638.443L811.529 682.318Z" fill="#2C2A29"/>
<path d="M818.397 581.98L790.004 581.861L790.22 529.768L822.442 529.903L818.397 581.98Z" fill="#2C2A29"/>
<path d="M684.133 682.295H642.866L640.23 638.393H684.133V682.295Z" fill="#2C2A29"/>
<path d="M875.702 491.811H593.497L591.586 474.568H879.023L875.702 491.811Z" fill="#FDDA24"/>
<path d="M737.254 638.393H698.633V711.411H737.254V638.393Z" fill="#2C2A29"/>
<path d="M700.888 591.651H737.457L737.322 515.549H699.414L700.888 591.651Z" fill="#2C2A29"/>
<path d="M633.614 591.651H682.16L679.995 515.549H630.109L633.614 591.651Z" fill="#2C2A29"/>
<path d="M758.636 607.1H605.141L604.094 591.65H758.739L758.636 607.1Z" fill="#FDDA24"/>
<path d="M553.417 680.227C542.976 680.227 532.963 684.374 525.581 691.757C518.198 699.139 514.051 709.152 514.051 719.593H592.783C592.783 709.152 588.635 699.139 581.253 691.757C573.87 684.374 563.857 680.227 553.417 680.227Z" fill="#00C389"/>
<path d="M622.717 688.787C609.457 688.787 596.74 694.055 587.363 703.431C577.986 712.808 572.719 725.525 572.719 738.786H672.716C672.715 725.526 667.446 712.809 658.07 703.433C648.694 694.057 635.977 688.789 622.717 688.787Z" fill="#00C389"/>
<path d="M855.619 683.252C846.954 683.253 838.644 686.697 832.518 692.824C826.391 698.952 822.949 707.262 822.949 715.927H888.289C888.289 707.262 884.847 698.952 878.721 692.824C872.594 686.697 864.284 683.253 855.619 683.252Z" fill="#00C389"/>
<path d="M886.08 686.141C880.715 686.141 875.57 688.272 871.776 692.065C867.983 695.859 865.852 701.004 865.852 706.369H906.314C906.312 701.004 904.18 695.858 900.385 692.065C896.591 688.272 891.445 686.141 886.08 686.141Z" fill="#00C389"/>
<path d="M430.381 496.865C434.123 496.872 437.862 496.692 441.586 496.325C469.002 493.56 486.617 481.637 487.351 481.14C489.729 479.5 491.362 476.985 491.89 474.145C492.419 471.304 491.8 468.37 490.171 465.985C488.542 463.599 486.033 461.956 483.195 461.415C480.358 460.874 477.421 461.48 475.028 463.099C474.693 463.32 460.367 472.711 438.362 474.676C408.819 477.311 379.74 465.955 351.93 440.932C349.776 438.994 346.94 437.991 344.047 438.144C341.154 438.297 338.44 439.593 336.502 441.747C334.564 443.901 333.562 446.737 333.714 449.63C333.867 452.523 335.163 455.237 337.317 457.175C372.601 488.916 405.903 496.865 430.381 496.865Z" fill="#9063CD"/>
<path d="M430.381 486.032C434.122 486.04 437.862 485.859 441.586 485.492C468.98 482.727 486.595 470.826 487.329 470.318C489.655 468.657 491.238 466.151 491.737 463.337C492.237 460.523 491.614 457.625 490.001 455.265C488.389 452.905 485.916 451.271 483.113 450.713C480.309 450.156 477.399 450.719 475.006 452.282C474.672 452.503 460.345 461.894 438.34 463.854C408.797 466.489 379.718 455.139 351.908 430.115C349.745 428.24 346.933 427.289 344.076 427.466C341.22 427.643 338.547 428.935 336.632 431.062C334.717 433.19 333.714 435.984 333.838 438.843C333.962 441.703 335.204 444.399 337.296 446.353C372.601 478.078 405.903 486.032 430.381 486.032Z" fill="#00C389"/>
<path d="M372.531 483.694C374.131 483.693 375.684 483.151 376.937 482.155C378.189 481.158 379.067 479.767 379.427 478.208C379.787 476.649 379.608 475.014 378.92 473.569C378.232 472.124 377.074 470.956 375.636 470.253C355.969 460.663 337.534 445.64 320.848 425.595C320.253 424.881 319.524 424.29 318.701 423.857C317.878 423.424 316.978 423.158 316.052 423.073C315.126 422.988 314.192 423.086 313.304 423.362C312.416 423.637 311.591 424.085 310.877 424.68C310.162 425.275 309.571 426.004 309.138 426.827C308.705 427.65 308.439 428.55 308.354 429.476C308.269 430.402 308.367 431.336 308.643 432.223C308.919 433.111 309.367 433.936 309.961 434.651C327.938 456.251 347.945 472.505 369.421 482.976C370.389 483.449 371.453 483.695 372.531 483.694Z" fill="#59CBE8"/>
<path d="M432.656 497.178H432.775C465.991 496.638 488.903 484.558 489.859 484.045C491.514 483.159 492.75 481.652 493.294 479.855C493.839 478.058 493.647 476.118 492.761 474.462C491.875 472.807 490.368 471.571 488.571 471.027C486.774 470.482 484.834 470.674 483.179 471.56C482.822 471.749 462.043 482.549 432.548 483.024C430.704 483.087 428.958 483.868 427.681 485.199C426.404 486.531 425.697 488.309 425.711 490.154C425.725 491.998 426.459 493.765 427.756 495.077C429.054 496.389 430.812 497.143 432.656 497.178Z" fill="#59CBE8"/>
<path d="M527.885 384.342C542.821 370.044 544.31 347.36 531.21 333.675C518.11 319.991 495.382 320.489 480.446 334.787C465.51 349.085 464.022 371.769 477.122 385.453C490.222 399.138 512.949 398.64 527.885 384.342Z" fill="#E4AC7B"/>
<path d="M394.578 568.377C395.933 568.377 397.261 568.003 398.417 567.297C434.527 545.465 465.577 503.075 466.884 501.277C467.458 500.486 467.871 499.59 468.1 498.64C468.328 497.69 468.366 496.704 468.213 495.738C468.06 494.773 467.719 493.847 467.208 493.014C466.697 492.181 466.028 491.456 465.237 490.882C464.446 490.308 463.55 489.895 462.6 489.666C461.65 489.438 460.664 489.4 459.698 489.553C458.733 489.706 457.807 490.047 456.974 490.558C456.141 491.068 455.416 491.738 454.842 492.529C454.469 493.037 424.181 534.325 390.717 554.559C389.327 555.402 388.252 556.676 387.654 558.188C387.057 559.699 386.97 561.365 387.408 562.93C387.845 564.495 388.783 565.874 390.077 566.857C391.372 567.84 392.953 568.372 394.578 568.372V568.377Z" fill="#FF7F41"/>
<path d="M350.34 575.975C351.596 575.973 352.84 575.735 354.007 575.272C414.303 551.275 463.508 500.531 485.632 439.527C486.108 438.295 486.334 436.981 486.295 435.66C486.257 434.34 485.955 433.04 485.408 431.838C484.861 430.636 484.08 429.555 483.109 428.658C482.139 427.762 481 427.068 479.758 426.618C478.516 426.168 477.197 425.97 475.878 426.036C474.559 426.102 473.266 426.431 472.075 427.003C470.885 427.575 469.82 428.379 468.944 429.368C468.069 430.357 467.399 431.51 466.975 432.761C446.752 488.516 401.759 534.897 346.679 556.832C344.537 557.687 342.759 559.261 341.652 561.285C340.545 563.308 340.177 565.654 340.611 567.919C341.046 570.184 342.256 572.227 344.033 573.698C345.811 575.168 348.044 575.973 350.351 575.975H350.34Z" fill="#FDDA24"/>
<path d="M559.933 423.074L494.101 570.883L436.473 577.412C436.473 577.412 359.69 359.203 559.933 423.074Z" fill="#59CBE8"/>
<path d="M509.83 869.136C510.876 869.138 511.92 869.039 512.946 868.839C517.207 868.014 520.966 865.531 523.397 861.935C525.827 858.339 526.73 853.925 525.906 849.664C525.609 848.119 495.958 693.906 484.396 609.758C483.806 605.456 481.53 601.564 478.07 598.94C474.61 596.315 470.249 595.173 465.947 595.764C461.645 596.354 457.754 598.63 455.129 602.09C452.505 605.55 451.362 609.911 451.953 614.213C463.633 699.236 493.452 854.302 493.749 855.857C494.469 859.594 496.468 862.964 499.403 865.387C502.338 867.81 506.025 869.136 509.83 869.136Z" fill="#F5B6CD"/>
<path d="M521.82 653.939C521.82 653.939 531.47 735.107 566.97 785.489L521.82 653.939Z" fill="white"/>
<path d="M566.998 797.681C569.229 797.679 571.416 797.064 573.322 795.904C575.227 794.743 576.778 793.082 577.804 791.102C578.831 789.121 579.294 786.897 579.144 784.671C578.993 782.445 578.234 780.303 576.95 778.479C543.686 731.272 534.031 653.285 533.939 652.502C533.557 649.294 531.916 646.368 529.376 644.37C526.837 642.371 523.608 641.463 520.399 641.845C517.19 642.228 514.265 643.869 512.266 646.409C510.267 648.948 509.36 652.177 509.742 655.386C510.147 658.82 520.175 740.215 557.024 792.514C558.15 794.112 559.644 795.417 561.38 796.316C563.116 797.216 565.043 797.684 566.998 797.681Z" fill="#9063CD"/>
<path d="M597.033 872.904C600.286 872.904 603.466 871.934 606.166 870.118C608.866 868.302 610.964 865.723 612.191 862.71C613.419 859.697 613.722 856.387 613.06 853.201C612.398 850.015 610.802 847.099 608.475 844.824C546.116 783.945 521.481 649.101 521.238 647.724C520.478 643.449 518.051 639.65 514.491 637.164C510.93 634.678 506.528 633.708 502.252 634.467C497.976 635.227 494.177 637.654 491.691 641.215C489.205 644.776 488.235 649.178 488.995 653.454C490.075 659.394 515.671 799.972 585.595 868.233C588.648 871.229 592.755 872.907 597.033 872.904Z" fill="#FDDA24"/>
<path d="M536.178 445.181C537.091 445.179 538 445.052 538.878 444.803C566.197 437.094 590.06 420.279 606.509 397.146C622.959 374.013 631.006 345.952 629.318 317.617C629.013 312.388 628.309 307.191 627.212 302.07C626.961 300.772 626.454 299.537 625.719 298.437C624.985 297.338 624.038 296.396 622.935 295.668C621.832 294.939 620.594 294.439 619.294 294.195C617.995 293.952 616.66 293.97 615.368 294.25C614.075 294.529 612.852 295.064 611.769 295.823C610.687 296.582 609.767 297.549 609.063 298.669C608.359 299.788 607.887 301.037 607.672 302.341C607.458 303.646 607.506 304.98 607.815 306.266C608.696 310.395 609.261 314.585 609.505 318.799C610.929 342.618 604.167 366.208 590.34 385.656C576.514 405.103 556.454 419.24 533.489 425.719C531.182 426.37 529.188 427.834 527.876 429.84C526.564 431.847 526.023 434.26 526.352 436.635C526.681 439.009 527.858 441.184 529.667 442.758C531.475 444.332 533.792 445.199 536.189 445.197L536.178 445.181Z" fill="#FF7F41"/>
<path d="M549.078 453.437C549.766 453.437 550.451 453.341 551.113 453.151C579.026 445.224 602.187 427.987 618.073 403.304C630.056 384.706 633.733 368.458 633.89 367.772C634.103 366.817 634.125 365.83 633.957 364.867C633.788 363.904 633.431 362.983 632.907 362.158C632.382 361.332 631.7 360.618 630.9 360.057C630.099 359.495 629.196 359.096 628.242 358.883C627.287 358.671 626.3 358.648 625.337 358.817C624.374 358.985 623.453 359.342 622.628 359.867C621.802 360.391 621.088 361.073 620.526 361.874C619.965 362.674 619.566 363.577 619.353 364.532C619.294 364.802 615.903 379.344 605.259 395.684C591.16 417.333 571.569 431.864 547.031 438.814C545.305 439.307 543.815 440.407 542.836 441.911C541.856 443.415 541.453 445.222 541.7 447C541.947 448.778 542.828 450.406 544.181 451.586C545.533 452.766 547.266 453.418 549.061 453.421L549.078 453.437Z" fill="#FDDA24"/>
<path d="M644.344 335.404C646.244 335.403 648.071 334.676 649.452 333.37C650.832 332.065 651.661 330.281 651.769 328.384C651.893 326.057 652.849 305.332 646.909 294.278C645.975 292.536 644.388 291.236 642.495 290.664C640.603 290.093 638.561 290.296 636.819 291.23C635.077 292.164 633.777 293.751 633.205 295.643C632.634 297.536 632.837 299.577 633.771 301.32C636.784 306.919 637.292 320.398 636.908 327.574C636.802 329.543 637.482 331.474 638.798 332.942C640.114 334.41 641.959 335.296 643.928 335.404C644.074 335.404 644.22 335.404 644.344 335.404Z" fill="#FDDA24"/>
<path d="M464.11 546.42H428.848L453.061 677.548H587.143L583.682 658.799C571.575 593.243 521.755 546.42 464.11 546.42Z" fill="#2C2A29"/>
<path d="M262.442 542.84L245.702 840.839C245.322 847.607 247.559 854.261 251.95 859.425C256.341 864.588 262.549 867.866 269.29 868.579C276.031 869.291 282.787 867.384 288.161 863.253C293.534 859.122 297.114 853.082 298.157 846.385L344.122 551.475C345.801 540.697 343.131 529.695 336.697 520.887C330.264 512.079 320.596 506.187 309.819 504.508C299.042 502.829 288.039 505.5 279.231 511.933C270.423 518.366 264.531 528.034 262.852 538.812C262.647 540.14 262.507 541.522 262.442 542.84Z" fill="#2C2A29"/>
<path d="M320.033 546.852L344.781 847.686C345.343 854.536 348.521 860.907 353.656 865.476C358.791 870.045 365.487 872.461 372.356 872.223C379.225 871.986 385.739 869.112 390.546 864.2C395.353 859.287 398.083 852.712 398.171 845.839L402.107 544.017C402.23 538.587 401.276 533.186 399.299 528.127C397.323 523.068 394.363 518.451 390.592 514.542C386.821 510.633 382.312 507.511 377.327 505.354C372.342 503.198 366.979 502.051 361.548 501.98C356.116 501.909 350.725 502.914 345.685 504.939C340.645 506.963 336.056 509.966 332.183 513.775C328.31 517.583 325.231 522.121 323.122 527.126C321.013 532.132 319.917 537.506 319.898 542.937C319.881 544.238 319.93 545.588 320.033 546.852Z" fill="#2C2A29"/>
<path d="M366.471 374.877C384.49 367.666 392.37 345.008 384.071 324.269C375.772 303.531 354.437 292.564 336.417 299.775C318.397 306.986 310.517 329.644 318.816 350.383C327.115 371.122 348.451 382.088 366.471 374.877Z" fill="#B28038"/>
<path d="M335.14 580.332H327.289C312.134 580.332 297.599 574.312 286.883 563.595C276.166 552.879 270.146 538.344 270.146 523.189V518.081H392.262V523.189C392.262 538.341 386.244 552.872 375.533 563.588C364.821 574.303 350.292 580.326 335.14 580.332Z" fill="#2C2A29"/>
<path d="M283.275 384.955L253.035 586.985L408.08 595.625C408.08 595.625 423.33 387.207 283.275 384.955Z" fill="#E6DCCB"/>
<path d="M299.532 412.943C302.014 412.944 304.422 412.1 306.36 410.549C308.298 408.999 309.65 406.834 310.194 404.413C310.738 401.991 310.441 399.457 309.352 397.226C308.263 394.996 306.447 393.203 304.203 392.143C303.831 391.959 288.473 384.383 275.616 366.433C258.346 342.317 253.362 311.504 260.82 274.86C261.319 272.051 260.699 269.158 259.093 266.8C257.486 264.442 255.021 262.806 252.224 262.241C249.428 261.677 246.521 262.229 244.126 263.78C241.731 265.331 240.038 267.757 239.409 270.54C228.42 324.54 243.793 360.002 258.627 380.214C274.914 402.413 294.111 411.534 294.921 411.917C296.364 412.592 297.939 412.943 299.532 412.943Z" fill="#9063CD"/>
<path d="M231.178 323.286C231.361 323.286 231.55 323.286 231.718 323.286C233.586 323.133 235.317 322.246 236.532 320.818C237.746 319.391 238.346 317.54 238.198 315.672C236.47 293.861 240.055 270.35 248.852 245.796C249.186 244.916 249.341 243.979 249.308 243.039C249.275 242.098 249.056 241.174 248.662 240.32C248.268 239.465 247.707 238.698 247.013 238.063C246.32 237.428 245.506 236.937 244.62 236.62C243.735 236.302 242.794 236.165 241.855 236.215C240.915 236.265 239.995 236.502 239.149 236.912C238.302 237.322 237.545 237.897 236.923 238.602C236.301 239.308 235.825 240.131 235.525 241.022C226.048 267.482 222.198 292.965 224.082 316.79C224.23 318.567 225.043 320.223 226.358 321.427C227.674 322.631 229.395 323.295 231.178 323.286Z" fill="#00C389"/>
<path d="M288.025 422.09C289.569 422.091 291.071 421.587 292.302 420.656C293.533 419.724 294.426 418.415 294.844 416.929C295.263 415.442 295.184 413.86 294.619 412.423C294.055 410.986 293.036 409.772 291.718 408.968C291.47 408.817 271.555 396.402 256.132 371.168C255.675 370.323 255.051 369.58 254.298 368.984C253.544 368.388 252.677 367.952 251.75 367.702C250.822 367.453 249.853 367.394 248.903 367.531C247.952 367.668 247.039 367.997 246.219 368.498C245.4 368.999 244.691 369.662 244.136 370.446C243.581 371.23 243.192 372.119 242.991 373.059C242.791 373.998 242.784 374.969 242.971 375.911C243.158 376.853 243.536 377.747 244.08 378.539C261.403 406.884 283.451 420.486 284.38 421.048C285.476 421.723 286.737 422.083 288.025 422.09Z" fill="#00C389"/>
</svg>
