<svg width="1080" height="1080" viewBox="0 0 1080 1080" fill="none" xmlns="http://www.w3.org/2000/svg">
<path d="M260.71 511.901C215.389 530.843 166.823 540.811 117.704 541.253L114.637 541.281L116.812 539.118C151.637 504.476 192.853 476.921 238.174 457.979C283.495 439.037 332.062 429.069 381.18 428.627L384.248 428.599L382.073 430.763C347.247 465.404 306.032 492.96 260.71 511.901Z" fill="#00C389"/>
<path d="M482.708 540.414C443.643 510.635 410.727 473.56 385.785 431.243L384.228 428.6L387.189 429.402C434.602 442.241 479.073 464.157 518.138 493.936C557.202 523.714 590.118 560.79 615.06 603.107L616.618 605.749L613.657 604.947C566.244 592.109 521.773 570.192 482.708 540.414Z" fill="#00C389"/>
<path d="M373.855 279.963C367.598 328.683 370.854 378.155 383.441 425.635L384.228 428.6L385.737 425.93C409.914 383.171 425.564 336.127 431.821 287.407C438.078 238.686 434.822 189.215 422.234 141.735L421.448 138.77L419.938 141.44C395.762 184.199 380.111 231.242 373.855 279.963Z" fill="#00C389"/>
<path d="M386.814 408.56C397.562 408.069 406.673 416.383 407.165 427.131C407.656 437.878 399.342 446.989 388.594 447.481C377.846 447.972 368.735 439.658 368.244 428.91C367.752 418.163 376.067 409.052 386.814 408.56Z" fill="#00C389"/>
<path d="M379.539 433.504C379.588 429.899 381.756 427.012 384.414 427.012C387.072 427.012 389.24 429.899 389.289 433.504L402.79 896.714H366.039L379.539 433.504Z" fill="#00C389"/>
<path d="M186.31 689.612C162.23 696.064 137.127 697.783 112.393 694.673L110.848 694.478L112.089 693.538C131.955 678.477 154.554 667.415 178.633 660.962C202.713 654.51 227.816 652.791 252.551 655.901L254.095 656.096L252.855 657.036C232.989 672.097 210.39 683.16 186.31 689.612Z" fill="#00C389"/>
<path d="M296.031 719.013C278.403 701.385 264.363 680.505 254.689 657.529L254.085 656.095L255.52 656.699C278.496 666.373 299.376 680.413 317.004 698.04C334.631 715.668 348.671 736.548 358.345 759.524L358.949 760.959L357.514 760.354C334.539 750.681 313.658 736.641 296.031 719.013Z" fill="#00C389"/>
<path d="M258.952 580.633C252.5 604.713 250.781 629.815 253.891 654.55L254.085 656.095L255.026 654.854C270.086 634.988 281.149 612.389 287.601 588.309C294.053 564.23 295.772 539.127 292.662 514.392L292.468 512.848L291.528 514.088C276.467 533.954 265.404 556.553 258.952 580.633Z" fill="#00C389"/>
<path d="M256.746 646.191C262.185 646.673 266.203 651.473 265.721 656.912C265.239 662.351 260.439 666.369 255 665.887C249.561 665.405 245.543 660.605 246.025 655.166C246.507 649.727 251.307 645.709 256.746 646.191Z" fill="#00C389"/>
<path d="M256.008 657.881C255.983 656.051 254.883 654.586 253.534 654.586C252.185 654.586 251.084 656.051 251.06 657.881L238.175 892.965H262.859L256.008 657.881Z" fill="#00C389"/>
<path d="M936 886.902H144V896.602H936V886.902Z" fill="#00C389"/>
<path d="M812.638 943.19H671.938L674.238 604.391H842.438L812.638 943.19Z" fill="#59CBE8"/>
<path d="M673.13 758.39H455.43L446.93 604.391H674.23L673.13 758.39Z" fill="#9063CD"/>
<path d="M671.943 943.207H486.044L475.844 759.207H673.143L671.943 943.207Z" fill="#9063CD"/>
<path d="M760.537 898.304L726.637 898.204L726.937 830.504L764.237 830.604L760.537 898.304Z" fill="#2C2A29"/>
<path d="M771.13 743.506L727.23 743.306L727.63 662.906L777.33 663.206L771.13 743.506Z" fill="#2C2A29"/>
<path d="M563.937 898.299H500.237L496.137 830.6H563.937V898.299Z" fill="#2C2A29"/>
<path d="M879.243 604.401H424.043L428.143 577.801H886.943L879.243 604.401Z" fill="#DFDFDF"/>
<path d="M645.936 830.6H586.336V943.299H645.936V830.6Z" fill="#2C2A29"/>
<path d="M589.739 758.392H646.239L646.039 640.992H587.539L589.739 758.392Z" fill="#2C2A29"/>
<path d="M504.439 758.392H560.839L557.539 640.992H499.039L504.439 758.392Z" fill="#2C2A29"/>
<path d="M819.93 480.103C862.291 480.103 896.63 445.763 896.63 403.403C896.63 361.043 862.291 326.703 819.93 326.703C777.57 326.703 743.23 361.043 743.23 403.403C743.23 445.763 777.57 480.103 819.93 480.103Z" fill="#FDDA24"/>
<path d="M678.845 782.306H442.045L440.445 758.406H679.045L678.845 782.306Z" fill="#DFDFDF"/>
</svg>
