<svg width="997" height="1019" viewBox="0 0 997 1019" fill="none" xmlns="http://www.w3.org/2000/svg">
<path d="M404.732 708.848L215.727 607.234V388.395L404.876 286.709L563.578 384.235L558.863 391.906L404.57 297.099L224.724 393.779V601.85L404.714 698.602L585.208 600.572L589.491 608.495L404.732 708.848Z" fill="#DFDFDF"/>
<path d="M404.735 341.485C432.106 341.485 454.295 319.283 454.295 291.894C454.295 264.506 432.106 242.303 404.735 242.303C377.364 242.303 355.176 264.506 355.176 291.894C355.176 319.283 377.364 341.485 404.735 341.485Z" fill="#9063CD"/>
<path d="M404.735 753.306C432.106 753.306 454.295 731.103 454.295 703.714C454.295 676.326 432.106 654.123 404.735 654.123C377.364 654.123 355.176 676.326 355.176 703.714C355.176 731.103 377.364 753.306 404.735 753.306Z" fill="#59CBE8"/>
<path d="M587.352 654.124C614.723 654.124 636.912 631.921 636.912 604.533C636.912 577.144 614.723 554.941 587.352 554.941C559.981 554.941 537.793 577.144 537.793 604.533C537.793 631.921 559.981 654.124 587.352 654.124Z" fill="#F5B6CD"/>
<path d="M220.227 440.687C247.598 440.687 269.787 418.484 269.787 391.095C269.787 363.707 247.598 341.504 220.227 341.504C192.856 341.504 170.668 363.707 170.668 391.095C170.668 418.484 192.856 440.687 220.227 440.687Z" fill="#FF7F41"/>
<path d="M220.227 654.124C247.598 654.124 269.787 631.921 269.787 604.533C269.787 577.144 247.598 554.941 220.227 554.941C192.856 554.941 170.668 577.144 170.668 604.533C170.668 631.921 192.856 654.124 220.227 654.124Z" fill="#FDDA24"/>
<path d="M580.786 440.685C580.786 440.685 506.141 430.223 537.795 353.063C569.448 275.903 616.974 269.078 616.974 269.078C616.974 269.078 654.405 301.995 654.405 362.138C654.405 422.282 634.088 444.341 580.786 440.685Z" fill="#00C389"/>
<path d="M587.351 609.033C586.252 609.032 585.192 608.629 584.369 607.899C583.547 607.169 583.02 606.163 582.888 605.071C581.809 596.158 557.101 386.07 606.283 318.183C606.591 317.622 607.015 317.134 607.527 316.75C608.039 316.366 608.627 316.096 609.252 315.958C609.877 315.82 610.524 315.816 611.15 315.948C611.776 316.08 612.367 316.343 612.883 316.722C613.399 317.1 613.828 317.584 614.143 318.142C614.457 318.699 614.649 319.317 614.705 319.955C614.762 320.593 614.682 321.235 614.471 321.839C614.26 322.444 613.922 322.996 613.481 323.459C594.118 350.182 584.184 407.03 584.688 487.863C585.12 549.412 591.58 603.451 591.634 603.991C591.707 604.578 591.663 605.173 591.505 605.743C591.347 606.312 591.078 606.845 590.714 607.311C590.349 607.776 589.896 608.164 589.381 608.454C588.865 608.743 588.298 608.928 587.711 608.997L587.351 609.033Z" fill="#DFDFDF"/>
<path d="M569.984 816.098C567.426 813.522 565.688 810.245 564.991 806.681C564.293 803.117 564.667 799.426 566.065 796.075C567.464 792.724 569.823 789.862 572.846 787.853C575.869 785.843 579.42 784.775 583.049 784.784C685.623 784.658 757.784 685.889 758.504 684.881C761.481 681.313 765.698 679.008 770.307 678.428C774.915 677.849 779.571 679.04 783.337 681.76C787.103 684.48 789.698 688.527 790.6 693.086C791.502 697.645 790.643 702.377 788.197 706.327C771.926 727.68 753.073 746.932 732.069 763.644C685.029 801.458 633.472 821.464 582.977 821.536C580.56 821.533 578.167 821.051 575.937 820.118C573.707 819.185 571.684 817.818 569.984 816.098Z" fill="#00C389"/>
<path d="M780.228 542.426C778.234 540.429 776.666 538.048 775.62 535.426C774.575 532.804 774.073 529.996 774.146 527.174C775.279 481.516 763.869 436.421 741.16 396.803C739.704 394.418 738.74 391.766 738.326 389.002C737.911 386.239 738.054 383.42 738.745 380.712C739.437 378.005 740.664 375.463 742.353 373.238C744.043 371.013 746.16 369.148 748.581 367.755C751.003 366.362 753.678 365.469 756.45 365.127C759.222 364.786 762.034 365.004 764.72 365.768C767.407 366.532 769.913 367.826 772.091 369.575C774.27 371.324 776.076 373.492 777.403 375.951C803.92 422.206 817.246 474.855 815.931 528.164C815.836 532.266 814.538 536.249 812.198 539.618C809.858 542.988 806.58 545.594 802.772 547.114C798.963 548.634 794.792 549 790.778 548.166C786.763 547.333 783.082 545.337 780.192 542.426H780.228Z" fill="#F5B6CD"/>
<path d="M599.751 791.535C598.437 790.218 597.52 788.558 597.105 786.745C596.518 784.164 596.976 781.455 598.379 779.211C599.781 776.967 602.015 775.37 604.592 774.77C655.652 762.94 701.961 735.98 737.473 697.409C772.985 658.838 796.05 610.449 803.657 558.56C811.518 503.952 802.005 448.255 776.466 399.359C775.232 397.017 774.979 394.28 775.762 391.751C776.545 389.221 778.3 387.107 780.641 385.872C782.982 384.638 785.717 384.384 788.245 385.168C790.772 385.951 792.885 387.707 794.119 390.05C807.94 416.32 817.483 444.629 822.39 473.909C827.265 502.858 827.593 532.391 823.362 561.441C815.175 617.31 790.342 669.411 752.108 710.941C713.873 752.47 664.012 781.499 609.036 794.236C607.387 794.607 605.67 794.555 604.046 794.082C602.422 793.61 600.944 792.733 599.751 791.535Z" fill="#FDDA24"/>
</svg>
