<svg width="1080" height="1080" viewBox="0 0 1080 1080" fill="none" xmlns="http://www.w3.org/2000/svg">
<g clip-path="url(#clip0)">
<path d="M710.043 503.094C711.887 488.342 725.342 477.878 740.094 479.723C754.598 481.537 764.885 494.765 763.072 509.269L746.998 637.808L694.025 631.184L710.043 503.094Z" fill="#B28038"/>
<path d="M341.258 495.832C339.413 481.08 325.959 470.617 311.207 472.461C296.703 474.275 286.415 487.503 288.229 502.007L305.21 637.805L358.183 631.181L341.258 495.832Z" fill="#B28038"/>
<path d="M584.055 649.236H709.276V902.89H584.055V649.236Z" fill="#E4AC7B"/>
<path d="M468.465 649.236H343.243V902.89H468.465V649.236Z" fill="#E4AC7B"/>
<path fill-rule="evenodd" clip-rule="evenodd" d="M761.999 462.537C761.763 383.221 700.741 319 625.5 319C586.267 319 550.899 336.462 526 364.42C501.101 336.462 465.733 319 426.5 319C351.113 319 290 383.471 290 463H290.465C290.914 624.417 526.336 755.193 526.336 755.193C526.336 755.193 762.208 624.167 762.208 462.537H761.999Z" fill="#9063CD"/>
<path d="M751.604 672.912C738.698 689.42 722.263 703.136 703.412 712.948C699.188 715.135 695.118 718.188 691.227 721.759C686.707 725.886 682.426 730.705 678.637 735.546C672.835 731.219 667.776 726.102 663.636 720.426L651.042 662.931C652.248 657.193 654.149 651.506 656.832 645.983C667.479 624.067 687.697 609.961 709.999 606.209C717.125 605 718.736 604.346 726.003 605.362L739.504 577.573L739.481 514.76C737.115 494.929 751.277 477.019 771.051 474.625C771.888 474.529 772.67 474.693 773.368 475.032C774.589 475.625 775.527 476.8 775.66 478.301L782.15 532.831L787.917 579.68C789.286 590.765 787.651 601.97 783.23 612.253L777.569 625.383L775.908 629.247L775.851 629.363L771.261 639.995C766.019 651.82 759.411 662.908 751.604 672.912Z" fill="#E4AC7B"/>
<path d="M300.599 672.912C313.505 689.42 329.941 703.136 348.791 712.948C353.015 715.135 357.085 718.188 360.976 721.759C365.496 725.886 369.777 730.705 373.566 735.546C379.368 731.219 384.427 726.102 388.567 720.426L401.162 662.931C399.955 657.193 398.054 651.506 395.371 645.983C384.724 624.067 364.506 609.961 342.204 606.209C335.078 605 333.467 604.346 326.2 605.362L312.7 577.573L312.722 514.76C315.088 494.929 300.926 477.019 281.152 474.625C280.315 474.529 279.533 474.693 278.835 475.032C277.614 475.625 276.676 476.8 276.543 478.301L270.053 532.831L264.287 579.68C262.917 590.765 264.553 601.97 268.974 612.253L274.634 625.383L276.295 629.247L276.352 629.363L280.942 639.995C286.184 651.82 292.792 662.908 300.599 672.912Z" fill="#E4AC7B"/>
<path d="M602.375 959.602C600.489 962.873 597.877 965.668 594.74 967.77C591.603 969.872 588.024 971.226 584.281 971.726C527.295 979.276 469.368 975.151 414.026 959.604C386.428 951.765 359.709 941.113 334.287 927.817C308.919 914.526 284.954 898.712 262.758 880.614C257.737 876.467 254.561 870.503 253.923 864.023C253.284 857.543 255.235 851.074 259.35 846.027C263.464 840.98 269.408 837.766 275.884 837.087C282.36 836.407 288.842 838.317 293.914 842.399C313.53 858.406 334.71 872.392 357.134 884.145C379.556 895.873 403.122 905.268 427.463 912.183C476.317 925.908 527.455 929.543 577.759 922.868C582.323 922.258 586.967 922.939 591.164 924.832C595.361 926.726 598.944 929.757 601.506 933.583C604.069 937.408 605.509 941.875 605.664 946.477C605.818 951.079 604.681 955.632 602.38 959.621L602.375 959.602Z" fill="#F5B6CD"/>
<path d="M753.983 225.879L753.803 226.19C750.452 231.804 745.009 235.858 738.67 237.458C732.331 239.059 725.615 238.077 720 234.726L714.864 231.663L706.304 226.851L699.217 223.093C697.868 222.387 696.424 221.676 694.895 220.915C694.022 220.484 693.142 220.049 692.266 219.609C682.898 215.013 673.243 210.773 663.577 206.99C624.44 191.738 582.985 183.288 541.001 182.004C499.03 180.698 457.139 186.486 417.094 199.122C377.044 211.752 339.436 231.106 305.879 256.354C297.897 262.319 289.968 268.868 281.664 276.291C273.659 283.479 266.076 290.878 259.206 298.185C254.729 302.951 248.542 305.742 242.007 305.946C235.471 306.15 229.122 303.75 224.356 299.273C219.591 294.796 216.799 288.609 216.595 282.073C216.391 275.537 218.792 269.188 223.269 264.423C231.11 256.082 239.684 247.726 248.753 239.583C258.15 231.181 267.161 223.76 276.307 216.906C314.325 188.305 356.935 166.387 402.31 152.091C470.524 130.541 543.1 126.706 613.205 140.948L613.266 140.984C636.523 145.752 659.338 152.47 681.468 161.068C692.466 165.376 703.409 170.189 714.028 175.393L714.266 175.53C715.084 175.945 715.915 176.352 716.736 176.761C718.461 177.619 720.245 178.502 722.111 179.482L730.118 183.73L739.554 189.04L745.205 192.409C750.77 195.718 754.81 201.083 756.452 207.345C758.095 213.608 757.208 220.265 753.983 225.879Z" fill="#FF7F41"/>
<path d="M568.046 190.1C566.405 192.947 564.001 195.278 561.104 196.83C558.207 198.382 554.934 199.092 551.655 198.88C503.519 195.906 455.277 202.688 409.827 218.82C364.392 234.935 322.757 260.22 287.506 293.105C252.279 326.065 224.041 365.775 204.475 409.871C185.059 453.99 174.829 501.599 174.408 549.799C174.363 554.463 172.47 558.918 169.143 562.187C165.817 565.457 161.33 567.273 156.666 567.237C152.002 567.202 147.543 565.318 144.266 561.998C140.99 558.679 139.165 554.195 139.19 549.531C139.653 496.516 150.907 444.151 172.267 395.627C193.773 347.194 224.799 303.58 263.498 267.377C302.276 231.203 348.074 203.383 398.05 185.643C448.01 167.919 501.035 160.469 553.944 163.739C556.929 163.936 559.815 164.89 562.329 166.511C564.843 168.132 566.903 170.367 568.314 173.004C569.725 175.642 570.441 178.596 570.394 181.587C570.347 184.578 569.539 187.508 568.046 190.1Z" fill="#FDDA24"/>
<path d="M863.621 767.989C863.421 768.336 863.223 768.678 863.023 769.026C850.502 788.562 836.311 806.975 820.61 824.06C812.797 832.563 804.533 840.805 796.051 848.564C787.883 856.049 778.879 863.571 769.346 870.87C750.875 884.965 731.193 897.398 710.53 908.024C669.196 929.271 624.457 943.107 578.345 948.903C566.878 950.351 555.226 951.318 543.699 951.772C532.33 952.219 520.627 952.148 508.897 951.573C462.436 949.32 416.741 938.862 373.926 920.684C367.902 918.138 363.137 913.304 360.678 907.245C358.219 901.186 358.268 894.399 360.813 888.375C363.359 882.352 368.193 877.587 374.252 875.128C380.311 872.669 387.099 872.718 393.122 875.263C430.611 891.176 470.623 900.324 511.303 902.282C521.582 902.792 531.823 902.848 541.739 902.465C551.836 902.064 562.075 901.193 572.116 899.946C612.537 894.861 651.753 882.725 687.981 864.089C706.049 854.807 723.262 843.949 739.42 831.64C747.768 825.267 755.618 818.714 762.731 812.198C770.192 805.362 777.455 798.12 784.326 790.643C798.098 775.645 810.546 759.482 821.529 742.336C824.932 736.751 830.414 732.746 836.77 731.203C843.125 729.659 849.834 730.704 855.419 734.106C861.005 737.509 865.01 742.991 866.553 749.347C868.096 755.703 867.052 762.411 863.649 767.997L863.621 767.989Z" fill="#00C389"/>
<path d="M153.689 609.113C151.452 613 148.037 616.074 143.937 617.891C139.837 619.708 135.265 620.174 130.883 619.221C126.501 618.268 122.536 615.945 119.561 612.589C116.586 609.233 114.757 605.018 114.336 600.553L113.996 596.916C113.743 594.452 113.483 591.902 113.279 589.255L113.267 589.135C113.195 588.076 113.109 587.026 113.028 585.971C112.824 583.323 112.616 580.584 112.492 577.699C110.771 546.927 112.497 516.058 117.637 485.67C120.194 470.432 123.601 455.349 127.844 440.492C132.103 425.671 137.173 411.096 143.031 396.831C145.161 391.647 149.264 387.521 154.436 385.362C159.608 383.202 165.427 383.186 170.611 385.316C175.795 387.446 179.921 391.549 182.081 396.721C184.24 401.893 184.256 407.712 182.126 412.896C176.853 425.73 172.29 438.844 168.458 452.179C164.654 465.504 161.601 479.032 159.313 492.7C157.019 506.358 155.48 520.132 154.704 533.959C153.954 547.803 153.959 561.678 154.718 575.522L154.731 575.822C154.82 577.98 154.998 580.263 155.187 582.682C155.275 583.817 155.358 584.95 155.438 586.08C155.602 588.176 155.823 590.329 156.049 592.614C156.191 593.933 156.341 595.223 156.449 596.571C156.857 600.937 155.893 605.322 153.689 609.113Z" fill="#00C389"/>
<path d="M886.402 762.106L886.349 762.197C880.968 771.405 875.095 780.662 868.897 789.706C863.011 798.24 856.603 806.773 849.323 815.819C821.782 849.797 788.996 879.162 752.202 902.808C748.275 905.242 743.549 906.036 739.042 905.017C734.536 903.999 730.61 901.25 728.111 897.364C725.613 893.478 724.742 888.765 725.686 884.242C726.63 879.72 729.314 875.749 733.158 873.187C766.792 851.568 796.762 824.724 821.941 793.666C828.652 785.34 834.524 777.507 839.883 769.734C845.575 761.438 850.981 752.92 855.922 744.459C860.913 735.816 865.608 726.895 869.909 717.967C873.979 709.507 877.851 700.519 881.714 690.475C896.063 653.202 904.352 613.871 906.265 573.976L906.388 571.2C906.463 569.577 906.54 568.035 906.567 566.578L906.726 558.415C906.721 553.45 906.718 548.764 906.55 544.096L906.553 544.007C906.221 533.608 905.53 523.563 904.494 514.156C902.316 494.321 898.585 474.686 893.338 455.433C892.726 453.203 892.558 450.874 892.845 448.58C893.133 446.285 893.869 444.07 895.012 442.059C896.156 440.049 897.684 438.284 899.51 436.865C901.336 435.445 903.423 434.399 905.653 433.787C907.883 433.174 910.211 433.006 912.506 433.294C914.801 433.581 917.016 434.317 919.026 435.461C921.037 436.604 922.802 438.133 924.221 439.958C925.641 441.784 926.686 443.871 927.299 446.101C933.035 467.141 937.114 488.597 939.498 510.274C940.633 520.592 941.392 531.547 941.749 542.848C941.946 548.142 941.942 553.362 941.938 558.411L941.938 559.468L941.778 567.297C941.744 569.229 941.655 571.073 941.563 572.867L941.448 575.46L941.443 575.596C939.358 619.278 930.284 662.345 914.565 703.155C910.326 714.103 906.101 723.929 901.613 733.238C896.951 742.99 891.821 752.692 886.402 762.106Z" fill="#59CBE8"/>
<path fill-rule="evenodd" clip-rule="evenodd" d="M892.664 308.958C892.608 290.193 878.172 275 860.372 275C851.09 275 842.723 279.131 836.832 285.745C830.942 279.131 822.574 275 813.293 275C795.458 275 781 290.252 781 309.067H781.11C781.216 347.255 836.912 378.193 836.912 378.193C836.912 378.193 892.713 347.195 892.713 308.958H892.664Z" fill="#F5B6CD"/>
<path fill-rule="evenodd" clip-rule="evenodd" d="M241.664 731.958C241.608 713.193 227.172 698 209.372 698C200.09 698 191.723 702.131 185.832 708.745C179.942 702.131 171.574 698 162.293 698C144.458 698 130 713.252 130 732.067H130.11C130.216 770.255 185.912 801.193 185.912 801.193C185.912 801.193 241.713 770.195 241.713 731.958H241.664Z" fill="#FDDA24"/>
<path fill-rule="evenodd" clip-rule="evenodd" d="M651.7 357.535C652.51 354.608 655.54 352.891 658.468 353.7C685.897 361.287 708.155 382 719.097 408.931C720.24 411.745 718.886 414.954 716.072 416.097C713.257 417.24 710.049 415.886 708.906 413.072C699.161 389.085 679.452 370.918 655.535 364.302C652.608 363.493 650.891 360.463 651.7 357.535Z" fill="white"/>
</g>
<defs>
<clipPath id="clip0">
<rect width="1080" height="1080" fill="white"/>
</clipPath>
</defs>
</svg>
