<svg width="1080" height="1080" viewBox="0 0 1080 1080" fill="none" xmlns="http://www.w3.org/2000/svg">
<path d="M559.595 924.101C670.825 924.101 760.995 833.931 760.995 722.701C760.995 611.471 670.825 521.301 559.595 521.301C448.365 521.301 358.195 611.471 358.195 722.701C358.195 833.931 448.365 924.101 559.595 924.101Z" fill="#E4AC7B"/>
<path d="M652.994 772.4L420.394 772.5C395.494 772.5 375.294 752.3 375.294 727.4L375.094 201.2C375.094 176.3 395.294 156.1 420.194 156.1L652.794 156C677.694 156 697.894 176.2 697.894 201.1L698.094 727.2C698.094 752.2 677.894 772.4 652.994 772.4Z" fill="#59CBE8"/>
<path d="M536.695 756.898C548.017 756.898 557.195 747.72 557.195 736.398C557.195 725.077 548.017 715.898 536.695 715.898C525.373 715.898 516.195 725.077 516.195 736.398C516.195 747.72 525.373 756.898 536.695 756.898Z" fill="white"/>
<path d="M673.693 224.5L673.893 696.6L673.693 696.7L399.493 696.8L399.393 642.3L399.293 224.6L673.693 224.5Z" fill="white"/>
<path d="M673.695 642.199H399.395V696.699H673.695V642.199Z" fill="#FDDA24"/>
<path d="M398.996 697.299V641.799H399.496L674.296 641.699V697.199H673.796L398.996 697.299ZM399.896 642.799V696.299L673.196 696.199V642.699L399.896 642.799Z" fill="#FDDA24"/>
<path d="M755.194 718.498C748.394 750.198 734.794 780.398 715.194 806.798C710.794 812.698 707.194 819.698 704.194 827.298C700.694 836.098 697.994 845.698 695.994 854.998C684.994 852.898 674.494 849.198 664.894 844.098L608.494 772.598C606.294 763.798 605.094 754.598 605.094 745.098C605.094 707.398 623.694 674.098 652.194 653.798C661.294 647.298 663.094 645.298 673.894 641.798V593.998L631.394 506.598C614.694 480.598 622.294 446.098 648.194 429.398C649.294 428.698 650.494 428.398 651.694 428.398C653.794 428.398 655.894 429.398 657.094 431.398L702.994 502.898L742.694 564.198C752.094 578.698 757.394 595.398 758.194 612.698L759.194 634.798L759.494 641.298V641.498L760.294 659.398C760.994 679.398 759.294 699.298 755.194 718.498Z" fill="#E4AC7B"/>
<path d="M361.196 691.101L328.396 649.901C315.296 633.501 317.996 609.601 334.496 596.501L364.196 572.801L420.696 643.701C433.796 660.101 431.096 684.001 414.596 697.101C398.096 710.301 374.196 707.601 361.196 691.101Z" fill="#E4AC7B"/>
<path d="M361.094 614.3L328.294 573.1C315.194 556.7 317.894 532.8 334.394 519.7L364.094 496L420.594 566.9C433.694 583.3 430.994 607.2 414.494 620.3C398.094 633.4 374.194 630.7 361.094 614.3Z" fill="#E4AC7B"/>
<path d="M361.094 537.499L328.294 496.299C315.194 479.899 317.894 455.999 334.394 442.899L364.094 419.199L420.594 490.099C433.694 506.499 430.994 530.399 414.494 543.499C398.094 556.599 374.194 553.899 361.094 537.499Z" fill="#E4AC7B"/>
<path d="M363.996 342.402L375.096 334.102V374.902L363.996 342.402Z" fill="#E4AC7B"/>
<path d="M361.094 460.598L328.294 419.398C315.194 402.998 317.894 379.098 334.394 365.998L363.994 342.398L420.494 413.298C433.594 429.698 430.894 453.598 414.394 466.698C397.994 479.698 374.194 476.998 361.094 460.598Z" fill="#E4AC7B"/>
<ellipse cx="538.793" cy="411.89" rx="31.8199" ry="31.8199" fill="#00C389"/>
<path d="M549.763 417.618C549.763 419.87 549.028 421.779 547.56 423.346C546.091 424.88 544.1 425.973 541.588 426.626C542.012 428.421 542.175 430.232 542.077 432.06C540.967 432.321 539.907 432.451 538.895 432.451C537.916 432.451 536.855 432.321 535.713 432.06L535.664 430.983C535.664 429.84 535.795 428.617 536.056 427.311C533.314 427.311 530.752 426.952 528.37 426.234C528.142 425.582 528.027 424.88 528.027 424.129C528.027 422.824 528.337 421.6 528.957 420.458C531.895 421.535 534.277 422.073 536.105 422.073C540.706 422.073 543.007 420.768 543.007 418.157C543.007 416.982 542.632 416.003 541.881 415.22C541.163 414.404 539.695 413.555 537.475 412.674C535.289 411.793 533.559 410.961 532.286 410.177C531.014 409.362 530.067 408.415 529.447 407.338C528.827 406.261 528.517 404.939 528.517 403.373C528.517 401.186 529.186 399.326 530.524 397.792C531.862 396.258 533.739 395.198 536.154 394.61C535.729 392.978 535.583 391.232 535.713 389.372C536.855 389.111 537.916 388.98 538.895 388.98C539.907 388.98 540.967 389.111 542.077 389.372L542.126 390.449C542.126 391.591 541.995 392.815 541.734 394.121C543.497 394.153 545.52 394.463 547.805 395.051C548.066 395.475 548.196 396.013 548.196 396.666C548.196 397.319 548.082 398.004 547.854 398.722C547.658 399.408 547.413 399.995 547.119 400.485C544.149 399.603 541.865 399.163 540.266 399.163C536.937 399.163 535.272 400.24 535.272 402.394C535.272 403.242 535.68 404.091 536.496 404.939C537.345 405.755 538.52 406.441 540.021 406.995C542.599 407.942 544.59 408.921 545.993 409.933C547.397 410.912 548.376 412.005 548.931 413.213C549.485 414.42 549.763 415.889 549.763 417.618Z" fill="white"/>
<path fill-rule="evenodd" clip-rule="evenodd" d="M530.704 373.107C530.92 373.985 530.383 374.872 529.505 375.088C522.082 376.913 515.278 381.169 510.395 387.05L510.394 387.051L510.393 387.053C505.495 392.923 502.521 400.379 502.076 408.007C502.023 408.909 501.249 409.598 500.347 409.545C499.444 409.492 498.756 408.718 498.808 407.816C499.294 399.483 502.536 391.36 507.878 384.957C513.209 378.537 520.622 373.901 528.724 371.909C529.602 371.693 530.488 372.229 530.704 373.107Z" fill="#FDDA24"/>
<path fill-rule="evenodd" clip-rule="evenodd" d="M576.18 408.503C575.28 408.594 574.477 407.939 574.386 407.039C573.617 399.434 570.355 392.101 565.214 386.444L565.212 386.443L565.211 386.441C560.084 380.771 553.117 376.784 545.626 375.276C544.74 375.098 544.166 374.235 544.345 373.349C544.523 372.463 545.386 371.889 546.272 372.067C554.456 373.714 562.045 378.059 567.638 384.244C573.25 390.42 576.804 398.409 577.643 406.71C577.734 407.609 577.079 408.412 576.18 408.503Z" fill="#9063CD"/>
<path fill-rule="evenodd" clip-rule="evenodd" d="M504.414 395.7C505.255 396.031 505.669 396.981 505.338 397.822C502.541 404.936 502.085 412.949 504.066 420.332L504.067 420.334L504.067 420.336C506.03 427.724 510.399 434.458 516.369 439.227C517.075 439.791 517.19 440.821 516.626 441.527C516.062 442.233 515.032 442.349 514.326 441.784C507.804 436.574 503.045 429.237 500.904 421.178C498.741 413.118 499.239 404.388 502.292 396.624C502.623 395.783 503.573 395.369 504.414 395.7Z" fill="#59CBE8"/>
<path fill-rule="evenodd" clip-rule="evenodd" d="M553.308 375.919C553.442 375.607 553.802 375.463 554.114 375.597C556.858 376.775 559.465 378.268 561.873 380.032C561.892 380.046 561.916 380.063 561.942 380.082C561.993 380.118 562.053 380.16 562.102 380.197L562.109 380.202L562.332 380.377L563.199 381.058L563.416 381.229L563.534 381.322L563.65 381.422L564.484 382.144L564.908 382.511L564.915 382.518C565.003 382.599 565.094 382.686 565.18 382.768C565.229 382.815 565.276 382.86 565.32 382.902L565.322 382.904L566.116 383.661C566.24 383.774 566.358 383.899 566.458 384.005C566.482 384.03 566.505 384.054 566.527 384.076L566.528 384.078L567.29 384.877C567.312 384.901 567.336 384.926 567.361 384.952C567.461 385.056 567.579 385.179 567.686 385.307L568.406 386.138C570.354 388.409 572.004 390.924 573.36 393.581C574.056 394.911 574.629 396.293 575.159 397.669C575.198 397.764 575.23 397.859 575.255 397.932C575.258 397.942 575.261 397.951 575.264 397.96L575.352 398.22L575.352 398.221L575.706 399.265L575.706 399.265L575.795 399.53L575.797 399.534C575.819 399.603 575.842 399.686 575.86 399.75C575.867 399.775 575.874 399.798 575.879 399.816L575.879 399.818L576.182 400.883C576.198 400.941 576.216 401.002 576.233 401.065C576.267 401.181 576.301 401.303 576.333 401.42L576.336 401.431L576.462 401.978C576.538 402.308 576.333 402.638 576.002 402.714C575.672 402.791 575.342 402.585 575.266 402.255L575.144 401.728C575.116 401.622 575.087 401.522 575.057 401.416C575.039 401.352 575.02 401.285 575 401.215C575 401.215 575 401.214 575 401.214L574.7 400.16C574.7 400.159 574.7 400.158 574.7 400.157C574.687 400.112 574.677 400.077 574.668 400.046C574.655 399.999 574.644 399.961 574.63 399.916L574.543 399.659L574.543 399.658L574.19 398.614L574.19 398.614L574.101 398.353L574.101 398.353C574.098 398.343 574.095 398.334 574.092 398.325C574.064 398.244 574.045 398.187 574.023 398.133L574.019 398.125L574.016 398.118C573.491 396.754 572.936 395.419 572.271 394.147L572.27 394.144L572.268 394.141C570.952 391.563 569.355 389.13 567.475 386.938C567.475 386.938 567.474 386.938 567.474 386.937L566.75 386.102L566.746 386.097C566.668 386.003 566.587 385.919 566.491 385.818C566.462 385.787 566.431 385.756 566.399 385.722C566.399 385.722 566.399 385.721 566.399 385.721L565.641 384.926C565.641 384.926 565.64 384.926 565.64 384.925C565.61 384.894 565.582 384.864 565.555 384.836C565.456 384.732 565.373 384.645 565.282 384.561L565.277 384.557L564.477 383.794C564.477 383.794 564.476 383.794 564.476 383.793C564.42 383.74 564.369 383.691 564.318 383.643C564.241 383.569 564.168 383.499 564.089 383.426L563.68 383.072L562.848 382.351L562.847 382.35L562.754 382.27L562.657 382.194L561.573 381.342L561.363 381.177C561.324 381.148 561.291 381.125 561.254 381.098C561.225 381.078 561.193 381.055 561.153 381.026L561.151 381.025L561.149 381.024C558.815 379.313 556.288 377.867 553.629 376.725C553.318 376.591 553.174 376.23 553.308 375.919Z" fill="#00C389"/>
<path fill-rule="evenodd" clip-rule="evenodd" d="M533.474 372.951C536.068 372.574 538.699 372.461 541.314 372.611C541.653 372.63 541.911 372.92 541.892 373.259C541.873 373.597 541.583 373.856 541.244 373.836C538.71 373.691 536.162 373.8 533.651 374.166L533.65 374.166C531.139 374.531 528.665 375.154 526.28 376.024C521.513 377.768 517.117 380.511 513.439 384.007C513.193 384.241 512.805 384.231 512.571 383.985C512.338 383.739 512.348 383.351 512.593 383.117C516.392 379.507 520.931 376.674 525.859 374.871L525.86 374.87C528.323 373.972 530.879 373.328 533.474 372.951" fill="#FF7F41"/>
<path fill-rule="evenodd" clip-rule="evenodd" d="M576.786 414.485C577.571 414.587 578.124 415.306 578.021 416.09C577.735 418.281 577.278 420.46 576.622 422.587L576.621 422.591C575.961 424.707 575.126 426.768 574.125 428.745L574.121 428.752L574.118 428.759C574.067 428.857 574.013 428.963 573.956 429.074C573.773 429.435 573.561 429.853 573.328 430.239L572.936 430.922C572.92 430.95 572.903 430.98 572.885 431.011C572.774 431.204 572.635 431.447 572.48 431.68C572.39 431.819 572.298 431.964 572.204 432.111C572.01 432.414 571.809 432.73 571.608 433.033L571.595 433.053L570.643 434.391L570.633 434.404C570.217 434.962 569.787 435.508 569.343 436.043C568.837 436.652 567.934 436.735 567.326 436.23C566.717 435.724 566.634 434.821 567.139 434.213C567.548 433.72 567.945 433.217 568.328 432.705L569.233 431.431C569.416 431.154 569.59 430.882 569.771 430.599C569.871 430.443 569.972 430.284 570.079 430.119L570.085 430.108L570.092 430.098C570.19 429.952 570.277 429.801 570.392 429.599C570.412 429.565 570.432 429.53 570.453 429.494L570.86 428.786L570.868 428.773C571.045 428.479 571.193 428.189 571.365 427.849C571.43 427.722 571.498 427.588 571.573 427.445C572.5 425.612 573.274 423.702 573.885 421.741C574.489 419.782 574.914 417.764 575.181 415.72C575.283 414.935 576.002 414.382 576.786 414.485Z" fill="#FDDA24"/>
<path fill-rule="evenodd" clip-rule="evenodd" d="M508.344 430.752C508.991 430.298 509.884 430.454 510.339 431.102C511.807 433.193 513.501 435.127 515.381 436.859L515.402 436.879L515.422 436.899C515.47 436.946 515.509 436.98 515.578 437.039C515.615 437.071 515.662 437.111 515.723 437.165L516.093 437.486C516.206 437.583 516.305 437.669 516.398 437.75C516.54 437.873 516.668 437.985 516.814 438.106L517.58 438.708C517.68 438.785 517.766 438.853 517.843 438.915C518.012 439.048 518.142 439.151 518.295 439.255L518.308 439.264L519.13 439.848C519.208 439.903 519.265 439.944 519.313 439.978C519.378 440.025 519.427 440.061 519.494 440.105L520.738 440.903C520.762 440.918 520.785 440.932 520.803 440.944C520.827 440.96 520.835 440.965 520.853 440.977C520.866 440.985 520.875 440.991 520.882 440.995C520.887 440.998 520.889 441 520.889 441L520.892 441.002L521.112 441.128L521.546 441.377C523.758 442.656 526.108 443.694 528.542 444.465L528.57 444.474L528.598 444.484C528.622 444.492 528.658 444.503 528.728 444.523L528.733 444.524L529.451 444.728C529.452 444.728 529.454 444.728 529.455 444.729C529.594 444.768 529.717 444.803 529.833 444.836C530.017 444.889 530.183 444.937 530.367 444.985L531.802 445.316L531.806 445.317L532.011 445.364L533.205 445.577L533.689 445.663C533.765 445.676 533.817 445.682 533.891 445.691C533.949 445.698 534.02 445.706 534.125 445.72L535.099 445.844C535.221 445.858 535.293 445.868 535.347 445.876C535.412 445.885 535.453 445.891 535.527 445.896L535.53 445.896L536.027 445.934C536.816 445.994 537.407 446.682 537.347 447.47C537.287 448.259 536.6 448.85 535.811 448.79L535.317 448.753C535.316 448.753 535.315 448.753 535.315 448.753C535.165 448.742 534.951 448.713 534.836 448.698C534.802 448.694 534.776 448.69 534.764 448.689L534.755 448.688L533.751 448.56L533.745 448.559C533.724 448.557 533.69 448.552 533.648 448.547C533.528 448.533 533.343 448.51 533.205 448.486L533.199 448.485L532.702 448.397L531.442 448.172L531.163 448.108L529.687 447.768L529.67 447.763C529.446 447.705 529.201 447.635 528.982 447.572C528.874 447.541 528.773 447.512 528.683 447.487L528.68 447.486L527.967 447.284C527.966 447.284 527.964 447.284 527.962 447.283C527.881 447.261 527.772 447.229 527.653 447.188C525.029 446.355 522.497 445.235 520.115 443.858C520.114 443.858 520.114 443.858 520.113 443.857L519.47 443.488C519.4 443.448 519.339 443.409 519.298 443.383C519.277 443.369 519.263 443.359 519.251 443.352C519.235 443.341 519.225 443.335 519.21 443.326L519.204 443.322L517.931 442.505L517.922 442.5C517.81 442.426 517.673 442.328 517.575 442.257C517.537 442.23 517.505 442.207 517.482 442.191L517.478 442.189L516.674 441.617C516.43 441.45 516.181 441.253 515.986 441.099C515.925 441.05 515.87 441.006 515.821 440.969L515.818 440.966L515.016 440.336L515.002 440.325C514.829 440.181 514.641 440.018 514.472 439.871C514.384 439.794 514.301 439.722 514.228 439.659L514.224 439.656L513.841 439.324L513.837 439.321C513.823 439.308 513.803 439.292 513.78 439.272C513.691 439.195 513.546 439.071 513.422 438.949C511.399 437.083 509.576 435 507.994 432.747C507.54 432.1 507.696 431.207 508.344 430.752Z" fill="#F5B6CD"/>
<path fill-rule="evenodd" clip-rule="evenodd" d="M562.845 438.215C563.342 438.83 563.247 439.732 562.632 440.229C561.787 440.913 560.913 441.562 560.013 442.173L560.011 442.175L560.008 442.177C558.169 443.414 556.227 444.498 554.209 445.413L553.488 445.738C553.331 445.813 553.174 445.874 553.066 445.916C553.057 445.919 553.049 445.923 553.041 445.926C553.04 445.926 553.04 445.926 553.039 445.927L551.519 446.526L550.346 446.923L549.966 447.051L549.963 447.052C549.949 447.057 549.933 447.063 549.914 447.069C549.817 447.102 549.66 447.156 549.506 447.197L547.958 447.637L547.94 447.641C545.793 448.193 543.602 448.564 541.396 448.757C540.608 448.825 539.914 448.242 539.845 447.454C539.777 446.666 540.36 445.972 541.148 445.903C543.193 445.725 545.223 445.381 547.21 444.871L548.749 444.435L548.762 444.431C548.814 444.418 548.857 444.403 548.945 444.373C548.975 444.363 549.009 444.351 549.051 444.337C549.051 444.337 549.052 444.337 549.052 444.337L549.429 444.209L550.533 443.835L551.994 443.26L551.996 443.259C552.135 443.204 552.207 443.176 552.271 443.146L552.284 443.139L553.026 442.804C553.026 442.804 553.026 442.804 553.027 442.804C554.899 441.955 556.7 440.95 558.407 439.802C559.239 439.236 560.048 438.635 560.831 438.002C561.446 437.505 562.347 437.6 562.845 438.215Z" fill="#FF7F41"/>
<path d="M533.309 590.871C577.691 590.871 613.669 556.563 613.669 514.242C613.669 471.921 577.691 437.613 533.309 437.613C488.928 437.613 452.949 471.921 452.949 514.242C452.949 556.563 488.928 590.871 533.309 590.871Z" fill="#F5B6CD"/>
<path d="M489.722 544.065L449.596 546.417C442.62 546.823 436.617 541.496 436.212 534.52L434.022 496.909C433.616 489.933 438.943 483.93 445.919 483.524L486.045 481.172L489.722 544.065Z" fill="#F5B6CD"/>
<path d="M494.399 604.554L479.852 600.363C472.66 598.281 468.523 590.791 470.605 583.599L478.527 555.992L519.086 567.673L511.164 595.28C509.082 602.472 501.565 606.609 494.399 604.554Z" fill="#F5B6CD"/>
<path d="M585.388 599.984L570.949 604.581C563.838 606.852 556.213 602.904 553.968 595.766L545.262 568.402L585.469 555.586L594.175 582.949C596.447 590.088 592.526 597.713 585.388 599.984Z" fill="#F5B6CD"/>
<path d="M510.811 465.328L473.146 472.683L464.223 426.716C485.016 422.661 505.16 436.234 509.216 457.054L510.811 465.328Z" fill="#F5B6CD"/>
<path d="M558.645 456.514C558.077 456.514 557.482 456.406 556.914 456.189C543.8 451.187 529.091 450.484 515.545 454.27C512.976 454.973 510.299 453.485 509.596 450.917C508.893 448.348 510.38 445.671 512.949 444.968C528.496 440.642 545.315 441.426 560.348 447.185C562.836 448.132 564.107 450.944 563.133 453.431C562.43 455.324 560.592 456.514 558.645 456.514Z" fill="#9063CD"/>
<path d="M609.695 527.058C609.695 527.058 624.999 523.921 628.001 511.402H603.801L609.695 527.058Z" fill="#F5B6CD"/>
<path d="M496.589 495.99V481.605C496.589 476.035 492.074 471.52 486.504 471.52C480.933 471.52 476.418 476.035 476.418 481.605V495.99H496.589Z" fill="#9063CD"/>
<ellipse cx="484.267" cy="343.775" rx="24.9546" ry="24.9546" fill="#00C389"/>
<path d="M492.87 348.264C492.87 350.03 492.294 351.527 491.143 352.756C489.991 353.959 488.429 354.816 486.459 355.328C486.791 356.736 486.919 358.156 486.843 359.589C485.972 359.794 485.141 359.896 484.347 359.896C483.579 359.896 482.748 359.794 481.852 359.589L481.813 358.745C481.813 357.849 481.916 356.889 482.12 355.865C479.971 355.865 477.961 355.584 476.093 355.021C475.914 354.509 475.824 353.959 475.824 353.37C475.824 352.346 476.067 351.386 476.554 350.491C478.857 351.335 480.726 351.757 482.159 351.757C485.768 351.757 487.572 350.734 487.572 348.686C487.572 347.765 487.278 346.997 486.689 346.383C486.126 345.743 484.974 345.077 483.234 344.386C481.519 343.695 480.162 343.043 479.164 342.428C478.166 341.788 477.424 341.046 476.938 340.202C476.451 339.357 476.208 338.32 476.208 337.092C476.208 335.377 476.733 333.918 477.782 332.715C478.832 331.512 480.303 330.68 482.197 330.22C481.865 328.94 481.749 327.571 481.852 326.112C482.748 325.907 483.579 325.805 484.347 325.805C485.141 325.805 485.972 325.907 486.843 326.112L486.881 326.956C486.881 327.852 486.779 328.812 486.574 329.836C487.956 329.861 489.543 330.105 491.334 330.565C491.539 330.898 491.642 331.32 491.642 331.832C491.642 332.344 491.552 332.882 491.373 333.445C491.219 333.982 491.027 334.443 490.797 334.827C488.468 334.136 486.676 333.79 485.422 333.79C482.812 333.79 481.506 334.635 481.506 336.324C481.506 336.989 481.826 337.655 482.466 338.32C483.131 338.96 484.053 339.498 485.23 339.933C487.252 340.675 488.813 341.443 489.914 342.236C491.015 343.004 491.782 343.862 492.217 344.809C492.653 345.756 492.87 346.907 492.87 348.264Z" fill="white"/>
<path fill-rule="evenodd" clip-rule="evenodd" d="M477.922 313.359C478.091 314.047 477.671 314.742 476.982 314.912C471.161 316.343 465.824 319.681 461.995 324.293L461.994 324.294L461.993 324.295C458.152 328.899 455.82 334.746 455.471 340.728C455.43 341.436 454.822 341.976 454.115 341.935C453.407 341.893 452.867 341.286 452.908 340.579C453.289 334.043 455.832 327.673 460.021 322.652C464.202 317.617 470.016 313.981 476.369 312.419C477.058 312.249 477.753 312.67 477.922 313.359Z" fill="#FDDA24"/>
<path fill-rule="evenodd" clip-rule="evenodd" d="M513.587 341.117C512.882 341.189 512.252 340.675 512.181 339.97C511.578 334.005 509.019 328.254 504.987 323.818L504.986 323.817L504.985 323.816C500.964 319.369 495.5 316.242 489.626 315.06C488.931 314.92 488.481 314.243 488.621 313.548C488.761 312.853 489.438 312.403 490.133 312.543C496.55 313.834 502.502 317.242 506.888 322.092C511.29 326.936 514.077 333.202 514.735 339.711C514.806 340.417 514.293 341.046 513.587 341.117Z" fill="#9063CD"/>
<path fill-rule="evenodd" clip-rule="evenodd" d="M457.304 331.078C457.964 331.337 458.288 332.082 458.029 332.742C455.835 338.321 455.478 344.605 457.031 350.395L457.032 350.396L457.032 350.398C458.572 356.192 461.998 361.473 466.68 365.213C467.234 365.656 467.324 366.464 466.881 367.017C466.439 367.571 465.631 367.662 465.077 367.219C459.963 363.133 456.231 357.379 454.551 351.059C452.855 344.738 453.245 337.891 455.64 331.802C455.899 331.143 456.644 330.818 457.304 331.078Z" fill="#59CBE8"/>
<path fill-rule="evenodd" clip-rule="evenodd" d="M495.649 315.561C495.753 315.317 496.037 315.204 496.281 315.309C498.433 316.233 500.478 317.403 502.366 318.787C502.381 318.798 502.399 318.811 502.42 318.826C502.46 318.854 502.507 318.888 502.545 318.916L502.551 318.92L502.726 319.057L503.406 319.592L503.576 319.726L503.669 319.799L503.76 319.877L504.413 320.443L504.746 320.731L504.752 320.737C504.82 320.8 504.892 320.868 504.959 320.933C504.997 320.97 505.035 321.005 505.069 321.038L505.071 321.039L505.693 321.633C505.79 321.722 505.883 321.819 505.962 321.902C505.98 321.922 505.998 321.941 506.015 321.959L506.016 321.96L506.614 322.587C506.632 322.605 506.65 322.625 506.67 322.645C506.748 322.727 506.841 322.824 506.924 322.924L507.489 323.576C509.017 325.356 510.311 327.329 511.374 329.412C511.92 330.456 512.37 331.54 512.785 332.619C512.816 332.693 512.841 332.768 512.86 332.825C512.863 332.833 512.865 332.84 512.868 332.847L512.937 333.051L512.937 333.051L513.214 333.87L513.214 333.871L513.284 334.078L513.285 334.081C513.303 334.135 513.321 334.2 513.335 334.25C513.341 334.271 513.346 334.289 513.35 334.302L513.35 334.304L513.588 335.139C513.6 335.185 513.614 335.232 513.628 335.282C513.654 335.373 513.681 335.469 513.706 335.561L513.708 335.569L513.807 335.998C513.867 336.257 513.706 336.516 513.447 336.575C513.188 336.635 512.929 336.474 512.869 336.215L512.774 335.802C512.752 335.719 512.729 335.64 512.706 335.557C512.691 335.507 512.676 335.455 512.661 335.4C512.661 335.399 512.661 335.399 512.66 335.399L512.426 334.572C512.425 334.571 512.425 334.571 512.425 334.57C512.415 334.535 512.407 334.507 512.4 334.483C512.39 334.446 512.382 334.416 512.37 334.381L512.302 334.179L512.302 334.179L512.025 333.36L512.025 333.36L511.956 333.155L511.956 333.155C511.953 333.147 511.951 333.14 511.948 333.133C511.927 333.07 511.912 333.025 511.894 332.983L511.892 332.977L511.889 332.97C511.477 331.901 511.042 330.854 510.52 329.856L510.519 329.854L510.518 329.852C509.486 327.83 508.233 325.922 506.759 324.203C506.759 324.203 506.759 324.203 506.758 324.202L506.19 323.547L506.187 323.543C506.127 323.47 506.063 323.404 505.987 323.324C505.964 323.301 505.941 323.276 505.915 323.249C505.915 323.249 505.915 323.249 505.915 323.249L505.321 322.625C505.32 322.625 505.32 322.625 505.32 322.624C505.297 322.6 505.274 322.577 505.253 322.554C505.176 322.473 505.111 322.405 505.039 322.339L505.036 322.336L504.408 321.737C504.408 321.737 504.408 321.737 504.407 321.737C504.363 321.695 504.323 321.656 504.284 321.619C504.223 321.561 504.166 321.506 504.104 321.449L503.783 321.171L503.13 320.606L503.13 320.605L503.057 320.542L502.98 320.482L502.131 319.814L501.966 319.685C501.936 319.662 501.91 319.644 501.88 319.623C501.857 319.607 501.832 319.589 501.801 319.567L501.799 319.566L501.798 319.565C499.968 318.223 497.986 317.089 495.901 316.193C495.657 316.088 495.544 315.805 495.649 315.561Z" fill="#00C389"/>
<path fill-rule="evenodd" clip-rule="evenodd" d="M480.092 313.235C482.126 312.939 484.189 312.851 486.241 312.968C486.506 312.983 486.709 313.211 486.694 313.476C486.678 313.742 486.451 313.944 486.186 313.929C484.198 313.816 482.2 313.901 480.23 314.188L480.23 314.188C478.261 314.474 476.32 314.963 474.45 315.645C470.711 317.013 467.264 319.164 464.379 321.906C464.187 322.089 463.882 322.081 463.699 321.888C463.516 321.696 463.523 321.391 463.716 321.208C466.695 318.376 470.255 316.154 474.12 314.74L474.12 314.74C476.052 314.036 478.057 313.531 480.092 313.235" fill="#FF7F41"/>
<path fill-rule="evenodd" clip-rule="evenodd" d="M514.063 345.81C514.678 345.891 515.112 346.454 515.032 347.07C514.807 348.788 514.449 350.496 513.934 352.164L513.933 352.167C513.416 353.827 512.761 355.443 511.976 356.994L511.973 356.999L511.971 357.005C511.931 357.081 511.888 357.164 511.844 357.252C511.7 357.535 511.534 357.862 511.351 358.166L511.043 358.701C511.031 358.723 511.017 358.746 511.004 358.771C510.917 358.922 510.808 359.113 510.686 359.296C510.616 359.405 510.543 359.518 510.469 359.634C510.318 359.872 510.16 360.119 510.002 360.356L509.992 360.372L509.245 361.422L509.238 361.432C508.911 361.869 508.574 362.298 508.226 362.717C507.829 363.194 507.121 363.26 506.644 362.864C506.167 362.467 506.101 361.759 506.497 361.282C506.818 360.896 507.129 360.501 507.43 360.099L508.14 359.101C508.284 358.883 508.42 358.669 508.562 358.447C508.64 358.325 508.719 358.2 508.803 358.071L508.808 358.063L508.813 358.055C508.89 357.94 508.958 357.822 509.049 357.664C509.064 357.637 509.08 357.61 509.096 357.581L509.415 357.026L509.421 357.016C509.561 356.785 509.677 356.557 509.812 356.291C509.863 356.192 509.916 356.087 509.975 355.974C510.702 354.537 511.309 353.039 511.788 351.501C512.262 349.965 512.595 348.382 512.804 346.779C512.884 346.164 513.448 345.73 514.063 345.81Z" fill="#FDDA24"/>
<path fill-rule="evenodd" clip-rule="evenodd" d="M460.388 358.567C460.896 358.211 461.596 358.334 461.953 358.841C463.104 360.482 464.432 361.998 465.907 363.357L465.923 363.372L465.939 363.388C465.977 363.425 466.007 363.451 466.061 363.498C466.091 363.523 466.127 363.554 466.175 363.597L466.466 363.848C466.554 363.924 466.632 363.991 466.705 364.055C466.816 364.152 466.917 364.24 467.031 364.334L467.631 364.806C467.71 364.867 467.777 364.92 467.838 364.968C467.97 365.073 468.072 365.154 468.193 365.236L468.203 365.243L468.847 365.701C468.908 365.744 468.953 365.776 468.99 365.803C469.041 365.84 469.08 365.867 469.132 365.902L470.108 366.528C470.127 366.54 470.145 366.551 470.159 366.56C470.178 366.573 470.184 366.577 470.198 366.586C470.209 366.593 470.216 366.597 470.221 366.6C470.225 366.603 470.227 366.604 470.227 366.604L470.229 366.605L470.401 366.704L470.742 366.9C472.477 367.902 474.32 368.717 476.229 369.321L476.251 369.328L476.272 369.336C476.291 369.343 476.319 369.352 476.375 369.367L476.378 369.368L476.941 369.527C476.942 369.528 476.943 369.528 476.944 369.528C477.053 369.559 477.15 369.586 477.241 369.613C477.385 369.654 477.515 369.692 477.66 369.729L478.785 369.989L478.788 369.99L478.949 370.026L479.886 370.193L480.265 370.261C480.324 370.271 480.366 370.276 480.423 370.283C480.469 370.288 480.524 370.295 480.607 370.306L481.371 370.403C481.467 370.414 481.523 370.422 481.565 370.428C481.616 370.435 481.648 370.44 481.706 370.444L481.709 370.444L482.098 370.474C482.717 370.52 483.18 371.06 483.134 371.678C483.087 372.297 482.547 372.76 481.929 372.713L481.542 372.684C481.541 372.684 481.54 372.684 481.54 372.684C481.423 372.675 481.255 372.653 481.164 372.641C481.138 372.638 481.118 372.635 481.108 372.634L481.101 372.633L480.314 372.533L480.309 372.532C480.293 372.53 480.266 372.527 480.233 372.523C480.139 372.511 479.994 372.494 479.885 372.475L479.88 372.474L479.491 372.405L478.503 372.229L478.284 372.179L477.127 371.911L477.113 371.908C476.937 371.863 476.745 371.808 476.574 371.758C476.489 371.734 476.41 371.711 476.339 371.692L476.337 371.691L475.778 371.533C475.776 371.532 475.775 371.532 475.774 371.531C475.71 371.514 475.624 371.489 475.532 371.457C473.473 370.803 471.488 369.925 469.62 368.846C469.619 368.845 469.619 368.845 469.618 368.845L469.114 368.555C469.058 368.523 469.011 368.493 468.979 368.473C468.962 368.462 468.951 368.454 468.942 368.449C468.929 368.44 468.921 368.435 468.91 368.428L468.905 368.425L467.906 367.785L467.9 367.78C467.812 367.722 467.704 367.645 467.628 367.59C467.598 367.569 467.573 367.551 467.555 367.538L467.552 367.536L466.921 367.087C466.73 366.957 466.534 366.802 466.382 366.681C466.334 366.643 466.29 366.609 466.252 366.579L466.249 366.577L465.621 366.083L465.61 366.074C465.474 365.962 465.326 365.834 465.194 365.718C465.125 365.658 465.06 365.602 465.002 365.553L465 365.55L464.699 365.29L464.696 365.287C464.685 365.277 464.67 365.264 464.651 365.248C464.581 365.188 464.468 365.091 464.371 364.996C462.784 363.532 461.354 361.899 460.114 360.132C459.758 359.624 459.88 358.924 460.388 358.567Z" fill="#F5B6CD"/>
<path fill-rule="evenodd" clip-rule="evenodd" d="M503.127 364.417C503.517 364.899 503.443 365.607 502.96 365.997C502.298 366.532 501.613 367.041 500.907 367.521L500.905 367.522L500.903 367.524C499.46 368.494 497.938 369.344 496.355 370.062L495.79 370.317C495.666 370.375 495.543 370.423 495.459 370.456C495.452 370.459 495.445 370.461 495.439 370.464C495.438 370.464 495.438 370.464 495.437 370.464L494.245 370.934L493.325 371.246L493.028 371.347L493.025 371.347C493.014 371.351 493.001 371.355 492.987 371.361C492.911 371.386 492.788 371.428 492.666 371.461L491.452 371.806L491.439 371.809C489.755 372.242 488.036 372.533 486.307 372.684C485.689 372.738 485.144 372.28 485.09 371.663C485.036 371.045 485.494 370.5 486.112 370.446C487.715 370.306 489.308 370.037 490.866 369.637L492.073 369.294L492.083 369.292C492.123 369.281 492.158 369.269 492.227 369.246C492.25 369.238 492.277 369.229 492.309 369.218C492.31 369.218 492.31 369.218 492.31 369.218L492.606 369.118L493.472 368.824L494.617 368.373L494.619 368.372C494.728 368.33 494.785 368.308 494.835 368.284L494.845 368.279L495.427 368.016C495.427 368.016 495.427 368.016 495.428 368.015C496.896 367.35 498.309 366.561 499.647 365.661C500.3 365.218 500.934 364.746 501.548 364.25C502.03 363.86 502.737 363.935 503.127 364.417Z" fill="#FF7F41"/>
<ellipse cx="540.105" cy="290.968" rx="18.9795" ry="18.9795" fill="#00C389"/>
<path d="M546.648 294.382C546.648 295.726 546.21 296.864 545.334 297.799C544.458 298.714 543.271 299.366 541.772 299.755C542.025 300.826 542.122 301.906 542.064 302.996C541.402 303.152 540.769 303.23 540.166 303.23C539.582 303.23 538.949 303.152 538.268 302.996L538.239 302.354C538.239 301.672 538.317 300.942 538.472 300.164C536.837 300.164 535.309 299.95 533.888 299.521C533.752 299.132 533.684 298.714 533.684 298.266C533.684 297.487 533.869 296.757 534.238 296.076C535.99 296.718 537.411 297.039 538.501 297.039C541.246 297.039 542.619 296.261 542.619 294.704C542.619 294.003 542.395 293.419 541.947 292.952C541.519 292.465 540.643 291.959 539.319 291.433C538.015 290.908 536.983 290.411 536.224 289.944C535.465 289.457 534.9 288.893 534.53 288.251C534.161 287.608 533.976 286.82 533.976 285.885C533.976 284.581 534.375 283.472 535.173 282.557C535.971 281.642 537.09 281.009 538.531 280.659C538.278 279.685 538.19 278.644 538.268 277.534C538.949 277.379 539.582 277.301 540.166 277.301C540.769 277.301 541.402 277.379 542.064 277.534L542.093 278.177C542.093 278.858 542.015 279.588 541.859 280.367C542.911 280.386 544.117 280.571 545.48 280.921C545.636 281.175 545.714 281.496 545.714 281.885C545.714 282.274 545.646 282.683 545.509 283.111C545.393 283.52 545.247 283.871 545.071 284.163C543.3 283.637 541.937 283.374 540.983 283.374C538.998 283.374 538.005 284.017 538.005 285.301C538.005 285.808 538.248 286.314 538.735 286.82C539.241 287.306 539.942 287.715 540.837 288.046C542.375 288.611 543.563 289.195 544.4 289.798C545.237 290.382 545.821 291.034 546.152 291.754C546.483 292.475 546.648 293.351 546.648 294.382Z" fill="white"/>
<path fill-rule="evenodd" clip-rule="evenodd" d="M535.278 267.835C535.407 268.359 535.087 268.888 534.564 269.017C530.136 270.105 526.077 272.644 523.165 276.152L523.164 276.153L523.163 276.154C520.242 279.655 518.468 284.102 518.203 288.652C518.171 289.19 517.71 289.601 517.171 289.569C516.633 289.538 516.222 289.076 516.254 288.538C516.544 283.567 518.477 278.723 521.663 274.904C524.843 271.074 529.265 268.309 534.097 267.12C534.621 266.992 535.15 267.312 535.278 267.835Z" fill="#FDDA24"/>
<path fill-rule="evenodd" clip-rule="evenodd" d="M562.404 288.947C561.868 289.002 561.389 288.611 561.335 288.074C560.876 283.538 558.93 279.164 555.864 275.79L555.863 275.789L555.862 275.788C552.804 272.406 548.648 270.028 544.18 269.129C543.652 269.022 543.31 268.508 543.416 267.979C543.522 267.451 544.037 267.108 544.566 267.215C549.447 268.197 553.974 270.789 557.309 274.478C560.657 278.162 562.777 282.927 563.277 287.878C563.332 288.414 562.941 288.893 562.404 288.947Z" fill="#9063CD"/>
<path fill-rule="evenodd" clip-rule="evenodd" d="M519.599 281.31C520.101 281.508 520.348 282.074 520.151 282.576C518.482 286.819 518.21 291.599 519.392 296.002L519.392 296.003L519.392 296.005C520.563 300.411 523.169 304.428 526.73 307.273C527.151 307.609 527.22 308.223 526.883 308.645C526.547 309.066 525.932 309.135 525.511 308.798C521.621 305.69 518.783 301.314 517.506 296.507C516.216 291.699 516.512 286.492 518.333 281.861C518.531 281.36 519.098 281.113 519.599 281.31Z" fill="#59CBE8"/>
<path fill-rule="evenodd" clip-rule="evenodd" d="M548.76 269.511C548.84 269.325 549.055 269.239 549.241 269.319C550.878 270.022 552.433 270.912 553.869 271.964C553.88 271.973 553.895 271.983 553.91 271.994C553.941 272.015 553.977 272.041 554.006 272.062L554.01 272.065L554.143 272.17L554.66 272.576L554.789 272.678L554.86 272.734L554.929 272.794L555.427 273.224L555.679 273.443L555.684 273.447C555.736 273.495 555.79 273.547 555.842 273.596C555.871 273.624 555.899 273.651 555.925 273.676L555.926 273.677L556.4 274.129C556.474 274.197 556.544 274.271 556.604 274.334C556.618 274.349 556.632 274.363 556.645 274.377L556.646 274.377L557.1 274.854C557.114 274.868 557.128 274.883 557.143 274.899C557.202 274.961 557.273 275.034 557.336 275.111L557.766 275.606C558.928 276.961 559.912 278.461 560.721 280.046C561.136 280.839 561.478 281.663 561.794 282.484C561.817 282.541 561.836 282.598 561.851 282.641C561.853 282.647 561.855 282.653 561.856 282.658L561.909 282.813L561.909 282.813L562.12 283.436L562.12 283.436L562.173 283.594L562.174 283.597C562.187 283.638 562.201 283.687 562.212 283.725C562.216 283.741 562.22 283.754 562.223 283.765L562.223 283.766L562.404 284.401C562.414 284.436 562.424 284.472 562.435 284.51C562.454 284.579 562.475 284.652 562.494 284.722L562.496 284.728L562.571 285.055C562.617 285.251 562.494 285.448 562.297 285.494C562.1 285.539 561.903 285.416 561.858 285.219L561.785 284.905C561.768 284.842 561.751 284.782 561.733 284.719C561.722 284.681 561.711 284.641 561.699 284.599C561.699 284.599 561.699 284.599 561.699 284.598L561.52 283.97C561.52 283.969 561.52 283.969 561.52 283.968C561.512 283.942 561.506 283.92 561.501 283.902C561.493 283.874 561.487 283.851 561.478 283.824L561.426 283.671L561.426 283.671L561.216 283.048L561.216 283.048L561.163 282.892L561.163 282.892C561.161 282.886 561.159 282.881 561.157 282.876C561.141 282.827 561.13 282.793 561.116 282.761L561.114 282.756L561.112 282.752C560.799 281.939 560.468 281.142 560.071 280.383L560.07 280.382L560.07 280.38C559.285 278.842 558.332 277.391 557.21 276.084C557.21 276.083 557.21 276.083 557.21 276.083L556.778 275.585L556.776 275.582C556.729 275.526 556.681 275.476 556.623 275.415C556.606 275.397 556.588 275.378 556.569 275.358C556.569 275.358 556.569 275.358 556.569 275.358L556.117 274.883C556.116 274.883 556.116 274.883 556.116 274.883C556.098 274.864 556.081 274.847 556.065 274.83C556.006 274.768 555.957 274.716 555.902 274.666L555.9 274.663L555.422 274.208C555.422 274.208 555.422 274.208 555.422 274.208C555.389 274.176 555.358 274.147 555.328 274.118C555.282 274.074 555.238 274.032 555.191 273.989L554.947 273.778L554.451 273.348L554.45 273.347L554.395 273.299L554.337 273.254L553.69 272.746L553.565 272.647C553.542 272.63 553.522 272.616 553.5 272.6C553.482 272.588 553.463 272.574 553.439 272.557L553.438 272.556L553.437 272.556C552.045 271.535 550.538 270.673 548.952 269.992C548.766 269.912 548.68 269.697 548.76 269.511Z" fill="#00C389"/>
<path fill-rule="evenodd" clip-rule="evenodd" d="M536.932 267.741C538.479 267.516 540.048 267.449 541.608 267.538C541.81 267.55 541.965 267.723 541.953 267.925C541.941 268.126 541.768 268.281 541.567 268.269C540.055 268.183 538.535 268.248 537.037 268.466L537.037 268.466C535.539 268.683 534.063 269.055 532.641 269.574C529.797 270.614 527.175 272.25 524.982 274.336C524.835 274.475 524.603 274.469 524.464 274.323C524.325 274.176 524.331 273.944 524.477 273.805C526.743 271.651 529.451 269.961 532.39 268.886L532.39 268.886C533.86 268.35 535.384 267.966 536.932 267.741" fill="#FF7F41"/>
<path fill-rule="evenodd" clip-rule="evenodd" d="M562.764 292.519C563.232 292.58 563.561 293.009 563.5 293.477C563.33 294.783 563.057 296.083 562.666 297.352L562.665 297.354C562.272 298.616 561.773 299.845 561.176 301.025L561.174 301.029L561.172 301.033C561.142 301.091 561.11 301.155 561.076 301.221C560.967 301.436 560.84 301.685 560.701 301.916L560.467 302.323C560.457 302.34 560.447 302.358 560.437 302.376C560.371 302.491 560.288 302.637 560.195 302.776C560.142 302.858 560.087 302.945 560.031 303.033C559.915 303.213 559.795 303.402 559.675 303.582L559.667 303.594L559.1 304.393L559.094 304.4C558.846 304.733 558.589 305.059 558.324 305.378C558.022 305.741 557.484 305.791 557.121 305.489C556.758 305.188 556.708 304.649 557.01 304.286C557.254 303.992 557.49 303.692 557.719 303.386L558.259 302.627C558.368 302.462 558.472 302.299 558.58 302.13C558.639 302.037 558.699 301.942 558.763 301.844L558.767 301.838L558.771 301.832C558.829 301.745 558.881 301.654 558.95 301.534C558.962 301.514 558.974 301.493 558.986 301.471L559.229 301.049L559.234 301.041C559.339 300.866 559.428 300.693 559.531 300.49C559.569 300.415 559.61 300.335 559.654 300.249C560.207 299.156 560.669 298.017 561.034 296.847C561.394 295.679 561.647 294.475 561.806 293.255C561.867 292.788 562.296 292.458 562.764 292.519Z" fill="#FDDA24"/>
<path fill-rule="evenodd" clip-rule="evenodd" d="M521.942 302.222C522.328 301.95 522.861 302.044 523.132 302.43C524.007 303.678 525.018 304.831 526.139 305.864L526.152 305.876L526.164 305.888C526.192 305.916 526.215 305.936 526.256 305.971C526.279 305.991 526.306 306.014 526.343 306.047L526.564 306.238C526.631 306.296 526.69 306.347 526.746 306.395C526.83 306.469 526.907 306.536 526.994 306.608L527.451 306.967C527.51 307.013 527.561 307.053 527.608 307.09C527.708 307.17 527.786 307.231 527.877 307.293L527.885 307.299L528.375 307.647C528.422 307.68 528.456 307.704 528.484 307.725C528.523 307.753 528.552 307.774 528.592 307.8L529.334 308.276C529.349 308.285 529.362 308.294 529.373 308.301C529.387 308.31 529.392 308.313 529.403 308.32C529.411 308.325 529.416 308.329 529.42 308.331C529.423 308.333 529.425 308.334 529.425 308.334L529.426 308.335L529.557 308.41L529.817 308.559C531.136 309.322 532.537 309.941 533.989 310.401L534.006 310.406L534.023 310.412C534.037 310.417 534.058 310.424 534.1 310.435L534.103 310.436L534.531 310.558C534.532 310.558 534.533 310.558 534.534 310.558C534.617 310.581 534.69 310.602 534.759 310.622C534.869 310.654 534.968 310.682 535.078 310.711L535.934 310.908L535.936 310.909L536.059 310.937L536.771 311.064L537.059 311.115C537.104 311.123 537.136 311.127 537.18 311.132C537.214 311.136 537.256 311.141 537.319 311.149L537.9 311.223C537.973 311.232 538.016 311.238 538.048 311.242C538.087 311.248 538.111 311.251 538.155 311.254L538.157 311.255L538.454 311.277C538.924 311.313 539.277 311.723 539.241 312.193C539.205 312.664 538.795 313.016 538.325 312.981L538.03 312.958C538.03 312.958 538.029 312.958 538.029 312.958C537.94 312.952 537.812 312.935 537.743 312.926C537.723 312.923 537.708 312.921 537.7 312.92L537.695 312.92L537.096 312.843L537.093 312.843C537.08 312.841 537.06 312.839 537.035 312.836C536.963 312.827 536.853 312.813 536.771 312.799L536.767 312.799L536.47 312.746L535.719 312.612L535.553 312.574L534.672 312.371L534.662 312.368C534.528 312.334 534.382 312.292 534.252 312.254C534.188 312.236 534.127 312.218 534.073 312.203L534.071 312.203L533.646 312.082C533.645 312.082 533.645 312.082 533.644 312.082C533.595 312.068 533.53 312.05 533.459 312.025C531.894 311.528 530.384 310.86 528.963 310.039C528.962 310.039 528.962 310.039 528.962 310.038L528.578 309.818C528.536 309.794 528.5 309.771 528.476 309.755C528.463 309.747 528.454 309.741 528.448 309.737C528.438 309.73 528.432 309.727 528.423 309.721L528.419 309.719L527.66 309.232L527.655 309.229C527.588 309.184 527.506 309.126 527.448 309.084C527.425 309.068 527.406 309.054 527.392 309.045L527.39 309.043L526.91 308.702C526.765 308.602 526.616 308.485 526.5 308.393C526.464 308.364 526.431 308.338 526.402 308.315L526.399 308.314L525.921 307.938L525.913 307.931C525.81 307.846 525.698 307.748 525.597 307.66C525.544 307.615 525.495 307.572 525.451 307.534L525.449 307.533L525.22 307.334L525.218 307.333C525.21 307.325 525.198 307.315 525.184 307.303C525.131 307.257 525.045 307.183 524.971 307.111C523.764 305.997 522.676 304.755 521.733 303.412C521.462 303.025 521.555 302.493 521.942 302.222Z" fill="#F5B6CD"/>
<path fill-rule="evenodd" clip-rule="evenodd" d="M554.448 306.669C554.745 307.036 554.688 307.573 554.321 307.87C553.817 308.278 553.296 308.665 552.759 309.029L552.758 309.03L552.756 309.031C551.659 309.769 550.501 310.416 549.297 310.962L548.867 311.156C548.773 311.2 548.68 311.237 548.616 311.262C548.61 311.264 548.605 311.266 548.601 311.268C548.6 311.268 548.6 311.268 548.599 311.268L547.693 311.626L546.993 311.863L546.767 311.939L546.765 311.94C546.757 311.942 546.747 311.946 546.735 311.95C546.678 311.969 546.584 312.001 546.492 312.026L545.569 312.288L545.558 312.291C544.277 312.62 542.97 312.842 541.655 312.956C541.185 312.997 540.771 312.649 540.73 312.179C540.689 311.709 541.037 311.295 541.507 311.254C542.727 311.148 543.937 310.943 545.123 310.639L546.04 310.378L546.049 310.376C546.079 310.368 546.105 310.359 546.158 310.341C546.175 310.335 546.196 310.329 546.22 310.32C546.221 310.32 546.221 310.32 546.221 310.32L546.446 310.244L547.105 310.021L547.976 309.678L547.977 309.677C548.06 309.645 548.103 309.628 548.141 309.609L548.149 309.606L548.592 309.406C548.592 309.406 548.592 309.406 548.592 309.406C549.709 308.899 550.783 308.3 551.801 307.615C552.297 307.278 552.78 306.919 553.247 306.542C553.614 306.245 554.152 306.302 554.448 306.669Z" fill="#FF7F41"/>
</svg>
