<svg width="1080" height="1080" viewBox="0 0 1080 1080" fill="none" xmlns="http://www.w3.org/2000/svg">
<path fill-rule="evenodd" clip-rule="evenodd" d="M1024.76 396.908C1024.27 233.947 898.899 102 744.311 102C663.703 102 591.038 137.876 539.88 195.319C488.723 137.877 416.058 102.001 335.45 102.001C180.562 102.001 55 234.462 55 397.86H55.9544C56.8789 729.503 540.571 998.193 540.571 998.193C540.571 998.193 1025.19 728.989 1025.19 396.908H1024.76Z" fill="#E6DCCB"/>
<circle cx="539.831" cy="310.491" r="18.4714" fill="#F5B6CD"/>
<path d="M510.274 351.772C510.274 339.174 538.805 328.961 574 328.961C609.195 328.961 637.727 339.174 637.727 351.772C637.727 364.371 574 524.758 574 524.758C574 524.758 510.274 364.371 510.274 351.772Z" fill="white"/>
<circle cx="610.018" cy="328.962" r="18.4714" fill="#F5B6CD"/>
<circle cx="589.702" cy="347.432" r="18.4714" fill="#F5B6CD"/>
<circle cx="561.995" cy="301.257" r="18.4714" fill="#F5B6CD"/>
<circle cx="552.76" cy="352.975" r="18.4714" fill="#F5B6CD"/>
<path d="M346.59 364.592C346.582 365.76 346.691 367.045 347.034 368.215C357.077 404.596 379.41 436.619 409.982 458.651C440.553 480.684 478.084 491.667 515.699 489.689C522.825 489.267 529.72 488.377 536.385 487.019C543.518 485.546 548.117 478.569 546.645 471.319C545.173 464.07 538.195 459.588 530.946 461.06C525.567 462.193 519.957 462.858 514.233 463.171C482.577 464.837 450.99 455.527 425.301 437.029C399.611 418.531 380.866 391.553 372.42 361.02C370.48 354.001 363.149 349.867 356.13 351.808C350.397 353.523 346.626 358.87 346.59 364.592Z" fill="#9063CD"/>
<path d="M335.504 381.689C335.498 382.623 335.61 383.441 335.837 384.377C346.109 421.577 368.915 452.668 401.71 474.014C426.363 490.17 447.934 495.213 448.868 495.335C454.232 496.537 459.508 493.185 460.71 487.821C461.912 482.457 458.559 477.18 453.312 475.979C452.963 475.86 433.607 471.299 411.979 456.914C383.256 437.929 364.155 411.766 355.023 379.011C353.538 373.746 348.07 370.675 342.805 372.16C338.36 373.416 335.532 377.368 335.504 381.689Z" fill="#FF7F41"/>
<path d="M491.865 509.624C491.831 514.878 495.891 519.225 501.143 519.609C504.295 519.746 531.845 521.206 546.609 513.36C551.413 510.822 553.32 504.761 550.782 499.957C548.243 495.153 542.183 493.246 537.379 495.785C529.881 499.707 511.893 500.293 502.438 499.765C496.952 499.38 492.254 503.554 491.986 509.04C491.867 509.273 491.867 509.39 491.865 509.624Z" fill="#FF7F41"/>
<path d="M728.843 459.738C724.793 459.189 721.256 456.589 719.428 452.688C716.825 446.679 719.565 439.508 725.574 436.905C747.618 427.284 766.976 407.046 767.123 406.83C771.663 402.025 779.241 401.756 784.031 406.411C788.836 410.951 789.106 418.53 784.566 423.335C783.614 424.267 761.75 447.346 735.195 458.949C733.087 459.724 730.926 460.02 728.843 459.738Z" fill="#9063CD"/>
<path d="M609.41 510.604C602.12 509.616 596.199 503.747 595.467 496.106C594.544 487.26 601.043 479.303 610.004 478.396C639.264 475.527 688.038 469.528 703.618 465.865C712.258 463.855 721.082 469.175 723.077 477.93C725.088 486.569 719.767 495.393 711.012 497.388C691.41 502.038 636.577 508.394 613.176 510.643C611.856 510.818 610.567 510.761 609.41 510.604Z" fill="#FF7F41"/>
<path d="M740.858 479.75C736.114 479.107 731.667 476.265 728.976 471.776C724.494 463.98 727.131 454.085 734.911 449.719C766.226 431.691 785.872 417.149 807.164 387.864C812.38 380.675 822.508 378.984 829.812 384.216C837.001 389.433 838.692 399.561 833.46 406.865C808.964 440.665 785.654 457.892 751.149 477.727C747.942 479.649 744.329 480.22 740.858 479.75Z" fill="#FF7F41"/>
<path d="M331.426 275.427C348.863 257.211 346.872 227.006 326.979 207.964C307.085 188.921 276.822 188.251 259.385 206.468C241.948 224.684 243.939 254.888 263.833 273.931C283.727 292.974 313.989 293.643 331.426 275.427Z" fill="#E4AC7B"/>
<path d="M287.915 919.627C286.513 919.627 285.112 919.51 283.711 919.276C271.917 916.941 264.093 905.614 266.428 893.703C266.779 891.601 306.365 686.197 321.779 574.094C323.414 562.183 334.39 553.775 346.301 555.41C358.212 557.045 366.62 568.022 364.985 579.933C349.454 693.203 309.751 899.775 309.284 901.76C307.299 912.387 298.074 919.627 287.915 919.627Z" fill="#9063CD"/>
<path d="M271.912 633.062C271.912 633.062 259.067 741.195 211.773 808.339L271.912 633.062Z" fill="white"/>
<path d="M211.776 824.455C208.506 824.455 205.237 823.52 202.434 821.535C195.077 816.397 193.326 806.238 198.464 798.881C242.721 735.94 255.683 632.129 255.799 631.078C256.85 622.203 264.908 615.78 273.783 616.831C282.657 617.882 289.08 625.94 288.029 634.814C287.445 639.369 274.133 747.851 225.088 817.448C221.818 822.119 216.797 824.455 211.776 824.455Z" fill="#FF7F41"/>
<path d="M171.722 924.645C166.001 924.645 160.395 922.426 156.075 918.106C147.667 909.464 147.784 895.685 156.425 887.277C239.451 806.237 272.264 626.522 272.615 624.771C274.717 612.86 286.044 605.036 297.955 607.138C309.865 609.24 317.689 620.567 315.587 632.478C314.186 640.418 280.088 827.606 186.903 918.573C182.699 922.66 177.211 924.645 171.722 924.645Z" fill="#9063CD"/>
<path d="M252.764 354.908C251.597 354.908 250.312 354.791 249.144 354.441C212.828 344.165 180.949 321.628 159.112 290.916C137.275 260.205 126.532 222.604 128.751 185.003C129.218 177.88 130.152 170.99 131.553 164.334C133.071 157.211 140.078 152.657 147.318 154.175C154.558 155.693 158.995 162.699 157.477 169.939C156.309 175.311 155.609 180.916 155.258 186.638C153.39 218.283 162.498 249.929 180.832 275.736C199.165 301.543 226.023 320.46 256.501 329.101C263.507 331.086 267.594 338.443 265.609 345.45C263.858 351.171 258.486 354.908 252.764 354.908Z" fill="#9063CD"/>
<path d="M235.599 365.886C234.665 365.886 233.848 365.769 232.914 365.535C195.78 355.026 164.835 332.021 143.699 299.091C127.701 274.335 122.796 252.732 122.68 251.798C121.512 246.427 124.898 241.172 130.27 240.004C135.641 238.836 140.896 242.223 142.064 247.478C142.181 247.828 146.618 267.212 160.864 288.932C179.665 317.775 205.705 337.043 238.402 346.385C243.657 347.903 246.693 353.391 245.175 358.646C243.89 363.083 239.92 365.886 235.599 365.886Z" fill="#FF7F41"/>
<path d="M108.665 208.708C103.41 208.708 99.0895 204.621 98.7392 199.367C98.6224 196.214 97.3379 168.655 105.279 153.942C107.848 149.154 113.92 147.286 118.707 149.855C123.495 152.424 125.364 158.496 122.795 163.284C118.824 170.757 118.124 188.74 118.591 198.199C118.941 203.687 114.737 208.358 109.249 208.592C109.015 208.708 108.898 208.708 108.665 208.708Z" fill="#FF7F41"/>
<path fill-rule="evenodd" clip-rule="evenodd" d="M296.656 495.061L221.12 325.482C451.876 251.831 406.499 459.556 389.995 516.901L358.329 664.476H150.473L155.844 639.487C171.432 567.068 227.153 511.828 296.656 495.061Z" fill="white"/>
<path d="M932.386 512.904L932.62 883.66C932.62 901.76 917.907 916.473 899.807 916.473C882.875 916.473 868.862 903.395 867.11 886.93L830.443 518.042C827.641 490.017 848.193 464.91 876.218 462.225C904.244 459.422 929.35 479.974 932.036 508C932.386 509.518 932.386 511.269 932.386 512.904Z" fill="#2C2A29"/>
<path d="M868.277 525.166L786.068 890.9C782.098 908.766 764.232 920.093 746.365 916.006C729.55 912.27 718.573 896.155 720.675 879.456L767.735 507.533C771.238 479.507 796.812 459.773 824.837 463.276C852.863 466.779 872.597 492.352 869.094 520.378C868.977 522.013 868.627 523.648 868.277 525.166Z" fill="#2C2A29"/>
<path d="M863.278 272.676C873.58 246.93 863.779 218.794 841.385 209.834C818.992 200.873 792.488 214.48 782.185 240.226C771.883 265.972 781.684 294.108 804.078 303.068C826.471 312.029 852.975 298.422 863.278 272.676Z" fill="#E4AC7B"/>
<path d="M852.745 558.21H842.936C803.7 558.21 771.938 526.448 771.938 487.212V480.906H923.626V487.212C923.743 526.448 891.864 558.21 852.745 558.21Z" fill="#2C2A29"/>
<path d="M907.395 316.557L944.996 532.004L752.437 541.229C752.32 541.229 733.403 319.009 907.395 316.557Z" fill="#2C2A29"/>
<path fill-rule="evenodd" clip-rule="evenodd" d="M760.273 444.984C794.875 439.947 832.621 393.815 850.368 331.023C850.889 329.177 851.389 327.333 851.867 325.494C796.454 346.619 771.387 397.857 760.273 444.984Z" fill="white"/>
<path d="M887.195 350.355C882.057 350.355 877.152 347.435 874.934 342.531C871.781 335.758 874.7 327.701 881.473 324.548C881.94 324.314 900.974 314.856 916.972 292.669C938.458 262.775 944.647 224.473 935.422 178.931C933.904 171.575 938.692 164.451 946.049 162.933C953.406 161.415 960.529 166.203 962.047 173.56C975.709 240.704 956.558 284.728 938.108 309.834C917.906 337.393 894.085 348.72 893.034 349.187C891.048 349.888 889.063 350.355 887.195 350.355Z" fill="#FF7F41"/>
<path d="M972.088 238.953C971.854 238.953 971.621 238.953 971.387 238.953C966.6 238.603 962.98 234.282 963.33 229.494C965.432 202.403 960.995 173.209 950.135 142.732C948.5 138.177 950.835 133.156 955.389 131.521C959.944 129.886 964.965 132.222 966.6 136.776C978.394 169.589 983.181 201.235 980.846 230.895C980.496 235.45 976.642 238.953 972.088 238.953Z" fill="#9063CD"/>
<path d="M901.443 361.681C898.524 361.681 895.605 360.163 893.97 357.477C891.401 353.39 892.802 347.901 896.889 345.449C897.239 345.216 921.879 329.802 941.03 298.506C943.599 294.419 948.97 293.018 953.057 295.587C957.144 298.156 958.546 303.528 955.977 307.615C934.49 342.763 907.048 359.696 905.881 360.396C904.596 361.33 902.961 361.681 901.443 361.681Z" fill="#9063CD"/>
<circle cx="637.725" cy="288.327" r="18.4714" fill="#9063CD"/>
<circle cx="589.702" cy="316.032" r="18.4714" fill="#9063CD"/>
<circle cx="587.854" cy="304.95" r="18.4714" fill="#9063CD"/>
<circle cx="569.385" cy="279.089" r="18.4714" fill="#9063CD"/>
<circle cx="635.878" cy="325.268" r="18.4714" fill="#9063CD"/>
<circle cx="648.807" cy="360.362" r="18.4714" fill="#9063CD"/>
<circle cx="517.663" cy="376.987" r="18.4714" fill="#9063CD"/>
<circle cx="646.964" cy="349.28" r="18.4714" fill="#F5B6CD"/>
<circle cx="499.19" cy="319.727" r="18.4714" fill="#F5B6CD"/>
<circle cx="536.135" cy="282.784" r="18.4714" fill="#9063CD"/>
<circle cx="482.565" cy="330.809" r="18.4714" fill="#9063CD"/>
<circle cx="502.885" cy="341.893" r="18.4714" fill="#9063CD"/>
<circle cx="532.44" cy="325.268" r="18.4714" fill="#9063CD"/>
<circle cx="558.299" cy="330.809" r="18.4714" fill="#F5B6CD"/>
<circle cx="571.315" cy="371.341" r="18.4714" fill="#F5B6CD"/>
<circle cx="525.049" cy="343.741" r="18.4714" fill="#F5B6CD"/>
<circle cx="499.19" cy="356.669" r="18.4714" fill="#F5B6CD"/>
<circle cx="624.799" cy="347.432" r="18.4714" fill="#F5B6CD"/>
<circle cx="624.799" cy="371.448" r="18.4714" fill="#F5B6CD"/>
<circle cx="604.479" cy="352.975" r="18.4714" fill="#F5B6CD"/>
<circle cx="580.464" cy="341.893" r="18.4714" fill="#F5B6CD"/>
<circle cx="536.135" cy="360.362" r="18.4714" fill="#F5B6CD"/>
<circle cx="521.358" cy="316.032" r="18.4714" fill="#F5B6CD"/>
<circle cx="619.253" cy="301.257" r="18.4714" fill="#F5B6CD"/>
<circle cx="593.397" cy="282.784" r="18.4714" fill="#F5B6CD"/>
<circle cx="517.663" cy="288.327" r="18.4714" fill="#F5B6CD"/>
<circle cx="598.936" cy="378.835" r="18.4714" fill="#9063CD"/>
<circle cx="556.456" cy="367.753" r="18.4714" fill="#9063CD"/>
</svg>
