<svg width="1080" height="514" viewBox="0 0 1080 514" fill="none" xmlns="http://www.w3.org/2000/svg">
<path d="M985.682 248.173C1012.92 248.173 1035 225.71 1035 198C1035 170.291 1012.92 147.828 985.682 147.828C958.442 147.828 936.359 170.291 936.359 198C936.359 225.71 958.442 248.173 985.682 248.173Z" fill="#00C389"/>
<path d="M1016.9 309.663C1044.14 309.663 1066.22 287.2 1066.22 259.491C1066.22 231.781 1044.14 209.318 1016.9 209.318C989.657 209.318 967.574 231.781 967.574 259.491C967.574 287.2 989.657 309.663 1016.9 309.663Z" fill="#00C389"/>
<path d="M950.805 283.645C970.065 283.645 985.677 267.763 985.677 248.172C985.677 228.581 970.065 212.699 950.805 212.699C931.546 212.699 915.934 228.581 915.934 248.172C915.934 267.763 931.546 283.645 950.805 283.645Z" fill="#00C389"/>
<path d="M999.496 264.695C999.496 260.497 996.15 257.094 992.023 257.094C987.896 257.094 984.551 260.497 984.551 264.695V428.089C984.551 432.287 987.896 435.691 992.023 435.691C996.15 435.691 999.496 432.287 999.496 428.089V264.695Z" fill="#B28038"/>
<path d="M848.135 281.615H739.309L747.497 450.355H948.773L957.014 281.615H848.135Z" fill="#59CBE8"/>
<g style="mix-blend-mode:multiply" opacity="0.1">
<path fill-rule="evenodd" clip-rule="evenodd" d="M739.305 291.266H758.84H759.513H800.416H800.468H842.042H842.044H883.667H883.671H925.295V314.819C925.295 323.811 915.998 331.071 904.481 331.071C893.117 331.071 883.829 323.937 883.669 315.053C883.509 323.937 874.273 331.071 862.857 331.071C851.413 331.071 842.161 323.903 842.043 314.991C841.926 323.903 832.673 331.071 821.23 331.071C810.069 331.071 800.992 324.252 800.442 315.646C799.893 324.252 790.815 331.071 779.654 331.071C769.421 331.071 760.94 325.339 759.176 317.753C757.562 324.701 750.312 330.093 741.243 330.952L739.305 291.266ZM954.2 329.808C951.715 330.624 948.983 331.075 946.113 331.075C934.65 331.075 925.299 323.815 925.299 314.823V291.269H956.07L954.2 329.808Z" fill="#2C2A29"/>
</g>
<path d="M972.599 281.862H722.773V255.078H972.599V281.862Z" fill="#59CBE8"/>
<path d="M743.232 321.425C731.716 321.425 722.418 314.165 722.418 305.172V281.619H764.047V305.172C764.047 314.165 754.696 321.425 743.232 321.425Z" fill="#FDDA24"/>
<path d="M826.49 321.421C814.974 321.421 805.676 314.161 805.676 305.169V281.615H847.304V305.169C847.304 314.161 838.007 321.421 826.49 321.421Z" fill="#FDDA24"/>
<path d="M909.748 321.421C898.231 321.421 888.934 314.161 888.934 305.169V281.615H930.562V305.169C930.562 314.161 921.264 321.421 909.748 321.421Z" fill="#FDDA24"/>
<path d="M784.865 321.421C773.349 321.421 764.051 314.161 764.051 305.169V281.615H805.679V305.169C805.679 314.161 796.329 321.421 784.865 321.421Z" fill="#FF7F41"/>
<path d="M868.123 321.421C856.606 321.421 847.309 314.161 847.309 305.169V281.615H888.938V305.169C888.938 314.161 879.64 321.421 868.123 321.421Z" fill="#FF7F41"/>
<path d="M951.435 321.421C939.919 321.421 930.621 314.161 930.621 305.169V281.615H972.25V305.169C972.25 314.161 962.899 321.421 951.435 321.421Z" fill="#FF7F41"/>
<path fill-rule="evenodd" clip-rule="evenodd" d="M813.475 342.009V373.061H853.474V375.649H813.475V407.749L810.881 407.752V375.649H770.669V373.061H810.881V342.014L813.475 342.009ZM813.475 342.009L853.479 341.927V407.694L813.475 407.749V408.088H810.881V407.752L770.669 407.808V375.649H770.668V373.061H770.669V342.097L810.881 342.014V341.926L813.475 341.926V342.009Z" fill="white"/>
<path fill-rule="evenodd" clip-rule="evenodd" d="M868.375 444.285L924.955 444.455L925.068 342.096L868.826 341.926L868.375 444.285ZM915.931 372.081V414.299H918.519V372.081H915.931Z" fill="white"/>
<path d="M971.482 411.16C980.283 411.16 988.724 414.633 995.011 420.919C1001.24 427.146 1004.77 435.587 1004.77 444.448H938.314C938.314 440.077 939.152 435.767 940.828 431.756C942.505 427.744 944.959 424.032 948.013 420.979C951.066 417.926 954.778 415.471 958.789 413.794C962.741 411.998 967.111 411.16 971.482 411.16Z" fill="#00C389"/>
<path d="M1007.82 421.34C1014.05 421.34 1020.1 423.795 1024.47 428.225C1028.9 432.655 1031.35 438.642 1031.35 444.869H984.294C984.294 438.642 986.748 432.595 991.179 428.225C995.609 423.854 1001.6 421.34 1007.82 421.34Z" fill="#00C389"/>
<path d="M158.14 422.309C164.03 422.309 169.68 424.633 173.887 428.84C178.054 433.007 180.418 438.656 180.418 444.587H135.942C135.942 441.662 136.503 438.777 137.625 436.092C138.747 433.408 140.39 430.923 142.433 428.88C144.477 426.836 146.961 425.194 149.645 424.072C152.29 422.87 155.215 422.309 158.14 422.309Z" fill="#00C389"/>
<path d="M134.037 434.111C136.806 434.111 139.463 435.204 141.441 437.182C143.4 439.141 144.512 441.798 144.512 444.586H123.6C123.6 443.211 123.864 441.854 124.391 440.592C124.919 439.33 125.691 438.162 126.652 437.201C127.613 436.24 128.781 435.468 130.043 434.94C131.286 434.375 132.662 434.111 134.037 434.111Z" fill="#00C389"/>
<path d="M737.712 406.406C725.827 406.406 714.478 411.142 706.078 419.453C697.678 427.853 693.031 439.202 693.031 451.087H782.393C782.393 439.202 777.657 427.853 769.346 419.453C760.946 411.142 749.597 406.406 737.712 406.406Z" fill="#00C389"/>
<path d="M679.961 428.746C674 428.746 668.22 431.069 663.976 435.269C659.731 439.469 657.383 445.099 657.383 451.086H702.539C702.539 445.189 700.191 439.469 695.946 435.269C691.702 431.159 686.012 428.746 679.961 428.746Z" fill="#00C389"/>
<path d="M241.112 152.897H54.3828C54.3828 142.177 63.0767 133.484 73.798 133.484C74.554 133.484 75.2756 133.519 75.9973 133.622C79.4679 120.428 91.495 110.705 105.756 110.705C106.237 110.705 106.684 110.705 107.165 110.739C114.072 96.1366 128.951 86.0352 146.201 86.0352C165.582 86.0352 182.008 98.8509 187.437 116.442C198.296 117.851 207.539 124.517 212.488 133.793C213.794 133.587 215.099 133.484 216.44 133.484C228.398 133.484 238.432 141.765 241.112 152.897Z" fill="#F4F4F4"/>
<path d="M21.7268 132.42H19.0887C8.56622 132.42 0 140.963 0 151.522V153.213H40.7859V151.493C40.8155 140.963 32.2493 132.42 21.7268 132.42Z" fill="#F4F4F4"/>
<path d="M182.903 181.291H245.282L253.279 449.999H174.906L182.903 181.291Z" fill="#59CBE8"/>
<rect x="170.359" y="153.584" width="85.5705" height="27.9904" rx="13.9952" fill="#59CBE8"/>
<g style="mix-blend-mode:multiply" opacity="0.1">
<path fill-rule="evenodd" clip-rule="evenodd" d="M182.438 197.174L182.91 181.291H245.289L245.572 190.797L182.438 197.174Z" fill="#2C2A29"/>
</g>
<path fill-rule="evenodd" clip-rule="evenodd" d="M217.539 281.445H325.502H433.465L428.693 450.187H325.502H222.311L217.539 281.445Z" fill="#FF7F41"/>
<rect x="361.488" y="309.566" width="35.1879" height="35.1879" fill="white"/>
<rect x="307.906" y="309.566" width="35.188" height="35.1879" fill="white"/>
<rect x="254.328" y="309.566" width="35.1878" height="35.1879" fill="white"/>
<rect x="198.348" y="254.908" width="254.312" height="26.7783" fill="#FF7F41"/>
<g style="mix-blend-mode:multiply" opacity="0.1">
<path fill-rule="evenodd" clip-rule="evenodd" d="M433.142 292.981L433.465 281.574H325.502H217.539L218.078 300.626L433.142 292.981Z" fill="#2C2A29"/>
</g>
<path fill-rule="evenodd" clip-rule="evenodd" d="M255.719 370.705H396.47V450.678H255.719V370.705ZM396.47 402.695H255.719V400.282H396.47V402.695ZM255.719 386.701H396.47V384.288H255.719V386.701ZM396.47 418.689H255.719V416.277H396.47V418.689ZM255.719 434.685H396.47V432.272H255.719V434.685Z" fill="white"/>
<path fill-rule="evenodd" clip-rule="evenodd" d="M222.685 394.83C231.827 394.83 239.238 402.241 239.238 411.382V449.713H232.268V411.382C232.268 406.09 227.978 401.799 222.685 401.799H221.815V401.8H221.811V449.719H214.842V401.8H204.393V449.719H197.424V401.8H186.966V449.719H179.997V401.8H169.548V449.719H162.579V401.8H161.704C156.412 401.8 152.122 406.09 152.122 411.382V449.714H145.152V411.382C145.152 402.241 152.563 394.83 161.704 394.83H162.575V394.83H222.685Z" fill="#2C2A29"/>
<path d="M464.394 444.434H110.75V450.138H464.394V444.434Z" fill="#00C389"/>
<path d="M579.867 444.285H456.832V450.316H579.867V444.285Z" fill="#00C389"/>
<path d="M1044.22 444.262H579.863V450.443H1044.22V444.262Z" fill="#00C389"/>
<path d="M449.726 445.401C449.672 440.026 450.666 434.694 452.651 429.712C454.637 424.73 457.575 420.199 461.294 416.378C465.014 412.558 469.441 409.525 474.321 407.456C479.201 405.386 484.436 404.32 489.723 404.32C495.011 404.32 500.246 405.386 505.126 407.456C510.005 409.525 514.433 412.558 518.153 416.378C521.872 420.199 524.81 424.73 526.795 429.712C528.781 434.694 529.775 440.026 529.721 445.401" fill="#00C389"/>
<path d="M562.154 446.483C562.211 442.163 563.945 438.039 566.979 435.004C570.014 431.969 574.106 430.268 578.37 430.268C582.634 430.268 586.726 431.969 589.761 435.004C592.796 438.039 594.529 442.163 594.586 446.483" fill="#00C389"/>
<path d="M519.988 446.483C520.071 440.146 522.614 434.097 527.065 429.646C531.516 425.195 537.518 422.699 543.771 422.699C550.025 422.699 556.026 425.195 560.478 429.646C564.929 434.097 567.471 440.146 567.555 446.483" fill="#00C389"/>
<path d="M522.838 352.747C537.597 352.747 549.562 340.576 549.562 325.562C549.562 310.548 537.597 298.377 522.838 298.377C508.078 298.377 496.113 310.548 496.113 325.562C496.113 340.576 508.078 352.747 522.838 352.747Z" fill="#00C389"/>
<path d="M539.752 386.063C554.511 386.063 566.476 373.892 566.476 358.878C566.476 343.865 554.511 331.693 539.752 331.693C524.992 331.693 513.027 343.865 513.027 358.878C513.027 373.892 524.992 386.063 539.752 386.063Z" fill="#00C389"/>
<path d="M503.942 371.968C514.377 371.968 522.836 363.363 522.836 352.748C522.836 342.133 514.377 333.527 503.942 333.527C493.506 333.527 485.047 342.133 485.047 352.748C485.047 363.363 493.506 371.968 503.942 371.968Z" fill="#00C389"/>
<path d="M530.32 361.699C530.32 359.424 528.508 357.58 526.272 357.58C524.035 357.58 522.223 359.424 522.223 361.699V450.231H526.272H530.32V361.699Z" fill="#B28038"/>
<path d="M700.036 263.188L677.094 494.296C675.947 505.622 665.91 513.794 654.583 512.647C643.972 511.643 636.086 502.611 636.086 492.145L636.229 259.891C636.229 242.257 650.568 227.92 668.204 227.92C685.841 227.92 700.179 242.257 700.179 259.891C700.179 261.038 700.179 262.185 700.036 263.188Z" fill="#2C2A29"/>
<path d="M739.326 256.739L768.863 489.71C770.297 501.179 762.268 511.502 750.797 512.935C740.043 514.226 730.292 507.201 727.855 496.878L676.379 267.634C672.508 250.43 683.405 233.226 700.611 229.355C717.818 225.485 735.024 236.38 738.896 253.585C739.039 254.588 739.182 255.735 739.326 256.739Z" fill="#2C2A29"/>
<path d="M777.423 293.975C772.404 293.975 768.246 289.961 768.103 284.8C766.526 206.091 710.031 192.185 707.594 191.611C702.575 190.464 699.42 185.446 700.568 180.429C701.715 175.411 706.59 172.257 711.608 173.403C712.325 173.547 730.679 177.705 748.889 193.618C765.522 208.098 785.596 235.625 786.6 284.37C786.743 289.531 782.585 293.832 777.423 293.832C777.566 293.975 777.566 293.975 777.423 293.975Z" fill="#9063CD"/>
<path d="M792.913 305.996C792.627 306.015 792.34 306.035 792.197 306.044C788.735 305.85 786.088 302.869 786.283 299.407C787.58 276.326 784.723 255.541 777.741 237.481C776.515 234.259 778.14 230.699 781.352 229.33C784.574 228.104 788.134 229.729 789.503 232.941C797.175 252.679 800.292 275.171 798.826 299.987C798.621 303.306 796.06 305.781 792.913 305.996Z" fill="#F5B6CD"/>
<path d="M757.638 202.649C756.061 202.649 754.34 202.076 753.193 200.786C734.983 182.005 715.339 175.123 715.195 175.123C711.898 173.976 710.177 170.392 711.324 167.238C712.471 163.94 715.912 162.22 719.21 163.367C720.071 163.654 741.722 171.109 762.226 192.184C764.664 194.621 764.52 198.635 762.083 201.072C760.792 202.076 759.215 202.649 757.638 202.649Z" fill="#F5B6CD"/>
<path d="M728.681 113.605L749.594 284.949L621.255 296.369C621.255 296.369 612.859 115.691 728.681 113.605Z" fill="#CCCCCC"/>
<path d="M721.616 93.9061C732.404 82.6379 731.178 63.9603 718.879 52.1886C706.579 40.4168 687.864 40.0085 677.076 51.2767C666.288 62.545 667.514 81.2226 679.813 92.9944C692.113 104.766 710.828 105.174 721.616 93.9061Z" fill="#E4AC7B"/>
<path d="M686.927 173.6C687.114 174.877 687.017 176.195 686.637 177.555C686.457 178.306 680.968 196.211 663.614 213.247C647.917 228.736 618.969 246.747 570.319 244.024C565.208 243.759 561.239 239.414 561.483 234.161C561.748 229.05 566.092 225.08 571.345 225.324C649.927 229.6 668.053 174.338 668.734 172.064C670.196 167.212 675.437 164.415 680.288 165.878C683.963 167.223 686.427 170.195 686.927 173.6Z" fill="#9063CD"/>
<path d="M617.521 242.071C618.058 245.325 616.096 248.41 612.866 249.088C592.353 254.217 569.584 254.486 545.15 249.943C541.709 249.348 539.57 246.068 540.165 242.627C540.759 239.187 544.016 236.905 547.479 237.642C570.099 241.757 591.124 241.486 609.987 236.92C613.335 236.077 616.726 238.133 617.569 241.482C617.451 241.647 617.497 241.93 617.521 242.071Z" fill="#F5B6CD"/>
<path d="M696.775 182.445C696.941 183.58 696.824 184.756 696.402 185.832C696.101 186.746 687.014 207.787 664.416 226.606C661.707 228.887 657.873 228.435 655.613 225.868C653.333 223.159 653.785 219.325 656.351 217.064C676.505 200.343 684.727 181.312 684.848 181.15C686.256 177.9 689.819 176.508 693.068 177.916C695.037 178.497 696.463 180.317 696.775 182.445Z" fill="#F5B6CD"/>
<path d="M395.364 255.727L419.085 493.906C420.264 505.558 430.598 514.02 442.251 512.91C453.14 511.8 461.324 502.575 461.324 491.825L461.185 252.467C461.185 234.226 446.412 219.521 428.171 219.521C409.929 219.521 395.225 234.295 395.225 252.536C395.225 253.507 395.295 254.617 395.364 255.727Z" fill="#2C2A29"/>
<path d="M354.858 248.999L324.478 489.189C323.022 500.911 331.345 511.662 343.067 513.187C354.095 514.575 364.29 507.223 366.649 496.611L419.778 260.374C423.8 242.618 412.634 225.001 394.808 220.978C376.983 216.955 359.435 228.122 355.412 245.947C355.204 246.919 354.996 247.959 354.858 248.999Z" fill="#2C2A29"/>
<path d="M389.994 91.4994C382.181 71.9752 389.599 50.645 406.563 43.857C423.527 37.069 443.612 47.3936 451.424 66.9178C459.237 86.442 451.819 107.772 434.855 114.56C417.891 121.348 397.806 111.024 389.994 91.4994Z" fill="#E4AC7B"/>
<path d="M456.814 135.299L466.594 286.293L344.453 295.934C344.522 295.934 335.436 86.8168 456.814 135.299Z" fill="#FDDA24"/>
<path d="M344.177 296.352L467.012 286.642V286.295L457.163 135.092L456.955 135.023C430.39 124.411 407.987 125.382 390.301 137.867C363.736 156.732 352.639 198.695 347.992 230.6C342.929 265.14 344.177 295.658 344.177 295.936V296.352ZM466.249 285.948L344.871 295.52C344.732 291.913 343.9 263.06 348.685 230.669C353.332 198.903 364.36 157.079 390.717 138.422C408.126 126.076 430.251 125.105 456.469 135.578L466.249 285.948Z" fill="#FDDA24"/>
<path d="M513.762 251.22C525.206 251.22 536.651 249.624 547.609 246.295C552.534 244.839 555.239 239.637 553.782 234.782C552.326 229.926 547.124 227.152 542.269 228.609C515.496 236.724 485.256 232.84 461.327 218.274C453.697 213.627 446.623 207.801 440.38 201.073C436.913 197.328 431.017 197.12 427.272 200.588C423.526 204.056 423.318 209.951 426.786 213.696C434.208 221.673 442.6 228.539 451.686 234.088C470.205 245.393 491.984 251.22 513.762 251.22Z" fill="#FF7F41"/>
<path d="M415.9 191.292C417.288 191.292 418.744 190.945 420.062 190.252C424.64 187.963 426.443 182.345 424.085 177.836C419.715 169.305 416.663 160.289 414.929 151.133C414.028 146.139 409.173 142.81 404.109 143.712C399.116 144.614 395.786 149.469 396.688 154.532C398.699 165.491 402.375 176.172 407.508 186.298C409.242 189.419 412.502 191.292 415.9 191.292Z" fill="#FF7F41"/>
<path d="M434.398 235.044C437.319 235.928 440.577 234.74 442.191 232.04C444.099 228.849 443.039 224.688 439.781 222.76C418.32 210.107 407.337 185.334 407.265 185.095C405.765 181.67 401.816 180.113 398.391 181.613C394.966 183.113 393.409 187.062 394.909 190.487C395.424 191.657 407.768 219.595 432.998 234.403C433.422 234.677 433.933 234.904 434.398 235.044Z" fill="#59CBE8"/>
<path d="M519.868 237.695C521.741 237.695 522.989 237.626 523.128 237.626C526.873 237.487 529.786 234.366 529.648 230.62C529.509 226.944 526.526 224.101 522.92 224.101C522.85 224.101 522.781 224.101 522.712 224.101C522.504 224.101 501.557 224.725 486.576 219.939C483.038 218.829 479.224 220.771 478.114 224.309C477.004 227.846 478.946 231.661 482.484 232.77C496.009 237.14 512.863 237.695 519.868 237.695Z" fill="#59CBE8"/>
<path fill-rule="evenodd" clip-rule="evenodd" d="M381.166 80.653L379.705 73.9925C379.617 73.5913 379.437 73.2235 379.257 72.8536C371.647 57.1859 360.14 38.1186 393.907 21.6975C425.16 6.49954 439.34 32.8959 442.707 40.6201C443.248 41.8562 444.398 42.7166 445.732 42.8905C450.181 43.4741 459.589 45.2319 457.099 49.4898C454.202 54.4441 401.334 80.5226 385.648 83.6282C383.603 84.0329 381.615 82.6948 381.166 80.653Z" fill="#FDDA24"/>
<path fill-rule="evenodd" clip-rule="evenodd" d="M393.862 21.8117C383.785 26.7101 377.911 31.5616 374.407 37.1832C376.396 29.3613 382.972 23.4258 395.391 17.3895C419.626 5.60989 431.277 14.637 436.666 30.6441C429.468 21.1355 415.947 11.0767 393.862 21.8117Z" fill="#FF7F41"/>
<g opacity="0.3">
<path fill-rule="evenodd" clip-rule="evenodd" d="M389.976 39.0505C381.512 45.9143 377.018 51.8063 374.94 57.9045C375.098 50.0563 380.017 42.9828 390.448 34.5241C410.806 18.0176 423.834 23.9973 432.471 37.9707C423.554 30.5523 408.528 24.0079 389.976 39.0505Z" fill="#FF7F41"/>
</g>
<path fill-rule="evenodd" clip-rule="evenodd" d="M379.598 73.7236C379.572 73.6028 379.529 73.4888 379.492 73.3725C379.875 73.4235 380.273 73.4149 380.673 73.336C395.018 70.5563 434.729 49.569 443.717 42.0668C444.217 42.4212 444.956 42.4047 445.575 42.4915C450.044 43.1237 459.494 44.9972 457.032 49.3267C454.166 54.3644 401.348 80.5724 385.64 83.6158C383.591 84.013 381.585 82.6297 381.118 80.5401L379.598 73.7236Z" fill="#FDDA24"/>
<path d="M457.792 49.2533C460.252 44.9085 450.888 41.5869 444.19 42.3047C448.468 43.7307 451.881 51.1963 443.594 55.8003L440.988 57.4054C428.638 64.2768 399.762 78.6328 382.834 82.5736C383.631 83.0789 384.273 83.9892 386.353 83.5979C402.093 80.6385 454.93 54.3105 457.792 49.2533Z" fill="#FF7F41"/>
</svg>
