<svg width="1080" height="1080" viewBox="0 0 1080 1080" fill="none" xmlns="http://www.w3.org/2000/svg">
<path d="M510.641 875.755L528.882 637.761L758.981 585.91L729.6 768.884L510.641 875.755Z" fill="#FF7F41"/>
<path d="M413.406 550.48L312.891 643.226L332.736 842.61L510.639 875.755L534.22 673.007L413.406 550.48Z" fill="#00C389"/>
<path d="M413.406 550.48L302.301 653L332.735 842.61L510.638 875.755L534.22 673.007L413.406 550.48Z" fill="#9063CD"/>
<path d="M482.215 527.84L495.655 541.518L586.23 510.198L573.734 497.492L482.215 527.84Z" fill="#2C2A29"/>
<path d="M497.235 359.824C493.023 359.829 488.884 358.722 485.236 356.615C481.589 354.508 478.562 351.477 476.461 347.826C464.149 326.458 449.461 308.146 432.797 293.41C424.455 285.988 415.374 279.443 405.694 273.878C396.383 268.526 386.458 264.323 376.135 261.361C370.022 259.633 364.846 255.548 361.746 250.004C358.646 244.46 357.875 237.911 359.602 231.799C361.33 225.686 365.416 220.51 370.96 217.41C376.504 214.31 383.052 213.539 389.165 215.266C403.221 219.279 416.737 224.985 429.416 232.26C441.953 239.455 453.715 247.922 464.516 257.527C485.074 275.709 503.051 298.027 517.976 323.909C520.072 327.549 521.175 331.677 521.172 335.877C521.17 340.078 520.064 344.204 517.964 347.842C515.864 351.48 512.844 354.503 509.208 356.606C505.572 358.709 501.446 359.819 497.246 359.824H497.235Z" fill="#F5B6CD"/>
<path d="M550.263 428.635C546.362 428.63 542.581 427.293 539.544 424.844C536.507 422.396 534.398 418.984 533.566 415.173L532.238 409.093C531.968 407.959 531.666 406.781 531.347 405.539C531.153 404.794 530.958 404.054 530.775 403.309L530.731 403.136C530.002 400.123 529.111 397.034 528.123 393.762L527.475 391.499C527.092 390.139 526.59 388.637 526.06 387.055L523.9 380.489L521.805 374.851C521.584 374.263 521.368 373.674 521.152 373.091C520.693 371.843 520.255 370.661 519.829 369.678L519.672 369.3C513.713 354.452 506.543 340.118 498.234 326.446C489.858 312.841 480.266 300.022 469.576 288.149L469.258 287.787C468.955 287.431 468.469 286.928 467.956 286.394L463.026 281.248C462.535 280.735 462.076 280.254 461.757 279.957L461.557 279.768L456.973 275.378C456.665 275.086 456.357 274.795 456.055 274.498C455.752 274.201 455.353 273.823 455.142 273.639L448.171 267.532L440.838 261.678C440.686 261.554 440.298 261.268 439.957 261.035L438.877 260.269L433.71 256.537C431.888 255.222 430.343 253.562 429.163 251.65C427.983 249.738 427.191 247.613 426.833 245.395C426.474 243.177 426.556 240.91 427.073 238.724C427.591 236.538 428.534 234.475 429.849 232.653C432.504 228.974 436.512 226.5 440.991 225.776C443.209 225.417 445.476 225.499 447.662 226.017C449.848 226.534 451.911 227.477 453.733 228.792L459.133 232.702L459.813 233.193C460.494 233.679 461.331 234.273 462.243 235.013L470.381 241.531L477.66 247.908C478.486 248.632 479.205 249.328 479.788 249.884C479.998 250.09 480.209 250.295 480.425 250.495L480.549 250.619L485.101 254.977C486.127 255.932 487.008 256.856 487.72 257.601L492.58 262.682C493.326 263.455 494.163 264.329 495.048 265.355C507.084 278.737 517.885 293.179 527.319 308.507L527.373 308.593C536.656 323.83 544.673 339.803 551.343 356.351C552.083 358.079 552.699 359.742 553.239 361.211L553.822 362.771L553.865 362.885L556.263 369.365L558.531 376.169C559.162 378.048 559.81 379.987 560.41 382.109L560.95 384.01C561.992 387.525 563.067 391.154 563.995 394.993C564.157 395.641 564.33 396.295 564.497 396.943C564.859 398.352 565.237 399.81 565.577 401.338L565.642 401.608L567.003 407.834C567.545 410.334 567.52 412.923 566.93 415.412C566.341 417.901 565.202 420.226 563.596 422.217C561.991 424.209 559.96 425.815 557.653 426.919C555.346 428.023 552.821 428.597 550.263 428.597V428.635Z" fill="#FDDA24"/>
<path d="M533.372 494.889H533.102C527.661 494.821 522.471 492.594 518.671 488.7C514.872 484.805 512.775 479.561 512.841 474.121C512.89 470.26 512.949 465.886 512.841 462.052V461.83L512.749 457.3C512.749 457.202 512.749 457.089 512.749 456.981C512.749 456.749 512.717 456.517 512.706 456.284L512.328 450.209C511.734 442.521 510.735 434.87 509.336 427.286L509.282 426.995C506.701 412.49 502.354 397.171 496.355 381.457C495.393 378.939 494.937 376.257 495.012 373.563C495.087 370.869 495.692 368.217 496.792 365.757C497.892 363.297 499.466 361.077 501.424 359.226C503.382 357.374 505.685 355.926 508.202 354.964C510.72 354.003 513.402 353.546 516.096 353.621C518.79 353.696 521.442 354.301 523.902 355.401C526.362 356.501 528.582 358.075 530.433 360.033C532.285 361.991 533.733 364.294 534.695 366.812C541.596 384.88 546.634 402.662 549.664 419.662C551.339 428.695 552.534 437.81 553.244 446.969L553.276 447.428L553.703 454.27C553.741 454.81 553.773 455.35 553.789 455.89L553.832 457.786L553.897 460.842C554.043 465.551 553.978 470.373 553.897 474.628C553.829 480.026 551.636 485.18 547.794 488.973C543.952 492.765 538.77 494.891 533.372 494.889Z" fill="#00C389"/>
<path d="M521.501 641.265C520.339 641.263 519.179 641.178 518.029 641.011C511.743 640.098 506.077 636.724 502.277 631.634C498.478 626.543 496.856 620.152 497.768 613.865C502.261 582.896 505.576 550.928 507.618 518.825C508.021 512.486 510.927 506.566 515.695 502.369C520.464 498.172 526.704 496.041 533.043 496.445C539.383 496.849 545.302 499.755 549.499 504.523C553.697 509.291 555.828 515.531 555.424 521.871C553.302 555.232 549.856 588.496 545.164 620.734C544.34 626.426 541.496 631.632 537.152 635.401C532.807 639.17 527.252 641.252 521.501 641.265Z" fill="#FF7F41"/>
<path d="M550.296 246.91C575.828 246.91 596.525 226.212 596.525 200.681C596.525 175.149 575.828 154.451 550.296 154.451C524.764 154.451 504.066 175.149 504.066 200.681C504.066 226.212 524.764 246.91 550.296 246.91Z" fill="#FDDA24"/>
<path d="M550.295 229.905C566.435 229.905 579.52 216.82 579.52 200.68C579.52 184.539 566.435 171.455 550.295 171.455C534.155 171.455 521.07 184.539 521.07 200.68C521.07 216.82 534.155 229.905 550.295 229.905Z" fill="#FF7F41"/>
<path d="M413.408 550.48L534.222 673.001L758.981 585.899L634.5 477.17L573.761 497.49L586.256 510.196L495.682 541.516L482.22 527.838L412.668 550.48" fill="#59CBE8"/>
<path d="M429.651 485.346C455.183 485.346 475.881 464.648 475.881 439.116C475.881 413.584 455.183 392.887 429.651 392.887C404.12 392.887 383.422 413.584 383.422 439.116C383.422 464.648 404.12 485.346 429.651 485.346Z" fill="#FDDA24"/>
<path d="M429.653 465.695C444.332 465.695 456.232 453.795 456.232 439.116C456.232 424.437 444.332 412.537 429.653 412.537C414.974 412.537 403.074 424.437 403.074 439.116C403.074 453.795 414.974 465.695 429.653 465.695Z" fill="#FF7F41"/>
<path d="M510.641 875.756L642.109 893.241L849.636 787.531L729.6 768.885" fill="#00C389"/>
</svg>
