<svg width="1080" height="1080" viewBox="0 0 1080 1080" fill="none" xmlns="http://www.w3.org/2000/svg">
<path d="M482.667 900.445C481.478 900.445 480.292 900.333 479.124 900.11C435.836 891.85 394.681 874.868 358.164 850.198C339.97 837.841 323.093 823.647 307.799 807.841C292.546 792.049 278.924 774.759 267.142 756.233C265.809 754.139 264.903 751.803 264.473 749.358C264.043 746.914 264.099 744.408 264.638 741.985C265.176 739.562 266.187 737.269 267.612 735.237C269.036 733.204 270.847 731.472 272.942 730.14C275.036 728.808 277.372 727.901 279.816 727.471C282.261 727.041 284.766 727.097 287.189 727.636C289.612 728.174 291.905 729.185 293.938 730.61C295.97 732.034 297.702 733.845 299.034 735.94C309.447 752.319 321.487 767.605 334.971 781.564C348.457 795.511 363.34 808.034 379.386 818.938C411.618 840.713 447.945 855.698 486.155 862.98C490.786 863.849 494.925 866.415 497.762 870.177C500.598 873.939 501.927 878.625 501.489 883.316C501.05 888.007 498.875 892.365 495.39 895.535C491.905 898.706 487.362 900.461 482.651 900.456L482.667 900.445Z" fill="#F5B6CD"/>
<path d="M769.187 404.638C766.471 404.643 763.786 404.061 761.316 402.931C758.846 401.801 756.65 400.151 754.877 398.093L751.88 394.626L746.82 389.059L742.57 384.615C741.76 383.772 740.88 382.903 739.946 381.979L738.358 380.397C732.651 374.797 726.651 369.381 720.538 364.294C708.161 354.062 694.944 344.891 681.027 336.879C624.759 304.628 559.187 292.496 495.105 302.481C479.233 304.967 463.6 308.791 448.373 313.912C441.105 316.342 433.793 319.177 425.941 322.552C418.381 325.852 411.097 329.394 404.341 333.066C399.936 335.42 394.778 335.934 389.994 334.496C385.211 333.058 381.191 329.785 378.814 325.393C376.436 321 375.894 315.845 377.306 311.054C378.718 306.263 381.969 302.225 386.349 299.824C394.06 295.65 402.316 291.632 410.881 287.895C419.758 284.045 428.096 280.827 436.407 278.046C470.974 266.42 507.266 260.759 543.732 261.306C598.556 262.092 652.279 276.819 699.84 304.101L699.889 304.128C715.658 313.212 730.635 323.607 744.66 335.205C751.626 340.993 758.43 347.139 764.899 353.484L765.045 353.635L766.541 355.12C767.621 356.162 768.701 357.237 769.781 358.403L774.582 363.43L780.311 369.738L783.465 373.383C785.831 376.122 787.361 379.483 787.873 383.067C788.384 386.651 787.856 390.306 786.35 393.598C784.845 396.89 782.425 399.681 779.38 401.638C776.334 403.595 772.791 404.636 769.171 404.638H769.187Z" fill="#FF7F41"/>
<path d="M269.081 504.852C266.934 504.852 264.818 504.341 262.909 503.36C260.999 502.379 259.351 500.956 258.101 499.211C256.852 497.465 256.036 495.447 255.723 493.323C255.409 491.199 255.607 489.032 256.299 486.999C269.436 448.536 290.265 413.149 317.519 382.995C344.859 352.95 377.962 328.71 414.859 311.715C451.797 294.747 491.831 285.556 532.471 284.715C573.102 283.872 613.485 291.246 651.196 306.396C654.491 307.756 657.115 310.363 658.495 313.649C659.875 316.936 659.9 320.635 658.563 323.939C657.226 327.244 654.637 329.885 651.36 331.288C648.083 332.69 644.384 332.74 641.071 331.425C606.765 317.651 570.031 310.945 533.071 311.71C496.125 312.468 459.731 320.819 426.151 336.242C392.549 351.709 362.401 373.775 337.499 401.129C312.732 428.558 293.808 460.742 281.879 495.72C280.966 498.388 279.241 500.704 276.946 502.341C274.651 503.979 271.9 504.857 269.081 504.852Z" fill="#FDDA24"/>
<path d="M539.184 887.824C537.204 887.824 535.224 887.806 533.244 887.77C515.457 887.397 497.736 885.48 480.281 882.041C471.592 880.329 462.882 878.218 454.361 875.766C445.98 873.347 437.48 870.469 429.089 867.223C395.841 854.379 365.128 835.753 338.369 812.208C336.503 810.571 334.978 808.583 333.881 806.356C332.783 804.13 332.135 801.709 331.974 799.232C331.812 796.755 332.14 794.271 332.938 791.921C333.737 789.57 334.99 787.4 336.627 785.535C338.264 783.669 340.253 782.144 342.479 781.047C344.706 779.949 347.126 779.301 349.603 779.14C352.08 778.978 354.564 779.306 356.915 780.104C359.265 780.903 361.435 782.156 363.301 783.793C386.746 804.425 413.661 820.738 442.799 831.977C450.149 834.823 457.59 837.34 464.902 839.451C472.348 841.611 480.022 843.452 487.614 844.948C518.257 851.017 549.727 851.656 580.591 846.838C595.977 844.436 611.12 840.678 625.843 835.606C633.457 832.982 640.752 830.114 647.497 827.085C654.576 823.915 661.607 820.394 668.417 816.614C682.057 809.028 695.013 800.272 707.14 790.446C709.072 788.886 711.292 787.722 713.673 787.019C716.055 786.317 718.552 786.091 721.021 786.354C723.49 786.617 725.883 787.363 728.064 788.551C730.244 789.739 732.17 791.344 733.73 793.276C735.29 795.207 736.454 797.427 737.156 799.809C737.858 802.191 738.085 804.687 737.822 807.156C737.559 809.626 736.813 812.019 735.625 814.199C734.437 816.38 732.832 818.305 730.9 819.865C717.076 831.059 702.308 841.032 686.76 849.673C679.039 853.993 671.03 857.973 663.001 861.553C655.241 865.036 646.882 868.325 638.16 871.327C621.319 877.124 603.999 881.421 586.402 884.168C570.779 886.595 554.994 887.817 539.184 887.824Z" fill="#00C389"/>
<path d="M242.549 536.446C240.112 536.448 237.706 535.901 235.509 534.844C233.313 533.788 231.383 532.249 229.864 530.343C228.345 528.438 227.275 526.214 226.735 523.837C226.195 521.46 226.198 518.992 226.744 516.617C226.956 515.699 227.161 514.785 227.359 513.874C227.775 512.016 228.202 510.094 228.693 508.123V508.031C228.893 507.248 229.087 506.46 229.282 505.671C229.773 503.7 230.275 501.659 230.902 499.531C233.999 488.168 237.709 476.981 242.015 466.019C246.369 455.016 251.324 444.261 256.859 433.803C262.394 423.326 268.513 413.169 275.187 403.379C281.867 393.62 289.078 384.235 296.787 375.267C299.601 372.053 303.57 370.08 307.831 369.779C312.092 369.477 316.299 370.87 319.538 373.656C322.777 376.441 324.784 380.392 325.124 384.65C325.464 388.908 324.108 393.128 321.352 396.391C314.414 404.457 307.924 412.897 301.912 421.674C295.926 430.45 290.439 439.556 285.479 448.95C280.51 458.347 276.063 468.012 272.158 477.899C268.274 487.791 264.929 497.886 262.135 508.139L262.076 508.355C261.617 509.975 261.196 511.654 260.747 513.463C260.542 514.306 260.332 515.148 260.116 515.991C259.727 517.551 259.365 519.177 258.987 520.899C258.764 521.889 258.541 522.879 258.317 523.869C257.498 527.439 255.493 530.627 252.629 532.911C249.766 535.195 246.213 536.441 242.549 536.446Z" fill="#9063CD"/>
<path d="M614.571 890.925C611.283 890.924 608.108 889.723 605.642 887.548C603.177 885.373 601.59 882.372 601.18 879.11C600.769 875.847 601.564 872.547 603.414 869.829C605.264 867.111 608.043 865.161 611.228 864.346C640.918 856.729 669.203 844.429 695.02 827.907C701.905 823.474 708.077 819.186 713.85 814.823C719.995 810.157 725.984 805.265 731.621 800.302C737.335 795.21 742.907 789.859 748.194 784.399C753.2 779.226 758.184 773.599 763.427 767.26C782.865 743.604 798.387 716.987 809.403 688.42L810.17 686.411C810.618 685.25 811.039 684.154 811.417 683.095L813.502 677.155C814.7 673.548 815.829 670.135 816.828 666.706V666.641C819.096 658.995 821.018 651.521 822.536 644.42C825.737 629.462 827.761 614.276 828.589 599.001C828.665 597.219 829.093 595.469 829.848 593.853C830.604 592.237 831.672 590.787 832.992 589.587C834.311 588.386 835.856 587.459 837.536 586.859C839.215 586.259 840.998 585.998 842.779 586.091C844.561 586.183 846.306 586.628 847.914 587.4C849.523 588.171 850.963 589.253 852.15 590.584C853.338 591.915 854.25 593.469 854.834 595.154C855.417 596.84 855.661 598.625 855.551 600.405C854.65 617.1 852.44 633.698 848.942 650.047C847.279 657.829 845.162 665.983 842.721 674.293C841.587 678.187 840.329 681.983 839.108 685.633L838.849 686.416L836.84 692.075C836.349 693.469 835.841 694.775 835.35 696.066C835.105 696.689 834.868 697.31 834.637 697.929L834.599 698.026C822.539 729.307 805.544 758.453 784.261 784.356C778.537 791.3 773.083 797.429 767.575 803.126C761.818 809.066 755.749 814.893 749.533 820.433L749.474 820.487C743.334 825.887 736.827 831.206 730.131 836.293C723.791 841.083 717.074 845.754 709.579 850.582C681.336 868.656 650.393 882.113 617.914 890.444C616.824 890.743 615.701 890.904 614.571 890.925Z" fill="#59CBE8"/>
<path d="M698.535 661.793H314.168C308.797 661.793 303.647 659.66 299.849 655.862C296.051 652.064 293.918 646.914 293.918 641.543C293.918 636.172 296.051 631.022 299.849 627.224C303.647 623.426 308.797 621.293 314.168 621.293H698.535C703.905 621.293 709.056 623.426 712.854 627.224C716.651 631.022 718.785 636.172 718.785 641.543C718.785 646.914 716.651 652.064 712.854 655.862C709.056 659.66 703.905 661.793 698.535 661.793Z" fill="#59CBE8"/>
<path d="M698.522 652.595C696.436 652.596 694.393 652.004 692.631 650.888C682.225 644.311 672.111 630.735 661.44 616.361C652.854 604.805 643.118 591.71 636.19 587.33L589.75 599.815C583.205 601.575 574.241 603.984 564.996 601.802C559.475 600.482 554.509 597.459 550.8 593.162C546.361 588.021 544.465 581.768 545.454 575.553C526.23 582.81 507.686 592.115 489.569 601.203C452.412 619.849 413.969 639.132 368.534 642.173C360.739 642.727 352.905 642.137 345.281 640.423C335.869 638.198 328.401 634.218 323.076 628.592C316.278 621.415 313.383 611.922 314.701 601.143C315.862 591.666 320.306 583.637 323.881 577.184C342.057 544.319 381.24 509.916 431.395 482.856C455.727 469.724 481.907 458.875 507.103 451.493C534.53 443.453 560.563 439.403 584.496 439.484C590.571 439.484 603.218 439.543 611.777 448.448C616.637 453.507 618.716 459.885 617.641 466.408C614.849 483.321 591.429 496.756 569.694 508.02C567.761 509.025 566.087 509.889 565.115 510.44C517.093 537.477 464.205 562.101 398.666 587.93C397.307 588.503 395.848 588.799 394.374 588.801C392.9 588.802 391.44 588.508 390.081 587.937C388.722 587.365 387.491 586.528 386.46 585.474C385.43 584.42 384.62 583.17 384.08 581.798C383.54 580.426 383.279 578.96 383.314 577.487C383.349 576.013 383.678 574.561 384.282 573.216C384.887 571.871 385.754 570.661 386.833 569.656C387.912 568.652 389.181 567.873 390.566 567.366C455.139 541.922 507.162 517.686 554.272 491.178C555.584 490.443 557.323 489.558 559.532 488.397C565.698 485.195 575.024 480.362 583.054 474.897C592.039 468.768 594.75 464.972 595.539 463.497C593.179 461.629 586.899 461.607 584.431 461.602C542.019 461.472 490.088 476.312 441.903 502.318C396.068 527.055 359.175 559.05 343.208 587.913C340.427 592.941 337.268 598.643 336.636 603.86C335.961 609.373 337.716 611.96 339.12 613.428C343.694 618.288 354.92 620.988 367.054 620.151C408.056 617.408 442.832 599.955 479.655 581.482C506.687 567.917 534.643 553.888 565.45 546.047C567.068 545.636 568.759 545.597 570.395 545.932C572.03 546.268 573.569 546.97 574.894 547.985C576.22 549.001 577.298 550.303 578.048 551.795C578.799 553.287 579.201 554.929 579.225 556.599C579.35 565.174 574.047 571.076 570.537 574.959C569.428 576.125 568.404 577.371 567.475 578.685C568.159 579.464 569.063 580.019 570.067 580.278C573.885 581.18 579.247 579.738 584.01 578.458L630.72 565.919C633.326 565.112 636.063 564.815 638.782 565.044C643.01 565.503 646.131 567.474 648 568.657C658.405 575.229 668.52 588.804 679.185 603.185C687.776 614.735 697.512 627.836 704.44 632.21C706.467 633.491 708.022 635.397 708.87 637.64C709.719 639.883 709.815 642.34 709.145 644.643C708.474 646.945 707.073 648.966 705.153 650.403C703.233 651.839 700.898 652.612 698.5 652.605L698.522 652.595Z" fill="#2C2A29"/>
<path d="M781.084 588.902L722.315 597.11C721.014 597.291 719.688 597.168 718.442 596.75C717.196 596.332 716.064 595.631 715.135 594.701C714.206 593.772 713.505 592.639 713.088 591.393C712.671 590.147 712.548 588.821 712.73 587.519L720.938 528.751C721.647 523.68 723.988 518.977 727.607 515.354L849.388 393.578C853.779 389.187 858.992 385.703 864.729 383.327C870.466 380.95 876.615 379.727 882.825 379.727C889.035 379.727 895.184 380.95 900.921 383.327C906.658 385.703 911.871 389.187 916.262 393.578C920.653 397.969 924.137 403.182 926.514 408.919C928.89 414.656 930.114 420.805 930.114 427.015C930.114 433.225 928.89 439.374 926.514 445.111C924.137 450.848 920.653 456.061 916.262 460.452L794.486 582.227C790.864 585.851 786.158 588.194 781.084 588.902Z" fill="#00C389"/>
<path d="M716.095 563.441L712.731 587.52C712.548 588.821 712.67 590.147 713.088 591.393C713.505 592.639 714.206 593.772 715.135 594.701C716.064 595.63 717.196 596.331 718.442 596.748C719.688 597.165 721.014 597.287 722.316 597.105L746.394 593.746L716.095 563.441Z" fill="#2C2A29"/>
<path d="M858.514 388.369L858.369 388.224C852.593 382.448 843.228 382.448 837.452 388.224L772.7 452.976C766.923 458.752 766.923 468.117 772.699 473.893L772.845 474.038C778.621 479.814 787.986 479.814 793.762 474.038L858.514 409.286C864.29 403.51 864.29 394.145 858.514 388.369Z" fill="#9063CD"/>
<path d="M916.261 393.58L791.16 518.682C786.805 523.035 783.352 528.204 780.995 533.892C778.639 539.581 777.426 545.678 777.426 551.835C777.426 557.992 778.639 564.089 780.995 569.778C783.352 575.466 786.805 580.635 791.16 584.988C792.35 584.171 793.463 583.248 794.486 582.229L916.261 460.454C920.653 456.063 924.136 450.85 926.513 445.113C928.89 439.376 930.113 433.227 930.113 427.017C930.113 420.807 928.89 414.658 926.513 408.921C924.136 403.184 920.653 397.971 916.261 393.58Z" fill="#FF7F41"/>
</svg>
