<svg width="1080" height="1080" viewBox="0 0 1080 1080" fill="none" xmlns="http://www.w3.org/2000/svg">
<path d="M873.4 712.707H222.5V307.807C222.5 299.707 229 293.207 237.1 293.207H858.8C866.9 293.207 873.4 299.707 873.4 307.807V712.707Z" fill="#9063CD"/>
<path d="M952 752.607H144L222.5 712.707H873.4L952 752.607Z" fill="#59CBE8"/>
<path d="M940.8 789.408H155.2C149 789.408 144 784.408 144 778.208V752.508H952V778.208C952 784.408 947 789.408 940.8 789.408Z" fill="#9063CD"/>
<path d="M841.802 330.605H254.102V689.105H841.802V330.605Z" fill="white"/>
<path d="M254.1 460.009C322.915 460.009 378.7 404.223 378.7 335.409C378.7 266.594 322.915 210.809 254.1 210.809C185.285 210.809 129.5 266.594 129.5 335.409C129.5 404.223 185.285 460.009 254.1 460.009Z" fill="#FDDA24"/>
<path d="M254.1 460.507C185.1 460.507 129 404.407 129 335.407C129 266.407 185.1 210.207 254.1 210.207C323.1 210.207 379.2 266.307 379.2 335.307C379.2 404.307 323.1 460.507 254.1 460.507ZM254.1 211.207C185.7 211.207 130 266.907 130 335.407C130 403.907 185.7 459.507 254.1 459.507C322.5 459.507 378.2 403.807 378.2 335.407C378.2 267.007 322.6 211.207 254.1 211.207Z" fill="#FDDA24"/>
<path d="M254.101 407.205C293.755 407.205 325.901 375.06 325.901 335.405C325.901 295.751 293.755 263.605 254.101 263.605C214.447 263.605 182.301 295.751 182.301 335.405C182.301 375.06 214.447 407.205 254.101 407.205Z" fill="#FF7F41"/>
<path d="M586.901 759.106C655.715 759.106 711.501 703.321 711.501 634.506C711.501 565.692 655.715 509.906 586.901 509.906C518.086 509.906 462.301 565.692 462.301 634.506C462.301 703.321 518.086 759.106 586.901 759.106Z" fill="#FDDA24"/>
<path d="M586.901 759.606C517.901 759.606 461.801 703.506 461.801 634.506C461.801 565.506 517.901 509.406 586.901 509.406C655.901 509.406 712.001 565.506 712.001 634.506C712.001 703.506 655.901 759.606 586.901 759.606ZM586.901 510.306C518.501 510.306 462.801 566.006 462.801 634.406C462.801 702.806 518.501 758.506 586.901 758.506C655.301 758.506 711.001 702.906 711.001 634.506C711.001 566.106 655.401 510.306 586.901 510.306Z" fill="#FDDA24"/>
<path d="M586.902 706.307C626.556 706.307 658.702 674.161 658.702 634.507C658.702 594.853 626.556 562.707 586.902 562.707C547.248 562.707 515.102 594.853 515.102 634.507C515.102 674.161 547.248 706.307 586.902 706.307Z" fill="#FF7F41"/>
<path d="M217.302 583.006C206.302 583.006 197.402 574.106 197.302 563.106C197.202 552.106 206.102 543.106 217.202 543.006C260.602 542.806 304.102 525.606 339.902 494.706C348.302 487.506 360.902 488.406 368.102 496.806C375.302 505.206 374.402 517.806 366.002 525.006C323.002 562.106 270.302 582.706 217.402 583.006C217.402 583.006 217.402 583.006 217.302 583.006Z" fill="#F5B6CD"/>
<path d="M232.1 604.405C222 604.405 213.3 596.805 212.2 586.505C211.1 575.505 219 565.705 230 564.505C279.9 559.305 343.2 517.205 343.8 516.805C353 510.605 365.4 513.105 371.5 522.305C377.7 531.505 375.2 543.905 366.1 550.005C363.2 552.005 294 598.105 234.1 604.305C233.5 604.405 232.8 604.405 232.1 604.405Z" fill="#00C389"/>
<path d="M777.201 753.106C774.501 753.106 771.801 752.506 769.201 751.206C760.301 746.806 756.601 736.006 761.001 727.106C782.101 684.406 789.601 643.106 783.401 604.506C778.601 575.006 765.901 546.906 745.501 520.906C739.401 513.106 740.701 501.806 748.501 495.606C756.301 489.506 767.601 490.806 773.801 498.606C798.001 529.406 813.101 563.006 818.901 598.606C826.401 644.806 817.801 693.306 793.301 742.906C790.201 749.406 783.801 753.106 777.201 753.106Z" fill="#59CBE8"/>
<path d="M756.303 736.506C754.203 736.506 752.203 735.906 750.303 734.806C744.903 731.506 743.203 724.406 746.603 719.006C776.303 670.906 769.403 624.806 769.403 624.406C768.403 618.106 772.703 612.206 778.903 611.206C785.203 610.206 791.003 614.406 792.103 620.706C792.503 622.906 800.603 675.406 766.203 731.106C764.003 734.506 760.203 736.506 756.303 736.506Z" fill="#9063CD"/>
<path d="M399.2 475.107C395.7 475.107 392.1 474.207 388.8 472.207C379.4 466.507 376.3 454.207 382.1 444.707C406.2 405.007 417.5 358.007 413.9 312.307C412.7 297.107 409.9 281.807 405.4 267.007C402.2 256.407 408.3 245.307 418.8 242.107C429.4 238.907 440.5 245.007 443.7 255.507C449 273.107 452.3 291.207 453.7 309.207C457.9 363.207 444.6 418.607 416.2 465.407C412.5 471.607 405.9 475.107 399.2 475.107Z" fill="#F5B6CD"/>
<path d="M396.099 219.205C389.499 219.205 383.099 215.905 379.199 210.005C369.199 194.305 357.299 180.105 343.999 167.705C335.899 160.205 335.399 147.505 342.999 139.405C350.499 131.305 363.199 130.805 371.299 138.405C387.099 153.105 401.199 169.905 412.999 188.505C418.999 197.805 416.199 210.205 406.899 216.105C403.599 218.205 399.799 219.205 396.099 219.205Z" fill="#F5B6CD"/>
<path d="M448.098 418.306C445.798 418.306 443.398 417.906 441.098 417.006C430.698 413.106 425.498 401.606 429.298 391.306C448.598 339.506 446.398 286.006 422.798 232.306C404.998 191.806 381.698 167.006 381.498 166.806C373.898 158.806 374.198 146.106 382.198 138.506C390.198 130.906 402.898 131.206 410.498 139.206C411.598 140.406 438.898 169.306 459.498 216.206C486.998 278.906 489.498 344.206 466.798 405.206C463.898 413.306 456.198 418.306 448.098 418.306Z" fill="#00C389"/>
<path d="M713.5 485.107C709.6 485.107 705.7 483.807 702.4 481.307C693.4 474.307 687.3 470.607 687.3 470.607C678.8 465.507 676 454.507 681.1 445.907C686.2 437.407 697.2 434.607 705.7 439.607C706.5 440.107 713.9 444.507 724.6 452.907C732.4 459.007 733.8 470.307 727.7 478.207C724.1 482.707 718.8 485.107 713.5 485.107Z" fill="#59CBE8"/>
<path d="M751.001 545.804C747.001 545.804 743.101 543.704 741.001 540.004C719.701 502.404 675.401 477.404 674.901 477.104C669.401 474.004 667.401 467.004 670.401 461.504C673.501 456.004 680.501 453.904 686.001 457.004C688.001 458.104 736.401 485.304 760.901 528.604C764.001 534.104 762.101 541.104 756.601 544.304C754.801 545.404 752.901 545.804 751.001 545.804Z" fill="#9063CD"/>
</svg>
