<svg width="1080" height="1080" viewBox="0 0 1080 1080" fill="none" xmlns="http://www.w3.org/2000/svg">
<path d="M212.412 664.26C211.512 664.26 210.512 664.16 209.512 663.86C192.512 659.26 174.912 645.86 174.112 645.36C169.312 641.66 168.412 634.76 172.112 629.96C175.812 625.16 182.712 624.26 187.512 627.96C187.812 628.16 202.512 639.36 215.212 642.76C221.112 644.36 224.512 650.36 223.012 656.26C221.712 661.06 217.312 664.26 212.412 664.26Z" fill="#59CBE8"/>
<path d="M217.516 701.664C215.416 701.664 213.316 701.364 211.216 700.764C210.316 700.464 190.116 694.364 169.116 682.064C138.116 663.964 120.016 640.964 116.916 615.564C115.416 603.464 124.016 592.564 136.016 591.064C148.116 589.564 159.016 598.164 160.516 610.164C163.316 633.064 204.416 652.664 223.816 658.564C235.416 662.064 242.016 674.364 238.516 685.964C235.716 695.564 227.016 701.664 217.516 701.664Z" fill="#9063CD"/>
<path d="M506.217 877.67L224.917 851.37C197.017 848.77 176.517 824.07 179.117 796.17L240.717 136.87C243.317 108.97 268.017 88.47 295.917 91.07L577.217 117.37C605.117 119.97 625.617 144.67 623.017 172.57L561.417 831.87C558.817 859.77 534.117 880.27 506.217 877.67Z" fill="#59CBE8"/>
<path d="M370.119 839.269C383.318 839.269 394.019 828.568 394.019 815.369C394.019 802.169 383.318 791.469 370.119 791.469C356.919 791.469 346.219 802.169 346.219 815.369C346.219 828.568 356.919 839.269 370.119 839.269Z" fill="white"/>
<path d="M594.126 195.731L264.848 164.965L210.023 751.731L539.301 782.497L594.126 195.731Z" fill="#DFDFDF"/>
<path d="M436.514 412.672C436.414 412.672 436.214 412.672 436.114 412.672C425.314 411.672 415.614 406.472 408.614 398.172C401.714 389.872 398.414 379.272 399.414 368.472L401.114 350.572C401.314 348.072 403.514 346.272 406.014 346.472C408.514 346.672 410.314 348.872 410.114 351.372L408.414 369.272C407.614 377.672 410.114 385.872 415.514 392.372C420.914 398.872 428.514 402.872 436.914 403.672C439.414 403.872 441.214 406.072 441.014 408.572C440.714 410.972 438.814 412.672 436.514 412.672Z" fill="white"/>
<path d="M461.116 309.474C459.816 309.474 458.516 308.874 457.616 307.874C446.116 293.974 429.816 285.374 411.816 283.674C393.816 281.974 376.316 287.374 362.416 298.974C360.516 300.574 357.616 300.274 356.116 298.374C354.516 296.474 354.816 293.574 356.716 292.074C372.516 278.974 392.416 272.874 412.716 274.774C433.116 276.674 451.516 286.374 464.616 302.174C466.216 304.074 465.916 306.974 464.016 308.474C463.216 309.174 462.116 309.474 461.116 309.474Z" fill="white"/>
<path d="M367.214 379.073C367.114 379.073 366.914 379.073 366.814 379.073C364.314 378.873 362.514 376.673 362.714 374.173L365.214 347.273C367.314 324.973 387.114 308.573 409.414 310.673C420.214 311.673 429.914 316.873 436.914 325.173C443.814 333.473 447.114 344.073 446.114 354.873L444.414 372.773C444.214 375.273 442.014 377.073 439.514 376.873C437.014 376.673 435.214 374.473 435.414 371.973L437.114 354.073C437.914 345.673 435.414 337.473 430.014 330.973C424.614 324.473 417.014 320.473 408.614 319.673C391.314 318.073 375.914 330.873 374.314 348.173L371.814 375.073C371.514 377.273 369.514 379.073 367.214 379.073Z" fill="white"/>
<path d="M346.718 404.271C346.618 404.271 346.418 404.271 346.318 404.271C343.818 404.071 342.018 401.871 342.218 399.371L347.218 345.571C349.518 320.871 367.218 300.271 391.218 294.171C393.618 293.571 396.118 295.071 396.718 297.471C397.318 299.871 395.818 302.371 393.418 302.971C373.118 308.071 358.118 325.571 356.118 346.471L351.118 400.271C351.018 402.571 349.018 404.271 346.718 404.271Z" fill="white"/>
<path d="M459.517 360.575C459.417 360.575 459.217 360.575 459.117 360.575C456.617 360.375 454.817 358.175 455.017 355.675C456.217 342.475 452.317 329.575 443.817 319.375C435.317 309.175 423.417 302.875 410.217 301.675C407.717 301.475 405.917 299.275 406.117 296.775C406.317 294.275 408.517 292.475 411.017 292.675C426.617 294.175 440.717 301.575 450.717 313.575C460.717 325.575 465.417 340.875 463.917 356.375C463.717 358.775 461.817 360.575 459.517 360.575Z" fill="white"/>
<path d="M439.916 394.877C439.216 394.877 438.516 394.877 437.816 394.777C425.416 393.577 416.316 382.577 417.516 370.277L419.216 352.377C419.916 344.977 414.416 338.377 407.016 337.677C403.416 337.377 399.916 338.377 397.116 340.777C394.316 343.077 392.616 346.377 392.316 349.977C392.116 352.477 389.916 354.277 387.416 354.077C384.916 353.877 383.116 351.677 383.316 349.177C383.916 343.177 386.716 337.777 391.416 333.877C396.016 330.077 401.916 328.277 407.916 328.777C420.316 329.977 429.416 340.977 428.216 353.277L426.516 371.177C425.816 378.577 431.316 385.177 438.716 385.877C446.116 386.577 452.716 381.077 453.416 373.677C453.616 371.177 455.816 369.377 458.316 369.577C460.816 369.777 462.616 371.977 462.416 374.477C461.216 386.077 451.316 394.777 439.916 394.877Z" fill="white"/>
<path d="M382.613 407.673C382.513 407.673 382.313 407.673 382.213 407.673C379.713 407.473 377.913 405.273 378.113 402.773L381.513 366.873C381.713 364.373 383.913 362.573 386.413 362.773C388.913 362.973 390.713 365.173 390.513 367.673L387.113 403.573C386.913 405.873 384.913 407.673 382.613 407.673Z" fill="white"/>
<path d="M330.718 285.174C330.618 285.174 330.418 285.174 330.318 285.174C327.818 284.974 326.018 282.774 326.218 280.274L327.518 266.773C328.418 256.873 337.218 249.573 347.118 250.473L360.618 251.773C363.118 251.973 364.918 254.173 364.718 256.673C364.518 259.173 362.318 260.973 359.818 260.773L346.318 259.473C341.318 258.973 336.918 262.673 336.518 267.573L335.218 281.074C335.018 283.374 333.018 285.174 330.718 285.174Z" fill="white"/>
<path d="M492.321 300.171C492.221 300.171 492.021 300.171 491.921 300.171C489.421 299.971 487.621 297.771 487.821 295.271L489.121 281.771C489.621 276.871 485.921 272.371 481.021 271.971L467.521 270.671C465.021 270.471 463.221 268.271 463.421 265.771C463.621 263.271 465.821 261.471 468.321 261.671L481.821 262.971C491.721 263.871 499.021 272.671 498.121 282.571L496.821 296.071C496.521 298.471 494.621 300.171 492.321 300.171Z" fill="white"/>
<path d="M466.62 442.573C466.02 442.573 465.52 442.573 464.92 442.473L451.42 441.173C448.92 440.973 447.12 438.773 447.32 436.273C447.52 433.773 449.72 431.973 452.22 432.173L465.72 433.473C470.62 433.973 475.12 430.273 475.52 425.373L476.82 411.873C477.02 409.373 479.22 407.573 481.72 407.773C484.22 407.973 486.02 410.173 485.82 412.673L484.52 426.173C483.72 435.573 475.82 442.573 466.62 442.573Z" fill="white"/>
<path d="M344.217 431.269C344.117 431.269 343.917 431.269 343.817 431.269L330.316 429.969C320.416 429.069 313.116 420.269 314.016 410.369L315.316 396.869C315.516 394.369 317.716 392.569 320.216 392.769C322.716 392.969 324.516 395.169 324.316 397.669L323.016 411.169C322.516 416.069 326.216 420.569 331.116 420.969L344.617 422.269C347.117 422.469 348.917 424.669 348.717 427.169C348.517 429.469 346.517 431.269 344.217 431.269Z" fill="white"/>
<path d="M364.714 405.972C364.614 405.972 364.414 405.972 364.314 405.972C361.814 405.772 360.014 403.572 360.214 401.072L361.014 392.072C361.214 389.572 363.414 387.772 365.914 387.972C368.414 388.172 370.214 390.372 370.014 392.872L369.214 401.872C369.014 404.272 367.014 405.972 364.714 405.972Z" fill="white"/>
<path d="M544.122 731.094L214.844 700.328L210.034 751.806L539.312 782.572L544.122 731.094Z" fill="#FDDA24"/>
<path d="M539.719 782.973H539.219L209.52 752.173V751.673L214.42 699.773H214.92L544.619 730.573V731.073L539.719 782.973ZM210.52 751.273L538.719 781.973L543.419 731.473L215.32 700.773L210.52 751.273Z" fill="#FDDA24"/>
<path d="M353.418 635.268L424.418 641.868C434.118 642.768 441.218 651.368 440.318 661.068C439.418 670.768 430.818 677.868 421.118 676.968L350.118 670.368C340.418 669.468 333.318 660.868 334.218 651.168C335.218 641.468 343.718 634.368 353.418 635.268Z" fill="#2C2A29"/>
<path d="M351.816 665.069C358.609 665.069 364.116 659.562 364.116 652.769C364.116 645.976 358.609 640.469 351.816 640.469C345.023 640.469 339.516 645.976 339.516 652.769C339.516 659.562 345.023 665.069 351.816 665.069Z" fill="white"/>
<path d="M502.271 878.425L221.069 850.361C193.164 847.54 172.867 822.759 175.593 794.884L241.319 135.945C244.14 108.041 268.921 87.7435 296.796 90.4691L577.998 118.533C605.903 121.354 626.2 146.135 623.475 174.01L557.749 832.949C555.023 860.824 530.146 881.151 502.271 878.425Z" fill="#59CBE8"/>
<path d="M373.725 838.061C386.327 834.132 393.357 820.732 389.427 808.13C385.498 795.529 372.097 788.499 359.496 792.428C346.895 796.358 339.865 809.758 343.794 822.359C347.724 834.961 361.124 841.991 373.725 838.061Z" fill="white"/>
<path d="M594.399 196.99L265.34 164.188L206.886 750.563L535.945 783.366L594.399 196.99Z" fill="white"/>
<path d="M541.067 731.912L212.008 699.109L206.88 750.553L535.938 783.356L541.067 731.912Z" fill="#FDDA24"/>
<path d="M536.375 783.886L206.336 751.043L211.565 698.61L541.633 731.548L536.375 783.886ZM207.428 750.179L535.445 782.919L540.475 732.537L212.429 699.702L207.428 750.179Z" fill="#FDDA24"/>
<path d="M505.124 459.823C504.199 460.111 503.21 460.194 502.189 460.174L449.143 454.953C445.066 454.533 442.005 450.864 442.425 446.787C442.845 442.709 446.513 439.648 450.591 440.068L496.194 444.566L500.692 398.963C501.112 394.885 504.781 391.824 508.858 392.244C512.936 392.664 515.996 396.333 515.576 400.41L510.355 453.456C510.18 455.427 509.158 457.212 507.635 458.476C506.941 459.143 506.049 459.535 505.124 459.823Z" fill="#00C389"/>
<path d="M326.873 301.507C325.948 301.795 324.959 301.878 323.906 301.755C319.828 301.335 316.767 297.667 317.187 293.589L322.409 240.544C322.829 236.466 326.498 233.405 330.575 233.825L383.518 239.079C387.595 239.499 390.656 243.168 390.236 247.245C389.816 251.322 386.148 254.383 382.07 253.963L336.467 249.466L331.969 295.069C331.736 298.299 329.647 300.642 326.873 301.507Z" fill="#FDDA24"/>
<path d="M365.969 446.049C365.044 446.337 364.055 446.42 363.002 446.297L310.059 441.044C308.088 440.869 306.303 439.847 305.039 438.324C303.775 436.801 303.166 434.849 303.341 432.878L308.562 379.832C308.982 375.754 312.651 372.694 316.728 373.114C320.806 373.534 323.867 377.202 323.447 381.28L318.949 426.883L364.552 431.381C368.63 431.801 371.691 435.469 371.271 439.547C370.903 442.706 368.744 445.183 365.969 446.049Z" fill="#59CBE8"/>
<path d="M519.034 320.745C518.109 321.033 517.12 321.116 516.067 320.993C511.989 320.574 508.929 316.905 509.348 312.827L513.846 267.224L468.243 262.726C464.165 262.306 461.105 258.638 461.524 254.56C461.944 250.483 465.613 247.422 469.691 247.842L522.736 253.064C526.814 253.483 529.874 257.152 529.454 261.23L524.233 314.275C523.968 317.402 521.808 319.88 519.034 320.745Z" fill="#F5B6CD"/>
<path d="M461.045 340.178C460.12 340.466 459.131 340.549 458.078 340.426C454 340.006 450.939 336.338 451.359 332.26L453.822 307.25C454.241 303.172 457.91 300.111 461.988 300.531C466.065 300.951 469.126 304.62 468.706 308.697L466.244 333.708C465.876 336.867 463.819 339.312 461.045 340.178Z" fill="#59CBE8"/>
<path d="M377.353 331.767C376.428 332.056 375.439 332.139 374.386 332.016C370.309 331.596 367.248 327.927 367.668 323.85L370.13 298.84C370.55 294.762 374.219 291.701 378.296 292.121C382.373 292.541 385.434 296.21 385.014 300.287L382.552 325.298C382.319 328.528 380.128 330.902 377.353 331.767Z" fill="#00C389"/>
<path d="M430.984 410.1C424.202 412.215 415.801 413.481 406.228 412.069C389.559 409.599 378.609 400.159 373.674 394.819C370.838 391.87 371.033 387.073 374.015 384.34C376.964 381.503 381.761 381.699 384.495 384.68C388.197 388.599 396.201 395.463 408.42 397.403C423.188 399.564 434.347 393.04 438.491 390.056C441.806 387.669 446.454 388.475 448.841 391.79C451.228 395.105 450.422 399.754 447.107 402.141C444.171 404.296 438.589 407.729 430.984 410.1Z" fill="#FF7F41"/>
<path d="M421.928 374.92C421.003 375.209 420.014 375.292 418.961 375.169L405.335 373.78C403.127 373.567 401.175 372.371 399.95 370.611C398.724 368.85 398.36 366.596 398.843 364.529L410.841 318.391C411.871 314.461 415.969 312.056 419.899 313.085C423.828 314.115 426.234 318.214 425.204 322.143L415.31 359.845L420.203 360.349C424.281 360.769 427.342 364.437 426.922 368.515C426.759 371.61 424.703 374.055 421.928 374.92Z" fill="#9063CD"/>
<path d="M587.491 986.5L345.691 840.4C321.691 825.9 313.991 794.7 328.491 770.7L670.991 204C685.491 180 716.691 172.3 740.691 186.8L982.491 333C1006.49 347.5 1014.19 378.7 999.691 402.7L657.191 969.4C642.691 993.3 611.491 1001 587.491 986.5Z" fill="#00C389"/>
<path d="M492.193 895.105C505.393 895.105 516.093 884.404 516.093 871.205C516.093 858.005 505.393 847.305 492.193 847.305C478.993 847.305 468.293 858.005 468.293 871.205C468.293 884.404 478.993 895.105 492.193 895.105Z" fill="white"/>
<path d="M963.548 410.911L680.535 239.84L375.69 744.163L658.703 915.234L963.548 410.911Z" fill="white"/>
<path d="M685.458 871.063L402.445 699.992L375.701 744.237L658.714 915.308L685.458 871.063Z" fill="#FDDA24"/>
<path d="M658.89 915.895L658.49 915.595L375.09 744.295L402.29 699.195L402.69 699.495L686.19 870.795L658.89 915.895ZM376.49 743.995L658.59 914.495L684.79 871.095L402.69 700.595L376.49 743.995Z" fill="#FDDA24"/>
<path d="M577.609 777.968C573.009 777.968 568.709 775.068 567.209 770.468C556.309 737.968 535.309 703.068 535.009 702.668C531.909 697.468 533.509 690.668 538.709 687.568C543.909 684.468 550.709 686.068 553.809 691.268C554.709 692.768 576.309 728.568 588.009 763.468C589.909 769.268 586.809 775.468 581.109 777.368C579.909 777.768 578.709 777.968 577.609 777.968Z" fill="#59CBE8"/>
<path d="M228.814 546.565C228.814 546.565 228.714 546.565 228.414 546.665C217.714 549.565 206.614 544.065 202.414 533.865C197.314 521.365 204.514 507.365 217.614 504.265C240.414 498.865 274.414 494.665 335.114 499.865C347.214 500.865 356.214 511.565 355.114 523.665C354.114 535.765 343.414 544.765 331.314 543.665C271.114 538.465 237.914 543.265 228.814 546.565Z" fill="#9063CD"/>
<path d="M381.909 570.762C380.609 570.762 379.209 570.562 377.909 569.962C330.909 551.462 273.109 557.962 272.509 557.962C266.509 558.662 261.009 554.362 260.309 548.362C259.609 542.362 263.909 536.862 269.909 536.162C272.509 535.862 333.709 528.862 385.909 549.562C391.509 551.762 394.309 558.162 392.109 563.862C390.409 568.062 386.309 570.762 381.909 570.762Z" fill="#59CBE8"/>
<path d="M606.214 792.462C600.014 792.462 594.114 788.862 591.514 782.762C579.114 753.962 566.214 724.062 549.614 697.462C522.914 654.462 485.514 618.162 441.414 592.462C433.814 588.062 431.214 578.262 435.614 570.562C440.114 562.962 449.814 560.362 457.514 564.762C506.114 593.062 547.414 633.062 576.814 680.462C594.614 709.162 608.014 740.062 620.914 769.962C624.414 778.062 620.714 787.462 612.514 790.962C610.514 792.062 608.314 792.462 606.214 792.462Z" fill="#F5B6CD"/>
<path d="M165.319 640.065C161.319 640.065 157.319 638.565 154.219 635.565C151.219 632.665 148.619 629.465 146.419 626.065C130.519 601.065 141.119 569.265 159.119 551.965C177.319 534.465 201.819 528.065 221.119 524.365C240.419 520.665 260.319 518.765 280.219 518.465C280.319 518.465 280.319 518.465 280.419 518.465C289.119 518.465 296.319 525.465 296.419 534.265C296.519 543.065 289.419 550.365 280.619 550.465C262.619 550.665 244.619 552.465 227.119 555.765C212.219 558.565 193.519 563.365 181.419 574.965C172.619 583.365 167.119 598.765 173.619 608.865C174.419 610.165 175.419 611.365 176.619 612.465C183.019 618.565 183.219 628.765 177.019 635.065C173.719 638.465 169.519 640.065 165.319 640.065Z" fill="#F5B6CD"/>
<path d="M588.414 718.964C579.914 718.964 571.714 713.964 568.214 705.664C551.914 667.664 512.013 624.264 511.613 623.764C503.413 614.864 503.914 600.964 512.814 592.664C521.714 584.464 535.614 584.964 543.914 593.864C545.714 595.864 589.314 643.364 608.614 688.264C613.414 699.464 608.214 712.364 597.014 717.164C594.314 718.364 591.314 718.964 588.414 718.964Z" fill="#9063CD"/>
<path d="M727.556 588.208C726.495 588.208 725.434 587.943 724.506 587.28C712.173 579.854 703.554 568.052 700.106 554.128C696.658 540.204 698.912 525.75 706.338 513.417L718.671 492.996C720.395 490.211 724.108 489.283 726.893 491.007C729.677 492.731 730.606 496.444 728.882 499.228L716.549 519.65C704.615 539.408 710.98 565.134 730.738 577.069C733.523 578.793 734.451 582.506 732.727 585.291C731.534 587.147 729.677 588.208 727.556 588.208Z" fill="#FDDA24"/>
<path d="M816.663 479.21C814.011 479.21 811.491 477.353 810.828 474.701C805.126 451.495 790.672 431.869 770.118 419.404C749.564 407.071 725.562 403.358 702.223 409.06C699.04 409.856 695.725 407.867 694.929 404.684C694.134 401.502 696.123 398.187 699.305 397.391C725.694 390.893 753.011 395.004 776.218 409.06C799.424 423.117 815.867 445.395 822.365 471.651C823.161 474.834 821.172 478.149 817.989 478.944C817.591 479.077 817.061 479.21 816.663 479.21Z" fill="#FDDA24"/>
<path d="M752.355 547.231C751.294 547.231 750.233 546.966 749.305 546.303C746.52 544.579 745.592 540.866 747.316 538.081L759.648 517.66C771.583 497.901 765.218 472.175 745.459 460.241C735.911 454.406 724.64 452.815 713.766 455.467C702.892 458.119 693.742 464.882 688.04 474.43L669.475 505.062C667.751 507.847 664.038 508.775 661.254 507.051C658.469 505.327 657.541 501.614 659.264 498.829L677.829 468.197C685.255 455.865 697.058 447.245 710.981 443.797C724.905 440.349 739.359 442.604 751.692 450.03C777.02 465.412 785.241 498.564 769.859 523.892L757.526 544.314C756.333 546.303 754.344 547.231 752.355 547.231Z" fill="#00C389"/>
<path d="M625.315 526.409C624.254 526.409 623.194 526.144 622.265 525.481C619.481 523.757 618.552 520.044 620.276 517.26L657.406 455.862C674.38 427.75 707.399 413.296 739.623 419.926C742.805 420.589 744.927 423.772 744.264 426.954C743.601 430.137 740.418 432.258 737.236 431.595C710.051 426.026 682.071 438.226 667.617 461.962L630.487 523.36C629.293 525.349 627.304 526.409 625.315 526.409Z" fill="#59CBE8"/>
<path d="M785.102 539.142C784.041 539.142 782.98 538.876 782.052 538.213C779.267 536.489 778.339 532.776 780.063 529.992C789.213 515.007 791.865 497.238 787.622 480.264C783.378 463.29 772.77 448.836 757.785 439.686C755 437.962 754.072 434.249 755.796 431.465C757.52 428.68 761.233 427.752 764.017 429.475C781.787 440.217 794.252 457.19 799.291 477.347C804.33 497.503 801.148 518.322 790.406 536.092C789.08 538.081 787.224 539.142 785.102 539.142Z" fill="#59CBE8"/>
<path d="M752.224 571.236C746.787 571.236 741.482 569.777 736.841 566.859C722.785 558.373 718.144 539.94 726.763 525.884L739.096 505.462C744.267 496.975 741.482 485.969 732.996 480.797C724.509 475.626 713.502 478.41 708.331 486.897C706.607 489.682 702.894 490.61 700.109 488.886C697.324 487.162 696.396 483.449 698.12 480.665C706.607 466.608 725.039 461.967 739.096 470.587C753.152 479.073 757.793 497.506 749.174 511.562L736.841 531.984C731.67 540.471 734.454 551.477 742.941 556.649C747.052 559.168 751.826 559.831 756.467 558.77C761.108 557.577 765.087 554.792 767.473 550.681C769.197 547.897 772.91 546.968 775.695 548.692C778.48 550.416 779.408 554.129 777.684 556.914C773.573 563.81 767.076 568.583 759.252 570.44C757.13 570.838 754.743 571.236 752.224 571.236Z" fill="#F5B6CD"/>
<path d="M666.151 551.078C665.09 551.078 664.029 550.813 663.101 550.15C660.316 548.426 659.388 544.713 661.112 541.928L685.91 500.953C687.634 498.168 691.347 497.24 694.131 498.964C696.916 500.688 697.844 504.401 696.121 507.185L671.323 548.161C670.262 550.017 668.273 551.078 666.151 551.078Z" fill="#9063CD"/>
<path d="M675.042 374.842C673.981 374.842 672.92 374.576 671.992 373.913C669.207 372.189 668.279 368.476 670.003 365.692L679.285 350.309C686.048 339.038 700.768 335.457 712.172 342.22L727.554 351.503C730.339 353.227 731.267 356.94 729.543 359.724C727.82 362.509 724.107 363.437 721.322 361.713L705.939 352.431C700.237 348.983 692.944 350.84 689.496 356.542L680.214 371.924C679.02 373.781 677.031 374.842 675.042 374.842Z" fill="#9063CD"/>
<path d="M859.101 486.104C858.04 486.104 856.979 485.839 856.051 485.176C853.266 483.452 852.338 479.739 854.062 476.955L863.345 461.572C864.936 458.787 865.466 455.605 864.671 452.555C863.875 449.505 862.018 446.853 859.234 445.129L843.851 435.846C841.066 434.122 840.138 430.409 841.862 427.625C843.586 424.84 847.299 423.912 850.084 425.636L865.466 434.918C870.903 438.233 874.749 443.405 876.34 449.637C877.931 455.87 876.871 462.235 873.555 467.672L864.273 483.055C863.079 485.044 861.09 486.104 859.101 486.104Z" fill="#FF7F41"/>
<path d="M754.074 643.105C749.831 643.105 745.587 641.911 741.742 639.657L726.359 630.374C723.574 628.65 722.646 624.937 724.37 622.153C726.094 619.368 729.807 618.44 732.592 620.164L747.974 629.446C750.759 631.037 753.941 631.568 756.991 630.772C760.041 629.977 762.693 628.12 764.417 625.335L773.7 609.953C775.424 607.168 779.137 606.24 781.922 607.964C784.706 609.688 785.635 613.401 783.911 616.185L774.628 631.568C771.313 637.005 766.141 640.85 759.909 642.442C757.92 642.84 756.063 643.105 754.074 643.105Z" fill="#9063CD"/>
<path d="M606.748 557.042C605.687 557.042 604.627 556.777 603.698 556.114L588.316 546.831C582.879 543.516 579.033 538.345 577.442 532.112C575.851 525.879 576.912 519.514 580.227 514.077L589.509 498.695C591.233 495.91 594.946 494.982 597.731 496.706C600.516 498.43 601.444 502.143 599.72 504.928L590.438 520.31C588.846 523.095 588.316 526.277 589.112 529.327C589.907 532.377 591.764 535.029 594.548 536.753L609.931 546.036C612.716 547.76 613.644 551.473 611.92 554.257C610.727 555.981 608.737 557.042 606.748 557.042Z" fill="#FF7F41"/>
<path d="M645.733 538.743C644.672 538.743 643.611 538.478 642.683 537.815C639.899 536.091 638.97 532.378 640.694 529.593L646.927 519.382C648.651 516.598 652.364 515.669 655.148 517.393C657.933 519.117 658.861 522.83 657.137 525.615L650.905 535.826C649.711 537.682 647.722 538.743 645.733 538.743Z" fill="#9063CD"/>
</svg>
