<svg width="1080" height="1080" viewBox="0 0 1080 1080" fill="none" xmlns="http://www.w3.org/2000/svg">
<path d="M777.193 904.068H593.129C575.747 904.044 559.085 897.127 546.797 884.834C534.508 872.542 527.597 855.877 527.578 838.496V654.432C527.597 637.046 534.511 620.379 546.804 608.086C559.097 595.792 575.765 588.878 593.15 588.859H777.215C794.6 588.878 811.268 595.792 823.561 608.086C835.854 620.379 842.768 637.046 842.787 654.432V838.496C842.768 855.885 835.851 872.556 823.553 884.85C811.255 897.143 794.582 904.055 777.193 904.068ZM593.129 621.259C584.334 621.269 575.902 624.768 569.683 630.986C563.465 637.205 559.967 645.637 559.956 654.432V838.496C559.967 847.291 563.465 855.722 569.683 861.941C575.902 868.16 584.334 871.658 593.129 871.668H777.193C785.988 871.658 794.419 868.16 800.638 861.941C806.857 855.722 810.355 847.291 810.365 838.496V654.432C810.355 645.637 806.857 637.205 800.638 630.986C794.419 624.768 785.988 621.269 777.193 621.259H593.129Z" fill="#FDDA24"/>
<path d="M777.193 555.493H593.129C575.748 555.469 559.087 548.553 546.799 536.262C534.51 523.97 527.598 507.307 527.578 489.927V305.857C527.602 288.479 534.516 271.819 546.804 259.53C559.092 247.242 575.751 240.326 593.129 240.301H777.193C794.575 240.321 811.239 247.233 823.532 259.523C835.824 271.812 842.741 288.475 842.765 305.857V489.927C842.745 507.311 835.83 523.977 823.537 536.269C811.244 548.561 794.577 555.475 777.193 555.493ZM593.129 272.701C584.341 272.716 575.917 276.215 569.703 282.43C563.489 288.644 559.992 297.069 559.978 305.857V489.927C559.988 498.721 563.486 507.152 569.705 513.37C575.924 519.588 584.356 523.085 593.15 523.093H777.215C786.009 523.085 794.441 519.588 800.66 513.37C806.879 507.152 810.377 498.721 810.387 489.927V305.857C810.373 297.061 806.87 288.63 800.647 282.414C794.424 276.198 785.989 272.705 777.193 272.701H593.129Z" fill="#FF7F41"/>
<path d="M426.415 904.068H242.346C224.961 904.048 208.294 897.133 196.001 884.84C183.708 872.548 176.793 855.881 176.773 838.496V654.432C176.793 637.047 183.708 620.38 196.001 608.087C208.294 595.794 224.961 588.879 242.346 588.859H426.415C443.8 588.879 460.466 595.794 472.758 608.087C485.05 620.38 491.964 637.047 491.982 654.432V838.496C491.964 855.88 485.05 872.547 472.758 884.84C460.466 897.133 443.8 904.048 426.415 904.068ZM242.346 621.259C233.551 621.269 225.119 624.768 218.9 630.986C212.682 637.205 209.183 645.637 209.173 654.432V838.496C209.183 847.291 212.682 855.722 218.9 861.941C225.119 868.16 233.551 871.658 242.346 871.668H426.415C435.21 871.658 443.641 868.16 449.859 861.941C456.077 855.722 459.574 847.29 459.582 838.496V654.432C459.574 645.637 456.077 637.206 449.859 630.987C443.641 624.768 435.21 621.269 426.415 621.259H242.346Z" fill="#00C389"/>
<path d="M426.848 555.493H242.783C225.399 555.475 208.732 548.561 196.439 536.269C184.146 523.977 177.231 507.311 177.211 489.927V305.857C177.235 288.475 184.152 271.812 196.444 259.523C208.737 247.233 225.401 240.321 242.783 240.301H426.848C444.229 240.321 460.894 247.233 473.186 259.523C485.479 271.812 492.395 288.475 492.42 305.857V489.927C492.4 507.311 485.485 523.977 473.192 536.269C460.899 548.561 444.232 555.475 426.848 555.493ZM242.783 272.701C233.988 272.711 225.557 276.209 219.338 282.428C213.119 288.647 209.621 297.078 209.611 305.873V489.927C209.621 498.721 213.119 507.152 219.338 513.37C225.557 519.588 233.989 523.085 242.783 523.093H426.848C435.642 523.085 444.073 519.588 450.292 513.37C456.511 507.152 460.01 498.721 460.02 489.927V305.857C460.005 297.065 456.505 288.637 450.287 282.422C444.069 276.207 435.639 272.711 426.848 272.701H242.783Z" fill="#9063CD"/>
<path d="M146.226 395.967H146.221C143.963 395.967 142.133 397.797 142.133 400.055V408.457C142.133 410.715 143.963 412.545 146.221 412.545H146.226C148.484 412.545 150.314 410.715 150.314 408.457V400.055C150.314 397.797 148.484 395.967 146.226 395.967Z" fill="#FF7F41"/>
<path d="M431.358 429.408C436.121 409.968 433.718 396.02 431.509 388.746C430.981 386.997 430.02 385.409 428.714 384.131C427.409 382.853 425.801 381.925 424.041 381.435C397.381 373.999 359.932 370.781 359.932 370.781C359.932 370.781 344.747 347.723 328.131 334.817C327.297 334.173 326.331 333.721 325.302 333.494C284.343 324.265 242.255 332.322 223.485 338.31C222.62 338.584 221.822 339.035 221.141 339.633C206.971 352.107 196.56 367.244 196.56 367.244L161.385 375.068C158.748 375.567 156.418 377.091 154.905 379.307C151.216 384.75 146.805 390.248 146.805 406.556C146.853 414.284 147.942 421.971 150.045 429.408H431.358Z" fill="#00C389"/>
<path d="M294.257 371.185H341.28C342.216 371.184 343.133 370.927 343.933 370.441C344.732 369.955 345.383 369.26 345.815 368.43C346.247 367.6 346.443 366.667 346.383 365.734C346.322 364.8 346.006 363.901 345.471 363.134C338.488 353.198 327.154 341.172 325.123 339.034C324.917 338.817 324.65 338.668 324.357 338.607C314.451 336.567 304.402 335.295 294.3 334.8C294.103 334.791 293.906 334.823 293.721 334.893C293.536 334.962 293.368 335.069 293.225 335.206C293.083 335.342 292.97 335.507 292.893 335.689C292.816 335.871 292.776 336.066 292.777 336.264V369.744C292.779 369.936 292.819 370.125 292.895 370.302C292.971 370.478 293.08 370.638 293.218 370.772C293.355 370.906 293.518 371.011 293.696 371.082C293.874 371.153 294.065 371.188 294.257 371.185Z" fill="#59CBE8"/>
<path d="M281.709 334.529C268.815 334.573 255.952 335.799 243.282 338.191C242.953 338.258 242.657 338.437 242.446 338.698C242.234 338.959 242.119 339.286 242.121 339.622V369.727C242.12 369.918 242.157 370.107 242.23 370.284C242.303 370.461 242.41 370.622 242.545 370.757C242.68 370.893 242.84 371 243.017 371.073C243.193 371.147 243.383 371.185 243.574 371.185H281.719C282.106 371.185 282.477 371.031 282.75 370.757C283.024 370.484 283.177 370.113 283.177 369.727V335.993C283.177 335.8 283.139 335.609 283.065 335.431C282.992 335.254 282.883 335.092 282.747 334.956C282.61 334.82 282.448 334.712 282.27 334.639C282.092 334.566 281.901 334.529 281.709 334.529Z" fill="#59CBE8"/>
<path d="M236.578 344.384C230.05 353.731 224.817 364.661 222.781 369.127C222.681 369.349 222.638 369.592 222.656 369.835C222.675 370.078 222.753 370.313 222.885 370.517C223.018 370.722 223.199 370.89 223.413 371.006C223.627 371.123 223.866 371.184 224.11 371.184H237.772C238.158 371.184 238.529 371.031 238.803 370.757C239.076 370.484 239.23 370.113 239.23 369.726V345.221C239.23 344.911 239.131 344.609 238.947 344.359C238.764 344.11 238.506 343.925 238.211 343.831C237.915 343.738 237.597 343.741 237.304 343.841C237.01 343.94 236.756 344.13 236.578 344.384Z" fill="#59CBE8"/>
<path d="M431.572 427.875H149.098C147.872 427.875 146.938 428.496 147.057 429.198L148.245 435.181C148.364 435.781 149.239 436.261 150.281 436.261H431.572C432.701 436.261 433.613 435.926 433.613 435.516V428.62C433.619 428.221 432.701 427.875 431.572 427.875Z" fill="#FF7F41"/>
<path d="M204.744 461.964C220.165 461.964 232.667 449.462 232.667 434.041C232.667 418.619 220.165 406.117 204.744 406.117C189.322 406.117 176.82 418.619 176.82 434.041C176.82 449.462 189.322 461.964 204.744 461.964Z" fill="#2C2A29"/>
<path d="M373.701 461.964C389.122 461.964 401.624 449.462 401.624 434.041C401.624 418.619 389.122 406.117 373.701 406.117C358.279 406.117 345.777 418.619 345.777 434.041C345.777 449.462 358.279 461.964 373.701 461.964Z" fill="#2C2A29"/>
<path d="M373.7 451.16C383.154 451.16 390.818 443.496 390.818 434.042C390.818 424.588 383.154 416.924 373.7 416.924C364.246 416.924 356.582 424.588 356.582 434.042C356.582 443.496 364.246 451.16 373.7 451.16Z" fill="#FF7F41"/>
<path d="M204.747 451.16C214.201 451.16 221.865 443.496 221.865 434.042C221.865 424.588 214.201 416.924 204.747 416.924C195.293 416.924 187.629 424.588 187.629 434.042C187.629 443.496 195.293 451.16 204.747 451.16Z" fill="#FF7F41"/>
<path d="M306.614 376.709H295.447C293.985 376.709 292.801 377.894 292.801 379.355C292.801 380.816 293.985 382.001 295.447 382.001H306.614C308.075 382.001 309.26 380.816 309.26 379.355C309.26 377.894 308.075 376.709 306.614 376.709Z" fill="#FDDA24"/>
<path d="M238.259 376.709H227.091C225.63 376.709 224.445 377.894 224.445 379.355C224.445 380.816 225.63 382.001 227.091 382.001H238.259C239.72 382.001 240.905 380.816 240.905 379.355C240.905 377.894 239.72 376.709 238.259 376.709Z" fill="#FDDA24"/>
<path d="M425.895 403.135C428.928 402.582 430.67 398.199 429.784 393.347C428.899 388.494 425.722 385.009 422.688 385.562C419.655 386.116 417.913 390.498 418.798 395.351C419.684 400.204 422.861 403.689 425.895 403.135Z" fill="#F5B6CD"/>
<path d="M520.399 423.638C520.748 425.799 522.782 427.268 524.941 426.919C527.101 426.57 528.568 424.535 528.219 422.374L526.922 414.346C526.573 412.185 524.539 410.716 522.379 411.065C520.22 411.414 518.752 413.449 519.102 415.61L520.399 423.638Z" fill="#00C389"/>
<path d="M526.712 437.859L522.1 407.9C521.65 404.973 522.3 401.984 523.925 399.508C532.101 387.034 568.373 345.692 599.444 340.648C627.443 336.107 635.797 335.416 647.704 334.708C649.74 334.582 651.775 334.982 653.611 335.87C655.448 336.758 657.025 338.104 658.191 339.779C667.371 353.063 678.883 380.468 678.883 380.468C678.883 380.468 716.327 384.059 741.167 388.973C744.311 389.596 747.297 390.848 749.945 392.655C752.593 394.462 754.847 396.786 756.573 399.487C764.538 411.999 767.578 427.934 768.734 437.827L526.712 437.859Z" fill="#F5B6CD"/>
<path d="M522.719 445.315H771.66C772.012 445.336 772.358 445.216 772.622 444.983C772.886 444.749 773.047 444.42 773.069 444.068V432.577C773.045 432.226 772.884 431.898 772.62 431.665C772.356 431.433 772.011 431.314 771.66 431.335H522.719C522.367 431.312 522.021 431.431 521.756 431.663C521.49 431.896 521.328 432.225 521.305 432.577V444.068C521.327 444.421 521.488 444.751 521.754 444.985C522.019 445.219 522.366 445.337 522.719 445.315Z" fill="#9063CD"/>
<path d="M751.919 412.083C754.84 410.476 755.088 405.318 752.472 400.562C749.857 395.806 745.368 393.253 742.446 394.86C739.525 396.467 739.277 401.625 741.892 406.381C744.508 411.137 748.997 413.69 751.919 412.083Z" fill="#FF7F41"/>
<path d="M667.104 376.655C663.38 366.711 658.775 357.121 653.345 347.997C652.416 346.436 651.054 345.178 649.425 344.375C647.795 343.571 645.968 343.258 644.165 343.472L602.277 348.407C598.729 348.825 595.335 350.093 592.383 352.103C589.43 354.113 587.006 356.806 585.315 359.952L576.967 375.488C576.662 376.058 576.509 376.696 576.524 377.342C576.54 377.988 576.722 378.619 577.054 379.173C577.386 379.728 577.856 380.186 578.418 380.505C578.98 380.824 579.615 380.991 580.261 380.991H664.091C664.607 380.985 665.115 380.856 665.572 380.614C666.029 380.372 666.421 380.024 666.716 379.6C667.01 379.175 667.2 378.687 667.267 378.174C667.335 377.662 667.279 377.141 667.104 376.655Z" fill="#59CBE8"/>
<path d="M582.779 395.906H599.719C601.091 395.906 602.203 394.795 602.203 393.425C602.203 392.055 601.091 390.944 599.719 390.944H582.779C581.407 390.944 580.295 392.055 580.295 393.425C580.295 394.795 581.407 395.906 582.779 395.906Z" fill="#00C389"/>
<path d="M716.882 469.379C731.824 469.379 743.936 457.267 743.936 442.325C743.936 427.384 731.824 415.271 716.882 415.271C701.941 415.271 689.828 427.384 689.828 442.325C689.828 457.267 701.941 469.379 716.882 469.379Z" fill="#2C2A29"/>
<path d="M567.195 469.379C582.136 469.379 594.249 457.267 594.249 442.325C594.249 427.384 582.136 415.271 567.195 415.271C552.253 415.271 540.141 427.384 540.141 442.325C540.141 457.267 552.253 469.379 567.195 469.379Z" fill="#2C2A29"/>
<path d="M567.197 458.909C576.355 458.909 583.78 451.484 583.78 442.326C583.78 433.167 576.355 425.742 567.197 425.742C558.038 425.742 550.613 433.167 550.613 442.326C550.613 451.484 558.038 458.909 567.197 458.909Z" fill="#FF7F41"/>
<path d="M716.88 458.909C726.039 458.909 733.464 451.484 733.464 442.326C733.464 433.167 726.039 425.742 716.88 425.742C707.722 425.742 700.297 433.167 700.297 442.326C700.297 451.484 707.722 458.909 716.88 458.909Z" fill="#FF7F41"/>
<path d="M128.022 721.617H147.079V773.22H128.022C126.982 773.22 125.985 772.807 125.25 772.071C124.515 771.336 124.102 770.339 124.102 769.299V725.559C124.099 725.043 124.198 724.53 124.394 724.052C124.59 723.574 124.878 723.139 125.242 722.773C125.607 722.407 126.04 722.116 126.517 721.918C126.994 721.719 127.505 721.617 128.022 721.617Z" fill="#2C2A29"/>
<path d="M143.067 729.488L143.062 729.488C140.808 729.36 138.877 731.083 138.749 733.337L137.899 748.298C137.771 750.552 139.495 752.483 141.749 752.611L141.754 752.611C144.008 752.739 145.939 751.016 146.067 748.762L146.917 733.801C147.045 731.547 145.321 729.616 143.067 729.488Z" fill="#FF7F41"/>
<path d="M435.89 726.656C400.417 721.796 361.402 719.809 361.402 719.809C361.402 719.809 344.284 692.447 324.094 676.766C323.102 675.948 321.921 675.391 320.659 675.146C273.798 667.586 211.039 669.443 163.158 675.502C161.911 675.662 160.732 676.164 159.752 676.951C158.771 677.738 158.027 678.78 157.601 679.963C151.877 695.785 144.679 713.626 142.179 728.244C138.906 767.356 144.69 790.376 144.69 790.376H437.769C445.092 758.047 441.706 738.704 439.648 730.053C439.436 729.175 438.964 728.38 438.294 727.774C437.623 727.169 436.785 726.779 435.89 726.656Z" fill="#9063CD"/>
<path d="M440.1 778.783H142.452C142.163 778.779 141.877 778.837 141.612 778.952C141.347 779.066 141.11 779.236 140.915 779.449C140.721 779.663 140.574 779.915 140.484 780.189C140.394 780.463 140.364 780.754 140.394 781.041L141.048 791.241C141.114 791.74 141.36 792.198 141.74 792.528C142.12 792.859 142.607 793.038 143.11 793.034H437.999C439.138 793.034 440.067 792.494 440.067 791.765L442.141 780.052C442.141 779.35 441.212 778.783 440.1 778.783Z" fill="#FF7F41"/>
<path d="M190.805 829.126C211.076 829.126 227.509 812.693 227.509 792.423C227.509 772.152 211.076 755.719 190.805 755.719C170.534 755.719 154.102 772.152 154.102 792.423C154.102 812.693 170.534 829.126 190.805 829.126Z" fill="#2C2A29"/>
<path d="M385.005 829.126C405.276 829.126 421.708 812.693 421.708 792.423C421.708 772.152 405.276 755.719 385.005 755.719C364.734 755.719 348.301 772.152 348.301 792.423C348.301 812.693 364.734 829.126 385.005 829.126Z" fill="#2C2A29"/>
<path d="M385.005 818.38C399.341 818.38 410.962 806.759 410.962 792.423C410.962 778.087 399.341 766.465 385.005 766.465C370.669 766.465 359.047 778.087 359.047 792.423C359.047 806.759 370.669 818.38 385.005 818.38Z" fill="#FF7F41"/>
<path d="M385.007 805.707C392.343 805.707 398.291 799.759 398.291 792.423C398.291 785.086 392.343 779.139 385.007 779.139C377.67 779.139 371.723 785.086 371.723 792.423C371.723 799.759 377.67 805.707 385.007 805.707Z" fill="white"/>
<path d="M190.802 818.38C205.138 818.38 216.759 806.759 216.759 792.423C216.759 778.087 205.138 766.465 190.802 766.465C176.465 766.465 164.844 778.087 164.844 792.423C164.844 806.759 176.465 818.38 190.802 818.38Z" fill="#FF7F41"/>
<path d="M190.804 805.707C198.14 805.707 204.088 799.759 204.088 792.423C204.088 785.086 198.14 779.139 190.804 779.139C183.467 779.139 177.52 785.086 177.52 792.423C177.52 799.759 183.467 805.707 190.804 805.707Z" fill="white"/>
<path d="M295.694 725.582H279.943C278.77 725.582 277.82 726.532 277.82 727.704V729.891C277.82 731.063 278.77 732.013 279.943 732.013H295.694C296.866 732.013 297.817 731.063 297.817 729.891V727.704C297.817 726.532 296.866 725.582 295.694 725.582Z" fill="#FDDA24"/>
<path d="M271.278 677.003C271.264 676.44 271.037 675.903 270.642 675.502C270.246 675.101 269.713 674.865 269.15 674.843C263.561 674.622 257.691 674.492 251.627 674.492C241.599 674.492 232.409 674.66 224.039 674.935C223.529 674.953 223.041 675.146 222.657 675.482C222.272 675.817 222.015 676.274 221.927 676.776L214.756 718.022C214.7 718.341 214.715 718.669 214.799 718.982C214.883 719.296 215.036 719.587 215.245 719.835C215.454 720.083 215.714 720.282 216.009 720.419C216.303 720.555 216.624 720.625 216.948 720.624H245.444L270.695 721.051C270.997 721.056 271.297 720.999 271.577 720.883C271.856 720.768 272.109 720.597 272.32 720.381C272.532 720.165 272.697 719.908 272.805 719.625C272.914 719.343 272.964 719.042 272.952 718.74L271.278 677.003Z" fill="#59CBE8"/>
<path d="M215.59 677.92C215.67 677.584 215.671 677.234 215.592 676.898C215.513 676.562 215.358 676.249 215.137 675.983C214.917 675.718 214.637 675.507 214.321 675.368C214.005 675.229 213.661 675.165 213.316 675.182C189.016 676.354 173.481 678.363 167.319 679.276C166.41 679.409 165.552 679.784 164.837 680.361C164.122 680.939 163.575 681.698 163.253 682.559C158.344 695.702 153.393 711.222 151.416 717.529C151.313 717.862 151.289 718.215 151.348 718.559C151.406 718.903 151.544 719.228 151.751 719.509C151.958 719.79 152.228 720.017 152.54 720.174C152.851 720.332 153.195 720.413 153.544 720.413H203.661C204.16 720.412 204.645 720.243 205.037 719.934C205.429 719.624 205.705 719.192 205.821 718.706L215.59 677.92Z" fill="#59CBE8"/>
<path d="M319.558 679.627C316.038 679.087 300.172 676.651 278.432 675.35C278.121 675.331 277.81 675.377 277.518 675.486C277.226 675.594 276.961 675.763 276.738 675.981C276.516 676.199 276.342 676.461 276.227 676.75C276.112 677.04 276.059 677.35 276.072 677.661L277.73 719.106C277.747 719.678 277.983 720.222 278.39 720.625C278.798 721.027 279.345 721.257 279.917 721.266L335.969 722.217C336.157 722.219 336.344 722.185 336.519 722.115C336.694 722.045 336.853 721.941 336.987 721.808C337.121 721.676 337.228 721.519 337.301 721.345C337.373 721.171 337.411 720.985 337.411 720.796V716.174C337.411 715.54 337.663 714.931 338.111 714.482C338.56 714.034 339.169 713.782 339.803 713.782H345.894C346.156 713.781 346.413 713.708 346.636 713.571C346.859 713.434 347.04 713.238 347.158 713.004C347.277 712.77 347.328 712.509 347.307 712.247C347.286 711.986 347.193 711.736 347.039 711.525C336.05 696.491 323.479 683.121 320.806 680.312C320.476 679.954 320.038 679.713 319.558 679.627Z" fill="#59CBE8"/>
<path d="M426.284 728.379C428.444 728.498 431.495 728.719 434.514 729.119C435.2 729.211 435.841 729.513 436.349 729.984C436.856 730.455 437.206 731.071 437.349 731.748C438.661 737.793 439.245 743.973 439.088 750.157C439.06 750.823 438.775 751.453 438.292 751.913C437.81 752.373 437.168 752.628 436.501 752.625H430.696C429.371 752.62 428.095 752.128 427.109 751.243C426.123 750.358 425.497 749.141 425.35 747.824L423.574 731.241C423.533 730.868 423.574 730.491 423.694 730.136C423.814 729.78 424.009 729.455 424.267 729.183C424.525 728.911 424.839 728.698 425.187 728.559C425.536 728.42 425.91 728.359 426.284 728.379Z" fill="#FF7F41"/>
<path d="M637.052 670.488C626.897 659.88 610.065 659.513 599.457 669.668C588.849 679.823 588.482 696.654 598.637 707.262L740.625 855.585C750.78 866.193 767.612 866.56 778.22 856.405C788.828 846.25 789.195 829.419 779.04 818.811L637.052 670.488Z" fill="#E4AC7B"/>
<path d="M683.326 751.68L764.909 687.139C783.739 672.241 810.404 674.179 825.654 691.616L881.976 755.908C890.068 765.145 896.085 776.009 899.623 787.768L902.361 796.889L788.621 905.764L661.305 772.756L683.326 751.68Z" fill="#E4AC7B"/>
<path d="M668.354 834.511C666.048 843.185 666.012 852.307 668.25 861C670.487 869.693 674.923 877.664 681.13 884.147C690.044 893.467 702.086 899.165 714.945 900.147L788.622 905.785L679.667 791.953L668.354 834.511Z" fill="#E4AC7B"/>
<path d="M675.918 806.053L759.002 874.843L679.666 791.953L675.918 806.053Z" fill="#CB913F"/>
<path d="M983.928 912.94L896.34 996.775C888.751 1004.04 878.589 1007.99 868.087 1007.76C857.586 1007.53 847.606 1003.14 840.342 995.549L774.246 926.499L846.649 857.196L919.079 787.887L985.17 856.937C992.431 864.528 996.379 874.693 996.146 885.195C995.913 895.698 991.518 905.677 983.928 912.94Z" fill="#59CBE8"/>
<path d="M908.813 769.186L756.062 915.412L787.549 948.303L940.299 802.077L908.813 769.186Z" fill="#FF7F41"/>
<path d="M939.925 890.216C951.53 890.216 960.937 880.809 960.937 869.205C960.937 857.601 951.53 848.193 939.925 848.193C928.321 848.193 918.914 857.601 918.914 869.205C918.914 880.809 928.321 890.216 939.925 890.216Z" fill="#2C2A29"/>
</svg>
