<svg width="250" height="365" viewBox="0 0 250 365" fill="none" xmlns="http://www.w3.org/2000/svg">
<g clip-path="url(#clip0)">
<path d="M108.782 275.998C107.65 276.034 106.526 275.805 105.498 275.331C104.47 274.856 103.567 274.149 102.86 273.265C101.482 271.688 100.723 269.665 100.723 267.571C100.723 265.477 101.482 263.454 102.86 261.876C182.123 192.179 202.622 165.758 214.921 127.949C215.038 125.854 215.953 123.884 217.478 122.443C219.004 121.003 221.023 120.201 223.121 120.205C224.38 120.156 225.631 120.435 226.75 121.013C227.869 121.592 228.819 122.451 229.508 123.506C230.196 124.562 230.599 125.778 230.677 127.035C230.756 128.293 230.506 129.549 229.954 130.682C220.843 164.392 197.156 208.123 114.703 273.72C113.046 275.131 110.957 275.935 108.782 275.998Z" fill="#8E60FF"/>
<path d="M216.341 342.496H8.16107C6.40053 342.527 4.67238 342.02 3.20729 341.043C1.7422 340.067 0.609866 338.666 -0.0385822 337.029C-0.485808 335.478 -0.465001 333.829 0.0212312 332.289C0.507463 330.749 1.43747 329.387 2.69464 328.374L48.2483 288.742C195.842 161.192 202.22 140.238 202.22 86.9399C202.22 84.7652 203.083 82.6796 204.621 81.1419C206.159 79.6041 208.245 78.7402 210.419 78.7402C212.594 78.7402 214.68 79.6041 216.217 81.1419C217.755 82.6796 218.619 84.7652 218.619 86.9399C218.93 100.722 217.553 114.49 214.519 127.938C210.131 144.269 202.882 159.692 193.109 173.492C152.97 220.204 108.257 262.781 59.6367 300.586L30.0268 326.096H216.341C218.48 326.206 220.503 327.106 222.017 328.62C223.532 330.135 224.431 332.157 224.541 334.296C224.541 336.471 223.677 338.556 222.139 340.094C220.602 341.632 218.516 342.496 216.341 342.496Z" fill="#FC7E43"/>
<path d="M227.656 97.9106C225.622 98.0516 223.608 97.4297 222.008 96.1664C220.408 94.903 219.336 93.0888 219.001 91.0776C219.12 72.398 211.926 54.4131 198.957 40.9686C189.97 32.5175 179.361 25.9795 167.771 21.7511C156.182 17.5227 143.855 15.6918 131.538 16.3696C111.613 15.3625 91.9093 20.9228 75.4508 32.1969C58.9922 43.471 46.6891 59.8356 40.4304 78.7781C40.0961 79.8002 39.5397 80.7357 38.8012 81.5175C38.0627 82.2992 37.1604 82.9078 36.1589 83.2997C35.1574 83.6916 34.0817 83.857 33.0087 83.7841C31.9358 83.7112 30.8923 83.4017 29.953 82.8779C28.8316 82.7516 27.7548 82.3665 26.8075 81.7531C25.8602 81.1397 25.0683 80.3147 24.4941 79.3431C23.92 78.3715 23.5793 77.2798 23.499 76.1541C23.4186 75.0284 23.6008 73.8995 24.0311 72.8561C31.5498 50.6451 46.1243 31.5015 65.5333 18.3428C84.9423 5.1842 108.121 -1.26775 131.538 -0.0296748C145.958 -0.710453 160.368 1.52015 173.908 6.52909C187.448 11.538 199.84 19.2227 210.345 29.1247C226.568 45.6452 235.578 67.9244 235.4 91.0776C235.015 92.8975 234.054 94.545 232.659 95.7757C231.264 97.0065 229.51 97.7551 227.656 97.9106Z" fill="#00C482"/>
<path d="M230.539 326.145H72.9234C70.8978 326.158 68.9392 325.42 67.4251 324.074C65.9111 322.728 64.9488 320.87 64.7238 318.857C64.6624 317.72 64.8259 316.582 65.205 315.508C65.5841 314.434 66.1713 313.446 66.933 312.6C67.6947 311.753 68.6159 311.066 69.6439 310.576C70.6718 310.086 71.7863 309.804 72.9234 309.746H230.539C231.676 309.804 232.791 310.086 233.819 310.576C234.846 311.066 235.768 311.753 236.529 312.6C237.291 313.446 237.878 314.434 238.257 315.508C238.637 316.582 238.8 317.72 238.739 318.857C238.514 320.87 237.551 322.728 236.037 324.074C234.523 325.42 232.565 326.158 230.539 326.145ZM45.5913 104.755C45.1586 106.682 44.0449 108.388 42.4547 109.56C40.8646 110.731 38.9049 111.29 36.9361 111.132C35.8795 110.832 34.8988 110.31 34.0593 109.602C33.2197 108.894 32.5404 108.015 32.0665 107.024C31.5926 106.033 31.3349 104.953 31.3105 103.855C31.2861 102.756 31.4957 101.666 31.9252 100.655C34.8835 76.6251 46.8013 54.5971 65.2964 38.9734C83.7916 23.3496 107.502 15.2811 131.688 16.3805C133.862 16.3805 135.948 17.2444 137.486 18.7821C139.023 20.3198 139.887 22.4054 139.887 24.5801C139.887 29.1355 139.887 31.8687 133.51 31.8687C113.102 31.0452 93.1211 37.8679 77.4788 51.0012C61.7393 65.3482 50.6369 84.0638 45.5913 104.755Z" fill="#83E2FF"/>
<path d="M20.871 309.699C19.6045 309.744 18.3427 309.524 17.1662 309.053C15.9896 308.583 14.9242 307.872 14.0379 306.966C12.5627 305.438 11.7383 303.396 11.7383 301.272C11.7383 299.148 12.5627 297.106 14.0379 295.578L40.9145 273.257C80.4275 242.353 117.721 208.712 152.521 172.583C173.219 151.825 185.267 123.985 186.231 94.6863C186.563 88.0109 185.239 81.357 182.378 75.3168C179.517 69.2766 175.207 64.0374 169.831 60.0655C160.396 52.4866 148.679 48.3135 136.577 48.2216C127.514 47.4288 118.386 48.5167 109.763 51.4171C101.14 54.3174 93.2096 58.9677 86.4682 65.0764C84.8637 66.5817 82.7462 67.4195 80.5462 67.4195C78.3462 67.4195 76.2287 66.5817 74.6242 65.0764C73.2127 63.4262 72.4371 61.326 72.4371 59.1544C72.4371 56.9829 73.2127 54.8827 74.6242 53.2325C82.9384 45.6177 92.7258 39.7889 103.382 36.1064C114.038 32.4238 125.335 30.9658 136.577 31.8223C152.863 31.156 168.901 35.9677 182.131 45.4884C189.351 51.1438 195.135 58.4227 199.014 66.7337C202.892 75.0446 204.755 84.1533 204.452 93.3197C203.444 126.991 189.205 158.908 164.82 182.149C129.385 219.418 91.4909 254.269 51.3919 286.467L26.7929 307.877C25.0359 309.043 22.9794 309.676 20.871 309.699Z" fill="#FFABE2"/>
<path d="M235.97 364.358H40.5453C38.7335 364.421 36.928 364.111 35.2412 363.447C33.5544 362.783 32.0223 361.778 30.7404 360.496C29.4585 359.215 28.4541 357.682 27.7898 355.996C27.1256 354.309 26.8156 352.503 26.8792 350.691C26.8792 347.067 28.3191 343.591 30.8819 341.028C33.4448 338.465 36.9209 337.025 40.5453 337.025H235.97C239.595 337.025 243.071 338.465 245.634 341.028C248.197 343.591 249.637 347.067 249.637 350.691C249.7 352.503 249.39 354.309 248.726 355.996C248.062 357.682 247.057 359.215 245.775 360.496C244.493 361.778 242.961 362.783 241.275 363.447C239.588 364.111 237.782 364.421 235.97 364.358Z" fill="#FFD825"/>
</g>
<defs>
<clipPath id="clip0">
<rect width="249.634" height="364.429" fill="white"/>
</clipPath>
</defs>
</svg>
