<svg width="244" height="351" viewBox="0 0 244 351" fill="none" xmlns="http://www.w3.org/2000/svg">
<g clip-path="url(#clip0)">
<path d="M121.988 350.313C103.586 350.65 85.2591 347.878 67.7797 342.114C50.2399 335.993 34.558 325.486 22.226 311.593C21.4392 310.868 20.8113 309.987 20.3817 309.007C19.9522 308.027 19.7305 306.969 19.7305 305.899C19.7305 304.828 19.9522 303.77 20.3817 302.79C20.8113 301.81 21.4392 300.93 22.226 300.204C23.7546 298.729 25.7959 297.905 27.9202 297.905C30.0445 297.905 32.0859 298.729 33.6144 300.204C44.7348 311.864 58.3142 320.899 73.3649 326.651C88.4157 332.404 104.559 334.729 120.622 333.458C134.168 333.975 147.658 331.462 160.11 326.103C172.561 320.744 183.66 312.675 192.597 302.482C210.841 280.25 219.959 251.918 218.107 223.219C216.697 199.723 206.25 177.685 188.952 161.721C188.098 161.038 187.408 160.172 186.934 159.186C186.46 158.201 186.213 157.121 186.213 156.027C186.213 154.933 186.46 153.853 186.934 152.868C187.408 151.882 188.098 151.016 188.952 150.333C190.481 148.858 192.522 148.033 194.647 148.033C196.771 148.033 198.812 148.858 200.341 150.333C210.673 159.633 219.024 170.922 224.894 183.523C230.764 196.125 234.033 209.781 234.506 223.674C234.939 240.487 232.631 257.257 227.673 273.328C222.73 288.074 215.169 301.808 205.352 313.87C194.986 325.695 182.142 335.09 167.734 341.389C153.326 347.687 137.707 350.734 121.988 350.313ZM182.119 55.5813C180.366 56.2905 178.406 56.2905 176.653 55.5813C175.116 53.9018 174.264 51.7079 174.264 49.4316C174.264 47.1552 175.116 44.9613 176.653 43.2818L208.085 2.73908C209.613 1.26387 211.655 0.439453 213.779 0.439453C215.903 0.439453 217.945 1.26387 219.473 2.73908C220.948 4.2676 221.773 6.30899 221.773 8.43328C221.773 10.5576 220.948 12.599 219.473 14.1275L187.13 52.3925C185.888 54.0132 184.113 55.1427 182.119 55.5813Z" fill="#8E60FF"/>
<path d="M191.737 259.67C190.357 259.85 188.953 259.694 187.645 259.216C186.337 258.738 185.163 257.952 184.225 256.923C183.286 255.895 182.609 254.655 182.251 253.309C181.894 251.963 181.866 250.551 182.171 249.192C184.624 242.287 186.156 235.088 186.726 227.782C186.657 218.858 184.475 210.076 180.357 202.158C176.24 194.24 170.305 187.41 163.039 182.228C148.346 171.371 130.729 165.181 112.474 164.462C110.817 164.568 109.169 164.138 107.775 163.236C106.38 162.333 105.313 161.007 104.73 159.452C103.843 158.269 103.363 156.83 103.363 155.352C103.363 153.873 103.843 152.435 104.73 151.252L227.725 3.20259C228.45 2.41579 229.33 1.78783 230.31 1.35831C231.29 0.928786 232.349 0.707031 233.419 0.707031C234.489 0.707031 235.547 0.928786 236.527 1.35831C237.507 1.78783 238.388 2.41579 239.113 3.20259C240.687 4.38472 241.784 6.09373 242.202 8.01739C242.62 9.94105 242.332 11.951 241.391 13.6799L128.418 150.341C148.012 152.343 166.264 161.218 179.939 175.394C193.614 189.569 201.829 208.128 203.126 227.782C203.294 237.596 202.223 247.391 199.937 256.936C199.481 257.392 194.926 259.67 191.737 259.67Z" fill="#FC7E43"/>
<path d="M201.759 283.382C201.262 283.623 200.717 283.749 200.164 283.749C199.612 283.749 199.067 283.623 198.57 283.382C196.713 282.578 195.244 281.079 194.477 279.206C193.711 277.333 193.709 275.235 194.47 273.36C200.474 258.937 203.421 243.426 203.125 227.806C203.229 213.289 198.767 199.106 190.37 187.263C181.757 175.683 170.515 166.315 157.572 159.931C155.647 158.949 154.159 157.283 153.401 155.26C152.642 153.237 152.667 151.004 153.472 148.998C154.526 147.154 156.255 145.791 158.294 145.196C160.334 144.601 162.524 144.821 164.405 145.81C179.962 152.463 193.359 163.317 203.094 177.156C212.83 190.995 218.519 207.272 219.525 224.162C219.525 246.939 214.969 283.382 201.759 283.382ZM110.651 49.2358H24.5551C22.3804 49.2358 20.2948 48.3719 18.7571 46.8342C17.2194 45.2965 16.3555 43.2109 16.3555 41.0362C16.3555 38.8615 17.2194 36.7759 18.7571 35.2382C20.2948 33.7004 22.3804 32.8365 24.5551 32.8365H109.74C110.835 32.77 111.93 32.9366 112.955 33.3251C113.98 33.7137 114.911 34.3154 115.686 35.0905C116.461 35.8656 117.063 36.7964 117.451 37.8213C117.84 38.8463 118.007 39.9421 117.94 41.0362C118.007 42.1303 117.84 43.2261 117.451 44.251C117.063 45.276 116.461 46.2068 115.686 46.9819C114.911 47.757 113.98 48.3587 112.955 48.7473C111.93 49.1358 110.835 49.3023 109.74 49.2358H110.651Z" fill="#00C482"/>
<path d="M158.967 16.3895H8.18403C6.00935 16.3895 3.92373 15.5257 2.386 13.9879C0.848265 12.4502 -0.015625 10.3646 -0.015625 8.18989C-0.015625 6.01521 0.848265 3.92959 2.386 2.39186C3.92373 0.854124 6.00935 -0.00976559 8.18403 -0.00976562L158.967 -0.00976562C161.141 -0.00976559 163.227 0.854124 164.765 2.39186C166.302 3.92959 167.166 6.01521 167.166 8.18989C167.166 10.3646 166.302 12.4502 164.765 13.9879C163.227 15.5257 161.141 16.3895 158.967 16.3895Z" fill="#83E2FF"/>
<path d="M115.327 318.854C98.3197 319.268 81.5051 315.183 66.5844 307.01C50.6827 297.341 38.1238 283.033 30.597 266.012C30.2364 264.995 30.0799 263.917 30.1367 262.84C30.1935 261.762 30.4623 260.707 30.9278 259.733C31.3933 258.76 32.0463 257.888 32.8494 257.168C33.6526 256.447 34.59 255.892 35.6079 255.535C37.3025 254.794 39.1899 254.615 40.9935 255.025C42.797 255.435 44.4218 256.412 45.6297 257.812C51.1882 271.905 61.0778 283.868 73.873 291.978C86.4015 298.388 100.349 301.522 114.416 301.088C125.242 302.218 136.178 300.598 146.211 296.378C156.244 292.157 165.05 285.473 171.813 276.945C173.493 275.408 175.687 274.556 177.963 274.556C180.239 274.556 182.433 275.408 184.113 276.945C185.588 278.474 186.412 280.515 186.412 282.639C186.412 284.764 185.588 286.805 184.113 288.333C175.867 298.486 165.337 306.543 153.382 311.848C141.427 317.152 128.387 319.553 115.327 318.854ZM69.7731 165.339C67.6669 165.137 65.6966 164.208 64.2004 162.712C62.7042 161.216 61.7754 159.245 61.5735 157.139C61.1472 155.342 61.1472 153.47 61.5735 151.673L161.791 32.7775H12.8311C11.737 32.844 10.6412 32.6775 9.61624 32.289C8.59128 31.9004 7.66048 31.2987 6.88539 30.5236C6.1103 29.7485 5.50858 28.8177 5.12004 27.7927C4.73149 26.7678 4.56495 25.672 4.63145 24.5779C4.56495 23.4838 4.73149 22.388 5.12004 21.363C5.50858 20.3381 6.1103 19.4073 6.88539 18.6322C7.66048 17.8571 8.59128 17.2554 9.61624 16.8668C10.6412 16.4783 11.737 16.3117 12.8311 16.3782H179.557C180.693 16.3031 181.832 16.4793 182.892 16.8943C183.952 17.3094 184.908 17.953 185.691 18.7795C186.474 19.6059 187.065 20.5948 187.422 21.6758C187.779 22.7568 187.893 23.9032 187.757 25.0334C186.798 27.8844 184.861 30.3046 182.291 31.8665L76.6062 160.783C75.7115 161.831 74.5908 162.663 73.3283 163.215C72.0659 163.768 70.6945 164.026 69.3176 163.972L69.7731 165.339Z" fill="#FFABE2"/>
<path d="M120.333 339.356C96.5281 340.107 72.9963 334.106 52.4584 322.046C32.9989 309.438 17.89 291.149 9.18243 269.659C8.4353 267.988 8.03147 266.184 7.99491 264.354C7.95836 262.524 8.28982 260.705 8.96963 259.006C9.64944 257.306 10.6637 255.76 11.9523 254.46C13.2409 253.16 14.7776 252.132 16.471 251.438C19.8705 250.166 23.6221 250.208 26.992 251.556C30.3619 252.904 33.1077 255.461 34.6925 258.726C41.1834 275.747 53.0709 290.173 68.5369 299.798C84.0028 309.423 102.196 313.717 120.333 312.024C128.988 312.024 142.199 308.835 145.843 308.835C147.616 308.774 149.383 309.071 151.039 309.707C152.695 310.343 154.205 311.307 155.48 312.54C156.756 313.773 157.77 315.25 158.462 316.883C159.154 318.516 159.51 320.272 159.509 322.046C159.509 337.078 143.11 339.356 120.333 339.356ZM91.179 166.708C88.5038 166.681 85.9235 165.714 83.8904 163.975C82.8129 162.993 81.9522 161.797 81.3633 160.463C80.7744 159.13 80.4702 157.688 80.4702 156.231C80.4702 154.773 80.7744 153.331 81.3633 151.998C81.9522 150.664 82.8129 149.468 83.8904 148.486L151.31 66.4899C153.461 64.6306 156.21 63.6074 159.054 63.6074C161.898 63.6074 164.646 64.6306 166.798 66.4899C167.817 67.5056 168.626 68.7125 169.178 70.0414C169.73 71.3703 170.014 72.7951 170.014 74.234C170.014 75.6729 169.73 77.0977 169.178 78.4266C168.626 79.7555 167.817 80.9624 166.798 81.9781L100.29 162.153C99.2549 163.594 97.8846 164.762 96.2973 165.556C94.7099 166.35 92.9533 166.745 91.179 166.708Z" fill="#FFD825"/>
</g>
<defs>
<clipPath id="clip0">
<rect width="243.256" height="350.307" fill="white"/>
</clipPath>
</defs>
</svg>
