<svg width="241" height="356" viewBox="0 0 241 356" fill="none" xmlns="http://www.w3.org/2000/svg">
<g clip-path="url(#clip0)">
<path d="M123.483 338.915C107.325 339.916 91.1455 337.332 76.1033 331.346C61.0612 325.361 47.5289 316.123 36.476 304.294C35.6892 303.569 35.0613 302.688 34.6317 301.708C34.2022 300.728 33.9805 299.67 33.9805 298.6C33.9805 297.53 34.2022 296.471 34.6317 295.491C35.0613 294.511 35.6892 293.631 36.476 292.906C38.0046 291.43 40.0459 290.606 42.1702 290.606C44.2945 290.606 46.3359 291.43 47.8644 292.906C57.2679 303.142 68.889 311.092 81.8381 316.145C94.7872 321.198 108.721 323.221 122.572 322.06C134.526 321.988 146.334 319.427 157.244 314.541C168.154 309.655 177.927 302.55 185.94 293.68C193.954 284.809 200.032 274.367 203.788 263.019C207.545 251.67 208.896 239.664 207.758 227.764C208.019 216.65 205.992 205.6 201.802 195.302C197.613 185.005 191.35 175.678 183.404 167.903C175.458 160.128 165.998 154.069 155.611 150.105C145.225 146.14 134.134 144.354 123.028 144.856C121.934 144.923 120.838 144.756 119.813 144.368C118.788 143.979 117.857 143.377 117.082 142.602C116.307 141.827 115.705 140.896 115.317 139.872C114.928 138.847 114.762 137.751 114.828 136.657C114.828 132.101 118.017 128.457 124.85 128.457C138.029 127.945 151.171 130.163 163.451 134.972C175.731 139.781 186.885 147.078 196.21 156.404C205.536 165.729 212.833 176.883 217.642 189.163C222.451 201.443 224.669 214.585 224.157 227.764C225.415 241.795 223.755 255.935 219.28 269.294C214.804 282.652 207.612 294.938 198.154 305.38C188.697 315.821 177.18 324.191 164.329 329.963C151.478 335.735 137.571 338.782 123.483 338.915Z" fill="#8E60FF"/>
<path d="M227.743 273.343H224.554C222.519 272.71 220.811 271.31 219.79 269.44C218.77 267.569 218.518 265.375 219.087 263.321C222.206 251.727 223.889 239.794 224.098 227.789C224.611 214.611 222.393 201.469 217.583 189.188C212.774 176.908 205.477 165.755 196.152 156.429C186.826 147.104 175.673 139.807 163.392 134.998C151.112 130.188 137.97 127.97 124.791 128.483C108.682 128.867 92.7174 131.63 77.4157 136.682C75.5023 136.892 73.576 136.423 71.9741 135.356C70.3721 134.289 69.1966 132.692 68.6535 130.845C68.1104 128.999 68.2342 127.02 69.0033 125.255C69.7724 123.491 71.1378 122.053 72.8603 121.194C89.8532 116.169 107.534 113.863 125.247 114.361C140.108 113.812 154.929 116.251 168.831 121.533C182.733 126.816 195.433 134.834 206.18 145.114C216.927 155.393 225.501 167.725 231.396 181.378C237.291 195.032 240.386 209.73 240.498 224.601C240.831 239.967 238.991 255.303 235.031 270.154C234.187 271.261 233.075 272.134 231.8 272.692C230.524 273.25 229.128 273.474 227.743 273.343ZM219.543 38.2863H101.104C99.8782 38.6712 98.5763 38.7452 97.3152 38.5017C96.0542 38.2582 94.8734 37.7049 93.8794 36.8916C92.8853 36.0783 92.1092 35.0305 91.6208 33.8426C91.1324 32.6547 90.9472 31.364 91.0817 30.0867C90.9472 28.8094 91.1324 27.5187 91.6208 26.3308C92.1092 25.1429 92.8853 24.0951 93.8794 23.2818C94.8734 22.4684 96.0542 21.9151 97.3152 21.6717C98.5763 21.4282 99.8782 21.5022 101.104 21.887H219.543C221.718 21.887 223.803 22.7509 225.341 24.2887C226.879 25.8264 227.743 27.912 227.743 30.0867C227.743 32.2614 226.879 34.347 225.341 35.8847C223.803 37.4224 221.718 38.2863 219.543 38.2863Z" fill="#FC7E43"/>
<path d="M123.107 322.953C103.792 324.308 84.548 319.475 68.1659 309.154C51.7839 298.834 39.1158 283.562 31.9994 265.556C31.543 264.57 31.287 263.503 31.2464 262.417C31.2058 261.332 31.3813 260.249 31.7627 259.232C32.1442 258.214 32.724 257.283 33.4684 256.492C34.2128 255.701 35.1071 255.065 36.0992 254.623C37.102 254.106 38.2056 253.815 39.3328 253.769C40.46 253.723 41.5835 253.924 42.6248 254.358C43.6662 254.792 44.6001 255.448 45.3614 256.281C46.1227 257.113 46.6928 258.102 47.0321 259.178C53.2909 274.017 64.1504 286.453 78.0105 294.654C91.8706 302.855 107.998 306.388 124.018 304.732C169.571 304.732 192.348 271.022 192.348 224.557C192.006 215.438 189.829 206.482 185.946 198.224C182.064 189.965 176.556 182.575 169.752 176.494C162.948 170.413 154.988 165.766 146.347 162.832C137.706 159.897 128.562 158.735 119.462 159.416C105.786 158.343 92.0707 160.945 79.7368 166.952C67.403 172.959 56.8983 182.152 49.3097 193.581C48.1819 195.347 46.4205 196.615 44.3872 197.123C42.354 197.632 40.2033 197.342 38.3769 196.314C37.4413 195.753 36.627 195.012 35.9816 194.133C35.3362 193.254 34.8726 192.254 34.6181 191.194C34.3636 190.133 34.3232 189.033 34.4993 187.956C34.6754 186.88 35.0644 185.85 35.6436 184.926C45.3783 171.887 58.0281 161.306 72.5821 154.029C87.1361 146.752 103.191 142.981 119.462 143.016C130.908 142.459 142.347 144.241 153.08 148.254C163.814 152.268 173.616 158.428 181.887 166.359C190.159 174.289 196.726 183.823 201.188 194.378C205.65 204.933 207.912 216.287 207.836 227.746C209.036 239.666 207.748 251.705 204.054 263.102C200.359 274.498 194.34 285.003 186.375 293.953C178.41 302.902 168.675 310.101 157.784 315.092C146.894 320.084 135.085 322.761 123.107 322.953ZM25.6218 160.327C25.6218 164.426 21.522 165.793 16.9667 165.793C15.7667 165.806 14.5822 165.522 13.5184 164.967C12.4545 164.412 11.5441 163.602 10.8681 162.611C10.1921 161.619 9.77137 160.476 9.64323 159.283C9.5151 158.09 9.68354 156.884 10.1336 155.771L38.8324 29.1322C39.374 26.9913 40.7134 25.1384 42.5765 23.9528C44.4396 22.7672 46.6854 22.3386 48.8542 22.7547C50.8917 23.5591 52.5914 25.0384 53.6692 26.9454C54.7471 28.8524 55.1378 31.0716 54.7762 33.232L25.6218 160.327Z" fill="#00C482"/>
<path d="M62.8734 117.07C60.7874 116.438 58.9968 115.08 57.8267 113.241C56.6566 111.402 56.1844 109.205 56.4959 107.048L68.7953 45.5505C69.0204 43.5373 69.9827 41.6787 71.4967 40.3329C73.0107 38.9871 74.9693 38.2493 76.995 38.2619H200.445C202.62 38.2619 204.706 39.1258 206.243 40.6635C207.781 42.2012 208.645 44.2868 208.645 46.4615C208.645 48.6362 207.781 50.7218 206.243 52.2596C204.706 53.7973 202.62 54.6612 200.445 54.6612H83.828L71.073 111.148C70.5651 112.909 69.4814 114.45 67.9951 115.524C66.5087 116.597 64.7054 117.141 62.8734 117.07Z" fill="#83E2FF"/>
<path d="M123.946 355.309C99.2714 356.299 74.7686 350.802 52.8822 339.365C29.0015 325.631 10.4007 304.304 0.0399576 278.779C-0.416446 277.793 -0.672394 276.726 -0.713015 275.641C-0.753637 274.555 -0.578124 273.472 -0.196671 272.455C0.184782 271.438 0.764568 270.506 1.509 269.715C2.25344 268.924 3.14769 268.289 4.13978 267.846C5.26769 267.341 6.4907 267.083 7.72654 267.09C8.96238 267.097 10.1824 267.369 11.3045 267.886C12.4266 268.404 13.4248 269.157 14.2319 270.092C15.039 271.028 15.6364 272.126 15.9837 273.312C24.6361 294.327 39.7784 312.026 59.2006 323.827C78.6227 335.628 101.308 340.912 123.946 338.91C137.689 339.258 151.34 336.582 163.935 331.072C176.53 325.562 187.76 317.351 196.832 307.022C198.36 305.547 200.402 304.722 202.526 304.722C204.65 304.722 206.692 305.547 208.22 307.022C209.632 308.672 210.407 310.772 210.407 312.944C210.407 315.116 209.632 317.216 208.22 318.866C197.259 330.183 184.174 339.228 169.713 345.481C155.252 351.734 139.699 355.074 123.946 355.309Z" fill="#FFABE2"/>
<path d="M29.1352 189.517C27.2024 189.363 25.3244 188.8 23.6259 187.865C21.9274 186.93 20.4473 185.644 19.284 184.093C18.1207 182.542 17.3007 180.761 16.8786 178.869C16.4565 176.976 16.4419 175.016 16.8357 173.117L54.6452 10.9463C55.0948 7.80813 56.6969 4.94985 59.1392 2.92863C61.5815 0.907424 64.6889 -0.131851 67.8558 0.0134067H204.517C208.141 0.0134067 211.617 1.45322 214.18 4.01611C216.743 6.579 218.183 10.055 218.183 13.6795C218.246 15.4913 217.936 17.2968 217.272 18.9836C216.608 20.6705 215.604 22.2025 214.322 23.4844C213.04 24.7664 211.508 25.7707 209.821 26.435C208.134 27.0993 206.328 27.4092 204.517 27.3456H78.7887L45.5345 179.495C44.5706 182.927 42.3444 185.867 39.3027 187.726C36.261 189.585 32.6289 190.224 29.1352 189.517Z" fill="#FFD825"/>
</g>
<defs>
<clipPath id="clip0">
<rect width="240.523" height="355.318" fill="white"/>
</clipPath>
</defs>
</svg>
