<svg width="237" height="351" viewBox="0 0 237 351" fill="none" xmlns="http://www.w3.org/2000/svg">
<g clip-path="url(#clip0)">
<path d="M29.1339 260.134C27.272 260.265 25.4309 259.676 23.99 258.49C22.5492 257.303 21.6185 255.609 21.3898 253.756C17.9622 237.122 16.2828 220.175 16.3789 203.192V147.616C16.3789 71.9974 49.1775 16.422 119.786 16.422C137.376 16.0262 154.915 18.4877 171.717 23.7106C173.689 24.4334 175.331 25.8487 176.336 27.6925C177.342 29.5364 177.643 31.683 177.183 33.7324C176.883 34.789 176.361 35.7696 175.653 36.6092C174.945 37.4488 174.066 38.128 173.075 38.602C172.084 39.0759 171.004 39.3336 169.906 39.3579C168.808 39.3823 167.717 39.1728 166.706 38.7433C151.852 34.7543 136.532 32.7628 121.152 32.8213C58.2882 32.8213 32.7782 81.5637 32.7782 147.616V203.192C32.7629 218.491 34.2891 233.753 37.3336 248.746C37.8869 250.044 38.0958 251.463 37.9401 252.865C37.7844 254.268 37.2694 255.606 36.4448 256.752C35.6203 257.897 34.5141 258.81 33.2333 259.402C31.9526 259.995 30.5406 260.247 29.1339 260.134Z" fill="#8E60FF"/>
<path d="M119.417 334.365C96.3911 335.416 73.7068 328.498 55.1862 314.777C54.1191 314.11 53.2567 313.162 52.694 312.037C52.1314 310.912 51.8903 309.653 51.9975 308.399C51.931 307.305 52.0975 306.21 52.4861 305.185C52.8746 304.16 53.4763 303.229 54.2514 302.454C55.0265 301.679 55.9573 301.077 56.9823 300.688C58.0072 300.3 59.103 300.133 60.1971 300.2C62.2535 299.431 64.5182 299.431 66.5746 300.2C81.6297 312.114 100.219 318.684 119.417 318.877C175.903 318.877 204.147 296.1 204.147 240.98C204.147 185.86 182.281 162.172 127.617 162.172C113.306 161.621 99.1666 165.434 87.0738 173.105C86.1764 173.733 85.1642 174.178 84.0948 174.415C83.0254 174.652 81.9198 174.676 80.8411 174.486C78.6627 174.102 76.7262 172.867 75.4576 171.055C74.189 169.243 73.6923 167.001 74.0768 164.823C74.4612 162.644 75.6953 160.708 77.5075 159.439C92.4414 149.915 109.915 145.149 127.617 145.773C140.218 144.297 152.99 145.749 164.939 150.015C176.888 154.282 187.691 161.249 196.506 170.374C205.322 179.498 211.914 190.534 215.767 202.623C219.621 214.711 220.633 227.526 218.724 240.069C220.546 303.389 187.747 334.365 119.417 334.365Z" fill="#FC7E43"/>
<path d="M119.824 350.788C37.3714 350.788 0.0174405 293.39 0.0174405 202.283V136.686C-0.314552 111.242 5.46565 86.0904 16.8723 63.3444C17.6851 62.2033 18.7923 61.3041 20.0758 60.7426C21.3593 60.181 22.7712 59.9782 24.1609 60.1557C25.1952 60.0887 26.2319 60.2432 27.2018 60.6087C28.1717 60.9742 29.0525 61.5423 29.7854 62.2752C30.5183 63.0082 31.0865 63.889 31.452 64.8589C31.8175 65.8288 31.9719 66.8655 31.905 67.8998C32.1666 69.7126 32.1666 71.5535 31.905 73.3662C21.5908 96.7566 16.3138 122.055 16.4167 147.619V202.283C16.4167 280.635 43.7489 334.389 119.824 334.389C135.225 334.304 150.545 332.159 165.377 328.011C166.613 327.671 167.909 327.609 169.172 327.831C170.435 328.052 171.632 328.552 172.679 329.293C173.725 330.034 174.593 330.998 175.221 332.115C175.849 333.233 176.221 334.476 176.31 335.755C176.277 337.628 175.638 339.44 174.488 340.918C173.338 342.397 171.74 343.462 169.932 343.955C153.711 348.938 136.787 351.246 119.824 350.788ZM45.5711 112.087C44.311 112.066 43.0725 111.756 41.9519 111.179C40.8313 110.603 39.8587 109.776 39.1096 108.762C38.3606 107.749 37.8552 106.576 37.6327 105.336C37.4103 104.095 37.4767 102.82 37.827 101.609C40.3311 81.8455 50.2277 63.7632 65.5253 51.0012C80.8229 38.2391 100.386 31.7442 120.279 32.8235C146.311 30.7923 172.24 37.8783 193.62 52.8671C195.066 54.5901 195.859 56.7675 195.859 59.0168C195.859 61.2662 195.066 63.4436 193.62 65.1666C192.092 66.6418 190.05 67.4662 187.926 67.4662C185.802 67.4662 183.76 66.6418 182.232 65.1666C164.928 53.1681 144.002 47.5342 123.012 49.2228C106.375 48.0457 89.9205 53.2948 77.0385 63.8886C64.1564 74.4823 55.8285 89.6137 53.7707 106.165C53.0939 107.82 51.9669 109.251 50.5176 110.298C49.0683 111.345 47.3546 111.965 45.5711 112.087Z" fill="#00C482"/>
<path d="M68.3034 214.06C66.891 214.234 65.4582 214.014 64.1624 213.426C62.8665 212.839 61.7576 211.905 60.9575 210.728C60.1574 209.552 59.6969 208.177 59.6266 206.756C59.5564 205.335 59.8791 203.922 60.5592 202.672C66.1427 190.16 75.3127 179.586 86.9086 172.288C98.5045 164.99 112.005 161.296 125.701 161.674C136.511 160.955 147.356 162.398 157.602 165.917C167.848 169.437 177.29 174.963 185.376 182.173C186.851 183.701 187.676 185.743 187.676 187.867C187.676 189.991 186.851 192.033 185.376 193.561C183.772 195.067 181.654 195.904 179.454 195.904C177.254 195.904 175.137 195.067 173.532 193.561C159.692 183.168 142.48 178.297 125.245 179.895C114.865 179.432 104.585 182.092 95.7332 187.533C86.8814 192.974 79.8653 200.945 75.5919 210.416C74.7696 211.575 73.6745 212.514 72.4034 213.15C71.1322 213.785 69.7241 214.098 68.3034 214.06Z" fill="#83E2FF"/>
<path d="M212.843 312.03C211.308 312.018 209.803 311.597 208.483 310.81C207.164 310.024 206.078 308.901 205.336 307.556C204.594 306.212 204.223 304.694 204.262 303.158C204.3 301.623 204.746 300.125 205.555 298.82C216.127 281.425 221.354 261.307 220.588 240.966C220.588 178.102 191.433 146.67 129.48 146.67C128.219 146.686 126.969 146.426 125.819 145.908C124.669 145.391 123.646 144.628 122.821 143.673C121.997 142.718 121.391 141.595 121.046 140.382C120.701 139.168 120.626 137.894 120.825 136.649C120.935 134.51 121.834 132.487 123.349 130.973C124.863 129.458 126.886 128.559 129.025 128.449C144.063 126.526 159.343 128.154 173.638 133.202C187.934 138.249 200.848 146.577 211.344 157.516C221.841 168.456 229.628 181.703 234.081 196.195C238.534 210.687 239.529 226.02 236.987 240.966C237.852 264.701 231.67 288.16 219.221 308.386C218.615 309.538 217.693 310.492 216.563 311.138C215.434 311.783 214.143 312.093 212.843 312.03ZM45.6615 45.5414C44.5223 46.3249 43.1722 46.7444 41.7895 46.7444C40.4068 46.7444 39.0567 46.3249 37.9174 45.5414C37.1306 44.8162 36.5027 43.9358 36.0732 42.9557C35.6436 41.9757 35.4219 40.9172 35.4219 39.8472C35.4219 38.7771 35.6436 37.7187 36.0732 36.7387C36.5027 35.7586 37.1306 34.8782 37.9174 34.153C48.5023 23.0022 61.3114 14.199 75.515 8.31355C89.7185 2.42809 105 -0.408411 120.37 -0.012245C155.005 -2.05836 189.192 8.63532 216.488 30.0532C217.274 30.7784 217.902 31.6588 218.332 32.6388C218.761 33.6189 218.983 34.6773 218.983 35.7474C218.983 36.8174 218.761 37.8758 218.332 38.8559C217.902 39.8359 217.274 40.7163 216.488 41.4416C215.762 42.2284 214.882 42.8563 213.902 43.2858C212.922 43.7154 211.864 43.9371 210.793 43.9371C209.723 43.9371 208.665 43.7154 207.685 43.2858C206.705 42.8563 205.824 42.2284 205.099 41.4416C180.836 23.0765 150.718 14.1706 120.37 16.3871C107.116 15.7792 93.8897 18.0733 81.6151 23.1091C69.3404 28.1448 58.3138 35.8006 49.3058 45.5414C48.1084 45.8313 46.859 45.8313 45.6615 45.5414Z" fill="#FFABE2"/>
<path d="M119.4 318.848C53.803 318.848 28.293 273.294 28.293 198.586V153.032C28.293 150.133 29.4448 147.352 31.4951 145.302C33.5454 143.251 36.3263 142.1 39.2258 142.1C42.1254 142.1 44.9062 143.251 46.9566 145.302C49.0069 147.352 50.1587 150.133 50.1587 153.032V198.586C50.1587 260.084 64.7359 296.982 117.578 296.982C170.42 296.982 182.264 279.216 182.264 248.24C182.711 245.343 184.216 242.716 186.488 240.865C188.76 239.014 191.637 238.071 194.564 238.218C197.423 238.669 200.003 240.191 201.78 242.475C203.556 244.76 204.397 247.635 204.13 250.517C205.952 300.626 171.787 318.848 119.4 318.848Z" fill="#FFD825"/>
</g>
<defs>
<clipPath id="clip0">
<rect width="236.879" height="350.763" fill="white"/>
</clipPath>
</defs>
</svg>
