<svg width="48" height="48" viewBox="0 0 48 48" fill="none" xmlns="http://www.w3.org/2000/svg">
<path fill-rule="evenodd" clip-rule="evenodd" d="M7 16C7.55228 16 8 16.4477 8 17V38C8 39.1077 8.89228 40 10 40H16.72C17.2723 40 17.72 40.4477 17.72 41C17.72 41.5523 17.2723 42 16.72 42H10C7.78772 42 6 40.2123 6 38V17C6 16.4477 6.44772 16 7 16Z" fill="#FDDA24"/>
<path fill-rule="evenodd" clip-rule="evenodd" d="M40.9987 32.1172C41.551 32.1172 41.9987 32.5649 41.9987 33.1172V37.9972C41.9987 40.2095 40.211 41.9972 37.9987 41.9972H16.7187C16.1665 41.9972 15.7188 41.5495 15.7188 40.9972C15.7188 40.4449 16.1665 39.9972 16.7187 39.9972H37.9987C39.1065 39.9972 39.9987 39.1049 39.9987 37.9972V33.1172C39.9987 32.5649 40.4465 32.1172 40.9987 32.1172Z" fill="#00C389"/>
<path fill-rule="evenodd" clip-rule="evenodd" d="M41 16C41.5523 16 42 16.4477 42 17V33.12C42 33.6723 41.5523 34.12 41 34.12C40.4477 34.12 40 33.6723 40 33.12V17C40 16.4477 40.4477 16 41 16Z" fill="#9063CD"/>
<path fill-rule="evenodd" clip-rule="evenodd" d="M24 9C24 8.44772 24.4477 8 25 8H41C41.5523 8 42 8.44772 42 9V17C42 17.5523 41.5523 18 41 18C40.4477 18 40 17.5523 40 17V10H25C24.4477 10 24 9.55228 24 9Z" fill="#FF7F37"/>
<path fill-rule="evenodd" clip-rule="evenodd" d="M6 9C6 8.44772 6.44772 8 7 8H25C25.5523 8 26 8.44772 26 9C26 9.55228 25.5523 10 25 10H8V17C8 17.5523 7.55228 18 7 18C6.44772 18 6 17.5523 6 17V9Z" fill="#F5B6CD"/>
<path fill-rule="evenodd" clip-rule="evenodd" d="M29.0391 17C29.0391 16.4477 29.4868 16 30.0391 16H40.9991C41.5513 16 41.9991 16.4477 41.9991 17C41.9991 17.5523 41.5513 18 40.9991 18H30.0391C29.4868 18 29.0391 17.5523 29.0391 17Z" fill="#9063CD"/>
<path fill-rule="evenodd" clip-rule="evenodd" d="M6 17C6 16.4477 6.44772 16 7 16H30.04C30.5923 16 31.04 16.4477 31.04 17C31.04 17.5523 30.5923 18 30.04 18H7C6.44772 18 6 17.5523 6 17Z" fill="#00CCEA"/>
<path fill-rule="evenodd" clip-rule="evenodd" d="M15 6C15.5523 6 16 6.44772 16 7V13C16 13.5523 15.5523 14 15 14C14.4477 14 14 13.5523 14 13V7C14 6.44772 14.4477 6 15 6Z" fill="#F5B6CD"/>
<path fill-rule="evenodd" clip-rule="evenodd" d="M33 6C33.5523 6 34 6.44772 34 7V13C34 13.5523 33.5523 14 33 14C32.4477 14 32 13.5523 32 13V7C32 6.44772 32.4477 6 33 6Z" fill="#FF7F37"/>
</svg>
