<svg width="48" height="48" viewBox="0 0 48 48" fill="none" xmlns="http://www.w3.org/2000/svg">
<path fill-rule="evenodd" clip-rule="evenodd" d="M19 36C19.5523 36 20 36.4477 20 37V39.96C20 40.5123 19.5523 40.96 19 40.96C18.4477 40.96 18 40.5123 18 39.96V37C18 36.4477 18.4477 36 19 36Z" fill="#FF7F37"/>
<path fill-rule="evenodd" clip-rule="evenodd" d="M29 36C29.5523 36 30 36.4477 30 37V39.96C30 40.5123 29.5523 40.96 29 40.96C28.4477 40.96 28 40.5123 28 39.96V37C28 36.4477 28.4477 36 29 36Z" fill="#FDDA24"/>
<path fill-rule="evenodd" clip-rule="evenodd" d="M15.0234 34.3984C15.5757 34.3984 16.0234 34.8462 16.0234 35.3984V39.9584C16.0234 40.5107 15.5757 40.9584 15.0234 40.9584C14.4712 40.9584 14.0234 40.5107 14.0234 39.9584V35.3984C14.0234 34.8462 14.4712 34.3984 15.0234 34.3984Z" fill="#FF7F37"/>
<path fill-rule="evenodd" clip-rule="evenodd" d="M33.0234 34.3984C33.5757 34.3984 34.0234 34.8462 34.0234 35.3984V39.9584C34.0234 40.5107 33.5757 40.9584 33.0234 40.9584C32.4712 40.9584 32.0234 40.5107 32.0234 39.9584V35.3984C32.0234 34.8462 32.4712 34.3984 33.0234 34.3984Z" fill="#FDDA24"/>
<path fill-rule="evenodd" clip-rule="evenodd" d="M15 20C14.4477 20 14 20.4477 14 21C14 21.5523 14.4477 22 15 22C15.5523 22 16 21.5523 16 21C16 20.4477 15.5523 20 15 20ZM12 21C12 19.3431 13.3431 18 15 18C16.6569 18 18 19.3431 18 21C18 22.6569 16.6569 24 15 24C13.3431 24 12 22.6569 12 21Z" fill="#F5B6CD"/>
<path fill-rule="evenodd" clip-rule="evenodd" d="M22 17C22 16.4477 22.4477 16 23 16H27C27.5523 16 28 16.4477 28 17C28 17.5523 27.5523 18 27 18H23C22.4477 18 22 17.5523 22 17Z" fill="#F5B6CD"/>
<path fill-rule="evenodd" clip-rule="evenodd" d="M42.9766 20C43.5288 20 43.9766 20.4477 43.9766 21C43.9766 23.7523 41.7288 26 38.9766 26C38.4243 26 37.9766 25.5523 37.9766 25C37.9766 24.4477 38.4243 24 38.9766 24C40.6243 24 41.9766 22.6477 41.9766 21C41.9766 20.4477 42.4243 20 42.9766 20Z" fill="#FDDA24"/>
<path fill-rule="evenodd" clip-rule="evenodd" d="M17.9766 13C17.9766 12.4477 18.4243 12 18.9766 12H26.4766C32.1777 12 37.3239 15.5247 39.2148 20.6541C39.4059 21.1723 39.1406 21.7472 38.6224 21.9383C38.1043 22.1293 37.5293 21.8641 37.3383 21.3459C35.7492 17.0353 31.3754 14 26.4766 14H18.9766C18.4243 14 17.9766 13.5523 17.9766 13Z" fill="#00CCEA"/>
<path fill-rule="evenodd" clip-rule="evenodd" d="M37.9543 20.0619C38.4725 19.871 39.0474 20.1363 39.2383 20.6546C39.696 21.8968 39.9562 23.223 39.9995 24.609L39.9996 24.6108C40.2162 31.9556 34.3227 38.0003 27 38.0003C26.4477 38.0003 26 37.5526 26 37.0003C26 36.448 26.4477 36.0003 27 36.0003C33.1971 36.0003 38.1834 30.8854 38.0005 24.6705C37.9637 23.4969 37.7439 22.3835 37.3617 21.346C37.1707 20.8277 37.4361 20.2529 37.9543 20.0619Z" fill="#FDDA24"/>
<path fill-rule="evenodd" clip-rule="evenodd" d="M10.115 30.1355C10.5925 29.8581 11.2046 30.0203 11.482 30.4978C13.3922 33.7855 16.9315 36.0002 20.9974 36.0002H26.9974C27.5496 36.0002 27.9974 36.4479 27.9974 37.0002C27.9974 37.5525 27.5496 38.0002 26.9974 38.0002H20.9974C16.1832 38.0002 12.0025 35.3748 9.7527 31.5025C9.47525 31.025 9.63745 30.413 10.115 30.1355Z" fill="#FF7F37"/>
<path fill-rule="evenodd" clip-rule="evenodd" d="M5.20994 20.1492C5.44774 20.0507 5.70261 20 5.96 20H9.7C10.2523 20 10.7 20.4477 10.7 21C10.7 21.5523 10.2523 22 9.7 22H6V28.02C6 29.1077 6.89228 30 7.98 30H10.62C11.1723 30 11.62 30.4477 11.62 31C11.62 31.5523 11.1723 32 10.62 32H7.98C5.78772 32 4 30.2123 4 28.02V21.96C4 21.7026 4.0507 21.4477 4.1492 21.2099C4.24769 20.9721 4.39207 20.7561 4.57407 20.5741C4.75607 20.3921 4.97214 20.2477 5.20994 20.1492Z" fill="#9063CD"/>
<path fill-rule="evenodd" clip-rule="evenodd" d="M12.0034 9C12.0034 8.44772 12.4511 8 13.0034 8H15.0034C17.7557 8 20.0034 10.2477 20.0034 13C20.0034 13.5523 19.5557 14 19.0034 14C18.4511 14 18.0034 13.5523 18.0034 13C18.0034 11.3523 16.6511 10 15.0034 10H14.0034V16.1C14.0034 16.3827 13.8837 16.6522 13.674 16.8418C12.3302 18.0568 11.2666 19.5998 10.6449 21.337C10.4588 21.8569 9.88642 22.1276 9.36643 21.9415C8.84645 21.7554 8.57578 21.183 8.76188 20.663C9.44798 18.746 10.5816 17.0413 12.0034 15.6662V9Z" fill="#00C389"/>
</svg>
