<svg width="48" height="48" viewBox="0 0 48 48" fill="none" xmlns="http://www.w3.org/2000/svg">
<path fill-rule="evenodd" clip-rule="evenodd" d="M19 18C19.5523 18 20 18.4477 20 19V41C20 41.5523 19.5523 42 19 42C18.4477 42 18 41.5523 18 41V19C18 18.4477 18.4477 18 19 18Z" fill="#00C389"/>
<path fill-rule="evenodd" clip-rule="evenodd" d="M15 18C15.5523 18 16 18.4477 16 19V41C16 41.5477 16.4523 42 17 42C17.5477 42 18 41.5477 18 41C18 40.4477 18.4477 40 19 40C19.5523 40 20 40.4477 20 41C20 42.6523 18.6523 44 17 44C15.3477 44 14 42.6523 14 41V19C14 18.4477 14.4477 18 15 18Z" fill="#FF7F37"/>
<path fill-rule="evenodd" clip-rule="evenodd" d="M11 4C11.5523 4 12 4.44772 12 5V13C12 15.7677 14.2323 18 17 18C19.7677 18 22 15.7677 22 13V5C22 4.44772 22.4477 4 23 4C23.5523 4 24 4.44772 24 5V13C24 16.8723 20.8723 20 17 20C13.1277 20 10 16.8723 10 13V5C10 4.44772 10.4477 4 11 4Z" fill="#00C389"/>
<path fill-rule="evenodd" clip-rule="evenodd" d="M15 4C15.5523 4 16 4.44772 16 5V13C16 13.5523 15.5523 14 15 14C14.4477 14 14 13.5523 14 13V5C14 4.44772 14.4477 4 15 4Z" fill="#F5B6CD"/>
<path fill-rule="evenodd" clip-rule="evenodd" d="M28 5C28 4.44772 28.4477 4 29 4C33.9723 4 38 8.02772 38 13C38 13.5523 37.5523 14 37 14C36.4477 14 36 13.5523 36 13C36 9.47183 33.3935 6.55563 30 6.0708V18.18C30 18.7323 29.5523 19.18 29 19.18C28.4477 19.18 28 18.7323 28 18.18V5Z" fill="#FDDA24"/>
<path fill-rule="evenodd" clip-rule="evenodd" d="M37 12C37.5523 12 38 12.4477 38 13V21C38 23.41 36.2765 25.4332 34 25.8991V38C34 38.5523 33.5523 39 33 39C32.4477 39 32 38.5523 32 38V25C32 24.4477 32.4477 24 33 24C34.6477 24 36 22.6477 36 21V13C36 12.4477 36.4477 12 37 12Z" fill="#9063CD"/>
<path fill-rule="evenodd" clip-rule="evenodd" d="M29 17.1797C29.5523 17.1797 30 17.6274 30 18.1797V40.9997C30 41.5474 30.4523 41.9997 31 41.9997C31.5477 41.9997 32 41.5474 32 40.9997V37.9997C32 37.4474 32.4477 36.9997 33 36.9997C33.5523 36.9997 34 37.4474 34 37.9997V40.9997C34 42.652 32.6523 43.9997 31 43.9997C29.3477 43.9997 28 42.652 28 40.9997V18.1797C28 17.6274 28.4477 17.1797 29 17.1797Z" fill="#00CCEA"/>
<path fill-rule="evenodd" clip-rule="evenodd" d="M19 4C19.5523 4 20 4.44772 20 5V13C20 13.5523 19.5523 14 19 14C18.4477 14 18 13.5523 18 13V5C18 4.44772 18.4477 4 19 4Z" fill="#F5B6CD"/>
</svg>
