<svg width="48" height="48" viewBox="0 0 48 48" fill="none" xmlns="http://www.w3.org/2000/svg">
<path d="M16.8382 26.9981C16.7074 26.9973 16.5781 26.9704 16.4579 26.9189C16.3377 26.8673 16.229 26.7923 16.1382 26.6981L6.27821 16.6981C6.09256 16.5071 5.99037 16.2502 5.99412 15.9839C5.99787 15.7176 6.10725 15.4637 6.29821 15.2781C6.48917 15.0924 6.74605 14.9902 7.01235 14.994C7.27865 14.9977 7.53256 15.1071 7.71821 15.2981L17.5582 25.2981C17.6964 25.4391 17.7898 25.6178 17.8266 25.8118C17.8634 26.0058 17.8419 26.2063 17.7649 26.3881C17.6879 26.5699 17.5588 26.7248 17.3939 26.8334C17.229 26.9419 17.0356 26.9992 16.8382 26.9981V26.9981Z" fill="#FDDA24"/>
<path d="M24.0004 33C23.4712 32.9978 22.9477 32.8906 22.4602 32.6846C21.9727 32.4786 21.5309 32.178 21.1604 31.8L16.1404 26.7C16.0364 26.6096 15.9523 26.4987 15.8932 26.3742C15.8341 26.2497 15.8013 26.1144 15.797 25.9767C15.7927 25.8389 15.8169 25.7018 15.8681 25.5739C15.9192 25.4459 15.9963 25.33 16.0944 25.2332C16.1926 25.1365 16.3096 25.061 16.4383 25.0117C16.5669 24.9623 16.7044 24.9401 16.842 24.9463C16.9797 24.9526 17.1145 24.9873 17.2382 25.0481C17.3618 25.109 17.4715 25.1947 17.5604 25.3L22.6004 30.4C22.9743 30.7665 23.4769 30.9717 24.0004 30.9717C24.5239 30.9717 25.0266 30.7665 25.4004 30.4L30.4404 25.3C30.5294 25.1947 30.6391 25.109 30.7627 25.0481C30.8863 24.9873 31.0212 24.9526 31.1588 24.9463C31.2965 24.9401 31.434 24.9623 31.5626 25.0117C31.6913 25.061 31.8083 25.1365 31.9064 25.2332C32.0046 25.33 32.0816 25.4459 32.1328 25.5739C32.184 25.7018 32.2082 25.8389 32.2039 25.9767C32.1996 26.1144 32.1668 26.2497 32.1077 26.3742C32.0486 26.4987 31.9644 26.6096 31.8604 26.7L26.8404 31.8C26.47 32.178 26.0282 32.4786 25.5407 32.6846C25.0532 32.8906 24.5297 32.9978 24.0004 33Z" fill="#9063CD"/>
<path d="M31.161 26.9981C30.9636 26.9992 30.7702 26.9419 30.6053 26.8334C30.4404 26.7248 30.3113 26.5699 30.2343 26.3881C30.1573 26.2063 30.1359 26.0058 30.1727 25.8118C30.2094 25.6178 30.3028 25.4391 30.441 25.2981L40.281 15.2981C40.4667 15.1071 40.7206 14.9977 40.9869 14.994C41.2532 14.9902 41.5101 15.0924 41.701 15.2781C41.892 15.4637 42.0014 15.7176 42.0051 15.9839C42.0089 16.2502 41.9067 16.5071 41.721 16.6981L31.861 26.6981C31.7703 26.7923 31.6616 26.8673 31.5414 26.9189C31.4211 26.9704 31.2918 26.9973 31.161 26.9981Z" fill="#FF7F37"/>
</svg>
