<svg width="48" height="48" viewBox="0 0 48 48" fill="none" xmlns="http://www.w3.org/2000/svg">
<path fill-rule="evenodd" clip-rule="evenodd" d="M25.2578 11C25.2578 10.4477 25.7055 10 26.2578 10H39.9978C42.2101 10 43.9978 11.7877 43.9978 14V19C43.9978 19.5523 43.5501 20 42.9978 20H33.5178C32.9655 20 32.5178 19.5523 32.5178 19C32.5178 18.4477 32.9655 18 33.5178 18H41.9978V14C41.9978 12.8923 41.1055 12 39.9978 12H26.2578C25.7055 12 25.2578 11.5523 25.2578 11Z" fill="#9063CD"/>
<path fill-rule="evenodd" clip-rule="evenodd" d="M4 9C4 8.44772 4.44772 8 5 8H19C19.2652 8 19.5196 8.10536 19.7071 8.29289L21.4142 10H26.26C26.8123 10 27.26 10.4477 27.26 11C27.26 11.5523 26.8123 12 26.26 12H21C20.7348 12 20.4804 11.8946 20.2929 11.7071L18.5858 10H6V19C6 19.5523 5.55228 20 5 20C4.44772 20 4 19.5523 4 19V9Z" fill="#00CCEA"/>
<path fill-rule="evenodd" clip-rule="evenodd" d="M5 18C5.55228 18 6 18.4477 6 19V25C6 25.5523 5.55228 26 5 26C4.44772 26 4 25.5523 4 25V19C4 18.4477 4.44772 18 5 18Z" fill="#FF7F37"/>
<path fill-rule="evenodd" clip-rule="evenodd" d="M5 24C5.55228 24 6 24.4477 6 25V36C6 37.1077 6.89228 38 8 38H13.6C14.1523 38 14.6 38.4477 14.6 39C14.6 39.5523 14.1523 40 13.6 40H8C5.78772 40 4 38.2123 4 36V25C4 24.4477 4.44772 24 5 24Z" fill="#F5B6CD"/>
<path fill-rule="evenodd" clip-rule="evenodd" d="M43.0016 35C43.5539 35 44.0016 35.4477 44.0016 36C44.0016 38.2123 42.2139 40 40.0016 40H13.6016C13.0493 40 12.6016 39.5523 12.6016 39C12.6016 38.4477 13.0493 38 13.6016 38H40.0016C41.1093 38 42.0016 37.1077 42.0016 36C42.0016 35.4477 42.4493 35 43.0016 35Z" fill="#FDDA24"/>
<path fill-rule="evenodd" clip-rule="evenodd" d="M43 18C43.5523 18 44 18.4477 44 19V36C44 36.5523 43.5523 37 43 37C42.4477 37 42 36.5523 42 36V19C42 18.4477 42.4477 18 43 18Z" fill="#00C389"/>
<path fill-rule="evenodd" clip-rule="evenodd" d="M4 19C4 18.4477 4.44772 18 5 18H33.52C34.0723 18 34.52 18.4477 34.52 19C34.52 19.5523 34.0723 20 33.52 20H5C4.44772 20 4 19.5523 4 19Z" fill="#FF7F37"/>
</svg>
