<svg width="48" height="48" viewBox="0 0 48 48" fill="none" xmlns="http://www.w3.org/2000/svg">
<path fill-rule="evenodd" clip-rule="evenodd" d="M18 31C18 30.4477 18.4477 30 19 30H27C27.5523 30 28 30.4477 28 31V41C28 41.5523 27.5523 42 27 42C26.4477 42 26 41.5523 26 41V32H20V41C20 41.5523 19.5523 42 19 42C18.4477 42 18 41.5523 18 41V31Z" fill="#F5B6CD"/>
<path fill-rule="evenodd" clip-rule="evenodd" d="M23 16C23.5523 16 24 16.4477 24 17V20H27C27.5523 20 28 20.4477 28 21C28 21.5523 27.5523 22 27 22H24V25C24 25.5523 23.5523 26 23 26C22.4477 26 22 25.5523 22 25V22H19C18.4477 22 18 21.5523 18 21C18 20.4477 18.4477 20 19 20H22V17C22 16.4477 22.4477 16 23 16Z" fill="#00CCEA"/>
<path fill-rule="evenodd" clip-rule="evenodd" d="M32 25C32 24.4477 32.4477 24 33 24H41C41.5523 24 42 24.4477 42 25V41C42 41.5523 41.5523 42 41 42H33C32.4477 42 32 41.5523 32 41C32 40.4477 32.4477 40 33 40H40V26H33C32.4477 26 32 25.5523 32 25Z" fill="#00C389"/>
<path fill-rule="evenodd" clip-rule="evenodd" d="M4 25C4 24.4477 4.44772 24 5 24H13C13.5523 24 14 24.4477 14 25C14 25.5523 13.5523 26 13 26H6V40H13C13.5523 40 14 40.4477 14 41C14 41.5523 13.5523 42 13 42H5C4.44772 42 4 41.5523 4 41V25Z" fill="#FDDA24"/>
<path fill-rule="evenodd" clip-rule="evenodd" d="M31.5206 11.2272C31.9258 10.852 32.5585 10.8763 32.9338 11.2815C33.5993 12.0003 34 12.9608 34 14.0009V41.0009C34 41.5532 33.5523 42.0009 33 42.0009H13C12.4477 42.0009 12 41.5532 12 41.0009C12 40.4487 12.4477 40.0009 13 40.0009H32V14.0009C32 13.4811 31.8007 13.0016 31.4662 12.6404C31.091 12.2351 31.1153 11.6024 31.5206 11.2272Z" fill="#FF7F37"/>
<path fill-rule="evenodd" clip-rule="evenodd" d="M12 14C12 11.7877 13.7877 10 16 10H29.9999C29.9999 10 29.9998 10 29.9999 10C30.5506 9.99995 31.0954 10.1136 31.6001 10.3338C32.1049 10.5541 32.5587 10.8762 32.9332 11.28C33.3088 11.6849 33.2849 12.3177 32.88 12.6932C32.4751 13.0688 31.8423 13.0449 31.4668 12.64C31.2795 12.4381 31.0526 12.277 30.8003 12.1669C30.5479 12.0568 30.2755 12 30.0001 12H16C14.8923 12 14 12.8923 14 14V41C14 41.5523 13.5523 42 13 42C12.4477 42 12 41.5523 12 41V14Z" fill="#9063CD"/>
</svg>
