<svg width="48" height="48" viewBox="0 0 48 48" fill="none" xmlns="http://www.w3.org/2000/svg">
<path fill-rule="evenodd" clip-rule="evenodd" d="M25.0886 16.1478C22.3908 15.4545 20 17.4453 20 19.9999C20 20.5522 19.5523 20.9999 19 20.9999C18.4477 20.9999 18 20.5522 18 19.9999C18 16.1552 21.6081 13.1864 25.5894 14.2115L25.5934 14.2126L25.5934 14.2126C27.6229 14.7441 29.2758 16.3971 29.8074 18.4266L29.8083 18.4303L29.8083 18.4303C30.5961 21.4858 29.0114 24.2973 26.5196 25.4476C25.5944 25.8759 25 26.8979 25 28.0599V28.9999C25 29.5522 24.5523 29.9999 24 29.9999C23.4477 29.9999 23 29.5522 23 28.9999V28.0599C23 26.2621 23.9255 24.4442 25.6801 23.6324L25.6809 23.632C27.3483 22.8624 28.4032 20.995 27.8721 18.9315C27.5233 17.6025 26.4176 16.4967 25.0886 16.1478Z" fill="#FF7F37"/>
<path fill-rule="evenodd" clip-rule="evenodd" d="M23.9998 4C27.7466 3.99936 31.4183 5.05078 34.5968 7.03455C37.7753 9.01833 40.3329 11.8547 41.9784 15.2208C42.221 15.717 42.0154 16.3158 41.5192 16.5584C41.023 16.801 40.4242 16.5954 40.1816 16.0992C38.7006 13.0696 36.3986 10.5167 33.5378 8.73122C30.6771 6.94574 27.3724 5.99942 24.0002 6C23.4479 6.00009 23.0001 5.55246 23 5.00017C22.9999 4.44789 23.4475 4.0001 23.9998 4Z" fill="#FDDA24"/>
<path fill-rule="evenodd" clip-rule="evenodd" d="M39.8293 13.4438C40.3043 13.162 40.9178 13.3185 41.1996 13.7935C42.6004 16.154 43.5003 18.7775 43.8432 21.5008C44.1862 24.2241 43.965 26.9889 43.1933 29.623C42.4216 32.2571 41.1159 34.7041 39.3576 36.8118C37.5993 38.9195 35.426 40.6427 32.9729 41.8742C32.4793 42.122 31.8783 41.9227 31.6306 41.4291C31.3828 40.9355 31.582 40.3346 32.0756 40.0868C34.2834 38.9785 36.2394 37.4276 37.8219 35.5307C39.4043 33.6337 40.5794 31.4314 41.274 29.0607C41.9685 26.69 42.1676 24.2017 41.8589 21.7507C41.5502 19.2998 40.7403 16.9386 39.4797 14.8141C39.1978 14.3392 39.3544 13.7257 39.8293 13.4438Z" fill="#00C389"/>
<path fill-rule="evenodd" clip-rule="evenodd" d="M11.2733 38.1406C10.8827 38.5312 10.2496 38.5312 9.85906 38.1406C6.74589 35.0275 4.74696 30.974 4.1723 26.609C3.59763 22.244 4.47934 17.8113 6.68068 13.9985C6.95683 13.5202 7.56841 13.3563 8.04671 13.6325C8.525 13.9086 8.68887 14.5202 8.41273 14.9985C6.43152 18.43 5.63798 22.4194 6.15518 26.348C6.67238 30.2765 8.47142 33.9246 11.2733 36.7264C11.6638 37.1169 11.6638 37.7501 11.2733 38.1406Z" fill="#9063CD"/>
<path fill-rule="evenodd" clip-rule="evenodd" d="M10.004 36.9022C10.3902 36.5074 11.0234 36.5005 11.4181 36.8868C14.7784 40.1747 19.2954 42.0114 23.9967 42.0016L23.9987 42.0016C26.9212 42.0016 29.6661 41.3188 32.086 40.0899C32.5784 39.8399 33.1803 40.0364 33.4304 40.5288C33.6804 41.0212 33.484 41.6231 32.9915 41.8732C30.2917 43.2442 27.2369 44.0014 23.9997 44.0016C18.7746 44.0122 13.7542 41.9706 10.0194 38.3163C9.62463 37.9301 9.61774 37.297 10.004 36.9022Z" fill="#00CCEA"/>
<path fill-rule="evenodd" clip-rule="evenodd" d="M6.02405 15.2196C9.28539 8.57068 16.1054 4 24.0019 4C24.5541 4 25.0019 4.44772 25.0019 5C25.0019 5.55228 24.5541 6 24.0019 6C16.8983 6 10.7583 10.1093 7.81967 16.1004C7.57645 16.5962 6.97732 16.801 6.48147 16.5578C5.98563 16.3146 5.78083 15.7155 6.02405 15.2196Z" fill="#F5B6CD"/>
<path d="M25 33C25 33.5523 24.5523 34 24 34C23.4477 34 23 33.5523 23 33C23 32.4477 23.4477 32 24 32C24.5523 32 25 32.4477 25 33Z" fill="#FF7F41"/>
<path fill-rule="evenodd" clip-rule="evenodd" d="M8.70664 35.3156C8.24603 35.6203 7.62561 35.4939 7.32089 35.0333C5.2699 31.933 4.12354 28.3225 4.01046 24.6069C3.89738 20.8913 4.82205 17.2178 6.68069 13.9985C6.95684 13.5202 7.56843 13.3563 8.04672 13.6325C8.52501 13.9086 8.68889 14.5202 8.41275 14.9985C6.73996 17.8958 5.90776 21.202 6.00953 24.5461C6.11131 27.8901 7.14303 31.1396 8.98892 33.9298C9.29364 34.3904 9.16726 35.0109 8.70664 35.3156Z" fill="#9063CD"/>
</svg>
