<svg width="48" height="48" viewBox="0 0 48 48" fill="none" xmlns="http://www.w3.org/2000/svg">
<path fill-rule="evenodd" clip-rule="evenodd" d="M18 11C18 10.4477 18.4477 10 19 10H23C23.5523 10 24 10.4477 24 11C24 11.5523 23.5523 12 23 12H19C18.4477 12 18 11.5523 18 11Z" fill="#F5B6CD"/>
<path fill-rule="evenodd" clip-rule="evenodd" d="M21 34C20.4477 34 20 34.4477 20 35C20 35.5523 20.4477 36 21 36C21.5523 36 22 35.5523 22 35C22 34.4477 21.5523 34 21 34ZM18 35C18 33.3431 19.3431 32 21 32C22.6569 32 24 33.3431 24 35C24 36.6569 22.6569 38 21 38C19.3431 38 18 36.6569 18 35Z" fill="#F5B6CD"/>
<path fill-rule="evenodd" clip-rule="evenodd" d="M14 8C12.8923 8 12 8.89228 12 10V38C12 39.1077 12.8923 40 14 40C14.5523 40 15 40.4477 15 41C15 41.5523 14.5523 42 14 42C11.7877 42 10 40.2123 10 38V10C10 7.78772 11.7877 6 14 6H28C30.2123 6 32 7.78772 32 10V11.26C32 11.8123 31.5523 12.26 31 12.26C30.4477 12.26 30 11.8123 30 11.26V10C30 8.89228 29.1077 8 28 8H14Z" fill="#9063CD"/>
<path fill-rule="evenodd" clip-rule="evenodd" d="M31 25.7422C31.5523 25.7422 32 26.1899 32 26.7422V38.0022C32 40.2145 30.2123 42.0022 28 42.0022H14C13.4477 42.0022 13 41.5545 13 41.0022C13 40.4499 13.4477 40.0022 14 40.0022H28C29.1077 40.0022 30 39.1099 30 38.0022V26.7422C30 26.1899 30.4477 25.7422 31 25.7422Z" fill="#FF7F37"/>
<path fill-rule="evenodd" clip-rule="evenodd" d="M37.2233 12.1326C37.5686 11.7016 38.1979 11.6321 38.629 11.9774C40.0837 13.1428 41.1406 14.7312 41.6536 16.5231C42.1667 18.3151 42.1106 20.2221 41.4931 21.9808C40.8755 23.7395 39.7271 25.263 38.2064 26.3409C36.6859 27.4186 34.8682 27.9976 33.0045 27.9978C31.8221 27.9999 30.651 27.7684 29.5583 27.3166C28.4652 26.8647 27.4722 26.2014 26.6363 25.3646C26.246 24.9739 26.2463 24.3407 26.637 23.9504C27.0277 23.5601 27.6609 23.5604 28.0512 23.9511C28.701 24.6015 29.4728 25.1171 30.3224 25.4683C31.172 25.8196 32.0826 25.9995 33.0019 25.9979L33.0037 25.9978C34.4533 25.9978 35.8672 25.5475 37.0499 24.7092C38.2326 23.8709 39.1257 22.686 39.606 21.3182C40.0863 19.9505 40.1299 18.4673 39.7309 17.0736C39.3319 15.68 38.5099 14.4446 37.3785 13.5383C36.9475 13.193 36.878 12.5637 37.2233 12.1326ZM33.0045 27.9978C33.0043 27.9978 33.0041 27.9978 33.0038 27.9978L33.0037 26.9978L33.0056 27.9978C33.0052 27.9978 33.0049 27.9978 33.0045 27.9978Z" fill="#00CCEA"/>
<path d="M27.0752 15.2707C27.2865 14.935 27.525 14.6193 27.7876 14.3264L29.1043 10.8861L25.3825 14.2055L24 18.9971L26.628 25.3594L26.135 20.3649C26.0465 19.9219 26 19.4645 26 18.9972C26.0002 17.6785 26.3729 16.3868 27.0752 15.2707Z" fill="#FDDA24"/>
<path d="M28.0422 25.3691C28.4354 24.9813 28.4398 24.3482 28.052 23.955C27.0934 22.9831 26.4105 21.7434 26.135 20.3649L26.628 25.3594C27.0159 25.7526 27.649 25.757 28.0422 25.3691Z" fill="#FDDA24"/>
<path d="M24 18.9971C24 21.4754 25.0147 23.7236 26.628 25.3594L24 18.9971Z" fill="#FDDA24"/>
<path d="M25.3825 14.2055C24.4794 15.6405 24.0002 17.3015 24 18.9971L25.3825 14.2055Z" fill="#FDDA24"/>
<path d="M29.1043 10.8861C27.5757 11.6198 26.2856 12.7705 25.3825 14.2055L29.1043 10.8861Z" fill="#FDDA24"/>
<path d="M34.0221 10.0585C32.3376 9.86549 30.6329 10.1524 29.1043 10.8861L27.7876 14.3264C28.398 13.6456 29.1386 13.0881 29.9697 12.6891C31.1586 12.1185 32.4844 11.8954 33.7945 12.0455C35.1046 12.1956 36.3456 12.7128 37.3746 13.5375C37.8055 13.8829 38.4349 13.8135 38.7803 13.3826C39.1257 12.9516 39.0564 12.3223 38.6254 11.9769C37.3024 10.9165 35.7067 10.2515 34.0221 10.0585Z" fill="#FDDA24"/>
<path fill-rule="evenodd" clip-rule="evenodd" d="M33 18C33.5523 18 34 18.4477 34 19V23C34 23.5523 33.5523 24 33 24C32.4477 24 32 23.5523 32 23V19C32 18.4477 32.4477 18 33 18Z" fill="#00C389"/>
</svg>
