<svg width="48" height="48" viewBox="0 0 48 48" fill="none" xmlns="http://www.w3.org/2000/svg">
<path fill-rule="evenodd" clip-rule="evenodd" d="M34 24C32.8954 24 32 24.8954 32 26C32 27.1046 32.8954 28 34 28C35.1046 28 36 27.1046 36 26C36 24.8954 35.1046 24 34 24ZM30 26C30 23.7909 31.7909 22 34 22C36.2091 22 38 23.7909 38 26C38 28.2091 36.2091 30 34 30C31.7909 30 30 28.2091 30 26Z" fill="#9063CD"/>
<path fill-rule="evenodd" clip-rule="evenodd" d="M25.9609 9C25.9609 8.44772 26.4087 8 26.9609 8H37.0009C37.5532 8 38.0009 8.44772 38.0009 9V14.64C38.0009 15.1923 37.5532 15.64 37.0009 15.64C36.4487 15.64 36.0009 15.1923 36.0009 14.64V10H26.9609C26.4087 10 25.9609 9.55228 25.9609 9Z" fill="#F5B6CD"/>
<path fill-rule="evenodd" clip-rule="evenodd" d="M10 10C8.89661 10 8 10.9079 8 12C8 13.1077 8.89228 14 10 14H24.9C25.4523 14 25.9 14.4477 25.9 15C25.9 15.5523 25.4523 16 24.9 16H10C7.78772 16 6 14.2123 6 12C6 9.81206 7.78339 8 10 8H26.96C27.5123 8 27.96 8.44772 27.96 9C27.96 9.55228 27.5123 10 26.96 10H10Z" fill="#00CCEA"/>
<path fill-rule="evenodd" clip-rule="evenodd" d="M23.8984 15C23.8984 14.4477 24.3462 14 24.8984 14H40.9984C41.5507 14 41.9984 14.4477 41.9984 15V25C41.9984 25.5523 41.5507 26 40.9984 26C40.4461 26 39.9984 25.5523 39.9984 25V16H24.8984C24.3462 16 23.8984 15.5523 23.8984 15Z" fill="#00C389"/>
<path fill-rule="evenodd" clip-rule="evenodd" d="M41.0025 24C41.5548 24 42.0025 24.4477 42.0025 25V39C42.0025 39.5523 41.5548 40 41.0025 40H14.5625C14.0102 40 13.5625 39.5523 13.5625 39C13.5625 38.4477 14.0102 38 14.5625 38H40.0025V25C40.0025 24.4477 40.4502 24 41.0025 24Z" fill="#FDDA24"/>
<path fill-rule="evenodd" clip-rule="evenodd" d="M7 11C7.55228 11 8 11.4477 8 12V36C8 37.1077 8.89229 38 10 38H14.56C15.1123 38 15.56 38.4477 15.56 39C15.56 39.5523 15.1123 40 14.56 40H10C7.78772 40 6 38.2123 6 36V12C6 11.4477 6.44772 11 7 11Z" fill="#FF7F37"/>
</svg>
