<svg width="48" height="48" viewBox="0 0 48 48" fill="none" xmlns="http://www.w3.org/2000/svg">
<path fill-rule="evenodd" clip-rule="evenodd" d="M28.0391 13C28.0391 12.4477 28.4868 12 29.0391 12H40.9991C41.5513 12 41.9991 12.4477 41.9991 13V35C41.9991 35.5523 41.5513 36 40.9991 36H34.2191C33.6668 36 33.2191 35.5523 33.2191 35C33.2191 34.4477 33.6668 34 34.2191 34H39.9991V14H29.0391C28.4868 14 28.0391 13.5523 28.0391 13Z" fill="#00C389"/>
<path fill-rule="evenodd" clip-rule="evenodd" d="M12 35C12 34.4477 12.4477 34 13 34H34.22C34.7723 34 35.22 34.4477 35.22 35C35.22 35.5523 34.7723 36 34.22 36H13C12.4477 36 12 35.5523 12 35Z" fill="#00CCEA"/>
<path fill-rule="evenodd" clip-rule="evenodd" d="M7 18.7031C7.55228 18.7031 8 19.1508 8 19.7031V34.0031H13C13.5523 34.0031 14 34.4508 14 35.0031C14 35.5554 13.5523 36.0031 13 36.0031H7C6.44772 36.0031 6 35.5554 6 35.0031V19.7031C6 19.1508 6.44772 18.7031 7 18.7031Z" fill="#9063CD"/>
<path fill-rule="evenodd" clip-rule="evenodd" d="M6 13C6 12.4477 6.44772 12 7 12H29.04C29.5923 12 30.04 12.4477 30.04 13C30.04 13.5523 29.5923 14 29.04 14H8V19.7C8 20.2523 7.55228 20.7 7 20.7C6.44772 20.7 6 20.2523 6 19.7V13Z" fill="#FDDA24"/>
<path fill-rule="evenodd" clip-rule="evenodd" d="M24 20C21.7909 20 20 21.7909 20 24C20 26.2091 21.7909 28 24 28C26.2091 28 28 26.2091 28 24C28 21.7909 26.2091 20 24 20ZM18 24C18 20.6863 20.6863 18 24 18C27.3137 18 30 20.6863 30 24C30 27.3137 27.3137 30 24 30C20.6863 30 18 27.3137 18 24Z" fill="#F5B6CD"/>
<path fill-rule="evenodd" clip-rule="evenodd" d="M10 17C10 16.4477 10.4477 16 11 16H15C15.5523 16 16 16.4477 16 17C16 17.5523 15.5523 18 15 18H12V30H15C15.5523 30 16 30.4477 16 31C16 31.5523 15.5523 32 15 32H11C10.4477 32 10 31.5523 10 31V17ZM32 17C32 16.4477 32.4477 16 33 16H37C37.5523 16 38 16.4477 38 17V31C38 31.5523 37.5523 32 37 32H33C32.4477 32 32 31.5523 32 31V17ZM34 18V30H36V18H34Z" fill="#FF7F37"/>
</svg>
