<svg width="48" height="48" viewBox="0 0 48 48" fill="none" xmlns="http://www.w3.org/2000/svg">
<path fill-rule="evenodd" clip-rule="evenodd" d="M11 12C11 7.58772 14.5877 4 19 4C23.4123 4 27 7.58772 27 12C27 15.6169 24.5753 18.676 21.2861 19.6582C20.7569 19.8162 20.1998 19.5153 20.0418 18.9861C19.8838 18.4569 20.1847 17.8998 20.7139 17.7418C23.1847 17.004 25 14.7031 25 12C25 8.69229 22.3077 6 19 6C15.6923 6 13 8.69229 13 12C13 14.7031 14.8153 17.004 17.2861 17.7418C17.8153 17.8998 18.1162 18.4569 17.9582 18.9861C17.8002 19.5153 17.2431 19.8162 16.7139 19.6582C13.4246 18.676 11 15.6169 11 12Z" fill="#FDDA24"/>
<path fill-rule="evenodd" clip-rule="evenodd" d="M12 23C12 22.4477 12.4477 22 13 22C15.7523 22 18 24.2477 18 27V29C18 29.5523 17.5523 30 17 30C16.4477 30 16 29.5523 16 29V27C16 25.7023 15.1612 24.5879 14 24.173V33C14 33.5523 13.5523 34 13 34C12.4477 34 12 33.5523 12 33V23Z" fill="#FF7F37"/>
<path fill-rule="evenodd" clip-rule="evenodd" d="M19 14C18.4523 14 18 14.4523 18 15V29C18 29.5523 17.5523 30 17 30C16.4477 30 16 29.5523 16 29V15C16 13.3477 17.3477 12 19 12C20.6523 12 22 13.3477 22 15V29C22 29.5523 21.5523 30 21 30C20.4477 30 20 29.5523 20 29V15C20 14.4523 19.5477 14 19 14Z" fill="#00C389"/>
<path fill-rule="evenodd" clip-rule="evenodd" d="M23 22C22.4523 22 22 22.4523 22 23V28H24V23C24 22.4523 23.5477 22 23 22ZM25.8946 22.2116C25.5469 20.9396 24.3796 20 23 20C21.3477 20 20 21.3477 20 23V29C20 29.5523 20.4477 30 21 30H25C25.5523 30 26 29.5523 26 29V25C26 24.4523 26.4523 24 27 24C27.5477 24 28 24.4523 28 25V31C28 31.5523 28.4477 32 29 32C29.5523 32 30 31.5523 30 31V25C30 23.3477 28.6523 22 27 22C26.61 22 26.2369 22.0751 25.8946 22.2116Z" fill="#00CCEA"/>
<path fill-rule="evenodd" clip-rule="evenodd" d="M31 26C30.4523 26 30 26.4523 30 27V31C30 31.5523 29.5523 32 29 32C28.4477 32 28 31.5523 28 31V27C28 25.3477 29.3477 24 31 24C32.6523 24 34 25.3477 34 27V33C34 33.5523 33.5523 34 33 34C32.4477 34 32 33.5523 32 33V27C32 26.4523 31.5477 26 31 26Z" fill="#9063CD"/>
<path fill-rule="evenodd" clip-rule="evenodd" d="M13 32C13.5523 32 14 32.4477 14 33C14 37.9677 18.0323 42 23 42C24.2789 42 25.5012 41.7298 26.5953 41.2456C27.1003 41.022 27.6909 41.2502 27.9144 41.7553C28.138 42.2603 27.9098 42.8509 27.4047 43.0744C26.0588 43.6702 24.5611 44 23 44C16.9277 44 12 39.0723 12 33C12 32.4477 12.4477 32 13 32Z" fill="#F5B6CD"/>
<path fill-rule="evenodd" clip-rule="evenodd" d="M33.0003 32C33.5525 32 34.0003 32.4477 34.0003 33C34.0003 37.5109 31.2922 41.3834 27.3992 43.077C26.8927 43.2973 26.3036 43.0654 26.0833 42.5589C25.863 42.0525 26.0949 41.4633 26.6013 41.243C29.7883 39.8566 32.0003 36.6891 32.0003 33C32.0003 32.4477 32.448 32 33.0003 32Z" fill="#9063CD"/>
</svg>
