<svg width="48" height="48" viewBox="0 0 48 48" fill="none" xmlns="http://www.w3.org/2000/svg">
<path fill-rule="evenodd" clip-rule="evenodd" d="M12 10C10.8954 10 10 10.8954 10 12C10 13.1046 10.8954 14 12 14C13.1046 14 14 13.1046 14 12C14 10.8954 13.1046 10 12 10ZM8 12C8 9.79086 9.79086 8 12 8C14.2091 8 16 9.79086 16 12C16 14.2091 14.2091 16 12 16C9.79086 16 8 14.2091 8 12Z" fill="#FDDA24"/>
<path fill-rule="evenodd" clip-rule="evenodd" d="M36 34C34.8954 34 34 34.8954 34 36C34 37.1046 34.8954 38 36 38C37.1046 38 38 37.1046 38 36C38 34.8954 37.1046 34 36 34ZM32 36C32 33.7909 33.7909 32 36 32C38.2091 32 40 33.7909 40 36C40 38.2091 38.2091 40 36 40C33.7909 40 32 38.2091 32 36Z" fill="#FDDA24"/>
<path fill-rule="evenodd" clip-rule="evenodd" d="M12 34C10.8954 34 10 34.8954 10 36C10 37.1046 10.8954 38 12 38C13.1046 38 14 37.1046 14 36C14 34.8954 13.1046 34 12 34ZM8 36C8 33.7909 9.79086 32 12 32C14.2091 32 16 33.7909 16 36C16 38.2091 14.2091 40 12 40C9.79086 40 8 38.2091 8 36Z" fill="#00CCEA"/>
<path fill-rule="evenodd" clip-rule="evenodd" d="M36 10C34.8954 10 34 10.8954 34 12C34 13.1046 34.8954 14 36 14C37.1046 14 38 13.1046 38 12C38 10.8954 37.1046 10 36 10ZM32 12C32 9.79086 33.7909 8 36 8C38.2091 8 40 9.79086 40 12C40 14.2091 38.2091 16 36 16C33.7909 16 32 14.2091 32 12Z" fill="#00CCEA"/>
<path fill-rule="evenodd" clip-rule="evenodd" d="M24 6C22.8954 6 22 6.89543 22 8C22 9.10457 22.8954 10 24 10C25.1046 10 26 9.10457 26 8C26 6.89543 25.1046 6 24 6ZM20 8C20 5.79086 21.7909 4 24 4C26.2091 4 28 5.79086 28 8C28 10.2091 26.2091 12 24 12C21.7909 12 20 10.2091 20 8Z" fill="#FF7F37"/>
<path fill-rule="evenodd" clip-rule="evenodd" d="M24 38C22.8954 38 22 38.8954 22 40C22 41.1046 22.8954 42 24 42C25.1046 42 26 41.1046 26 40C26 38.8954 25.1046 38 24 38ZM20 40C20 37.7909 21.7909 36 24 36C26.2091 36 28 37.7909 28 40C28 42.2091 26.2091 44 24 44C21.7909 44 20 42.2091 20 40Z" fill="#FF7F37"/>
<path fill-rule="evenodd" clip-rule="evenodd" d="M40 22C38.8954 22 38 22.8954 38 24C38 25.1046 38.8954 26 40 26C41.1046 26 42 25.1046 42 24C42 22.8954 41.1046 22 40 22ZM36 24C36 21.7909 37.7909 20 40 20C42.2091 20 44 21.7909 44 24C44 26.2091 42.2091 28 40 28C37.7909 28 36 26.2091 36 24Z" fill="#00C389"/>
<path fill-rule="evenodd" clip-rule="evenodd" d="M8 22C6.89543 22 6 22.8954 6 24C6 25.1046 6.89543 26 8 26C9.10457 26 10 25.1046 10 24C10 22.8954 9.10457 22 8 22ZM4 24C4 21.7909 5.79086 20 8 20C10.2091 20 12 21.7909 12 24C12 26.2091 10.2091 28 8 28C5.79086 28 4 26.2091 4 24Z" fill="#00C389"/>
<path fill-rule="evenodd" clip-rule="evenodd" d="M33.7071 14.2929C34.0976 14.6834 34.0976 15.3166 33.7071 15.7071L29.7071 19.7071C29.3166 20.0976 28.6834 20.0976 28.2929 19.7071C27.9024 19.3166 27.9024 18.6834 28.2929 18.2929L32.2929 14.2929C32.6834 13.9024 33.3166 13.9024 33.7071 14.2929ZM19.7071 28.2929C20.0976 28.6834 20.0976 29.3166 19.7071 29.7071L15.7071 33.7071C15.3166 34.0976 14.6834 34.0976 14.2929 33.7071C13.9024 33.3166 13.9024 32.6834 14.2929 32.2929L18.2929 28.2929C18.6834 27.9024 19.3166 27.9024 19.7071 28.2929Z" fill="#00CCEA"/>
<path fill-rule="evenodd" clip-rule="evenodd" d="M14.2929 14.2929C14.6834 13.9024 15.3166 13.9024 15.7071 14.2929L19.7071 18.2929C20.0976 18.6834 20.0976 19.3166 19.7071 19.7071C19.3166 20.0976 18.6834 20.0976 18.2929 19.7071L14.2929 15.7071C13.9024 15.3166 13.9024 14.6834 14.2929 14.2929ZM28.2929 28.2929C28.6834 27.9024 29.3166 27.9024 29.7071 28.2929L33.7071 32.2929C34.0976 32.6834 34.0976 33.3166 33.7071 33.7071C33.3166 34.0976 32.6834 34.0976 32.2929 33.7071L28.2929 29.7071C27.9024 29.3166 27.9024 28.6834 28.2929 28.2929Z" fill="#FDDA24"/>
<path fill-rule="evenodd" clip-rule="evenodd" d="M24 10.2812C24.5523 10.2812 25 10.729 25 11.2812V16.9213C25 17.4735 24.5523 17.9213 24 17.9213C23.4477 17.9213 23 17.4735 23 16.9213V11.2812C23 10.729 23.4477 10.2812 24 10.2812ZM24 30.0812C24.5523 30.0812 25 30.529 25 31.0812V36.7213C25 37.2735 24.5523 37.7213 24 37.7213C23.4477 37.7213 23 37.2735 23 36.7213V31.0812C23 30.529 23.4477 30.0812 24 30.0812Z" fill="#FF7F37"/>
<path fill-rule="evenodd" clip-rule="evenodd" d="M10.2812 24C10.2812 23.4477 10.729 23 11.2812 23H16.9213C17.4735 23 17.9213 23.4477 17.9213 24C17.9213 24.5523 17.4735 25 16.9213 25H11.2812C10.729 25 10.2812 24.5523 10.2812 24ZM30.0812 24C30.0812 23.4477 30.529 23 31.0812 23H36.7213C37.2735 23 37.7213 23.4477 37.7213 24C37.7213 24.5523 37.2735 25 36.7213 25H31.0812C30.529 25 30.0812 24.5523 30.0812 24Z" fill="#00C389"/>
<path fill-rule="evenodd" clip-rule="evenodd" d="M28.2298 18.361C28.6173 17.9674 29.2504 17.9624 29.644 18.3498C31.1094 19.7923 32.0025 21.7869 32.0025 24.0025C32.0025 28.4148 28.4148 32.0025 24.0025 32.0025C21.802 32.0025 19.7918 31.086 18.3554 29.6496C17.9649 29.2591 17.9649 28.6259 18.3554 28.2354C18.7459 27.8449 19.3791 27.8449 19.7696 28.2354C20.8532 29.319 22.363 30.0025 24.0025 30.0025C27.3102 30.0025 30.0025 27.3102 30.0025 24.0025C30.0025 22.3381 29.3356 20.8527 28.241 19.7752C27.8474 19.3877 27.8424 18.7546 28.2298 18.361Z" fill="#9063CD"/>
<path fill-rule="evenodd" clip-rule="evenodd" d="M16 24C16 19.5877 19.5877 16 24 16C26.2156 16 28.2102 16.8931 29.6527 18.3585C30.0401 18.7521 30.0351 19.3852 29.6415 19.7727C29.2479 20.1601 28.6148 20.1551 28.2274 19.7615C27.1498 18.6669 25.6644 18 24 18C20.6923 18 18 20.6923 18 24C18 25.6644 18.6669 27.1498 19.7615 28.2274C20.1551 28.6148 20.1601 29.2479 19.7727 29.6415C19.3852 30.0351 18.7521 30.0401 18.3585 29.6527C16.8931 28.2102 16 26.2156 16 24Z" fill="#F5B6CD"/>
</svg>
