<svg width="48" height="48" viewBox="0 0 48 48" fill="none" xmlns="http://www.w3.org/2000/svg">
<path fill-rule="evenodd" clip-rule="evenodd" d="M23 15C23 14.4477 23.4477 14 24 14H27C33.0723 14 38 18.9277 38 25V33C38 33.5523 37.5523 34 37 34C36.4477 34 36 33.5523 36 33V25C36 20.0323 31.9677 16 27 16H24C23.4477 16 23 15.5523 23 15Z" fill="#00CCEA"/>
<path fill-rule="evenodd" clip-rule="evenodd" d="M37 32C37.5523 32 38 32.4477 38 33V36C38 38.2123 36.2123 40 34 40H14C11.7877 40 10 38.2123 10 36C10 35.4477 10.4477 35 11 35C11.5523 35 12 35.4477 12 36C12 37.1077 12.8923 38 14 38H34C35.1077 38 36 37.1077 36 36V33C36 32.4477 36.4477 32 37 32Z" fill="#FF7F37"/>
<path fill-rule="evenodd" clip-rule="evenodd" d="M10 25C10 18.9277 14.9277 14 21 14H24C24.5523 14 25 14.4477 25 15C25 15.5523 24.5523 16 24 16H21C16.0323 16 12 20.0323 12 25V36C12 36.5523 11.5523 37 11 37C10.4477 37 10 36.5523 10 36V25Z" fill="#FDDA24"/>
<path fill-rule="evenodd" clip-rule="evenodd" d="M24 18C24.5523 18 25 18.4477 25 19V21C25 21.5523 24.5523 22 24 22C23.4477 22 23 21.5523 23 21V19C23 18.4477 23.4477 18 24 18Z" fill="#9063CD"/>
<path fill-rule="evenodd" clip-rule="evenodd" d="M23 27C23 26.4477 23.4477 26 24 26C26.2123 26 28 27.7877 28 30C28 31.8669 26.727 33.4314 25 33.8744V35C25 35.5523 24.5523 36 24 36C23.4477 36 23 35.5523 23 35V33.8744C21.273 33.4314 20 31.8669 20 30C20 29.4477 20.4477 29 21 29C21.5523 29 22 29.4477 22 30C22 31.1077 22.8923 32 24 32C25.1077 32 26 31.1077 26 30C26 28.8923 25.1077 28 24 28C23.4477 28 23 27.5523 23 27Z" fill="#F5B6CD"/>
<path fill-rule="evenodd" clip-rule="evenodd" d="M20 24C20 21.7877 21.7877 20 24 20C26.2123 20 28 21.7877 28 24C28 24.5523 27.5523 25 27 25C26.4477 25 26 24.5523 26 24C26 22.8923 25.1077 22 24 22C22.8923 22 22 22.8923 22 24C22 25.1077 22.8923 26 24 26C24.5523 26 25 26.4477 25 27C25 27.5523 24.5523 28 24 28C21.7877 28 20 26.2123 20 24Z" fill="#9063CD"/>
<path fill-rule="evenodd" clip-rule="evenodd" d="M16 7C16 6.44772 16.4477 6 17 6H31C31.5523 6 32 6.44772 32 7V8C32 12.4123 28.4123 16 24 16C19.5877 16 16 12.4123 16 8V7ZM18 8C18 11.3077 20.6923 14 24 14C27.3077 14 30 11.3077 30 8H18Z" fill="#00C389"/>
</svg>
