<svg width="48" height="48" viewBox="0 0 48 48" fill="none" xmlns="http://www.w3.org/2000/svg">
<path fill-rule="evenodd" clip-rule="evenodd" d="M8 18C6.89228 18 6 18.8923 6 20V28C6 28.5523 5.55228 29 5 29C4.44772 29 4 28.5523 4 28V20C4 17.7877 5.78772 16 8 16H17C17.5523 16 18 16.4477 18 17C18 17.5523 17.5523 18 17 18H8Z" fill="#F5B6CD"/>
<path fill-rule="evenodd" clip-rule="evenodd" d="M5 27C5.55228 27 6 27.4477 6 28C6 29.1077 6.89228 30 8 30H11C11.5523 30 12 30.4477 12 31V35L18.4 30.2C18.8418 29.8686 19.4686 29.9582 19.8 30.4C20.1314 30.8418 20.0418 31.4686 19.6 31.8L11.6 37.8C11.297 38.0273 10.8916 38.0638 10.5528 37.8944C10.214 37.725 10 37.3788 10 37V32H8C5.78772 32 4 30.2123 4 28C4 27.4477 4.44772 27 5 27Z" fill="#00CCEA"/>
<path fill-rule="evenodd" clip-rule="evenodd" d="M29 24C29.5523 24 30 24.4477 30 25V28C30 30.2123 28.2123 32 26 32H19C18.4477 32 18 31.5523 18 31C18 30.4477 18.4477 30 19 30H26C27.1077 30 28 29.1077 28 28V25C28 24.4477 28.4477 24 29 24Z" fill="#FF7F37"/>
<path fill-rule="evenodd" clip-rule="evenodd" d="M39 9C39 8.44772 39.4477 8 40 8C42.2123 8 44 9.78772 44 12V20C44 22.2123 42.2123 24 40 24H38V29C38 29.3788 37.786 29.725 37.4472 29.8944C37.1084 30.0638 36.703 30.0273 36.4 29.8L28.6667 24H20C19.4477 24 19 23.5523 19 23C19 22.4477 19.4477 22 20 22H29C29.2164 22 29.4269 22.0702 29.6 22.2L36 27V23C36 22.4477 36.4477 22 37 22H40C41.1077 22 42 21.1077 42 20V12C42 10.8923 41.1077 10 40 10C39.4477 10 39 9.55228 39 9Z" fill="#FDDA24"/>
<path fill-rule="evenodd" clip-rule="evenodd" d="M16 12C16 9.78772 17.7877 8 20 8H40C40.5523 8 41 8.44772 41 9C41 9.55228 40.5523 10 40 10H20C18.8923 10 18 10.8923 18 12V20C18 21.1077 18.8923 22 20 22C20.5523 22 21 22.4477 21 23C21 23.5523 20.5523 24 20 24C17.7877 24 16 22.2123 16 20V12Z" fill="#9063CD"/>
<path fill-rule="evenodd" clip-rule="evenodd" d="M22 17C22 16.4477 22.4477 16 23 16H25C25.5523 16 26 16.4477 26 17C26 17.5523 25.5523 18 25 18H23C22.4477 18 22 17.5523 22 17ZM28 17C28 16.4477 28.4477 16 29 16H31C31.5523 16 32 16.4477 32 17C32 17.5523 31.5523 18 31 18H29C28.4477 18 28 17.5523 28 17ZM34 17C34 16.4477 34.4477 16 35 16H37C37.5523 16 38 16.4477 38 17C38 17.5523 37.5523 18 37 18H35C34.4477 18 34 17.5523 34 17Z" fill="#00C389"/>
</svg>
