<svg width="48" height="48" viewBox="0 0 48 48" fill="none" xmlns="http://www.w3.org/2000/svg">
<path fill-rule="evenodd" clip-rule="evenodd" d="M16 21C16 20.4477 16.4477 20 17 20H37C37.5523 20 38 20.4477 38 21V30C38 30.5523 37.5523 31 37 31C36.4477 31 36 30.5523 36 30V22H17C16.4477 22 16 21.5523 16 21Z" fill="#FDDA24"/>
<path fill-rule="evenodd" clip-rule="evenodd" d="M37.0026 29C37.5549 29.0002 38.0025 29.448 38.0023 30.0003C38.0015 32.5393 37.3103 35.0303 36.0026 37.2067C34.6949 39.383 32.82 41.1628 30.5785 42.3555C28.337 43.5481 25.8134 44.1087 23.2778 43.9773C20.7422 43.846 18.29 43.0275 16.1838 41.6095C15.7257 41.3011 15.6043 40.6797 15.9128 40.2215C16.2212 39.7634 16.8426 39.642 17.3008 39.9505C19.1061 41.1658 21.2079 41.8674 23.3813 41.98C25.5547 42.0927 27.7178 41.6121 29.639 40.5898C31.5603 39.5676 33.1674 38.0421 34.2883 36.1766C35.4092 34.3112 36.0016 32.176 36.0023 29.9997C36.0025 29.4474 36.4503 28.9998 37.0026 29Z" fill="#9063CD"/>
<path fill-rule="evenodd" clip-rule="evenodd" d="M10 21C10 20.4477 10.4477 20 11 20H17C17.5523 20 18 20.4477 18 21C18 21.5523 17.5523 22 17 22H12V30C12 34.1327 14.1023 37.7889 17.3002 39.9517C17.7577 40.261 17.8777 40.8827 17.5683 41.3402C17.259 41.7977 16.6373 41.9177 16.1798 41.6083C12.4577 39.0911 10 34.8273 10 30V21Z" fill="#FF7F37"/>
<path fill-rule="evenodd" clip-rule="evenodd" d="M14 14C14 8.46772 18.4677 4 24 4H24.0009C26.5324 4.0023 28.9693 4.96275 30.8216 6.68829C31.2257 7.06474 31.2482 7.69751 30.8717 8.10162C30.4953 8.50573 29.8625 8.52815 29.4584 8.15171C27.9759 6.77069 26.0256 6.00196 23.9996 6C19.572 6.00024 16 9.57243 16 14V20C16 20.5523 15.5523 21 15 21C14.4477 21 14 20.5523 14 20V14Z" fill="#00C389"/>
<path fill-rule="evenodd" clip-rule="evenodd" d="M29.409 6.74015C29.7855 6.3361 30.4183 6.31376 30.8224 6.69027C32.7773 8.51196 34.0006 11.1136 34.0006 14.0019V20.0019C34.0006 20.5542 33.5529 21.0019 33.0006 21.0019C32.4483 21.0019 32.0006 20.5542 32.0006 20.0019V14.0019C32.0006 11.6901 31.0239 9.6118 29.4589 8.15349C29.0548 7.77698 29.0325 7.14421 29.409 6.74015Z" fill="#F5B6CD"/>
<path fill-rule="evenodd" clip-rule="evenodd" d="M16.7148 28.7695C17.1053 28.3789 17.7385 28.3789 18.129 28.7695L21.129 31.7695C21.415 32.0555 21.5006 32.4856 21.3458 32.8592C21.191 33.2329 20.8264 33.4766 20.4219 33.4766H14.4219C14.0174 33.4766 13.6528 33.2329 13.498 32.8592C13.3432 32.4856 13.4288 32.0555 13.7148 31.7695L16.7148 28.7695ZM16.8361 31.4766H18.0077L17.4219 30.8908L16.8361 31.4766ZM26.8748 29.6495C27.2653 29.2589 27.8985 29.2589 28.289 29.6495L30.5819 31.9424L32.8748 29.6495C33.2653 29.2589 33.8985 29.2589 34.289 29.6495C34.6795 30.04 34.6795 30.6731 34.289 31.0637L31.289 34.0637C30.8985 34.4542 30.2653 34.4542 29.8748 34.0637L26.8748 31.0637C26.4843 30.6731 26.4843 30.04 26.8748 29.6495Z" fill="#00CCEA"/>
<path fill-rule="evenodd" clip-rule="evenodd" d="M24.0019 25.8594C22.453 25.8594 21.0657 26.4698 20.049 27.4865C19.6585 27.877 19.0253 27.877 18.6348 27.4865C18.2442 27.096 18.2442 26.4628 18.6348 26.0723C20.0181 24.689 21.9107 23.8594 24.0019 23.8594C28.1942 23.8594 31.5819 27.2471 31.5819 31.4394V32.7594C31.5819 33.3117 31.1342 33.7594 30.5819 33.7594C30.0296 33.7594 29.5819 33.3117 29.5819 32.7594V31.4394C29.5819 28.3517 27.0896 25.8594 24.0019 25.8594ZM16.9034 29.3643C17.2023 29.183 17.5742 29.171 17.8842 29.3326L29.1242 35.1927C29.4079 35.3406 29.6037 35.6153 29.6509 35.9317C29.6982 36.2481 29.5911 36.5681 29.363 36.7924C27.9875 38.145 26.0998 38.9994 24.0019 38.9994C19.8096 38.9994 16.4219 35.6117 16.4219 31.4194V30.2194C16.4219 29.8698 16.6044 29.5456 16.9034 29.3643ZM18.4404 31.8781C18.6727 34.7502 21.0686 36.9994 24.0019 36.9994C25.026 36.9994 25.9842 36.7234 26.8124 36.2429L18.4404 31.8781Z" fill="#00CCEA"/>
</svg>
