<svg width="48" height="48" viewBox="0 0 48 48" fill="none" xmlns="http://www.w3.org/2000/svg">
<path fill-rule="evenodd" clip-rule="evenodd" d="M24.0034 19.3828C24.5557 19.3828 25.0034 19.8305 25.0034 20.3828V23.0046L27.4932 22.1921C28.0182 22.0208 28.5827 22.3076 28.7541 22.8326C28.9254 23.3576 28.6386 23.9221 28.1136 24.0935L25.622 24.9065L27.1717 27.034C27.4969 27.4805 27.3986 28.106 26.9522 28.4311C26.5057 28.7563 25.8803 28.658 25.5551 28.2116L24.0034 26.0813L22.4517 28.2116C22.1265 28.658 21.501 28.7563 21.0546 28.4311C20.6082 28.106 20.5099 27.4805 20.8351 27.034L22.3848 24.9065L19.8932 24.0935C19.3681 23.9221 19.0814 23.3576 19.2527 22.8326C19.4241 22.3076 19.9886 22.0208 20.5136 22.1921L23.0034 23.0046V20.3828C23.0034 19.8305 23.4511 19.3828 24.0034 19.3828Z" fill="#00C389"/>
<path fill-rule="evenodd" clip-rule="evenodd" d="M36.0034 19.3828C36.5557 19.3828 37.0034 19.8305 37.0034 20.3828V23.0046L39.4932 22.1921C40.0182 22.0208 40.5827 22.3076 40.7541 22.8326C40.9254 23.3576 40.6387 23.9221 40.1136 24.0935L37.622 24.9065L39.1717 27.034C39.4969 27.4805 39.3986 28.106 38.9522 28.4311C38.5057 28.7563 37.8803 28.658 37.5551 28.2116L36.0034 26.0813L34.4517 28.2116C34.1265 28.658 33.501 28.7563 33.0546 28.4311C32.6082 28.106 32.5099 27.4805 32.8351 27.034L34.3848 24.9065L31.8932 24.0935C31.3681 23.9221 31.0814 23.3576 31.2527 22.8326C31.4241 22.3076 31.9886 22.0208 32.5136 22.1921L35.0034 23.0046V20.3828C35.0034 19.8305 35.4511 19.3828 36.0034 19.3828Z" fill="#FDDA24"/>
<path fill-rule="evenodd" clip-rule="evenodd" d="M12.0034 19.3828C12.5557 19.3828 13.0034 19.8305 13.0034 20.3828V23.0046L15.4932 22.1921C16.0182 22.0208 16.5827 22.3076 16.7541 22.8326C16.9254 23.3576 16.6386 23.9221 16.1136 24.0935L13.622 24.9065L15.1717 27.034C15.4969 27.4805 15.3986 28.106 14.9522 28.4311C14.5057 28.7563 13.8803 28.658 13.5551 28.2116L12.0034 26.0813L10.4517 28.2116C10.1265 28.658 9.50105 28.7563 9.05463 28.4311C8.60822 28.106 8.50993 27.4805 8.83509 27.034L10.3848 24.9065L7.89318 24.0935C7.36814 23.9221 7.0814 23.3576 7.25273 22.8326C7.42406 22.3076 7.98857 22.0208 8.51361 22.1921L11.0034 23.0046V20.3828C11.0034 19.8305 11.4511 19.3828 12.0034 19.3828Z" fill="#9063CD"/>
<path fill-rule="evenodd" clip-rule="evenodd" d="M13.3594 33C13.3594 32.4477 13.8071 32 14.3594 32H40.9994C41.5517 32 41.9994 32.4477 41.9994 33C41.9994 33.5523 41.5517 34 40.9994 34H14.3594C13.8071 34 13.3594 33.5523 13.3594 33Z" fill="#FF7F37"/>
<path fill-rule="evenodd" clip-rule="evenodd" d="M31.2 15C31.2 14.4477 31.6477 14 32.2 14H41C41.5523 14 42 14.4477 42 15C42 15.5523 41.5523 16 41 16H32.2C31.6477 16 31.2 15.5523 31.2 15ZM6 33C6 32.4477 6.44772 32 7 32H14.36C14.9123 32 15.36 32.4477 15.36 33C15.36 33.5523 14.9123 34 14.36 34H7C6.44772 34 6 33.5523 6 33Z" fill="#00CCEA"/>
<path fill-rule="evenodd" clip-rule="evenodd" d="M6 15C6 14.4477 6.44772 14 7 14H32.2C32.7523 14 33.2 14.4477 33.2 15C33.2 15.5523 32.7523 16 32.2 16H7C6.44772 16 6 15.5523 6 15Z" fill="#F5B6CD"/>
</svg>
