<svg width="48" height="48" viewBox="0 0 48 48" fill="none" xmlns="http://www.w3.org/2000/svg">
<path fill-rule="evenodd" clip-rule="evenodd" d="M19.7727 18.361C20.1601 18.7546 20.1551 19.3877 19.7615 19.7752C18.6669 20.8527 18 22.3381 18 24.0025C18 27.3102 20.6923 30.0025 24 30.0025C25.6395 30.0025 27.1493 29.319 28.2329 28.2354C28.6234 27.8449 29.2566 27.8449 29.6471 28.2354C30.0376 28.6259 30.0376 29.2591 29.6471 29.6496C28.2107 31.086 26.2005 32.0025 24 32.0025C19.5877 32.0025 16 28.4148 16 24.0025C16 21.7869 16.8931 19.7923 18.3585 18.3498C18.7521 17.9624 19.3852 17.9674 19.7727 18.361Z" fill="#9063CD"/>
<path fill-rule="evenodd" clip-rule="evenodd" d="M24.0025 18C22.3381 18 20.8527 18.6669 19.7752 19.7615C19.3877 20.1551 18.7546 20.1601 18.361 19.7727C17.9674 19.3852 17.9624 18.7521 18.3498 18.3585C19.7923 16.8931 21.7869 16 24.0025 16C28.4148 16 32.0025 19.5877 32.0025 24C32.0025 26.2156 31.1094 28.2102 29.644 29.6527C29.2504 30.0401 28.6173 30.0351 28.2298 29.6415C27.8424 29.2479 27.8474 28.6148 28.241 28.2274C29.3356 27.1498 30.0025 25.6644 30.0025 24C30.0025 20.6923 27.3102 18 24.0025 18Z" fill="#00C389"/>
<path fill-rule="evenodd" clip-rule="evenodd" d="M18.8028 8C18.8028 5.78772 20.5905 4 22.8028 4H25.2228C27.4351 4 29.2228 5.78772 29.2228 8V9.11442C31.3029 9.84772 33.2079 11.0123 34.8114 12.5348C35.2119 12.9151 35.2283 13.5481 34.848 13.9486C34.4677 14.3491 33.8347 14.3655 33.4342 13.9852C31.8767 12.5063 29.9932 11.4144 27.9358 10.7979C27.5126 10.6711 27.2228 10.2817 27.2228 9.84V8C27.2228 6.89228 26.3305 6 25.2228 6H22.8028C21.6951 6 20.8028 6.89228 20.8028 8V9.84C20.8028 10.2847 20.5091 10.676 20.0821 10.8002C19.0559 11.0987 18.0919 11.5074 17.2067 12.0238L17.1971 12.0293L17.1971 12.0293C16.249 12.5684 15.3746 13.2193 14.5729 13.9837C14.1732 14.3649 13.5402 14.3498 13.1591 13.9501C12.778 13.5504 12.793 12.9174 13.1927 12.5363C14.1097 11.6619 15.1137 10.9138 16.2037 10.2934C17.0231 9.81592 17.8933 9.42129 18.8028 9.10836V8Z" fill="#FF7F37"/>
<path fill-rule="evenodd" clip-rule="evenodd" d="M35.2139 11.476C37.1204 10.3524 39.5615 11.03 40.6749 12.8855L40.6821 12.8976L41.9064 15.0052C42.992 16.9117 42.3652 19.3669 40.4341 20.4679C40.4335 20.4683 40.4328 20.4686 40.4322 20.469L39.4682 21.0233C39.6493 21.9611 39.7574 22.934 39.7574 23.94C39.7574 24.946 39.6493 25.919 39.4682 26.8567L40.4412 27.4162C42.3576 28.5341 42.996 30.9613 41.9063 32.8749L41.9021 32.8824L40.682 34.9824C39.5642 36.8987 37.1361 37.5387 35.2225 36.449L35.2189 36.4469L33.6189 35.5269C33.1401 35.2516 32.9752 34.6403 33.2505 34.1615C33.5257 33.6828 34.137 33.5178 34.6158 33.7931L36.2122 34.711C36.2127 34.7113 36.2117 34.7107 36.2122 34.711C37.1782 35.26 38.3914 34.9394 38.9534 33.9765C38.9534 33.9764 38.9533 33.9767 38.9534 33.9765L40.1703 31.8818C40.7175 30.9168 40.3966 29.7074 39.436 29.1453C39.4352 29.1448 39.4343 29.1443 39.4335 29.1438L37.8389 28.2269C37.4555 28.0065 37.2624 27.5604 37.3642 27.13C37.6097 26.0911 37.7574 25.0292 37.7574 23.94C37.7574 22.8509 37.6097 21.7889 37.3642 20.75C37.2624 20.3197 37.4555 19.8736 37.8389 19.6531L39.4425 18.731C40.3888 18.1922 40.7216 16.9706 40.1703 15.9983L38.9566 13.9091C38.3895 12.9706 37.1574 12.65 36.2265 13.2007L36.2159 13.207L34.6158 14.1269C34.137 14.4022 33.5257 14.2373 33.2504 13.7585C32.9752 13.2797 33.1401 12.6684 33.6189 12.3931L35.2139 11.476Z" fill="#00CCEA"/>
<path fill-rule="evenodd" clip-rule="evenodd" d="M13.1541 33.9714C13.5323 33.569 14.1652 33.5493 14.5676 33.9275C16.1224 35.3886 17.987 36.5046 20.0654 37.117C20.4908 37.2424 20.7828 37.6328 20.7828 38.0763V39.9163C20.7828 41.024 21.6751 41.9163 22.7828 41.9163H25.2028C26.3105 41.9163 27.2028 41.024 27.2028 39.9163V38.0763C27.2028 37.6337 27.4937 37.2438 27.9179 37.1177C29.9758 36.506 31.859 35.4143 33.4126 33.9326C33.8123 33.5514 34.4453 33.5664 34.8265 33.9661C35.2076 34.3658 35.1926 34.9987 34.793 35.3799C33.1918 36.907 31.2854 38.073 29.2028 38.8033V39.9163C29.2028 42.1285 27.4151 43.9163 25.2028 43.9163H22.7828C20.5705 43.9163 18.7828 42.1285 18.7828 39.9163V38.8044C16.6723 38.0655 14.7855 36.8768 13.198 35.385C12.7955 35.0068 12.7759 34.3739 13.1541 33.9714Z" fill="#F5B6CD"/>
<path fill-rule="evenodd" clip-rule="evenodd" d="M12.7824 11.4753L14.3774 12.3924C14.8562 12.6677 15.0212 13.279 14.7459 13.7578C14.4706 14.2366 13.8593 14.4015 13.3805 14.1262L11.7698 13.2001C10.8417 12.6511 9.61328 12.9679 9.04407 13.9211L7.83982 16.0486C7.28863 16.9803 7.61194 18.2026 8.57381 18.7504L8.57745 18.7524L10.1774 19.6724C10.5608 19.8929 10.7539 20.339 10.6522 20.7694C10.4066 21.8083 10.259 22.8702 10.259 23.9593C10.259 25.0485 10.4066 26.1104 10.6522 27.1493C10.7539 27.5797 10.5608 28.0258 10.1774 28.2462L8.57745 29.1662L8.57381 29.1683C7.62754 29.7072 7.29474 30.9288 7.84603 31.9011L9.06799 34.0045C9.60714 34.9513 10.8298 35.2839 11.8024 34.7314C11.8029 34.731 11.8035 34.7307 11.8041 34.7303L13.4005 33.8124C13.8793 33.5371 14.4906 33.7021 14.7659 34.1809C15.0412 34.6596 14.8762 35.2709 14.3974 35.5462L12.7974 36.4662L12.7938 36.4683C10.888 37.5536 8.43392 36.9277 7.33229 34.9982L6.10996 32.8942C5.0243 30.9877 5.65111 28.5324 7.58227 27.4314C7.58289 27.4311 7.58352 27.4307 7.58414 27.4303L8.54814 26.876C8.36699 25.9383 8.25898 24.9653 8.25898 23.9593C8.25898 22.9533 8.36699 21.9804 8.54814 21.0426L7.58414 20.4883C7.58352 20.488 7.58289 20.4876 7.58227 20.4873C5.66852 19.3961 4.99193 16.9454 6.11309 15.039L7.31813 12.9101C8.42977 11.0309 10.8737 10.3504 12.7824 11.4753Z" fill="#FDDA24"/>
</svg>
