<svg width="48" height="48" viewBox="0 0 48 48" fill="none" xmlns="http://www.w3.org/2000/svg">
<path fill-rule="evenodd" clip-rule="evenodd" d="M2.29289 26.2929C2.68342 25.9024 3.31658 25.9024 3.70711 26.2929L11.7071 34.2929C12.0976 34.6834 12.0976 35.3166 11.7071 35.7071C11.3166 36.0976 10.6834 36.0976 10.2929 35.7071L2.29289 27.7071C1.90237 27.3166 1.90237 26.6834 2.29289 26.2929Z" fill="#00C389"/>
<path fill-rule="evenodd" clip-rule="evenodd" d="M24.4471 29.5546C24.8376 29.9451 24.8376 30.5783 24.4471 30.9688L15.7071 39.7088C15.3166 40.0993 14.6834 40.0993 14.2929 39.7088C13.9024 39.3183 13.9024 38.6851 14.2929 38.2946L23.0329 29.5546C23.4234 29.1641 24.0566 29.1641 24.4471 29.5546Z" fill="#F5B6CD"/>
<path fill-rule="evenodd" clip-rule="evenodd" d="M35.7093 18.2929C36.0998 18.6834 36.0998 19.3166 35.7093 19.7071L24.4493 30.9671C24.0588 31.3576 23.4256 31.3576 23.0351 30.9671C22.6446 30.5766 22.6446 29.9434 23.0351 29.5529L34.2951 18.2929C34.6856 17.9024 35.3188 17.9024 35.7093 18.2929Z" fill="#9063CD"/>
<path fill-rule="evenodd" clip-rule="evenodd" d="M45.7071 8.29289C46.0976 8.68342 46.0976 9.31658 45.7071 9.70711L35.7071 19.7071C35.3166 20.0976 34.6834 20.0976 34.2929 19.7071C33.9024 19.3166 33.9024 18.6834 34.2929 18.2929L44.2929 8.29289C44.6834 7.90237 45.3166 7.90237 45.7071 8.29289Z" fill="#00CCEA"/>
<path fill-rule="evenodd" clip-rule="evenodd" d="M8.29289 32.2929C8.68342 31.9024 9.31658 31.9024 9.70711 32.2929L15.7071 38.2929C16.0976 38.6834 16.0976 39.3166 15.7071 39.7071C15.3166 40.0976 14.6834 40.0976 14.2929 39.7071L8.29289 33.7071C7.90237 33.3166 7.90237 32.6834 8.29289 32.2929Z" fill="#FDDA24"/>
</svg>
