<svg width="48" height="48" viewBox="0 0 48 48" fill="none" xmlns="http://www.w3.org/2000/svg">
<path fill-rule="evenodd" clip-rule="evenodd" d="M14 29C14 28.4477 14.4477 28 15 28H23C23.5523 28 24 28.4477 24 29V41C24 41.5523 23.5523 42 23 42C22.4477 42 22 41.5523 22 41V30H16V41C16 41.5523 15.5523 42 15 42C14.4477 42 14 41.5523 14 41V29Z" fill="#00C389"/>
<path fill-rule="evenodd" clip-rule="evenodd" d="M7 28C7.55228 28 8 28.4477 8 29V40H30V39C30 38.4477 30.4477 38 31 38C31.5523 38 32 38.4477 32 39V41C32 41.5523 31.5523 42 31 42H7C6.44772 42 6 41.5523 6 41V29C6 28.4477 6.44772 28 7 28Z" fill="#9063CD"/>
<path fill-rule="evenodd" clip-rule="evenodd" d="M14.2929 6.29289C14.4804 6.10536 14.7348 6 15 6H31C31.5523 6 32 6.44772 32 7V23C32 23.5523 31.5523 24 31 24C30.4477 24 30 23.5523 30 23V8H15.4142L11.7071 11.7071C11.5196 11.8946 11.2652 12 11 12H8V29C8 29.5523 7.55228 30 7 30C6.44772 30 6 29.5523 6 29V11C6 10.4477 6.44772 10 7 10H10.5858L14.2929 6.29289Z" fill="#00CCEA"/>
<path fill-rule="evenodd" clip-rule="evenodd" d="M6 17C6 16.4477 6.44772 16 7 16H31C31.5523 16 32 16.4477 32 17C32 17.5523 31.5523 18 31 18H7C6.44772 18 6 17.5523 6 17Z" fill="#F5B6CD"/>
<path fill-rule="evenodd" clip-rule="evenodd" d="M7 11C7 10.4477 7.44772 10 8 10H30C30.5523 10 31 10.4477 31 11C31 11.5523 30.5523 12 30 12H8C7.44772 12 7 11.5523 7 11Z" fill="#00CCEA"/>
<path fill-rule="evenodd" clip-rule="evenodd" d="M6 23C6 22.4477 6.44772 22 7 22H31C31.5523 22 32 22.4477 32 23C32 23.5523 31.5523 24 31 24H7C6.44772 24 6 23.5523 6 23Z" fill="#F5B6CD"/>
<path fill-rule="evenodd" clip-rule="evenodd" d="M6 29C6 28.4477 6.44772 28 7 28H27C27.5523 28 28 28.4477 28 29C28 29.5523 27.5523 30 27 30H7C6.44772 30 6 29.5523 6 29Z" fill="#00C389"/>
<path fill-rule="evenodd" clip-rule="evenodd" d="M35 24C31.134 24 28 27.134 28 31C28 34.866 31.134 38 35 38C38.866 38 42 34.866 42 31C42 27.134 38.866 24 35 24ZM26 31C26 26.0294 30.0294 22 35 22C39.9706 22 44 26.0294 44 31C44 35.9706 39.9706 40 35 40C30.0294 40 26 35.9706 26 31Z" fill="#FF7F37"/>
<path fill-rule="evenodd" clip-rule="evenodd" d="M35 28C33.3431 28 32 29.3431 32 31C32 32.6569 33.3431 34 35 34C36.6569 34 38 32.6569 38 31C38 29.3431 36.6569 28 35 28ZM30 31C30 28.2386 32.2386 26 35 26C37.7614 26 40 28.2386 40 31C40 33.7614 37.7614 36 35 36C32.2386 36 30 33.7614 30 31Z" fill="#FDDA24"/>
</svg>
