<svg width="48" height="48" viewBox="0 0 48 48" fill="none" xmlns="http://www.w3.org/2000/svg">
<path fill-rule="evenodd" clip-rule="evenodd" d="M8.96491 28.0028C9.51567 27.9618 9.99537 28.3751 10.0364 28.9258C10.4976 35.1254 15.6842 40 21.9991 40H22.9991C23.5514 40 23.9991 40.4478 23.9991 41C23.9991 41.5523 23.5514 42 22.9991 42H21.9991C14.634 42 8.58059 36.3147 8.04187 29.0742C8.00089 28.5235 8.41415 28.0438 8.96491 28.0028Z" fill="#FF7F37"/>
<path fill-rule="evenodd" clip-rule="evenodd" d="M7 6C7.55228 6 8 6.44772 8 7V28H23C23.5523 28 24 28.4477 24 29C24 29.5523 23.5523 30 23 30H7C6.44772 30 6 29.5523 6 29V7C6 6.44772 6.44772 6 7 6Z" fill="#FDDA24"/>
<path fill-rule="evenodd" clip-rule="evenodd" d="M6 7C6 6.44772 6.44772 6 7 6H41C41.5523 6 42 6.44772 42 7V14C42 14.5523 41.5523 15 41 15C40.4477 15 40 14.5523 40 14V8H7C6.44772 8 6 7.55228 6 7Z" fill="#00CCEA"/>
<path fill-rule="evenodd" clip-rule="evenodd" d="M41 13C41.5523 13 42 13.4477 42 14V29C42 29.5523 41.5523 30 41 30H37C36.4477 30 36 29.5523 36 29C36 28.4477 36.4477 28 37 28H40V14C40 13.4477 40.4477 13 41 13Z" fill="#9063CD"/>
<path fill-rule="evenodd" clip-rule="evenodd" d="M24 14C21.7909 14 20 15.7909 20 18C20 20.2091 21.7909 22 24 22C26.2091 22 28 20.2091 28 18C28 15.7909 26.2091 14 24 14ZM18 18C18 14.6863 20.6863 12 24 12C27.3137 12 30 14.6863 30 18C30 21.3137 27.3137 24 24 24C20.6863 24 18 21.3137 18 18Z" fill="#F5B6CD"/>
<path fill-rule="evenodd" clip-rule="evenodd" d="M32 11C32 10.4477 32.4477 10 33 10H37C37.5523 10 38 10.4477 38 11C38 11.5523 37.5523 12 37 12H33C32.4477 12 32 11.5523 32 11Z" fill="#FF7F37"/>
<path fill-rule="evenodd" clip-rule="evenodd" d="M10 11C10 10.4477 10.4477 10 11 10H15C15.5523 10 16 10.4477 16 11C16 11.5523 15.5523 12 15 12H12V24H15C15.5523 24 16 24.4477 16 25C16 25.5523 15.5523 26 15 26H11C10.4477 26 10 25.5523 10 25V11Z" fill="#F5B6CD"/>
<path fill-rule="evenodd" clip-rule="evenodd" d="M31.7339 15.7574C32.8591 14.6321 34.3853 14 35.9766 14H36.9766C37.5288 14 37.9766 14.4477 37.9766 15V28C37.9766 29.8385 37.6144 31.659 36.9109 33.3576C36.2073 35.0561 35.1761 36.5995 33.8761 37.8995C32.576 39.1995 31.0327 40.2307 29.3341 40.9343C27.6356 41.6379 25.8151 42 23.9766 42H22.9966C22.4443 42 21.9966 41.5523 21.9966 41C21.9966 40.4477 22.4443 40 22.9966 40H23.9766C25.5524 40 27.1129 39.6896 28.5688 39.0866C30.0247 38.4835 31.3475 37.5996 32.4618 36.4853C33.5761 35.371 34.4601 34.0481 35.0631 32.5922C35.6662 31.1363 35.9766 29.5759 35.9766 28V16C34.9157 16 33.8983 16.4214 33.1481 17.1716C32.398 17.9217 31.9766 18.9391 31.9766 20V25C31.9766 25.5523 31.5288 26 30.9766 26C27.1088 26 23.9766 29.1323 23.9766 33C23.9766 33.5523 23.5288 34 22.9766 34C22.4243 34 21.9766 33.5523 21.9766 33C21.9766 28.3657 25.4753 24.552 29.9766 24.0549V20C29.9766 18.4087 30.6087 16.8826 31.7339 15.7574Z" fill="#00C389"/>
</svg>
