<svg width="48" height="48" viewBox="0 0 48 48" fill="none" xmlns="http://www.w3.org/2000/svg">
<path fill-rule="evenodd" clip-rule="evenodd" d="M20.8041 24.0196C21.3456 23.9113 21.8725 24.2625 21.9808 24.8041L23.9808 34.8041C24.0891 35.3456 23.7379 35.8725 23.1963 35.9808C22.6547 36.0891 22.1279 35.7379 22.0196 35.1963L20.0196 25.1963C19.9113 24.6547 20.2625 24.1279 20.8041 24.0196Z" fill="#00CCEA"/>
<path fill-rule="evenodd" clip-rule="evenodd" d="M13 8C9.13401 8 6 11.134 6 15C6 18.866 9.13401 22 13 22C16.866 22 20 18.866 20 15C20 11.134 16.866 8 13 8ZM4 15C4 10.0294 8.02944 6 13 6C17.9706 6 22 10.0294 22 15C22 19.9706 17.9706 24 13 24C8.02944 24 4 19.9706 4 15Z" fill="#FF7F37"/>
<path fill-rule="evenodd" clip-rule="evenodd" d="M13 12C11.3431 12 10 13.3431 10 15C10 16.6569 11.3431 18 13 18C14.6569 18 16 16.6569 16 15C16 13.3431 14.6569 12 13 12ZM8 15C8 12.2386 10.2386 10 13 10C15.7614 10 18 12.2386 18 15C18 17.7614 15.7614 20 13 20C10.2386 20 8 17.7614 8 15Z" fill="#FDDA24"/>
<path fill-rule="evenodd" clip-rule="evenodd" d="M13 30C10.2386 30 8 32.2386 8 35C8 37.7614 10.2386 40 13 40C15.7614 40 18 37.7614 18 35C18 32.2386 15.7614 30 13 30ZM6 35C6 31.134 9.13401 28 13 28C16.866 28 20 31.134 20 35C20 38.866 16.866 42 13 42C9.13401 42 6 38.866 6 35Z" fill="#9063CD"/>
<path fill-rule="evenodd" clip-rule="evenodd" d="M37 30C34.2386 30 32 32.2386 32 35C32 37.7614 34.2386 40 37 40C39.7614 40 42 37.7614 42 35C42 32.2386 39.7614 30 37 30ZM30 35C30 31.134 33.134 28 37 28C40.866 28 44 31.134 44 35C44 38.866 40.866 42 37 42C33.134 42 30 38.866 30 35Z" fill="#00CCEA"/>
<path fill-rule="evenodd" clip-rule="evenodd" d="M33.6402 22.2318C34.0645 22.5854 34.1218 23.2159 33.7682 23.6402L23.7682 35.6402C23.5782 35.8682 23.2968 36 23 36H13C12.4477 36 12 35.5523 12 35C12 34.4477 12.4477 34 13 34H22.5316L32.2318 22.3598C32.5853 21.9356 33.2159 21.8782 33.6402 22.2318Z" fill="#00C389"/>
<path fill-rule="evenodd" clip-rule="evenodd" d="M26 13C26 12.4477 26.4477 12 27 12H31C31.451 12 31.8461 12.3018 31.9648 12.7369L37.9648 34.7369C38.1101 35.2697 37.7959 35.8194 37.2631 35.9648C36.7303 36.1101 36.1806 35.7959 36.0352 35.2631L30.2362 14H27C26.4477 14 26 13.5523 26 13Z" fill="#F5B6CD"/>
<path fill-rule="evenodd" clip-rule="evenodd" d="M18 25C18 24.4477 18.4477 24 19 24H25C25.5523 24 26 24.4477 26 25C26 25.5523 25.5523 26 25 26H19C18.4477 26 18 25.5523 18 25Z" fill="#FDDA24"/>
</svg>
