<svg width="48" height="48" viewBox="0 0 48 48" fill="none" xmlns="http://www.w3.org/2000/svg">
<path fill-rule="evenodd" clip-rule="evenodd" d="M7 8C7.55228 8 8 8.44772 8 9V41C8 41.5523 7.55228 42 7 42C6.44772 42 6 41.5523 6 41V9C6 8.44772 6.44772 8 7 8ZM13 20C13.5523 20 14 20.4477 14 21V41C14 41.5523 13.5523 42 13 42C12.4477 42 12 41.5523 12 41V21C12 20.4477 12.4477 20 13 20Z" fill="#00C389"/>
<path fill-rule="evenodd" clip-rule="evenodd" d="M12 21C12 20.4477 12.4477 20 13 20H25C25.5523 20 26 20.4477 26 21V41C26 41.5523 25.5523 42 25 42C24.4477 42 24 41.5523 24 41V22H13C12.4477 22 12 21.5523 12 21Z" fill="#F5B6CD"/>
<path fill-rule="evenodd" clip-rule="evenodd" d="M6 9C6 8.44772 6.44772 8 7 8H31C31.5523 8 32 8.44772 32 9V23.8C32 24.3523 31.5523 24.8 31 24.8C30.4477 24.8 30 24.3523 30 23.8V10H7C6.44772 10 6 9.55228 6 9Z" fill="#00CCEA"/>
<path fill-rule="evenodd" clip-rule="evenodd" d="M31 37.2031C31.5523 37.2031 32 37.6508 32 38.2031V41.0031C32 41.5554 31.5523 42.0031 31 42.0031H7C6.44772 42.0031 6 41.5554 6 41.0031C6 40.4508 6.44772 40.0031 7 40.0031H30V38.2031C30 37.6508 30.4477 37.2031 31 37.2031Z" fill="#9063CD"/>
<path fill-rule="evenodd" clip-rule="evenodd" d="M35 24C31.134 24 28 27.134 28 31C28 34.866 31.134 38 35 38C38.866 38 42 34.866 42 31C42 27.134 38.866 24 35 24ZM26 31C26 26.0294 30.0294 22 35 22C39.9706 22 44 26.0294 44 31C44 35.9706 39.9706 40 35 40C30.0294 40 26 35.9706 26 31Z" fill="#FF7F37"/>
<path fill-rule="evenodd" clip-rule="evenodd" d="M35 28C33.3431 28 32 29.3431 32 31C32 32.6569 33.3431 34 35 34C36.6569 34 38 32.6569 38 31C38 29.3431 36.6569 28 35 28ZM30 31C30 28.2386 32.2386 26 35 26C37.7614 26 40 28.2386 40 31C40 33.7614 37.7614 36 35 36C32.2386 36 30 33.7614 30 31Z" fill="#FDDA24"/>
<path fill-rule="evenodd" clip-rule="evenodd" d="M16 17C16 16.4477 16.4477 16 17 16H21C21.5523 16 22 16.4477 22 17C22 17.5523 21.5523 18 21 18H17C16.4477 18 16 17.5523 16 17Z" fill="#00C389"/>
<path d="M21 32C21.5523 32 22 31.5523 22 31C22 30.4477 21.5523 30 21 30C20.4477 30 20 30.4477 20 31C20 31.5523 20.4477 32 21 32Z" fill="#F5B6CD"/>
</svg>
