<svg width="48" height="48" viewBox="0 0 48 48" fill="none" xmlns="http://www.w3.org/2000/svg">
<path fill-rule="evenodd" clip-rule="evenodd" d="M20.5868 21.0775L8.60885 32.8391C8.17065 33.2645 8.14386 33.9591 8.548 34.417C8.98563 34.9128 9.75127 34.9354 10.2173 34.4662L22 22.5L20.5868 21.0775ZM23.9971 23.4317L19.7902 19.1972L7.21577 31.4041C6.01146 32.5732 5.93785 34.4821 7.04854 35.7405C8.25125 37.1031 10.3554 37.1651 11.6363 35.8756L23.9971 23.4317Z" fill="#FDDA24"/>
<path fill-rule="evenodd" clip-rule="evenodd" d="M22.5273 8.73834C22.9178 8.34783 23.551 8.34784 23.9415 8.73837L35.255 20.0523C35.6455 20.4428 35.6455 21.076 35.255 21.4665L28.1838 28.5374C27.7932 28.9279 27.1601 28.9279 26.7696 28.5374L15.456 17.2235C15.0655 16.833 15.0655 16.1998 15.4561 15.8093L22.5273 8.73834ZM23.2343 10.8597L17.5774 16.5164L27.4767 26.4161L33.1336 20.7593L23.2343 10.8597Z" fill="#00C389"/>
<path fill-rule="evenodd" clip-rule="evenodd" d="M21.8327 7.03125C21.7023 7.03125 21.5731 7.05698 21.4526 7.10696C21.3321 7.15694 21.2227 7.23019 21.1305 7.32252L14.0498 14.4032C13.9575 14.4954 13.8835 14.6056 13.8335 14.726C13.7835 14.8465 13.7578 14.9757 13.7578 15.1061C13.7578 15.2366 13.7835 15.3657 13.8335 15.4862C13.8835 15.6067 13.9568 15.7162 14.0491 15.8083C14.4384 16.1976 15.0855 16.1985 15.4751 15.8096C15.4752 15.8094 15.4749 15.8097 15.4751 15.8096L22.5346 8.73003C22.9241 8.34056 22.9251 7.71272 22.5356 7.32324C22.4435 7.23091 22.3333 7.15694 22.2128 7.10696C22.0923 7.05698 21.9631 7.03125 21.8327 7.03125ZM23.9505 5.90976C23.6726 5.63127 23.3425 5.41034 22.9791 5.25959C22.6157 5.10884 22.2261 5.03125 21.8327 5.03125C21.4393 5.03125 21.0497 5.10884 20.6863 5.25959C20.323 5.41029 19.993 5.63113 19.7151 5.90949C19.7152 5.9094 19.715 5.90958 19.7151 5.90949L12.6363 12.9883C12.6364 12.9882 12.6362 12.9884 12.6363 12.9883C12.358 13.2662 12.1368 13.5964 11.9862 13.9597C11.8354 14.3231 11.7578 14.7127 11.7578 15.1061C11.7578 15.4996 11.8354 15.8891 11.9862 16.2525C12.1369 16.6159 12.3577 16.9459 12.6361 17.2238M23.9505 5.90976C25.1201 7.08016 25.1201 8.97238 23.9503 10.1427C23.9502 10.1429 23.9505 10.1425 23.9503 10.1427L16.8908 17.2222C15.7205 18.3925 13.8067 18.3936 12.6361 17.2238" fill="#F5B6CD"/>
<path fill-rule="evenodd" clip-rule="evenodd" d="M35.9733 21.1719C35.8429 21.1719 35.7137 21.1976 35.5932 21.2476C35.4728 21.2976 35.3633 21.3708 35.2712 21.4631L28.1904 28.5439C28.0981 28.636 28.0241 28.7462 27.9741 28.8667C27.9242 28.9872 27.8984 29.1163 27.8984 29.2468C27.8984 29.3772 27.9242 29.5064 27.9741 29.6269C28.0241 29.7473 28.0974 29.8568 28.1897 29.9489L27.4833 30.6568L28.1912 29.9504C28.2833 30.0427 28.3927 30.116 28.5132 30.1659C28.6337 30.2159 28.7629 30.2417 28.8933 30.2417C29.0238 30.2417 29.1529 30.2159 29.2734 30.1659C29.3939 30.116 29.5034 30.0427 29.5955 29.9504L36.6762 22.8697C37.0657 22.4802 37.0657 21.8533 36.6762 21.4639C36.5841 21.3715 36.4739 21.2976 36.3534 21.2476C36.2329 21.1976 36.1038 21.1719 35.9733 21.1719ZM38.0912 20.0504C37.8132 19.7719 37.4831 19.551 37.1197 19.4002C36.7563 19.2495 36.3668 19.1719 35.9733 19.1719C35.5799 19.1719 35.1903 19.2495 34.8269 19.4002C34.4637 19.5509 34.1337 19.7717 33.8558 20.0501C33.8559 20.05 33.8557 20.0502 33.8558 20.0501L26.7769 27.1289C26.7771 27.1288 26.7768 27.1291 26.7769 27.1289C26.4987 27.4067 26.2774 27.7372 26.1268 28.1004C25.976 28.4638 25.8984 28.8533 25.8984 29.2468C25.8984 29.6402 25.976 30.0298 26.1268 30.3932C26.2774 30.7562 26.498 31.086 26.7761 31.3638C27.0539 31.642 27.3838 31.8627 27.7469 32.0133C28.1103 32.1641 28.4999 32.2417 28.8933 32.2417C29.2868 32.2417 29.6763 32.1641 30.0397 32.0133C30.4031 31.8626 30.7332 31.6416 31.0112 31.3631L38.0904 24.2839C39.2607 23.1136 39.261 21.221 38.0912 20.0504Z" fill="#9063CD"/>
<path fill-rule="evenodd" clip-rule="evenodd" d="M37 35C37 34.4477 37.4477 34 38 34C40.2123 34 42 35.7877 42 38V41C42 41.5523 41.5523 42 41 42H23C22.4477 42 22 41.5523 22 41C22 40.4477 22.4477 40 23 40H40V38C40 36.8923 39.1077 36 38 36C37.4477 36 37 35.5523 37 35Z" fill="#00CCEA"/>
<path fill-rule="evenodd" clip-rule="evenodd" d="M22 38C22 35.7877 23.7877 34 26 34H38C38.5523 34 39 34.4477 39 35C39 35.5523 38.5523 36 38 36H26C24.8923 36 24 36.8923 24 38V41C24 41.5523 23.5523 42 23 42C22.4477 42 22 41.5523 22 41V38Z" fill="#FF7F37"/>
</svg>
