<svg width="48" height="48" viewBox="0 0 48 48" fill="none" xmlns="http://www.w3.org/2000/svg">
<path fill-rule="evenodd" clip-rule="evenodd" d="M10 8C8.89228 8 8 8.89228 8 10V14.44C8 14.9923 7.55228 15.44 7 15.44C6.44772 15.44 6 14.9923 6 14.44V10C6 7.78772 7.78772 6 10 6H38C38.5523 6 39 6.44772 39 7C39 7.55228 38.5523 8 38 8H10Z" fill="#00CCEA"/>
<path fill-rule="evenodd" clip-rule="evenodd" d="M7 13.4375C7.55228 13.4375 8 13.8852 8 14.4375V27.9975C8 29.1052 8.89229 29.9975 10 29.9975H13C13.5523 29.9975 14 30.4452 14 30.9975V36.5833L20.2929 30.2904C20.6834 29.8999 21.3166 29.8999 21.7071 30.2904C22.0976 30.6809 22.0976 31.3141 21.7071 31.7046L13.7071 39.7046C13.4211 39.9906 12.991 40.0762 12.6173 39.9214C12.2436 39.7666 12 39.402 12 38.9975V31.9975H10C7.78771 31.9975 6 30.2098 6 27.9975V14.4375C6 13.8852 6.44772 13.4375 7 13.4375Z" fill="#9063CD"/>
<path fill-rule="evenodd" clip-rule="evenodd" d="M41 23C41.5523 23 42 23.4477 42 24V28C42 30.2123 40.2123 32 38 32H21C20.4477 32 20 31.5523 20 31C20 30.4477 20.4477 30 21 30H38C39.1077 30 40 29.1077 40 28V24C40 23.4477 40.4477 23 41 23Z" fill="#FF7F37"/>
<path fill-rule="evenodd" clip-rule="evenodd" d="M37 7C37 6.44772 37.4477 6 38 6C40.2123 6 42 7.78772 42 10V24C42 24.5523 41.5523 25 41 25C40.4477 25 40 24.5523 40 24V10C40 8.89228 39.1077 8 38 8C37.4477 8 37 7.55228 37 7Z" fill="#FDDA24"/>
<path fill-rule="evenodd" clip-rule="evenodd" d="M14 15C14 14.4477 14.4477 14 15 14H33C33.5523 14 34 14.4477 34 15C34 15.5523 33.5523 16 33 16H15C14.4477 16 14 15.5523 14 15Z" fill="#00C389"/>
<path fill-rule="evenodd" clip-rule="evenodd" d="M14 21C14 20.4477 14.4477 20 15 20H27C27.5523 20 28 20.4477 28 21C28 21.5523 27.5523 22 27 22H15C14.4477 22 14 21.5523 14 21Z" fill="#F5B6CD"/>
</svg>
