<svg width="48" height="48" viewBox="0 0 48 48" fill="none" xmlns="http://www.w3.org/2000/svg">
<path fill-rule="evenodd" clip-rule="evenodd" d="M38.6594 11.0625C38.6594 10.5102 39.1071 10.0625 39.6594 10.0625C42.1129 10.0625 44.0194 12.1124 44.0194 14.5825V33.4225C44.0194 35.8688 42.1165 37.9425 39.6594 37.9425H8.35938C7.80709 37.9425 7.35938 37.4948 7.35938 36.9425C7.35938 36.3902 7.80709 35.9425 8.35938 35.9425H39.6594C40.9222 35.9425 42.0194 34.8562 42.0194 33.4225V14.5825C42.0194 13.1326 40.9258 12.0625 39.6594 12.0625C39.1071 12.0625 38.6594 11.6148 38.6594 11.0625Z" fill="#FDDA24"/>
<path fill-rule="evenodd" clip-rule="evenodd" d="M4 14.5825C4 12.1362 5.90284 10.0625 8.36 10.0625H39.64C40.1923 10.0625 40.64 10.5102 40.64 11.0625C40.64 11.6148 40.1923 12.0625 39.64 12.0625H8.36C7.09716 12.0625 6 13.1488 6 14.5825V33.4025C6 34.8524 7.09355 35.9225 8.36 35.9225C8.91228 35.9225 9.36 36.3702 9.36 36.9225C9.36 37.4748 8.91228 37.9225 8.36 37.9225C5.90645 37.9225 4 35.8726 4 33.4025V14.5825Z" fill="#9063CD"/>
<path fill-rule="evenodd" clip-rule="evenodd" d="M8.03174 18.7533C8.69838 16.1344 11.3191 14 14.0008 14C15.3847 14 16.5836 14.5744 17.3352 15.5741C18.0843 16.5707 18.3151 17.8906 17.9699 19.2467C17.8571 19.6898 17.4581 20 17.0008 20H10.0008C9.95808 20 9.91595 19.9973 9.8746 19.9921C9.87848 20.4958 10.0315 20.9133 10.2652 21.2241C10.6036 21.6744 11.1847 22 12.0008 22H15.0008C15.5531 22 16.0008 22.4477 16.0008 23C16.0008 23.5523 15.5531 24 15.0008 24H12.0008C10.617 24 9.41803 23.4256 8.6665 22.4259C7.91734 21.4293 7.68656 20.1094 8.03174 18.7533ZM10.5412 18H16.127C16.1216 17.4998 15.969 17.0851 15.7365 16.7759C15.398 16.3256 14.817 16 14.0008 16C12.7077 16 11.3347 16.8301 10.5412 18Z" fill="#FF7F37"/>
<path fill-rule="evenodd" clip-rule="evenodd" d="M36.2929 16.2929C36.6834 15.9024 37.3166 15.9024 37.7071 16.2929L39.7071 18.2929C40.0976 18.6834 40.0976 19.3166 39.7071 19.7071L37.7071 21.7071C37.3166 22.0976 36.6834 22.0976 36.2929 21.7071C35.9024 21.3166 35.9024 20.6834 36.2929 20.2929L37.5858 19L36.2929 17.7071C35.9024 17.3166 35.9024 16.6834 36.2929 16.2929Z" fill="#00CCEA"/>
<path fill-rule="evenodd" clip-rule="evenodd" d="M8 29C8 28.4477 8.44772 28 9 28H39C39.5523 28 40 28.4477 40 29C40 29.5523 39.5523 30 39 30H9C8.44772 30 8 29.5523 8 29Z" fill="#00C389"/>
<path fill-rule="evenodd" clip-rule="evenodd" d="M8 33C8 32.4477 8.44772 32 9 32H25C25.5523 32 26 32.4477 26 33C26 33.5523 25.5523 34 25 34H9C8.44772 34 8 33.5523 8 33Z" fill="#F5B6CD"/>
</svg>
