<svg width="35" height="48" viewBox="0 0 35 48" fill="none" xmlns="http://www.w3.org/2000/svg">
<path fill-rule="evenodd" clip-rule="evenodd" d="M21.7461 2.26469C21.7461 1.73449 22.1814 1.30469 22.7183 1.30469H33.7969V22.992C33.7969 23.5222 33.3616 23.952 32.8247 23.952C32.2877 23.952 31.8525 23.5222 31.8525 22.992V3.22469H22.7183C22.1814 3.22469 21.7461 2.79488 21.7461 2.26469Z" fill="#FDDA24"/>
<path fill-rule="evenodd" clip-rule="evenodd" d="M32.8255 19.6289C33.3624 19.6289 33.7977 20.0587 33.7977 20.5889V31.6665H11.1363C10.5993 31.6665 10.1641 31.2367 10.1641 30.7065C10.1641 30.1763 10.5993 29.7465 11.1363 29.7465H31.8532V20.5889C31.8532 20.0587 32.2885 19.6289 32.8255 19.6289Z" fill="#F5B6CD"/>
<path fill-rule="evenodd" clip-rule="evenodd" d="M3.76128 11.0977C4.29823 11.0977 4.73351 11.5275 4.73351 12.0577V29.75H11.1387C11.6756 29.75 12.1109 30.1798 12.1109 30.71C12.1109 31.2402 11.6756 31.67 11.1387 31.67H2.78906V12.0577C2.78906 11.5275 3.22434 11.0977 3.76128 11.0977Z" fill="#FF7F37"/>
<path fill-rule="evenodd" clip-rule="evenodd" d="M2.78906 1.30469H27.9536C28.4905 1.30469 28.9258 1.73449 28.9258 2.26469C28.9258 2.79488 28.4905 3.22469 27.9536 3.22469H4.73351V12.8885C4.73351 13.4187 4.29823 13.8485 3.76128 13.8485C3.22434 13.8485 2.78906 13.4187 2.78906 12.8885V1.30469Z" fill="#00C389"/>
<path fill-rule="evenodd" clip-rule="evenodd" d="M0.972656 41.5147C0.972656 40.9845 1.40793 40.5547 1.94488 40.5547H15.8543C16.3912 40.5547 16.8265 40.9845 16.8265 41.5147C16.8265 42.0449 16.3912 42.4747 15.8543 42.4747H1.94488C1.40793 42.4747 0.972656 42.0449 0.972656 41.5147Z" fill="#FDDA24"/>
<path fill-rule="evenodd" clip-rule="evenodd" d="M10.1641 41.5147C10.1641 40.9845 10.5993 40.5547 11.1363 40.5547H31.4058C31.9428 40.5547 32.3781 40.9845 32.3781 41.5147C32.3781 42.0449 31.9428 42.4747 31.4058 42.4747H11.1363C10.5993 42.4747 10.1641 42.0449 10.1641 41.5147Z" fill="#00CCEA"/>
<path fill-rule="evenodd" clip-rule="evenodd" d="M25.9498 36.4318C26.2759 36.0105 26.886 35.93 27.3126 36.252L33.2745 40.7511C33.7011 41.0731 33.7826 41.6756 33.4566 42.0968C33.1305 42.5181 32.5204 42.5986 32.0937 42.2766L26.1319 37.7775C25.7053 37.4555 25.6238 36.8531 25.9498 36.4318Z" fill="#00C389"/>
<path fill-rule="evenodd" clip-rule="evenodd" d="M33.4566 41.0412C33.7826 41.4624 33.7011 42.0649 33.2745 42.3869L27.3126 46.886C26.886 47.2079 26.2759 47.1274 25.9498 46.7062C25.6238 46.2849 25.7053 45.6825 26.1319 45.3605L32.0937 40.8614C32.5204 40.5394 33.1305 40.6199 33.4566 41.0412Z" fill="#9063CD"/>
</svg>
