<svg width="48" height="48" viewBox="0 0 48 48" fill="none" xmlns="http://www.w3.org/2000/svg">
<path fill-rule="evenodd" clip-rule="evenodd" d="M32.6056 31.0938L44.0056 42.4938C44.3961 42.8843 44.3961 43.5174 44.0056 43.908C43.6151 44.2985 42.9819 44.2985 42.5914 43.908L31.1914 32.508L32.6056 31.0938Z" fill="#9063CD"/>
<path fill-rule="evenodd" clip-rule="evenodd" d="M4 20.8C4 11.5477 11.5477 4 20.8 4C21.3523 4 21.8 4.44772 21.8 5C21.8 5.55228 21.3523 6 20.8 6C12.6523 6 6 12.6523 6 20.8C6 21.3523 5.55228 21.8 5 21.8C4.44772 21.8 4 21.3523 4 20.8Z" fill="#00C389"/>
<path fill-rule="evenodd" clip-rule="evenodd" d="M5 19.8008C5.55228 19.8008 6 20.2485 6 20.8008C6 28.9485 12.6523 35.6008 20.8 35.6008C21.3523 35.6008 21.8 36.0485 21.8 36.6008C21.8 37.1531 21.3523 37.6008 20.8 37.6008C11.5477 37.6008 4 30.0531 4 20.8008C4 20.2485 4.44772 19.8008 5 19.8008Z" fill="#F5B6CD"/>
<path fill-rule="evenodd" clip-rule="evenodd" d="M36.474 19.5857C37.0263 19.5777 37.4804 20.0189 37.4884 20.5711C37.6219 29.8224 30.1839 37.4783 20.9326 37.6118C20.3804 37.6198 19.9262 37.1786 19.9183 36.6264C19.9103 36.0741 20.3515 35.62 20.9037 35.612C29.0506 35.4945 35.6062 28.7468 35.4886 20.6C35.4806 20.0478 35.9218 19.5936 36.474 19.5857Z" fill="#FF7F41"/>
<path fill-rule="evenodd" clip-rule="evenodd" d="M18.6992 11.1016C14.5515 11.1016 11.1992 14.4538 11.1992 18.6016C11.1992 19.1538 10.7515 19.6016 10.1992 19.6016C9.64693 19.6016 9.19922 19.1538 9.19922 18.6016C9.19922 13.3493 13.4469 9.10156 18.6992 9.10156C19.2515 9.10156 19.6992 9.54928 19.6992 10.1016C19.6992 10.6538 19.2515 11.1016 18.6992 11.1016Z" fill="#FDDA24"/>
<path fill-rule="evenodd" clip-rule="evenodd" d="M19.8008 5C19.8008 4.44772 20.2485 4 20.8008 4C30.0613 4 37.5008 11.556 37.5008 20.8C37.5008 21.3523 37.0531 21.8 36.5008 21.8C35.9485 21.8 35.5008 21.3523 35.5008 20.8C35.5008 12.644 28.9402 6 20.8008 6C20.2485 6 19.8008 5.55228 19.8008 5Z" fill="#59CBE8"/>
<path fill-rule="evenodd" clip-rule="evenodd" d="M11.4378 6.87307C14.0975 5.06446 17.2923 4 20.8001 4C21.3524 4 21.8001 4.44772 21.8001 5C21.8001 5.55228 21.3524 6 20.8001 6C17.7079 6 14.9027 6.93554 12.5624 8.52693C12.1057 8.83748 11.4837 8.71901 11.1732 8.26231C10.8626 7.80561 10.9811 7.18363 11.4378 6.87307Z" fill="#00C389"/>
</svg>
