<svg width="48" height="48" viewBox="0 0 48 48" fill="none" xmlns="http://www.w3.org/2000/svg">
<path fill-rule="evenodd" clip-rule="evenodd" d="M21 6C21.5523 6 22 6.44772 22 7V13C22 13.5523 21.5523 14 21 14C20.4477 14 20 13.5523 20 13V7C20 6.44772 20.4477 6 21 6Z" fill="#00CCEA"/>
<path fill-rule="evenodd" clip-rule="evenodd" d="M27 6C27.5523 6 28 6.44772 28 7V13C28 13.5523 27.5523 14 27 14C26.4477 14 26 13.5523 26 13V7C26 6.44772 26.4477 6 27 6Z" fill="#F5B6CD"/>
<path fill-rule="evenodd" clip-rule="evenodd" d="M16 23C16 22.4477 16.4477 22 17 22H31C31.5523 22 32 22.4477 32 23V33C32 33.5523 31.5523 34 31 34H17C16.4477 34 16 33.5523 16 33V23ZM18 24V32H30V24H18Z" fill="#9063CD"/>
<path fill-rule="evenodd" clip-rule="evenodd" d="M28.2986 14.3888C28.6922 14.0014 29.3254 14.0065 29.7127 14.4001C31.1315 15.8418 32 17.8316 32 20.0016V32.8416C32 33.3938 31.5523 33.8416 31 33.8416C30.4477 33.8416 30 33.3938 30 32.8416V20.0016C30 18.3715 29.3485 16.8813 28.2873 15.803C27.8999 15.4094 27.9049 14.7762 28.2986 14.3888Z" fill="#FDDA24"/>
<path fill-rule="evenodd" clip-rule="evenodd" d="M17 28.6797C17.5523 28.6797 18 29.1274 18 29.6797V39.9997H30V32.8397C30 32.2874 30.4477 31.8397 31 31.8397C31.5523 31.8397 32 32.2874 32 32.8397V40.9997C32 41.552 31.5523 41.9997 31 41.9997H17C16.4477 41.9997 16 41.552 16 40.9997V29.6797C16 29.1274 16.4477 28.6797 17 28.6797Z" fill="#FF7F37"/>
<path fill-rule="evenodd" clip-rule="evenodd" d="M23.9982 12C25.0635 11.9965 26.1186 12.2073 27.1007 12.6198C28.0834 13.0325 28.973 13.6388 29.7165 14.4025C30.1018 14.7982 30.0933 15.4313 29.6976 15.8166C29.3019 16.2018 28.6687 16.1933 28.2835 15.7976C27.7272 15.2262 27.0615 14.7726 26.3262 14.4637C25.591 14.1549 24.801 13.9972 24.0035 14L24 13V14C20.6923 14 18 16.6923 18 20V29.68C18 30.2323 17.5523 30.68 17 30.68C16.4477 30.68 16 30.2323 16 29.68V20C16 15.5883 19.5868 12.001 23.9982 12Z" fill="#00C389"/>
<path fill-rule="evenodd" clip-rule="evenodd" d="M12.1005 10.1005C14.726 7.475 18.287 6 22 6H31C31.5523 6 32 6.44772 32 7C32 7.55228 31.5523 8 31 8H22C18.8174 8 15.7652 9.26428 13.5147 11.5147C11.2643 13.7652 10 16.8174 10 20V21C10 21.5523 9.55228 22 9 22C8.44772 22 8 21.5523 8 21V20C8 16.287 9.475 12.726 12.1005 10.1005Z" fill="#00CCEA"/>
<path fill-rule="evenodd" clip-rule="evenodd" d="M26 11C26 10.4477 26.4477 10 27 10H29C29.5523 10 30 10.4477 30 11C30 11.5523 29.5523 12 29 12H27C26.4477 12 26 11.5523 26 11Z" fill="#F5B6CD"/>
</svg>
