<svg width="48" height="48" viewBox="0 0 48 48" fill="none" xmlns="http://www.w3.org/2000/svg">
<path fill-rule="evenodd" clip-rule="evenodd" d="M38 15C38 14.4477 38.4477 14 39 14H43C43.5523 14 44 14.4477 44 15V27C44 27.5523 43.5523 28 43 28C42.4477 28 42 27.5523 42 27V16H39C38.4477 16 38 15.5523 38 15ZM8.36601 32.2267C8.5977 32.0367 8.90234 31.9607 9.19612 32.0194L29.1961 36.0194C29.7003 36.1202 30.0458 36.5869 29.9951 37.0985C29.9445 37.6102 29.5141 38 29 38H9C8.44772 38 8 37.5523 8 37V33C8 32.7004 8.13432 32.4166 8.36601 32.2267ZM10 34.2198V36H18.901L10 34.2198Z" fill="#00CCEA"/>
<path fill-rule="evenodd" clip-rule="evenodd" d="M5 23C5.55228 23 6 23.4477 6 24V32H29C29.5523 32 30 32.4477 30 33C30 33.5523 29.5523 34 29 34H5C4.44772 34 4 33.5523 4 33V24C4 23.4477 4.44772 23 5 23Z" fill="#9063CD"/>
<path fill-rule="evenodd" clip-rule="evenodd" d="M4 11C4 10.4477 4.44772 10 5 10H39C39.2761 10 39.5261 10.1119 39.7071 10.2929C39.7651 10.3509 39.816 10.4159 39.8584 10.4866C39.9359 10.616 39.985 10.7644 39.9971 10.9231M38 12.453V25C38 25.5523 38.4477 26 39 26C39.5523 26 40 25.5523 40 25V11.0145M38 12.453L5.35714 24.9341C5.04973 25.0516 4.70416 25.0103 4.43305 24.8238C4.16194 24.6372 4 24.3291 4 24V11M33.5846 12L6 22.547V12H33.5846Z" fill="#F5B6CD"/>
<path fill-rule="evenodd" clip-rule="evenodd" d="M22 18C19.7909 18 18 19.7909 18 22C18 24.2091 19.7909 26 22 26C24.2091 26 26 24.2091 26 22C26 19.7909 24.2091 18 22 18ZM16 22C16 18.6863 18.6863 16 22 16C25.3137 16 28 18.6863 28 22C28 25.3137 25.3137 28 22 28C18.6863 28 16 25.3137 16 22Z" fill="#FF7F37"/>
<path fill-rule="evenodd" clip-rule="evenodd" d="M8 15C8 14.4477 8.44772 14 9 14H13C13.5523 14 14 14.4477 14 15C14 15.5523 13.5523 16 13 16H10V28H13C13.5523 28 14 28.4477 14 29C14 29.5523 13.5523 30 13 30H9C8.44772 30 8 29.5523 8 29V15ZM30.1719 14.4394C30.358 14.1646 30.6682 14 31 14H35C35.5523 14 36 14.4477 36 15V25C36 25.4794 35.6598 25.8913 35.1891 25.982C34.7184 26.0726 34.2496 25.8165 34.0715 25.3714L30.0715 15.3714C29.9483 15.0633 29.9859 14.7141 30.1719 14.4394ZM32.477 16L34 19.8074V16H32.477Z" fill="#00C389"/>
<path fill-rule="evenodd" clip-rule="evenodd" d="M37 28C37.5523 28 38 28.4477 38 29V32H41C41.5523 32 42 32.4477 42 33C42 33.5523 41.5523 34 41 34H38V37C38 37.5523 37.5523 38 37 38C36.4477 38 36 37.5523 36 37V34H33C32.4477 34 32 33.5523 32 33C32 32.4477 32.4477 32 33 32H36V29C36 28.4477 36.4477 28 37 28Z" fill="#00C389"/>
<path fill-rule="evenodd" clip-rule="evenodd" d="M37 26C33.134 26 30 29.134 30 33C30 36.866 33.134 40 37 40C40.866 40 44 36.866 44 33C44 29.134 40.866 26 37 26ZM28 33C28 28.0294 32.0294 24 37 24C41.9706 24 46 28.0294 46 33C46 37.9706 41.9706 42 37 42C32.0294 42 28 37.9706 28 33Z" fill="#FDDA24"/>
</svg>
