<svg width="48" height="48" viewBox="0 0 48 48" fill="none" xmlns="http://www.w3.org/2000/svg">
<path d="M32 18C32 19.1046 31.1046 20 30 20C28.8954 20 28 19.1046 28 18C28 16.8954 28.8954 16 30 16C31.1046 16 32 16.8954 32 18Z" fill="#9063CD"/>
<path d="M20 18C20 19.1046 19.1046 20 18 20C16.8954 20 16 19.1046 16 18C16 16.8954 16.8954 16 18 16C19.1046 16 20 16.8954 20 18Z" fill="#9063CD"/>
<path fill-rule="evenodd" clip-rule="evenodd" d="M43 23C43.5523 23 44 23.4477 44 24C44 35.0457 35.0457 44 24 44C23.4477 44 23 43.5523 23 43C23 42.4477 23.4477 42 24 42C33.9411 42 42 33.9411 42 24C42 23.4477 42.4477 23 43 23Z" fill="#59CBE8"/>
<path fill-rule="evenodd" clip-rule="evenodd" d="M24 6C14.0589 6 6 14.0589 6 24C6 24.5523 5.55228 25 5 25C4.44772 25 4 24.5523 4 24C4 12.9543 12.9543 4 24 4C24.5523 4 25 4.44772 25 5C25 5.55228 24.5523 6 24 6Z" fill="#59CBE8"/>
<path fill-rule="evenodd" clip-rule="evenodd" d="M43 23C43.5523 23 44 23.4477 44 24C44 35.0457 35.0457 44 24 44C23.4477 44 23 43.5523 23 43C23 42.4477 23.4477 42 24 42C33.9411 42 42 33.9411 42 24C42 23.4477 42.4477 23 43 23Z" fill="#F5B6CD"/>
<path fill-rule="evenodd" clip-rule="evenodd" d="M24 6C14.0589 6 6 14.0589 6 24C6 24.5523 5.55228 25 5 25C4.44772 25 4 24.5523 4 24C4 12.9543 12.9543 4 24 4C24.5523 4 25 4.44772 25 5C25 5.55228 24.5523 6 24 6Z" fill="#FDDA24"/>
<path fill-rule="evenodd" clip-rule="evenodd" d="M5 23C5.55228 23 6 23.4477 6 24C6 33.9411 14.0589 42 24 42C24.5523 42 25 42.4477 25 43C25 43.5523 24.5523 44 24 44C12.9543 44 4 35.0457 4 24C4 23.4477 4.44772 23 5 23Z" fill="#59CBE8"/>
<path fill-rule="evenodd" clip-rule="evenodd" d="M23 5C23 4.44772 23.4477 4 24 4C35.0457 4 44 12.9543 44 24C44 24.5523 43.5523 25 43 25C42.4477 25 42 24.5523 42 24C42 14.0589 33.9411 6 24 6C23.4477 6 23 5.55228 23 5Z" fill="#FF7F41"/>
<path fill-rule="evenodd" clip-rule="evenodd" d="M30.9298 26C29.5466 28.3912 26.9612 30 24.0001 30C21.0389 30 18.4536 28.3912 17.0703 26L14.8321 26C16.3753 29.5318 19.8994 32 24.0001 32C28.1007 32 31.6249 29.5318 33.168 26L30.9298 26Z" fill="#00C389"/>
</svg>
