<svg width="48" height="48" viewBox="0 0 48 48" fill="none" xmlns="http://www.w3.org/2000/svg">
<path fill-rule="evenodd" clip-rule="evenodd" d="M9 18.5C9.55228 18.5 10 18.9477 10 19.5V36H25C25.5523 36 26 36.4477 26 37C26 37.5523 25.5523 38 25 38H9C8.44772 38 8 37.5523 8 37V19.5C8 18.9477 8.44772 18.5 9 18.5Z" fill="#9063CD"/>
<path fill-rule="evenodd" clip-rule="evenodd" d="M17.7071 4.29289C18.0976 4.68342 18.0976 5.31658 17.7071 5.70711L10 13.4142V19.5C10 20.0523 9.55228 20.5 9 20.5C8.44772 20.5 8 20.0523 8 19.5V13C8 12.7348 8.10536 12.4804 8.29289 12.2929L16.2929 4.29289C16.6834 3.90237 17.3166 3.90237 17.7071 4.29289Z" fill="#FDDA24"/>
<path fill-rule="evenodd" clip-rule="evenodd" d="M16 5C16 4.44772 16.4477 4 17 4H33C33.5523 4 34 4.44772 34 5V27C34 27.5523 33.5523 28 33 28C32.4477 28 32 27.5523 32 27V6H17C16.4477 6 16 5.55228 16 5Z" fill="#00CCEA"/>
<path fill-rule="evenodd" clip-rule="evenodd" d="M20 13C20 12.4477 20.4477 12 21 12H29C29.5523 12 30 12.4477 30 13C30 13.5523 29.5523 14 29 14H21C20.4477 14 20 13.5523 20 13ZM12 19C12 18.4477 12.4477 18 13 18H29C29.5523 18 30 18.4477 30 19C30 19.5523 29.5523 20 29 20H13C12.4477 20 12 19.5523 12 19Z" fill="#F5B6CD"/>
<path fill-rule="evenodd" clip-rule="evenodd" d="M12 25C12 24.4477 12.4477 24 13 24H29C29.5523 24 30 24.4477 30 25C30 25.5523 29.5523 26 29 26H13C12.4477 26 12 25.5523 12 25ZM12 31C12 30.4477 12.4477 30 13 30H25C25.5523 30 26 30.4477 26 31C26 31.5523 25.5523 32 25 32H13C12.4477 32 12 31.5523 12 31Z" fill="#00C389"/>
<path fill-rule="evenodd" clip-rule="evenodd" d="M17 4C17.5523 4 18 4.44772 18 5V13C18 13.5523 17.5523 14 17 14H9C8.44772 14 8 13.5523 8 13C8 12.4477 8.44772 12 9 12H16V5C16 4.44772 16.4477 4 17 4Z" fill="#FDDA24"/>
<path fill-rule="evenodd" clip-rule="evenodd" d="M33 28C29.134 28 26 31.134 26 35C26 38.866 29.134 42 33 42C36.866 42 40 38.866 40 35C40 31.134 36.866 28 33 28ZM24 35C24 30.0294 28.0294 26 33 26C37.9706 26 42 30.0294 42 35C42 39.9706 37.9706 44 33 44C28.0294 44 24 39.9706 24 35Z" fill="#FF7F37"/>
<path fill-rule="evenodd" clip-rule="evenodd" d="M33 32C31.3431 32 30 33.3431 30 35C30 36.6569 31.3431 38 33 38C34.6569 38 36 36.6569 36 35C36 33.3431 34.6569 32 33 32ZM28 35C28 32.2386 30.2386 30 33 30C35.7614 30 38 32.2386 38 35C38 37.7614 35.7614 40 33 40C30.2386 40 28 37.7614 28 35Z" fill="#FDDA24"/>
</svg>
