<svg width="48" height="48" viewBox="0 0 48 48" fill="none" xmlns="http://www.w3.org/2000/svg">
<path fill-rule="evenodd" clip-rule="evenodd" d="M4 14.9375C4 14.3852 4.44772 13.9375 5 13.9375H43C43.5523 13.9375 44 14.3852 44 14.9375V22.9975C44 23.5498 43.5523 23.9975 43 23.9975C42.4477 23.9975 42 23.5498 42 22.9975V15.9375H6V22.9975C6 23.5498 5.55228 23.9975 5 23.9975C4.44772 23.9975 4 23.5498 4 22.9975V14.9375Z" fill="#FF7F37"/>
<path fill-rule="evenodd" clip-rule="evenodd" d="M5 22C5.55228 22 6 22.4477 6 23V36C6 37.1077 6.89228 38 8 38H40C41.1077 38 42 37.1077 42 36V23C42 22.4477 42.4477 22 43 22C43.5523 22 44 22.4477 44 23V36C44 38.2123 42.2123 40 40 40H8C5.78772 40 4 38.2123 4 36V23C4 22.4477 4.44772 22 5 22Z" fill="#9063CD"/>
<path fill-rule="evenodd" clip-rule="evenodd" d="M19 10C18.4523 10 18 10.4523 18 11V14.94C18 15.4923 17.5523 15.94 17 15.94C16.4477 15.94 16 15.4923 16 14.94V11C16 9.34772 17.3477 8 19 8H29C30.6523 8 32 9.34772 32 11V14.94C32 15.4923 31.5523 15.94 31 15.94C30.4477 15.94 30 15.4923 30 14.94V11C30 10.4523 29.5477 10 29 10H19Z" fill="#F5B6CD"/>
<path fill-rule="evenodd" clip-rule="evenodd" d="M43 21.8594C43.5523 21.8594 44 22.3071 44 22.8594V22.9994C44 25.7517 41.7523 27.9994 39 27.9994H27C26.4477 27.9994 26 27.5517 26 26.9994C26 26.4471 26.4477 25.9994 27 25.9994H39C40.6477 25.9994 42 24.6471 42 22.9994V22.8594C42 22.3071 42.4477 21.8594 43 21.8594Z" fill="#00C389"/>
<path fill-rule="evenodd" clip-rule="evenodd" d="M5 22C5.55228 22 6 22.4477 6 23C6 24.6477 7.35228 26 9 26H21C21.5523 26 22 26.4477 22 27C22 27.5523 21.5523 28 21 28H9C6.24772 28 4 25.7523 4 23C4 22.4477 4.44772 22 5 22Z" fill="#00CCEA"/>
<path fill-rule="evenodd" clip-rule="evenodd" d="M24 24C22.8954 24 22 24.8954 22 26C22 27.1046 22.8954 28 24 28C25.1046 28 26 27.1046 26 26C26 24.8954 25.1046 24 24 24ZM20 26C20 23.7909 21.7909 22 24 22C26.2091 22 28 23.7909 28 26C28 28.2091 26.2091 30 24 30C21.7909 30 20 28.2091 20 26Z" fill="#FDDA24"/>
</svg>
