<svg width="48" height="48" viewBox="0 0 48 48" fill="none" xmlns="http://www.w3.org/2000/svg">
<path fill-rule="evenodd" clip-rule="evenodd" d="M36.0271 11.9726C36.4176 12.3631 36.4176 12.9963 36.0271 13.3868L26.7071 22.7068C26.3166 23.0973 25.6834 23.0973 25.2929 22.7068C24.9024 22.3163 24.9024 21.6831 25.2929 21.2926L34.6129 11.9726C35.0034 11.5821 35.6366 11.5821 36.0271 11.9726Z" fill="#9063CD"/>
<path fill-rule="evenodd" clip-rule="evenodd" d="M26.7071 21.2929C27.0976 21.6834 27.0976 22.3166 26.7071 22.7071L17.7071 31.7071C17.3166 32.0976 16.6834 32.0976 16.2929 31.7071C15.9024 31.3166 15.9024 30.6834 16.2929 30.2929L25.2929 21.2929C25.6834 20.9024 26.3166 20.9024 26.7071 21.2929Z" fill="#F5B6CD"/>
<path fill-rule="evenodd" clip-rule="evenodd" d="M17.7037 30.2929C18.0942 30.6834 18.0942 31.3166 17.7037 31.7071L10.6837 38.7271C10.2931 39.1176 9.65998 39.1176 9.26946 38.7271C8.87893 38.3366 8.87893 37.7034 9.26946 37.3129L16.2895 30.2929C16.68 29.9024 17.3131 29.9024 17.7037 30.2929Z" fill="#00CCEA"/>
<path fill-rule="evenodd" clip-rule="evenodd" d="M37 20.2422C37.5523 20.2422 38 20.6899 38 21.2422V35.0022C38 35.5545 37.5523 36.0022 37 36.0022C36.4477 36.0022 36 35.5545 36 35.0022V21.2422C36 20.6899 36.4477 20.2422 37 20.2422Z" fill="#FDDA24"/>
<path fill-rule="evenodd" clip-rule="evenodd" d="M24 11C24 10.4477 24.4477 10 25 10H34C36.2123 10 38 11.7877 38 14V21.24C38 21.7923 37.5523 22.24 37 22.24C36.4477 22.24 36 21.7923 36 21.24V14C36 12.8923 35.1077 12 34 12H25C24.4477 12 24 11.5523 24 11Z" fill="#FF7F37"/>
<path fill-rule="evenodd" clip-rule="evenodd" d="M12 11C12 10.4477 12.4477 10 13 10H25C25.5523 10 26 10.4477 26 11C26 11.5523 25.5523 12 25 12H13C12.4477 12 12 11.5523 12 11Z" fill="#00C389"/>
</svg>
