<svg width="48" height="48" viewBox="0 0 48 48" fill="none" xmlns="http://www.w3.org/2000/svg">
<path fill-rule="evenodd" clip-rule="evenodd" d="M24 7C24.5523 7 25 7.44772 25 8V19.12C25 19.6723 24.5523 20.12 24 20.12C23.4477 20.12 23 19.6723 23 19.12V8C23 7.44772 23.4477 7 24 7Z" fill="#9063CD"/>
<path fill-rule="evenodd" clip-rule="evenodd" d="M24 18.1172C24.5523 18.1172 25 18.5649 25 19.1172V32.3172C25 32.8695 24.5523 33.3172 24 33.3172C23.4477 33.3172 23 32.8695 23 32.3172V19.1172C23 18.5649 23.4477 18.1172 24 18.1172Z" fill="#F5B6CD"/>
<path fill-rule="evenodd" clip-rule="evenodd" d="M24 31.3203C24.5523 31.3203 25 31.768 25 32.3203V41.0003C25 41.5526 24.5523 42.0003 24 42.0003C23.4477 42.0003 23 41.5526 23 41.0003V32.3203C23 31.768 23.4477 31.3203 24 31.3203Z" fill="#00CCEA"/>
<path fill-rule="evenodd" clip-rule="evenodd" d="M33.8945 15.5116C34.285 15.1211 34.9181 15.1211 35.3087 15.5116L41.0887 21.2916C41.4792 21.6822 41.4792 22.3153 41.0887 22.7059C40.6981 23.0964 40.065 23.0964 39.6745 22.7059L33.8945 16.9259C33.5039 16.5353 33.5039 15.9022 33.8945 15.5116Z" fill="#00C389"/>
<path fill-rule="evenodd" clip-rule="evenodd" d="M23.9981 7.85156C23.7361 7.85156 23.4766 7.90358 23.2348 8.0046C22.993 8.10562 22.7737 8.25364 22.5895 8.44006L22.5852 8.4444L16.7852 14.2444C16.3947 14.6349 15.7615 14.6349 15.371 14.2444C14.9805 13.8539 14.9805 13.2207 15.371 12.8302L21.169 7.03217C21.5387 6.65854 21.9788 6.36183 22.4638 6.15919C22.9499 5.95612 23.4714 5.85156 23.9981 5.85156C24.5249 5.85156 25.0464 5.95612 25.5324 6.15919C26.0175 6.36184 26.4576 6.65856 26.8273 7.03222C26.828 7.03298 26.8288 7.03374 26.8295 7.03451L35.3052 15.5102C35.6958 15.9007 35.6958 16.5339 35.3052 16.9244C34.9147 17.3149 34.2815 17.3149 33.891 16.9244L25.4067 8.44008C25.2225 8.25365 25.0032 8.10562 24.7614 8.0046C24.5196 7.90358 24.2602 7.85156 23.9981 7.85156Z" fill="#FF7F37"/>
<path fill-rule="evenodd" clip-rule="evenodd" d="M16.7843 12.832C17.1748 13.2225 17.1748 13.8556 16.7843 14.2462L8.32429 22.7062C7.93377 23.0967 7.30061 23.0967 6.91008 22.7062C6.51956 22.3156 6.51956 21.6825 6.91008 21.292L15.3701 12.832C15.7606 12.4414 16.3938 12.4414 16.7843 12.832Z" fill="#FDDA24"/>
</svg>
