<svg width="48" height="48" viewBox="0 0 48 48" fill="none" xmlns="http://www.w3.org/2000/svg">
<path fill-rule="evenodd" clip-rule="evenodd" d="M29.4219 24C29.4219 23.4477 29.8696 23 30.4219 23H40.0019C40.5542 23 41.0019 23.4477 41.0019 24C41.0019 24.5523 40.5542 25 40.0019 25H30.4219C29.8696 25 29.4219 24.5523 29.4219 24Z" fill="#9063CD"/>
<path fill-rule="evenodd" clip-rule="evenodd" d="M14.8984 24C14.8984 23.4477 15.3462 23 15.8984 23H30.4184C30.9707 23 31.4184 23.4477 31.4184 24C31.4184 24.5523 30.9707 25 30.4184 25H15.8984C15.3462 25 14.8984 24.5523 14.8984 24Z" fill="#F5B6CD"/>
<path fill-rule="evenodd" clip-rule="evenodd" d="M6 24C6 23.4477 6.44772 23 7 23H15.9C16.4523 23 16.9 23.4477 16.9 24C16.9 24.5523 16.4523 25 15.9 25H7C6.44772 25 6 24.5523 6 24Z" fill="#00CCEA"/>
<path fill-rule="evenodd" clip-rule="evenodd" d="M36.8271 29.5507C37.2176 29.9412 37.2176 30.5744 36.8271 30.9649L26.7071 41.0849C26.3166 41.4754 25.6834 41.4754 25.2929 41.0849C24.9024 40.6944 24.9024 40.0612 25.2929 39.6707L35.4129 29.5507C35.8034 29.1602 36.4366 29.1602 36.8271 29.5507Z" fill="#FDDA24"/>
<path fill-rule="evenodd" clip-rule="evenodd" d="M32.871 14.4726C33.2615 14.0821 33.8947 14.0821 34.2852 14.4726L40.9852 21.1726C42.5513 22.7387 42.5611 25.2742 40.9824 26.8296L36.8452 30.9668C36.4547 31.3573 35.8215 31.3573 35.431 30.9668C35.0405 30.5763 35.0405 29.9431 35.431 29.5526L39.571 25.4126L39.5771 25.4066C40.3551 24.6417 40.3639 23.3796 39.571 22.5868L32.871 15.8868C32.4805 15.4963 32.4805 14.8631 32.871 14.4726Z" fill="#FF7F37"/>
<path fill-rule="evenodd" clip-rule="evenodd" d="M25.292 6.91102C25.682 6.51998 26.3151 6.51914 26.7062 6.90915L34.2862 14.4691C34.6772 14.8592 34.6781 15.4923 34.288 15.8834C33.898 16.2744 33.2649 16.2752 32.8738 15.8852L25.2938 8.32523C24.9028 7.93522 24.902 7.30206 25.292 6.91102Z" fill="#00C389"/>
</svg>
