<svg width="48" height="48" viewBox="0 0 48 48" fill="none" xmlns="http://www.w3.org/2000/svg">
<path fill-rule="evenodd" clip-rule="evenodd" d="M42.5536 9.47628C43.0975 9.57214 43.4607 10.0908 43.3648 10.6347L40.6049 26.2944C40.6049 26.2945 40.6049 26.2944 40.6049 26.2944C39.8306 30.6934 37.5313 34.6791 34.1108 37.5514C30.6902 40.4238 26.367 41.9992 21.9004 42.0011H12C9.78772 42.0011 8 40.2134 8 38.0011C8 35.7888 9.78772 34.0011 12 34.0011C12.5523 34.0011 13 34.4488 13 35.0011C13 35.5534 12.5523 36.0011 12 36.0011C10.8923 36.0011 10 36.8934 10 38.0011C10 39.1088 10.8923 40.0011 12 40.0011H21.8996C21.8997 40.0011 21.8994 40.0011 21.8996 40.0011C25.8959 39.9993 29.7643 38.5897 32.8247 36.0198C35.8852 33.4498 37.9424 29.8837 38.6351 25.9478L41.3952 10.2875C41.491 9.74363 42.0097 9.38042 42.5536 9.47628Z" fill="#00C389"/>
<path fill-rule="evenodd" clip-rule="evenodd" d="M35.5946 9.26947C35.9184 7.36496 37.5588 6 39.48 6C41.9199 6 43.7939 8.22 43.3646 10.635C43.2679 11.1788 42.7487 11.5412 42.205 11.4446C41.6612 11.3479 41.2988 10.8287 41.3954 10.285C41.6061 9.1 40.6801 8 39.48 8C38.5225 8 37.7238 8.67319 37.566 9.60665L37.5648 9.61379L34.8048 25.2538C33.7002 31.4698 28.3061 36 22 36H12C11.4477 36 11 35.5523 11 35C11 34.4477 11.4477 34 12 34H22C27.3336 34 31.8996 30.1694 32.8353 24.9058C32.8353 24.9055 32.8353 24.906 32.8353 24.9058L35.594 9.27335C35.5942 9.27206 35.5944 9.27077 35.5946 9.26947Z" fill="#FDDA24"/>
<path fill-rule="evenodd" clip-rule="evenodd" d="M13 9C13.5523 9 14 9.44772 14 10V11.6C14 14.8893 14.7592 17.835 16.2596 20.0217C17.7324 22.1683 19.9551 23.6414 23.0565 24H24C26.2123 24 28 25.7877 28 28C28 30.2123 26.2123 32 24 32H23C22.4477 32 22 31.5523 22 31C22 30.4477 22.4477 30 23 30H24C25.1077 30 26 29.1077 26 28C26 26.8923 25.1077 26 24 26H23C22.9631 26 22.9262 25.998 22.8896 25.9939C19.1792 25.5816 16.4191 23.7893 14.6104 21.1533C12.8208 18.545 12 15.1707 12 11.6V10C12 9.44772 12.4477 9 13 9Z" fill="#00CCEA"/>
<path fill-rule="evenodd" clip-rule="evenodd" d="M6 10C6 7.78772 7.78771 6 10 6C12.2123 6 14 7.78772 14 10C14 10.5523 13.5523 11 13 11C12.4477 11 12 10.5523 12 10C12 8.89229 11.1077 8 10 8C8.89228 8 8 8.89229 8 10V10.88C8 20.8449 13.5169 28.9381 23.1106 30.0061C23.6595 30.0673 24.055 30.5618 23.9939 31.1106C23.9328 31.6595 23.4382 32.055 22.8894 31.9939C12.0031 30.7819 6 21.5551 6 10.88V10Z" fill="#9063CD"/>
<path fill-rule="evenodd" clip-rule="evenodd" d="M20 8C18.8954 8 18 8.89543 18 10C18 11.1046 18.8954 12 20 12C21.1046 12 22 11.1046 22 10C22 8.89543 21.1046 8 20 8ZM16 10C16 7.79086 17.7909 6 20 6C22.2091 6 24 7.79086 24 10C24 12.2091 22.2091 14 20 14C17.7909 14 16 12.2091 16 10Z" fill="#F5B6CD"/>
<path fill-rule="evenodd" clip-rule="evenodd" d="M30 8C28.8954 8 28 8.89543 28 10C28 11.1046 28.8954 12 30 12C31.1046 12 32 11.1046 32 10C32 8.89543 31.1046 8 30 8ZM26 10C26 7.79086 27.7909 6 30 6C32.2091 6 34 7.79086 34 10C34 12.2091 32.2091 14 30 14C27.7909 14 26 12.2091 26 10Z" fill="#FF7F37"/>
</svg>
