<svg width="48" height="48" viewBox="0 0 48 48" fill="none" xmlns="http://www.w3.org/2000/svg">
<path fill-rule="evenodd" clip-rule="evenodd" d="M33.5926 14.3871C27.7431 8.53763 18.2363 8.53763 12.3868 14.3871C11.9963 14.7776 11.3631 14.7776 10.9726 14.3871C10.5821 13.9966 10.5821 13.3634 10.9726 12.9729C17.6031 6.34237 28.3763 6.34237 35.0068 12.9729C35.3973 13.3634 35.3973 13.9966 35.0068 14.3871C34.6163 14.7776 33.9831 14.7776 33.5926 14.3871ZM22.7099 24.0429C23.1317 23.9152 23.5873 24.0786 23.8317 24.4453L31.8317 36.4453C32.0363 36.7522 32.0554 37.1467 31.8814 37.4719C31.7073 37.797 31.3685 38 30.9997 38C26.0274 38 21.9997 33.9723 21.9997 29V25C21.9997 24.5593 22.2881 24.1706 22.7099 24.0429ZM23.9997 28.3028V29C23.9997 32.1444 26.0699 34.8027 28.9225 35.687L23.9997 28.3028Z" fill="#FDDA24"/>
<path fill-rule="evenodd" clip-rule="evenodd" d="M22 13C22 12.4477 22.4477 12 23 12C30.1723 12 36 17.8277 36 25C36 25.5523 35.5523 26 35 26C34.4477 26 34 25.5523 34 25C34 18.9323 29.0677 14 23 14C22.4477 14 22 13.5523 22 13ZM19.7043 12.9701C19.9764 13.2401 20.0703 13.6419 19.9459 14.0045L11.9459 37.3245C11.7873 37.7868 11.3177 38.0668 10.8355 37.9864C10.3534 37.906 10 37.4888 10 37V25C10 19.3444 13.6185 14.5138 18.668 12.7367C19.0296 12.6095 19.4322 12.7001 19.7043 12.9701ZM17.2864 15.5935C14.1173 17.5231 12 21.0212 12 25V31.0032L17.2864 15.5935Z" fill="#00CCEA"/>
<path fill-rule="evenodd" clip-rule="evenodd" d="M23 22C21.3523 22 20 23.3523 20 25C20 25.5523 19.5523 26 19 26C18.4477 26 18 25.5523 18 25C18 22.2477 20.2477 20 23 20C25.7523 20 28 22.2477 28 25V29C28 30.6477 29.3523 32 31 32C32.6477 32 34 30.6477 34 29C34 28.4477 34.4477 28 35 28C35.5523 28 36 28.4477 36 29C36 31.7523 33.7523 34 31 34C28.2477 34 26 31.7523 26 29V25C26 23.3523 24.6477 22 23 22Z" fill="#F5B6CD"/>
<path fill-rule="evenodd" clip-rule="evenodd" d="M8 6C6.89228 6 6 6.89228 6 8V11C6 11.5523 5.55228 12 5 12C4.44772 12 4 11.5523 4 11V8C4 5.78772 5.78772 4 8 4H11C11.5523 4 12 4.44772 12 5C12 5.55228 11.5523 6 11 6H8ZM19 28C19.5523 28 20 28.4477 20 29V37C20 37.5523 19.5523 38 19 38C18.4477 38 18 37.5523 18 37V29C18 28.4477 18.4477 28 19 28Z" fill="#9063CD"/>
<path fill-rule="evenodd" clip-rule="evenodd" d="M34 5C34 4.44772 34.4477 4 35 4H38C40.2123 4 42 5.78772 42 8V11C42 11.5523 41.5523 12 41 12C40.4477 12 40 11.5523 40 11V8C40 6.89228 39.1077 6 38 6H35C34.4477 6 34 5.55228 34 5Z" fill="#FF7F37"/>
<path fill-rule="evenodd" clip-rule="evenodd" d="M41 36C41.5523 36 42 36.4477 42 37V40C42 42.2123 40.2123 44 38 44H35C34.4477 44 34 43.5523 34 43C34 42.4477 34.4477 42 35 42H38C39.1077 42 40 41.1077 40 40V37C40 36.4477 40.4477 36 41 36Z" fill="#9063CD"/>
<path fill-rule="evenodd" clip-rule="evenodd" d="M5 36C5.55228 36 6 36.4477 6 37V40C6 41.1077 6.89228 42 8 42H11C11.5523 42 12 42.4477 12 43C12 43.5523 11.5523 44 11 44H8C5.78772 44 4 42.2123 4 40V37C4 36.4477 4.44772 36 5 36Z" fill="#FF7F37"/>
<path fill-rule="evenodd" clip-rule="evenodd" d="M15 34C15.5523 34 16 34.4477 16 35V37C16 37.5523 15.5523 38 15 38C14.4477 38 14 37.5523 14 37V35C14 34.4477 14.4477 34 15 34Z" fill="#9063CD"/>
<path fill-rule="evenodd" clip-rule="evenodd" d="M23 18C19.1323 18 16 21.1323 16 25V31C16 31.5523 15.5523 32 15 32C14.4477 32 14 31.5523 14 31V25C14 20.0277 18.0277 16 23 16C27.9723 16 32 20.0277 32 25V29C32 29.5523 31.5523 30 31 30C30.4477 30 30 29.5523 30 29V25C30 21.1323 26.8677 18 23 18Z" fill="#00C389"/>
</svg>
