<svg width="1080" height="1080" viewBox="0 0 1080 1080" fill="none" xmlns="http://www.w3.org/2000/svg">
<path fill-rule="evenodd" clip-rule="evenodd" d="M379.598 583.027C381.218 591.764 375.485 600.167 366.791 601.796C304.449 613.476 269.71 650.894 261.081 688.711C252.552 726.092 268.502 767.84 316.236 792.335C324.112 796.376 327.237 806.069 323.215 813.985C319.193 821.9 309.548 825.04 301.671 820.998C241.89 790.321 217.806 734.367 229.865 681.518C241.825 629.105 288.295 583.764 360.921 570.157C369.615 568.528 377.977 574.291 379.598 583.027Z" fill="#59CBE8"/>
<path fill-rule="evenodd" clip-rule="evenodd" d="M770.092 314.53C772.72 310.192 778.349 308.816 782.666 311.456C799.478 321.74 818.86 340.377 835.529 363.96C852.25 387.618 866.645 416.82 872.927 448.551C873.913 453.532 870.695 458.373 865.738 459.364C860.782 460.355 855.965 457.121 854.979 452.14C849.301 423.463 836.171 396.627 820.609 374.61C804.994 352.518 787.333 335.841 773.151 327.166C768.834 324.525 767.465 318.868 770.092 314.53Z" fill="#FF7F41"/>
<path fill-rule="evenodd" clip-rule="evenodd" d="M760.493 337.282C765.777 330.155 775.809 328.683 782.901 333.993C804.179 349.925 832.054 379.628 847.386 418.031C863.006 457.154 865.488 505.305 835.029 555.299C830.412 562.879 820.554 565.261 813.011 560.621C805.469 555.98 803.098 546.074 807.716 538.494C832.159 498.373 830.067 461.083 817.663 430.015C804.972 398.227 781.376 372.987 763.766 359.801C756.674 354.49 755.209 344.409 760.493 337.282Z" fill="#59CBE8"/>
<path d="M596.919 938.537L328.581 871.933C301.973 865.332 285.733 838.238 292.288 811.439L447.147 178.016C453.701 151.217 480.604 134.862 507.213 141.463L775.551 208.067C802.159 214.668 818.399 241.762 811.844 268.561L656.985 901.984C650.431 928.783 623.528 945.138 596.919 938.537Z" fill="#F5B6CD"/>
<path d="M474.246 881.49C487.158 881.49 497.626 870.947 497.626 857.942C497.626 844.937 487.158 834.395 474.246 834.395C461.333 834.395 450.865 844.937 450.865 857.942C450.865 870.947 461.333 881.49 474.246 881.49Z" fill="white"/>
<path d="M780.659 286.849L466.528 208.879L328.574 772.654L642.704 850.624L780.659 286.849Z" fill="white"/>
<path fill-rule="evenodd" clip-rule="evenodd" d="M567.834 476.071C608.006 486.087 648.637 461.407 658.584 420.944C668.531 380.481 644.026 339.561 603.854 329.545C563.682 319.53 523.051 344.21 513.104 384.673C503.157 425.136 527.662 466.056 567.834 476.071ZM563.743 492.712C613.042 505.003 662.901 474.715 675.107 425.063C687.313 375.411 657.243 325.196 607.944 312.905C558.646 300.614 508.787 330.901 496.581 380.554C484.375 430.206 514.445 480.421 563.743 492.712Z" fill="#9063CD"/>
<path fill-rule="evenodd" clip-rule="evenodd" d="M580.635 420.762C564.582 416.76 551.206 422.89 546.736 431.309C544.52 435.483 539.363 437.058 535.218 434.826C531.073 432.594 529.509 427.401 531.726 423.226C540.973 405.809 563.652 398.868 584.725 404.122C605.798 409.376 622.643 426.171 622.753 445.921C622.78 450.654 618.991 454.513 614.291 454.54C609.591 454.567 605.759 450.751 605.732 446.017C605.679 436.471 596.687 424.764 580.635 420.762Z" fill="#9063CD"/>
<ellipse rx="10.8188" ry="10.8871" transform="matrix(0.970305 0.241912 -0.238717 0.971083 570.216 372.447)" fill="#9063CD"/>
<ellipse rx="10.8188" ry="10.887" transform="matrix(0.970305 0.241912 -0.238716 0.971083 617.279 384.616)" fill="#9063CD"/>
<path d="M308.625 359.402C302.756 359.402 297.473 355.461 295.908 349.55L287.397 316.839C285.538 309.745 289.745 302.553 296.788 300.681C316.843 295.361 328.875 274.67 323.593 254.472C321.049 244.718 314.886 236.442 306.18 231.417C297.473 226.294 287.397 224.915 277.614 227.476C257.56 232.797 245.527 253.487 250.81 273.685C252.668 280.779 248.462 287.971 241.418 289.843C234.375 291.715 227.234 287.478 225.375 280.385C216.473 246.098 236.918 210.825 270.962 201.86C287.495 197.524 304.712 199.889 319.386 208.559C334.158 217.23 344.625 231.22 348.93 247.773C356.756 277.724 342.18 308.366 315.669 321.667L321.147 342.85C323.006 349.944 318.799 357.136 311.756 359.008C310.875 359.304 309.701 359.402 308.625 359.402Z" fill="#FDDA24"/>
<path d="M319.582 401.473C319.191 401.473 318.702 401.473 318.311 401.374C317.919 401.374 317.43 401.276 317.039 401.177C316.158 400.98 315.376 400.783 314.593 400.389C313.811 400.094 313.028 399.601 312.343 399.207C311.952 399.01 311.658 398.714 311.267 398.419C310.974 398.123 310.582 397.827 310.289 397.532C307.843 395.069 306.474 391.62 306.474 388.172C306.474 384.723 307.843 381.275 310.289 378.812C310.582 378.516 310.876 378.221 311.267 377.925C311.561 377.63 311.952 377.433 312.343 377.137C313.028 376.644 313.811 376.25 314.593 375.955C315.376 375.659 316.158 375.364 317.039 375.166C317.43 375.068 317.919 374.969 318.311 374.969C319.191 374.871 320.072 374.871 320.854 374.969C321.245 374.969 321.735 375.068 322.126 375.166C323.006 375.364 323.789 375.561 324.572 375.955C325.354 376.25 326.137 376.743 326.822 377.137C327.213 377.334 327.506 377.63 327.898 377.925C328.191 378.221 328.582 378.516 328.876 378.812C331.322 381.275 332.691 384.723 332.691 388.172C332.691 391.62 331.322 395.069 328.876 397.532C328.582 397.827 328.289 398.123 327.898 398.419C327.604 398.714 327.213 398.911 326.822 399.207C326.137 399.7 325.354 400.094 324.572 400.389C323.789 400.685 323.006 400.98 322.126 401.177C321.735 401.276 321.245 401.374 320.854 401.374C320.463 401.473 319.974 401.473 319.582 401.473Z" fill="#FDDA24"/>
<path d="M794.694 746.813C792.311 744.083 791.974 740.025 794.051 736.895L805.604 719.642C808.104 715.894 813.112 714.927 816.831 717.441C827.415 724.604 841.795 721.79 848.917 711.124C852.36 705.977 853.655 699.747 852.425 693.656C851.241 687.525 847.782 682.279 842.634 678.771C832.05 671.608 817.671 674.422 810.548 685.088C808.048 688.836 803.04 689.803 799.321 687.288C795.602 684.774 794.646 679.731 797.146 675.983C809.264 657.908 833.75 653.079 851.687 665.266C860.389 671.192 866.296 680.159 868.276 690.507C870.296 700.9 868.127 711.454 862.28 720.183C851.714 735.997 831.736 741.673 814.868 734.751L807.373 745.908C804.873 749.656 799.865 750.623 796.146 748.108C795.653 747.819 795.131 747.313 794.694 746.813Z" fill="#FDDA24"/>
<path d="M779.846 769.003C779.687 768.821 779.488 768.593 779.375 768.371C779.216 768.189 779.062 767.922 778.949 767.7C778.682 767.21 778.454 766.766 778.317 766.242C778.135 765.758 778.043 765.194 777.946 764.715C777.878 764.453 777.894 764.197 777.871 763.895C777.887 763.638 777.864 763.336 777.88 763.079C778.018 760.941 779.044 758.902 780.626 757.501C782.208 756.099 784.347 755.334 786.47 755.471C786.725 755.487 786.98 755.503 787.274 755.565C787.529 755.581 787.778 755.683 788.073 755.745C788.577 755.863 789.075 756.067 789.529 756.311C789.982 756.555 790.436 756.798 790.884 757.128C791.088 757.27 791.331 757.457 791.49 757.639C791.893 758.008 792.251 758.418 792.523 758.822C792.682 759.004 792.836 759.271 792.949 759.493C793.216 759.983 793.444 760.427 793.581 760.951C793.763 761.435 793.855 761.999 793.952 762.478C794.02 762.74 794.004 762.996 794.027 763.299C794.011 763.555 794.034 763.857 794.017 764.114C793.88 766.252 792.854 768.291 791.272 769.692C789.69 771.094 787.551 771.859 785.428 771.723C785.173 771.706 784.918 771.69 784.624 771.628C784.369 771.612 784.12 771.51 783.825 771.448C783.321 771.33 782.822 771.126 782.369 770.882C781.916 770.639 781.462 770.395 781.014 770.066C780.81 769.924 780.566 769.736 780.407 769.554C780.203 769.412 780.005 769.185 779.846 769.003Z" fill="#FDDA24"/>
<path fill-rule="evenodd" clip-rule="evenodd" d="M717.978 335.388C721.776 328.796 730.173 326.546 736.734 330.362C762.557 345.387 801.221 375.518 820.351 422.503C835.119 458.778 840.415 508.393 804.82 555.265C800.221 561.321 791.608 562.483 785.582 557.862C779.556 553.24 778.399 544.585 782.998 538.529C810.901 501.786 807.293 463.282 794.944 432.949C779.04 393.887 746.155 367.719 722.98 354.236C716.419 350.419 714.18 341.981 717.978 335.388Z" fill="#00C389"/>
<path fill-rule="evenodd" clip-rule="evenodd" d="M366.099 547.095C408.153 539.85 462.17 544.778 516.467 551.305C523.993 552.21 529.365 559.075 528.465 566.639C527.564 574.203 520.733 579.601 513.206 578.696C458.35 572.102 408.246 567.822 370.738 574.284C315.231 583.848 278.301 607.012 259.235 639.036C255.344 645.573 246.915 647.702 240.41 643.791C233.905 639.879 231.787 631.41 235.679 624.872C260.167 583.74 305.618 557.515 366.099 547.095Z" fill="#00C389"/>
<path fill-rule="evenodd" clip-rule="evenodd" d="M430.216 581.61C430.658 572.734 438.177 565.898 447.01 566.343C478.894 567.947 513.846 571.914 548.462 575.843C570.347 578.327 592.097 580.796 612.853 582.643C668.061 587.555 717.618 588.287 754.86 576.668C763.306 574.033 772.278 578.777 774.9 587.265C777.523 595.753 772.801 604.769 764.355 607.405C720.512 621.083 665.289 619.618 610.028 614.701C587.469 612.694 565.059 610.139 542.997 607.623C509.427 603.795 476.662 600.059 445.408 598.486C436.575 598.042 429.773 590.486 430.216 581.61Z" fill="#59CBE8"/>
<path fill-rule="evenodd" clip-rule="evenodd" d="M503.445 608.238C503.949 603.185 508.434 599.5 513.463 600.007C532.717 601.947 551.665 604.284 570.109 606.595C571.84 606.812 573.566 607.029 575.287 607.245C591.945 609.335 608.16 611.369 623.939 613.057C658.811 616.787 690.967 618.752 719.83 615.919C724.86 615.426 729.335 619.123 729.826 624.178C730.318 629.232 726.638 633.73 721.609 634.223C690.832 637.243 657.17 635.107 622.002 631.345C606.048 629.638 589.665 627.582 573.038 625.496C571.31 625.279 569.579 625.062 567.845 624.845C549.402 622.534 530.649 620.222 511.636 618.306C506.608 617.799 502.94 613.292 503.445 608.238Z" fill="#FF7F41"/>
<path fill-rule="evenodd" clip-rule="evenodd" d="M285.099 769.885H244.529C227.888 742.948 222.973 711.726 229.865 681.518C241.825 629.105 288.295 583.764 360.921 570.157C369.615 568.528 377.977 574.291 379.598 583.027C381.218 591.764 375.485 600.167 366.791 601.796C304.449 613.476 269.71 650.894 261.081 688.711C254.79 716.285 261.818 746.236 285.099 769.885Z" fill="#59CBE8"/>
<path fill-rule="evenodd" clip-rule="evenodd" d="M323.59 623.805C326.256 628.119 324.938 633.788 320.645 636.468C250.039 680.539 271.178 778.126 340.61 793.078C345.551 794.142 348.699 799.03 347.64 803.996C346.581 808.962 341.717 812.125 336.775 811.06C250.419 792.464 227.112 673.201 310.989 620.845C315.282 618.166 320.923 619.491 323.59 623.805Z" fill="#FF7F41"/>
</svg>
