<svg width="48" height="48" viewBox="0 0 48 48" fill="none" xmlns="http://www.w3.org/2000/svg">
<path fill-rule="evenodd" clip-rule="evenodd" d="M12 9C12 8.44772 12.4477 8 13 8H35C35.5523 8 36 8.44772 36 9V19C36 19.5523 35.5523 20 35 20C34.4477 20 34 19.5523 34 19V10H14V19C14 19.5523 13.5523 20 13 20C12.4477 20 12 19.5523 12 19V9Z" fill="#00C389"/>
<path fill-rule="evenodd" clip-rule="evenodd" d="M43 21C43.5523 21 44 21.4477 44 22V35C44 35.5523 43.5523 36 43 36H35C34.4477 36 34 35.5523 34 35C34 34.4477 34.4477 34 35 34H42V22C42 21.4477 42.4477 21 43 21Z" fill="#00CCEA"/>
<path fill-rule="evenodd" clip-rule="evenodd" d="M8.00039 20C7.57644 20 7.20065 20.1219 6.89841 20.336C6.44773 20.6553 5.8236 20.5487 5.50437 20.098C5.18514 19.6473 5.2917 19.0232 5.74238 18.704C6.40013 18.2381 7.18435 18 8.00039 18H40.0004C42.2127 18 44.0004 19.7877 44.0004 22C44.0004 22.5523 43.5527 23 43.0004 23C42.4481 23 42.0004 22.5523 42.0004 22C42.0004 20.8923 41.1081 20 40.0004 20H8.00039Z" fill="#9063CD"/>
<path fill-rule="evenodd" clip-rule="evenodd" d="M7.14885 18.9641C7.45784 19.4218 7.33723 20.0434 6.87947 20.3524C6.34229 20.715 6 21.3108 6 22.0035V34.0035H13C13.5523 34.0035 14 34.4513 14 35.0035C14 35.5558 13.5523 36.0035 13 36.0035H5C4.44772 36.0035 4 35.5558 4 35.0035V22.0035C4 20.6163 4.69771 19.4121 5.76053 18.6947C6.21829 18.3857 6.83986 18.5063 7.14885 18.9641Z" fill="#F5B6CD"/>
<path fill-rule="evenodd" clip-rule="evenodd" d="M12 29C12 28.4477 12.4477 28 13 28H35C35.5523 28 36 28.4477 36 29C36 29.5523 35.5523 30 35 30H14V39C14 39.5523 13.5523 40 13 40C12.4477 40 12 39.5523 12 39V29Z" fill="#FDDA24"/>
<path fill-rule="evenodd" clip-rule="evenodd" d="M35 28C35.5523 28 36 28.4477 36 29V39C36 39.5523 35.5523 40 35 40H13C12.4477 40 12 39.5523 12 39C12 38.4477 12.4477 38 13 38H34V29C34 28.4477 34.4477 28 35 28Z" fill="#FF7F37"/>
<path fill-rule="evenodd" clip-rule="evenodd" d="M8 23C8 22.4477 8.44772 22 9 22H13C13.5523 22 14 22.4477 14 23C14 23.5523 13.5523 24 13 24H9C8.44772 24 8 23.5523 8 23Z" fill="#F5B6CD"/>
</svg>
