<svg width="48" height="48" viewBox="0 0 48 48" fill="none" xmlns="http://www.w3.org/2000/svg">
<path fill-rule="evenodd" clip-rule="evenodd" d="M33 19.4219C33.5523 19.4219 34 19.8696 34 20.4219V24.0019C34 28.6324 29.2852 32.0019 24 32.0019C18.7148 32.0019 14 28.6324 14 24.0019V21.0019C14 20.4496 14.4477 20.0019 15 20.0019C15.5523 20.0019 16 20.4496 16 21.0019V24.0019C16 27.0913 19.3252 30.0019 24 30.0019C28.6748 30.0019 32 27.0913 32 24.0019V20.4219C32 19.8696 32.4477 19.4219 33 19.4219Z" fill="#FDDA24"/>
<path fill-rule="evenodd" clip-rule="evenodd" d="M27 7C27 6.44772 27.4477 6 28 6H38C40.2123 6 42 7.78772 42 10V15C42 15.5523 41.5523 16 41 16H31C30.4477 16 30 15.5523 30 15C30 14.4477 30.4477 14 31 14H40V10C40 8.89228 39.1077 8 38 8H28C27.4477 8 27 7.55228 27 7Z" fill="#00C389"/>
<path fill-rule="evenodd" clip-rule="evenodd" d="M10 8C8.89228 8 8 8.89228 8 10V14H17C17.5523 14 18 14.4477 18 15C18 15.5523 17.5523 16 17 16H7C6.44772 16 6 15.5523 6 15V10C6 7.78772 7.78772 6 10 6H28C28.5523 6 29 6.44772 29 7C29 7.55228 28.5523 8 28 8H10Z" fill="#FF7F37"/>
<path fill-rule="evenodd" clip-rule="evenodd" d="M24 14C19.3333 14 16 16.9056 16 20C16 23.0944 19.3333 26 24 26C28.6667 26 32 23.0944 32 20C32 16.9056 28.6667 14 24 14ZM14 20C14 15.3624 18.7256 12 24 12C29.2744 12 34 15.3624 34 20C34 24.6376 29.2744 28 24 28C18.7256 28 14 24.6376 14 20Z" fill="#9063CD"/>
<path fill-rule="evenodd" clip-rule="evenodd" d="M20.979 18.7362C20.2344 19.1829 20 19.6608 20 20C20 20.3392 20.2344 20.8171 20.979 21.2638C21.7037 21.6986 22.7694 22 24 22C25.2306 22 26.2963 21.6986 27.021 21.2638C27.7656 20.8171 28 20.3392 28 20C28 19.6608 27.7656 19.1829 27.021 18.7362C26.2963 18.3014 25.2306 18 24 18C22.7694 18 21.7037 18.3014 20.979 18.7362ZM19.95 17.0212C21.0349 16.3702 22.4692 16 24 16C25.5308 16 26.9651 16.3702 28.05 17.0212C29.1151 17.6602 30 18.6823 30 20C30 21.3177 29.1151 22.3398 28.05 22.9788C26.9651 23.6298 25.5308 24 24 24C22.4692 24 21.0349 23.6298 19.95 22.9788C18.8849 22.3398 18 21.3177 18 20C18 18.6823 18.8849 17.6602 19.95 17.0212Z" fill="#00CCEA"/>
<path fill-rule="evenodd" clip-rule="evenodd" d="M23.2929 35.2929C23.6834 34.9024 24.3166 34.9024 24.7071 35.2929L29.7071 40.2929C30.0976 40.6834 30.0976 41.3166 29.7071 41.7071C29.3166 42.0976 28.6834 42.0976 28.2929 41.7071L24 37.4142L19.7071 41.7071C19.3166 42.0976 18.6834 42.0976 18.2929 41.7071C17.9024 41.3166 17.9024 40.6834 18.2929 40.2929L23.2929 35.2929Z" fill="#F5B6CD"/>
</svg>
