<svg width="48" height="48" viewBox="0 0 48 48" fill="none" xmlns="http://www.w3.org/2000/svg">
<path fill-rule="evenodd" clip-rule="evenodd" d="M26 13C26 12.4477 26.4477 12 27 12C31.9723 12 36 16.0277 36 21C36 21.5523 35.5523 22 35 22C34.4477 22 34 21.5523 34 21C34 17.1323 30.8677 14 27 14C26.4477 14 26 13.5523 26 13Z" fill="#00C389"/>
<path fill-rule="evenodd" clip-rule="evenodd" d="M26 7C26 6.44772 26.4477 6 27 6C35.2923 6 42 12.7077 42 21C42 21.5523 41.5523 22 41 22C40.4477 22 40 21.5523 40 21C40 13.8123 34.1877 8 27 8C26.4477 8 26 7.55228 26 7Z" fill="#FDDA24"/>
<path fill-rule="evenodd" clip-rule="evenodd" d="M15 20C15.5523 20 16 20.4477 16 21C16 27.0677 20.9323 32 27 32C27.5523 32 28 32.4477 28 33C28 33.5523 27.5523 34 27 34C19.8277 34 14 28.1723 14 21C14 20.4477 14.4477 20 15 20Z" fill="#00CCEA"/>
<path fill-rule="evenodd" clip-rule="evenodd" d="M31.425 27.9766H36C38.2123 27.9766 40 29.7643 40 31.9766V37.0566C40 38.8078 38.8823 40.3562 37.2033 40.8895C35.24 41.516 33.1713 41.8923 31.0392 41.9759C30.4873 41.9975 30.0224 41.5677 30.0008 41.0158C29.9791 40.464 30.409 39.999 30.9608 39.9774C32.9085 39.901 34.7995 39.5573 36.596 38.984L36.5974 38.9835C37.438 38.7167 38 37.9452 38 37.0566V31.9766C38 30.8689 37.1077 29.9766 36 29.9766H31.4341C31.4318 29.979 31.4295 29.9814 31.4271 29.9837L27.7071 33.7037C27.3166 34.0943 26.6834 34.0943 26.2929 33.7037C25.9024 33.3132 25.9024 32.6801 26.2929 32.2895L30.0023 28.5801C30.1837 28.3892 30.4021 28.2372 30.6443 28.1334C30.8909 28.0277 31.1568 27.9744 31.425 27.9766Z" fill="#FF7F37"/>
<path fill-rule="evenodd" clip-rule="evenodd" d="M7.75976 24.0238C8.28608 23.8565 8.84841 24.1475 9.01576 24.6738C11.5219 32.5557 18.4708 38.6 26.799 39.7662C28.2278 39.9591 29.6076 40.0349 30.9606 39.9777C31.5123 39.9544 31.9786 40.3828 32.0019 40.9346C32.0252 41.4864 31.5968 41.9526 31.045 41.9759C29.5586 42.0387 28.0592 41.9546 26.5288 41.7478L26.5242 41.7472C17.4135 40.4725 9.84342 33.8772 7.10978 25.2798C6.94243 24.7535 7.23344 24.1912 7.75976 24.0238Z" fill="#F5B6CD"/>
<path fill-rule="evenodd" clip-rule="evenodd" d="M7.08947 10.7974C7.62261 9.11803 9.17119 8 10.9226 8H16.0026C18.2149 8 20.0026 9.78772 20.0026 12V16.58C20.0026 17.1282 19.7951 17.6217 19.4097 18.0071L15.7097 21.7071C15.3192 22.0976 14.686 22.0976 14.2955 21.7071C13.905 21.3166 13.905 20.6834 14.2955 20.2929L17.9955 16.5929C17.9984 16.59 18.0007 16.5875 18.0025 16.5855C18.0026 16.5839 18.0026 16.5821 18.0026 16.58V12C18.0026 10.8923 17.1103 10 16.0026 10H10.9226C10.0347 10 9.26384 10.5611 8.99638 11.4005C7.64678 15.7248 7.64704 20.3578 8.99715 24.682C9.16175 25.2092 8.86781 25.77 8.34063 25.9346C7.81344 26.0992 7.25264 25.8052 7.08804 25.278C5.61649 20.5649 5.61649 15.5151 7.08804 10.802L7.08946 10.7974L7.08947 10.7974Z" fill="#9063CD"/>
</svg>
