<svg width="48" height="48" viewBox="0 0 48 48" fill="none" xmlns="http://www.w3.org/2000/svg">
<path fill-rule="evenodd" clip-rule="evenodd" d="M5 10C5.55228 10 6 10.4477 6 11V36C6 36.5523 5.55228 37 5 37C4.44772 37 4 36.5523 4 36V11C4 10.4477 4.44772 10 5 10Z" fill="#9063CD"/>
<path fill-rule="evenodd" clip-rule="evenodd" d="M5 35C5.55228 35 6 35.4477 6 36C6 37.1077 6.89228 38 8 38H40C40.5523 38 41 38.4477 41 39C41 39.5523 40.5523 40 40 40H8C5.78772 40 4 38.2123 4 36C4 35.4477 4.44772 35 5 35Z" fill="#F5B6CD"/>
<path fill-rule="evenodd" clip-rule="evenodd" d="M43 10C43.5523 10 44 10.4477 44 11V36C44 38.2123 42.2123 40 40 40C39.4477 40 39 39.5523 39 39C39 38.4477 39.4477 38 40 38C41.1077 38 42 37.1077 42 36V11C42 10.4477 42.4477 10 43 10Z" fill="#00CCEA"/>
<path fill-rule="evenodd" clip-rule="evenodd" d="M4 11C4 10.4477 4.44772 10 5 10H43C43.5523 10 44 10.4477 44 11C44 11.5523 43.5523 12 43 12H5C4.44772 12 4 11.5523 4 11Z" fill="#00C389"/>
<path fill-rule="evenodd" clip-rule="evenodd" d="M19.474 24.0613C19.8716 24.4446 19.8833 25.0777 19.5 25.4753L7.71995 37.6953C7.33665 38.0929 6.70359 38.1045 6.30597 37.7212C5.90836 37.3379 5.89675 36.7048 6.28005 36.3072L18.0601 24.0872C18.4434 23.6896 19.0764 23.678 19.474 24.0613Z" fill="#FF7F37"/>
<path fill-rule="evenodd" clip-rule="evenodd" d="M43.7034 10.2929C44.0939 10.6834 44.0939 11.3166 43.7034 11.7071L30.1659 25.2445L41.6879 36.2777C42.0868 36.6597 42.1005 37.2927 41.7185 37.6916C41.3365 38.0905 40.7035 38.1042 40.3046 37.7223L28.7514 26.6591L24.7034 30.7071C24.3128 31.0976 23.6797 31.0976 23.2891 30.7071L21.4491 28.8671C21.0586 28.4766 21.0586 27.8434 21.4491 27.4529C21.8397 27.0624 22.4728 27.0624 22.8634 27.4529L23.9962 28.5858L28.0274 24.5547C28.0287 24.5533 28.0301 24.5519 28.0315 24.5505L42.2891 10.2929C42.6797 9.90237 43.3128 9.90237 43.7034 10.2929Z" fill="#FDDA24"/>
<path fill-rule="evenodd" clip-rule="evenodd" d="M4.29289 10.2929C4.68342 9.90237 5.31658 9.90237 5.70711 10.2929L22.8671 27.4529C23.2576 27.8434 23.2576 28.4766 22.8671 28.8671C22.4766 29.2576 21.8434 29.2576 21.4529 28.8671L4.29289 11.7071C3.90237 11.3166 3.90237 10.6834 4.29289 10.2929Z" fill="#FF7F37"/>
</svg>
