<svg width="48" height="48" viewBox="0 0 48 48" fill="none" xmlns="http://www.w3.org/2000/svg">
<path fill-rule="evenodd" clip-rule="evenodd" d="M36.9766 24.5C37.5288 24.5 37.9766 24.9477 37.9766 25.5V30C37.9766 33.713 36.5016 37.274 33.8761 39.8995C31.2505 42.525 27.6896 44 23.9766 44C23.4243 44 22.9766 43.5523 22.9766 43C22.9766 42.4477 23.4243 42 23.9766 42C27.1592 42 30.2114 40.7357 32.4618 38.4853C34.7123 36.2348 35.9766 33.1826 35.9766 30V25.5C35.9766 24.9477 36.4243 24.5 36.9766 24.5Z" fill="#9063CD"/>
<path fill-rule="evenodd" clip-rule="evenodd" d="M33.9766 18C32.8688 18 31.9766 18.8923 31.9766 20V21C31.9766 21.5523 31.5288 22 30.9766 22C30.4243 22 29.9766 21.5523 29.9766 21V20C29.9766 17.7877 31.7643 16 33.9766 16C36.1888 16 37.9766 17.7877 37.9766 20V25.5C37.9766 26.0523 37.5288 26.5 36.9766 26.5C36.4243 26.5 35.9766 26.0523 35.9766 25.5V20C35.9766 18.8923 35.0843 18 33.9766 18Z" fill="#FF7F37"/>
<path fill-rule="evenodd" clip-rule="evenodd" d="M23.9766 18C23.9766 15.7877 25.7643 14 27.9766 14C30.1888 14 31.9766 15.7877 31.9766 18V26C31.9766 28.2123 30.1888 30 27.9766 30C25.7643 30 23.9766 28.2123 23.9766 26V18ZM27.9766 16C26.8688 16 25.9766 16.8923 25.9766 18V26C25.9766 27.1077 26.8688 28 27.9766 28C29.0843 28 29.9766 27.1077 29.9766 26V18C29.9766 16.8923 29.0843 16 27.9766 16Z" fill="#FDDA24"/>
<path fill-rule="evenodd" clip-rule="evenodd" d="M21.9766 14C20.8688 14 19.9766 14.8923 19.9766 16V23C19.9766 23.5523 19.5288 24 18.9766 24C18.4243 24 17.9766 23.5523 17.9766 23V16C17.9766 13.7877 19.7643 12 21.9766 12C24.1888 12 25.9766 13.7877 25.9766 16V27C25.9766 27.5523 25.5288 28 24.9766 28C24.4243 28 23.9766 27.5523 23.9766 27V16C23.9766 14.8923 23.0843 14 21.9766 14Z" fill="#00C389"/>
<path fill-rule="evenodd" clip-rule="evenodd" d="M11.9766 8C11.9766 5.78772 13.7643 4 15.9766 4C18.1888 4 19.9766 5.78772 19.9766 8V27C19.9766 27.5523 19.5288 28 18.9766 28C18.4243 28 17.9766 27.5523 17.9766 27V8C17.9766 6.89228 17.0843 6 15.9766 6C14.8688 6 13.9766 6.89228 13.9766 8V27C13.9766 27.5523 13.5288 28 12.9766 28C12.4243 28 11.9766 27.5523 11.9766 27V8Z" fill="#00CCEA"/>
<path fill-rule="evenodd" clip-rule="evenodd" d="M30.9766 25C31.5288 25 31.9766 25.4477 31.9766 26C31.9766 27.1077 32.8688 28 33.9766 28C35.0843 28 35.9766 27.1077 35.9766 26C35.9766 25.4477 36.4243 25 36.9766 25C37.5288 25 37.9766 25.4477 37.9766 26C37.9766 28.2123 36.1888 30 33.9766 30C31.7643 30 29.9766 28.2123 29.9766 26C29.9766 25.4477 30.4243 25 30.9766 25Z" fill="#FF7F37"/>
<path fill-rule="evenodd" clip-rule="evenodd" d="M11.9766 28C10.8688 28 9.97656 28.8923 9.97656 30C9.97656 33.1826 11.2408 36.2348 13.4913 38.4853C15.7417 40.7357 18.794 42 21.9766 42H23.9766C24.5288 42 24.9766 42.4477 24.9766 43C24.9766 43.5523 24.5288 44 23.9766 44H21.9766C18.2635 44 14.7026 42.525 12.0771 39.8995C9.45156 37.274 7.97656 33.713 7.97656 30C7.97656 27.7877 9.76428 26 11.9766 26H24.9766C25.5288 26 25.9766 26.4477 25.9766 27C25.9766 30.8723 22.8488 34 18.9766 34H16.9766C16.4243 34 15.9766 33.5523 15.9766 33C15.9766 32.4477 16.4243 32 16.9766 32H18.9766C21.4017 32 23.4157 30.2862 23.8772 28H11.9766Z" fill="#F5B6CD"/>
</svg>
