<svg width="48" height="48" viewBox="0 0 48 48" fill="none" xmlns="http://www.w3.org/2000/svg">
<path fill-rule="evenodd" clip-rule="evenodd" d="M24 6.0625C20.6923 6.0625 18 8.75479 18 12.0625V17.0025C18 17.5548 17.5523 18.0025 17 18.0025C16.4477 18.0025 16 17.5548 16 17.0025V12.0625C16 7.65022 19.5877 4.0625 24 4.0625C28.4123 4.0625 32 7.65022 32 12.0625V17.0025C32 17.5548 31.5523 18.0025 31 18.0025C30.4477 18.0025 30 17.5548 30 17.0025V12.0625C30 8.75479 27.3077 6.0625 24 6.0625Z" fill="#00C389"/>
<path fill-rule="evenodd" clip-rule="evenodd" d="M8 17C8 16.4477 8.44772 16 9 16H31C31.5523 16 32 16.4477 32 17C32 17.5523 31.5523 18 31 18H10V25C10 25.5523 9.55228 26 9 26C8.44772 26 8 25.5523 8 25V17Z" fill="#9063CD"/>
<path fill-rule="evenodd" clip-rule="evenodd" d="M9 24C9.55228 24 10 24.4477 10 25V40C10 41.1077 10.8923 42 12 42H16.1C16.6523 42 17.1 42.4477 17.1 43C17.1 43.5523 16.6523 44 16.1 44H12C9.78772 44 8 42.2123 8 40V25C8 24.4477 8.44772 24 9 24Z" fill="#00CCEA"/>
<path fill-rule="evenodd" clip-rule="evenodd" d="M15.1016 43C15.1016 42.4477 15.5493 42 16.1016 42H36.0016C36.5538 42 37.0016 42.4477 37.0016 43C37.0016 43.5523 36.5538 44 36.0016 44H16.1016C15.5493 44 15.1016 43.5523 15.1016 43Z" fill="#FDDA24"/>
<path fill-rule="evenodd" clip-rule="evenodd" d="M39 26.5391C39.5523 26.5391 40 26.9868 40 27.5391V39.9991C40 42.2113 38.2123 43.9991 36 43.9991C35.4477 43.9991 35 43.5513 35 42.9991C35 42.4468 35.4477 41.9991 36 41.9991C37.1077 41.9991 38 41.1068 38 39.9991V27.5391C38 26.9868 38.4477 26.5391 39 26.5391Z" fill="#F5B6CD"/>
<path fill-rule="evenodd" clip-rule="evenodd" d="M26 17C26 16.4477 26.4477 16 27 16H39C39.5523 16 40 16.4477 40 17V27.54C40 28.0923 39.5523 28.54 39 28.54C38.4477 28.54 38 28.0923 38 27.54V18H27C26.4477 18 26 17.5523 26 17Z" fill="#FF7F37"/>
<path fill-rule="evenodd" clip-rule="evenodd" d="M17 16C17.5523 16 18 16.4477 18 17V23C18 23.5523 17.5523 24 17 24C16.4477 24 16 23.5523 16 23V17C16 16.4477 16.4477 16 17 16Z" fill="#9063CD"/>
<path fill-rule="evenodd" clip-rule="evenodd" d="M31 16C31.5523 16 32 16.4477 32 17V23C32 23.5523 31.5523 24 31 24C30.4477 24 30 23.5523 30 23V17C30 16.4477 30.4477 16 31 16Z" fill="#FF7F37"/>
</svg>
