<svg width="48" height="48" viewBox="0 0 48 48" fill="none" xmlns="http://www.w3.org/2000/svg">
<path fill-rule="evenodd" clip-rule="evenodd" d="M17.9701 5.95329C18.173 6.46698 17.921 7.04784 17.4073 7.25069C10.7346 9.88563 6 16.3864 6 24.0006L6 24.0012C5.99814 26.9154 6.70414 29.7863 8.05731 32.3673C9.41048 34.9482 11.3703 37.1618 13.7682 38.8177C14.2227 39.1315 14.3367 39.7544 14.0229 40.2088C13.709 40.6633 13.0862 40.7773 12.6318 40.4634C9.96727 38.6234 7.78959 36.1638 6.286 33.2959C4.78252 30.4283 3.99803 27.2384 4 24.0006M17.9701 5.95329C17.7673 5.43961 17.1864 5.18763 16.6727 5.39047L17.9701 5.95329ZM16.6727 5.39047C9.26556 8.31546 4.00027 15.5343 4 23.9999L16.6727 5.39047Z" fill="#00CCEA"/>
<path fill-rule="evenodd" clip-rule="evenodd" d="M43.0032 23C43.5555 23 44.0032 23.4477 44.0032 24C44.0032 35.0523 35.0555 44 24.0032 44C19.7743 44 15.8566 42.6948 12.6337 40.462C12.1797 40.1475 12.0667 39.5245 12.3812 39.0705C12.6957 38.6165 13.3187 38.5035 13.7727 38.818C16.6699 40.8252 20.1921 42 24.0032 42C33.9509 42 42.0032 33.9477 42.0032 24C42.0032 23.4477 42.4509 23 43.0032 23Z" fill="#F5B6CD"/>
<path fill-rule="evenodd" clip-rule="evenodd" d="M23.9993 6C21.6655 6 19.4511 6.4361 17.4092 7.24907C16.8961 7.45336 16.3146 7.20302 16.1103 6.68991C15.906 6.1768 16.1563 5.59523 16.6694 5.39093C18.9476 4.4839 21.4131 4 23.9993 4C35.0516 4 43.9993 12.9477 43.9993 24C43.9993 24.5523 43.5516 25 42.9993 25C42.447 25 41.9993 24.5523 41.9993 24C41.9993 14.0523 33.947 6 23.9993 6Z" fill="#00C389"/>
<path fill-rule="evenodd" clip-rule="evenodd" d="M19.9657 14.3458C20.4133 14.6692 20.514 15.2943 20.1906 15.742C18.4439 18.1596 16.1768 20.1544 13.5566 21.5793C10.9364 23.0042 8.02976 23.8229 5.05103 23.975C4.49947 24.0032 4.0295 23.5789 4.00133 23.0273C3.97315 22.4758 4.39745 22.0058 4.94901 21.9776C7.62885 21.8407 10.2438 21.1042 12.6011 19.8223C14.9584 18.5403 16.998 16.7457 18.5695 14.5707C18.8929 14.123 19.518 14.0223 19.9657 14.3458Z" fill="#9063CD"/>
<path fill-rule="evenodd" clip-rule="evenodd" d="M16.9733 5.32252C17.5244 5.28616 18.0006 5.70344 18.0369 6.25452C18.226 9.12104 19.0627 11.9074 20.4839 14.4039C21.9052 16.9004 23.8741 19.0422 26.2425 20.6681C28.6108 22.2939 31.3171 23.3616 34.1576 23.7907C36.9981 24.2198 39.899 23.9992 42.6419 23.1455C43.1693 22.9814 43.7298 23.2758 43.8939 23.8032C44.058 24.3305 43.7636 24.8911 43.2363 25.0552C40.2046 25.9987 36.9984 26.2425 33.8588 25.7682C30.7193 25.294 27.7282 24.1139 25.1105 22.3169C22.4928 20.5199 20.3167 18.1527 18.7459 15.3934C17.175 12.634 16.2503 9.55443 16.0413 6.38617C16.0049 5.83509 16.4222 5.35887 16.9733 5.32252Z" fill="#FDDA24"/>
<path fill-rule="evenodd" clip-rule="evenodd" d="M18 28C16.8954 28 16 28.8954 16 30C16 31.1046 16.8954 32 18 32C19.1046 32 20 31.1046 20 30C20 28.8954 19.1046 28 18 28ZM14 30C14 27.7909 15.7909 26 18 26C20.2091 26 22 27.7909 22 30C22 32.2091 20.2091 34 18 34C15.7909 34 14 32.2091 14 30Z" fill="#FF7F37"/>
<path fill-rule="evenodd" clip-rule="evenodd" d="M30 28C28.8954 28 28 28.8954 28 30C28 31.1046 28.8954 32 30 32C31.1046 32 32 31.1046 32 30C32 28.8954 31.1046 28 30 28ZM26 30C26 27.7909 27.7909 26 30 26C32.2091 26 34 27.7909 34 30C34 32.2091 32.2091 34 30 34C27.7909 34 26 32.2091 26 30Z" fill="#FF7F37"/>
</svg>
