<svg width="48" height="48" viewBox="0 0 48 48" fill="none" xmlns="http://www.w3.org/2000/svg">
<path fill-rule="evenodd" clip-rule="evenodd" d="M36.7304 9.85539C37.1209 9.46487 37.7541 9.46487 38.1446 9.85539C45.9551 17.6659 45.9551 30.3391 38.1446 38.1496C37.7541 38.5401 37.1209 38.5401 36.7304 38.1496C36.3399 37.7591 36.3399 37.1259 36.7304 36.7354C43.7599 29.7059 43.7599 18.2991 36.7304 11.2696C36.3399 10.8791 36.3399 10.2459 36.7304 9.85539Z" fill="#F5B6CD"/>
<path fill-rule="evenodd" clip-rule="evenodd" d="M33.8944 12.6914C34.2849 12.3008 34.9181 12.3008 35.3086 12.6913C36.7949 14.1774 37.9739 15.9418 38.7783 17.8836C39.5827 19.8254 39.9967 21.9066 39.9967 24.0084C39.9967 26.1103 39.5827 28.1915 38.7783 30.1333C37.9739 32.0751 36.7949 33.8394 35.3086 35.3256C34.9181 35.7161 34.2849 35.716 33.8944 35.3255C33.5039 34.935 33.5039 34.3018 33.8945 33.9113C35.195 32.6109 36.2267 31.067 36.9306 29.3679C37.6344 27.6687 37.9967 25.8476 37.9967 24.0084C37.9967 22.1693 37.6344 20.3481 36.9306 18.649C36.2267 16.9499 35.195 15.406 33.8945 14.1056C33.5039 13.7151 33.5039 13.0819 33.8944 12.6914Z" fill="#9063CD"/>
<path fill-rule="evenodd" clip-rule="evenodd" d="M31.0737 15.5121C31.464 15.1213 32.0972 15.1209 32.4879 15.5112C33.6034 16.6253 34.4883 17.9484 35.092 19.4048C35.6958 20.8611 36.0066 22.4222 36.0066 23.9988C36.0066 25.5753 35.6958 27.1364 35.092 28.5927C34.4883 30.0491 33.6034 31.3722 32.4879 32.4863C32.0972 32.8766 31.464 32.8762 31.0737 32.4854C30.6834 32.0947 30.6838 31.4615 31.0746 31.0712C32.004 30.1429 32.7414 29.0404 33.2445 27.8268C33.7476 26.6133 34.0066 25.3125 34.0066 23.9988C34.0066 22.685 33.7476 21.3842 33.2445 20.1707C32.7414 18.9571 32.004 17.8547 31.0746 16.9263C30.6838 16.536 30.6834 15.9028 31.0737 15.5121Z" fill="#FDDA24"/>
<path fill-rule="evenodd" clip-rule="evenodd" d="M16.5 14C16.2323 14 16 14.2323 16 14.5V17.5C16 17.7677 16.2323 18 16.5 18H19.5C19.7677 18 20 17.7677 20 17.5V14.5C20 14.2323 19.7677 14 19.5 14H16.5ZM14 14.5C14 13.1277 15.1277 12 16.5 12H19.5C20.8723 12 22 13.1277 22 14.5V17.5C22 18.8723 20.8723 20 19.5 20H16.5C15.1277 20 14 18.8723 14 17.5V14.5Z" fill="#9063CD"/>
<path fill-rule="evenodd" clip-rule="evenodd" d="M8 10C6.89228 10 6 10.8923 6 12V36C6 37.1077 6.89228 38 8 38H12C12.5523 38 13 38.4477 13 39C13 39.5523 12.5523 40 12 40H8C5.78772 40 4 38.2123 4 36V12C4 9.78772 5.78772 8 8 8C8.55228 8 9 8.44772 9 9C9 9.55228 8.55228 10 8 10Z" fill="#00CCEA"/>
<path fill-rule="evenodd" clip-rule="evenodd" d="M25 21C25.5523 21 26 21.4477 26 22V36C26 38.2123 24.2123 40 22 40H12C11.4477 40 11 39.5523 11 39C11 38.4477 11.4477 38 12 38H22C23.1077 38 24 37.1077 24 36V22C24 21.4477 24.4477 21 25 21Z" fill="#FF7F37"/>
<path fill-rule="evenodd" clip-rule="evenodd" d="M7 9C7 8.44772 7.44772 8 8 8H22C24.2123 8 26 9.78772 26 12V22C26 22.5523 25.5523 23 25 23C24.4477 23 24 22.5523 24 22V12C24 10.8923 23.1077 10 22 10H8C7.44772 10 7 9.55228 7 9Z" fill="#00C389"/>
</svg>
