<svg width="48" height="48" viewBox="0 0 48 48" fill="none" xmlns="http://www.w3.org/2000/svg">
<path fill-rule="evenodd" clip-rule="evenodd" d="M20 10C20 7.78772 21.7877 6 24 6C26.2123 6 28 7.78772 28 10V13.52C28 14.0723 27.5523 14.52 27 14.52C26.4477 14.52 26 14.0723 26 13.52V10C26 8.89228 25.1077 8 24 8C22.8923 8 22 8.89228 22 10V13.5C22 14.0523 21.5523 14.5 21 14.5C20.4477 14.5 20 14.0523 20 13.5V10Z" fill="#00C389"/>
<path fill-rule="evenodd" clip-rule="evenodd" d="M19 35C19.5523 35 20 35.4477 20 36C20 37.0609 20.4214 38.0783 21.1716 38.8284C21.9217 39.5786 22.9391 40 24 40C25.0609 40 26.0783 39.5786 26.8284 38.8284C27.5786 38.0783 28 37.0609 28 36C28 35.4477 28.4477 35 29 35C29.5523 35 30 35.4477 30 36C30 37.5913 29.3679 39.1174 28.2426 40.2426C27.1174 41.3679 25.5913 42 24 42C22.4087 42 20.8826 41.3679 19.7574 40.2426C18.6321 39.1174 18 37.5913 18 36C18 35.4477 18.4477 35 19 35Z" fill="#FF7F37"/>
<path fill-rule="evenodd" clip-rule="evenodd" d="M33.0016 21C33.5538 21 34.0016 21.4477 34.0016 22V27C34.0016 30.8677 37.1338 34 41.0016 34C41.5538 34 42.0016 34.4477 42.0016 35C42.0016 35.5523 41.5538 36 41.0016 36H25.1016C24.5493 36 24.1016 35.5523 24.1016 35C24.1016 34.4477 24.5493 34 25.1016 34H35.3428C33.3044 32.3503 32.0016 29.8279 32.0016 27V22C32.0016 21.4477 32.4493 21 33.0016 21Z" fill="#FDDA24"/>
<path fill-rule="evenodd" clip-rule="evenodd" d="M24.0031 14C21.5835 14 19.4187 15.0659 17.9635 16.7695C17.6048 17.1894 16.9736 17.2391 16.5537 16.8804C16.1337 16.5217 16.0841 15.8905 16.4428 15.4705C18.2676 13.3341 20.9827 12 24.0031 12C29.5354 12 34.0031 16.4677 34.0031 22C34.0031 22.5523 33.5554 23 33.0031 23C32.4509 23 32.0031 22.5523 32.0031 22C32.0031 17.5723 28.4309 14 24.0031 14Z" fill="#00CCEA"/>
<path fill-rule="evenodd" clip-rule="evenodd" d="M17.8606 15.364C18.2766 15.7273 18.3192 16.3591 17.9559 16.775C16.7301 18.1786 16.0028 19.9866 16.0028 21.9972V26.9972C16.0028 28.0316 15.8232 29.0407 15.5091 29.9603C15.3307 30.483 14.7623 30.762 14.2396 30.5835C13.717 30.4051 13.438 29.8367 13.6164 29.3141C13.8624 28.5937 14.0028 27.8028 14.0028 26.9972V21.9972C14.0028 19.4878 14.9155 17.2158 16.4496 15.4594C16.8129 15.0434 17.4446 15.0007 17.8606 15.364Z" fill="#9063CD"/>
<path fill-rule="evenodd" clip-rule="evenodd" d="M14.8925 28.6978C15.4134 28.8814 15.6867 29.4525 15.5031 29.9734C14.9411 31.5674 13.9465 32.9582 12.6584 34.0009H25.1C25.6523 34.0009 26.1 34.4486 26.1 35.0009C26.1 35.5532 25.6523 36.0009 25.1 36.0009H7C6.44772 36.0009 6 35.5532 6 35.0009C6 34.4486 6.44772 34.0009 7 34.0009C10.0602 34.0009 12.6526 32.0435 13.6169 29.3084C13.8005 28.7875 14.3716 28.5142 14.8925 28.6978Z" fill="#F5B6CD"/>
</svg>
