<svg width="48" height="48" viewBox="0 0 48 48" fill="none" xmlns="http://www.w3.org/2000/svg">
<path fill-rule="evenodd" clip-rule="evenodd" d="M6 11C6 10.4477 6.44772 10 7 10H14C14.5523 10 15 10.4477 15 11C15 11.5523 14.5523 12 14 12H8V37C8 38.6477 9.35228 40 11 40C11.5523 40 12 40.4477 12 41C12 41.5523 11.5523 42 11 42C8.24772 42 6 39.7523 6 37V11Z" fill="#FF7F37"/>
<path fill-rule="evenodd" clip-rule="evenodd" d="M14 7C14 6.44772 14.4477 6 15 6H41C41.5523 6 42 6.44772 42 7V25C42 25.5523 41.5523 26 41 26C40.4477 26 40 25.5523 40 25V8H15C14.4477 8 14 7.55228 14 7Z" fill="#00C389"/>
<path fill-rule="evenodd" clip-rule="evenodd" d="M41 24C41.5523 24 42 24.4477 42 25V35C42 38.8723 38.8723 42 35 42H11C10.4477 42 10 41.5523 10 41C10 40.4477 10.4477 40 11 40H35C37.7677 40 40 37.7677 40 35V25C40 24.4477 40.4477 24 41 24Z" fill="#00CCEA"/>
<path fill-rule="evenodd" clip-rule="evenodd" d="M15 6C15.5523 6 16 6.44772 16 7V37C16 39.7523 13.7523 42 11 42C10.4477 42 10 41.5523 10 41C10 40.4477 10.4477 40 11 40C12.6477 40 14 38.6477 14 37V7C14 6.44772 14.4477 6 15 6Z" fill="#FDDA24"/>
<path fill-rule="evenodd" clip-rule="evenodd" d="M18 11C18 10.4477 18.4477 10 19 10H37C37.5523 10 38 10.4477 38 11V21C38 21.5523 37.5523 22 37 22H19C18.4477 22 18 21.5523 18 21V11ZM20 12V20H36V12H20Z" fill="#9063CD"/>
<path fill-rule="evenodd" clip-rule="evenodd" d="M18 27C18 26.4477 18.4477 26 19 26H36.94C37.4923 26 37.94 26.4477 37.94 27C37.94 27.5523 37.4923 28 36.94 28H19C18.4477 28 18 27.5523 18 27ZM18 31C18 30.4477 18.4477 30 19 30H36.94C37.4923 30 37.94 30.4477 37.94 31C37.94 31.5523 37.4923 32 36.94 32H19C18.4477 32 18 31.5523 18 31ZM18 35C18 34.4477 18.4477 34 19 34H31C31.5523 34 32 34.4477 32 35C32 35.5523 31.5523 36 31 36H19C18.4477 36 18 35.5523 18 35Z" fill="#F5B6CD"/>
</svg>
