<svg width="48" height="48" viewBox="0 0 48 48" fill="none" xmlns="http://www.w3.org/2000/svg">
<path fill-rule="evenodd" clip-rule="evenodd" d="M21 20C20.4477 20 20 20.4477 20 21C20 21.5523 20.4477 22 21 22C21.5523 22 22 21.5523 22 21C22 20.4477 21.5523 20 21 20ZM18 21C18 19.3431 19.3431 18 21 18C22.6569 18 24 19.3431 24 21C24 22.6569 22.6569 24 21 24C19.3431 24 18 22.6569 18 21Z" fill="#FF7F37"/>
<path fill-rule="evenodd" clip-rule="evenodd" d="M21 32C20.4477 32 20 32.4477 20 33C20 33.5523 20.4477 34 21 34C21.5523 34 22 33.5523 22 33C22 32.4477 21.5523 32 21 32ZM18 33C18 31.3431 19.3431 30 21 30C22.6569 30 24 31.3431 24 33C24 34.6569 22.6569 36 21 36C19.3431 36 18 34.6569 18 33Z" fill="#FF7F37"/>
<path fill-rule="evenodd" clip-rule="evenodd" d="M14 27C14 26.4477 14.4477 26 15 26H27C27.5523 26 28 26.4477 28 27C28 27.5523 27.5523 28 27 28H15C14.4477 28 14 27.5523 14 27Z" fill="#FDDA24"/>
<path fill-rule="evenodd" clip-rule="evenodd" d="M22.2866 11.6908C22.6774 12.081 22.6779 12.7142 22.2876 13.105L8.70763 26.705C8.31739 27.0958 7.68423 27.0963 7.29341 26.7061C6.9026 26.3158 6.90214 25.6827 7.29237 25.2919L20.8724 11.6919C21.2626 11.301 21.8958 11.3006 22.2866 11.6908Z" fill="#00CCEA"/>
<path fill-rule="evenodd" clip-rule="evenodd" d="M8.70793 25.2929C9.09846 25.6834 9.09846 26.3166 8.70793 26.7071L7.12793 28.2871C7.0356 28.3792 6.96162 28.4894 6.91164 28.6099C6.86166 28.7304 6.83594 28.8596 6.83594 28.99C6.83594 29.1204 6.86166 29.2496 6.91164 29.3701C6.96162 29.4906 7.03488 29.6 7.12721 29.6922L18.3079 40.8729C18.4001 40.9652 18.5102 41.0392 18.6307 41.0892C18.7512 41.1392 18.8804 41.1649 19.0108 41.1649C19.1413 41.1649 19.2704 41.1392 19.3909 41.0892C19.5114 41.0392 19.6209 40.966 19.713 40.8736C20.1031 40.4827 20.7363 40.482 21.1272 40.8722C21.5181 41.2623 21.5188 41.8955 21.1287 42.2864C20.8507 42.5649 20.5206 42.7858 20.1572 42.9366C19.7938 43.0873 19.4042 43.1649 19.0108 43.1649C18.6174 43.1649 18.2278 43.0873 17.8644 42.9366C17.5013 42.7859 17.1715 42.5653 16.8937 42.2871M16.8937 42.2871L5.71444 31.1078C5.71435 31.1077 5.71454 31.1079 5.71444 31.1078C5.4361 30.83 5.21497 30.4997 5.06428 30.1364C4.91353 29.773 4.83594 29.3834 4.83594 28.99C4.83594 28.5966 4.91353 28.207 5.06428 27.8436C5.21495 27.4804 5.43575 27.1504 5.71404 26.8726C5.71417 26.8724 5.7139 26.8727 5.71404 26.8726L7.29372 25.2929C7.68424 24.9024 8.31741 24.9024 8.70793 25.2929" fill="#F5B6CD"/>
<path fill-rule="evenodd" clip-rule="evenodd" d="M24.8321 12.2726C23.9071 12.1389 22.9577 12.4521 22.2764 13.1182C21.8816 13.5043 21.2484 13.4972 20.8623 13.1023C20.4762 12.7074 20.4833 12.0743 20.8782 11.6882C21.9965 10.5947 23.5665 10.0679 25.121 10.2936L25.1244 10.2941L35.3444 11.8141C35.7798 11.8788 36.1217 12.2207 36.1864 12.6561L37.707 22.8796C37.9311 24.4239 37.4331 26.0016 36.3044 27.1303L30.9444 32.4903L30.9428 32.492C30.5521 32.8808 29.9202 32.8803 29.5302 32.4903C29.1398 32.0999 29.1397 31.4668 29.53 31.0763L19.7109 40.8754L21.1237 42.291L30.9428 32.492L30.9444 32.4903L29.53 31.0763L34.8902 25.7161C35.5611 25.0452 35.8632 24.1036 35.7279 23.1685L34.3172 13.6833L24.8321 12.2726Z" fill="#00C389"/>
<path d="M30.9428 32.492L30.9444 32.4903L29.53 31.0763C29.1397 31.4668 29.1398 32.0999 29.5302 32.4903C29.9202 32.8803 30.5521 32.8808 30.9428 32.492Z" fill="#00C389"/>
<path fill-rule="evenodd" clip-rule="evenodd" d="M39.7071 8.29289C40.0976 8.68342 40.0976 9.31658 39.7071 9.70711L29.7071 19.7071C29.3166 20.0976 28.6834 20.0976 28.2929 19.7071C27.9024 19.3166 27.9024 18.6834 28.2929 18.2929L38.2929 8.29289C38.6834 7.90237 39.3166 7.90237 39.7071 8.29289Z" fill="#9063CD"/>
</svg>
