<svg width="48" height="48" viewBox="0 0 48 48" fill="none" xmlns="http://www.w3.org/2000/svg">
<path fill-rule="evenodd" clip-rule="evenodd" d="M10 13C10 12.4477 10.4477 12 11 12H35C35.5523 12 36 12.4477 36 13C36 13.5523 35.5523 14 35 14H11C10.4477 14 10 13.5523 10 13Z" fill="#00C389"/>
<path fill-rule="evenodd" clip-rule="evenodd" d="M10 19C10 18.4477 10.4477 18 11 18H35C35.5523 18 36 18.4477 36 19C36 19.5523 35.5523 20 35 20H11C10.4477 20 10 19.5523 10 19Z" fill="#FDDA24"/>
<path fill-rule="evenodd" clip-rule="evenodd" d="M10 25C10 24.4477 10.4477 24 11 24H35C35.5523 24 36 24.4477 36 25C36 25.5523 35.5523 26 35 26H11C10.4477 26 10 25.5523 10 25Z" fill="#FF7F37"/>
<path fill-rule="evenodd" clip-rule="evenodd" d="M16 31C16 30.4477 16.4477 30 17 30H29C29.5523 30 30 30.4477 30 31V41C30 41.5523 29.5523 42 29 42C28.4477 42 28 41.5523 28 41V32H18V41C18 41.5523 17.5523 42 17 42C16.4477 42 16 41.5523 16 41V31Z" fill="#F5B6CD"/>
<path fill-rule="evenodd" clip-rule="evenodd" d="M35 12C35.5523 12 36 12.4477 36 13V41C36 41.5523 35.5523 42 35 42H11C10.4477 42 10 41.5523 10 41C10 40.4477 10.4477 40 11 40H34V13C34 12.4477 34.4477 12 35 12Z" fill="#00CCEA"/>
<path fill-rule="evenodd" clip-rule="evenodd" d="M10 7C10 6.44772 10.4477 6 11 6H35C35.5523 6 36 6.44772 36 7V13C36 13.5523 35.5523 14 35 14C34.4477 14 34 13.5523 34 13V8H12V41C12 41.5523 11.5523 42 11 42C10.4477 42 10 41.5523 10 41V7Z" fill="#9063CD"/>
</svg>
