<svg width="48" height="48" viewBox="0 0 48 48" fill="none" xmlns="http://www.w3.org/2000/svg">
<path fill-rule="evenodd" clip-rule="evenodd" d="M23.5323 5.11621C23.825 4.96126 24.1754 4.96126 24.4681 5.11621L41.4681 14.1162C41.9562 14.3746 42.1424 14.9798 41.884 15.4679C41.6256 15.956 41.0204 16.1422 40.5323 15.8838L24.0002 7.13149L7.46809 15.8838C6.97999 16.1422 6.37482 15.956 6.11641 15.4679C5.858 14.9798 6.04421 14.3746 6.53231 14.1162L23.5323 5.11621Z" fill="#FF7F37"/>
<path fill-rule="evenodd" clip-rule="evenodd" d="M41.0002 14C41.5525 14 42.0002 14.4477 42.0002 15V33C42.0002 33.3704 41.7955 33.7105 41.4681 33.8838L24.4681 42.8838C23.98 43.1422 23.3748 42.956 23.1164 42.4679C22.858 41.9798 23.0442 41.3746 23.5323 41.1162L40.0002 32.3979V15C40.0002 14.4477 40.4479 14 41.0002 14Z" fill="#FDDA24"/>
<path fill-rule="evenodd" clip-rule="evenodd" d="M7 14C7.55228 14 8 14.4477 8 15V32.3979L24.4679 41.1162C24.956 41.3746 25.1422 41.9798 24.8838 42.4679C24.6254 42.956 24.0202 43.1422 23.5321 42.8838L6.53211 33.8838C6.20475 33.7105 6 33.3704 6 33V15C6 14.4477 6.44772 14 7 14Z" fill="#00C389"/>
<path fill-rule="evenodd" clip-rule="evenodd" d="M24 23C24.5523 23 25 23.4477 25 24V42C25 42.5523 24.5523 43 24 43C23.4477 43 23 42.5523 23 42V24C23 23.4477 23.4477 23 24 23Z" fill="#00CCEA"/>
<path fill-rule="evenodd" clip-rule="evenodd" d="M6.11641 14.5323C6.37482 14.0442 6.97999 13.858 7.46809 14.1164L24.0002 22.8687L40.5323 14.1164C41.0204 13.858 41.6256 14.0442 41.884 14.5323C42.1424 15.0204 41.9562 15.6256 41.4681 15.884L24.4681 24.884C24.1754 25.0389 23.825 25.0389 23.5323 24.884L6.53231 15.884C6.04421 15.6256 5.858 15.0204 6.11641 14.5323Z" fill="#9063CD"/>
<path fill-rule="evenodd" clip-rule="evenodd" d="M17.8961 8.39169C18.1545 7.90358 18.7597 7.71738 19.2478 7.97579L36.2478 16.9758C36.5945 17.1593 36.7888 17.5178 36.7798 17.885C36.7799 17.8899 36.7799 17.8947 36.7799 17.8996V24.3796C36.7799 24.7553 36.5693 25.0993 36.2347 25.2702L30.6347 28.1302C30.3247 28.2885 29.9547 28.2742 29.6578 28.0925C29.3609 27.9107 29.1799 27.5877 29.1799 27.2396V21.3417L12.712 12.6234C12.2239 12.365 12.0377 11.7598 12.2961 11.2717C12.5545 10.7836 13.1597 10.5974 13.6478 10.8558L30.6478 19.8558C30.993 20.0386 31.1872 20.3948 31.1799 20.7604V25.606L34.7799 23.7674V18.4617L18.312 9.74336C17.8239 9.48496 17.6377 8.87979 17.8961 8.39169Z" fill="#F5B6CD"/>
</svg>
