<svg width="48" height="48" viewBox="0 0 48 48" fill="none" xmlns="http://www.w3.org/2000/svg">
<path fill-rule="evenodd" clip-rule="evenodd" d="M4 9C4 8.44772 4.44772 8 5 8H19C21.7523 8 24 10.2477 24 13C24 13.5523 23.5523 14 23 14C22.4477 14 22 13.5523 22 13C22 11.3523 20.6477 10 19 10H5C4.44772 10 4 9.55228 4 9Z" fill="#00CCEA"/>
<path fill-rule="evenodd" clip-rule="evenodd" d="M5 8C5.55228 8 6 8.44772 6 9V37C6 37.5523 5.55228 38 5 38C4.44772 38 4 37.5523 4 37V9C4 8.44772 4.44772 8 5 8Z" fill="#FF7F37"/>
<path fill-rule="evenodd" clip-rule="evenodd" d="M41 8C41.5523 8 42 8.44772 42 9V37C42 37.5523 41.5523 38 41 38C40.4477 38 40 37.5523 40 37V9C40 8.44772 40.4477 8 41 8Z" fill="#00C389"/>
<path fill-rule="evenodd" clip-rule="evenodd" d="M27 10C25.3523 10 24 11.3523 24 13V37C24 37.5523 23.5523 38 23 38C22.4477 38 22 37.5523 22 37V13C22 10.2477 24.2477 8 27 8H41C41.5523 8 42 8.44772 42 9C42 9.55228 41.5523 10 41 10H27Z" fill="#F5B6CD"/>
<path fill-rule="evenodd" clip-rule="evenodd" d="M4 37C4 36.4477 4.44772 36 5 36H19C21.7523 36 24 38.2477 24 41C24 41.5523 23.5523 42 23 42C22.4477 42 22 41.5523 22 41C22 39.3523 20.6477 38 19 38H5C4.44772 38 4 37.5523 4 37Z" fill="#9063CD"/>
<path fill-rule="evenodd" clip-rule="evenodd" d="M27 38C25.3523 38 24 39.3523 24 41C24 41.5523 23.5523 42 23 42C22.4477 42 22 41.5523 22 41C22 38.2477 24.2477 36 27 36H41C41.5523 36 42 36.4477 42 37C42 37.5523 41.5523 38 41 38H27Z" fill="#FDDA24"/>
<path fill-rule="evenodd" clip-rule="evenodd" d="M26 17C26 16.4477 26.4477 16 27 16H37C37.5523 16 38 16.4477 38 17C38 17.5523 37.5523 18 37 18H27C26.4477 18 26 17.5523 26 17Z" fill="#00C389"/>
<path fill-rule="evenodd" clip-rule="evenodd" d="M26 23C26 22.4477 26.4477 22 27 22H37C37.5523 22 38 22.4477 38 23C38 23.5523 37.5523 24 37 24H27C26.4477 24 26 23.5523 26 23ZM26 29C26 28.4477 26.4477 28 27 28H37C37.5523 28 38 28.4477 38 29C38 29.5523 37.5523 30 37 30H27C26.4477 30 26 29.5523 26 29Z" fill="#FDDA24"/>
<path fill-rule="evenodd" clip-rule="evenodd" d="M8 17C8 16.4477 8.44772 16 9 16H19C19.5523 16 20 16.4477 20 17C20 17.5523 19.5523 18 19 18H9C8.44772 18 8 17.5523 8 17ZM8 23C8 22.4477 8.44772 22 9 22H19C19.5523 22 20 22.4477 20 23C20 23.5523 19.5523 24 19 24H9C8.44772 24 8 23.5523 8 23Z" fill="#00CCEA"/>
<path fill-rule="evenodd" clip-rule="evenodd" d="M8 29C8 28.4477 8.44772 28 9 28H19C19.5523 28 20 28.4477 20 29C20 29.5523 19.5523 30 19 30H9C8.44772 30 8 29.5523 8 29Z" fill="#9063CD"/>
</svg>
