<svg width="48" height="48" viewBox="0 0 48 48" fill="none" xmlns="http://www.w3.org/2000/svg">
<path fill-rule="evenodd" clip-rule="evenodd" d="M40.909 36.4228C41.4178 36.6376 41.6561 37.2242 41.4412 37.733C40.9065 38.9994 40.0102 40.0801 38.8645 40.8398C37.7188 41.5994 36.3746 42.0044 35 42.004C34.9999 42.004 35.0001 42.004 35 42.004H11C10.4477 42.004 10 41.5563 10 41.004C10 40.4517 10.4477 40.004 11 40.004H35C35.9814 40.0043 36.9413 39.7152 37.7593 39.1729C38.5772 38.6306 39.217 37.8591 39.5988 36.955C39.8136 36.4462 40.4002 36.2079 40.909 36.4228Z" fill="#FF7F37"/>
<path fill-rule="evenodd" clip-rule="evenodd" d="M41.0037 8C41.556 8 42.0037 8.44772 42.0037 9V35C42.0037 35.9487 41.8187 36.8884 41.4375 37.7461C41.2132 38.2508 40.6222 38.4781 40.1175 38.2538C39.6129 38.0295 39.3856 37.4385 39.6099 36.9339C39.8687 36.3516 40.0037 35.6913 40.0037 35V9C40.0037 8.44772 40.4514 8 41.0037 8Z" fill="#00C389"/>
<path fill-rule="evenodd" clip-rule="evenodd" d="M41.9114 8.58808C42.139 9.09127 41.9156 9.68372 41.4124 9.91135L36.3724 12.1914C36.098 12.3155 35.7824 12.3093 35.513 12.1747L31.9602 10.3983L28.4075 12.1747C28.1259 12.3154 27.7946 12.3154 27.513 12.1747L23.9602 10.3983L20.4075 12.1747C20.1362 12.3103 19.8181 12.3155 19.5426 12.1888L14.5826 9.90885C14.0808 9.67818 13.861 9.08439 14.0916 8.58258C14.3223 8.08078 14.9161 7.86097 15.4179 8.09164L19.9421 10.1713L23.513 8.38582C23.7946 8.24505 24.1259 8.24505 24.4075 8.38582L27.9602 10.1622L31.513 8.38582C31.7946 8.24505 32.1259 8.24505 32.4075 8.38582L35.9817 10.173L40.5881 8.08914C41.0913 7.8615 41.6837 8.08489 41.9114 8.58808Z" fill="#F5B6CD"/>
<path fill-rule="evenodd" clip-rule="evenodd" d="M15 8C15.5523 8 16 8.44772 16 9V37C16 39.7523 13.7523 42 11 42C8.24772 42 6 39.7523 6 37V29C6 28.4477 6.44772 28 7 28H14V9C14 8.44772 14.4477 8 15 8ZM14 30H8V37C8 38.6477 9.35228 40 11 40C12.6477 40 14 38.6477 14 37V30Z" fill="#9063CD"/>
<path fill-rule="evenodd" clip-rule="evenodd" d="M20 29C20 28.4477 20.4477 28 21 28H28.94C29.4923 28 29.94 28.4477 29.94 29C29.94 29.5523 29.4923 30 28.94 30H21C20.4477 30 20 29.5523 20 29Z" fill="#00CCEA"/>
<path fill-rule="evenodd" clip-rule="evenodd" d="M20 17C20 16.4477 20.4477 16 21 16H28.94C29.4923 16 29.94 16.4477 29.94 17C29.94 17.5523 29.4923 18 28.94 18H21C20.4477 18 20 17.5523 20 17ZM32 17C32 16.4477 32.4477 16 33 16H34.94C35.4923 16 35.94 16.4477 35.94 17C35.94 17.5523 35.4923 18 34.94 18H33C32.4477 18 32 17.5523 32 17ZM20 23C20 22.4477 20.4477 22 21 22H28.94C29.4923 22 29.94 22.4477 29.94 23C29.94 23.5523 29.4923 24 28.94 24H21C20.4477 24 20 23.5523 20 23ZM32 23C32 22.4477 32.4477 22 33 22H34.94C35.4923 22 35.94 22.4477 35.94 23C35.94 23.5523 35.4923 24 34.94 24H33C32.4477 24 32 23.5523 32 23Z" fill="#FDDA24"/>
<path fill-rule="evenodd" clip-rule="evenodd" d="M32 29C32 28.4477 32.4477 28 33 28H34.94C35.4923 28 35.94 28.4477 35.94 29C35.94 29.5523 35.4923 30 34.94 30H33C32.4477 30 32 29.5523 32 29ZM20 35C20 34.4477 20.4477 34 21 34H28.94C29.4923 34 29.94 34.4477 29.94 35C29.94 35.5523 29.4923 36 28.94 36H21C20.4477 36 20 35.5523 20 35ZM32 35C32 34.4477 32.4477 34 33 34H34.94C35.4923 34 35.94 34.4477 35.94 35C35.94 35.5523 35.4923 36 34.94 36H33C32.4477 36 32 35.5523 32 35Z" fill="#00CCEA"/>
</svg>
