<svg width="48" height="48" viewBox="0 0 48 48" fill="none" xmlns="http://www.w3.org/2000/svg">
<path d="M24 33C23.7348 33 23.4804 32.8946 23.2929 32.7071C23.1054 32.5196 23 32.2652 23 32V22C23 21.7348 23.1054 21.4804 23.2929 21.2929C23.4804 21.1054 23.7348 21 24 21C24.2652 21 24.5196 21.1054 24.7071 21.2929C24.8946 21.4804 25 21.7348 25 22V32C25 32.2652 24.8946 32.5196 24.7071 32.7071C24.5196 32.8946 24.2652 33 24 33Z" fill="#00C389"/>
<path d="M24 23C23.7348 23 23.4804 22.8946 23.2929 22.7071C23.1054 22.5196 23 22.2652 23 22V13C23 12.7348 23.1054 12.4804 23.2929 12.2929C23.4804 12.1054 23.7348 12 24 12C24.2652 12 24.5196 12.1054 24.7071 12.2929C24.8946 12.4804 25 12.7348 25 13V22C25 22.2652 24.8946 22.5196 24.7071 22.7071C24.5196 22.8946 24.2652 23 24 23Z" fill="#F5B6CD"/>
<path d="M24 14C23.7348 14 23.4804 13.8946 23.2929 13.7071C23.1054 13.5196 23 13.2652 23 13V7C23 6.73478 23.1054 6.48043 23.2929 6.29289C23.4804 6.10536 23.7348 6 24 6C24.2652 6 24.5196 6.10536 24.7071 6.29289C24.8946 6.48043 25 6.73478 25 7V13C25 13.2652 24.8946 13.5196 24.7071 13.7071C24.5196 13.8946 24.2652 14 24 14Z" fill="#00CCEA"/>
<path d="M19.5215 29.2393C19.3921 29.2411 19.2637 29.2173 19.1435 29.1693C19.0234 29.1212 18.9139 29.0498 18.8215 28.9593L12.6615 22.6993C12.5678 22.6063 12.4934 22.4957 12.4426 22.3738C12.3919 22.252 12.3657 22.1213 12.3657 21.9893C12.3657 21.8572 12.3919 21.7265 12.4426 21.6047C12.4934 21.4828 12.5678 21.3722 12.6615 21.2793C12.7528 21.1861 12.8617 21.1121 12.9819 21.0616C13.1021 21.0111 13.2311 20.9851 13.3615 20.9851C13.4919 20.9851 13.621 21.0111 13.7412 21.0616C13.8614 21.1121 13.9703 21.1861 14.0615 21.2793L20.2215 27.5193C20.406 27.7096 20.5092 27.9642 20.5092 28.2293C20.5092 28.4943 20.406 28.749 20.2215 28.9393C20.0369 29.1277 19.7853 29.2355 19.5215 29.2393V29.2393Z" fill="#FDDA24"/>
<path d="M23.9997 32.9988C23.6258 32.9963 23.2562 32.9189 22.9127 32.7712C22.5692 32.6235 22.2588 32.4085 21.9997 32.1388L18.8197 28.9588C18.726 28.8659 18.6516 28.7553 18.6008 28.6334C18.5501 28.5116 18.5239 28.3808 18.5239 28.2488C18.5239 28.1168 18.5501 27.9861 18.6008 27.8643C18.6516 27.7424 18.726 27.6318 18.8197 27.5388C19.01 27.3543 19.2647 27.2512 19.5297 27.2512C19.7948 27.2512 20.0494 27.3543 20.2397 27.5388L23.3797 30.7388C23.5446 30.9025 23.7674 30.9943 23.9997 30.9943C24.232 30.9943 24.4549 30.9025 24.6197 30.7388L27.7597 27.5388C27.95 27.3543 28.2047 27.2512 28.4697 27.2512C28.7348 27.2512 28.9894 27.3543 29.1797 27.5388C29.2735 27.6318 29.3478 27.7424 29.3986 27.8643C29.4494 27.9861 29.4755 28.1168 29.4755 28.2488C29.4755 28.3808 29.4494 28.5116 29.3986 28.6334C29.3478 28.7553 29.2735 28.8659 29.1797 28.9588L25.9997 32.1388C25.7407 32.4085 25.4302 32.6235 25.0867 32.7712C24.7432 32.9189 24.3736 32.9963 23.9997 32.9988V32.9988Z" fill="#9063CD"/>
<path d="M28.4781 29.241C28.3456 29.2444 28.2136 29.2214 28.09 29.1733C27.9664 29.1252 27.8536 29.0531 27.7581 28.961C27.5736 28.7707 27.4705 28.516 27.4705 28.251C27.4705 27.9859 27.5736 27.7313 27.7581 27.541L33.9981 21.301C34.0894 21.2079 34.1983 21.1339 34.3185 21.0834C34.4387 21.0329 34.5678 21.0068 34.6981 21.0068C34.8285 21.0068 34.9576 21.0329 35.0778 21.0834C35.198 21.1339 35.3069 21.2079 35.3981 21.301C35.4919 21.3939 35.5663 21.5045 35.617 21.6264C35.6678 21.7483 35.6939 21.879 35.6939 22.011C35.6939 22.143 35.6678 22.2737 35.617 22.3956C35.5663 22.5174 35.4919 22.628 35.3981 22.721L29.2381 28.981C29.137 29.0755 29.017 29.1476 28.886 29.1924C28.755 29.2372 28.616 29.2538 28.4781 29.241V29.241Z" fill="#FF7F37"/>
<path d="M37.9983 44.66C37.7331 44.7051 37.4608 44.643 37.2414 44.4873C37.022 44.3317 36.8734 44.0952 36.8283 43.83C36.7832 43.5648 36.8453 43.2925 37.001 43.0731C37.1567 42.8537 37.3931 42.7051 37.6583 42.66C38.6242 42.3171 39.4619 41.6868 40.059 40.8537C40.6561 40.0207 40.9839 39.0248 40.9983 38V32C40.9983 31.7348 41.1037 31.4804 41.2912 31.2929C41.4787 31.1054 41.7331 31 41.9983 31C42.2635 31 42.5179 31.1054 42.7054 31.2929C42.893 31.4804 42.9983 31.7348 42.9983 32V38C42.996 39.4461 42.5471 40.8562 41.713 42.0376C40.8789 43.2189 39.7003 44.1138 38.3383 44.6C38.2292 44.6392 38.1142 44.6595 37.9983 44.66Z" fill="#00CCEA"/>
<path d="M36 45.0008H14C13.7348 45.0008 13.4804 44.8955 13.2929 44.7079C13.1054 44.5204 13 44.266 13 44.0008C13 43.7356 13.1054 43.4812 13.2929 43.2937C13.4804 43.1062 13.7348 43.0008 14 43.0008H36C36.5651 43.0004 37.1261 42.9058 37.66 42.7208C37.7832 42.6734 37.9148 42.6514 38.0467 42.6561C38.1787 42.6608 38.3083 42.6921 38.4278 42.7481C38.5474 42.8041 38.6544 42.8838 38.7424 42.9822C38.8304 43.0806 38.8976 43.1958 38.94 43.3208C39.0301 43.5701 39.0175 43.845 38.9049 44.085C38.7924 44.325 38.5892 44.5105 38.34 44.6008C37.5875 44.8627 36.7968 44.9979 36 45.0008V45.0008Z" fill="#FDDA24"/>
<path d="M14 45H12C10.1435 45 8.36301 44.2625 7.05025 42.9497C5.7375 41.637 5 39.8565 5 38V32C5 31.7348 5.10536 31.4804 5.29289 31.2929C5.48043 31.1054 5.73478 31 6 31C6.26522 31 6.51957 31.1054 6.70711 31.2929C6.89464 31.4804 7 31.7348 7 32V38C7 39.3261 7.52678 40.5979 8.46447 41.5355C9.40215 42.4732 10.6739 43 12 43H14C14.2652 43 14.5196 43.1054 14.7071 43.2929C14.8946 43.4804 15 43.7348 15 44C15 44.2652 14.8946 44.5196 14.7071 44.7071C14.5196 44.8946 14.2652 45 14 45Z" fill="#FF7F37"/>
</svg>
