<svg width="199" height="187" viewBox="0 0 199 187" fill="none" xmlns="http://www.w3.org/2000/svg">
<g clip-path="url(#clip0)">
<path d="M150.71 186.323C138.628 186.323 127.042 181.523 118.499 172.98C109.956 164.437 105.156 152.851 105.156 140.769C105.156 132.569 105.156 125.736 113.811 125.736C122.467 125.736 122.011 125.736 122.011 135.303C121.514 139.691 122.005 144.135 123.448 148.309C124.89 152.483 127.249 156.282 130.35 159.426C133.45 162.571 137.216 164.982 141.369 166.483C145.523 167.984 149.959 168.537 154.354 168.101C161.807 167.865 168.874 164.737 174.061 159.38C179.247 154.024 182.146 146.859 182.142 139.403C181.806 131.295 178.435 123.609 172.697 117.871C166.959 112.133 159.273 108.762 151.165 108.426H140.233C138.259 108.31 136.404 107.443 135.049 106.003C133.694 104.563 132.941 102.659 132.944 100.682C132.944 93.3934 142.51 90.6602 152.076 90.6602C164.158 90.6602 175.745 95.4595 184.288 104.003C192.831 112.545 197.63 124.132 197.63 136.214C198.284 142.684 197.546 149.22 195.464 155.381C193.382 161.542 190.005 167.186 185.56 171.933C181.114 176.68 175.704 180.421 169.693 182.903C163.682 185.385 157.209 186.551 150.71 186.323Z" fill="#00C389"/>
<path d="M26.8129 184.949C24.7066 184.777 22.7483 183.798 21.3465 182.216C19.8713 180.688 19.0469 178.646 19.0469 176.522C19.0469 174.398 19.8713 172.356 21.3465 170.828L174.407 10.9344C175.935 9.45919 177.977 8.63477 180.101 8.63477C182.225 8.63477 184.267 9.45919 185.795 10.9344C187.27 12.4629 188.095 14.5043 188.095 16.6286C188.095 18.7529 187.27 20.7943 185.795 22.3228L32.7349 182.216C31.9873 183.053 31.076 183.727 30.0574 184.197C29.0388 184.667 27.9345 184.923 26.8129 184.949Z" fill="#59CBE8"/>
<path d="M45.5536 97.4704C33.4721 97.4704 21.8853 92.671 13.3424 84.1281C4.79939 75.5851 0 63.9984 0 51.9168C0 39.352 4.99136 27.3017 13.876 18.4171C22.7607 9.53238 34.8109 4.54102 47.3758 4.54102C59.9406 4.54102 71.9908 9.53238 80.8755 18.4171C89.7602 27.3017 94.7516 39.352 94.7516 51.9168C94.9431 55.2546 94.9431 58.6007 94.7516 61.9386C94.7516 66.494 91.1073 68.3161 86.0964 68.3161C85.0795 68.3936 84.0582 68.2425 83.1074 67.8739C82.1565 67.5053 81.3002 66.9286 80.6013 66.1859C79.9024 65.4433 79.3785 64.5537 79.0682 63.5823C78.7578 62.6108 78.6689 61.5823 78.8078 60.572C78.8078 57.8388 78.8078 55.5611 78.8078 53.7389C78.9852 47.6161 77.3434 41.5781 74.0898 36.3882C70.8362 31.1983 66.117 27.0895 60.5286 24.5813C54.9403 22.073 48.7337 21.2779 42.6936 22.2964C36.6534 23.3149 31.0509 26.1014 26.5941 30.3035C22.1373 34.5056 19.0264 39.9348 17.6546 45.9046C16.2828 51.8745 16.7118 58.117 18.8873 63.8431C21.0627 69.5692 24.8871 74.5218 29.8768 78.0747C34.8665 81.6277 40.7975 83.6216 46.9202 83.8043H55.5754C60.1308 83.8043 66.5083 83.8043 66.5083 91.0929C66.666 93.0618 66.1077 95.0215 64.936 96.6116C63.7643 98.2017 62.058 99.3155 60.1308 99.7481C55.194 99.6192 50.2945 98.8536 45.5536 97.4704Z" fill="#F5B6CD"/>
<path d="M27.8377 163.522C26.5371 163.509 25.2544 163.218 24.0758 162.668C22.8972 162.118 21.85 161.322 21.0047 160.333C19.9854 159.318 19.1767 158.111 18.6249 156.782C18.0731 155.453 17.7891 154.028 17.7891 152.589C17.7891 151.15 18.0731 149.725 18.6249 148.397C19.1767 147.068 19.9854 145.861 21.0047 144.845L154.932 3.17328C156.963 1.25098 159.653 0.179687 162.449 0.179688C165.245 0.179688 167.935 1.25098 169.965 3.17328C171.043 4.15515 171.903 5.35105 172.492 6.68452C173.081 8.01798 173.385 9.45967 173.385 10.9174C173.385 12.3751 173.081 13.8168 172.492 15.1503C171.903 16.4837 171.043 17.6796 169.965 18.6615L36.0374 160.333C33.7488 162.302 30.855 163.427 27.8377 163.522Z" fill="#FFD825"/>
<path d="M78.3175 49.145C78.5236 53.4656 77.809 57.7806 76.2211 61.8041C74.6331 65.8275 72.2081 69.4675 69.1067 72.4827C66.0054 75.4979 62.2986 77.8194 58.232 79.2934C54.1654 80.7675 49.832 81.3603 45.5189 81.0325C44.3819 81.094 43.244 80.9304 42.1703 80.5513C41.0967 80.1722 40.1084 79.585 39.262 78.8233C38.4157 78.0616 37.7279 77.1404 37.2382 76.1124C36.7485 75.0845 36.4665 73.97 36.4082 72.8329C36.4665 71.6957 36.7485 70.5813 37.2382 69.5533C37.7279 68.5254 38.4157 67.6042 39.262 66.8425C40.1084 66.0808 41.0967 65.4935 42.1703 65.1144C43.244 64.7353 44.3819 64.5718 45.5189 64.6332C47.567 64.8209 49.6318 64.5863 51.5856 63.944C53.5394 63.3016 55.3406 62.2652 56.8778 60.8988C58.415 59.5324 59.6555 57.8652 60.5224 56.0002C61.3894 54.1351 61.8645 52.112 61.9182 50.0561C61.8645 48.0001 61.3894 45.977 60.5224 44.112C59.6555 42.247 58.415 40.5797 56.8778 39.2133C55.3406 37.8469 53.5394 36.8105 51.5856 36.1682C49.6318 35.5258 47.567 35.2912 45.5189 35.4789C41.7736 35.4789 38.1817 36.9667 35.5334 39.615C32.8851 42.2634 31.3973 45.8552 31.3973 49.6005C31.2542 52.3319 31.2542 55.0688 31.3973 57.8002C31.2874 59.9393 30.3882 61.9616 28.8736 63.4762C27.3591 64.9908 25.3367 65.8899 23.1976 65.9998C14.998 65.9998 13.1758 57.3447 13.1758 49.6005C13.1684 45.4344 14.014 41.3109 15.6605 37.4839C17.307 33.657 19.7195 30.2076 22.7495 27.3483C25.7795 24.489 29.3628 22.2803 33.2787 20.8582C37.1946 19.4362 41.3602 18.8309 45.5189 19.0796C49.6907 18.6987 53.8961 19.1939 57.8654 20.5333C61.8347 21.8728 65.4802 24.0269 68.5683 26.8576C71.6564 29.6884 74.1188 33.1332 75.7977 36.9713C77.4766 40.8093 78.3349 44.9559 78.3175 49.145Z" fill="#FF7F41"/>
<path d="M143.079 168.946C136.566 167.849 130.671 164.429 126.483 159.321C122.296 154.213 120.101 147.761 120.302 141.159C120.183 137.091 120.866 133.039 122.312 129.235C123.758 125.431 125.939 121.949 128.731 118.988C134.369 113.008 142.152 109.513 150.368 109.271C158.583 109.03 166.558 112.061 172.538 117.7C178.518 123.338 182.014 131.121 182.255 139.337C182.255 147.992 182.255 155.28 172.234 155.28C171.203 155.41 170.156 155.318 169.164 155.011C168.172 154.703 167.257 154.187 166.48 153.497C165.704 152.806 165.084 151.958 164.662 151.009C164.24 150.059 164.026 149.031 164.034 147.992C164.034 145.259 164.034 141.159 164.034 137.514C163.688 133.931 161.986 130.615 159.277 128.244C156.567 125.873 153.055 124.627 149.457 124.759C145.953 125.1 142.703 126.737 140.344 129.349C137.984 131.962 136.685 135.361 136.702 138.881C136.937 141.804 137.892 144.623 139.482 147.087C141.071 149.551 143.246 151.584 145.812 153.003C149.457 153.003 152.19 156.647 152.19 161.202C152.135 162.321 151.851 163.417 151.356 164.423C150.86 165.428 150.165 166.321 149.311 167.046C148.457 167.772 147.464 168.315 146.392 168.642C145.32 168.969 144.193 169.072 143.079 168.946Z" fill="#9063CD"/>
</g>
<defs>
<clipPath id="clip0">
<rect width="198.614" height="186.314" fill="white"/>
</clipPath>
</defs>
</svg>
