<svg width="48" height="48" viewBox="0 0 48 48" fill="none" xmlns="http://www.w3.org/2000/svg">
<path fill-rule="evenodd" clip-rule="evenodd" d="M37 5C37 4.44772 37.4477 4 38 4C40.2123 4 42 5.78772 42 8V19.88C42 20.4323 41.5523 20.88 41 20.88C40.4477 20.88 40 20.4323 40 19.88V8C40 6.89228 39.1077 6 38 6C37.4477 6 37 5.55228 37 5Z" fill="#00CCEA"/>
<path fill-rule="evenodd" clip-rule="evenodd" d="M41 18.8818C41.5523 18.8818 42 19.3296 42 19.8818V30.0018C42 32.2141 40.2123 34.0018 38 34.0018H36V41.0018C36 41.5541 35.5523 42.0018 35 42.0018C34.4477 42.0018 34 41.5541 34 41.0018V33.0018C34 32.4496 34.4477 32.0018 35 32.0018H38C39.1077 32.0018 40 31.1096 40 30.0018V19.8818C40 19.3296 40.4477 18.8818 41 18.8818Z" fill="#F5B6CD"/>
<path fill-rule="evenodd" clip-rule="evenodd" d="M14 33C14 32.4477 14.4477 32 15 32H27C27.2652 32 27.5196 32.1054 27.7071 32.2929L35.7071 40.2929C36.0976 40.6834 36.0976 41.3166 35.7071 41.7071C35.3166 42.0976 34.6834 42.0976 34.2929 41.7071L26.5858 34H15C14.4477 34 14 33.5523 14 33Z" fill="#00C389"/>
<path fill-rule="evenodd" clip-rule="evenodd" d="M7 14.8994C7.55228 14.8994 8 15.3471 8 15.8994V29.9994C8 31.1071 8.89228 31.9994 10 31.9994H15C15.5523 31.9994 16 32.4471 16 32.9994C16 33.5517 15.5523 33.9994 15 33.9994H10C7.78772 33.9994 6 32.2117 6 29.9994V15.8994C6 15.3471 6.44772 14.8994 7 14.8994Z" fill="#FDDA24"/>
<path fill-rule="evenodd" clip-rule="evenodd" d="M6 8C6 5.78772 7.78772 4 10 4H38C38.5523 4 39 4.44772 39 5C39 5.55228 38.5523 6 38 6H10C8.89228 6 8 6.89228 8 8V15.9C8 16.4523 7.55228 16.9 7 16.9C6.44772 16.9 6 16.4523 6 15.9V8Z" fill="#9063CD"/>
<path fill-rule="evenodd" clip-rule="evenodd" d="M25.0886 12.1486C22.3908 11.4552 20 13.4461 20 16.0007C20 16.553 19.5523 17.0007 19 17.0007C18.4477 17.0007 18 16.553 18 16.0007C18 12.156 21.6081 9.18717 25.5894 10.2123L25.5934 10.2133L25.5934 10.2133C27.6229 10.7449 29.2758 12.3978 29.8074 14.4273L29.8083 14.4311L29.8083 14.4311C30.595 17.4822 29.0357 20.2924 26.5462 21.4653L26.5238 21.4759L26.5236 21.4756C25.5935 21.886 25 22.8976 25 24.0607V25.0007C25 25.553 24.5523 26.0007 24 26.0007C23.4477 26.0007 23 25.553 23 25.0007V24.0607C23 22.2681 23.9221 20.4441 25.7037 19.6514C27.3679 18.8619 28.4034 16.9962 27.8721 14.9322C27.5233 13.6032 26.4176 12.4975 25.0886 12.1486Z" fill="#FF7F37"/>
<circle cx="24" cy="29" r="1" fill="#FF7F41"/>
</svg>
