<svg width="48" height="48" viewBox="0 0 48 48" fill="none" xmlns="http://www.w3.org/2000/svg">
<path fill-rule="evenodd" clip-rule="evenodd" d="M4.24629 18.1414C4.62126 17.7359 5.25395 17.7112 5.65943 18.0861L15.5504 27.233C15.8057 27.4692 15.9201 27.821 15.8523 28.1621L13.2267 41.3759C13.1191 41.9176 12.5927 42.2695 12.051 42.1618C11.5093 42.0542 11.1574 41.5278 11.2651 40.9861L13.7815 28.3214L4.30152 19.5545C3.89604 19.1795 3.87132 18.5468 4.24629 18.1414Z" fill="#59CBE8"/>
<path fill-rule="evenodd" clip-rule="evenodd" d="M23.5135 33.729C23.817 33.5591 24.1869 33.5591 24.4904 33.729L36.2461 40.3093C36.728 40.5791 36.9 41.1884 36.6303 41.6703C36.3605 42.1523 35.7512 42.3243 35.2692 42.0545L24.002 35.7476L12.7347 42.0545C12.2528 42.3243 11.6434 42.1523 11.3737 41.6703C11.1039 41.1884 11.2759 40.5791 11.7578 40.3093L23.5135 33.729Z" fill="#FF7F41"/>
<path fill-rule="evenodd" clip-rule="evenodd" d="M23.5814 4.09218C24.0829 3.86086 24.677 4.07989 24.9083 4.5814L30.3166 16.3065L43.1391 17.8269C43.6876 17.8919 44.0794 18.3892 44.0144 18.9376C43.9494 19.4861 43.4521 19.878 42.9036 19.8129L29.5252 18.2267C29.1799 18.1858 28.8806 17.9683 28.7349 17.6525L23.0922 5.41909C22.8609 4.91758 23.0799 4.32351 23.5814 4.09218Z" fill="#00C389"/>
<path fill-rule="evenodd" clip-rule="evenodd" d="M24.4205 4.09218C24.922 4.32351 25.1411 4.91758 24.9098 5.41909L19.267 17.6525C19.1213 17.9683 18.8221 18.1858 18.4767 18.2267L5.09831 19.8129C4.54986 19.878 4.05255 19.4861 3.98752 18.9376C3.9225 18.3892 4.31438 17.8919 4.86282 17.8269L17.6854 16.3065L23.0936 4.5814C23.325 4.07989 23.919 3.86086 24.4205 4.09218Z" fill="#FDDA24"/>
<path fill-rule="evenodd" clip-rule="evenodd" d="M43.7541 18.1414C44.1291 18.5468 44.1043 19.1795 43.6989 19.5545L34.2188 28.3214L36.7353 40.9861C36.8429 41.5278 36.4911 42.0542 35.9494 42.1618C35.4077 42.2695 34.8813 41.9176 34.7737 41.3759L32.1481 28.1621C32.0803 27.821 32.1946 27.4692 32.45 27.233L42.341 18.0861C42.7464 17.7112 43.3791 17.7359 43.7541 18.1414Z" fill="#9063CD"/>
</svg>
