<svg width="48" height="48" viewBox="0 0 48 48" fill="none" xmlns="http://www.w3.org/2000/svg">
<path fill-rule="evenodd" clip-rule="evenodd" d="M33.9766 14C32.8688 14 31.9766 14.8923 31.9766 16V17C31.9766 17.5523 31.5288 18 30.9766 18C30.4243 18 29.9766 17.5523 29.9766 17V16C29.9766 13.7877 31.7643 12 33.9766 12C36.1888 12 37.9766 13.7877 37.9766 16V30C37.9766 33.713 36.5016 37.274 33.8761 39.8995C31.2505 42.525 27.6896 44 23.9766 44C23.4243 44 22.9766 43.5523 22.9766 43C22.9766 42.4477 23.4243 42 23.9766 42C27.1592 42 30.2114 40.7357 32.4618 38.4853C34.7123 36.2348 35.9766 33.1826 35.9766 30V16C35.9766 14.8923 35.0843 14 33.9766 14Z" fill="#00CCEA"/>
<path fill-rule="evenodd" clip-rule="evenodd" d="M23.9766 10C23.9766 7.78772 25.7643 6 27.9766 6C30.1888 6 31.9766 7.78772 31.9766 10V27C31.9766 27.5523 31.5288 28 30.9766 28C30.4243 28 29.9766 27.5523 29.9766 27V10C29.9766 8.89228 29.0843 8 27.9766 8C26.8688 8 25.9766 8.89228 25.9766 10V15C25.9766 15.5523 25.5288 16 24.9766 16C24.4243 16 23.9766 15.5523 23.9766 15V10Z" fill="#F5B6CD"/>
<path fill-rule="evenodd" clip-rule="evenodd" d="M21.9766 6C20.8688 6 19.9766 6.89228 19.9766 8V17C19.9766 17.5523 19.5288 18 18.9766 18C18.4243 18 17.9766 17.5523 17.9766 17V8C17.9766 5.78772 19.7643 4 21.9766 4C24.1888 4 25.9766 5.78772 25.9766 8V17C25.9766 17.5523 25.5288 18 24.9766 18C24.4243 18 23.9766 17.5523 23.9766 17V8C23.9766 6.89228 23.0843 6 21.9766 6Z" fill="#9063CD"/>
<path fill-rule="evenodd" clip-rule="evenodd" d="M11.9766 10C11.9766 7.78772 13.7643 6 15.9766 6C18.1888 6 19.9766 7.78772 19.9766 10V17C19.9766 17.5523 19.5288 18 18.9766 18C18.4243 18 17.9766 17.5523 17.9766 17V10C17.9766 8.89228 17.0843 8 15.9766 8C14.8688 8 13.9766 8.89228 13.9766 10V17C13.9766 17.5523 13.5288 18 12.9766 18C12.4243 18 11.9766 17.5523 11.9766 17V10Z" fill="#FF7F37"/>
<path fill-rule="evenodd" clip-rule="evenodd" d="M7.97656 17C7.97656 16.4477 8.42428 16 8.97656 16H9.97656C10.7645 16 11.5447 16.1552 12.2727 16.4567C13.0006 16.7583 13.6621 17.2002 14.2192 17.7574C14.7764 18.3145 15.2183 18.9759 15.5198 19.7039C15.8214 20.4319 15.9766 21.2121 15.9766 22V27C15.9766 27.5523 15.5288 28 14.9766 28C14.4243 28 13.9766 27.5523 13.9766 27V22C13.9766 21.4747 13.8731 20.9546 13.6721 20.4693C13.4711 19.984 13.1764 19.543 12.805 19.1716C12.4336 18.8001 11.9926 18.5055 11.5073 18.3045C11.022 18.1035 10.5019 18 9.97656 18V30C9.97656 33.1826 11.2408 36.2348 13.4913 38.4853C15.7417 40.7357 18.794 42 21.9766 42H23.9766C24.5288 42 24.9766 42.4477 24.9766 43C24.9766 43.5523 24.5288 44 23.9766 44H21.9766C18.2635 44 14.7026 42.525 12.0771 39.8995C9.45156 37.274 7.97656 33.713 7.97656 30V17Z" fill="#00C389"/>
<path fill-rule="evenodd" clip-rule="evenodd" d="M20.7481 22.6787C20.2137 23.0795 19.9766 23.5569 19.9766 24C19.9766 24.4431 20.2137 24.9205 20.7481 25.3213C21.2829 25.7224 22.0674 26 22.9766 26C23.8857 26 24.6702 25.7224 25.205 25.3213C25.7394 24.9205 25.9766 24.4431 25.9766 24C25.9766 23.5569 25.7394 23.0795 25.205 22.6787C24.6702 22.2776 23.8857 22 22.9766 22C22.0674 22 21.2829 22.2776 20.7481 22.6787ZM19.5481 21.0787C20.4611 20.3939 21.6765 20 22.9766 20C24.2766 20 25.492 20.3939 26.405 21.0787C27.3183 21.7636 27.9766 22.7862 27.9766 24C27.9766 25.2138 27.3183 26.2364 26.405 26.9213C25.492 27.6061 24.2766 28 22.9766 28C21.6765 28 20.4611 27.6061 19.5481 26.9213C18.6349 26.2364 17.9766 25.2138 17.9766 24C17.9766 22.7862 18.6349 21.7636 19.5481 21.0787Z" fill="#FF7F37"/>
<path fill-rule="evenodd" clip-rule="evenodd" d="M22.9766 18C18.981 18 15.9766 20.8075 15.9766 24C15.9766 27.1925 18.981 30 22.9766 30C26.9722 30 29.9766 27.1925 29.9766 24C29.9766 20.8075 26.9722 18 22.9766 18ZM13.9766 24C13.9766 19.4605 18.1356 16 22.9766 16C27.8175 16 31.9766 19.4605 31.9766 24C31.9766 28.5395 27.8175 32 22.9766 32C18.1356 32 13.9766 28.5395 13.9766 24Z" fill="#FDDA24"/>
<path fill-rule="evenodd" clip-rule="evenodd" d="M14.9766 22C15.5288 22 15.9766 22.4477 15.9766 23V28C15.9766 31.1871 18.98 34 22.9766 34C26.9731 34 29.9766 31.1871 29.9766 28V23C29.9766 22.4477 30.4243 22 30.9766 22C31.5288 22 31.9766 22.4477 31.9766 23V28C31.9766 32.5329 27.82 36 22.9766 36C18.1331 36 13.9766 32.5329 13.9766 28V23C13.9766 22.4477 14.4243 22 14.9766 22Z" fill="#FDDA24"/>
</svg>
