<svg width="48" height="48" viewBox="0 0 48 48" fill="none" xmlns="http://www.w3.org/2000/svg">
<path fill-rule="evenodd" clip-rule="evenodd" d="M6 17C6 16.4477 6.44772 16 7 16H15C15.5523 16 16 16.4477 16 17C16 17.5523 15.5523 18 15 18H8V25C8 25.5523 7.55228 26 7 26C6.44772 26 6 25.5523 6 25V17Z" fill="#00C389"/>
<path fill-rule="evenodd" clip-rule="evenodd" d="M7 24C7.55228 24 8 24.4477 8 25V38H31.92C32.4723 38 32.92 38.4477 32.92 39C32.92 39.5523 32.4723 40 31.92 40H7C6.44772 40 6 39.5523 6 39V25C6 24.4477 6.44772 24 7 24Z" fill="#00CCEA"/>
<path fill-rule="evenodd" clip-rule="evenodd" d="M32.0019 17C32.0019 16.4477 32.4496 16 33.0019 16H41.0019C41.5542 16 42.0019 16.4477 42.0019 17V39C42.0019 39.5523 41.5542 40 41.0019 40H31.9219C31.3696 40 30.9219 39.5523 30.9219 39C30.9219 38.4477 31.3696 38 31.9219 38H40.0019V18H33.0019C32.4496 18 32.0019 17.5523 32.0019 17Z" fill="#F5B6CD"/>
<path fill-rule="evenodd" clip-rule="evenodd" d="M24 24C21.7909 24 20 25.7909 20 28C20 30.2091 21.7909 32 24 32C26.2091 32 28 30.2091 28 28C28 25.7909 26.2091 24 24 24ZM18 28C18 24.6863 20.6863 22 24 22C27.3137 22 30 24.6863 30 28C30 31.3137 27.3137 34 24 34C20.6863 34 18 31.3137 18 28Z" fill="#FDDA24"/>
<path fill-rule="evenodd" clip-rule="evenodd" d="M10 21C10 20.4477 10.4477 20 11 20H15C15.5523 20 16 20.4477 16 21C16 21.5523 15.5523 22 15 22H12V34H15C15.5523 34 16 34.4477 16 35C16 35.5523 15.5523 36 15 36H11C10.4477 36 10 35.5523 10 35V21ZM32 21C32 20.4477 32.4477 20 33 20H37C37.5523 20 38 20.4477 38 21V35C38 35.5523 37.5523 36 37 36H33C32.4477 36 32 35.5523 32 35V21ZM34 22V34H36V22H34Z" fill="#9063CD"/>
<path fill-rule="evenodd" clip-rule="evenodd" d="M23.2929 7.29289C23.6834 6.90237 24.3166 6.90237 24.7071 7.29289L29.7071 12.2929C30.0976 12.6834 30.0976 13.3166 29.7071 13.7071C29.3166 14.0976 28.6834 14.0976 28.2929 13.7071L25 10.4142V19C25 19.5523 24.5523 20 24 20C23.4477 20 23 19.5523 23 19V10.4142L19.7071 13.7071C19.3166 14.0976 18.6834 14.0976 18.2929 13.7071C17.9024 13.3166 17.9024 12.6834 18.2929 12.2929L23.2929 7.29289Z" fill="#FF7F37"/>
</svg>
