<svg width="48" height="48" viewBox="0 0 48 48" fill="none" xmlns="http://www.w3.org/2000/svg">
<path fill-rule="evenodd" clip-rule="evenodd" d="M8.29289 20.2929C8.68342 19.9024 9.31658 19.9024 9.70711 20.2929L13.7071 24.2929C14.0976 24.6834 14.0976 25.3166 13.7071 25.7071C13.3166 26.0976 12.6834 26.0976 12.2929 25.7071L9 22.4142L5.70711 25.7071C5.31658 26.0976 4.68342 26.0976 4.29289 25.7071C3.90237 25.3166 3.90237 24.6834 4.29289 24.2929L8.29289 20.2929Z" fill="#00C389"/>
<path fill-rule="evenodd" clip-rule="evenodd" d="M34.2929 22.2929C34.6834 21.9024 35.3166 21.9024 35.7071 22.2929L39 25.5858L42.2929 22.2929C42.6834 21.9024 43.3166 21.9024 43.7071 22.2929C44.0976 22.6834 44.0976 23.3166 43.7071 23.7071L39.7071 27.7071C39.3166 28.0976 38.6834 28.0976 38.2929 27.7071L34.2929 23.7071C33.9024 23.3166 33.9024 22.6834 34.2929 22.2929Z" fill="#9063CD"/>
<path fill-rule="evenodd" clip-rule="evenodd" d="M9 20.2422C9.55228 20.2422 10 20.6899 10 21.2422V24.0022C10 26.5428 10.6719 28.9121 11.8478 30.9652C12.1222 31.4445 11.9562 32.0555 11.477 32.3299C10.9977 32.6044 10.3867 32.4384 10.1122 31.9592C8.76811 29.6123 8 26.9015 8 24.0022V21.2422C8 20.6899 8.44772 20.2422 9 20.2422Z" fill="#00C389"/>
<path fill-rule="evenodd" clip-rule="evenodd" d="M10.4772 30.5948C10.9556 30.3189 11.5671 30.4831 11.843 30.9616C12.9953 32.9598 14.6218 34.6438 16.5788 35.8649C18.5358 37.086 20.7633 37.8067 23.0647 37.9634C23.6157 38.0009 24.0319 38.478 23.9944 39.029C23.9569 39.58 23.4798 39.9963 22.9288 39.9588C20.2999 39.7798 17.7555 38.9566 15.52 37.5617C13.2846 36.1669 11.4267 34.2433 10.1104 31.9607C9.83455 31.4822 9.99874 30.8707 10.4772 30.5948Z" fill="#F5B6CD"/>
<path fill-rule="evenodd" clip-rule="evenodd" d="M35.3054 33.8927C35.6969 34.2823 35.6984 34.9155 35.3089 35.3069C33.8265 36.7966 32.064 37.9784 30.123 38.7841C28.1821 39.5897 26.101 40.0035 23.9996 40.0016C23.6472 40.0015 23.3159 39.982 23.0015 39.9634C22.9814 39.9622 22.9613 39.961 22.9413 39.9598C22.39 39.9274 21.9693 39.4542 22.0018 38.9028C22.0342 38.3515 22.5074 37.9309 23.0588 37.9633C23.0737 37.9642 23.0886 37.965 23.1033 37.9659C23.4313 37.9852 23.7083 38.0016 24 38.0016L24.001 38.0016C25.8388 38.0033 27.6588 37.6415 29.3562 36.9369C31.0536 36.2323 32.5948 35.1989 33.8912 33.8962C34.2808 33.5047 34.9139 33.5032 35.3054 33.8927ZM23.9996 40.0016C23.9994 40.0016 23.9992 40.0016 23.9991 40.0016L24 39.0016V40.0016C23.9999 40.0016 23.9997 40.0016 23.9996 40.0016Z" fill="#FF7F37"/>
<path fill-rule="evenodd" clip-rule="evenodd" d="M38.0646 18.7245C38.5923 18.5615 39.1522 18.8572 39.3151 19.3849C39.7654 20.8431 39.9996 22.4027 39.9996 24V27C39.9996 27.5522 39.5519 28 38.9996 28C38.4474 28 37.9996 27.5522 37.9996 27V24C37.9996 22.5972 37.7938 21.2368 37.4042 19.975C37.2412 19.4473 37.5369 18.8874 38.0646 18.7245Z" fill="#9063CD"/>
<path fill-rule="evenodd" clip-rule="evenodd" d="M26.02 9.09888C26.1295 8.55755 26.6571 8.20745 27.1984 8.31691C33.0035 9.49074 37.6539 13.8001 39.3186 19.3917C39.4762 19.9211 39.1749 20.4779 38.6455 20.6355C38.1162 20.7931 37.5594 20.4917 37.4018 19.9624C35.9464 15.074 31.8769 11.3034 26.802 10.2772C26.2607 10.1678 25.9106 9.6402 26.02 9.09888Z" fill="#00CCEA"/>
<path fill-rule="evenodd" clip-rule="evenodd" d="M23.9965 10C22.1588 9.99653 20.3385 10.3575 18.6412 11.0621C16.9438 11.7666 15.403 12.8008 14.1079 14.1047C13.7188 14.4966 13.0856 14.4987 12.6937 14.1095C12.3019 13.7203 12.2997 13.0872 12.6889 12.6953C14.1703 11.2038 15.9328 10.0208 17.8744 9.21489C19.8157 8.40908 21.8975 7.99616 23.9994 8.00003C25.0828 8.00009 26.1711 8.10619 27.2024 8.32105C27.7431 8.43369 28.0901 8.96331 27.9774 9.50398C27.8648 10.0447 27.3352 10.3916 26.7945 10.279C25.9061 10.0939 24.9547 10 23.9984 10L23.9965 10ZM23.9994 8.00003C23.9997 8.00003 24 8.00003 24.0003 8.00003L23.9984 9.00003V8.00003C23.9987 8.00003 23.9991 8.00003 23.9994 8.00003Z" fill="#FDDA24"/>
</svg>
