<svg width="48" height="48" viewBox="0 0 48 48" fill="none" xmlns="http://www.w3.org/2000/svg">
<path fill-rule="evenodd" clip-rule="evenodd" d="M29 7C29.5523 7 30 7.44772 30 8V31C30 31.5523 29.5523 32 29 32C28.4477 32 28 31.5523 28 31V8C28 7.44772 28.4477 7 29 7Z" fill="#FDDA24"/>
<path fill-rule="evenodd" clip-rule="evenodd" d="M25 7C25.5523 7 26 7.44772 26 8V31C26 31.5523 25.5523 32 25 32C24.4477 32 24 31.5523 24 31V8C24 7.44772 24.4477 7 25 7Z" fill="#00CCEA"/>
<path fill-rule="evenodd" clip-rule="evenodd" d="M34.9994 6C35.5517 6 35.9994 6.44772 35.9994 7V28C35.9994 30.2123 34.2117 32 31.9994 32H21.8594C21.3071 32 20.8594 31.5523 20.8594 31C20.8594 30.4477 21.3071 30 21.8594 30H31.9994C33.1071 30 33.9994 29.1077 33.9994 28V7C33.9994 6.44772 34.4471 6 34.9994 6Z" fill="#F5B6CD"/>
<path fill-rule="evenodd" clip-rule="evenodd" d="M13 6C13.5523 6 14 6.44772 14 7V28C14 29.1077 14.8923 30 16 30H21.86C22.4123 30 22.86 30.4477 22.86 31C22.86 31.5523 22.4123 32 21.86 32H16C13.7877 32 12 30.2123 12 28V7C12 6.44772 12.4477 6 13 6Z" fill="#9063CD"/>
<path fill-rule="evenodd" clip-rule="evenodd" d="M26 7C26 6.44772 26.4477 6 27 6H38C40.2123 6 42 7.78772 42 10V15C42 15.5523 41.5523 16 41 16H37C36.4477 16 36 15.5523 36 15C36 14.4477 36.4477 14 37 14H40V10C40 8.89228 39.1077 8 38 8H27C26.4477 8 26 7.55228 26 7Z" fill="#FF7F37"/>
<path fill-rule="evenodd" clip-rule="evenodd" d="M10 8C8.89228 8 8 8.89228 8 10V14H11C11.5523 14 12 14.4477 12 15C12 15.5523 11.5523 16 11 16H7C6.44772 16 6 15.5523 6 15V10C6 7.78772 7.78772 6 10 6H27C27.5523 6 28 6.44772 28 7C28 7.55228 27.5523 8 27 8H10Z" fill="#00C389"/>
<path fill-rule="evenodd" clip-rule="evenodd" d="M18.2929 34.2929C18.6834 33.9024 19.3166 33.9024 19.7071 34.2929L24 38.5858L28.2929 34.2929C28.6834 33.9024 29.3166 33.9024 29.7071 34.2929C30.0976 34.6834 30.0976 35.3166 29.7071 35.7071L24.7071 40.7071C24.3166 41.0976 23.6834 41.0976 23.2929 40.7071L18.2929 35.7071C17.9024 35.3166 17.9024 34.6834 18.2929 34.2929Z" fill="#00CCEA"/>
</svg>
