<svg width="48" height="48" viewBox="0 0 48 48" fill="none" xmlns="http://www.w3.org/2000/svg">
<path fill-rule="evenodd" clip-rule="evenodd" d="M9 10C8.45228 10 8 10.4523 8 11V19C7.99975 20.8262 8.55384 22.6096 9.589 24.1142C10.6241 25.6187 12.0916 26.7735 13.7973 27.426C14.3131 27.6233 14.5713 28.2015 14.374 28.7173C14.1767 29.2331 13.5985 29.4913 13.0827 29.294C10.9988 28.4968 9.206 27.0859 7.94132 25.2478C6.67667 23.4097 5.99972 21.2311 6 19C6 19 6 19 6 19V11C6 9.34772 7.34772 8 9 8H11C11.5523 8 12 8.44772 12 9C12 9.55228 11.5523 10 11 10H9Z" fill="#00CCEA"/>
<path fill-rule="evenodd" clip-rule="evenodd" d="M21.9978 9C21.9978 8.44772 22.4455 8 22.9978 8H24.9978C26.6501 8 27.9978 9.34772 27.9978 11V18.58C27.9978 24.2581 23.8416 29.3997 18.0754 29.9552C16.312 30.1313 14.6197 29.8658 13.0896 29.2974C12.5719 29.1051 12.308 28.5295 12.5003 28.0118C12.6926 27.4941 13.2682 27.2303 13.786 27.4226C15.0552 27.894 16.4424 28.1086 17.8783 27.965L17.8821 27.9646C22.5149 27.5191 25.9978 23.3412 25.9978 18.58V11C25.9978 10.4523 25.5455 10 24.9978 10H22.9978C22.4455 10 21.9978 9.55228 21.9978 9Z" fill="#FF7F37"/>
<path fill-rule="evenodd" clip-rule="evenodd" d="M11 6C11.5523 6 12 6.44772 12 7V11C12 11.5523 11.5523 12 11 12C10.4477 12 10 11.5523 10 11V7C10 6.44772 10.4477 6 11 6ZM23 6C23.5523 6 24 6.44772 24 7V11C24 11.5523 23.5523 12 23 12C22.4477 12 22 11.5523 22 11V7C22 6.44772 22.4477 6 23 6Z" fill="#FDDA24"/>
<path fill-rule="evenodd" clip-rule="evenodd" d="M39 20C39.5523 20 40 20.4477 40 21L40 29.999C40 29.9992 40 29.9993 40 29.9995" fill="#F5B6CD"/>
<path fill-rule="evenodd" clip-rule="evenodd" d="M17 29C17.5523 29 18 29.4477 18 30C18 35.5277 22.4723 40 28 40C30.0724 40 31.9999 39.3643 33.6031 38.2894C34.0618 37.9818 34.683 38.1044 34.9906 38.5631C35.2981 39.0218 35.1756 39.643 34.7169 39.9506C32.8001 41.2357 30.4876 42 28 42C21.3677 42 16 36.6323 16 30C16 29.4477 16.4477 29 17 29Z" fill="#9063CD"/>
<path fill-rule="evenodd" clip-rule="evenodd" d="M38 16C36.8954 16 36 16.8954 36 18C36 19.1046 36.8954 20 38 20C39.1046 20 40 19.1046 40 18C40 16.8954 39.1046 16 38 16ZM34 18C34 15.7909 35.7909 14 38 14C40.2091 14 42 15.7909 42 18C42 20.2091 40.2091 22 38 22C35.7909 22 34 20.2091 34 18Z" fill="#00C389"/>
</svg>
