<svg width="48" height="48" viewBox="0 0 48 48" fill="none" xmlns="http://www.w3.org/2000/svg">
<path fill-rule="evenodd" clip-rule="evenodd" d="M16 21C16 20.4477 16.4477 20 17 20H37C37.5523 20 38 20.4477 38 21V30C38 30.5523 37.5523 31 37 31C36.4477 31 36 30.5523 36 30V22H17C16.4477 22 16 21.5523 16 21Z" fill="#FDDA24"/>
<path fill-rule="evenodd" clip-rule="evenodd" d="M37.0026 29C37.5549 29.0002 38.0025 29.448 38.0023 30.0003C38.0015 32.5393 37.3103 35.0303 36.0026 37.2067C34.6949 39.383 32.82 41.1628 30.5785 42.3555C28.337 43.5481 25.8134 44.1087 23.2778 43.9773C20.7422 43.846 18.29 43.0275 16.1838 41.6095C15.7257 41.3011 15.6043 40.6797 15.9128 40.2215C16.2212 39.7634 16.8426 39.642 17.3008 39.9505C19.1061 41.1658 21.2079 41.8674 23.3813 41.98C25.5547 42.0927 27.7178 41.6121 29.639 40.5898C31.5603 39.5676 33.1674 38.0421 34.2883 36.1766C35.4092 34.3112 36.0016 32.176 36.0023 29.9997C36.0025 29.4474 36.4503 28.9998 37.0026 29Z" fill="#9063CD"/>
<path fill-rule="evenodd" clip-rule="evenodd" d="M10 21C10 20.4477 10.4477 20 11 20H17C17.5523 20 18 20.4477 18 21C18 21.5523 17.5523 22 17 22H12V30C12 34.1327 14.1023 37.7889 17.3002 39.9517C17.7577 40.261 17.8777 40.8827 17.5683 41.3402C17.259 41.7977 16.6373 41.9177 16.1798 41.6083C12.4577 39.0911 10 34.8273 10 30V21Z" fill="#FF7F37"/>
<path fill-rule="evenodd" clip-rule="evenodd" d="M24 26C22.8954 26 22 26.8954 22 28C22 29.1046 22.8954 30 24 30C25.1046 30 26 29.1046 26 28C26 26.8954 25.1046 26 24 26ZM20 28C20 25.7909 21.7909 24 24 24C26.2091 24 28 25.7909 28 28C28 30.2091 26.2091 32 24 32C21.7909 32 20 30.2091 20 28Z" fill="#00CCEA"/>
<path fill-rule="evenodd" clip-rule="evenodd" d="M14 14C14 8.46772 18.4677 4 24 4H24.0009C26.5324 4.0023 28.9693 4.96275 30.8216 6.68829C31.2257 7.06474 31.2482 7.69751 30.8717 8.10162C30.4953 8.50573 29.8625 8.52815 29.4584 8.15171C27.9759 6.77069 26.0256 6.00196 23.9996 6C19.572 6.00024 16 9.57243 16 14V20C16 20.5523 15.5523 21 15 21C14.4477 21 14 20.5523 14 20V14Z" fill="#00C389"/>
<path fill-rule="evenodd" clip-rule="evenodd" d="M29.409 6.74015C29.7855 6.3361 30.4183 6.31376 30.8224 6.69027C32.7773 8.51196 34.0006 11.1136 34.0006 14.0019V20.0019C34.0006 20.5542 33.5529 21.0019 33.0006 21.0019C32.4483 21.0019 32.0006 20.5542 32.0006 20.0019V14.0019C32.0006 11.6901 31.0239 9.6118 29.4589 8.15349C29.0548 7.77698 29.0325 7.14421 29.409 6.74015Z" fill="#F5B6CD"/>
<path fill-rule="evenodd" clip-rule="evenodd" d="M24 30C24.5523 30 25 30.4477 25 31V37C25 37.5523 24.5523 38 24 38C23.4477 38 23 37.5523 23 37V31C23 30.4477 23.4477 30 24 30Z" fill="#00CCEA"/>
</svg>
