<svg width="48" height="48" viewBox="0 0 48 48" fill="none" xmlns="http://www.w3.org/2000/svg">
<path fill-rule="evenodd" clip-rule="evenodd" d="M24 16C20.134 16 17 19.134 17 23C17 26.866 20.134 30 24 30C27.866 30 31 26.866 31 23C31 19.134 27.866 16 24 16ZM15 23C15 18.0294 19.0294 14 24 14C28.9706 14 33 18.0294 33 23C33 27.9706 28.9706 32 24 32C19.0294 32 15 27.9706 15 23Z" fill="#FDDA24"/>
<path fill-rule="evenodd" clip-rule="evenodd" d="M24.9255 4.48081C25.1347 4.99194 24.8899 5.57589 24.3788 5.78511L10 11.6708V22.3196C10 24.8008 10.4388 27.1998 11.2944 29.4433C11.4912 29.9593 11.2324 30.5372 10.7163 30.734C10.2003 30.9308 9.62243 30.672 9.42564 30.156C8.48122 27.6795 8 25.0385 8 22.3196V10.9996C8 10.5937 8.24545 10.228 8.62117 10.0742L23.6212 3.93417C24.1323 3.72495 24.7162 3.96969 24.9255 4.48081Z" fill="#00CCEA"/>
<path fill-rule="evenodd" clip-rule="evenodd" d="M10.0041 28.8625C10.5203 28.6661 11.0979 28.9254 11.2943 29.4416C13.0314 34.0078 16.3615 37.7916 20.67 40.0947C20.6704 40.0949 20.6707 40.095 20.671 40.0952L23.9996 41.8646L27.3303 40.0942C27.8179 39.8349 28.4234 40.0201 28.6826 40.5078C28.9419 40.9954 28.7567 41.6009 28.269 41.8601L24.469 43.8801C24.1756 44.0361 23.8237 44.0361 23.5303 43.8801L19.7303 41.8601L19.7283 41.8591C14.9935 39.3284 11.3339 35.1705 9.425 30.1527C9.22862 29.6365 9.48788 29.0589 10.0041 28.8625Z" fill="#9063CD"/>
<path fill-rule="evenodd" clip-rule="evenodd" d="M39.0181 23.0033C39.5686 23.0481 39.9786 23.5306 39.9338 24.0811C39.6326 27.7843 38.4068 31.3527 36.3687 34.4593C34.3306 37.5659 31.5454 40.1112 28.2683 41.8621C27.7812 42.1223 27.1753 41.9384 26.9151 41.4513C26.6548 40.9642 26.8387 40.3583 27.3258 40.098C30.3077 38.5049 32.8419 36.1889 34.6964 33.3622C36.5509 30.5355 37.6663 27.2886 37.9404 23.919C37.9851 23.3685 38.4677 22.9586 39.0181 23.0033Z" fill="#F5B6CD"/>
<path fill-rule="evenodd" clip-rule="evenodd" d="M23.0748 4.48081C23.284 3.96969 23.868 3.72495 24.3791 3.93417L39.3791 10.0742C39.7548 10.228 40.0003 10.5937 40.0003 10.9996V22.2996C40.0003 22.8835 39.9794 23.4672 39.9377 24.0509C39.8984 24.6018 39.4199 25.0164 38.869 24.9771C38.3181 24.9377 37.9035 24.4593 37.9428 23.9084C37.9811 23.372 38.0003 22.8358 38.0003 22.2996V11.6708L23.6214 5.78511C23.1103 5.57589 22.8656 4.99194 23.0748 4.48081Z" fill="#FF7F37"/>
<path fill-rule="evenodd" clip-rule="evenodd" d="M27.7071 20.2929C28.0976 20.6834 28.0976 21.3166 27.7071 21.7071L23.7071 25.7071C23.3166 26.0976 22.6834 26.0976 22.2929 25.7071L20.2929 23.7071C19.9024 23.3166 19.9024 22.6834 20.2929 22.2929C20.6834 21.9024 21.3166 21.9024 21.7071 22.2929L23 23.5858L26.2929 20.2929C26.6834 19.9024 27.3166 19.9024 27.7071 20.2929Z" fill="#00C389"/>
</svg>
