<svg width="48" height="48" viewBox="0 0 48 48" fill="none" xmlns="http://www.w3.org/2000/svg">
<path fill-rule="evenodd" clip-rule="evenodd" d="M15 7.96094C13.8954 7.96094 13 8.85637 13 9.96094C13 11.0655 13.8954 11.9609 15 11.9609C16.1046 11.9609 17 11.0655 17 9.96094C17 8.85637 16.1046 7.96094 15 7.96094ZM11 9.96094C11 7.7518 12.7909 5.96094 15 5.96094C17.2091 5.96094 19 7.7518 19 9.96094C19 12.1701 17.2091 13.9609 15 13.9609C12.7909 13.9609 11 12.1701 11 9.96094Z" fill="#FF7F37"/>
<path fill-rule="evenodd" clip-rule="evenodd" d="M33 7.96094C31.8954 7.96094 31 8.85637 31 9.96094C31 11.0655 31.8954 11.9609 33 11.9609C34.1046 11.9609 35 11.0655 35 9.96094C35 8.85637 34.1046 7.96094 33 7.96094ZM29 9.96094C29 7.7518 30.7909 5.96094 33 5.96094C35.2091 5.96094 37 7.7518 37 9.96094C37 12.1701 35.2091 13.9609 33 13.9609C30.7909 13.9609 29 12.1701 29 9.96094Z" fill="#00C389"/>
<path fill-rule="evenodd" clip-rule="evenodd" d="M26 20C26 17.7877 27.7877 16 30 16H36C38.2123 16 40 17.7877 40 20V23C40 23.2652 39.8946 23.5196 39.7071 23.7071L38.4142 25L39.7071 26.2929C39.964 26.5498 40.0613 26.9258 39.9614 27.275L37.5414 35.735C37.3895 36.266 36.836 36.5733 36.305 36.4214C35.774 36.2695 35.4667 35.716 35.6186 35.185L37.8767 27.2909L36.2929 25.7071C35.9024 25.3166 35.9024 24.6834 36.2929 24.2929L38 22.5858V20C38 18.8923 37.1077 18 36 18H30C28.8923 18 28 18.8923 28 20V23C28 23.5523 27.5523 24 27 24C26.4477 24 26 23.5523 26 23V20Z" fill="#00CCEA"/>
<path fill-rule="evenodd" clip-rule="evenodd" d="M26.2929 22.2929C26.6834 21.9024 27.3166 21.9024 27.7071 22.2929L29.7071 24.2929C30.0977 24.6834 30.0977 25.3166 29.7071 25.7071L28.1232 27.291L31.7543 40H34.2453L35.6184 35.1857C35.7698 34.6546 36.3232 34.3469 36.8543 34.4983C37.3854 34.6498 37.6932 35.2032 37.5417 35.7343L35.9617 41.2743C35.8392 41.7038 35.4467 42 35 42H31C30.5535 42 30.1612 41.704 30.0385 41.2747L26.0385 27.2747C25.9387 26.9255 26.0361 26.5497 26.2929 26.2929L27.5858 25L26.2929 23.7071C25.9024 23.3166 25.9024 22.6834 26.2929 22.2929Z" fill="#F5B6CD"/>
<path fill-rule="evenodd" clip-rule="evenodd" d="M8 20C8 17.7877 9.78772 16 12 16H18C20.2123 16 22 17.7877 22 20V27C22 27.2652 21.8946 27.5196 21.7071 27.7071L19.7071 29.7071C19.3166 30.0976 18.6834 30.0976 18.2929 29.7071C17.9024 29.3166 17.9024 28.6834 18.2929 28.2929L20 26.5858V20C20 18.8923 19.1077 18 18 18H12C10.8923 18 10 18.8923 10 20C10 20.5523 9.55228 21 9 21C8.44772 21 8 20.5523 8 20Z" fill="#9063CD"/>
<path fill-rule="evenodd" clip-rule="evenodd" d="M9 19C9.55228 19 10 19.4477 10 20V26.5858L11.7071 28.2929C11.8545 28.4403 11.9521 28.63 11.9864 28.8356L13.8471 40H16.1529L18.0136 28.8356C18.1044 28.2908 18.6196 27.9228 19.1644 28.0136C19.7092 28.1044 20.0772 28.6196 19.9864 29.1644L17.9864 41.1644C17.906 41.6466 17.4888 42 17 42H13C12.5112 42 12.094 41.6466 12.0136 41.1644L10.0663 29.4805L8.29289 27.7071C8.10536 27.5196 8 27.2652 8 27V20C8 19.4477 8.44772 19 9 19Z" fill="#FDDA24"/>
</svg>
