<svg width="48" height="48" viewBox="0 0 48 48" fill="none" xmlns="http://www.w3.org/2000/svg">
<path fill-rule="evenodd" clip-rule="evenodd" d="M33 5C33 4.44772 33.4477 4 34 4C36.2123 4 38 5.78772 38 8V40C38 40.5523 37.5523 41 37 41C36.4477 41 36 40.5523 36 40V8C36 6.89228 35.1077 6 34 6C33.4477 6 33 5.55228 33 5Z" fill="#FF7F37"/>
<path fill-rule="evenodd" clip-rule="evenodd" d="M11 21.5C11.5523 21.5 12 21.9477 12 22.5V40C12 41.1077 12.8923 42 14 42H34C35.1077 42 36 41.1077 36 40C36 39.4477 36.4477 39 37 39C37.5523 39 38 39.4477 38 40C38 42.2123 36.2123 44 34 44H14C11.7877 44 10 42.2123 10 40V22.5C10 21.9477 10.4477 21.5 11 21.5Z" fill="#F5B6CD"/>
<path fill-rule="evenodd" clip-rule="evenodd" d="M10 8C10 5.78772 11.7877 4 14 4H34C34.5523 4 35 4.44772 35 5C35 5.55228 34.5523 6 34 6H14C12.8923 6 12 6.89228 12 8V22.5C12 23.0523 11.5523 23.5 11 23.5C10.4477 23.5 10 23.0523 10 22.5V8Z" fill="#9063CD"/>
<path fill-rule="evenodd" clip-rule="evenodd" d="M17 12C16.4523 12 16 12.4523 16 13V17C16 17.5477 16.4523 18 17 18H31C31.5477 18 32 17.5477 32 17V13C32 12.4523 31.5477 12 31 12H17ZM14 13C14 11.3477 15.3477 10 17 10H31C32.6523 10 34 11.3477 34 13V17C34 18.6523 32.6523 20 31 20H17C15.3477 20 14 18.6523 14 17V13Z" fill="#FDDA24"/>
<path fill-rule="evenodd" clip-rule="evenodd" d="M16 25C16 24.4477 16.4477 24 17 24H19C19.5523 24 20 24.4477 20 25C20 25.5523 19.5523 26 19 26H17C16.4477 26 16 25.5523 16 25ZM22 25C22 24.4477 22.4477 24 23 24H25C25.5523 24 26 24.4477 26 25C26 25.5523 25.5523 26 25 26H23C22.4477 26 22 25.5523 22 25ZM28 25C28 24.4477 28.4477 24 29 24H31C31.5523 24 32 24.4477 32 25C32 25.5523 31.5523 26 31 26H29C28.4477 26 28 25.5523 28 25ZM16 31C16 30.4477 16.4477 30 17 30H19C19.5523 30 20 30.4477 20 31C20 31.5523 19.5523 32 19 32H17C16.4477 32 16 31.5523 16 31Z" fill="#00C389"/>
<path fill-rule="evenodd" clip-rule="evenodd" d="M22 31C22 30.4477 22.4477 30 23 30H25C25.5523 30 26 30.4477 26 31C26 31.5523 25.5523 32 25 32H23C22.4477 32 22 31.5523 22 31Z" fill="#00CCEA"/>
<path fill-rule="evenodd" clip-rule="evenodd" d="M28 31C28 30.4477 28.4477 30 29 30H31C31.5523 30 32 30.4477 32 31C32 31.5523 31.5523 32 31 32H29C28.4477 32 28 31.5523 28 31Z" fill="#00C389"/>
<path fill-rule="evenodd" clip-rule="evenodd" d="M16 37C16 36.4477 16.4477 36 17 36H19C19.5523 36 20 36.4477 20 37C20 37.5523 19.5523 38 19 38H17C16.4477 38 16 37.5523 16 37ZM22 37C22 36.4477 22.4477 36 23 36H25C25.5523 36 26 36.4477 26 37C26 37.5523 25.5523 38 25 38H23C22.4477 38 22 37.5523 22 37ZM28 37C28 36.4477 28.4477 36 29 36H31C31.5523 36 32 36.4477 32 37C32 37.5523 31.5523 38 31 38H29C28.4477 38 28 37.5523 28 37Z" fill="#00CCEA"/>
</svg>
