<svg width="48" height="48" viewBox="0 0 48 48" fill="none" xmlns="http://www.w3.org/2000/svg">
<path fill-rule="evenodd" clip-rule="evenodd" d="M24 4C24.5523 4 25 4.44772 25 5V9C25 9.55228 24.5523 10 24 10C23.4477 10 23 9.55228 23 9V5C23 4.44772 23.4477 4 24 4Z" fill="#FF7F37"/>
<path fill-rule="evenodd" clip-rule="evenodd" d="M38.1487 9.85539C38.5392 10.2459 38.5392 10.8791 38.1487 11.2696L35.3087 14.1096C34.9181 14.5001 34.285 14.5001 33.8945 14.1096C33.5039 13.7191 33.5039 13.0859 33.8945 12.6954L36.7345 9.85539C37.125 9.46487 37.7581 9.46487 38.1487 9.85539Z" fill="#F5B6CD"/>
<path fill-rule="evenodd" clip-rule="evenodd" d="M38 24C38 23.4477 38.4477 23 39 23H43C43.5523 23 44 23.4477 44 24C44 24.5523 43.5523 25 43 25H39C38.4477 25 38 24.5523 38 24Z" fill="#9063CD"/>
<path fill-rule="evenodd" clip-rule="evenodd" d="M33.8945 33.8945C34.285 33.5039 34.9181 33.5039 35.3087 33.8945L38.1487 36.7345C38.5392 37.125 38.5392 37.7581 38.1487 38.1487C37.7581 38.5392 37.125 38.5392 36.7345 38.1487L33.8945 35.3087C33.5039 34.9181 33.5039 34.285 33.8945 33.8945Z" fill="#FDDA24"/>
<path fill-rule="evenodd" clip-rule="evenodd" d="M24 38C24.5523 38 25 38.4477 25 39V43C25 43.5523 24.5523 44 24 44C23.4477 44 23 43.5523 23 43V39C23 38.4477 23.4477 38 24 38Z" fill="#FF7F37"/>
<path fill-rule="evenodd" clip-rule="evenodd" d="M14.1096 33.8945C14.5001 34.285 14.5001 34.9181 14.1096 35.3087L11.2696 38.1487C10.8791 38.5392 10.2459 38.5392 9.85539 38.1487C9.46487 37.7581 9.46487 37.125 9.85539 36.7345L12.6954 33.8945C13.0859 33.5039 13.7191 33.5039 14.1096 33.8945Z" fill="#F5B6CD"/>
<path fill-rule="evenodd" clip-rule="evenodd" d="M4 24C4 23.4477 4.44772 23 5 23H9C9.55228 23 10 23.4477 10 24C10 24.5523 9.55228 25 9 25H5C4.44772 25 4 24.5523 4 24Z" fill="#9063CD"/>
<path fill-rule="evenodd" clip-rule="evenodd" d="M9.85539 9.85539C10.2459 9.46487 10.8791 9.46487 11.2696 9.85539L14.1096 12.6954C14.5001 13.0859 14.5001 13.7191 14.1096 14.1096C13.7191 14.5001 13.0859 14.5001 12.6954 14.1096L9.85539 11.2696C9.46487 10.8791 9.46487 10.2459 9.85539 9.85539Z" fill="#FDDA24"/>
<path fill-rule="evenodd" clip-rule="evenodd" d="M24 14C18.4723 14 14 18.4723 14 24C14 25.7065 14.4351 27.3078 15.1852 28.7347C15.4421 29.2236 15.2541 29.8282 14.7653 30.0852C14.2764 30.3421 13.6718 30.1541 13.4148 29.6653C12.5249 27.9722 12 26.0535 12 24C12 17.3677 17.3677 12 24 12C26.811 12 29.41 12.9598 31.4637 14.5983C31.8954 14.9428 31.9661 15.572 31.6217 16.0037C31.2772 16.4354 30.648 16.5061 30.2163 16.1617C28.51 14.8002 26.349 14 24 14Z" fill="#00CCEA"/>
<path fill-rule="evenodd" clip-rule="evenodd" d="M13.8214 28.3237C14.3073 28.061 14.914 28.2419 15.1767 28.7277C16.8705 31.8604 20.1819 34.0033 23.9971 34.0033C26.7623 34.0033 29.2506 32.8955 31.07 31.0762C31.4605 30.6857 32.0936 30.6857 32.4842 31.0762C32.8747 31.4667 32.8747 32.0999 32.4842 32.4904C30.3035 34.6711 27.3118 36.0033 23.9971 36.0033C19.4123 36.0033 15.4436 33.4263 13.4174 29.6789C13.1547 29.1931 13.3356 28.5863 13.8214 28.3237Z" fill="#FDDA24"/>
<path fill-rule="evenodd" clip-rule="evenodd" d="M30.0597 14.7622C30.4025 14.3292 31.0314 14.256 31.4644 14.5988C32.8828 15.7215 34.0282 17.1512 34.8145 18.7804C35.6006 20.4093 36.0072 22.1952 36.0038 24.0039C36.0035 27.3223 34.6485 30.3106 32.4944 32.4864C32.1059 32.8789 31.4727 32.8821 31.0802 32.4935C30.6878 32.1049 30.6846 31.4718 31.0731 31.0793C32.8789 29.2553 34.0038 26.764 34.0038 24.0029L34.0038 24.0009C34.0068 22.4943 33.6681 21.0066 33.0133 19.6497C32.3584 18.2928 31.4045 17.102 30.2231 16.1669C29.7901 15.8242 29.7169 15.1953 30.0597 14.7622ZM36.0038 24.0039C36.0038 24.0042 36.0038 24.0045 36.0038 24.0048L35.0038 24.0029H36.0038C36.0038 24.0032 36.0038 24.0035 36.0038 24.0039Z" fill="#00C389"/>
</svg>
