<svg width="48" height="48" viewBox="0 0 48 48" fill="none" xmlns="http://www.w3.org/2000/svg">
<path fill-rule="evenodd" clip-rule="evenodd" d="M36 21C36 20.4477 36.4477 20 37 20H43C43.5523 20 44 20.4477 44 21C44 21.5523 43.5523 22 43 22H37C36.4477 22 36 21.5523 36 21Z" fill="#F5B6CD"/>
<path fill-rule="evenodd" clip-rule="evenodd" d="M36 15C36 14.4477 36.4477 14 37 14H40C42.2123 14 44 15.7877 44 18V34C44 36.2123 42.2123 38 40 38C39.4477 38 39 37.5523 39 37C39 36.4477 39.4477 36 40 36C41.1077 36 42 35.1077 42 34V18C42 16.8923 41.1077 16 40 16H37C36.4477 16 36 15.5523 36 15Z" fill="#9063CD"/>
<path fill-rule="evenodd" clip-rule="evenodd" d="M11 30C11.5523 30 12 30.4477 12 31V34C12 35.1077 12.8923 36 14 36H40C40.5523 36 41 36.4477 41 37C41 37.5523 40.5523 38 40 38H14C11.7877 38 10 36.2123 10 34V31C10 30.4477 10.4477 30 11 30Z" fill="#00C389"/>
<path fill-rule="evenodd" clip-rule="evenodd" d="M36 27C36 26.4477 36.4477 26 37 26H43C43.5523 26 44 26.4477 44 27C44 27.5523 43.5523 28 43 28H37C36.4477 28 36 27.5523 36 27Z" fill="#9063CD"/>
<path fill-rule="evenodd" clip-rule="evenodd" d="M37 11C37.5523 11 38 11.4477 38 12V28C38 30.2123 36.2123 32 34 32H8C7.44772 32 7 31.5523 7 31C7 30.4477 7.44772 30 8 30H34C35.1077 30 36 29.1077 36 28V12C36 11.4477 36.4477 11 37 11Z" fill="#00CCEA"/>
<path fill-rule="evenodd" clip-rule="evenodd" d="M4 12C4 9.78772 5.78772 8 8 8H34C36.2123 8 38 9.78772 38 12C38 12.5523 37.5523 13 37 13C36.4477 13 36 12.5523 36 12C36 10.8923 35.1077 10 34 10H8C6.89228 10 6 10.8923 6 12V28C6 29.1077 6.89228 30 8 30C8.55228 30 9 30.4477 9 31C9 31.5523 8.55228 32 8 32C5.78772 32 4 30.2123 4 28V12Z" fill="#FF7F37"/>
<path fill-rule="evenodd" clip-rule="evenodd" d="M10.5 14C10.2323 14 10 14.2323 10 14.5V17.5C10 17.7677 10.2323 18 10.5 18H13.5C13.7677 18 14 17.7677 14 17.5V14.5C14 14.2323 13.7677 14 13.5 14H10.5ZM8 14.5C8 13.1277 9.12772 12 10.5 12H13.5C14.8723 12 16 13.1277 16 14.5V17.5C16 18.8723 14.8723 20 13.5 20H10.5C9.12772 20 8 18.8723 8 17.5V14.5Z" fill="#FDDA24"/>
<path fill-rule="evenodd" clip-rule="evenodd" d="M8 27C8 26.4477 8.44772 26 9 26H23C23.5523 26 24 26.4477 24 27C24 27.5523 23.5523 28 23 28H9C8.44772 28 8 27.5523 8 27Z" fill="#F5B6CD"/>
<path fill-rule="evenodd" clip-rule="evenodd" d="M8 23C8 22.4477 8.44772 22 9 22H33C33.5523 22 34 22.4477 34 23C34 23.5523 33.5523 24 33 24H9C8.44772 24 8 23.5523 8 23Z" fill="#FDDA24"/>
</svg>
