<svg width="48" height="48" viewBox="0 0 48 48" fill="none" xmlns="http://www.w3.org/2000/svg">
<path fill-rule="evenodd" clip-rule="evenodd" d="M24 11C24 10.4477 24.4477 10 25 10H36C38.2123 10 40 11.7877 40 14V33C40 33.5523 39.5523 34 39 34C38.4477 34 38 33.5523 38 33V14C38 12.8923 37.1077 12 36 12H25C24.4477 12 24 11.5523 24 11Z" fill="#FF7F37"/>
<path fill-rule="evenodd" clip-rule="evenodd" d="M12 12C10.8923 12 10 12.8923 10 14V33C10 33.5523 9.55228 34 9 34C8.44772 34 8 33.5523 8 33V14C8 11.7877 9.78772 10 12 10H25C25.5523 10 26 10.4477 26 11C26 11.5523 25.5523 12 25 12H12Z" fill="#FDDA24"/>
<path fill-rule="evenodd" clip-rule="evenodd" d="M4 33C4 32.4477 4.44772 32 5 32H27.14C27.6923 32 28.14 32.4477 28.14 33C28.14 33.5523 27.6923 34 27.14 34H6C6 35.1077 6.89228 36 8 36C8.55228 36 9 36.4477 9 37C9 37.5523 8.55228 38 8 38C5.78772 38 4 36.2123 4 34V33Z" fill="#F5B6CD"/>
<path fill-rule="evenodd" clip-rule="evenodd" d="M7 37C7 36.4477 7.44772 36 8 36H40C40.5523 36 41 36.4477 41 37C41 37.5523 40.5523 38 40 38H8C7.44772 38 7 37.5523 7 37Z" fill="#00CCEA"/>
<path fill-rule="evenodd" clip-rule="evenodd" d="M26.1406 33C26.1406 32.4477 26.5883 32 27.1406 32H43.0006C43.5529 32 44.0006 32.4477 44.0006 33V34C44.0006 36.2123 42.2129 38 40.0006 38C39.4483 38 39.0006 37.5523 39.0006 37C39.0006 36.4477 39.4483 36 40.0006 36C41.1083 36 42.0006 35.1077 42.0006 34H27.1406C26.5883 34 26.1406 33.5523 26.1406 33Z" fill="#00C389"/>
<path fill-rule="evenodd" clip-rule="evenodd" d="M20 15C20 14.4477 20.4477 14 21 14H27C27.5523 14 28 14.4477 28 15C28 15.5523 27.5523 16 27 16H21C20.4477 16 20 15.5523 20 15Z" fill="#9063CD"/>
</svg>
