<svg width="48" height="48" viewBox="0 0 48 48" fill="none" xmlns="http://www.w3.org/2000/svg">
<path fill-rule="evenodd" clip-rule="evenodd" d="M18.0071 29.3945C18.3976 29.785 18.3976 30.4181 18.0071 30.8087L6.70711 42.1087C6.31658 42.4992 5.68342 42.4992 5.29289 42.1087C4.90237 41.7181 4.90237 41.085 5.29289 40.6945L16.5929 29.3945C16.9834 29.0039 17.6166 29.0039 18.0071 29.3945Z" fill="#FDDA24"/>
<path fill-rule="evenodd" clip-rule="evenodd" d="M28.1087 11.5937C28.4992 11.9842 28.4992 12.6174 28.1087 13.0079L21.8087 19.3079C21.4181 19.6984 20.785 19.6984 20.3945 19.3079C20.0039 18.9174 20.0039 18.2842 20.3945 17.8937L26.6945 11.5937C27.085 11.2032 27.7181 11.2032 28.1087 11.5937Z" fill="#59CBE8"/>
<path fill-rule="evenodd" clip-rule="evenodd" d="M11.7055 17.8945C12.0961 18.285 12.0961 18.9181 11.7055 19.3087L9.10554 21.9087C8.71502 22.2992 8.08186 22.2992 7.69133 21.9087C7.30081 21.5181 7.30081 20.885 7.69133 20.4945L10.2913 17.8945C10.6819 17.5039 11.315 17.5039 11.7055 17.8945Z" fill="#00C389"/>
<path fill-rule="evenodd" clip-rule="evenodd" d="M10 18.6016C10 18.0493 10.4477 17.6016 11 17.6016H21.1C21.6523 17.6016 22.1 18.0493 22.1 18.6016C22.1 19.1538 21.6523 19.6016 21.1 19.6016H11C10.4477 19.6016 10 19.1538 10 18.6016Z" fill="#00C389"/>
<path fill-rule="evenodd" clip-rule="evenodd" d="M7.69133 20.496C8.08185 20.1055 8.71502 20.1055 9.10554 20.496L18.0055 29.396C18.3961 29.7865 18.3961 30.4197 18.0055 30.8102C17.615 31.2008 16.9819 31.2008 16.5913 30.8102L7.69133 21.9102C7.30081 21.5197 7.30081 20.8865 7.69133 20.496Z" fill="#00C389"/>
<path fill-rule="evenodd" clip-rule="evenodd" d="M28.8008 25.3008C29.3531 25.3008 29.8008 25.7485 29.8008 26.3008V36.4008C29.8008 36.9531 29.3531 37.4008 28.8008 37.4008C28.2485 37.4008 27.8008 36.9531 27.8008 36.4008V26.3008C27.8008 25.7485 28.2485 25.3008 28.8008 25.3008Z" fill="#9063CD"/>
<path fill-rule="evenodd" clip-rule="evenodd" d="M29.5063 35.6952C29.8968 36.0858 29.8968 36.7189 29.5063 37.1095L26.9063 39.7095C26.5158 40.1 25.8826 40.1 25.4921 39.7095C25.1016 39.3189 25.1016 38.6858 25.4921 38.2952L28.0921 35.6952C28.4826 35.3047 29.1158 35.3047 29.5063 35.6952Z" fill="#9063CD"/>
<path fill-rule="evenodd" clip-rule="evenodd" d="M16.5937 29.3945C16.9842 29.0039 17.6174 29.0039 18.0079 29.3945L26.9079 38.2945C27.2984 38.685 27.2984 39.3181 26.9079 39.7087C26.5174 40.0992 25.8842 40.0992 25.4937 39.7087L16.5937 30.8087C16.2032 30.4181 16.2032 29.785 16.5937 29.3945Z" fill="#9063CD"/>
<path fill-rule="evenodd" clip-rule="evenodd" d="M34.3888 11.5994C34.7762 11.2057 35.4094 11.2007 35.803 11.588L42.103 17.788C42.4966 18.1754 42.5017 18.8086 42.1143 19.2022C41.7269 19.5958 41.0938 19.6009 40.7001 19.2135L34.4001 13.0135C34.0065 12.6261 34.0014 11.993 34.3888 11.5994Z" fill="#FF7F41"/>
<path fill-rule="evenodd" clip-rule="evenodd" d="M42.1079 17.7929C42.4984 18.1834 42.4984 18.8166 42.1079 19.2071L39.5079 21.8071C39.1174 22.1976 38.4842 22.1976 38.0937 21.8071C37.7032 21.4166 37.7032 20.7834 38.0937 20.3929L40.6937 17.7929C41.0842 17.4024 41.7174 17.4024 42.1079 17.7929Z" fill="#FF7F41"/>
<path fill-rule="evenodd" clip-rule="evenodd" d="M34.1506 19.5902C34.321 19.0649 34.885 18.7771 35.4103 18.9475L39.1103 20.1475C39.6357 20.3179 39.9234 20.8819 39.7531 21.4072C39.5827 21.9326 39.0187 22.2203 38.4933 22.0499L34.7933 20.8499C34.268 20.6795 33.9802 20.1155 34.1506 19.5902Z" fill="#FF7F41"/>
<path fill-rule="evenodd" clip-rule="evenodd" d="M35.8023 19.1897C36.1959 19.5771 36.2009 20.2103 35.8134 20.6039L29.5134 27.0039C29.126 27.3974 28.4929 27.4024 28.0993 27.015C27.7057 26.6276 27.7007 25.9944 28.0881 25.6008L34.3881 19.2008C34.7756 18.8072 35.4087 18.8023 35.8023 19.1897Z" fill="#FF7F41"/>
<path fill-rule="evenodd" clip-rule="evenodd" d="M26.0161 7.64329C26.5455 7.4859 27.1022 7.78747 27.2596 8.31685L28.3596 12.0169C28.517 12.5462 28.2154 13.103 27.686 13.2604C27.1566 13.4177 26.5999 13.1162 26.4425 12.5868L25.3425 8.8868C25.1851 8.35741 25.4867 7.80067 26.0161 7.64329Z" fill="#59CBE8"/>
<path fill-rule="evenodd" clip-rule="evenodd" d="M29.6079 5.29289C29.9984 5.68342 29.9984 6.31658 29.6079 6.70711L27.0079 9.30711C26.6174 9.69763 25.9842 9.69763 25.5937 9.30711C25.2032 8.91658 25.2032 8.28342 25.5937 7.89289L28.1937 5.29289C28.5842 4.90237 29.2174 4.90237 29.6079 5.29289Z" fill="#59CBE8"/>
<path fill-rule="evenodd" clip-rule="evenodd" d="M28.2009 5.28726C28.5946 4.89987 29.2277 4.90494 29.6151 5.29857L35.8151 11.5986C36.2025 11.9922 36.1974 12.6254 35.8038 13.0127C35.4101 13.4001 34.777 13.3951 34.3896 13.0014L28.1896 6.70143C27.8022 6.30779 27.8073 5.67465 28.2009 5.28726Z" fill="#59CBE8"/>
</svg>
