<svg width="48" height="48" viewBox="0 0 48 48" fill="none" xmlns="http://www.w3.org/2000/svg">
<path fill-rule="evenodd" clip-rule="evenodd" d="M10 7C10 6.44772 10.4477 6 11 6H37C37.5523 6 38 6.44772 38 7V13C38 13.5523 37.5523 14 37 14C36.4477 14 36 13.5523 36 13V8H12V13C12 13.5523 11.5523 14 11 14C10.4477 14 10 13.5523 10 13V7Z" fill="#00CCEA"/>
<path fill-rule="evenodd" clip-rule="evenodd" d="M16 29C16 28.4477 16.4477 28 17 28H31C31.5523 28 32 28.4477 32 29V41C32 41.5523 31.5523 42 31 42C30.4477 42 30 41.5523 30 41V30H18V41C18 41.5523 17.5523 42 17 42C16.4477 42 16 41.5523 16 41V29Z" fill="#FDDA24"/>
<path fill-rule="evenodd" clip-rule="evenodd" d="M37 22C37.5523 22 38 22.4477 38 23V41C38 41.5523 37.5523 42 37 42H24C23.4477 42 23 41.5523 23 41C23 40.4477 23.4477 40 24 40H36V23C36 22.4477 36.4477 22 37 22Z" fill="#00C389"/>
<path fill-rule="evenodd" clip-rule="evenodd" d="M11 22C11.5523 22 12 22.4477 12 23V40H24C24.5523 40 25 40.4477 25 41C25 41.5523 24.5523 42 24 42H11C10.4477 42 10 41.5523 10 41V23C10 22.4477 10.4477 22 11 22Z" fill="#FF7F37"/>
<path fill-rule="evenodd" clip-rule="evenodd" d="M12 14C10.8923 14 10 14.8923 10 16V22H14V14H12ZM16 14V22H20V14H16ZM9 24C8.44772 24 8 23.5523 8 23V16C8 13.7877 9.78772 12 12 12H21C21.5523 12 22 12.4477 22 13V23C22 23.5523 21.5523 24 21 24H9Z" fill="#F5B6CD"/>
<path fill-rule="evenodd" clip-rule="evenodd" d="M27 12C27.5523 12 28 12.4477 28 13V23C28 23.5523 27.5523 24 27 24H21C20.4477 24 20 23.5523 20 23C20 22.4477 20.4477 22 21 22H26V13C26 12.4477 26.4477 12 27 12Z" fill="#9063CD"/>
<path fill-rule="evenodd" clip-rule="evenodd" d="M20 13C20 12.4477 20.4477 12 21 12H27C27.5523 12 28 12.4477 28 13C28 13.5523 27.5523 14 27 14H22V23C22 23.5523 21.5523 24 21 24C20.4477 24 20 23.5523 20 23V13Z" fill="#F5B6CD"/>
<path fill-rule="evenodd" clip-rule="evenodd" d="M26 13C26 12.4477 26.4477 12 27 12H36C38.2123 12 40 13.7877 40 16V23C40 23.5523 39.5523 24 39 24H27C26.4477 24 26 23.5523 26 23V13ZM34 22H38V16C38 14.8923 37.1077 14 36 14H34V22ZM32 14V22H28V14H32Z" fill="#9063CD"/>
</svg>
