<svg width="48" height="48" viewBox="0 0 48 48" fill="none" xmlns="http://www.w3.org/2000/svg">
<path d="M42.0119 18.3112C43.3277 22.4774 43.1586 26.9709 41.5334 31.0265C39.9081 35.0821 36.9272 38.4488 33.0983 40.5533" stroke="#00C389" stroke-width="2.22222" stroke-linecap="round"/>
<path d="M34.2147 39.8887C31.8458 41.4116 29.1664 42.3856 26.3725 42.7393C23.5786 43.093 20.741 42.8175 18.0673 41.933C15.3937 41.0485 12.9516 39.5773 10.9199 37.6272C8.88818 35.6771 7.31824 33.2973 6.32497 30.6621" stroke="#59CBE8" stroke-width="2.22222" stroke-linecap="round"/>
<path d="M6.12752 30.1127C5.32479 27.7656 4.99221 25.2834 5.14877 22.8078C5.30533 20.3323 5.94795 17.9118 7.03996 15.6845C8.13196 13.4573 9.65196 11.467 11.5132 9.82717C13.3744 8.18737 15.5403 6.93023 17.8874 6.1275" stroke="#F5B6CD" stroke-width="2.22222" stroke-linecap="round"/>
<path d="M17.0924 6.41945C19.639 5.41888 22.3725 4.98349 25.1039 5.1434C27.8353 5.3033 30.4994 6.05469 32.9118 7.34557C35.3242 8.63645 37.4274 10.436 39.0758 12.6198C40.7243 14.8035 41.8786 17.3193 42.459 19.9931" stroke="#FDDA24" stroke-width="2.22222" stroke-linecap="round"/>
<path d="M22.9062 11.7774C22.9062 11.1733 23.396 10.6836 24.0001 10.6836C24.6042 10.6836 25.094 11.1733 25.094 11.7774V24.0044C25.094 24.6085 24.6042 25.0982 24.0001 25.0982C23.396 25.0982 22.9062 24.6085 22.9062 24.0043V11.7774Z" fill="#9063CD"/>
<path d="M30.7422 29.1914C31.1693 29.6185 31.1693 30.3111 30.7422 30.7383C30.315 31.1655 29.6224 31.1655 29.1952 30.7383L23.7125 25.2556C23.2854 24.8285 23.2854 24.1359 23.7125 23.7087C24.1397 23.2815 24.8323 23.2815 25.2595 23.7087L30.7422 29.1914Z" fill="#FF7F41"/>
</svg>
