<svg width="48" height="48" viewBox="0 0 48 48" fill="none" xmlns="http://www.w3.org/2000/svg">
<path fill-rule="evenodd" clip-rule="evenodd" d="M23.6212 3.93391C23.8639 3.83453 24.1361 3.83453 24.3788 3.93391L39.3788 10.0739C39.8899 10.2831 40.1347 10.8671 39.9255 11.3782C39.7162 11.8893 39.1323 12.1341 38.6212 11.9248L24 5.93991L10 11.6706V18.9994C10 19.5517 9.55228 19.9994 9 19.9994C8.44772 19.9994 8 19.5517 8 18.9994V10.9994C8 10.5934 8.24545 10.2277 8.62117 10.0739L23.6212 3.93391Z" fill="#00CCEA"/>
<path fill-rule="evenodd" clip-rule="evenodd" d="M9 18C9.55228 18 10 18.4477 10 19V22.3C10 29.3117 13.6393 35.7717 19.5278 39.4306C19.9969 39.7221 20.1409 40.3387 19.8494 40.8078C19.5579 41.2769 18.9413 41.4209 18.4722 41.1294C12.0008 37.1083 8 30.0083 8 22.3V19C8 18.4477 8.44772 18 9 18Z" fill="#F5B6CD"/>
<path fill-rule="evenodd" clip-rule="evenodd" d="M37.8182 29.3558C38.3295 29.5646 38.5747 30.1484 38.3658 30.6597C36.4073 35.4546 32.8378 39.4165 28.2724 41.8629L28.2695 41.8645L24.4695 43.8845C24.176 44.0405 23.8242 44.0405 23.5307 43.8845L19.7181 41.8578C19.6636 41.8278 19.6069 41.7968 19.5484 41.7649C19.2065 41.5785 18.8038 41.3589 18.4354 41.1068C17.9796 40.795 17.8629 40.1726 18.1748 39.7168C18.4867 39.261 19.109 39.1443 19.5648 39.4562C19.8428 39.6464 20.1444 39.8113 20.4895 39.9998C20.5502 40.033 20.6122 40.0669 20.6757 40.1018L24.0001 41.869L27.3278 40.1001C27.3283 40.0998 27.3273 40.1004 27.3278 40.1001C31.4823 37.8734 34.7319 34.267 36.5143 29.9034C36.7232 29.3921 37.307 29.1469 37.8182 29.3558Z" fill="#00C389"/>
<path fill-rule="evenodd" clip-rule="evenodd" d="M38.9978 10C39.55 10 39.9978 10.4477 39.9978 11V22.3C39.9978 25.2102 39.4324 28.0384 38.3637 30.6578C38.155 31.1691 37.5714 31.4145 37.06 31.2059C36.5486 30.9973 36.3032 30.4136 36.5119 29.9022C37.4832 27.5216 37.9978 24.9498 37.9978 22.3V11C37.9978 10.4477 38.4455 10 38.9978 10Z" fill="#FF7F37"/>
<path fill-rule="evenodd" clip-rule="evenodd" d="M24 16C20.134 16 17 19.134 17 23C17 26.866 20.134 30 24 30C27.866 30 31 26.866 31 23C31 19.134 27.866 16 24 16ZM15 23C15 18.0294 19.0294 14 24 14C28.9706 14 33 18.0294 33 23C33 27.9706 28.9706 32 24 32C19.0294 32 15 27.9706 15 23Z" fill="#FDDA24"/>
<path fill-rule="evenodd" clip-rule="evenodd" d="M24 18C24.5523 18 25 18.4477 25 19V23C25 23.5523 24.5523 24 24 24C23.4477 24 23 23.5523 23 23V19C23 18.4477 23.4477 18 24 18Z" fill="#9063CD"/>
</svg>
