<svg width="48" height="48" viewBox="0 0 48 48" fill="none" xmlns="http://www.w3.org/2000/svg">
<path fill-rule="evenodd" clip-rule="evenodd" d="M7 18C6.45228 18 6 18.4523 6 19C6 19.5477 6.45228 20 7 20H11C11.5523 20 12 20.4477 12 21C12 21.5523 11.5523 22 11 22H7C5.34772 22 4 20.6523 4 19C4 17.3477 5.34772 16 7 16H11C11.5523 16 12 16.4477 12 17C12 17.5523 11.5523 18 11 18H7ZM36 17C36 16.4477 36.4477 16 37 16H41C42.6523 16 44 17.3477 44 19C44 20.6523 42.6523 22 41 22H37C36.4477 22 36 21.5523 36 21V17ZM38 18V20H41C41.5477 20 42 19.5477 42 19C42 18.4523 41.5477 18 41 18H38Z" fill="#F5B6CD"/>
<path fill-rule="evenodd" clip-rule="evenodd" d="M12 26C10.8954 26 10 26.8954 10 28C10 29.1046 10.8954 30 12 30C13.1046 30 14 29.1046 14 28C14 26.8954 13.1046 26 12 26ZM8 28C8 25.7909 9.79086 24 12 24C14.2091 24 16 25.7909 16 28C16 30.2091 14.2091 32 12 32C9.79086 32 8 30.2091 8 28Z" fill="#FF7F37"/>
<path fill-rule="evenodd" clip-rule="evenodd" d="M36 26C34.8954 26 34 26.8954 34 28C34 29.1046 34.8954 30 36 30C37.1046 30 38 29.1046 38 28C38 26.8954 37.1046 26 36 26ZM32 28C32 25.7909 33.7909 24 36 24C38.2091 24 40 25.7909 40 28C40 30.2091 38.2091 32 36 32C33.7909 32 32 30.2091 32 28Z" fill="#FF7F37"/>
<path fill-rule="evenodd" clip-rule="evenodd" d="M8 35C8 34.4477 8.44772 34 9 34H17C17.5523 34 18 34.4477 18 35V38C18 40.2123 16.2123 42 14 42H12C9.78772 42 8 40.2123 8 38V35ZM10 36V38C10 39.1077 10.8923 40 12 40H14C15.1077 40 16 39.1077 16 38V36H10ZM31 34C31.5523 34 32 34.4477 32 35V38C32 39.1077 32.8923 40 34 40H36C37.1077 40 38 39.1077 38 38V35C38 34.4477 38.4477 34 39 34C39.5523 34 40 34.4477 40 35V38C40 40.2123 38.2123 42 36 42H34C31.7877 42 30 40.2123 30 38V35C30 34.4477 30.4477 34 31 34Z" fill="#9063CD"/>
<path fill-rule="evenodd" clip-rule="evenodd" d="M11.5936 11.3356C11.9146 9.40987 13.5948 8 15.54 8H32.46C34.4052 8 36.0854 9.40987 36.4064 11.3356L37.9865 20.8359C38.0347 21.1258 37.9529 21.4223 37.7629 21.6465C37.5729 21.8707 37.2939 22 37 22H11C10.7061 22 10.4271 21.8707 10.2371 21.6465C10.0471 21.4223 9.96534 21.1258 10.0136 20.8359L11.5936 11.3356ZM13.5664 11.6643L12.1801 20H35.82L34.4336 11.6644C34.4336 11.6643 34.4336 11.6645 34.4336 11.6644C34.2744 10.7103 33.4347 10 32.46 10H15.54C14.5654 10 13.7256 10.7102 13.5664 11.6643Z" fill="#FDDA24"/>
<path fill-rule="evenodd" clip-rule="evenodd" d="M11 22C8.23228 22 6 24.2323 6 27V34H21.14C21.6923 34 22.14 34.4477 22.14 35C22.14 35.5523 21.6923 36 21.14 36H5C4.44772 36 4 35.5523 4 35V27C4 23.1277 7.12772 20 11 20H37C37.5523 20 38 20.4477 38 21C38 21.5523 37.5523 22 37 22H11Z" fill="#00CCEA"/>
<path fill-rule="evenodd" clip-rule="evenodd" d="M36.0006 21C36.0006 20.4477 36.4483 20 37.0006 20C40.8729 20 44.0006 23.1277 44.0006 27V35C44.0006 35.5523 43.5529 36 43.0006 36H21.1406C20.5883 36 20.1406 35.5523 20.1406 35C20.1406 34.4477 20.5883 34 21.1406 34H42.0006V27C42.0006 24.2323 39.7683 22 37.0006 22C36.4483 22 36.0006 21.5523 36.0006 21Z" fill="#00C389"/>
</svg>
