<svg width="48" height="48" viewBox="0 0 48 48" fill="none" xmlns="http://www.w3.org/2000/svg">
<path fill-rule="evenodd" clip-rule="evenodd" d="M12 11C12 10.4477 12.4477 10 13 10H41C41.3078 10 41.5985 10.1418 41.788 10.3844C41.9776 10.627 42.0448 10.9433 41.9703 11.242L39.6903 20.382C39.5566 20.9179 39.0138 21.2439 38.478 21.1103C37.9421 20.9766 37.6161 20.4338 37.7497 19.898L39.7199 12H13C12.4477 12 12 11.5523 12 11Z" fill="#F5B6CD"/>
<path fill-rule="evenodd" clip-rule="evenodd" d="M38.9628 19.1708C39.4986 19.3049 39.8242 19.848 39.6901 20.3837L35.9701 35.2437C35.8587 35.6887 35.4587 36.0009 35 36.0009H5C4.44772 36.0009 4 35.5531 4 35.0009C4 34.4486 4.44772 34.0009 5 34.0009H34.2195L37.7499 19.898C37.8841 19.3623 38.4271 19.0367 38.9628 19.1708Z" fill="#00C389"/>
<path fill-rule="evenodd" clip-rule="evenodd" d="M22 18C19.7909 18 18 19.7909 18 22C18 24.2091 19.7909 26 22 26C24.2091 26 26 24.2091 26 22C26 19.7909 24.2091 18 22 18ZM16 22C16 18.6863 18.6863 16 22 16C25.3137 16 28 18.6863 28 22C28 25.3137 25.3137 28 22 28C18.6863 28 16 25.3137 16 22Z" fill="#FF7F37"/>
<path fill-rule="evenodd" clip-rule="evenodd" d="M8 17C8 16.4477 8.44772 16 9 16H15C15.5523 16 16 16.4477 16 17C16 17.5523 15.5523 18 15 18H9C8.44772 18 8 17.5523 8 17Z" fill="#FDDA24"/>
<path fill-rule="evenodd" clip-rule="evenodd" d="M4 23C4 22.4477 4.44772 22 5 22H11C11.5523 22 12 22.4477 12 23C12 23.5523 11.5523 24 11 24H5C4.44772 24 4 23.5523 4 23Z" fill="#00CCEA"/>
<path fill-rule="evenodd" clip-rule="evenodd" d="M6 29C6 28.4477 6.44772 28 7 28H13C13.5523 28 14 28.4477 14 29C14 29.5523 13.5523 30 13 30H7C6.44772 30 6 29.5523 6 29Z" fill="#FDDA24"/>
<path fill-rule="evenodd" clip-rule="evenodd" d="M32 15C32 14.4477 32.4477 14 33 14H35.54C35.8479 14 36.1387 14.1419 36.3282 14.3846C36.5177 14.6273 36.5848 14.9438 36.5101 15.2425L32.5101 31.2425C32.3989 31.6877 31.9989 32 31.54 32H29C28.4477 32 28 31.5523 28 31C28 30.4477 28.4477 30 29 30H30.7592L34.2592 16H33C32.4477 16 32 15.5523 32 15Z" fill="#9063CD"/>
</svg>
