<svg width="48" height="48" viewBox="0 0 48 48" fill="none" xmlns="http://www.w3.org/2000/svg">
<path fill-rule="evenodd" clip-rule="evenodd" d="M14 19C14 18.4477 14.4477 18 15 18H43C43.5523 18 44 18.4477 44 19C44 19.5523 43.5523 20 43 20H15C14.4477 20 14 19.5523 14 19Z" fill="#00CCEA"/>
<path fill-rule="evenodd" clip-rule="evenodd" d="M4 19C4 18.4477 4.44772 18 5 18H15C15.5523 18 16 18.4477 16 19C16 19.5523 15.5523 20 15 20H5C4.44772 20 4 19.5523 4 19Z" fill="#9063CD"/>
<path fill-rule="evenodd" clip-rule="evenodd" d="M14 9C14 8.44772 14.4477 8 15 8H33C33.5523 8 34 8.44772 34 9C34 9.55228 33.5523 10 33 10H15C14.4477 10 14 9.55228 14 9Z" fill="#00C389"/>
<path fill-rule="evenodd" clip-rule="evenodd" d="M33.7071 8.29292C33.4116 7.99741 32.9635 7.91683 32.5835 8.09088C32.2036 8.26493 31.9719 8.65689 32.0027 9.07367L33.4113 28.1485L24.2564 38.3315C23.8871 38.7422 23.9207 39.3744 24.3314 39.7437C24.7421 40.1129 25.3744 40.0793 25.7437 39.6686L43.7429 19.6694C44.0991 19.2741 44.0834 18.6692 43.7071 18.2929L33.7071 8.29292ZM41.6216 19.0359L35.2648 26.0908L34.1954 11.6097L41.6216 19.0359Z" fill="#FF7F37"/>
<path fill-rule="evenodd" clip-rule="evenodd" d="M4.32882 18.2587C4.73822 17.888 5.37061 17.9194 5.7413 18.3288L14.416 27.9096L35.2326 26.5023C35.6392 26.4748 36.0219 26.6969 36.1997 27.0636C36.3776 27.4303 36.3151 27.8683 36.0418 28.1706L24.7418 40.6706C24.5522 40.8803 24.2828 41 24.0001 41C23.7173 41 23.4478 40.8804 23.2582 40.6707L13.2587 29.6112L13.2582 29.6107C13.2582 29.6106 13.2581 29.6105 13.258 29.6104L4.25872 19.6712C3.88803 19.2618 3.91942 18.6294 4.32882 18.2587ZM16.1245 29.7987L23.9999 38.5089L32.8992 28.6646L16.1245 29.7987Z" fill="#FDDA24"/>
<path fill-rule="evenodd" clip-rule="evenodd" d="M15.7071 8.29289C16.0976 8.68342 16.0976 9.31658 15.7071 9.70711L6.3779 19.0363L14.7234 28.3111C15.0928 28.7217 15.0594 29.354 14.6489 29.7234C14.2383 30.0928 13.606 30.0594 13.2366 29.6489L4.25663 19.6689C3.90091 19.2735 3.91684 18.6689 4.2929 18.2929L14.2929 8.29289C14.6834 7.90237 15.3166 7.90237 15.7071 8.29289Z" fill="#9063CD"/>
<path fill-rule="evenodd" clip-rule="evenodd" d="M14 18C14 12.4677 18.4677 8 24 8C29.5323 8 34 12.4677 34 18C34 18.5523 33.5523 19 33 19C32.4477 19 32 18.5523 32 18C32 13.5723 28.4277 10 24 10C19.5723 10 16 13.5723 16 18C16 18.5523 15.5523 19 15 19C14.4477 19 14 18.5523 14 18Z" fill="#00C389"/>
<path fill-rule="evenodd" clip-rule="evenodd" d="M15.9954 17.9034C15.9468 17.3965 15.5197 17 15 17C14.4477 17 14 17.4477 14 18C14 18.1669 14.0384 18.3226 14.0565 18.394C14.0813 18.4919 14.1142 18.6002 14.1507 18.7117C14.2241 18.9361 14.3275 19.2199 14.4529 19.5471C14.7045 20.2041 15.0607 21.0785 15.4838 22.0893C16.331 24.113 17.4587 26.7131 18.5844 29.277C19.7105 31.842 20.8363 34.3752 21.6806 36.2669C22.1027 37.2128 22.4545 37.9985 22.7008 38.5478L23.0877 39.4094C23.0877 39.4096 23.0881 39.4104 24 39L23.0877 39.4094C23.2491 39.7683 23.6065 40 24 40C24.3935 40 24.7504 39.7692 24.9119 39.4104L24 39C24.9119 39.4104 24.9118 39.4105 24.9119 39.4104L25.2992 38.5478C25.5455 37.9985 25.8973 37.2128 26.3194 36.2669C27.1637 34.3752 28.2895 31.842 29.4156 29.277C30.5413 26.7131 31.669 24.113 32.5162 22.0893C32.9393 21.0785 33.2955 20.2041 33.5471 19.5471C33.6725 19.2199 33.7759 18.9361 33.8493 18.7117C33.8858 18.6002 33.9187 18.4919 33.9435 18.394C33.9616 18.3226 34 18.1669 34 18C34 17.4477 33.5523 17 33 17C32.4803 17 32.0532 17.3965 32.0046 17.9035C32.0047 17.9031 32.0045 17.9038 32.0046 17.9035C32.0063 17.8967 32.0079 17.8903 32.0088 17.8862C32.0056 17.9043 32 17.9456 32 18C32 17.9674 32.0016 17.9352 32.0046 17.9035C31.9953 17.94 31.9777 18.0004 31.9485 18.0896C31.8901 18.268 31.8002 18.5165 31.6794 18.8318C31.4389 19.46 31.0919 20.3121 30.6713 21.317C29.831 23.3245 28.7087 25.9119 27.5844 28.473C26.4605 31.033 25.3363 33.5623 24.4931 35.4518C24.3153 35.8501 24.1501 36.2198 24 36.5555C23.8499 36.2198 23.6847 35.8501 23.5069 35.4518C22.6637 33.5623 21.5395 31.033 20.4156 28.473C19.2913 25.9119 18.169 23.3245 17.3287 21.317C16.9081 20.3121 16.5611 19.46 16.3206 18.8318C16.1998 18.5165 16.1099 18.268 16.0515 18.0896C16.0223 18.0004 16.0047 17.94 15.9954 17.9034Z" fill="#F5B6CD"/>
</svg>
