<svg width="48" height="48" viewBox="0 0 48 48" fill="none" xmlns="http://www.w3.org/2000/svg">
<path d="M29.5624 13.3715C29.0728 13.116 28.4687 13.3057 28.2132 13.7953L28.6369 15.1445C30.6203 16.1799 32.1989 17.8508 33.1199 19.8898C34.041 21.9288 34.2512 24.2178 33.717 26.3905C33.1827 28.5631 31.9349 30.4936 30.1732 31.8729C28.4116 33.2522 26.2381 34.0005 24.0008 33.998C22.034 33.9957 20.1113 33.4152 18.4719 32.3287C16.8325 31.2422 15.5487 29.6977 14.7801 27.8873C14.5643 27.3789 13.9773 27.1417 13.4689 27.3575C12.9605 27.5733 12.7233 28.1604 12.9391 28.6688C13.8609 30.8402 15.4007 32.6927 17.3671 33.9958C19.3334 35.2989 21.6395 35.9952 23.9985 35.998C26.6836 36.0011 29.2921 35.103 31.4062 33.4477C33.5204 31.7923 35.0179 29.4755 35.6591 26.868C36.3003 24.2606 36.048 21.5135 34.9426 19.0664C33.8372 16.6194 31.9427 14.6141 29.5624 13.3715Z" fill="#9063CD"/>
<path d="M29.5644 13.372C27.7361 12.4132 25.6913 11.9426 23.6278 12.0056L21.3483 14.3565C22.1087 14.1478 22.8943 14.0289 23.6889 14.0047C25.4083 13.9521 27.1121 14.3443 28.6356 15.1432C29.1247 15.3997 29.7291 15.2112 29.9856 14.7221C30.2421 14.233 30.0535 13.6285 29.5644 13.372Z" fill="#59CBE8"/>
<path d="M15.2874 19.0873C16.132 17.5887 17.3491 16.3334 18.8209 15.443C19.6125 14.9641 20.4634 14.5995 21.3483 14.3565L23.6278 12.0056L17.7857 13.7318L13.5451 18.1053L12 23.998L14.2795 21.647C14.495 20.755 14.8332 19.8933 15.2874 19.0873Z" fill="#59CBE8"/>
<path d="M17.7857 13.7318C16.0193 14.8004 14.5587 16.3068 13.5451 18.1053L17.7857 13.7318Z" fill="#59CBE8"/>
<path d="M23.6278 12.0056C21.5643 12.0686 19.5521 12.6632 17.7857 13.7318L23.6278 12.0056Z" fill="#59CBE8"/>
<path d="M13.5451 18.1053C12.5316 19.9037 11.9994 21.9336 12 23.998L13.5451 18.1053Z" fill="#59CBE8"/>
<path d="M14.7806 27.8871C14.2733 26.6913 14 25.3838 14 23.9973C13.9997 23.2023 14.0943 22.4135 14.2795 21.647L12 23.998C12 25.6513 12.3268 27.2241 12.9394 28.6682C13.1551 29.1766 13.7421 29.4139 14.2505 29.1982C14.759 28.9825 14.9963 28.3955 14.7806 27.8871Z" fill="#59CBE8"/>
<path fill-rule="evenodd" clip-rule="evenodd" d="M24 22C22.8954 22 22 22.8954 22 24C22 25.1046 22.8954 26 24 26C25.1046 26 26 25.1046 26 24C26 22.8954 25.1046 22 24 22ZM20 24C20 21.7909 21.7909 20 24 20C26.2091 20 28 21.7909 28 24C28 26.2091 26.2091 28 24 28C21.7909 28 20 26.2091 20 24Z" fill="#F5B6CD"/>
<path fill-rule="evenodd" clip-rule="evenodd" d="M6.5648 16.6129C10.5667 11.3748 16.896 8 23.9994 8C24.5517 8 24.9994 8.44772 24.9994 9C24.9994 9.55228 24.5517 10 23.9994 10C17.5428 10 11.7921 13.0652 8.15406 17.8271C7.81877 18.266 7.19119 18.3499 6.75233 18.0146C6.31347 17.6793 6.22951 17.0518 6.5648 16.6129Z" fill="#F5B6CD"/>
<path fill-rule="evenodd" clip-rule="evenodd" d="M23 8.99999C23 8.4477 23.4477 7.99999 24 8C27.9471 8.00005 31.8214 9.06219 35.2167 11.075C38.612 13.0879 41.4031 15.9772 43.2973 19.4401C43.5624 19.9246 43.3844 20.5323 42.8999 20.7973C42.4154 21.0624 41.8077 20.8844 41.5427 20.3999C39.8207 17.2519 37.2834 14.6253 34.1968 12.7954C31.1102 10.9656 27.5882 10 24 10C23.4477 9.99999 23 9.55227 23 8.99999Z" fill="#FDDA24"/>
<path fill-rule="evenodd" clip-rule="evenodd" d="M41.9376 19.0447C42.4222 18.7797 43.0298 18.9577 43.2948 19.4423C44.0279 20.7827 44.6356 22.2283 45.0764 23.7184C45.1313 23.904 45.1311 24.1015 45.076 24.287C42.3734 33.3793 33.9723 40.0021 23.9974 40.0021C22.0509 40.0021 20.164 39.7508 18.3591 39.2681C17.8255 39.1254 17.5087 38.5772 17.6514 38.0437C17.7941 37.5102 18.3423 37.1933 18.8758 37.336C20.5109 37.7733 22.224 38.0021 23.9974 38.0021C32.9583 38.0021 40.5255 32.1225 43.072 24.0015C42.681 22.7514 42.1601 21.5357 41.5401 20.4019C41.2751 19.9173 41.4531 19.3097 41.9376 19.0447Z" fill="#00C389"/>
<path fill-rule="evenodd" clip-rule="evenodd" d="M7.96853 16.4265C8.40612 16.7634 8.48771 17.3913 8.15077 17.8289C6.74521 19.6543 5.65339 21.7446 4.94427 23.9989C6.99147 30.5099 12.2694 35.5867 18.8932 37.3318C19.4273 37.4725 19.7461 38.0195 19.6054 38.5536C19.4647 39.0876 18.9177 39.4065 18.3837 39.2658C10.9841 37.3163 5.11903 31.5964 2.94008 24.2844C2.88452 24.0979 2.88456 23.8993 2.94019 23.7129C3.71493 21.1164 4.95088 18.7064 6.56611 16.6087C6.90305 16.1711 7.53094 16.0895 7.96853 16.4265Z" fill="#FF7F37"/>
</svg>
