<svg width="1541" height="556" viewBox="0 0 1541 556" fill="none" xmlns="http://www.w3.org/2000/svg">
<rect width="1541" height="556" fill="none"/>
<path d="M1284.85 109.305L1289.85 102.869L1295.12 96.6663C1296.84 94.5671 1298.7 92.5975 1300.56 90.6155L1303.33 87.6416C1304.24 86.6414 1305.17 85.6576 1306.16 84.7232L1311.95 79.0244C1313.89 77.135 1315.96 75.3795 1317.96 73.5498L1320.98 70.8352L1324.11 68.2461C1326.21 66.54 1328.27 64.7803 1330.4 63.1194C1338.96 56.4759 1347.97 50.4292 1357.3 44.8909C1366.71 39.4925 1376.48 34.7157 1386.56 30.6181C1396.7 26.6521 1407.17 23.4621 1417.86 21.1344C1428.58 18.8437 1439.56 17.6912 1450.59 17.5245C1461.62 17.3001 1472.73 18.5535 1483.57 20.9347C1489.03 21.9988 1494.33 23.7667 1499.63 25.442L1507.41 28.4818C1508.72 28.9551 1509.98 29.5643 1511.23 30.1776L1514.99 31.9929" stroke="#9062CD" stroke-width="12" stroke-linecap="round"/>
<path d="M1174.78 304.918L1282.26 160.64L1309.12 124.652C1317.73 113.295 1327.62 102.83 1338.44 93.3896C1360.1 74.521 1385.44 59.6596 1412.51 49.968" stroke="#FDDA23" stroke-width="25" stroke-linecap="round"/>
<path d="M28.4731 357.351C91.0917 264.282 229.475 218.091 335.083 256.422C381.711 273.346 422.516 303.014 460.298 334.558" stroke="#FF7E41" stroke-width="25" stroke-linecap="round"/>
<path d="M241.606 224.708C261.684 222.388 281.996 222.707 301.88 225.764L305.611 226.309C306.856 226.492 308.083 226.768 309.319 226.994L316.726 228.425L324.058 230.178L327.721 231.073L331.345 232.121C341.054 234.745 350.495 238.289 359.793 242.121C364.388 244.175 369.017 246.155 373.476 248.51C378.02 250.691 382.374 253.241 386.763 255.721C388.963 256.948 391.051 258.378 393.2 259.699C395.329 261.054 397.491 262.356 399.531 263.851L405.73 268.206C407.756 269.654 409.631 271.081 411.589 272.517L458.112 306.961L551.155 375.848L597.678 410.292L609.309 418.901C613.18 421.737 617.081 424.742 620.909 427.354L632.432 435.446L644.343 442.94" stroke="#FDDA23" stroke-width="14.981" stroke-linecap="round"/>
<path d="M959.003 469.934C966.634 467.201 973.952 463.709 981.389 460.508C985.043 458.771 988.643 456.913 992.275 455.124L997.711 452.414L1003.01 449.444C1006.53 447.448 1010.09 445.525 1013.58 443.471L1023.87 437.027C1027.35 434.951 1030.63 432.574 1033.96 430.267L1038.94 426.799C1040.6 425.644 1042.28 424.508 1043.85 423.236L1053.46 415.815L1055.87 413.962L1058.18 411.995L1062.79 408.049L1067.41 404.108C1068.17 403.446 1068.96 402.808 1069.71 402.126L1071.91 400.041L1080.73 391.706C1092.15 380.257 1103.19 368.363 1112.97 355.463C1117.96 349.221 1122.9 342.407 1127.86 335.749L1142.71 315.715L1172.42 275.648L1231.84 195.512" stroke="#FF7E41" stroke-width="15" stroke-linecap="round"/>
<path d="M540.382 395.27L593.469 434.886L600.106 439.837L607.023 444.752C611.669 447.996 616.204 451.406 621.058 454.337L628.234 458.887L631.825 461.159C633.012 461.931 634.276 462.575 635.498 463.287C640.443 466.049 645.327 468.92 650.321 471.584C690.386 492.735 734.294 506.306 779.116 511.679" stroke="#9062CD" stroke-width="25" stroke-linecap="round"/>
</svg>
