<svg width="1967" height="556" viewBox="0 0 1967 556" fill="none" xmlns="http://www.w3.org/2000/svg">
<rect width="1967" height="556" fill="none"/>
  <path id="svg_2" stroke-linecap="round" stroke-width="12" stroke="#9062CD" d="m540.421,211.49936l2.097,-2.6988l2.212,-2.6013c0.723,-0.8803 1.504,-1.7063 2.281,-2.5374l1.163,-1.2471c0.384,-0.4195 0.776,-0.832 1.187,-1.2239l2.432,-2.3898c0.815,-0.7923 1.681,-1.5285 2.52,-2.2958l1.267,-1.1384l1.314,-1.0857c0.882,-0.7155 1.745,-1.4534 2.643,-2.1499c3.592,-2.786 7.372,-5.3217 11.284,-7.6442c3.949,-2.2639 8.049,-4.2671 12.28,-5.9854c4.256,-1.6632 8.648,-3.00093 13.136,-3.97706c4.496,-0.9606 9.106,-1.44392 13.733,-1.51382c4.631,-0.09408 9.291,0.43153 13.841,1.4301c2.291,0.44621 4.513,1.18759 6.738,1.89013l3.267,1.27475c0.55,0.1985 1.076,0.454 1.6,0.7112l1.579,0.7612"/>
  <path id="svg_3" stroke-linecap="round" stroke-width="25" stroke="#FDDA23" d="m494.23,293.4144l45.104,-60.5036l11.27,-15.0917c3.614,-4.7624 7.764,-9.1511 12.305,-13.11c9.088,-7.9126 19.724,-14.1449 31.082,-18.2091"/>
  <path id="svg_4" stroke-linecap="round" stroke-width="25" stroke="#FF7E41" d="m13.1985,315.49191c26.2771,-39.029 84.3479,-58.3993 128.6645,-42.325c19.567,7.097 36.69,19.539 52.545,32.767"/>
  <path id="svg_5" stroke-linecap="round" stroke-width="14.981" stroke="#FDDA23" d="m102.637,259.12834c8.425,-0.9727 16.949,-0.8389 25.293,0.4428l1.566,0.2287c0.522,0.0768 1.037,0.1924 1.556,0.2874l3.108,0.5998l3.077,0.7353l1.537,0.3755l1.521,0.4393c4.074,1.1004 8.036,2.5866 11.938,4.1936c1.928,0.861 3.87,1.692 5.742,2.679c1.906,0.915 3.733,1.984 5.575,3.024c0.923,0.515 1.799,1.114 2.701,1.669c0.894,0.567 1.801,1.114 2.657,1.74l2.601,1.827c0.85,0.607 1.637,1.205 2.459,1.808l19.523,14.444l39.044,28.888l19.523,14.444l4.881,3.61c1.624,1.19 3.261,2.45 4.867,3.545l4.836,3.394l4.998,3.142"/>
  <path id="svg_6" stroke-linecap="round" stroke-width="15" stroke="#FF7E41" d="m403.683,362.5806c3.202,-1.147 6.273,-2.611 9.394,-3.953c1.534,-0.729 3.044,-1.508 4.568,-2.258l2.281,-1.137l2.223,-1.245c1.477,-0.837 2.974,-1.643 4.437,-2.505l4.319,-2.702c1.461,-0.871 2.836,-1.868 4.232,-2.835l2.09,-1.455c0.699,-0.484 1.402,-0.96 2.063,-1.494l4.032,-3.112l1.009,-0.777l0.97,-0.825l1.935,-1.654l1.937,-1.653c0.321,-0.278 0.651,-0.545 0.965,-0.831l0.925,-0.874l3.703,-3.496c4.792,-4.801 9.422,-9.789 13.526,-15.198c2.097,-2.618 4.169,-5.476 6.249,-8.268l6.233,-8.401l12.468,-16.802l24.935,-33.6056"/>
  <path id="svg_7" stroke-linecap="round" stroke-width="25" stroke="#9062CD" d="m228.014,331.5l22.278,16.614l2.785,2.076l2.902,2.061c1.95,1.36 3.853,2.791 5.89,4.02l3.011,1.908l1.507,0.953c0.498,0.323 1.029,0.593 1.542,0.892c2.074,1.158 4.124,2.362 6.22,3.479c16.812,8.87 35.238,14.561 54.047,16.814"/>
  <path id="svg_8" stroke-linecap="round" stroke-width="12" stroke="#9062CD" d="m1426.58,211.128l-2.1,-2.699l-2.21,-2.601c-0.72,-0.881 -1.5,-1.706 -2.28,-2.538l-1.16,-1.247c-0.39,-0.419 -0.78,-0.832 -1.19,-1.224l-2.43,-2.389c-0.82,-0.793 -1.68,-1.529 -2.52,-2.296l-1.27,-1.139l-1.31,-1.085c-0.89,-0.716 -1.75,-1.454 -2.65,-2.15c-3.59,-2.786 -7.37,-5.322 -11.28,-7.644c-3.95,-2.264 -8.05,-4.267 -12.28,-5.986c-4.26,-1.663 -8.65,-3.001 -13.14,-3.977c-4.49,-0.96 -9.1,-1.444 -13.73,-1.514c-4.63,-0.094 -9.29,0.432 -13.84,1.43c-2.29,0.447 -4.51,1.188 -6.74,1.891l-3.27,1.274c-0.55,0.199 -1.07,0.454 -1.6,0.711l-1.57,0.762"/>
  <path id="svg_9" stroke-linecap="round" stroke-width="25" stroke="#FDDA23" d="m1472.77,293.159l-45.1,-60.504l-11.27,-15.091c-3.62,-4.763 -7.77,-9.151 -12.31,-13.11c-9.09,-7.913 -19.72,-14.145 -31.08,-18.209"/>
  <path id="svg_10" stroke-linecap="round" stroke-width="25" stroke="#FF7E41" d="m1953.8,315.147c-26.28,-39.029 -84.35,-58.399 -128.66,-42.325c-19.57,7.097 -36.69,19.539 -52.55,32.767"/>
  <path id="svg_11" stroke-linecap="round" stroke-width="14.981" stroke="#FDDA23" d="m1864.36,259.523c-8.42,-0.973 -16.95,-0.839 -25.29,0.442l-1.57,0.229c-0.52,0.077 -1.03,0.193 -1.55,0.287l-3.11,0.6l-3.08,0.736l-1.53,0.375l-1.52,0.439c-4.08,1.101 -8.04,2.587 -11.94,4.194c-1.93,0.861 -3.87,1.692 -5.74,2.679c-1.91,0.915 -3.74,1.984 -5.58,3.024c-0.92,0.515 -1.8,1.114 -2.7,1.669c-0.89,0.567 -1.8,1.114 -2.66,1.74l-2.6,1.827c-0.85,0.607 -1.64,1.205 -2.46,1.808l-19.52,14.444l-39.05,28.888l-19.52,14.444l-4.88,3.61c-1.62,1.19 -3.26,2.45 -4.87,3.545l-4.83,3.394l-5,3.142"/>
  <path id="svg_12" stroke-linecap="round" stroke-width="15" stroke="#FF7E41" d="m1563.32,362.36c-3.21,-1.147 -6.28,-2.611 -9.4,-3.953c-1.53,-0.729 -3.04,-1.508 -4.57,-2.258l-2.28,-1.137l-2.22,-1.245c-1.48,-0.837 -2.97,-1.643 -4.44,-2.505l-4.32,-2.702c-1.46,-0.871 -2.83,-1.868 -4.23,-2.835l-2.09,-1.455c-0.7,-0.484 -1.4,-0.96 -2.06,-1.494l-4.03,-3.112l-1.01,-0.777l-0.97,-0.825l-1.94,-1.654l-1.93,-1.653c-0.32,-0.278 -0.65,-0.545 -0.97,-0.831l-0.92,-0.874l-3.71,-3.496c-4.79,-4.801 -9.42,-9.789 -13.52,-15.198c-2.1,-2.618 -4.17,-5.476 -6.25,-8.268l-6.23,-8.401l-12.47,-16.802l-24.94,-33.606"/>
  <path id="svg_13" stroke-linecap="round" stroke-width="25" stroke="#9062CD" d="m1738.99,331.048l-22.28,16.614l-2.79,2.076l-2.9,2.061c-1.95,1.36 -3.85,2.791 -5.89,4.02l-3.01,1.908l-1.51,0.953c-0.5,0.323 -1.03,0.593 -1.54,0.892c-2.07,1.158 -4.12,2.362 -6.22,3.479c-16.81,8.87 -35.24,14.561 -54.05,16.814"/>

</svg>