<svg width="998" height="1019" viewBox="0 0 998 1019" fill="none" xmlns="http://www.w3.org/2000/svg">
<path d="M528.424 637.449C527.138 637.452 525.864 637.199 524.676 636.704C523.488 636.209 522.411 635.483 521.507 634.568L372.572 485.704C371.661 484.793 370.939 483.713 370.446 482.523C369.953 481.334 369.699 480.059 369.699 478.771C369.699 477.484 369.953 476.209 370.446 475.019C370.939 473.83 371.661 472.749 372.572 471.838C373.483 470.928 374.564 470.206 375.754 469.713C376.944 469.22 378.219 468.967 379.507 468.967C380.795 468.967 382.07 469.22 383.26 469.713C384.45 470.206 385.532 470.928 386.442 471.838L535.378 620.703C536.749 622.076 537.682 623.825 538.059 625.729C538.436 627.632 538.241 629.605 537.496 631.397C536.752 633.19 535.493 634.721 533.878 635.798C532.264 636.876 530.366 637.45 528.424 637.449Z" fill="#F5B6CD"/>
<path d="M591.903 612.239C590.615 612.243 589.339 611.992 588.149 611.5C586.959 611.009 585.877 610.287 584.967 609.376L398.24 422.643C396.401 420.805 395.367 418.311 395.367 415.711C395.367 413.11 396.401 410.617 398.24 408.778C400.079 406.939 402.574 405.906 405.175 405.906C407.776 405.906 410.271 406.939 412.11 408.778L598.838 595.421C600.208 596.793 601.141 598.541 601.519 600.443C601.896 602.344 601.702 604.316 600.96 606.107C600.218 607.899 598.962 609.43 597.35 610.509C595.738 611.588 593.842 612.165 591.903 612.167V612.239Z" fill="#00C389"/>
<path d="M617.178 548.728C615.888 548.733 614.611 548.48 613.42 547.985C612.229 547.491 611.149 546.764 610.242 545.847L461.307 396.983C459.544 395.127 458.576 392.655 458.61 390.096C458.644 387.536 459.677 385.091 461.489 383.282C463.301 381.473 465.748 380.444 468.309 380.413C470.87 380.382 473.341 381.353 475.196 383.118L624.113 531.982C625.483 533.354 626.416 535.102 626.794 537.004C627.171 538.906 626.977 540.877 626.235 542.668C625.493 544.46 624.237 545.992 622.625 547.07C621.013 548.149 619.117 548.726 617.178 548.728Z" fill="#F5B6CD"/>
<path d="M766.652 393.653C765.363 393.654 764.087 393.4 762.896 392.905C761.706 392.411 760.625 391.686 759.717 390.772L617.861 249.02C616.95 248.11 616.228 247.029 615.735 245.839C615.242 244.65 614.988 243.375 614.988 242.088C614.988 240.8 615.242 239.525 615.735 238.336C616.228 237.146 616.95 236.065 617.861 235.155C618.772 234.244 619.853 233.522 621.043 233.029C622.233 232.537 623.508 232.283 624.796 232.283C626.084 232.283 627.359 232.537 628.549 233.029C629.739 233.522 630.821 234.244 631.731 235.155L773.533 376.906C774.904 378.279 775.836 380.026 776.214 381.928C776.592 383.83 776.397 385.801 775.655 387.593C774.913 389.384 773.657 390.916 772.045 391.995C770.433 393.073 768.538 393.65 766.598 393.653H766.652Z" fill="#59CBE8"/>
<path d="M373.311 786.907C372.022 786.911 370.745 786.659 369.554 786.164C368.363 785.669 367.283 784.943 366.376 784.026L224.556 642.257C223.646 641.346 222.923 640.265 222.43 639.076C221.937 637.886 221.684 636.611 221.684 635.324C221.684 634.036 221.937 632.761 222.43 631.572C222.923 630.382 223.646 629.302 224.556 628.391C225.467 627.481 226.548 626.759 227.738 626.266C228.928 625.773 230.203 625.52 231.491 625.52C232.779 625.52 234.055 625.773 235.245 626.266C236.435 626.759 237.516 627.481 238.427 628.391L380.247 770.161C381.617 771.533 382.55 773.281 382.927 775.182C383.305 777.084 383.111 779.056 382.369 780.847C381.627 782.639 380.371 784.17 378.759 785.249C377.147 786.327 375.251 786.905 373.311 786.907Z" fill="#9063CD"/>
<path d="M352.344 640.205C356.667 641.093 361.038 642.023 365.458 642.996C362.035 627.438 358.252 611.934 354.884 596.7C350.585 595.895 346.273 595.139 341.95 594.431L340.707 594.233C336.624 593.584 332.523 592.984 328.404 592.432H327.773C276.021 585.967 224.034 591.081 180.784 634.316C178.773 636.326 177.178 638.713 176.09 641.339C175.001 643.965 174.441 646.78 174.441 649.622C174.441 652.465 175.001 655.28 176.09 657.906C177.178 660.532 178.773 662.918 180.784 664.928C182.794 666.938 185.181 668.533 187.809 669.621C190.436 670.708 193.251 671.268 196.095 671.268C198.939 671.268 201.754 670.708 204.382 669.621C207.009 668.533 209.396 666.938 211.406 664.928C246.371 629.959 289.441 629.022 338.582 637.648C342.713 638.368 346.88 639.154 351.083 640.007L352.344 640.205Z" fill="#FDDA24"/>
<path d="M654.432 221.973C658.492 217.914 660.774 212.408 660.774 206.667C660.774 200.927 658.492 195.421 654.432 191.361C650.371 187.302 644.863 185.021 639.12 185.021C633.377 185.021 627.869 187.302 623.809 191.361C503.118 312.009 678.552 492.079 580.072 590.559C538.515 632.102 485.537 625.619 424.508 612.168C421.211 611.448 417.915 610.709 414.582 609.935L411.718 609.287L403.072 607.288L401.559 606.928C403.9 616.994 406.224 627.06 408.386 637.162C408.728 638.764 409.088 640.367 409.412 641.969C410.217 645.835 410.992 649.719 411.736 653.62C415.591 654.484 419.482 655.331 423.373 656.141L424.093 656.303C427.948 657.113 431.803 657.87 435.676 658.608L436.217 658.716C496.724 670.186 559.735 672.113 610.659 621.207C731.619 500.254 555.988 320.382 654.432 221.973Z" fill="#FDDA24"/>
<path d="M584.971 409.461L596.428 412.108C592.825 396.64 589.222 380.776 586.25 365.434C582.197 364.515 578.108 363.633 574.019 362.787H573.677C569.726 361.958 565.763 361.166 561.788 360.41L561.175 360.284C500.776 348.849 438.089 347.102 387.291 397.846C266.925 518.169 441.674 698.96 343.573 797.026C339.512 801.086 337.23 806.591 337.23 812.332C337.23 818.073 339.512 823.579 343.573 827.638C347.634 831.698 353.141 833.978 358.884 833.978C364.627 833.978 370.135 831.697 374.196 827.638C495.552 706.271 318.84 527.389 417.914 428.422C459.111 387.24 511.584 393.254 571.929 406.526L583.116 409.047L584.971 409.461Z" fill="#FF7F41"/>
<path d="M817.236 354.127C815.228 352.113 812.841 350.514 810.214 349.424C807.586 348.333 804.769 347.771 801.924 347.771C799.079 347.771 796.262 348.333 793.635 349.424C791.008 350.514 788.621 352.113 786.613 354.127C750.82 389.907 706.543 390.141 655.961 380.777C652.287 380.105 648.588 379.391 644.865 378.635L644.433 378.545C640.488 377.734 636.525 376.888 632.508 376.006C635.966 391.708 639.713 407.014 643.1 422.302C646.558 422.95 650.017 423.562 653.439 424.102L655.781 424.499C658.555 424.949 661.311 425.363 664.067 425.741L666.841 426.155C723.98 433.754 774.922 427.001 817.2 384.739C819.217 382.734 820.819 380.35 821.913 377.725C823.007 375.1 823.572 372.284 823.576 369.44C823.579 366.596 823.021 363.78 821.933 361.152C820.845 358.524 819.249 356.137 817.236 354.127Z" fill="#FF7F41"/>
<path d="M352.164 435.644C348.948 435.646 345.8 434.715 343.103 432.964C340.406 431.212 338.276 428.715 336.971 425.777C335.666 422.838 335.243 419.584 335.753 416.41C336.263 413.236 337.683 410.278 339.842 407.895C342.184 405.32 398.224 344.42 481.248 341.017C485.59 340.932 489.792 342.55 492.955 345.525C496.117 348.5 497.988 352.594 498.168 356.932C498.347 361.269 496.819 365.504 493.912 368.729C491.006 371.954 486.951 373.913 482.617 374.186C413.355 377.031 364.953 429.647 364.485 430.188C362.927 431.908 361.026 433.283 358.903 434.223C356.781 435.162 354.485 435.647 352.164 435.644Z" fill="#9063CD"/>
<path d="M575.962 673.175C529.001 693.307 489.93 692.821 472.565 691.182C470.006 690.966 467.515 690.244 465.237 689.058C462.959 687.872 460.938 686.247 459.293 684.275C457.648 682.304 456.41 680.026 455.651 677.573C454.893 675.12 454.629 672.541 454.874 669.985C455.119 667.429 455.87 664.948 457.081 662.684C458.293 660.42 459.941 658.419 461.932 656.796C463.922 655.174 466.215 653.962 468.677 653.231C471.139 652.5 473.722 652.265 476.276 652.539C494.848 654.34 544.078 654.34 599.956 615.661C604.191 612.731 609.417 611.603 614.485 612.525C619.552 613.447 624.045 616.343 626.976 620.577C629.907 624.811 631.036 630.035 630.114 635.1C629.191 640.166 626.294 644.657 622.059 647.587C607.587 657.635 592.145 666.207 575.962 673.175Z" fill="#59CBE8"/>
</svg>
