<svg width="89" height="59" viewBox="0 0 89 59" fill="none" xmlns="http://www.w3.org/2000/svg">
<rect width="89" height="59" fill="white"/>
<path d="M49.5608 24.3444C50.1893 24.0992 51.2618 23.2763 51.2618 21.688C51.2618 20.5753 50.8027 19.9252 50.0425 19.4794C49.2597 19.0335 48.3509 19.002 47.1184 19.002H41.5674V28.9717H43.9835V25.3475H46.5708C47.4401 25.3475 47.9783 25.4237 48.3302 25.7729C48.7686 26.2522 48.7103 27.1141 48.7103 27.7141L48.7215 28.9717H51.1564V27.0119C51.1564 26.1221 51.0981 25.68 50.7556 25.184C50.5411 24.8924 50.0895 24.5432 49.5608 24.3444ZM48.1081 23.0887C47.7732 23.2874 47.3818 23.293 46.9132 23.293H43.9797L43.9816 21.0806H46.9546C47.3724 21.0806 47.8127 21.101 48.0987 21.2608C48.4111 21.4057 48.6049 21.714 48.6049 22.1413C48.6049 22.576 48.4186 22.9271 48.1081 23.0887Z" fill="#2E6FC9"/>
<path d="M55.1294 19.0039H52.6663V28.9736H55.1294V19.0039Z" fill="#2E6FC9"/>
<path d="M81.2271 19.0039V25.9476L76.982 19.0039H73.3071V28.4331L69.2201 19.0039H65.6054L62.1958 26.843H61.1138C60.4834 26.843 59.8022 26.7241 59.4316 26.3284C58.9781 25.8269 58.7673 25.056 58.7673 23.9897C58.7673 22.942 59.0477 22.1507 59.4598 21.7309C59.9377 21.2702 60.4326 21.1401 61.3189 21.1401H63.6051V19.0039H61.27C59.6066 19.0039 58.3816 19.3699 57.6044 20.1649C56.5695 21.233 56.3042 22.5854 56.3042 24.064C56.3042 25.8752 56.7483 27.0232 57.5988 27.8702C58.438 28.7154 59.9227 28.9718 61.0987 28.9736H63.925L64.832 26.7501H69.8448L70.7856 28.9736H75.6987V21.4912L80.2787 28.9736H83.6959V19.0039H81.2271V19.0039ZM65.6957 24.6696L67.3534 20.6962L69.0263 24.6696H65.6957Z" fill="#2E6FC9"/>
<path d="M26.0119 19L23.1123 25.7635L19.9529 19H16.0127V28.4403L11.905 19H8.32223L4 28.9697H6.62118L7.55826 26.7462H12.5824L13.51 28.9697H18.4212V21.1548L21.9268 28.9679L24.0512 28.9697L27.5511 21.1622L27.5606 28.9697H30.035V19H26.0119V19ZM8.41819 24.6694L10.059 20.696L11.7093 24.6694H8.41819Z" fill="#2E6FC9"/>
<path d="M39.8924 21.0768V19H31.8313V28.9716H39.8924V26.9096H34.2436V24.9164H39.7588V22.8749H34.2436V21.0768H39.8924Z" fill="#2E6FC9"/>
<path d="M61.3257 22.7837C60.7574 22.7819 60.6991 22.8413 60.6294 22.9063C60.6069 22.9379 60.4375 23.2964 60.4375 23.9875C60.4375 24.671 60.5485 24.9998 60.6294 25.1485C60.7141 25.1707 60.8703 25.1968 61.1036 25.1968L62.1498 22.7837H61.3257Z" fill="#2E6FC9"/>
<path d="M64.1908 34.0888V32.0269H56.1372V41.9984H64.1908V39.9309L58.5382 39.9179V37.9377H64.0516V35.9018H58.5382V34.0888H64.1908Z" fill="#2E6FC9"/>
<path d="M39.8788 32.0303H32.1677L29.0968 35.2959L26.1237 32.0303H16.418V42H25.9788L29.0685 38.6991L32.0416 42H36.7326V38.6563H39.7433C41.8527 38.6563 43.9451 38.0842 43.9451 35.3145C43.9451 32.5541 41.7944 32.0266 39.8788 32.0303ZM24.7576 39.9251H18.8265V37.9412H24.1235V35.9052H18.8265V34.0922H24.8761L27.5161 36.9956L24.7576 39.9251ZM34.3278 41.0935L30.6209 37.0291L34.3278 33.0984V41.0935ZM39.8487 36.6278H36.7326V34.0885H39.8788C40.7519 34.0885 41.354 34.4396 41.354 35.3127C41.354 36.1764 40.7782 36.6316 39.8487 36.6278Z" fill="#2E6FC9"/>
<path d="M53.0873 37.3637C53.7195 37.1148 54.7977 36.3049 54.8015 34.7092C54.8015 33.5724 54.3217 32.9482 53.5633 32.495C52.7655 32.077 51.8774 32.0269 50.6561 32.0269H45.0845V41.9966H47.5081V38.3557H50.086C50.9666 38.3557 51.5029 38.4411 51.8567 38.7978C52.3045 39.2622 52.2462 40.1501 52.2462 40.7501V41.9966H54.6679V40.0201C54.6604 39.1415 54.6114 38.6882 54.2671 38.2015C54.0639 37.9136 53.6217 37.5569 53.0873 37.3637ZM51.6327 36.1247C51.3091 36.3142 50.9083 36.3309 50.4379 36.3309H47.5043V34.0906H50.4774C50.9026 34.0906 51.3354 34.0999 51.629 34.2708C51.9413 34.4324 52.1276 34.7427 52.1276 35.1681C52.1276 35.5934 51.9413 35.9408 51.6327 36.1247Z" fill="#2E6FC9"/>
<path d="M73.4145 36.7339C72.8594 36.1915 71.96 35.9686 70.6504 35.9389L69.3539 35.9017C68.9418 35.9017 68.6708 35.8757 68.413 35.7884C68.1101 35.6751 67.8862 35.4224 67.8862 35.0454C67.8862 34.7296 67.984 34.4899 68.2512 34.3265C68.4921 34.1649 68.7762 34.1463 69.2184 34.1463H73.6441V32.0249H68.8082C66.2754 32.0249 65.3572 33.5444 65.3572 34.9933C65.3572 38.1457 68.1853 38.0045 70.4396 38.0769C70.863 38.0769 71.1151 38.1457 71.2995 38.298C71.4689 38.4392 71.5931 38.6658 71.5931 38.9574C71.5931 39.2287 71.4764 39.4553 71.3108 39.6076C71.1076 39.7971 70.7821 39.8547 70.3267 39.8547H65.6451V41.9928H70.3455C72.7785 41.9928 74.139 40.9915 74.139 38.846C74.139 37.8225 73.885 37.2132 73.4145 36.7339Z" fill="#2E6FC9"/>
<path d="M83.2756 36.7339C82.7243 36.1915 81.823 35.9686 80.5133 35.9389L79.215 35.9017C78.8066 35.9017 78.5338 35.8757 78.2741 35.7884C77.9749 35.6751 77.7491 35.4224 77.7491 35.0454C77.7491 34.7296 77.847 34.4899 78.1123 34.3265C78.355 34.1649 78.641 34.1463 79.0814 34.1463H83.509V32.0249H78.6693C76.1403 32.0249 75.2183 33.5444 75.2183 34.9933C75.2183 38.1457 78.0483 38.0045 80.3045 38.0769C80.726 38.0769 80.9762 38.1457 81.1644 38.298C81.33 38.4392 81.456 38.6658 81.456 38.9574C81.456 39.2287 81.3375 39.4553 81.1757 39.6076C80.9706 39.7971 80.645 39.8547 80.1897 39.8547H75.5099V41.9928H80.2104C82.6434 41.9928 84.0001 40.9915 84.0001 38.846C84.0001 37.8225 83.7498 37.2132 83.2756 36.7339Z" fill="#2E6FC9"/>
</svg>
