<svg width="1080" height="1080" viewBox="0 0 1080 1080" fill="none" xmlns="http://www.w3.org/2000/svg">
<path d="M280.469 379.555C282.574 414.693 295.528 456.932 295.528 567.067C295.528 704.057 284.517 790.203 280.469 856.593" stroke="#9063CD" stroke-width="7.423"/>
<path d="M302.329 389.081C302.329 391.332 292.324 393.156 279.983 393.156C267.641 393.156 257.637 391.332 257.637 389.081C257.637 386.831 279.983 358.18 279.983 358.18C279.983 358.18 302.329 386.831 302.329 389.081Z" fill="#9063CD"/>
<ellipse cx="291.367" cy="223.131" rx="147.676" ry="147.678" fill="#9063CD"/>
<path d="M429.914 401.898C431.857 431.369 423.307 509.742 373.563 587.467C311.383 684.624 278.836 786.638 281.75 847.361" stroke="#59CBE8" stroke-width="7.423"/>
<path d="M452.747 424.058C452.747 426.308 442.742 428.133 430.401 428.133C418.059 428.133 408.055 426.308 408.055 424.058C408.055 421.807 430.401 393.156 430.401 393.156C430.401 393.156 452.747 421.807 452.747 424.058Z" fill="#59CBE8"/>
<ellipse cx="441.57" cy="258.107" rx="147.676" ry="147.678" fill="#59CBE8"/>
<path d="M240.945 484.48C240.946 621.471 302.154 700.654 277.378 824.042" stroke="#FDDA24" stroke-width="7.423"/>
<path d="M262.317 492.065C262.317 494.316 252.312 496.14 239.971 496.14C227.63 496.14 217.625 494.316 217.625 492.065C217.625 489.815 239.971 461.164 239.971 461.164C239.971 461.164 262.317 489.815 262.317 492.065Z" fill="#FDDA24"/>
<ellipse cx="243.934" cy="327.088" rx="147.676" ry="147.678" fill="#FDDA24"/>
<rect x="424.922" y="706.059" width="503.364" height="232.806" fill="#F5B6CD"/>
<ellipse cx="676.604" cy="706.058" rx="251.682" ry="44.0443" fill="#F5B6CD"/>
<ellipse cx="676.604" cy="938.865" rx="251.682" ry="44.0443" fill="#F5B6CD"/>
<path d="M332.869 922.999C332.869 942.567 278.864 958.43 212.245 958.43C145.626 958.43 91.6211 942.567 91.6211 922.999C91.6211 903.431 212.245 654.314 212.245 654.314C212.245 654.314 332.869 903.431 332.869 922.999Z" fill="#FDDA24"/>
<ellipse cx="676.603" cy="706.059" rx="205.54" ry="25.1682" fill="white"/>
<circle cx="676.936" cy="882.067" r="32.5089" fill="#9063CD" stroke="#9063CD" stroke-width="2.09735"/>
<path d="M950.978 861.093C950.978 879.261 939.048 893.602 924.762 893.602C910.475 893.602 898.545 879.261 898.545 861.093C898.545 842.925 910.475 828.584 924.762 828.584C939.048 828.584 950.978 842.925 950.978 861.093Z" fill="#9063CD" stroke="#9063CD" stroke-width="2.09735"/>
<path d="M455.33 861.093C455.33 879.261 443.399 893.602 429.113 893.602C414.827 893.602 402.896 879.261 402.896 861.093C402.896 842.925 414.827 828.584 429.113 828.584C443.399 828.584 455.33 842.925 455.33 861.093Z" fill="#9063CD" stroke="#9063CD" stroke-width="2.09735"/>
<rect x="766.789" y="563.438" width="35.6549" height="138.425" fill="#FF7F41"/>
<rect x="659.824" y="563.438" width="35.6549" height="138.425" fill="#FF7F41"/>
<rect x="552.859" y="563.438" width="35.6549" height="138.425" fill="#FF7F41"/>
<ellipse cx="784.617" cy="563.438" rx="17.8275" ry="8.38939" fill="#FF7F41"/>
<ellipse cx="677.652" cy="563.438" rx="17.8275" ry="8.38939" fill="#FF7F41"/>
<ellipse cx="570.687" cy="563.438" rx="17.8275" ry="8.38939" fill="#FF7F41"/>
<ellipse cx="784.617" cy="701.862" rx="17.8275" ry="8.38939" fill="#FF7F41"/>
<ellipse cx="677.652" cy="701.862" rx="17.8275" ry="8.38939" fill="#FF7F41"/>
<ellipse cx="570.687" cy="701.862" rx="17.8275" ry="8.38939" fill="#FF7F41"/>
<path d="M810.832 502.613C810.832 526.733 799.296 540.366 783.566 540.366C767.836 540.366 756.301 526.733 756.301 502.613C756.301 478.494 783.566 450.18 783.566 450.18C783.566 450.18 810.832 478.494 810.832 502.613Z" fill="#FDDA24"/>
<path d="M703.867 502.613C703.867 526.733 692.332 540.366 676.601 540.366C660.871 540.366 649.336 526.733 649.336 502.613C649.336 478.494 676.601 450.18 676.601 450.18C676.601 450.18 703.867 478.494 703.867 502.613Z" fill="#FDDA24"/>
<path d="M596.902 502.613C596.902 526.733 585.367 540.366 569.637 540.366C553.907 540.366 542.371 526.733 542.371 502.613C542.371 478.494 569.637 450.18 569.637 450.18C569.637 450.18 596.902 478.494 596.902 502.613Z" fill="#FDDA24"/>
<mask id="mask0" mask-type="alpha" maskUnits="userSpaceOnUse" x="91" y="654" width="242" height="305">
<path d="M332.869 922.999C332.869 942.567 278.864 958.43 212.245 958.43C145.626 958.43 91.6211 942.567 91.6211 922.999C91.6211 903.431 212.245 654.314 212.245 654.314C212.245 654.314 332.869 903.431 332.869 922.999Z" fill="#FDDA24"/>
</mask>
<g mask="url(#mask0)">
<path d="M26.0859 732.69C105.484 738.711 284.784 727.271 366.795 633.342" stroke="#9063CD" stroke-width="31.4602"/>
<path d="M26.0859 807.382C105.484 813.403 284.784 801.963 366.795 708.033" stroke="#9063CD" stroke-width="31.4602"/>
<path d="M26.0859 882.075C105.484 888.096 284.784 876.656 366.795 782.727" stroke="#9063CD" stroke-width="31.4602"/>
<path d="M26.0859 956.766C105.484 962.788 284.784 951.347 366.795 857.418" stroke="#9063CD" stroke-width="31.4602"/>
</g>
<rect x="180.695" y="657.098" width="12.9903" height="63.0955" transform="rotate(-90 180.695 657.098)" fill="#9063CD"/>
<rect x="185.344" y="632.887" width="12.9903" height="63.0955" transform="rotate(-45 185.344 632.887)" fill="#9063CD"/>
<rect x="229.957" y="623.703" width="12.9903" height="63.0955" transform="rotate(45 229.957 623.703)" fill="#9063CD"/>
<rect x="205.746" y="619.055" width="12.9903" height="63.0955" fill="#9063CD"/>
<circle cx="777.318" cy="182.025" r="21.3411" fill="#FDDA24"/>
<circle cx="991.658" cy="449.255" r="21.3411" fill="#FDDA24"/>
<circle cx="970.318" cy="131.919" r="21.3411" fill="#FDDA24"/>
<circle cx="618.654" cy="139.345" r="21.3411" fill="#FDDA24"/>
<circle cx="82.3411" cy="118.001" r="21.3411" fill="#FDDA24"/>
<circle cx="649.271" cy="362.033" r="21.3411" fill="#FDDA24"/>
<circle cx="112.962" cy="678.439" r="21.3411" fill="#FDDA24"/>
<circle cx="903.509" cy="279.451" r="21.3411" fill="#FDDA24"/>
<circle cx="134.302" cy="524.411" r="21.3411" fill="#FDDA24"/>
<circle cx="860.829" cy="401.931" r="21.3411" fill="#FDDA24"/>
<circle cx="446.068" cy="611.632" r="21.3411" fill="#FDDA24"/>
<circle cx="982.38" cy="645.962" r="21.3411" fill="#FDDA24"/>
<circle cx="356.064" cy="491.935" r="21.3411" fill="#FDDA24"/>
<path d="M934 954.369C889.713 971.276 793.075 993 680.99 993C561.601 993 459.74 969.698 420 951" stroke="#FF7F41" stroke-width="36" stroke-linecap="round" stroke-linejoin="round"/>
<path d="M680.99 1018C640.963 1018 602.906 1015.38 568.5 1011.19C500.283 1002.89 446.416 988.43 420 976" stroke="#FDDA24" stroke-width="36" stroke-linecap="round" stroke-linejoin="round"/>
<path d="M421 738.369C465.287 755.276 561.925 777 674.01 777C793.399 777 895.26 753.698 935 735" stroke="#FF7F41" stroke-width="36" stroke-linecap="round" stroke-linejoin="round"/>
<path d="M674.01 807C793.399 807 895.26 783.698 935 765" stroke="#FDDA24" stroke-width="36" stroke-linecap="round" stroke-linejoin="round"/>
</svg>
