<svg width="1080" height="1080" viewBox="0 0 1080 1080" fill="none" xmlns="http://www.w3.org/2000/svg">
<g clip-path="url(#clip0)">
<path d="M570.986 78.7747L545.855 67.0951C541.836 65.2275 537.372 64.5268 532.974 65.0728C528.575 65.6187 524.418 67.3895 520.977 70.1832L496.006 90.4687C495.255 91.077 494.651 91.8466 494.238 92.7204C493.825 93.5941 493.614 94.5496 493.621 95.5159C493.628 96.4822 493.853 97.4346 494.278 98.3023C494.703 99.17 495.318 99.9308 496.078 100.528L519.126 118.688C519.868 119.273 520.473 120.014 520.897 120.858C521.321 121.703 521.554 122.63 521.58 123.575C521.605 124.52 521.423 125.459 521.045 126.325C520.667 127.191 520.103 127.964 519.394 128.588L505.038 141.186C504.344 141.796 503.79 142.548 503.412 143.392C503.034 144.235 502.842 145.149 502.849 146.073C502.856 146.997 503.062 147.909 503.452 148.747C503.842 149.584 504.408 150.328 505.111 150.928L519.198 162.961C519.926 163.582 520.506 164.356 520.897 165.228C521.288 166.101 521.48 167.049 521.458 168.005C521.437 168.961 521.203 169.899 520.773 170.753C520.343 171.607 519.729 172.355 518.974 172.942L505.234 183.652C504.465 184.252 503.843 185.018 503.414 185.893C502.984 186.768 502.759 187.729 502.755 188.704C502.751 189.679 502.968 190.641 503.389 191.52C503.811 192.399 504.427 193.17 505.19 193.777L519.314 204.965C520.045 205.543 520.641 206.273 521.062 207.104C521.483 207.935 521.718 208.848 521.752 209.779C521.786 210.71 521.617 211.637 521.257 212.497C520.897 213.356 520.355 214.127 519.668 214.757L506.571 226.747C505.912 227.349 505.386 228.082 505.026 228.899C504.667 229.716 504.481 230.599 504.481 231.491V309.77H532.454V316.018H580.742V94.063C580.743 90.8497 579.825 87.7032 578.096 84.9944C576.368 82.2856 573.901 80.1276 570.986 78.7747Z" fill="#FDDA24"/>
<path d="M562.943 272.076H541.559V82.0645L562.943 91.6757V272.076Z" fill="#FF7F41"/>
<path d="M605.134 677.151C600.226 677.149 595.493 675.323 591.854 672.028C588.216 668.733 585.932 664.204 585.445 659.319C584.959 654.435 586.304 649.544 589.221 645.595C592.138 641.647 596.417 638.924 601.229 637.953C621.152 633.943 640.62 627.934 659.338 620.018C678.039 612.08 695.875 602.241 712.564 590.657C745.961 567.338 774.262 537.467 795.746 502.861C798.51 498.398 802.934 495.215 808.044 494.014C813.154 492.812 818.533 493.69 822.996 496.454C827.459 499.218 830.642 503.641 831.843 508.752C833.045 513.862 832.167 519.24 829.403 523.704C805.055 562.902 772.987 596.737 735.15 623.15C716.227 636.274 696.006 647.422 674.807 656.417C653.637 665.394 631.615 672.21 609.076 676.76C607.779 677.025 606.458 677.156 605.134 677.151Z" fill="#F5B6CD"/>
<path d="M227.369 406.018C222.565 406.011 217.928 404.257 214.322 401.083C210.717 397.91 208.388 393.534 207.77 388.77C206.584 379.651 205.767 370.076 205.333 360.298C204.899 350.173 204.892 340.823 205.297 331.653C206.918 293.493 215.023 255.887 229.263 220.447C257.825 149.002 309.972 89.4801 377.04 51.7699C385.314 47.1415 393.876 42.8023 402.511 38.8681L402.714 38.7741L404.731 37.8484C406.178 37.212 407.624 36.5539 409.165 35.8958H409.237L415.883 33.126L424.2 29.8933L428.951 28.1794C433.865 26.5045 439.241 26.8274 443.919 29.0785C448.597 31.3295 452.204 35.3285 453.961 40.2135C455.719 45.0986 455.487 50.4787 453.316 55.1944C451.144 59.91 447.207 63.5837 442.352 65.4238L436.487 67.5933L430.492 69.9365L424.547 72.417C423.419 72.8943 422.24 73.4223 420.989 73.9864L418.819 74.9554C411.204 78.4268 403.632 82.2524 396.4 86.324C381.731 94.5754 367.782 104.047 354.701 114.637C315.381 146.665 284.851 188.165 265.98 235.237C253.414 266.522 246.268 299.718 244.848 333.403C244.486 341.416 244.501 349.653 244.848 358.584C245.224 367.205 245.947 375.659 247.018 383.672C247.692 388.878 246.272 394.139 243.069 398.298C239.866 402.458 235.142 405.175 229.936 405.852C229.084 405.961 228.227 406.016 227.369 406.018Z" fill="#FF7F41"/>
<path d="M350.883 589.47C347.578 589.473 344.377 588.31 341.843 586.187C309.179 558.894 282.415 525.235 263.182 487.262C244.087 449.243 232.83 407.773 230.081 365.317C227.383 322.832 233.451 280.246 247.908 240.205C262.355 200.173 284.739 163.472 313.718 132.304C314.979 130.921 316.502 129.802 318.199 129.011C319.896 128.221 321.733 127.776 323.603 127.701C325.473 127.626 327.34 127.923 329.094 128.575C330.849 129.228 332.456 130.222 333.824 131.5C335.191 132.778 336.291 134.315 337.059 136.022C337.828 137.729 338.25 139.571 338.301 141.442C338.352 143.313 338.031 145.176 337.357 146.922C336.683 148.668 335.668 150.263 334.373 151.614C308.014 179.972 287.654 213.361 274.514 249.78C261.367 286.184 255.848 324.903 258.3 363.531C260.803 402.175 271.051 439.922 288.436 474.526C305.918 509.052 330.249 539.655 359.945 564.47C362.178 566.33 363.783 568.834 364.543 571.64C365.302 574.445 365.177 577.417 364.187 580.15C363.197 582.882 361.388 585.243 359.007 586.911C356.627 588.579 353.79 589.473 350.883 589.47Z" fill="#FDDA24"/>
<path d="M725.418 602.242C721.291 602.242 717.267 600.952 713.909 598.552C710.551 596.152 708.028 592.763 706.691 588.858C705.355 584.953 705.273 580.728 706.456 576.774C707.639 572.82 710.029 569.335 713.29 566.806C726.186 556.808 738.181 545.701 749.139 533.611C754.686 527.493 759.943 521.165 764.76 514.808C769.656 508.299 774.342 501.559 778.667 494.675C796.121 467.007 808.575 436.487 815.463 404.507C818.899 388.565 820.92 372.351 821.501 356.053C821.798 347.621 821.733 339.42 821.306 331.689C820.872 323.582 820.077 315.381 818.934 307.303C816.648 291.118 812.963 275.163 807.92 259.615C807.071 257.129 806.726 254.498 806.905 251.876C807.083 249.255 807.782 246.695 808.96 244.347C810.138 241.998 811.772 239.907 813.767 238.197C815.761 236.486 818.076 235.19 820.577 234.383C823.078 233.577 825.714 233.276 828.332 233.499C830.95 233.722 833.498 234.464 835.826 235.682C838.154 236.899 840.217 238.569 841.893 240.592C843.57 242.615 844.827 244.952 845.591 247.466C851.34 265.184 855.539 283.368 858.138 301.814C859.433 310.984 860.308 320.32 860.836 329.534C861.328 338.422 861.4 347.83 861.06 357.478C860.396 376.12 858.085 394.668 854.154 412.903C846.292 449.376 832.095 484.187 812.208 515.756C807.269 523.609 801.932 531.333 796.342 538.717C790.751 546.101 784.792 553.21 778.493 560.196C765.975 573.997 752.277 586.679 737.553 598.098C734.083 600.792 729.812 602.251 725.418 602.242Z" fill="#00C389"/>
<path d="M400.746 649.033L386.21 642.228C385.291 641.795 384.41 641.285 383.578 640.702C382.515 640.029 379.832 638.38 377.235 636.775C370.727 632.747 360.819 626.65 352.755 621.544L352.032 621.06C351.345 620.568 350.651 620.084 349.957 619.614C348.206 618.391 346.398 617.133 344.54 615.737C334.599 608.436 325.058 600.604 315.959 592.277C306.842 583.884 298.192 574.997 290.047 565.656C281.885 556.305 274.256 546.502 267.194 536.295C260.16 526.105 253.697 515.532 247.835 504.626C246.743 502.661 246.053 500.499 245.804 498.265C245.555 496.032 245.752 493.771 246.384 491.614C247.016 489.457 248.071 487.447 249.486 485.701C250.902 483.955 252.65 482.508 254.63 481.443C256.609 480.379 258.781 479.718 261.018 479.5C263.255 479.282 265.513 479.51 267.661 480.172C269.809 480.834 271.804 481.916 273.53 483.355C275.257 484.795 276.68 486.563 277.717 488.557C282.993 498.361 288.804 507.869 295.124 517.036C301.466 526.189 308.318 534.978 315.648 543.36C322.96 551.749 330.727 559.731 338.913 567.269C347.126 574.784 355.74 581.847 364.717 588.429L364.905 588.574C366.293 589.623 367.798 590.679 369.403 591.792L371.305 593.13C379.123 598.084 388.662 603.978 395.048 607.898L400.392 611.188L402.019 612.208C411.124 617.994 412.108 628.017 408.376 634.938L400.746 649.033ZM376.794 623.389C376.151 626.382 376.346 629.495 377.358 632.385C376.361 629.492 376.166 626.383 376.794 623.389Z" fill="#9063CD"/>
<path d="M858.157 396.877C856.161 396.881 854.187 396.461 852.365 395.646C850.542 394.831 848.913 393.639 847.585 392.149C846.257 390.659 845.259 388.904 844.658 387C844.057 385.097 843.867 383.087 844.098 381.105C847.81 349.221 846.414 316.95 839.962 285.506C838.219 277.11 836.346 269.465 834.249 262.176C831.999 254.423 829.468 246.728 826.735 239.352C823.907 231.852 820.768 224.389 817.42 217.171C814.252 210.337 810.644 203.358 806.391 195.837C790.591 167.953 770.429 142.779 746.67 121.269C746.106 120.77 745.549 120.264 744.992 119.757C744.023 118.89 743.112 118.058 742.222 117.299L737.189 113.061C734.115 110.537 731.208 108.157 728.236 105.894L728.178 105.85C721.561 100.788 714.973 96.0657 708.608 91.9146C695.191 83.1632 681.108 75.4763 666.49 68.9243C664.791 68.1707 663.258 67.0899 661.977 65.7437C660.696 64.3974 659.693 62.8121 659.025 61.0782C658.356 59.3442 658.036 57.4957 658.083 55.638C658.129 53.7804 658.54 51.95 659.294 50.2515C660.048 48.5529 661.128 47.0194 662.475 45.7385C663.821 44.4577 665.406 43.4545 667.14 42.7863C668.874 42.1181 670.723 41.798 672.58 41.8442C674.438 41.8904 676.268 42.3021 677.967 43.0557C693.953 50.2186 709.356 58.6187 724.034 68.1794C731.013 72.7355 738.194 77.8412 745.383 83.3664C748.76 85.9338 751.993 88.5879 755.124 91.1552L755.804 91.7193L760.577 95.8053C761.756 96.8106 762.855 97.8086 763.918 98.7704C764.439 99.2333 764.952 99.7033 765.473 100.159L765.56 100.238C791.602 123.784 813.701 151.353 831.016 181.894C835.659 190.11 839.6 197.739 843.093 205.26C846.709 213.122 850.144 221.236 853.218 229.401V229.48C856.19 237.508 858.938 245.868 861.39 254.322C863.697 262.335 865.729 270.651 867.631 279.793C874.688 314.189 876.211 349.49 872.144 384.366C871.746 387.801 870.103 390.971 867.526 393.277C864.948 395.582 861.615 396.863 858.157 396.877Z" fill="#59CBE8"/>
<path d="M522.483 551.669L599.763 596.29C605.822 599.785 612.51 602.052 619.446 602.962C626.381 603.873 633.428 603.408 640.184 601.595C646.94 599.782 653.272 596.656 658.82 592.395C664.367 588.134 669.022 582.823 672.516 576.763C676.022 570.691 678.295 563.986 679.204 557.033C680.113 550.081 679.64 543.017 677.812 536.248C675.985 529.478 672.838 523.136 668.554 517.585C664.269 512.035 658.931 507.384 652.845 503.902L482.953 406.676L399.063 552.037C388.968 569.501 382.671 588.899 380.585 608.963C378.499 629.026 380.67 649.304 386.957 668.471L453.577 871.551H614.401L628.452 746.439L508.25 576.344L522.483 551.669Z" fill="#D79F6F"/>
<path d="M471.981 268.842C515.779 258.016 561.555 258.016 605.353 268.842C623.36 273.232 637.173 287.038 640.666 304.351C651.829 359.146 651.829 415.63 640.666 470.425C637.166 487.738 623.36 501.522 605.353 505.934C561.554 516.756 515.78 516.756 471.981 505.934C453.974 501.544 440.161 487.738 436.668 470.425C425.501 415.63 425.501 359.146 436.668 304.351C440.161 287.038 453.974 273.232 471.981 268.842Z" fill="#9063CD"/>
<path d="M521.881 391.027H460.352C454.4 391.027 449.627 395.706 449.822 401.355C450.599 423.29 453.178 445.124 457.531 466.637C459.47 476.205 467.215 483.994 477.275 486.424C491.656 489.943 506.31 492.238 521.078 493.287C527.196 493.713 532.418 489.143 532.418 483.321V401.015C532.418 395.497 527.703 391.027 521.881 391.027Z" fill="#2C2A29"/>
<path d="M548.098 483.075C548.098 488.933 553.391 493.54 559.546 493.034C573.197 491.886 586.737 489.676 600.045 486.424C610.104 483.972 617.849 476.205 619.78 466.644C624.136 445.129 626.717 423.292 627.497 401.355C627.692 395.706 622.919 391.027 616.96 391.027H558.642C552.82 391.027 548.105 395.497 548.105 401.015L548.098 483.075Z" fill="#2C2A29"/>
<path d="M616.684 377.09C622.708 377.09 627.532 372.309 627.214 366.603C626.175 346.958 623.695 327.416 619.794 308.133C617.863 298.573 610.118 290.777 600.058 288.354C559.738 278.374 517.594 278.374 477.274 288.354C467.215 290.806 459.469 298.573 457.538 308.133C453.634 327.415 451.154 346.958 450.119 366.603C449.822 372.309 454.617 377.09 460.648 377.09H616.684Z" fill="#00C389"/>
<path d="M641.005 799.593L614.399 871.536H453.575L440.355 714.835L478.518 401.924C480.293 387.383 487.329 373.994 498.297 364.283C509.266 354.572 523.409 349.211 538.059 349.211C552.812 349.204 567.05 354.635 578.052 364.465C589.053 374.295 596.046 387.835 597.693 402.496L621.038 610.37L632.493 633.758C645.08 659.379 652.326 687.292 653.789 715.801C655.253 744.31 650.903 772.818 641.005 799.593Z" fill="#E4AC7B"/>
<path d="M623.223 1053H439.851C423.962 1053 408.724 1046.69 397.488 1035.45C386.253 1024.22 379.941 1008.98 379.941 993.091V848.547H683.133V993.113C683.127 1009 676.812 1024.23 665.578 1035.46C654.343 1046.69 639.108 1053 623.223 1053Z" fill="#59CBE8"/>
<path d="M691.457 817.436H371.625V886.305H691.457V817.436Z" fill="#FF7F41"/>
</g>
<defs>
<clipPath id="clip0">
<rect width="669.408" height="1026" fill="white" transform="translate(205 27)"/>
</clipPath>
</defs>
</svg>
