<svg width="1080" height="1080" viewBox="0 0 1080 1080" fill="none" xmlns="http://www.w3.org/2000/svg">
<g clip-path="url(#clip0)">
<path d="M886.979 224.082H805.232C791.516 224.055 778.369 218.595 768.67 208.896C758.971 199.197 753.511 186.051 753.484 172.335V90.6163C753.511 76.9003 758.971 63.7537 768.67 54.055C778.369 44.3563 791.516 38.8958 805.232 38.8691H886.95C900.666 38.8958 913.812 44.3563 923.511 54.055C933.21 63.7537 938.67 76.9003 938.697 90.6163V172.335C938.67 186.046 933.214 199.188 923.521 208.886C913.829 218.584 900.69 224.047 886.979 224.082ZM805.232 82.7959C803.158 82.7978 801.17 83.6224 799.704 85.0886C798.238 86.5548 797.413 88.5428 797.411 90.6163V172.335C797.413 174.408 798.238 176.396 799.704 177.862C801.17 179.329 803.158 180.153 805.232 180.155H886.95C889.023 180.153 891.011 179.329 892.478 177.862C893.944 176.396 894.768 174.408 894.77 172.335V90.6163C894.768 88.5428 893.944 86.5548 892.478 85.0886C891.011 83.6224 889.023 82.7978 886.95 82.7959H805.232Z" fill="#F5B6CD"/>
<path d="M886.979 455.97H805.232C791.516 455.944 778.369 450.483 768.67 440.785C758.971 431.086 753.511 417.939 753.484 404.223V322.505C753.511 308.789 758.971 295.642 768.67 285.944C778.369 276.245 791.516 270.784 805.232 270.758H886.95C900.666 270.784 913.812 276.245 923.511 285.944C933.21 295.642 938.67 308.789 938.697 322.505V404.223C938.67 417.934 933.214 431.077 923.521 440.774C913.829 450.472 900.69 455.936 886.979 455.97ZM805.232 314.685C803.158 314.687 801.17 315.511 799.704 316.977C798.238 318.443 797.413 320.431 797.411 322.505V404.223C797.413 406.297 798.238 408.285 799.704 409.751C801.17 411.217 803.158 412.042 805.232 412.044H886.95C889.023 412.042 891.011 411.217 892.478 409.751C893.944 408.285 894.768 406.297 894.77 404.223V322.505C894.768 320.431 893.944 318.443 892.478 316.977C891.011 315.511 889.023 314.687 886.95 314.685H805.232Z" fill="#F5B6CD"/>
<path d="M886.979 679.644H805.232C791.516 679.618 778.369 674.157 768.67 664.458C758.971 654.76 753.511 641.613 753.484 627.897V546.2C753.505 532.481 758.963 519.329 768.663 509.625C778.362 499.922 791.512 494.458 805.232 494.432H886.95C900.675 494.451 913.832 499.911 923.537 509.615C933.243 519.319 938.705 532.476 938.726 546.2V627.897C938.699 641.613 933.239 654.76 923.54 664.458C913.841 674.157 900.695 679.618 886.979 679.644ZM805.232 538.358C803.159 538.368 801.175 539.199 799.715 540.669C798.254 542.139 797.436 544.128 797.44 546.2V627.897C797.444 629.965 798.265 631.948 799.724 633.413C801.184 634.878 803.164 635.706 805.232 635.717H886.95C889.023 635.714 891.01 634.889 892.475 633.423C893.941 631.957 894.766 629.97 894.77 627.897V546.2C894.768 544.127 893.944 542.139 892.478 540.673C891.011 539.206 889.023 538.382 886.95 538.38L805.232 538.358Z" fill="#F5B6CD"/>
<path d="M844.075 189.148C841.19 189.152 838.332 188.585 835.666 187.48C833.001 186.375 830.58 184.754 828.543 182.71L790.607 144.775C788.568 142.735 786.95 140.314 785.847 137.649C784.743 134.984 784.175 132.128 784.176 129.243C784.176 126.359 784.745 123.503 785.849 120.838C786.953 118.173 788.571 115.752 790.611 113.713C792.651 111.674 795.072 110.056 797.737 108.953C800.402 107.849 803.258 107.281 806.142 107.282C809.027 107.282 811.883 107.85 814.548 108.954C817.212 110.059 819.633 111.677 821.673 113.717L844.075 136.119L946.763 33.4313C948.803 31.392 951.225 29.7744 953.89 28.6709C956.554 27.5675 959.411 26.9997 962.295 27C965.179 27.0003 968.035 27.5688 970.7 28.6729C973.365 29.777 975.786 31.3952 977.825 33.4349C979.865 35.4747 981.482 37.8962 982.586 40.5612C983.689 43.2261 984.257 46.0823 984.257 48.9667C984.256 51.8511 983.688 54.7071 982.584 57.3718C981.48 60.0365 979.862 62.4576 977.822 64.4969L859.601 182.71C857.565 184.754 855.146 186.375 852.481 187.48C849.817 188.585 846.96 189.152 844.075 189.148Z" fill="#00C389"/>
<path d="M844.075 417.194C841.19 417.199 838.333 416.633 835.667 415.529C833.001 414.426 830.58 412.806 828.543 410.763L790.607 372.828C788.568 370.788 786.95 368.366 785.847 365.701C784.743 363.036 784.175 360.18 784.176 357.296C784.176 354.411 784.745 351.555 785.849 348.891C786.953 346.226 788.571 343.805 790.611 341.766C792.651 339.726 795.072 338.109 797.737 337.005C800.402 335.902 803.258 335.334 806.142 335.334C809.027 335.335 811.883 335.903 814.548 337.007C817.212 338.111 819.633 339.729 821.673 341.769L844.075 364.172L946.763 261.484C950.9 257.452 956.458 255.212 962.234 255.248C968.011 255.285 973.54 257.596 977.625 261.681C981.709 265.766 984.02 271.295 984.057 277.071C984.094 282.848 981.854 288.406 977.822 292.542L859.601 410.763C857.565 412.806 855.145 414.425 852.48 415.529C849.816 416.633 846.959 417.198 844.075 417.194Z" fill="#00C389"/>
<path d="M640.793 911.254C640.793 814.039 719.588 735.266 816.788 735.266C913.989 735.266 992.776 814.06 992.776 911.254H640.793Z" fill="#00C389"/>
<path d="M88 911.255C88 737.031 229.25 595.76 403.495 595.76C577.74 595.76 718.99 737.031 718.99 911.255H88Z" fill="#00C389"/>
<path d="M260.265 1046.35C250.995 1046.35 241.841 1044.3 233.459 1040.34C225.078 1036.38 217.677 1030.61 211.789 1023.45C205.901 1016.29 201.671 1007.91 199.403 998.926C197.136 989.937 196.887 980.558 198.674 971.462L245.906 733.105L264.039 487.007C264.563 478.733 266.723 470.645 270.393 463.211C274.064 455.778 279.171 449.145 285.421 443.697C291.67 438.25 298.938 434.095 306.803 431.474C314.668 428.852 322.975 427.816 331.243 428.425C339.512 429.035 347.577 431.277 354.973 435.023C362.369 438.769 368.949 443.944 374.333 450.248C379.717 456.553 383.797 463.863 386.338 471.754C388.879 479.646 389.83 487.963 389.136 496.225L370.723 746.103C370.537 748.649 370.195 751.182 369.7 753.686L321.719 995.816C318.899 1010.05 311.233 1022.86 300.029 1032.07C288.824 1041.29 274.772 1046.33 260.265 1046.35Z" fill="#2C2A29"/>
<path d="M449.31 1053C433.447 1052.98 418.181 1046.96 406.584 1036.13C394.987 1025.31 387.922 1010.5 386.811 994.672L356.019 558.645C354.847 542.048 360.315 525.664 371.223 513.099C382.13 500.533 397.582 492.815 414.179 491.642C430.777 490.47 447.16 495.939 459.726 506.846C472.291 517.753 480.009 533.205 481.182 549.802L511.974 985.858C513.144 1002.45 507.676 1018.83 496.772 1031.38C485.869 1043.94 470.423 1051.66 453.832 1052.83C452.298 1052.95 450.793 1053 449.31 1053Z" fill="#2C2A29"/>
<path d="M431.918 382.52C495.641 388.54 570.77 363.639 624.836 318.574L431.918 382.52Z" fill="#59CBE8"/>
<path d="M451.411 381.77C443.879 381.77 436.438 381.424 429.088 380.733C425.075 380.462 421.158 379.389 417.567 377.579C413.977 375.769 410.785 373.258 408.18 370.194C405.576 367.13 403.611 363.576 402.403 359.74C401.195 355.905 400.767 351.866 401.145 347.863C401.523 343.859 402.7 339.972 404.605 336.431C406.51 332.889 409.105 329.765 412.237 327.243C415.369 324.721 418.975 322.852 422.841 321.747C426.707 320.641 430.756 320.321 434.748 320.805C490.563 326.077 557.613 303.667 605.558 263.708C611.706 258.727 619.568 256.367 627.443 257.137C635.318 257.908 642.573 261.748 647.639 267.826C652.705 273.905 655.174 281.733 654.513 289.618C653.852 297.503 650.113 304.811 644.106 309.961C589.723 355.27 517.726 381.77 451.411 381.77Z" fill="#59CBE8"/>
<path d="M488.258 395.229C483.832 395.229 479.57 393.558 476.322 390.552C473.074 387.546 471.081 383.425 470.74 379.012C470.399 374.6 471.735 370.221 474.482 366.751C477.229 363.282 481.184 360.976 485.557 360.296C523.732 354.188 560.92 343.011 596.138 327.063C598.247 326.087 600.528 325.539 602.851 325.45C605.173 325.362 607.49 325.735 609.667 326.548C611.844 327.362 613.838 328.599 615.534 330.188C617.229 331.777 618.593 333.687 619.546 335.807C620.498 337.926 621.021 340.214 621.083 342.537C621.145 344.861 620.746 347.173 619.908 349.341C619.071 351.509 617.811 353.489 616.203 355.167C614.595 356.844 612.67 358.186 610.54 359.115C572.47 376.352 532.268 388.424 491.001 395.013C490.094 395.159 489.177 395.231 488.258 395.229Z" fill="#FF7F41"/>
<path d="M266.589 256.716L229.863 579.196L499.142 571.743C503.081 495.36 496.607 376.348 449.454 309.327C380.107 210.744 266.589 256.716 266.589 256.716Z" fill="#E6DCCB"/>
<path d="M315.471 383.456C311.831 385.054 307.756 385.364 303.916 384.334C300.077 383.305 296.703 380.999 294.35 377.795C291.997 374.591 290.807 370.681 290.974 366.709C291.142 362.738 292.658 358.942 295.272 355.948C296.661 354.356 298.296 352.534 300.075 350.561C305.432 344.613 317.977 330.679 319.914 324.997C320.576 323.067 321.57 320.165 316.061 316.356C313.973 314.916 312 313.54 305.18 320.115C301.838 323.332 297.355 325.09 292.717 325.001C288.078 324.913 283.665 322.986 280.448 319.643C277.231 316.301 275.473 311.818 275.562 307.18C275.65 302.541 277.578 298.128 280.92 294.911C298.397 278.082 318.481 275.425 336.023 287.631C352.787 299.253 359.29 317.926 353.003 336.289C349.071 347.81 338.478 360.139 326.071 373.929C324.422 375.758 322.902 377.443 321.613 378.919C319.926 380.867 317.828 382.416 315.471 383.456Z" fill="#9063CD"/>
<path d="M222.458 619.365C218.05 621.297 213.243 622.145 208.44 621.836C203.637 621.528 198.978 620.073 194.853 617.594C190.728 615.114 187.257 611.682 184.732 607.585C182.207 603.488 180.7 598.845 180.338 594.046C178.579 570.724 179.025 547.289 181.671 524.051C191.107 443.227 226.455 367.629 282.429 308.565C285.139 305.641 288.403 303.284 292.032 301.631C295.66 299.979 299.581 299.064 303.566 298.939C307.551 298.814 311.522 299.481 315.247 300.903C318.972 302.325 322.377 304.473 325.266 307.221C328.154 309.97 330.468 313.265 332.072 316.915C333.677 320.565 334.54 324.497 334.613 328.484C334.686 332.47 333.966 336.431 332.495 340.137C331.024 343.843 328.832 347.22 326.046 350.072C279.071 399.637 249.407 463.079 241.49 530.907C239.275 550.372 238.904 570.003 240.381 589.538C240.848 595.753 239.374 601.96 236.164 607.302C232.953 612.645 228.165 616.859 222.458 619.365Z" fill="#59CBE8"/>
<path d="M199.414 501.553C196.501 502.83 193.294 503.287 190.141 502.876C186.987 502.465 184.005 501.202 181.516 499.221C179.028 497.241 177.127 494.619 176.018 491.638C174.909 488.657 174.635 485.43 175.225 482.305C188.453 411.957 226.108 343.907 278.511 295.602C280.19 294.003 282.172 292.755 284.339 291.929C286.506 291.103 288.815 290.717 291.133 290.792C293.451 290.868 295.73 291.404 297.839 292.369C299.948 293.334 301.843 294.708 303.416 296.413C304.988 298.118 306.205 300.118 306.997 302.298C307.789 304.477 308.139 306.792 308.028 309.109C307.916 311.425 307.345 313.696 306.347 315.789C305.35 317.883 303.945 319.757 302.217 321.302C255.222 364.646 221.456 425.719 209.589 488.779C209.062 491.576 207.859 494.202 206.086 496.428C204.312 498.655 202.022 500.414 199.414 501.553Z" fill="#FF7F41"/>
<path d="M417.533 200.148C443.38 175.405 442.442 132.478 415.438 104.27C388.434 76.0606 345.59 73.2514 319.742 97.9948C293.895 122.738 294.833 165.665 321.837 193.874C348.841 222.082 391.685 224.892 417.533 200.148Z" fill="#E4AC7B"/>
<path d="M621.993 367.836L541.715 317.241L661.253 220.912L752.088 265.66L621.993 367.836Z" fill="#9063CD"/>
<path d="M641.073 372.309L548.395 335.346L655.907 209.42L747.116 242.552L641.073 372.309Z" fill="#FDDA24"/>
</g>
<defs>
<clipPath id="clip0">
<rect width="904.776" height="1026" fill="white" transform="translate(88 27)"/>
</clipPath>
</defs>
</svg>
