<svg width="1080" height="1080" viewBox="0 0 1080 1080" fill="none" xmlns="http://www.w3.org/2000/svg">
<path d="M444.999 386.143C452.3 376.423 456.598 362.998 456.598 345C456.598 299.197 428.761 282.83 394.428 282.83C360.095 282.83 332.258 299.197 332.258 345C332.258 367.07 338.738 382.303 349.252 392.169C360.592 402.775 376.635 407.17 394.428 407.17C404.018 407.17 413.107 405.891 421.217 403.05L456.598 416.01L444.999 386.143Z" fill="#00C389"/>
<path d="M596.7 241.559C548.64 241.559 509.723 264.46 509.723 328.536C509.723 392.613 548.684 415.514 596.7 415.514C607.452 415.514 617.76 414.359 627.259 411.858L655.155 434.16L659.313 395.059L659.918 394.519C674.66 380.722 683.678 359.419 683.678 328.536C683.694 264.46 644.76 241.559 596.7 241.559Z" fill="#9063CD"/>
<path d="M678.336 321.704C678.336 323.195 679.543 324.404 681.033 324.404C682.523 324.404 683.73 323.195 683.73 321.704V316.169C683.73 314.678 682.523 313.469 681.033 313.469C679.543 313.469 678.336 314.678 678.336 316.169V321.704Z" fill="#FF7F41"/>
<path d="M492.912 335.529C489.775 322.699 491.357 313.503 492.815 308.702C493.163 307.549 493.798 306.502 494.659 305.659C495.519 304.816 496.579 304.204 497.74 303.88C515.328 298.971 540.033 296.86 540.033 296.86C540.033 296.86 550.055 281.648 561.017 273.132C561.569 272.709 562.207 272.41 562.885 272.258C589.885 266.172 617.674 271.485 630.056 275.438C630.625 275.618 631.151 275.914 631.6 276.308C637.644 281.777 643.076 287.886 647.8 294.527L671.02 299.69C672.755 300.021 674.288 301.025 675.286 302.481C677.722 306.078 680.649 309.701 680.649 320.463C680.611 325.563 679.885 330.635 678.489 335.54L492.912 335.529Z" fill="#00C389"/>
<path d="M583.367 297.114H552.355C551.737 297.116 551.131 296.947 550.602 296.628C550.074 296.308 549.643 295.849 549.358 295.301C549.072 294.753 548.943 294.137 548.984 293.521C549.025 292.904 549.235 292.311 549.59 291.806C554.196 285.25 561.67 277.312 563.014 275.903C563.151 275.763 563.326 275.665 563.517 275.622C570.044 274.283 576.664 273.445 583.318 273.116C583.449 273.11 583.579 273.13 583.701 273.175C583.824 273.221 583.935 273.29 584.03 273.38C584.124 273.47 584.199 273.578 584.251 273.698C584.302 273.818 584.328 273.947 584.328 274.078V296.153C584.328 296.408 584.227 296.652 584.047 296.833C583.866 297.013 583.622 297.114 583.367 297.114Z" fill="#59CBE8"/>
<path d="M591.644 272.932C600.149 272.958 608.634 273.768 616.991 275.351C617.21 275.393 617.406 275.509 617.548 275.681C617.689 275.853 617.765 276.068 617.764 276.29V296.152C617.764 296.407 617.662 296.651 617.482 296.831C617.302 297.012 617.057 297.113 616.802 297.113H591.633C591.378 297.113 591.134 297.012 590.953 296.831C590.773 296.651 590.672 296.407 590.672 296.152V273.898C590.673 273.641 590.776 273.396 590.958 273.214C591.141 273.033 591.387 272.932 591.644 272.932Z" fill="#59CBE8"/>
<path d="M621.421 279.433C625.741 285.6 629.176 292.809 630.52 295.757C630.588 295.903 630.617 296.064 630.606 296.224C630.594 296.385 630.543 296.54 630.455 296.675C630.368 296.81 630.248 296.921 630.107 296.998C629.965 297.074 629.807 297.114 629.646 297.112H620.633C620.507 297.113 620.381 297.089 620.264 297.041C620.147 296.993 620.041 296.922 619.952 296.833C619.862 296.743 619.792 296.637 619.744 296.52C619.696 296.403 619.671 296.278 619.672 296.151V279.989C619.671 279.784 619.735 279.584 619.855 279.418C619.976 279.252 620.146 279.129 620.342 279.067C620.537 279.005 620.748 279.007 620.942 279.072C621.136 279.138 621.304 279.265 621.421 279.433Z" fill="#59CBE8"/>
<path d="M492.772 334.52H679.132C679.942 334.52 680.574 334.925 680.476 335.389L679.699 339.336C679.618 339.736 679.04 340.033 678.354 340.033H492.772C492.027 340.033 491.422 339.812 491.422 339.542V335.011C491.401 334.736 492.027 334.52 492.772 334.52Z" fill="#FF7F41"/>
<path d="M642.417 357.01C652.593 357.01 660.842 348.761 660.842 338.585C660.842 328.409 652.593 320.16 642.417 320.16C632.241 320.16 623.992 328.409 623.992 338.585C623.992 348.761 632.241 357.01 642.417 357.01Z" fill="#2C2A29"/>
<path d="M530.952 357.01C541.128 357.01 549.377 348.761 549.377 338.585C549.377 328.409 541.128 320.16 530.952 320.16C520.776 320.16 512.527 328.409 512.527 338.585C512.527 348.761 520.776 357.01 530.952 357.01Z" fill="#2C2A29"/>
<path d="M530.949 349.883C537.188 349.883 542.246 344.825 542.246 338.586C542.246 332.347 537.188 327.289 530.949 327.289C524.71 327.289 519.652 332.347 519.652 338.586C519.652 344.825 524.71 349.883 530.949 349.883Z" fill="#FF7F41"/>
<path d="M642.414 349.883C648.653 349.883 653.711 344.825 653.711 338.586C653.711 332.347 648.653 327.289 642.414 327.289C636.175 327.289 631.117 332.347 631.117 338.586C631.117 344.825 636.175 349.883 642.414 349.883Z" fill="#FF7F41"/>
<path d="M575.213 304.252H582.584C583.547 304.252 584.328 303.471 584.328 302.508V302.502C584.328 301.539 583.547 300.758 582.584 300.758H575.213C574.25 300.758 573.469 301.539 573.469 302.502V302.508C573.469 303.471 574.25 304.252 575.213 304.252Z" fill="#FDDA24"/>
<path d="M620.307 304.252H627.678C628.641 304.252 629.422 303.471 629.422 302.508V302.502C629.422 301.539 628.641 300.758 627.678 300.758H620.307C619.343 300.758 618.562 301.539 618.562 302.502V302.508C618.562 303.471 619.343 304.252 620.307 304.252Z" fill="#FDDA24"/>
<path d="M501.237 313.099C501.821 309.898 500.672 307.007 498.671 306.642C496.671 306.277 494.575 308.576 493.991 311.777C493.407 314.977 494.556 317.868 496.557 318.233C498.558 318.598 500.653 316.299 501.237 313.099Z" fill="#F5B6CD"/>
<path d="M413.101 333.449C414.748 333.449 416.327 332.795 417.492 331.63C418.657 330.466 419.311 328.886 419.311 327.239V327.007C419.311 317.417 411.664 309.333 401.334 307.027V301.087C401.334 299.44 400.68 297.86 399.515 296.696C398.351 295.531 396.771 294.877 395.124 294.877C393.477 294.877 391.898 295.531 390.733 296.696C389.568 297.86 388.914 299.44 388.914 301.087V306.752C377.887 308.615 369.544 317.012 369.544 327.007V328.406C369.544 339.789 380.317 349.05 393.564 349.05H395.281C401.572 349.05 406.885 352.83 406.885 357.279V359.693C406.885 364.148 401.572 367.917 395.281 367.917H393.558C387.267 367.917 381.959 364.137 381.959 359.693C381.959 358.046 381.305 356.467 380.14 355.302C378.976 354.137 377.396 353.483 375.749 353.483C374.102 353.483 372.523 354.137 371.358 355.302C370.193 356.467 369.539 358.046 369.539 359.693C369.539 369.71 377.882 378.053 388.909 379.943V387.147C388.909 388.794 389.563 390.373 390.728 391.538C391.892 392.702 393.472 393.357 395.119 393.357C396.766 393.357 398.345 392.702 399.51 391.538C400.675 390.373 401.329 388.794 401.329 387.147V379.673C411.659 377.362 419.305 369.278 419.305 359.693V357.279C419.305 345.891 408.505 336.63 395.281 336.63H393.558C387.267 336.63 381.959 332.85 381.959 328.406V327.007C381.959 322.547 387.267 318.777 393.558 318.777H395.281C401.572 318.777 406.885 322.557 406.885 327.007V327.239C406.885 328.055 407.046 328.863 407.359 329.617C407.671 330.371 408.129 331.055 408.706 331.632C409.283 332.209 409.969 332.666 410.723 332.978C411.477 333.29 412.285 333.45 413.101 333.449Z" fill="white"/>
<path d="M477.045 398.163C476.803 398.164 476.561 398.144 476.322 398.103C475.74 398.01 475.183 397.803 474.682 397.494C474.18 397.185 473.745 396.78 473.4 396.303C473.056 395.825 472.809 395.284 472.673 394.711C472.538 394.138 472.517 393.544 472.612 392.962C473.052 390.28 474.178 387.758 475.881 385.64C477.584 383.522 479.807 381.882 482.332 380.877L483.234 380.521C484.6 379.98 485.75 379.007 486.509 377.749C487.268 376.491 487.592 375.019 487.434 373.559C487.275 372.099 486.641 370.731 485.63 369.666C484.618 368.601 483.285 367.897 481.835 367.663L480.701 367.48C478.946 367.199 477.151 367.626 475.709 368.667C474.268 369.707 473.298 371.277 473.012 373.031L472.634 375.358C472.54 375.94 472.332 376.498 472.023 376.999C471.713 377.501 471.308 377.937 470.83 378.282C470.352 378.627 469.811 378.874 469.237 379.01C468.664 379.146 468.069 379.168 467.487 379.074C466.906 378.98 466.348 378.772 465.846 378.462C465.345 378.153 464.909 377.748 464.564 377.27C464.219 376.792 463.972 376.251 463.836 375.677C463.7 375.104 463.678 374.509 463.772 373.927L464.15 371.6C464.82 367.498 467.089 363.83 470.46 361.4C473.832 358.97 478.03 357.978 482.132 358.64L483.266 358.824C486.662 359.361 489.786 361 492.157 363.489C494.528 365.978 496.015 369.178 496.387 372.596C496.759 376.013 495.996 379.458 494.217 382.399C492.437 385.34 489.739 387.614 486.539 388.869L485.637 389.226C484.559 389.657 483.61 390.359 482.882 391.265C482.155 392.17 481.673 393.247 481.484 394.393C481.314 395.447 480.774 396.406 479.96 397.097C479.147 397.788 478.113 398.166 477.045 398.163Z" fill="#00C389"/>
<path d="M474.952 411.853C477.711 411.853 479.947 409.617 479.947 406.858C479.947 404.1 477.711 401.863 474.952 401.863C472.193 401.863 469.957 404.1 469.957 406.858C469.957 409.617 472.193 411.853 474.952 411.853Z" fill="#00C389"/>
<path d="M695.362 427.404C694.555 427.407 693.763 427.191 693.068 426.781C692.374 426.371 691.803 425.78 691.416 425.073C691.029 424.365 690.84 423.566 690.869 422.759C690.898 421.953 691.145 421.17 691.582 420.492C693.057 418.211 695.096 416.35 697.502 415.089C699.908 413.829 702.599 413.212 705.314 413.299L706.281 413.332C707.749 413.383 709.193 412.951 710.392 412.102C711.591 411.252 712.478 410.033 712.916 408.631C713.355 407.229 713.321 405.722 712.82 404.341C712.318 402.96 711.378 401.782 710.142 400.987L709.175 400.366C707.678 399.405 705.861 399.077 704.123 399.454C702.384 399.832 700.866 400.885 699.904 402.38L698.629 404.362C698.31 404.859 697.896 405.287 697.412 405.624C696.927 405.96 696.38 406.198 695.804 406.323C695.227 406.449 694.631 406.459 694.051 406.354C693.47 406.25 692.916 406.031 692.419 405.712C691.923 405.393 691.494 404.979 691.158 404.495C690.821 404.01 690.583 403.464 690.458 402.887C690.333 402.31 690.322 401.714 690.427 401.134C690.532 400.553 690.75 399.999 691.069 399.502L692.344 397.52C693.455 395.786 694.898 394.288 696.59 393.113C698.282 391.937 700.189 391.107 702.202 390.67C704.215 390.232 706.294 390.196 708.321 390.564C710.348 390.931 712.282 391.695 714.014 392.812L714.98 393.433C717.886 395.28 720.101 398.033 721.284 401.266C722.467 404.499 722.552 408.032 721.525 411.318C720.499 414.604 718.418 417.46 715.605 419.445C712.791 421.429 709.402 422.431 705.962 422.296L704.996 422.263C703.835 422.225 702.683 422.488 701.654 423.026C700.624 423.565 699.752 424.36 699.121 425.336C698.716 425.967 698.161 426.486 697.504 426.848C696.848 427.209 696.111 427.4 695.362 427.404Z" fill="#00C389"/>
<path d="M688.182 439.16C690.941 439.16 693.177 436.924 693.177 434.165C693.177 431.406 690.941 429.17 688.182 429.17C685.424 429.17 683.188 431.406 683.188 434.165C683.188 436.924 685.424 439.16 688.182 439.16Z" fill="#00C389"/>
<path d="M718.574 347.014C718.805 345.582 717.833 344.234 716.403 344.003C714.972 343.771 713.625 344.745 713.393 346.177L712.535 351.491C712.303 352.923 713.275 354.271 714.706 354.502C716.136 354.733 717.484 353.76 717.715 352.328L718.574 347.014Z" fill="#00C389"/>
<path d="M711.721 360.39L714.761 340.605C715.059 338.673 714.63 336.699 713.557 335.064C708.157 326.824 684.203 299.522 663.683 296.184C645.193 293.182 639.674 292.728 631.823 292.269C630.478 292.185 629.134 292.448 627.921 293.033C626.708 293.619 625.665 294.507 624.895 295.612C618.836 304.387 611.227 322.488 611.227 322.488C611.227 322.488 586.501 324.864 570.095 328.104C568.017 328.513 566.044 329.339 564.294 330.533C562.545 331.726 561.055 333.262 559.917 335.048C554.657 343.316 552.648 353.835 551.887 360.38L711.721 360.39Z" fill="#F5B6CD"/>
<path d="M714.371 365.322H549.973C549.74 365.334 549.512 365.254 549.338 365.099C549.163 364.945 549.056 364.728 549.039 364.495V356.935C549.054 356.702 549.161 356.485 549.336 356.33C549.511 356.175 549.74 356.096 549.973 356.109H714.371C714.486 356.102 714.602 356.117 714.712 356.155C714.822 356.193 714.923 356.251 715.01 356.328C715.096 356.405 715.167 356.498 715.218 356.602C715.268 356.707 715.298 356.82 715.305 356.935V364.495C715.29 364.728 715.183 364.946 715.008 365.101C714.833 365.256 714.604 365.335 714.371 365.322Z" fill="#FF7F41"/>
<path d="M569.6 339.595C571.328 336.454 571.165 333.048 569.236 331.987C567.308 330.926 564.344 332.613 562.616 335.754C560.889 338.895 561.052 342.301 562.98 343.362C564.909 344.423 567.873 342.736 569.6 339.595Z" fill="#FF7F41"/>
<path d="M618.998 319.972C621.457 313.414 624.496 307.089 628.081 301.072C628.695 300.04 629.596 299.208 630.673 298.677C631.75 298.146 632.958 297.939 634.151 298.08L661.815 301.32C664.157 301.597 666.398 302.435 668.348 303.762C670.298 305.089 671.899 306.867 673.015 308.945L678.528 319.205C678.731 319.58 678.833 320.001 678.824 320.427C678.816 320.853 678.697 321.269 678.479 321.635C678.261 322.001 677.953 322.305 677.583 322.516C677.212 322.727 676.794 322.838 676.368 322.839H621.002C620.658 322.842 620.318 322.761 620.012 322.603C619.706 322.445 619.443 322.215 619.246 321.933C619.049 321.651 618.923 321.325 618.88 320.983C618.837 320.641 618.878 320.294 618.998 319.972Z" fill="#59CBE8"/>
<path d="M674.684 329.406H663.501C662.594 329.406 661.859 330.14 661.859 331.045C661.859 331.95 662.594 332.684 663.501 332.684H674.684C675.591 332.684 676.326 331.95 676.326 331.045C676.326 330.14 675.591 329.406 674.684 329.406Z" fill="#00C389"/>
<path d="M586.115 381.214C595.983 381.214 603.983 373.214 603.983 363.345C603.983 353.477 595.983 345.477 586.115 345.477C576.246 345.477 568.246 353.477 568.246 363.345C568.246 373.214 576.246 381.214 586.115 381.214Z" fill="#2C2A29"/>
<path d="M684.978 381.214C694.846 381.214 702.846 373.214 702.846 363.345C702.846 353.477 694.846 345.477 684.978 345.477C675.109 345.477 667.109 353.477 667.109 363.345C667.109 373.214 675.109 381.214 684.978 381.214Z" fill="#2C2A29"/>
<path d="M684.979 374.295C691.027 374.295 695.93 369.392 695.93 363.344C695.93 357.296 691.027 352.393 684.979 352.393C678.93 352.393 674.027 357.296 674.027 363.344C674.027 369.392 678.93 374.295 684.979 374.295Z" fill="#FF7F41"/>
<path d="M586.119 374.295C592.167 374.295 597.07 369.392 597.07 363.344C597.07 357.296 592.167 352.393 586.119 352.393C580.071 352.393 575.168 357.296 575.168 363.344C575.168 369.392 580.071 374.295 586.119 374.295Z" fill="#FF7F41"/>
<path d="M475.103 615.016L454.043 826.615C453.567 831.422 451.26 835.861 447.6 839.014C443.94 842.166 439.208 843.79 434.383 843.549C429.559 843.309 425.012 841.221 421.685 837.72C418.357 834.219 416.503 829.572 416.508 824.742L416.664 612.095C416.667 608.249 417.427 604.44 418.901 600.888C420.375 597.335 422.535 594.108 425.257 591.39C427.978 588.672 431.208 586.516 434.763 585.047C438.317 583.577 442.127 582.822 445.973 582.824C449.819 582.827 453.628 583.587 457.18 585.061C460.733 586.535 463.96 588.695 466.678 591.416C469.396 594.138 471.552 597.368 473.021 600.923C474.491 604.477 475.246 608.286 475.244 612.133C475.244 613.094 475.2 614.082 475.103 615.016Z" fill="#2C2A29"/>
<path d="M511.09 609.045L538.09 822.393C538.774 827.284 537.532 832.25 534.626 836.244C531.719 840.237 527.375 842.945 522.51 843.798C517.646 844.65 512.64 843.58 508.549 840.813C504.458 838.045 501.601 833.798 500.582 828.965L453.445 619.137C452.567 615.372 452.443 611.47 453.081 607.656C453.718 603.842 455.104 600.192 457.159 596.917C459.214 593.642 461.898 590.806 465.054 588.573C468.211 586.34 471.779 584.754 475.551 583.907C479.324 583.06 483.227 582.968 487.035 583.637C490.843 584.305 494.482 585.722 497.74 587.804C500.998 589.885 503.812 592.592 506.019 595.767C508.226 598.942 509.782 602.522 510.599 606.301C510.842 607.198 510.977 608.143 511.09 609.045Z" fill="#2C2A29"/>
<path d="M440.701 532.808C440.896 532.569 441.076 532.318 441.241 532.057C442.31 530.379 442.669 528.344 442.239 526.401C441.809 524.457 440.624 522.764 438.946 521.694C432.152 517.427 425.84 512.435 420.121 506.807C418.705 505.438 416.808 504.68 414.838 504.698C412.868 504.715 410.985 505.506 409.593 506.9C408.201 508.294 407.413 510.179 407.399 512.148C407.384 514.118 408.145 516.014 409.516 517.429C416.002 523.823 423.161 529.497 430.867 534.352C432.412 535.34 434.265 535.729 436.077 535.444C437.889 535.16 439.533 534.222 440.701 532.808Z" fill="#F5B6CD"/>
<path d="M405.999 497.826C406.963 496.658 407.551 495.225 407.686 493.717C407.821 492.209 407.497 490.695 406.755 489.375C392.715 464.324 399.865 442.022 400.178 441.082C400.823 439.198 400.692 437.135 399.816 435.348C398.939 433.56 397.388 432.193 395.504 431.549C393.62 430.904 391.558 431.035 389.77 431.911C387.982 432.788 386.615 434.338 385.971 436.222C385.566 437.405 376.208 465.582 393.666 496.702C394.64 498.438 396.263 499.715 398.179 500.254C400.095 500.793 402.147 500.549 403.883 499.575C404.692 499.13 405.41 498.537 405.999 497.826Z" fill="#F5B6CD"/>
<path d="M449.928 549.753C450.214 549.407 450.452 549.024 450.635 548.614C450.908 548.01 451.059 547.359 451.079 546.697C451.1 546.034 450.989 545.375 450.755 544.755C450.52 544.136 450.165 543.569 449.711 543.087C449.257 542.604 448.712 542.216 448.108 541.945C431.174 534.304 417.328 524.514 407.019 512.839C406.134 511.837 404.886 511.227 403.551 511.144C402.215 511.062 400.902 511.513 399.9 512.399C398.897 513.285 398.287 514.532 398.205 515.868C398.122 517.203 398.574 518.516 399.459 519.519C410.74 532.274 425.709 542.912 443.961 551.136C444.969 551.592 446.1 551.704 447.178 551.454C448.257 551.204 449.223 550.607 449.928 549.753Z" fill="#FF7F41"/>
<path d="M386.419 480.675C386.928 480.06 387.283 479.333 387.455 478.554C387.627 477.774 387.611 476.965 387.407 476.193C382.099 455.776 385.598 439.414 385.636 439.252C385.89 437.962 385.63 436.624 384.912 435.523C384.194 434.422 383.075 433.645 381.792 433.357C380.51 433.069 379.165 433.293 378.046 433.982C376.926 434.67 376.119 435.769 375.797 437.043C375.625 437.799 371.688 455.83 377.65 478.736C377.884 479.635 378.362 480.452 379.031 481.096C379.7 481.741 380.534 482.188 381.441 482.389C382.348 482.589 383.293 482.535 384.172 482.233C385.05 481.93 385.828 481.391 386.419 480.675Z" fill="#FF7F41"/>
<path d="M495.567 464.392C501.408 449.794 495.864 433.847 483.182 428.772C470.501 423.697 455.485 431.417 449.643 446.014C443.802 460.612 449.347 476.559 462.028 481.634C474.71 486.709 489.725 478.989 495.567 464.392Z" fill="#B28038"/>
<path d="M517.631 504.44L519.91 639.932L408.352 644.381C408.352 644.381 416.241 477.656 517.631 504.44Z" fill="#E6DCCB"/>
<path d="M538.763 560.186C540.403 559.895 542.093 560.138 543.585 560.88C545.076 561.622 546.289 562.823 547.047 564.306C554.645 579.14 558.247 596.782 557.761 616.74C557.746 617.769 557.528 618.784 557.118 619.728C556.709 620.671 556.117 621.524 555.376 622.237C554.634 622.951 553.759 623.51 552.801 623.883C551.842 624.255 550.819 624.435 549.791 624.41C548.763 624.385 547.75 624.156 546.81 623.737C545.871 623.318 545.024 622.717 544.318 621.969C543.613 621.22 543.062 620.34 542.699 619.377C542.336 618.415 542.168 617.39 542.203 616.362C542.624 599.028 539.595 583.897 533.196 571.396C532.73 570.487 532.447 569.495 532.365 568.476C532.283 567.458 532.402 566.433 532.716 565.46C533.03 564.488 533.532 563.587 534.195 562.809C534.857 562.031 535.666 561.391 536.576 560.926C537.265 560.573 538.002 560.324 538.763 560.186Z" fill="#59CBE8"/>
<path d="M497.812 524.307C498.934 524.108 500.086 524.158 501.187 524.453C501.867 524.636 518.046 529.086 532.928 544.487C533.676 545.214 534.27 546.084 534.675 547.045C535.081 548.006 535.288 549.038 535.286 550.081C535.285 551.124 535.073 552.156 534.664 553.116C534.256 554.075 533.658 554.943 532.908 555.667C532.157 556.391 531.269 556.957 530.295 557.331C529.322 557.705 528.283 557.879 527.24 557.844C526.198 557.809 525.174 557.564 524.228 557.125C523.282 556.685 522.434 556.06 521.734 555.287C510 543.142 497.261 539.503 497.137 539.465C495.429 539.003 493.93 537.973 492.886 536.545C491.842 535.116 491.316 533.375 491.394 531.607C491.473 529.84 492.152 528.152 493.318 526.822C494.485 525.492 496.07 524.599 497.812 524.291V524.307Z" fill="#59CBE8"/>
<path d="M556.946 578.685C558.195 578.463 559.48 578.721 560.547 579.405C561.614 580.09 562.384 581.152 562.703 582.378C566.991 598.854 567.466 617.219 564.118 636.951C564.007 637.604 563.769 638.229 563.417 638.79C563.065 639.351 562.605 639.837 562.065 640.221C561.525 640.605 560.915 640.878 560.269 641.026C559.623 641.173 558.955 641.193 558.302 641.082C557.649 640.971 557.024 640.733 556.463 640.381C555.902 640.029 555.415 639.57 555.032 639.03C554.648 638.49 554.375 637.879 554.227 637.233C554.079 636.588 554.06 635.919 554.171 635.266C557.287 616.944 556.871 600.009 552.94 584.922C552.773 584.281 552.734 583.613 552.826 582.957C552.917 582.301 553.137 581.67 553.472 581.098C553.808 580.527 554.252 580.028 554.781 579.628C555.309 579.229 555.911 578.938 556.552 578.771C556.682 578.739 556.811 578.707 556.946 578.685Z" fill="#FF7F41"/>
<path d="M504.761 516.462C505.668 516.301 506.602 516.393 507.461 516.727C508.179 517.008 525.341 523.801 541.028 541.524C541.914 542.526 542.366 543.84 542.284 545.176C542.202 546.511 541.593 547.76 540.59 548.646C539.588 549.533 538.274 549.985 536.938 549.903C535.602 549.821 534.354 549.211 533.468 548.209C519.482 532.408 503.956 526.188 503.821 526.123C502.799 525.721 501.935 524.997 501.362 524.059C500.788 523.121 500.537 522.022 500.646 520.929C500.755 519.835 501.218 518.807 501.964 518.001C502.711 517.195 503.701 516.654 504.783 516.462H504.761Z" fill="#FF7F41"/>
<path d="M752.125 801.257C749.506 801.257 746.988 800.239 745.105 798.417C721.885 776.061 704.784 744.574 698.19 712.017C697.656 709.38 698.191 706.64 699.678 704.397C701.165 702.155 703.481 700.596 706.118 700.061C708.754 699.527 711.495 700.062 713.737 701.549C715.979 703.036 717.539 705.352 718.073 707.989C723.867 736.609 738.847 764.219 759.173 783.788C760.63 785.19 761.636 786.995 762.061 788.972C762.485 790.949 762.308 793.008 761.554 794.884C760.799 796.761 759.501 798.368 757.826 799.501C756.15 800.634 754.175 801.24 752.153 801.241L752.125 801.257Z" fill="#9063CD"/>
<path d="M584.913 625.103C583.684 625.105 582.497 624.66 581.571 623.852C580.645 623.043 580.045 621.926 579.881 620.708C579.717 619.49 580.002 618.254 580.681 617.23C581.36 616.206 582.388 615.463 583.574 615.14C603.586 609.622 621.164 597.541 633.486 580.834C634.3 579.796 635.486 579.116 636.793 578.937C638.099 578.759 639.424 579.096 640.487 579.877C641.55 580.658 642.266 581.822 642.486 583.123C642.705 584.423 642.41 585.758 641.662 586.844C627.982 605.386 608.471 618.797 586.258 624.925C585.819 625.042 585.367 625.102 584.913 625.103Z" fill="#00C389"/>
<path d="M685.847 490.372C696.946 479.747 698.051 462.889 688.315 452.718C678.578 442.547 661.688 442.916 650.589 453.541C639.49 464.166 638.385 481.024 648.121 491.195C657.857 501.365 674.748 500.997 685.847 490.372Z" fill="#E4AC7B"/>
<path d="M779.82 835.046C778.075 835.047 776.359 834.595 774.841 833.734C744.171 816.416 719.377 790.326 703.642 758.814C687.907 727.302 681.95 691.806 686.535 656.884C686.885 654.217 688.28 651.798 690.414 650.159C692.548 648.52 695.245 647.797 697.913 648.147C700.58 648.497 702.999 649.892 704.638 652.026C706.276 654.16 707 656.857 706.65 659.525C702.59 690.437 707.863 721.858 721.791 749.752C735.719 777.646 757.666 800.741 784.815 816.071C786.769 817.172 788.302 818.89 789.176 820.955C790.049 823.021 790.213 825.318 789.642 827.487C789.071 829.656 787.798 831.574 786.02 832.942C784.243 834.31 782.062 835.05 779.82 835.046Z" fill="#00C389"/>
<path d="M696.783 835.446C694.505 835.444 692.294 834.675 690.507 833.264C688.719 831.852 687.458 829.88 686.928 827.664C679.563 796.927 672.251 768.399 665.182 740.811C658.114 713.222 650.759 684.543 643.361 653.649C642.734 651.033 643.173 648.276 644.579 645.983C645.986 643.69 648.246 642.05 650.862 641.424C653.478 640.797 656.235 641.235 658.528 642.642C660.821 644.048 662.461 646.308 663.087 648.924C670.453 679.661 677.764 708.189 684.833 735.778C691.902 763.366 699.256 792.046 706.654 822.939C706.966 824.234 707.018 825.578 706.81 826.894C706.601 828.21 706.135 829.471 705.438 830.607C704.742 831.742 703.828 832.729 702.75 833.511C701.671 834.293 700.45 834.855 699.154 835.165C698.378 835.353 697.582 835.448 696.783 835.446Z" fill="#FDDA24"/>
<path d="M710.033 622.895C675.565 608.914 668.059 614.158 630.891 612.635L658.674 715.084L778.467 715.953C772.857 679.195 744.507 636.881 710.033 622.895Z" fill="#2C2A29"/>
<path d="M630.821 612.83C627.435 598.056 624.028 583.087 624.487 567.935C624.946 552.782 629.714 537.155 640.557 526.592C652.578 514.847 670.506 510.819 687.262 512.104C704.018 513.389 708.106 514.977 723.836 520.895L680.598 614.051" fill="#F5B6CD"/>
<path d="M628.494 663.85C626.48 663.85 624.512 663.251 622.84 662.128C621.168 661.006 619.868 659.411 619.106 657.547C618.344 655.683 618.154 653.635 618.56 651.662C618.966 649.69 619.951 647.883 621.388 646.473C652.637 615.768 675.22 575.544 684.967 533.213C685.571 530.591 687.191 528.317 689.472 526.89C691.752 525.463 694.506 525.001 697.128 525.604C699.749 526.208 702.024 527.828 703.451 530.109C704.878 532.39 705.34 535.144 704.736 537.765C699.343 561.049 690.645 583.441 678.908 604.261C667.217 625.106 652.639 644.195 635.606 660.961C633.706 662.82 631.152 663.858 628.494 663.85Z" fill="#00C389"/>
<path d="M608.361 662.904C607.3 662.906 606.265 662.575 605.402 661.957C604.539 661.34 603.891 660.468 603.55 659.463C603.209 658.458 603.192 657.372 603.501 656.357C603.81 655.342 604.429 654.449 605.272 653.805C621.332 641.516 635.05 626.438 645.772 609.292C646.488 608.152 647.628 607.342 648.941 607.042C650.254 606.742 651.633 606.975 652.773 607.691C653.914 608.407 654.724 609.547 655.024 610.86C655.324 612.173 655.091 613.552 654.375 614.692C643.006 632.865 628.463 648.846 611.439 661.872C610.553 662.543 609.472 662.905 608.361 662.904Z" fill="#FDDA24"/>
</svg>
