<svg width="1080" height="1080" viewBox="0 0 1080 1080" fill="none" xmlns="http://www.w3.org/2000/svg">
<path d="M579.934 860.129C579.934 786.629 639.434 727.129 712.934 727.129C786.434 727.129 845.934 786.629 845.934 860.129" fill="#FF7F41"/>
<path d="M198.535 860.128C198.535 738.528 297.135 639.828 418.835 639.828C540.535 639.828 639.135 738.428 639.135 860.128" fill="#FF7F41"/>
<path d="M395.135 924.727C393.635 924.727 392.135 924.527 390.535 924.227C379.435 921.727 372.535 910.727 375.035 899.627L436.735 628.527C439.235 617.427 450.235 610.527 461.335 613.027C472.435 615.527 479.335 626.527 476.835 637.627L415.135 908.727C412.935 918.327 404.435 924.727 395.135 924.727Z" fill="#F5B6CD"/>
<path d="M630.833 586.627C571.233 586.627 511.933 568.227 462.833 534.427C411.333 499.027 371.633 446.927 351.033 387.827C347.333 377.127 352.933 365.427 363.733 361.627C374.433 357.927 386.133 363.527 389.933 374.327C407.633 425.227 441.833 470.027 486.233 500.527C530.633 531.027 584.733 547.027 638.533 545.327C649.933 545.027 659.333 553.927 659.733 565.227C660.033 576.527 651.133 586.027 639.833 586.427C636.733 586.627 633.733 586.627 630.833 586.627Z" fill="#00C389"/>
<path d="M474.697 268.432C496.313 245.85 493.88 208.442 469.264 184.878C444.647 161.315 407.169 160.519 385.553 183.1C363.937 205.682 366.37 243.09 390.986 266.654C415.603 290.217 453.081 291.013 474.697 268.432Z" fill="#E4AC7B"/>
<path d="M399.334 996.626C397.834 996.626 396.334 996.426 394.734 996.126C383.634 993.626 376.734 982.626 379.234 971.526L440.934 700.426C443.434 689.326 454.434 682.426 465.534 684.926C476.634 687.426 483.534 698.426 481.034 709.526L419.334 980.626C417.234 990.126 408.734 996.626 399.334 996.626Z" fill="#00C389"/>
<path d="M198.534 992.826C192.934 992.826 187.234 990.526 183.234 985.926C175.634 977.426 176.434 964.426 184.834 956.926C244.434 903.626 280.634 841.026 300.534 797.926C322.234 750.826 329.834 715.926 329.934 715.626C332.334 704.526 343.234 697.426 354.334 699.826C365.434 702.126 372.534 713.026 370.234 724.126C369.934 725.726 361.934 762.926 338.534 814.026C317.034 861.026 277.634 929.226 212.334 987.626C208.234 991.126 203.334 992.826 198.534 992.826Z" fill="#59CBE8"/>
<path d="M599.632 556.926C599.032 556.926 598.432 556.926 597.832 556.826C525.432 547.226 496.132 522.326 486.532 514.126C486.232 513.826 485.832 513.526 485.432 513.226C480.532 510.526 477.632 504.826 478.732 498.926C480.132 491.626 487.132 486.726 494.432 488.126C498.532 488.926 501.032 491.026 503.932 493.526C512.032 500.426 536.832 521.426 601.332 530.026C608.732 531.026 613.932 537.826 612.932 545.226C612.032 551.926 606.232 556.826 599.632 556.926Z" fill="#FDDA24"/>
<path d="M478.934 749.927L530.534 519.527L524.734 519.627C399.234 520.927 299.534 611.427 273.234 748.127L478.934 749.927Z" fill="#2C2A29"/>
<path d="M525.233 543.826L415.733 545.826L330.133 336.726C330.133 336.626 646.433 179.326 525.233 543.826Z" fill="#9063CD"/>
<path d="M526.532 447.226C475.032 447.226 425.232 434.826 381.632 411.126C371.632 405.726 367.932 393.226 373.432 383.226C378.832 373.226 391.332 369.526 401.332 375.026C484.632 420.326 593.832 415.626 672.932 363.326C682.432 357.026 695.132 359.626 701.432 369.126C707.732 378.626 705.132 391.326 695.632 397.626C650.532 427.426 596.932 444.526 540.532 446.926C535.832 447.126 531.132 447.226 526.532 447.226Z" fill="#FF7F41"/>
<path d="M527.834 423.726C478.034 423.726 441.834 410.826 439.534 410.026C432.534 407.426 428.934 399.726 431.434 392.726C434.034 385.726 441.734 382.126 448.734 384.626C449.834 385.026 527.034 412.126 606.934 383.426C613.934 380.926 621.634 384.526 624.234 391.526C626.734 398.526 623.134 406.226 616.134 408.826C584.934 420.026 554.434 423.726 527.834 423.726Z" fill="#FDDA24"/>
<circle cx="799.5" cy="314.5" r="110.5" fill="#00C389"/>
<path d="M837.597 334.38C837.597 342.2 835.047 348.83 829.947 354.27C824.847 359.596 817.934 363.393 809.207 365.66C810.681 371.893 811.247 378.183 810.907 384.53C807.054 385.436 803.371 385.89 799.857 385.89C796.457 385.89 792.774 385.436 788.807 384.53L788.637 380.79C788.637 376.823 789.091 372.573 789.997 368.04C780.477 368.04 771.581 366.793 763.307 364.3C762.514 362.033 762.117 359.596 762.117 356.99C762.117 352.456 763.194 348.206 765.347 344.24C775.547 347.98 783.821 349.85 790.167 349.85C806.147 349.85 814.137 345.316 814.137 336.25C814.137 332.17 812.834 328.77 810.227 326.05C807.734 323.216 802.634 320.27 794.927 317.21C787.334 314.15 781.327 311.26 776.907 308.54C772.487 305.706 769.201 302.42 767.047 298.68C764.894 294.94 763.817 290.35 763.817 284.91C763.817 277.316 766.141 270.856 770.787 265.53C775.434 260.203 781.951 256.52 790.337 254.48C788.864 248.813 788.354 242.75 788.807 236.29C792.774 235.383 796.457 234.93 799.857 234.93C803.371 234.93 807.054 235.383 810.907 236.29L811.077 240.03C811.077 243.996 810.624 248.246 809.717 252.78C815.837 252.893 822.864 253.97 830.797 256.01C831.704 257.483 832.157 259.353 832.157 261.62C832.157 263.886 831.761 266.266 830.967 268.76C830.287 271.14 829.437 273.18 828.417 274.88C818.104 271.82 810.171 270.29 804.617 270.29C793.057 270.29 787.277 274.03 787.277 281.51C787.277 284.456 788.694 287.403 791.527 290.35C794.474 293.183 798.554 295.563 803.767 297.49C812.721 300.776 819.634 304.176 824.507 307.69C829.381 311.09 832.781 314.886 834.707 319.08C836.634 323.273 837.597 328.373 837.597 334.38Z" fill="white"/>
<path fill-rule="evenodd" clip-rule="evenodd" d="M771.412 179.817C772.161 182.865 770.297 185.944 767.249 186.693C741.472 193.031 717.841 207.811 700.886 228.235L700.882 228.24L700.877 228.245C683.869 248.629 673.542 274.522 671.997 301.01C671.814 304.144 669.125 306.536 665.991 306.353C662.857 306.17 660.465 303.482 660.648 300.348C662.337 271.409 673.593 243.203 692.144 220.968C710.656 198.671 736.401 182.571 764.535 175.654C767.583 174.905 770.662 176.768 771.412 179.817Z" fill="#FDDA24"/>
<path fill-rule="evenodd" clip-rule="evenodd" d="M929.333 302.738C926.21 303.053 923.422 300.778 923.106 297.654C920.435 271.244 909.105 245.779 891.253 226.135L891.248 226.129L891.243 226.124C873.439 206.433 849.244 192.587 823.232 187.353C820.155 186.733 818.162 183.736 818.781 180.659C819.401 177.582 822.398 175.589 825.475 176.208C853.893 181.927 880.248 197.017 899.67 218.494C919.16 239.943 931.501 267.686 934.417 296.511C934.732 299.634 932.457 302.422 929.333 302.738Z" fill="#9063CD"/>
<path fill-rule="evenodd" clip-rule="evenodd" d="M680.11 258.267C683.031 259.416 684.468 262.715 683.319 265.637C673.605 290.34 672.022 318.167 678.901 343.804L678.903 343.811L678.905 343.818C685.721 369.475 700.895 392.861 721.625 409.421C724.077 411.381 724.477 414.957 722.518 417.41C720.559 419.862 716.982 420.262 714.53 418.303C691.881 400.21 675.357 374.73 667.92 346.745C660.411 318.754 662.137 288.439 672.74 261.476C673.889 258.555 677.189 257.118 680.11 258.267Z" fill="#59CBE8"/>
<path fill-rule="evenodd" clip-rule="evenodd" d="M849.904 189.576C850.369 188.494 851.622 187.994 852.703 188.459C862.233 192.552 871.287 197.734 879.648 203.861C879.713 203.909 879.797 203.968 879.888 204.033C880.066 204.158 880.274 204.306 880.443 204.432L880.466 204.449L881.241 205.058L884.253 207.425L885.005 208.017L885.418 208.341L885.821 208.688L888.715 211.195L890.188 212.471L890.213 212.494C890.516 212.774 890.832 213.077 891.132 213.363C891.301 213.525 891.466 213.682 891.619 213.827L891.626 213.834L894.382 216.462C894.812 216.857 895.221 217.288 895.571 217.656C895.654 217.743 895.733 217.826 895.808 217.905L895.813 217.91L898.459 220.686C898.537 220.768 898.62 220.855 898.707 220.946C899.054 221.308 899.463 221.735 899.833 222.178L902.333 225.064C909.099 232.95 914.829 241.685 919.539 250.91C921.954 255.53 923.945 260.33 925.786 265.109C925.921 265.436 926.033 265.768 926.118 266.023C926.129 266.056 926.14 266.088 926.15 266.118L926.457 267.022L926.457 267.023L927.685 270.651L927.685 270.652L927.996 271.572L928 271.585C928.077 271.824 928.158 272.111 928.22 272.333C928.245 272.423 928.268 272.502 928.285 272.563L928.287 272.571L929.339 276.27C929.395 276.47 929.455 276.682 929.517 276.9C929.632 277.304 929.753 277.729 929.862 278.135L929.872 278.171L930.311 280.072C930.576 281.219 929.861 282.364 928.714 282.629C927.568 282.894 926.423 282.179 926.158 281.032L925.735 279.203C925.637 278.837 925.537 278.487 925.433 278.121C925.369 277.897 925.303 277.667 925.235 277.423C925.235 277.421 925.234 277.419 925.234 277.417L924.193 273.757C924.193 273.754 924.192 273.752 924.191 273.749C924.146 273.593 924.111 273.47 924.081 273.361C924.036 273.198 923.999 273.067 923.949 272.91L923.647 272.017L923.647 272.016L922.42 268.391L922.42 268.39L922.113 267.485L922.112 267.482C922.101 267.449 922.09 267.417 922.08 267.386C921.985 267.104 921.919 266.909 921.84 266.719L921.829 266.693L921.818 266.666C919.995 261.932 918.068 257.295 915.757 252.876L915.752 252.867L915.747 252.857C911.177 243.905 905.63 235.454 899.101 227.844C899.1 227.843 899.099 227.841 899.098 227.84L896.584 224.938L896.571 224.922C896.301 224.597 896.02 224.304 895.683 223.952C895.583 223.847 895.478 223.737 895.366 223.619C895.366 223.618 895.365 223.618 895.364 223.617L892.732 220.856C892.732 220.855 892.731 220.854 892.73 220.853C892.626 220.745 892.527 220.641 892.433 220.542C892.09 220.182 891.802 219.88 891.486 219.59L891.471 219.575L888.691 216.925C888.69 216.924 888.689 216.923 888.688 216.922C888.494 216.739 888.314 216.567 888.14 216.4C887.873 216.144 887.618 215.901 887.345 215.647L885.925 214.417L883.034 211.914L883.03 211.91L882.708 211.633L882.37 211.367L878.607 208.41L877.878 207.837C877.743 207.737 877.629 207.656 877.499 207.564C877.397 207.492 877.285 207.413 877.146 207.313L877.14 207.308L877.134 207.304C869.03 201.364 860.254 196.341 851.021 192.375C849.94 191.911 849.439 190.657 849.904 189.576Z" fill="#00C389"/>
<path fill-rule="evenodd" clip-rule="evenodd" d="M781.018 179.271C790.027 177.96 799.163 177.57 808.246 178.09C809.421 178.157 810.319 179.164 810.252 180.339C810.185 181.514 809.177 182.412 808.002 182.345C799.202 181.842 790.354 182.22 781.632 183.489L781.631 183.489C772.91 184.756 764.318 186.921 756.037 189.94C739.481 195.999 724.216 205.523 711.443 217.665C710.59 218.476 709.241 218.442 708.43 217.589C707.619 216.735 707.654 215.386 708.507 214.575C721.698 202.036 737.462 192.198 754.574 185.937L754.576 185.936C763.132 182.816 772.008 180.58 781.018 179.271" fill="#FF7F41"/>
<path fill-rule="evenodd" clip-rule="evenodd" d="M931.435 323.511C934.158 323.867 936.078 326.363 935.723 329.087C934.729 336.695 933.142 344.261 930.863 351.647L930.859 351.661C928.569 359.011 925.667 366.166 922.192 373.033L922.18 373.056L922.168 373.079C921.992 373.42 921.804 373.788 921.607 374.175C920.971 375.427 920.233 376.878 919.425 378.222L918.063 380.591C918.006 380.689 917.947 380.792 917.886 380.899C917.501 381.572 917.018 382.416 916.479 383.226C916.168 383.708 915.848 384.21 915.521 384.722C914.848 385.775 914.149 386.87 913.453 387.921L913.407 387.99L910.101 392.639L910.067 392.685C908.622 394.622 907.127 396.519 905.585 398.376C903.83 400.489 900.694 400.779 898.581 399.024C896.468 397.269 896.178 394.133 897.933 392.02C899.354 390.309 900.731 388.563 902.06 386.782L905.204 382.361C905.842 381.398 906.445 380.452 907.073 379.469C907.418 378.928 907.771 378.375 908.141 377.802L908.164 377.767L908.187 377.731C908.528 377.223 908.829 376.697 909.23 375.998C909.297 375.881 909.367 375.759 909.44 375.632L910.853 373.174L910.88 373.129C911.496 372.108 912.01 371.1 912.61 369.921C912.834 369.48 913.071 369.015 913.33 368.517C916.549 362.152 919.237 355.52 921.361 348.708C923.458 341.907 924.932 334.898 925.859 327.799C926.215 325.075 928.711 323.156 931.435 323.511Z" fill="#FDDA24"/>
<path fill-rule="evenodd" clip-rule="evenodd" d="M693.761 380.001C696.009 378.423 699.111 378.966 700.689 381.214C705.788 388.478 711.67 395.193 718.199 401.208L718.271 401.275L718.341 401.345C718.507 401.511 718.643 401.627 718.881 401.832C719.012 401.945 719.173 402.083 719.388 402.271L720.672 403.384C721.064 403.72 721.408 404.019 721.732 404.301C722.223 404.73 722.67 405.119 723.175 405.538L725.834 407.627C726.182 407.897 726.479 408.133 726.748 408.346C727.335 408.81 727.785 409.167 728.32 409.53L728.365 409.56L731.218 411.588C731.489 411.779 731.686 411.92 731.852 412.04C732.078 412.203 732.249 412.326 732.481 412.481L736.802 415.251C736.887 415.304 736.964 415.353 737.026 415.394C737.111 415.449 737.14 415.468 737.2 415.507C737.247 415.537 737.278 415.557 737.301 415.571C737.319 415.582 737.327 415.587 737.328 415.587L737.338 415.593L738.1 416.031L739.609 416.898C747.29 421.337 755.45 424.943 763.904 427.62L764.001 427.651L764.097 427.685C764.179 427.715 764.304 427.754 764.55 427.822L764.566 427.827L767.06 428.533C767.064 428.534 767.068 428.536 767.072 428.537C767.555 428.671 767.982 428.794 768.385 428.91C769.024 429.094 769.601 429.26 770.24 429.426L775.223 430.576L775.239 430.579L775.951 430.742L780.097 431.482L781.777 431.782C782.04 431.826 782.222 431.847 782.478 431.878C782.679 431.901 782.924 431.93 783.289 431.98L786.673 432.41C787.097 432.459 787.345 432.494 787.535 432.521C787.758 432.552 787.902 432.572 788.158 432.591L788.169 432.592L789.895 432.722C792.634 432.929 794.686 435.318 794.479 438.057C794.272 440.796 791.884 442.848 789.145 442.641L787.43 442.511C787.427 442.511 787.425 442.511 787.422 442.511C786.902 442.472 786.159 442.374 785.759 442.321C785.641 442.306 785.553 442.294 785.508 442.289L785.478 442.285L781.993 441.842L781.972 441.839C781.899 441.829 781.78 441.815 781.634 441.797C781.218 441.746 780.576 441.667 780.096 441.586L780.073 441.582L778.348 441.274L773.975 440.493L773.005 440.273L767.88 439.09L767.818 439.074C767.04 438.873 766.191 438.63 765.431 438.412C765.057 438.304 764.705 438.203 764.393 438.116L764.381 438.113L761.907 437.412C761.901 437.41 761.896 437.408 761.89 437.407C761.607 437.329 761.227 437.22 760.817 437.076C751.703 434.183 742.912 430.295 734.638 425.514C734.636 425.513 734.634 425.512 734.632 425.511L732.398 424.227C732.154 424.087 731.943 423.953 731.802 423.862C731.728 423.814 731.678 423.781 731.639 423.756C731.581 423.718 731.547 423.696 731.497 423.665L731.475 423.651L727.052 420.816L727.023 420.796C726.635 420.54 726.158 420.198 725.817 419.954C725.686 419.86 725.574 419.78 725.496 419.725L725.482 419.715L722.688 417.729C721.841 417.151 720.975 416.465 720.301 415.931C720.089 415.763 719.896 415.609 719.728 415.479L719.715 415.469L716.931 413.282L716.884 413.243C716.281 412.745 715.628 412.177 715.04 411.665C714.735 411.4 714.447 411.149 714.194 410.932L714.182 410.922L712.85 409.768L712.838 409.758C712.788 409.714 712.72 409.655 712.638 409.585C712.328 409.319 711.826 408.888 711.395 408.466C704.369 401.984 698.039 394.752 692.548 386.929C690.97 384.681 691.513 381.579 693.761 380.001Z" fill="#F5B6CD"/>
<path fill-rule="evenodd" clip-rule="evenodd" d="M883.017 405.905C884.744 408.041 884.413 411.172 882.277 412.9C879.344 415.272 876.31 417.526 873.185 419.649L873.176 419.655L873.166 419.661C866.78 423.958 860.037 427.722 853.027 430.9L850.525 432.03C849.977 432.289 849.432 432.501 849.06 432.647C849.029 432.658 849 432.67 848.972 432.681C848.97 432.682 848.967 432.683 848.964 432.684L843.686 434.764L839.614 436.144L838.294 436.59L838.284 436.593C838.236 436.609 838.179 436.629 838.113 436.651C837.778 436.766 837.233 436.952 836.695 437.096L831.32 438.623L831.259 438.638C823.802 440.554 816.192 441.844 808.535 442.511C805.798 442.75 803.387 440.725 803.148 437.989C802.909 435.252 804.934 432.84 807.671 432.602C814.773 431.983 821.823 430.789 828.724 429.02L834.066 427.502L834.114 427.49C834.291 427.443 834.443 427.392 834.75 427.288C834.852 427.253 834.971 427.213 835.115 427.165C835.116 427.164 835.118 427.164 835.119 427.163L836.427 426.721L840.263 425.422L845.335 423.423L845.343 423.419C845.825 423.231 846.075 423.133 846.297 423.027L846.343 423.005L848.92 421.841C848.921 421.84 848.922 421.84 848.923 421.839C855.424 418.892 861.679 415.4 867.605 411.414C870.495 409.45 873.303 407.364 876.023 405.165C878.159 403.438 881.29 403.769 883.017 405.905Z" fill="#FF7F41"/>
</svg>
