<svg width="1080" height="1080" viewBox="0 0 1080 1080" fill="none" xmlns="http://www.w3.org/2000/svg">
<path d="M811.274 861.828H190.307C181.825 861.828 174.949 868.704 174.949 877.186C174.949 885.668 181.825 892.543 190.307 892.543H811.274C819.756 892.543 826.632 885.668 826.632 877.186C826.632 868.704 819.756 861.828 811.274 861.828Z" fill="#E6DCCB"/>
<path d="M402.655 493.711C398.899 493.712 395.153 494.101 391.477 494.872C380.283 479.106 364.365 467.307 346.024 461.181C327.683 455.054 307.87 454.919 289.447 460.792C271.024 466.666 254.945 478.246 243.536 493.858C232.126 509.469 225.975 528.305 225.973 547.641H456.585C456.585 540.559 455.19 533.546 452.48 527.003C449.77 520.46 445.797 514.515 440.789 509.507C435.782 504.499 429.836 500.527 423.293 497.817C416.75 495.106 409.737 493.711 402.655 493.711Z" fill="#59CBE8"/>
<path d="M454.325 619.045H359.29C358.04 619.045 357.027 620.058 357.027 621.307V671.187C357.027 672.437 358.04 673.45 359.29 673.45H454.325C455.574 673.45 456.587 672.437 456.587 671.187V621.307C456.587 620.058 455.574 619.045 454.325 619.045Z" fill="#00C389"/>
<path d="M447.322 619.045H440.184V663.822H447.322V619.045Z" fill="#FDDA24"/>
<path d="M373.424 619.045H366.285V663.822H373.424V619.045Z" fill="#FDDA24"/>
<path d="M425.434 637.686H388.174C387.413 637.686 386.797 638.302 386.797 639.063V642.513C386.797 643.274 387.413 643.89 388.174 643.89H425.434C426.194 643.89 426.811 643.274 426.811 642.513V639.063C426.811 638.302 426.194 637.686 425.434 637.686Z" fill="#FF7F41"/>
<path d="M445.055 583.146H368.548C367.298 583.146 366.285 584.159 366.285 585.409V616.529C366.285 617.779 367.298 618.792 368.548 618.792H445.055C446.305 618.792 447.318 617.779 447.318 616.529V585.409C447.318 584.159 446.305 583.146 445.055 583.146Z" fill="#F5B6CD"/>
<path d="M422.147 598.568H393.878C393.046 598.568 392.371 599.243 392.371 600.075V603.531C392.371 604.363 393.046 605.038 393.878 605.038H422.147C422.979 605.038 423.653 604.363 423.653 603.531V600.075C423.653 599.243 422.979 598.568 422.147 598.568Z" fill="#00C389"/>
<path d="M440.207 583.146H433.965V618.792H440.207V583.146Z" fill="#FF7F41"/>
<path d="M382.055 583.146H375.812V618.792H382.055V583.146Z" fill="#FF7F41"/>
<path d="M523.098 641.319C522.534 639.591 522.575 637.722 523.215 636.021C523.856 634.319 525.056 632.887 526.62 631.959C528.183 631.032 530.016 630.664 531.816 630.918C533.616 631.172 535.276 632.031 536.522 633.354C536.733 633.57 545.492 642.534 560.903 647.394C581.607 653.95 604.195 650.434 628.025 636.94C629.871 635.894 632.057 635.625 634.102 636.191C636.147 636.757 637.883 638.112 638.928 639.958C639.973 641.804 640.243 643.99 639.677 646.035C639.111 648.079 637.755 649.816 635.909 650.861C600.755 670.755 572.6 668.092 555.163 662.352C536.015 656.099 525.307 644.759 524.88 644.3C524.076 643.448 523.467 642.431 523.098 641.319Z" fill="#FF7F41"/>
<path d="M601.019 668.579C600.976 668.444 600.938 668.314 600.906 668.179C600.746 667.517 600.719 666.831 600.825 666.158C600.931 665.486 601.169 664.84 601.525 664.26C601.88 663.679 602.347 663.174 602.897 662.774C603.448 662.373 604.072 662.085 604.734 661.926C620.308 658.184 635.86 650.354 650.958 638.663C651.496 638.246 652.111 637.94 652.767 637.761C653.423 637.582 654.109 637.534 654.784 637.619C655.459 637.705 656.11 637.923 656.701 638.261C657.291 638.598 657.81 639.049 658.227 639.586C658.643 640.124 658.95 640.739 659.129 641.395C659.308 642.052 659.356 642.737 659.27 643.412C659.184 644.087 658.967 644.738 658.629 645.329C658.292 645.92 657.841 646.438 657.303 646.855C641.038 659.453 624.169 667.915 607.153 672.003C605.888 672.307 604.554 672.124 603.417 671.49C602.28 670.856 601.424 669.816 601.019 668.579Z" fill="#00C389"/>
<path d="M519.342 651.407C518.985 650.332 518.991 649.169 519.357 648.097C519.724 647.025 520.432 646.103 521.373 645.472C522.314 644.84 523.435 644.534 524.567 644.601C525.698 644.667 526.776 645.103 527.636 645.84C527.798 645.98 540.958 657.029 562.023 662.04C562.701 662.182 563.343 662.459 563.912 662.854C564.481 663.248 564.966 663.753 565.336 664.338C565.707 664.923 565.957 665.576 566.071 666.259C566.185 666.942 566.161 667.641 566.001 668.315C565.84 668.989 565.546 669.624 565.136 670.182C564.726 670.74 564.209 671.21 563.614 671.565C563.019 671.92 562.359 672.152 561.673 672.248C560.987 672.343 560.289 672.3 559.62 672.122C535.957 666.49 521.491 654.226 520.886 653.708C520.17 653.097 519.635 652.301 519.342 651.407Z" fill="#00C389"/>
<path d="M474.426 620.012L483.26 714.62L599.101 739.342C593.237 706.002 578.657 655.296 551.678 631.055C511.994 595.399 474.426 620.012 474.426 620.012Z" fill="#E6DCCB"/>
<path d="M483.875 658.45H455.86L453.058 615.601C452.75 610.822 456.298 606.756 460.753 606.756H464.057C470.537 606.756 476.051 611.718 477.185 618.539L483.875 658.45Z" fill="#2C2A29"/>
<path d="M254.884 766.217C255.791 771.825 261.072 775.637 266.681 774.731C272.289 773.825 276.101 768.543 275.195 762.935L271.825 742.08C270.918 736.472 265.637 732.66 260.028 733.566C254.42 734.473 250.608 739.754 251.514 745.363L254.884 766.217Z" fill="#F5B6CD"/>
<path d="M868.07 703.583C863.595 696.564 857.743 690.525 850.867 685.833C843.991 681.141 836.234 677.894 828.066 676.286C763.58 663.531 666.363 654.2 666.363 654.2C666.363 654.2 636.458 583.044 612.644 548.555H604.123C604.123 548.555 634.363 631.882 638.262 652.235C638.34 652.633 638.329 653.044 638.229 653.438C638.13 653.831 637.944 654.198 637.686 654.511C637.428 654.825 637.104 655.077 636.736 655.25C636.369 655.423 635.968 655.513 635.562 655.512H372.301C370.723 655.513 369.179 655.062 367.849 654.214C366.519 653.365 365.459 652.154 364.795 650.723L350.215 619.349C349.885 618.635 349.393 618.009 348.779 617.52C348.164 617.031 347.443 616.692 346.674 616.53C345.905 616.368 345.109 616.389 344.35 616.589C343.59 616.79 342.888 617.165 342.299 617.685C304.828 650.836 274.869 687.016 263.999 703.583C259.784 710.01 258.099 717.771 259.268 725.367L271.229 803.159H899.638C896.646 777.444 888.752 736.075 868.07 703.583Z" fill="#9063CD"/>
<path d="M260.819 822.534H907.123C909.148 822.534 910.79 821.086 910.79 819.294V789.48C910.79 787.693 909.17 786.24 907.123 786.24H260.819C258.794 786.24 257.152 787.687 257.152 789.48V819.321C257.163 821.086 258.805 822.534 260.819 822.534Z" fill="#FF7F41"/>
<path d="M855.996 736.236C863.579 732.065 864.221 718.672 857.429 706.322C850.636 693.972 838.983 687.342 831.399 691.513C823.816 695.683 823.174 709.076 829.966 721.426C836.759 733.776 848.413 740.407 855.996 736.236Z" fill="#00C389"/>
<path d="M426.882 703.732H470.865C474.426 703.732 477.312 700.847 477.312 697.287C477.312 693.728 474.426 690.843 470.865 690.843H426.882C423.321 690.843 420.434 693.728 420.434 697.287C420.434 700.847 423.321 703.732 426.882 703.732Z" fill="#F5B6CD"/>
<path d="M808.401 863.392C839.422 835.705 845.151 791.504 821.197 764.666C797.243 737.828 752.677 738.517 721.657 766.204C690.636 793.891 684.907 838.092 708.86 864.93C732.814 891.768 777.38 891.08 808.401 863.392Z" fill="#2C2A29"/>
<path d="M419.741 863.385C450.761 835.697 456.49 791.496 432.537 764.658C408.583 737.82 364.017 738.509 332.996 766.196C301.976 793.883 296.246 838.085 320.2 864.922C344.154 891.76 388.72 891.072 419.741 863.385Z" fill="#2C2A29"/>
<path d="M402.958 844.582C421.975 827.609 425.487 800.511 410.801 784.057C396.116 767.603 368.794 768.024 349.777 784.998C330.76 801.971 327.249 829.069 341.934 845.523C356.62 861.977 383.941 861.555 402.958 844.582Z" fill="#00C389"/>
<path d="M791.619 844.592C810.636 827.619 814.147 800.52 799.461 784.067C784.776 767.613 757.454 768.034 738.437 785.007C719.42 801.981 715.909 829.079 730.595 845.533C745.28 861.986 772.602 861.565 791.619 844.592Z" fill="#00C389"/>
<path d="M538.925 589.348C547.475 576.341 542.898 558.233 528.703 548.902C514.509 539.57 496.07 542.549 487.52 555.556C478.97 568.562 483.546 586.67 497.741 596.001C511.936 605.333 530.375 602.354 538.925 589.348Z" fill="#B28038"/>
<path d="M501.747 638.894C503.566 638.897 505.331 638.28 506.752 637.144C508.173 636.009 509.164 634.423 509.563 632.648C509.961 630.873 509.742 629.016 508.943 627.382C508.143 625.748 506.811 624.436 505.165 623.661C504.889 623.531 493.647 617.98 484.234 604.837C471.588 587.184 467.937 564.617 473.386 537.779C473.646 536.732 473.692 535.642 473.52 534.577C473.349 533.511 472.963 532.491 472.387 531.578C471.81 530.666 471.055 529.879 470.166 529.266C469.278 528.653 468.275 528.226 467.217 528.012C466.159 527.797 465.068 527.798 464.011 528.016C462.954 528.234 461.952 528.663 461.065 529.279C460.178 529.894 459.425 530.683 458.851 531.597C458.277 532.512 457.895 533.533 457.726 534.599C449.691 574.181 460.966 600.128 471.809 614.929C483.738 631.183 497.794 637.863 498.388 638.149C499.44 638.639 500.586 638.893 501.747 638.894Z" fill="#FF7F41"/>
<path d="M451.694 573.248C451.834 573.248 451.969 573.248 452.11 573.248C453.479 573.139 454.75 572.491 455.642 571.446C456.534 570.401 456.974 569.045 456.867 567.675C455.603 551.702 458.228 534.492 464.67 516.516C465.136 515.222 465.069 513.796 464.484 512.551C463.899 511.307 462.843 510.345 461.549 509.879C460.255 509.413 458.829 509.48 457.584 510.065C456.339 510.651 455.378 511.706 454.912 513C447.973 532.365 445.154 551.027 446.537 568.469C446.637 569.769 447.224 570.982 448.18 571.868C449.136 572.754 450.391 573.247 451.694 573.248Z" fill="#00C389"/>
<path d="M493.318 645.591C494.447 645.59 495.545 645.22 496.446 644.538C497.346 643.855 497.998 642.897 498.304 641.81C498.609 640.722 498.551 639.565 498.139 638.513C497.726 637.462 496.981 636.574 496.018 635.984C495.834 635.871 481.254 626.804 469.963 608.309C469.246 607.137 468.094 606.297 466.759 605.975C465.424 605.652 464.015 605.873 462.843 606.59C461.67 607.306 460.831 608.458 460.508 609.793C460.186 611.129 460.407 612.537 461.123 613.709C473.807 634.462 489.948 644.419 490.628 644.83C491.437 645.327 492.368 645.59 493.318 645.591Z" fill="#00C389"/>
<path d="M483.88 449.615C522.042 449.615 552.978 418.678 552.978 380.516C552.978 342.354 522.042 311.418 483.88 311.418C445.718 311.418 414.781 342.354 414.781 380.516C414.781 418.678 445.718 449.615 483.88 449.615Z" fill="#FDDA24"/>
<path d="M706.644 416.906C692.8 416.896 679.156 420.205 666.856 426.557C654.556 432.908 643.958 442.117 635.952 453.41C628.48 451.827 620.749 451.933 613.323 453.719C605.896 455.505 598.963 458.927 593.028 463.735C587.093 468.543 582.307 474.615 579.018 481.509C575.729 488.403 574.022 495.944 574.02 503.582H793.297C793.297 480.598 784.169 458.555 767.918 442.301C751.668 426.046 729.628 416.912 706.644 416.906Z" fill="#59CBE8"/>
</svg>
