<svg width="1080" height="1080" viewBox="0 0 1080 1080" fill="none" xmlns="http://www.w3.org/2000/svg">
<path d="M452.56 633.036C451.808 633.037 451.056 632.992 450.309 632.901C445.331 632.31 440.792 629.766 437.69 625.829C434.589 621.892 433.178 616.883 433.768 611.906C435.902 593.935 440.082 576.267 446.226 559.245L446.269 559.126C452.53 542.188 460.691 526.014 470.596 510.915L471.336 509.754C471.72 509.149 472.227 508.366 472.848 507.508L478.572 499.5C479.431 498.376 480.306 497.264 481.18 496.152L482.541 494.424L484.771 491.583C485.068 491.2 485.511 490.627 486.078 489.963L487.158 488.694C487.898 487.857 488.622 487.015 489.318 486.172C491.311 483.856 493.557 481.242 496.09 478.693L500.89 473.682L505.27 469.503C507.91 466.884 510.524 464.643 513.057 462.45C513.769 461.835 514.488 461.219 515.217 460.598C516.837 459.14 518.376 457.941 519.736 456.877L520.865 455.992L526.589 451.521L531.676 447.908L532.756 447.147C534.214 446.099 535.872 444.916 537.783 443.745L540.051 442.287C542.897 440.451 545.845 438.555 549.15 436.735L555.204 433.29L560.571 430.542C563.784 428.814 566.846 427.442 569.816 426.108C570.756 425.687 571.69 425.271 572.624 424.839C574.595 423.9 576.404 423.192 578.024 422.566L579.379 422.026L579.482 421.983L586.162 419.369L595.428 416.232C595.898 416.07 596.595 415.827 597.464 415.584L598.798 415.211C615.995 410.083 633.717 406.919 651.626 405.777C653.786 405.577 655.746 405.534 657.48 405.496L658.803 405.464H658.873L666.4 405.27L676.941 405.54C677.6 405.54 678.561 405.572 679.674 405.675L685.813 406.144L687.115 406.242C688.891 406.371 690.895 406.517 693.103 406.841L700.577 407.786C701.398 407.883 702.289 408.002 703.277 408.196L706.139 408.736C723.971 411.799 741.391 416.905 758.055 423.954C760.355 424.913 762.443 426.318 764.198 428.087C765.953 429.856 767.341 431.955 768.282 434.263C769.223 436.571 769.698 439.042 769.68 441.535C769.662 444.027 769.151 446.491 768.177 448.785C767.202 451.079 765.784 453.158 764.003 454.901C762.223 456.645 760.115 458.019 757.801 458.945C755.487 459.871 753.013 460.33 750.521 460.296C748.029 460.261 745.568 459.735 743.28 458.746C729.279 452.826 714.642 448.541 699.659 445.975L696.268 445.37L696.014 445.338L687.693 444.258C686.829 444.128 685.624 444.036 684.355 443.944L682.827 443.831L676.444 443.345H676.153L666.352 443.102L659.872 443.264L658.333 443.302C657.064 443.334 655.865 443.356 655.001 443.448L654.299 443.502C639.104 444.448 624.067 447.126 609.479 451.483L607.789 451.969L607.06 452.217L598.717 455.041L593.398 457.142L591.778 457.79C590.655 458.227 589.591 458.643 588.856 458.994L588.586 459.124C587.506 459.624 586.408 460.121 585.292 460.614C582.787 461.737 580.432 462.774 578.386 463.903L577.997 464.108L572.845 466.743L567.472 469.821C565.312 471.009 562.985 472.521 560.544 474.071C559.669 474.611 558.8 475.194 557.92 475.75L557.639 475.929C556.84 476.415 555.83 477.138 554.761 477.905C554.361 478.191 553.962 478.477 553.557 478.758L548.88 482.085L544.36 485.632C543.918 485.989 543.469 486.334 543.021 486.712C542.049 487.468 541.131 488.187 540.505 488.759L540.262 488.975C539.437 489.695 538.609 490.415 537.778 491.135C535.618 492.998 533.571 494.758 531.838 496.481L531.546 496.762L527.35 500.763L523.03 505.272C521.41 506.892 519.753 508.82 517.992 510.867C517.188 511.806 516.372 512.746 515.562 513.675L514.617 514.755L514.153 515.354L512.295 517.719L510.837 519.555C510.151 520.425 509.466 521.294 508.791 522.174L503.391 529.734L503.277 529.918L502.23 531.538C485.365 556.959 474.757 586.011 471.271 616.318C470.738 620.911 468.539 625.149 465.091 628.23C461.642 631.311 457.184 633.021 452.56 633.036Z" fill="#FF7F41"/>
<path d="M917.074 619.38C913.804 619.376 910.646 618.184 908.188 616.027C905.73 613.87 904.138 610.893 903.709 607.651C903.671 607.387 903.639 607.111 903.606 606.852C903.574 606.593 903.536 606.312 903.498 606.026L902.472 600.275C902.348 599.589 902.224 598.898 902.105 598.212C901.787 596.408 901.484 594.707 901.112 593.217L901.047 592.947L899.162 584.782C899.13 584.642 899.011 584.242 898.93 583.929L896.187 574.274L895.004 570.764C894.702 569.871 894.401 568.971 894.102 568.064C893.562 566.476 893.066 564.975 892.536 563.517C892.083 562.376 891.633 561.235 891.186 560.093C889.728 556.362 888.351 552.836 886.775 549.536L886.656 549.283L884.998 545.616C884.89 545.384 884.787 545.146 884.679 544.909C884.571 544.671 884.458 544.423 884.345 544.18L879.485 534.703L874.236 525.577L872.076 522.234C867.313 514.512 861.605 506.72 854.115 497.729L849.088 491.94C847.949 490.72 846.793 489.51 845.637 488.3L843.801 486.378C843.445 486.011 843.094 485.638 842.721 485.26C842.225 484.72 841.755 484.24 841.371 483.872L834 476.852C833.876 476.739 833.73 476.62 833.59 476.501L832.947 475.961L826.673 470.524C826.214 470.113 825.566 469.606 824.885 469.071L817.925 463.601C817.439 463.234 816.845 462.829 816.256 462.402L815.036 461.533L812.789 459.913C811.418 458.93 810.089 458.001 808.815 457.105C807.796 456.457 806.779 455.805 805.764 455.15C802.383 452.99 799.187 450.911 795.968 449.145L795.731 449.01L792.258 447.017L791.54 446.607C791.34 446.488 791.146 446.369 790.941 446.261L781.761 441.569C781.502 441.434 781.01 441.218 780.805 441.121L778.866 440.246L771.776 437.044L762.299 433.301C762.056 433.21 761.727 433.075 761.608 433.037L761.37 432.961L753.837 430.38C742.881 426.929 733.242 424.548 724.359 423.095L724.17 423.063L719.92 422.302C719.715 422.264 719.218 422.204 718.889 422.161L709.017 420.914C707.43 420.768 705.826 420.649 704.157 420.52C703.223 420.449 702.289 420.385 701.36 420.309L697.683 420.028L686.219 419.737L678.448 419.931L677.039 419.963C676.299 419.963 675.559 420.001 674.819 420.028L671.039 420.314C670.11 420.39 669.182 420.455 668.247 420.525C666.563 420.649 664.97 420.768 663.387 420.914L653.457 422.177C653.235 422.204 652.717 422.264 652.447 422.318L652.209 422.361L644.261 423.781L643.262 423.959C642.457 424.1 641.701 424.235 641.172 424.37L640.902 424.435L631.338 426.643L625.857 428.22L623.735 428.825C622.002 429.311 620.366 429.775 618.951 430.283L618.686 430.38L610.748 433.08C610.57 433.139 610.365 433.226 610.165 433.307L600.596 437.087L590.406 441.725L581.48 446.294C581.264 446.413 581.054 446.537 580.843 446.661L580.136 447.066L576.426 449.194C573.229 450.949 570.059 452.974 566.706 455.134C565.669 455.798 564.638 456.467 563.595 457.126C562.289 458.028 560.987 458.957 559.616 459.934L557.369 461.554C556.964 461.851 556.554 462.137 556.143 462.429C555.539 462.856 554.966 463.261 554.491 463.622L547.611 469.022C546.893 469.562 546.218 470.102 545.732 470.551L545.538 470.718L539.457 475.945L538.804 476.485C538.674 476.593 538.545 476.701 538.421 476.82L536.882 478.283L531.023 483.872C530.655 484.223 530.18 484.726 529.678 485.26L528.56 486.432C526.046 488.897 522.667 490.282 519.146 490.292C515.624 490.301 512.238 488.934 509.71 486.483C507.183 484.031 505.713 480.688 505.615 477.168C505.516 473.648 506.798 470.229 509.185 467.64C509.471 467.343 509.757 467.046 510.038 466.744C510.708 466.036 511.469 465.232 512.333 464.4L519.683 457.38C520.277 456.808 520.822 456.338 521.222 455.998L521.573 455.69L521.708 455.576L527.756 450.338C528.89 449.323 529.975 448.475 530.936 447.719L537.994 442.174C538.901 441.482 539.776 440.867 540.548 440.321L541.585 439.582L541.709 439.495L543.912 437.924C545.387 436.844 546.909 435.764 548.475 434.684L548.886 434.414L552.05 432.383C555.62 430.078 559.313 427.696 563.309 425.498L566.808 423.49L567.3 423.209C567.84 422.906 568.38 422.604 568.887 422.318L569.044 422.237L578.381 417.452C578.699 417.29 579.012 417.134 579.331 416.983L580.497 416.443L590.342 412.009L600.213 408.116C600.753 407.889 601.536 407.576 602.421 407.3L609.89 404.773C612.185 403.952 614.426 403.321 616.413 402.764L618.341 402.224L624.923 400.378L634.708 398.12C636.123 397.769 637.408 397.543 638.547 397.343L639.395 397.186L647.355 395.766C648.386 395.572 649.32 395.447 650.174 395.345L660.633 394.022C662.54 393.844 664.413 393.703 666.233 393.568L668.933 393.363L673.523 393.023L676.374 392.942L677.719 392.909L686.213 392.693L699.389 393.05L703.434 393.358L706.134 393.563C707.948 393.698 709.827 393.838 711.734 394.016L712.187 394.065L722.231 395.339C722.922 395.426 723.932 395.55 725.034 395.761L728.814 396.436C738.998 398.104 749.874 400.788 762.105 404.644L762.369 404.73L769.929 407.3C770.847 407.597 771.614 407.9 772.235 408.148L782.598 412.252L791.821 416.421C792.566 416.75 793.441 417.155 794.359 417.641L803.415 422.28C804.057 422.615 804.608 422.939 805.035 423.193L805.51 423.468L805.623 423.533L809.025 425.488C813.043 427.696 816.758 430.094 820.365 432.41C821.402 433.075 822.434 433.744 823.47 434.403L823.865 434.657C825.441 435.737 826.97 436.817 828.444 437.897L830.647 439.457L830.766 439.544C831.111 439.798 831.462 440.046 831.813 440.289C832.575 440.829 833.433 441.445 834.335 442.12L834.486 442.238L841.506 447.757C842.435 448.492 843.488 449.312 844.595 450.301L850.767 455.647L851.135 455.965C851.534 456.305 852.074 456.775 852.657 457.331L859.985 464.319C860.876 465.172 861.643 465.982 862.318 466.695L863.16 467.581L863.279 467.705L865.11 469.622C866.395 470.972 867.686 472.322 868.955 473.677L869.279 474.039L874.797 480.395C883.027 490.261 889.642 499.295 895.026 508.021L897.477 511.882L903.336 522.099L908.569 532.327C908.823 532.867 909.06 533.369 909.298 533.893L911.193 538.078C913.159 542.219 914.768 546.329 916.323 550.309C916.777 551.459 917.225 552.614 917.684 553.765L917.835 554.159C918.5 555.984 919.104 557.782 919.688 559.516C919.968 560.369 920.255 561.218 920.546 562.064L922.053 566.6L924.877 576.531C925.077 577.228 925.32 578.086 925.541 579.085L927.312 586.764C927.912 589.162 928.322 591.489 928.684 593.552C928.797 594.184 928.905 594.81 929.024 595.442L930.164 601.884C930.245 602.424 930.315 602.964 930.385 603.504L930.461 604.114C930.694 605.872 930.578 607.658 930.121 609.371C929.664 611.084 928.873 612.69 927.795 614.098C926.717 615.505 925.372 616.687 923.838 617.575C922.303 618.462 920.608 619.039 918.851 619.272C918.261 619.345 917.668 619.381 917.074 619.38Z" fill="#FDDA24"/>
<path d="M338.636 380.117H831.116C834.182 380.117 837.123 381.335 839.291 383.503C841.459 385.672 842.677 388.612 842.677 391.679V712.363H327.074V391.679C327.074 388.612 328.292 385.672 330.46 383.503C332.629 381.335 335.569 380.117 338.636 380.117Z" fill="#2C2A29"/>
<path d="M813.615 409.682H356.122C353.897 409.682 352.094 411.485 352.094 413.71V689.672C352.094 691.897 353.897 693.7 356.122 693.7H813.615C815.84 693.7 817.644 691.897 817.644 689.672V413.71C817.644 411.485 815.84 409.682 813.615 409.682Z" fill="#59CBE8"/>
<path d="M904.905 743.97H264.832L327.072 712.363H842.664L904.905 743.97Z" fill="#FDDA24"/>
<path d="M264.83 743.709H904.902V764.051C904.902 766.402 903.968 768.658 902.305 770.321C900.642 771.983 898.387 772.918 896.036 772.918H273.691C271.339 772.918 269.084 771.983 267.421 770.321C265.758 768.658 264.824 766.402 264.824 764.051V743.709H264.83Z" fill="#00C389"/>
<path d="M686.054 891.783H685.023L681.572 891.734C671.493 891.551 661.433 890.771 651.446 889.396C631.411 886.645 611.785 881.474 592.996 873.995C555.335 858.969 521.841 835.103 495.343 804.411L493.069 801.765C492.373 800.955 491.768 800.199 491.233 799.535L490.574 798.725L488.954 796.705L487.334 794.956L349.634 647.352C347.941 645.537 346.622 643.406 345.753 641.081C344.883 638.757 344.48 636.283 344.566 633.803C344.652 631.322 345.226 628.883 346.255 626.624C347.284 624.365 348.748 622.331 350.563 620.638C352.378 618.945 354.509 617.626 356.834 616.757C359.158 615.887 361.632 615.484 364.112 615.57C366.593 615.656 369.032 616.23 371.291 617.259C373.55 618.288 375.584 619.752 377.277 621.567L514.977 769.203L517.493 771.903L519.805 774.754L520.658 775.834C521.041 776.309 521.403 776.763 521.689 777.087L524.006 779.787C546.531 805.853 574.993 826.12 606.993 838.879C622.942 845.225 639.602 849.613 656.608 851.947C665.097 853.113 673.648 853.777 682.215 853.934L685.952 853.988C686.146 853.988 686.697 853.988 687.097 853.988L688.528 853.951L695.812 853.772C696.892 853.772 698.221 853.659 699.657 853.551L701.493 853.411L708.416 852.871C713.414 852.489 718.359 854.108 722.163 857.373C725.968 860.637 728.319 865.279 728.701 870.277C729.083 875.276 727.463 880.221 724.199 884.025C720.934 887.829 716.292 890.181 711.294 890.563L704.198 891.103L702.611 891.221C700.705 891.373 698.555 891.54 696.196 891.562L689.176 891.734H688.279C687.626 891.756 686.881 891.783 686.054 891.783Z" fill="#FF7F41"/>
<path d="M869.885 768.247C867.012 768.246 864.192 767.48 861.713 766.029C859.233 764.578 857.185 762.494 855.776 759.99C854.368 757.487 853.65 754.654 853.697 751.781C853.745 748.909 854.555 746.101 856.045 743.645C861.291 734.979 865.927 725.957 869.917 716.645C873.75 707.36 876.922 697.816 879.411 688.084L881.344 679.714L882.516 673.126C882.607 672.586 882.704 672.046 882.802 671.544C882.926 670.869 883.039 670.227 883.12 669.708L884.357 659.945C884.357 659.718 884.395 659.486 884.411 659.254C884.427 659.022 884.449 658.714 884.476 658.433L885.091 650.333C885.091 650.171 885.091 650.009 885.129 649.847V649.815L885.302 642.967C885.302 642.427 885.302 641.931 885.34 641.407C885.34 640.743 885.377 640.073 885.388 639.409L885.161 630.65C885.161 629.835 885.129 629.03 885.081 628.576L885.048 628.204L884.4 619.645C884.4 619.299 884.298 618.63 884.211 617.982C884.157 617.566 884.103 617.155 884.054 616.74L883.077 609.083L881.333 599.325L881.268 599.049C881.192 598.736 881.117 598.428 881.052 598.115L879.243 590.28C879.205 590.118 879.168 589.961 879.135 589.804V589.745L876.586 580.759C876.538 580.592 876.495 580.419 876.441 580.252L876.349 579.987L873.751 572.308C873.649 572.017 873.546 571.72 873.449 571.423C873.416 571.315 873.379 571.207 873.341 571.093L869.717 561.913L865.819 553.273L861.45 544.736C861.132 544.158 860.797 543.58 860.462 543.008C860.197 542.554 859.922 542.096 859.673 541.637L857.659 538.132C856.549 536.286 855.817 534.237 855.508 532.105C855.199 529.973 855.318 527.801 855.859 525.716C856.399 523.631 857.35 521.674 858.656 519.961C859.961 518.247 861.596 516.811 863.463 515.737C865.331 514.663 867.393 513.972 869.531 513.705C871.669 513.438 873.838 513.6 875.912 514.181C877.987 514.762 879.924 515.752 881.611 517.091C883.299 518.43 884.702 520.092 885.739 521.981L887.824 525.604C888.045 525.993 888.266 526.381 888.493 526.765C888.952 527.559 889.471 528.455 889.989 529.411L890.183 529.778L895.189 539.601L899.704 549.628L903.435 559.084C903.786 559.959 904.034 560.704 904.218 561.244C904.256 561.368 904.299 561.492 904.342 561.617L904.412 561.822L906.983 569.419C907.339 570.429 907.588 571.315 907.771 571.968L910.471 581.397C910.579 581.807 910.676 582.217 910.768 582.633L912.723 591.111L912.804 591.462C912.939 592.002 913.133 592.823 913.295 593.79L915.196 604.546L916.276 612.787C916.309 613.1 916.352 613.413 916.395 613.726C916.541 614.806 916.719 616.184 916.805 617.717L917.399 625.552C917.556 627.173 917.588 628.685 917.615 629.872L917.848 639.015V639.258C917.848 640.338 917.815 641.32 917.788 642.276C917.788 642.724 917.788 643.173 917.75 643.621L917.567 651.057C917.567 651.516 917.518 651.969 917.48 652.423L916.784 661.538C916.746 662.116 916.703 662.694 916.643 663.271L916.589 663.73L915.272 674.098C915.104 675.286 914.905 676.372 914.732 677.338C914.656 677.749 914.581 678.165 914.51 678.58L913.069 686.556L910.909 695.904C908.021 707.225 904.331 718.327 899.866 729.124L899.806 729.27C895.211 739.999 889.87 750.392 883.822 760.374C882.38 762.781 880.337 764.772 877.894 766.153C875.451 767.533 872.691 768.255 869.885 768.247Z" fill="#9063CD"/>
<path d="M686.305 873.829C685.457 873.829 684.609 873.829 683.767 873.829H682.53H682.276C681.915 873.829 681.553 873.829 681.196 873.829C680.273 873.829 679.231 873.829 678.048 873.748L671.935 873.472L670.105 873.337C659.214 872.592 648.389 871.094 637.705 868.855C627.026 866.584 616.514 863.586 606.244 859.88H606.169C595.932 856.126 585.961 851.685 576.323 846.586L576.231 846.537C566.621 841.387 557.37 835.594 548.54 829.198C546.531 827.74 544.83 825.9 543.532 823.785C542.234 821.669 541.366 819.318 540.976 816.867C540.587 814.416 540.684 811.912 541.262 809.498C541.841 807.084 542.889 804.808 544.347 802.8C545.805 800.791 547.644 799.089 549.76 797.791C551.876 796.494 554.226 795.625 556.677 795.236C559.129 794.847 561.633 794.944 564.046 795.522C566.46 796.101 568.736 797.149 570.745 798.607C578.184 803.983 585.976 808.854 594.067 813.187C610.268 821.812 627.606 828.108 645.567 831.887C654.54 833.762 663.632 835.014 672.778 835.634L674.463 835.759L680.025 836.007C680.403 836.007 680.98 836.007 681.585 836.007H683.081H684.431C685.047 836.007 685.662 836.007 686.278 836.007L693.508 835.823L695.047 835.786C695.587 835.786 696.127 835.786 696.522 835.742L705.999 835.024C706.134 835.024 706.274 835.024 706.409 834.992L706.722 834.949L714.649 833.944C715.773 833.831 717.204 833.572 718.716 833.296L720.757 832.929L725.817 832.027L734.937 829.932C735.229 829.867 735.904 829.678 736.492 829.505L744.706 827.178L744.992 827.075L753.859 824.078L762.72 820.579L763.104 820.406L771.447 816.626L771.835 816.421L772.554 816.054L779.206 812.647C781.418 811.487 783.838 810.776 786.325 810.557C788.813 810.338 791.32 810.614 793.7 811.369C796.081 812.124 798.288 813.343 800.195 814.957C802.101 816.57 803.669 818.545 804.807 820.768C805.946 822.991 806.632 825.417 806.828 827.907C807.023 830.397 806.723 832.9 805.944 835.273C805.166 837.647 803.925 839.842 802.294 841.733C800.662 843.623 798.672 845.172 796.438 846.289L789.218 849.988C788.678 850.285 788.084 850.571 787.506 850.846L787.209 850.981L778.413 854.961C778.035 855.134 777.651 855.301 777.268 855.463L776.031 855.955L766.419 859.735L757.239 862.845C756.629 863.056 755.738 863.385 754.658 863.65L746.931 865.847C745.813 866.166 744.436 866.56 742.843 866.927L732.896 869.195L727.242 870.205C726.659 870.302 726.081 870.41 725.498 870.513C723.511 870.875 721.264 871.285 718.775 871.555L711.652 872.462C710.459 872.63 709.395 872.711 708.574 872.765L699.092 873.488C697.855 873.569 696.721 873.591 695.814 873.613C695.452 873.613 695.091 873.613 694.734 873.613H694.561L686.607 873.812L686.305 873.829Z" fill="#9063CD"/>
<path d="M452.518 728.303C450.844 728.305 449.186 727.961 447.65 727.293C446.114 726.625 444.733 725.647 443.592 724.42L328.572 601.133C328.073 600.624 327.607 600.083 327.179 599.513L325.327 597.094C324.911 596.554 324.511 596.014 324.247 595.706L323.95 595.36C314.95 584.561 303.46 576.111 290.47 570.736C284.012 568.065 277.251 566.193 270.339 565.163L269.151 564.985C268.713 564.915 268.254 564.839 268 564.818L265.09 564.548L263.956 564.445C263.486 564.397 263.032 564.353 262.719 564.337L259.846 564.251L258.766 564.218C258.291 564.218 257.811 564.186 257.325 564.181L254.263 564.256C253.291 564.256 252.103 564.353 250.893 564.451L249.225 564.58C235.289 565.889 221.886 570.587 210.183 578.264C198.414 585.968 188.692 596.416 181.854 608.709C180.279 611.538 177.644 613.626 174.53 614.512C171.415 615.399 168.076 615.012 165.247 613.437C162.417 611.861 160.33 609.227 159.443 606.112C158.557 602.997 158.943 599.658 160.519 596.829C169.29 581.076 181.755 567.689 196.845 557.819C211.925 547.928 229.203 541.888 247.162 540.232L247.448 540.205L248.987 540.091C250.504 539.967 252.227 539.832 254.063 539.816L257.238 539.74C258.091 539.74 258.896 539.767 259.603 539.789H260.516H260.613L263.713 539.886C264.696 539.924 265.565 540.01 266.332 540.086L267.174 540.161H267.325L270.306 540.442C271.348 540.539 272.277 540.685 273.006 540.804L273.816 540.928H273.913C282.814 542.245 291.519 544.65 299.833 548.089C316.414 554.952 331.086 565.727 342.596 579.495C343.46 580.472 344.184 581.423 344.756 582.195L346.511 584.485L401.494 643.426L461.434 707.686C463.05 709.425 464.124 711.598 464.524 713.939C464.924 716.28 464.633 718.686 463.686 720.864C462.74 723.042 461.178 724.896 459.194 726.2C457.209 727.504 454.888 728.201 452.513 728.206L452.518 728.303Z" fill="#FDDA24"/>
<path d="M235.932 747.262C234.287 747.263 232.65 747.027 231.072 746.56L230.062 746.274C229.263 746.053 228.356 745.799 227.362 745.47L227.135 745.399L223.317 744.098C222.572 743.817 221.838 743.526 221.103 743.234L220.023 742.818C219.008 742.435 218.139 742.046 217.41 741.706L215.79 740.961C210.766 738.631 205.94 735.895 201.361 732.78C192.186 726.485 184.118 718.711 177.488 709.776L177.455 709.727C170.853 700.784 165.786 690.803 162.465 680.194L162.422 680.059C160.805 674.765 159.624 669.347 158.89 663.859L158.458 660.274L158.096 655.133L158.015 651.839C157.972 650.802 158.015 649.922 158.015 649.323L158.075 647.163C158.267 641.64 158.902 636.141 159.975 630.72L160.002 630.585C161.13 625.186 162.692 619.888 164.674 614.741C172.777 593.821 187.693 576.241 207.015 564.84L209.029 563.679C209.51 563.403 210.217 562.993 211.092 562.561L214.775 560.698L217.971 559.251C219.051 558.775 220.007 558.403 220.79 558.095L221.697 557.739L222.097 557.582C227.268 555.623 232.59 554.089 238.011 552.997C242.394 552.237 246.902 553.217 250.574 555.728C254.247 558.239 256.795 562.084 257.677 566.445C258.559 570.805 257.705 575.338 255.297 579.079C252.889 582.82 249.117 585.474 244.782 586.477C241.24 587.192 237.76 588.189 234.377 589.458C233.966 589.626 233.556 589.782 233.14 589.944C232.724 590.106 232.211 590.306 231.947 590.419L229.247 591.651L226.217 593.211L225.726 593.497L224.376 594.275C218.104 597.964 212.496 602.681 207.787 608.229L207.755 608.272C203 613.815 199.226 620.128 196.593 626.94L196.566 626.999C193.912 633.801 192.451 641.009 192.246 648.307L192.192 650.3C192.192 650.392 192.192 650.478 192.192 650.57V650.808L192.267 653.842L192.575 657.703L192.786 659.323C193.266 662.919 194.038 666.469 195.092 669.94C199.482 684.003 208.481 696.178 220.639 704.5C223.645 706.553 226.813 708.359 230.111 709.9L231.758 710.645L232.13 710.812L232.335 710.893L233.723 711.433L235.138 711.973L237.968 712.929C238.313 713.037 238.788 713.172 239.285 713.307L240.781 713.734C244.727 714.892 248.122 717.433 250.345 720.893C252.568 724.352 253.468 728.497 252.881 732.567C252.294 736.636 250.26 740.358 247.15 743.049C244.041 745.739 240.065 747.218 235.953 747.214L235.932 747.262Z" fill="#FF7F41"/>
<path d="M391.3 506.066H262.85C250.11 506.066 239.781 516.395 239.781 529.135V806.091C239.781 818.831 250.11 829.159 262.85 829.159H391.3C404.04 829.159 414.369 818.831 414.369 806.091V529.135C414.369 516.395 404.04 506.066 391.3 506.066Z" fill="#9063CD"/>
<path d="M327.073 819.384C334.081 819.384 339.763 813.702 339.763 806.694C339.763 799.685 334.081 794.004 327.073 794.004C320.064 794.004 314.383 799.685 314.383 806.694C314.383 813.702 320.064 819.384 327.073 819.384Z" fill="white"/>
<path d="M398.77 540.811H255.373C253.583 540.811 252.133 542.261 252.133 544.051V781.424C252.133 783.213 253.583 784.664 255.373 784.664H398.77C400.559 784.664 402.01 783.213 402.01 781.424V544.051C402.01 542.261 400.559 540.811 398.77 540.811Z" fill="#59CBE8"/>
<path d="M266.712 751.14C256.004 751.14 244.41 749.698 232.044 746.82L231.563 746.707L231.088 746.566L230.078 746.28C229.279 746.059 228.372 745.805 227.378 745.475L227.151 745.405L223.334 744.104C222.588 743.823 221.854 743.531 221.12 743.24L220.04 742.824C219.024 742.441 218.155 742.052 217.426 741.712L215.806 740.966C210.776 738.636 205.945 735.898 201.361 732.78C192.186 726.485 184.118 718.712 177.488 709.776L177.455 709.727C170.853 700.784 165.786 690.803 162.465 680.195L162.422 680.06C160.805 674.765 159.624 669.347 158.89 663.86L158.458 660.274L158.096 655.133L158.015 651.839C157.972 650.803 158.015 649.922 158.015 649.323L158.075 647.163C158.267 641.64 158.902 636.141 159.975 630.72L160.002 630.585C161.13 625.186 162.692 619.888 164.674 614.741C172.777 593.821 187.693 576.242 207.015 564.84L208.71 563.862C210.691 562.724 212.879 561.993 215.146 561.715C217.413 561.437 219.713 561.616 221.91 562.243C224.107 562.869 226.156 563.929 227.935 565.362C229.715 566.794 231.189 568.568 232.271 570.58C236.688 578.772 233.507 589.021 225.434 593.665L224.354 594.286C218.082 597.975 212.474 602.692 207.765 608.24L207.733 608.283C202.987 613.824 199.22 620.134 196.593 626.94L196.566 626.999C193.912 633.801 192.451 641.009 192.246 648.308L192.192 650.3C192.192 650.392 192.192 650.479 192.192 650.57V650.808L192.267 653.848L192.575 657.704L192.786 659.324C193.266 662.919 194.038 666.469 195.092 669.94C199.482 684.004 208.481 696.178 220.639 704.5C223.645 706.553 226.813 708.359 230.111 709.9L231.758 710.645L232.125 710.813L232.335 710.894L233.723 711.434L235.138 711.974L237.968 712.93C238.313 713.038 238.788 713.173 239.285 713.308C239.609 713.399 239.928 713.502 240.257 713.583C258.007 718.027 272.344 716.92 281.929 714.879C285.857 714.043 289.954 714.604 293.513 716.465C297.071 718.326 299.869 721.371 301.423 725.074C302.385 727.352 302.845 729.81 302.773 732.281C302.701 734.752 302.098 737.179 301.005 739.396C299.911 741.614 298.354 743.57 296.438 745.133C294.522 746.695 292.292 747.827 289.899 748.451C288.204 748.888 286.433 749.277 284.602 749.601C278.695 750.634 272.709 751.149 266.712 751.14Z" fill="#FF7F41"/>
<path d="M740.542 577.676H740.536C727.533 577.676 716.992 588.217 716.992 601.22V783.043C716.992 796.046 727.533 806.587 740.536 806.587H740.542C753.545 806.587 764.086 796.046 764.086 783.043V601.22C764.086 588.217 753.545 577.676 740.542 577.676Z" fill="#E4AC7B"/>
<path d="M743.981 681.48L835.69 690.12C856.858 692.118 872.712 709.706 871.81 730.178L868.468 805.778C867.99 816.641 865.187 827.275 860.249 836.963L856.42 844.474H716.992V681.48H743.981Z" fill="#E4AC7B"/>
<path d="M683.699 725.28C676.917 729.421 671.314 735.236 667.426 742.166C663.539 749.096 661.498 756.91 661.5 764.856C661.498 776.276 665.714 787.295 673.337 795.798L717.012 844.517V704.986L683.699 725.28Z" fill="#E4AC7B"/>
<path d="M705.961 711.709L716.988 806.587V704.986L705.961 711.709Z" fill="#CB913F"/>
<path d="M837.538 948.871H730.186C720.877 948.871 711.949 945.173 705.367 938.59C698.784 932.008 695.086 923.08 695.086 913.771V829.158H872.638V913.798C872.631 923.102 868.93 932.023 862.348 938.6C855.766 945.177 846.842 948.871 837.538 948.871Z" fill="#00C389"/>
<path d="M457.715 574.819C470.342 574.819 480.579 564.583 480.579 551.955C480.579 539.328 470.342 529.092 457.715 529.092C445.088 529.092 434.852 539.328 434.852 551.955C434.852 564.583 445.088 574.819 457.715 574.819Z" fill="white"/>
<path d="M584.867 574.819C597.495 574.819 607.731 564.583 607.731 551.955C607.731 539.328 597.495 529.092 584.867 529.092C572.24 529.092 562.004 539.328 562.004 551.955C562.004 564.583 572.24 574.819 584.867 574.819Z" fill="white"/>
<path d="M712.024 574.819C724.651 574.819 734.887 564.583 734.887 551.955C734.887 539.328 724.651 529.092 712.024 529.092C699.397 529.092 689.16 539.328 689.16 551.955C689.16 564.583 699.397 574.819 712.024 574.819Z" fill="white"/>
<path d="M294.301 529.092C297.826 529.092 300.684 526.234 300.684 522.709C300.684 519.184 297.826 516.326 294.301 516.326C290.776 516.326 287.918 519.184 287.918 522.709C287.918 526.234 290.776 529.092 294.301 529.092Z" fill="#FF7F41"/>
<path d="M348.693 520.15H316.001C314.587 520.15 313.441 521.296 313.441 522.71C313.441 524.124 314.587 525.27 316.001 525.27H348.693C350.106 525.27 351.252 524.124 351.252 522.71C351.252 521.296 350.106 520.15 348.693 520.15Z" fill="#2C2A29"/>
</svg>
