<svg width="1080" height="1080" viewBox="0 0 1080 1080" fill="none" xmlns="http://www.w3.org/2000/svg">
<path d="M306.76 379.706C310.913 379.706 314.896 378.056 317.833 375.119C320.77 372.183 322.42 368.199 322.42 364.046V363.544C322.42 350.708 316.259 338.353 305.513 329.643C299.238 324.616 291.951 321.005 284.15 319.059V308.34C284.15 304.186 282.5 300.203 279.564 297.266C276.627 294.33 272.644 292.68 268.49 292.68C264.337 292.68 260.354 294.33 257.417 297.266C254.48 300.203 252.83 304.186 252.83 308.34V318.357C243.927 320.099 235.576 323.965 228.487 329.626C217.741 338.337 211.58 350.686 211.58 363.528V366.503C211.58 379.339 217.741 391.694 228.487 400.404C238.428 408.461 251.453 412.9 265.164 412.9H268.836C280.716 412.9 291.1 419.947 291.1 427.982V433.117C291.1 441.18 280.694 448.2 268.836 448.2H265.142C253.478 448.2 243.229 441.379 242.894 433.517V433.431C242.936 429.277 241.326 425.278 238.418 422.312C235.511 419.345 231.544 417.656 227.391 417.614C223.238 417.573 219.238 419.183 216.272 422.09C213.305 424.998 211.616 428.964 211.574 433.117C211.574 433.182 211.574 433.247 211.574 433.312C211.574 433.377 211.574 433.388 211.574 433.431C211.574 433.577 211.574 433.728 211.574 433.879C211.812 446.439 217.935 458.481 228.471 467.019C235.559 472.682 243.91 476.548 252.814 478.288V491.578C252.814 495.731 254.464 499.714 257.401 502.651C260.338 505.588 264.321 507.238 268.474 507.238C272.627 507.238 276.61 505.588 279.547 502.651C282.484 499.714 284.134 495.731 284.134 491.578V477.624C291.934 475.674 299.221 472.062 305.496 467.035C316.242 458.33 322.404 445.975 322.404 433.134V427.998C322.404 415.163 316.242 402.802 305.496 394.097C295.555 386.035 282.53 381.596 268.82 381.596H265.142C253.262 381.596 242.878 374.576 242.878 366.519V363.544C242.878 355.509 253.284 348.467 265.142 348.467H268.814C280.694 348.467 291.078 355.487 291.078 363.544V364.046C291.078 366.104 291.484 368.143 292.273 370.044C293.061 371.945 294.216 373.673 295.673 375.127C297.129 376.581 298.858 377.735 300.761 378.52C302.663 379.306 304.702 379.709 306.76 379.706Z" fill="#00C389"/>
<path d="M674.958 749.31H544.742L546.859 435.662H702.568L674.958 749.31Z" fill="#F5B6CD"/>
<path d="M545.898 578.26H344.359L336.508 435.662H546.859L545.898 578.26Z" fill="#FF7F41"/>
<path d="M544.741 749.308H372.665L363.285 578.949H545.892L544.741 749.308Z" fill="#9063CD"/>
<path d="M626.726 707.751L595.379 707.621L595.644 644.943L630.16 645.089L626.726 707.751Z" fill="#2C2A29"/>
<path d="M636.531 564.445L595.977 564.278L596.29 489.871L642.308 490.066L636.531 564.445Z" fill="#2C2A29"/>
<path d="M444.766 707.719H385.83L382.066 645.02H444.766V707.719Z" fill="#2C2A29"/>
<path d="M718.378 435.661H315.322L312.59 411.037H723.125L718.378 435.661Z" fill="#FDDA24"/>
<path d="M520.641 645.02H465.48V749.31H520.641V645.02Z" fill="#2C2A29"/>
<path d="M468.704 578.26H520.927L520.743 469.568H466.598L468.704 578.26Z" fill="#2C2A29"/>
<path d="M372.619 578.26H441.955L438.866 469.568H367.613L372.619 578.26Z" fill="#2C2A29"/>
<path d="M551.178 600.324H331.954L330.453 578.26H551.329L551.178 600.324Z" fill="#FDDA24"/>
<path d="M286.367 771.844C283.472 771.846 280.615 771.183 278.017 769.906C275.419 768.629 273.149 766.772 271.382 764.478C244.526 729.538 225.06 689.498 214.169 646.796C208.795 625.469 205.625 603.647 204.708 581.672C203.808 559.735 205.122 537.763 208.629 516.089C209.457 511.167 212.2 506.772 216.257 503.864C220.314 500.956 225.358 499.772 230.285 500.569C235.213 501.366 239.625 504.081 242.559 508.119C245.492 512.158 246.709 517.194 245.943 522.126C242.835 541.285 241.668 560.708 242.46 580.101C243.268 599.482 246.064 618.73 250.803 637.541C260.418 675.237 277.606 710.581 301.32 741.42C303.474 744.217 304.802 747.561 305.154 751.073C305.505 754.585 304.866 758.126 303.308 761.294C301.751 764.462 299.337 767.13 296.341 768.996C293.345 770.863 289.886 771.853 286.356 771.855L286.367 771.844Z" fill="#F5B6CD"/>
<path d="M829.979 591.84H829.703C824.691 591.767 819.914 589.707 816.421 586.112C812.928 582.517 811.006 577.681 811.079 572.67L811.143 568.085L811.057 560.557L810.836 554.412C810.787 553.246 810.706 552.015 810.625 550.708C810.576 549.963 810.528 549.212 810.485 548.461C809.945 540.48 809.059 532.445 807.866 524.577C802.99 492.748 792.709 461.986 777.469 433.62C762.248 405.254 742.348 379.66 718.609 357.917C694.872 336.169 667.607 318.618 637.982 306.018C630.962 303.004 623.574 300.25 615.464 297.583C607.623 295.023 599.804 292.825 592.319 291.065C587.439 289.919 583.214 286.882 580.573 282.621C577.933 278.36 577.093 273.225 578.239 268.345C579.384 263.464 582.422 259.239 586.683 256.599C590.944 253.958 596.079 253.118 600.959 254.264C609.502 256.273 618.336 258.762 627.219 261.662C636.399 264.681 644.78 267.818 652.837 271.263C686.398 285.541 717.283 305.429 744.167 330.075C784.622 367.102 814.987 413.817 832.403 465.82V465.874C838.153 483.143 842.437 500.865 845.212 518.853C846.567 527.806 847.566 536.916 848.182 545.961V546.172C848.22 546.874 848.268 547.581 848.312 548.283C848.403 549.757 848.501 551.28 848.565 552.895L848.814 559.839L848.906 568.139L848.835 573.183C848.772 578.145 846.758 582.884 843.23 586.375C839.702 589.866 834.942 591.829 829.979 591.84Z" fill="#FF7F41"/>
<path d="M782.462 454.679C779.942 454.681 777.473 453.978 775.332 452.649C773.192 451.321 771.466 449.42 770.349 447.162C753.873 414.063 730.879 384.635 702.747 360.643C674.632 336.655 641.885 318.705 606.54 307.907C571.155 297.152 533.967 293.627 497.19 297.539C460.457 301.56 424.927 313.017 392.765 331.213C389.652 332.971 385.968 333.421 382.522 332.466C379.077 331.511 376.151 329.228 374.387 326.118C372.622 323.008 372.164 319.325 373.112 315.878C374.06 312.43 376.337 309.499 379.443 307.729C414.818 287.715 453.898 275.114 494.301 270.695C534.701 266.409 575.549 270.289 614.419 282.106C653.3 293.985 689.325 313.727 720.259 340.107C751.177 366.482 776.448 398.831 794.558 435.212C795.571 437.269 796.044 439.55 795.932 441.841C795.819 444.132 795.125 446.356 793.915 448.304C792.704 450.252 791.017 451.859 789.014 452.975C787.01 454.09 784.755 454.676 782.462 454.679Z" fill="#FDDA24"/>
<path d="M513.724 871.841C513.416 871.841 513.114 871.841 512.806 871.841C495.037 871.017 477.372 868.654 460.01 864.778C451.37 862.85 442.73 860.523 434.328 857.866C426.228 855.312 417.782 852.217 409.283 848.686C392.844 841.825 377.045 833.524 362.071 823.878C332.121 804.58 305.786 780.181 284.262 751.788C278.905 744.73 273.797 737.365 269.077 729.886C264.422 722.509 259.984 714.712 255.869 706.704C239.556 674.994 228.983 640.648 224.641 605.254C224.022 600.279 225.405 595.262 228.485 591.307C231.565 587.352 236.09 584.783 241.065 584.164C246.039 583.545 251.056 584.928 255.011 588.008C258.966 591.088 261.536 595.614 262.154 600.588C265.96 631.578 275.223 661.649 289.516 689.407C293.118 696.427 297.006 703.248 301.061 709.684C305.198 716.235 309.701 722.698 314.378 728.887C333.248 753.774 356.337 775.158 382.596 792.067C395.684 800.505 409.492 807.771 423.857 813.78C431.288 816.88 438.648 819.58 445.7 821.805C453.098 824.137 460.691 826.184 468.289 827.88C483.525 831.274 499.027 833.343 514.621 834.063C519.633 834.181 524.394 836.285 527.854 839.913C531.315 843.541 533.193 848.395 533.075 853.408C532.957 858.421 530.852 863.181 527.224 866.642C523.596 870.103 518.742 871.981 513.73 871.863L513.724 871.841Z" fill="#00C389"/>
<path d="M347.077 339.607C343.639 339.612 340.289 338.522 337.511 336.497C334.733 334.471 332.672 331.615 331.625 328.34C330.578 325.065 330.6 321.542 331.688 318.281C332.776 315.02 334.873 312.189 337.676 310.199L339.96 308.579C341.499 307.466 343.092 306.316 344.771 305.166L344.847 305.112C345.522 304.658 346.186 304.199 346.856 303.74C348.535 302.59 350.274 301.402 352.142 300.214C371.913 287.276 393.068 276.589 415.214 268.354C426.311 264.21 437.631 260.691 449.121 257.813C460.593 254.96 472.214 252.739 483.929 251.16C488.188 250.587 492.5 251.73 495.916 254.336C499.332 256.942 501.573 260.799 502.146 265.057C502.719 269.316 501.577 273.628 498.971 277.044C496.364 280.46 492.508 282.701 488.249 283.274C477.707 284.692 467.252 286.69 456.929 289.257C446.625 291.84 436.473 294.998 426.522 298.718C416.575 302.43 406.84 306.688 397.362 311.473C387.883 316.282 378.674 321.604 369.773 327.414L369.579 327.538C368.18 328.424 366.733 329.417 365.2 330.47C364.48 330.963 363.76 331.453 363.04 331.939C361.711 332.852 360.367 333.824 358.936 334.85C358.115 335.449 357.316 336.043 356.462 336.632C353.72 338.576 350.439 339.616 347.077 339.607Z" fill="#00C389"/>
<path d="M526.361 884.71H526.28C518.105 884.666 509.708 884.315 501.327 883.667C493.405 883.03 485.284 882.047 476.487 880.681C443.372 875.42 411.309 864.909 381.506 849.545C378.385 847.871 376.046 845.037 374.995 841.655C373.944 838.272 374.264 834.612 375.886 831.464C377.509 828.315 380.304 825.93 383.668 824.824C387.033 823.717 390.698 823.977 393.872 825.547C421.118 839.59 450.428 849.199 480.699 854.011C488.799 855.274 496.251 856.17 503.465 856.748C511.155 857.348 518.882 857.672 526.394 857.71C534.046 857.71 541.768 857.407 549.344 856.84C556.52 856.3 563.972 855.425 572.121 854.14C602.368 849.379 631.657 839.806 658.877 825.785L660.767 824.802C661.874 824.23 662.927 823.689 663.905 823.149L669.386 820.126C672.68 818.219 675.79 816.421 678.825 814.52L678.884 814.488C685.661 810.281 692.066 805.972 697.914 801.679C710.248 792.629 721.854 782.627 732.625 771.763C733.871 770.501 735.353 769.498 736.986 768.809C738.62 768.12 740.373 767.76 742.146 767.748C743.919 767.737 745.676 768.075 747.319 768.743C748.961 769.411 750.455 770.396 751.717 771.642C752.978 772.887 753.982 774.369 754.671 776.003C755.36 777.636 755.72 779.389 755.732 781.162C755.743 782.935 755.405 784.693 754.737 786.335C754.069 787.977 753.084 789.472 751.838 790.733C740.068 802.606 727.386 813.539 713.909 823.43C707.494 828.139 700.511 832.843 693.146 837.411C689.706 839.571 686.239 841.569 682.886 843.502L682.184 843.907L676.924 846.802C675.628 847.52 674.37 848.168 673.144 848.794L671.378 849.712L671.287 849.761C641.486 865.121 609.415 875.604 576.295 880.811C567.401 882.193 559.258 883.154 551.358 883.743C543.096 884.386 534.688 884.699 526.361 884.71Z" fill="#59CBE8"/>
<path d="M792.099 745.887L772.801 765.186L873.789 866.174L893.087 846.876L792.099 745.887Z" fill="#2C2A29"/>
<path d="M736.973 836.73C806.929 836.73 863.64 780.019 863.64 710.062C863.64 640.106 806.929 583.395 736.973 583.395C667.016 583.395 610.305 640.106 610.305 710.062C610.305 780.019 667.016 836.73 736.973 836.73Z" fill="#9063CD"/>
<path d="M736.976 809.713C792.012 809.713 836.628 765.098 836.628 710.062C836.628 655.026 792.012 610.41 736.976 610.41C681.94 610.41 637.324 655.026 637.324 710.062C637.324 765.098 681.94 809.713 736.976 809.713Z" fill="#59CBE8"/>
<path d="M888.896 818.91C877.002 807.016 857.719 807.016 845.825 818.91C833.931 830.803 833.931 850.087 845.825 861.981L895.941 912.097C907.835 923.991 927.118 923.991 939.012 912.097C950.906 900.203 950.906 880.92 939.012 869.026L888.896 818.91Z" fill="#00C389"/>
<path d="M736.979 765.201C767.432 765.201 792.119 740.514 792.119 710.061C792.119 679.609 767.432 654.922 736.979 654.922C706.527 654.922 681.84 679.609 681.84 710.061C681.84 740.514 706.527 765.201 736.979 765.201Z" fill="#2C2A29"/>
</svg>
