<svg width="1080" height="1080" viewBox="0 0 1080 1080" fill="none" xmlns="http://www.w3.org/2000/svg">
<g clip-path="url(#clip0)">
<path d="M801.229 946.354H261.691L258.079 1018.4C257.827 1022.88 258.498 1027.36 260.051 1031.58C261.605 1035.79 264.007 1039.63 267.109 1042.88C270.211 1046.12 273.946 1048.7 278.084 1050.44C282.221 1052.18 286.672 1053.05 291.161 1053H771.516C776.009 1053.05 780.466 1052.19 784.609 1050.45C788.753 1048.71 792.495 1046.14 795.604 1042.89C798.713 1039.65 801.122 1035.8 802.682 1031.59C804.242 1027.37 804.92 1022.88 804.673 1018.4L801.229 946.354Z" fill="#9063CD"/>
<path d="M768.996 992.968H293.799C274.78 992.968 260.121 977.754 261.037 959.105L289.002 401.666C289.75 386.687 304.056 374.607 320.925 374.607H743.223C760.134 374.607 774.415 386.687 775.146 401.666L801.826 959.147C802.733 977.754 788.041 992.968 768.996 992.968Z" fill="#00C389"/>
<path d="M749.416 652.625H313.088C311.777 652.635 310.48 652.35 309.294 651.793C308.107 651.235 307.061 650.418 306.231 649.403C305.402 648.387 304.811 647.199 304.502 645.925C304.192 644.651 304.172 643.323 304.444 642.041L324.664 538.596C325.106 536.473 326.267 534.568 327.95 533.202C329.634 531.835 331.737 531.091 333.905 531.094H729.834C732.011 531.089 734.123 531.84 735.809 533.219C737.494 534.598 738.648 536.519 739.075 538.654L758.077 642.125C758.329 643.402 758.295 644.72 757.976 645.983C757.657 647.246 757.062 648.422 756.233 649.427C755.405 650.431 754.363 651.239 753.184 651.793C752.005 652.346 750.718 652.63 749.416 652.625Z" fill="#2C2A29"/>
<path d="M737.468 508.774H326.452C318.118 508.774 311.641 502.692 311.977 495.199L317.95 361.344C318.269 354.262 325.057 348.541 333.122 348.541H731.193C739.258 348.541 746.037 354.262 746.314 361.344L751.993 495.165C752.287 502.692 745.793 508.774 737.468 508.774Z" fill="#FF7F41"/>
<path d="M683.548 427.389H380.555L381.134 409.16H683.019L683.548 427.389Z" fill="#2C2A29"/>
<path d="M436.105 755.476H311.919C311.331 755.496 310.745 755.395 310.197 755.18C309.649 754.965 309.151 754.64 308.733 754.225C308.316 753.811 307.987 753.315 307.768 752.769C307.548 752.222 307.443 751.637 307.458 751.049L310.449 687.12C310.543 685.932 311.088 684.825 311.972 684.025C312.856 683.225 314.012 682.794 315.204 682.819H437.458C438.038 682.799 438.616 682.895 439.158 683.101C439.7 683.308 440.196 683.621 440.615 684.021C441.035 684.422 441.37 684.903 441.601 685.435C441.832 685.967 441.954 686.54 441.961 687.12L440.818 751.049C440.766 752.256 440.243 753.394 439.363 754.222C438.482 755.049 437.313 755.499 436.105 755.476Z" fill="#FDDA24"/>
<path d="M434.537 854.049H308.024C307.419 854.064 306.819 853.955 306.258 853.729C305.697 853.504 305.189 853.166 304.764 852.736C304.339 852.306 304.006 851.794 303.787 851.231C303.567 850.668 303.465 850.066 303.487 849.462L306.579 784.735C306.668 783.516 307.22 782.376 308.12 781.549C309.021 780.722 310.203 780.269 311.426 780.283H435.94C436.535 780.267 437.128 780.371 437.683 780.587C438.239 780.803 438.745 781.128 439.173 781.543C439.601 781.958 439.942 782.454 440.176 783.002C440.41 783.55 440.532 784.139 440.535 784.735L439.342 849.504C439.29 850.738 438.758 851.902 437.861 852.751C436.964 853.599 435.772 854.065 434.537 854.049Z" fill="#FDDA24"/>
<path d="M593.425 755.475H470.079C469.486 755.491 468.895 755.388 468.342 755.173C467.789 754.958 467.284 754.635 466.857 754.223C466.43 753.811 466.09 753.318 465.855 752.773C465.621 752.228 465.498 751.641 465.492 751.048L466.45 687.119C466.507 685.938 467.024 684.827 467.891 684.023C468.758 683.218 469.905 682.786 471.087 682.818H592.501C593.683 682.784 594.83 683.216 595.697 684.021C596.563 684.825 597.077 685.938 597.13 687.119L597.97 751.048C597.964 751.638 597.842 752.221 597.61 752.763C597.379 753.305 597.042 753.796 596.619 754.208C596.197 754.62 595.697 754.943 595.149 755.161C594.601 755.378 594.015 755.485 593.425 755.475Z" fill="#FDDA24"/>
<path d="M594.601 854.047H468.928C468.319 854.058 467.714 853.948 467.148 853.722C466.582 853.496 466.067 853.16 465.633 852.733C465.199 852.306 464.854 851.796 464.62 851.234C464.385 850.672 464.264 850.069 464.266 849.46L465.265 784.692C465.309 783.479 465.828 782.333 466.71 781.5C467.591 780.667 468.765 780.214 469.978 780.239H593.652C594.865 780.214 596.038 780.667 596.92 781.5C597.802 782.333 598.321 783.479 598.365 784.692L599.272 849.46C599.272 850.07 599.151 850.673 598.915 851.235C598.679 851.797 598.334 852.307 597.899 852.734C597.464 853.161 596.948 853.497 596.382 853.722C595.816 853.948 595.21 854.058 594.601 854.047Z" fill="#FDDA24"/>
<path d="M595.827 956.946H467.743C467.117 956.951 466.496 956.832 465.917 956.595C465.338 956.358 464.811 956.008 464.369 955.566C463.926 955.123 463.576 954.597 463.339 954.017C463.102 953.438 462.983 952.817 462.988 952.191L464.013 882.248C464.049 881.001 464.572 879.819 465.471 878.954C466.369 878.09 467.572 877.614 468.819 877.627H594.828C596.073 877.616 597.273 878.093 598.17 878.957C599.067 879.821 599.589 881.003 599.624 882.248L600.574 952.191C600.579 952.816 600.46 953.436 600.224 954.015C599.987 954.594 599.638 955.12 599.196 955.563C598.755 956.005 598.229 956.355 597.651 956.593C597.072 956.83 596.453 956.95 595.827 956.946Z" fill="#FDDA24"/>
<path d="M432.908 956.946H303.984C303.363 956.955 302.748 956.836 302.175 956.599C301.602 956.361 301.084 956.009 300.652 955.563C300.22 955.118 299.884 954.589 299.664 954.01C299.444 953.43 299.344 952.811 299.372 952.191L302.572 882.248C302.652 880.993 303.207 879.816 304.125 878.957C305.043 878.099 306.255 877.623 307.512 877.628H434.361C434.973 877.617 435.581 877.73 436.149 877.958C436.717 878.186 437.233 878.525 437.668 878.955C438.103 879.386 438.448 879.899 438.682 880.464C438.916 881.029 439.035 881.636 439.032 882.248L437.805 952.191C437.772 953.467 437.241 954.678 436.326 955.567C435.411 956.456 434.184 956.951 432.908 956.946Z" fill="#FF7F41"/>
<path d="M750.518 755.476H626.349C625.141 755.499 623.972 755.049 623.091 754.221C622.211 753.394 621.688 752.256 621.636 751.049L620.586 687.12C620.595 686.54 620.719 685.967 620.951 685.435C621.183 684.904 621.519 684.424 621.939 684.023C622.359 683.623 622.855 683.31 623.397 683.103C623.939 682.896 624.517 682.8 625.097 682.819H747.351C748.542 682.796 749.697 683.228 750.581 684.027C751.464 684.826 752.01 685.932 752.106 687.12L754.996 751.049C755.011 751.638 754.905 752.225 754.685 752.773C754.465 753.32 754.135 753.816 753.715 754.231C753.296 754.646 752.795 754.971 752.246 755.185C751.696 755.399 751.108 755.498 750.518 755.476Z" fill="#FDDA24"/>
<path d="M755.994 784.735C755.908 783.516 755.359 782.375 754.46 781.547C753.56 780.719 752.378 780.267 751.155 780.283H626.641C626.046 780.267 625.454 780.371 624.899 780.587C624.344 780.804 623.838 781.129 623.411 781.544C622.984 781.958 622.644 782.454 622.411 783.002C622.178 783.551 622.057 784.14 622.055 784.735L624.684 952.218C624.723 953.483 625.252 954.684 626.16 955.566C627.067 956.448 628.282 956.944 629.548 956.947H758.497C759.118 956.956 759.733 956.838 760.306 956.6C760.879 956.362 761.397 956.01 761.829 955.565C762.261 955.12 762.597 954.591 762.817 954.011C763.037 953.431 763.137 952.812 763.109 952.193L755.994 784.735Z" fill="#FDDA24"/>
<path d="M737.47 508.774H326.453L346.447 453.397C352.016 437.965 368.187 427.355 386.131 427.355H677.179C694.938 427.355 710.966 437.722 716.661 452.944L737.47 508.774Z" fill="#F5B6CD"/>
<path d="M662.006 34.8027H371.102C371.102 153.293 430.393 153.293 430.393 271.792C430.393 390.291 371.102 390.283 371.102 508.774H662.006C662.006 390.325 721.298 390.325 721.298 271.792C721.298 153.26 662.006 153.293 662.006 34.8027Z" fill="#E6DCCB"/>
<path d="M662.006 508.774C662.006 473.029 667.408 448.071 674.943 427.389H386.105C385.408 427.389 384.711 427.389 384.022 427.439C376.461 448.121 371.102 473.063 371.102 508.774H662.006Z" fill="#59CBE8"/>
<path d="M642.267 456.329C644.087 447.314 646.529 438.436 649.576 429.758H486.738C483.692 438.436 481.25 447.314 479.43 456.329H642.267Z" fill="#9063CD"/>
<path d="M528.016 329.58C525.938 338.617 523.232 347.499 519.918 356.16H682.73C686.055 347.499 688.775 338.618 690.87 329.58H528.016Z" fill="#2C2A29"/>
<path d="M459.259 379.674C454.925 388.578 450.439 397.181 446.18 406.245H659.312C663.571 397.181 668.057 388.604 672.391 379.674H459.259Z" fill="#2C2A29"/>
<path d="M454.814 279.496C454.596 289.123 453.974 297.935 453.008 306.076H694.87C695.836 297.935 696.457 289.123 696.676 279.496H454.814Z" fill="#2C2A29"/>
<path d="M398.941 79.1582C400.393 88.1445 402.441 97.024 405.074 105.738H646.927C644.287 97.0261 642.238 88.146 640.795 79.1582H398.941Z" fill="#2C2A29"/>
<path d="M492.836 129.242C496.877 138.483 501.237 147.135 505.58 155.822H668.392C664.049 147.135 659.68 138.525 655.648 129.242H492.836Z" fill="#2C2A29"/>
<path d="M411.324 479.842C410.484 488.662 409.988 498.248 409.988 508.774H637.477C637.477 498.248 637.956 488.662 638.812 479.842H411.324Z" fill="#9063CD"/>
<path d="M466.332 179.328C470.037 187.976 473.152 196.864 475.657 205.933H688.789C686.283 196.873 683.167 187.993 679.464 179.353L466.332 179.328Z" fill="#2C2A29"/>
<path d="M530.965 229.453C532.3 238.262 533.178 247.133 533.594 256.033H696.398C695.986 247.133 695.108 238.261 693.769 229.453H530.965Z" fill="#2C2A29"/>
<path d="M360.728 240.426H334.249V213.989C334.303 211.381 333.836 208.788 332.875 206.362C331.915 203.937 330.479 201.727 328.654 199.864C326.828 198 324.649 196.519 322.243 195.508C319.838 194.497 317.256 193.977 314.647 193.977C312.038 193.977 309.455 194.497 307.05 195.508C304.644 196.519 302.465 198 300.64 199.864C298.814 201.727 297.379 203.937 296.418 206.362C295.457 208.788 294.99 211.381 295.044 213.989V240.426H268.607C263.407 240.426 258.42 242.492 254.743 246.169C251.066 249.846 249 254.833 249 260.033C249 265.233 251.066 270.22 254.743 273.897C258.42 277.574 263.407 279.64 268.607 279.64H295.044V306.077C294.99 308.685 295.457 311.278 296.418 313.704C297.379 316.129 298.814 318.339 300.64 320.203C302.465 322.067 304.644 323.547 307.05 324.558C309.455 325.569 312.038 326.09 314.647 326.09C317.256 326.09 319.838 325.569 322.243 324.558C324.649 323.547 326.828 322.067 328.654 320.203C330.479 318.339 331.915 316.129 332.875 313.704C333.836 311.278 334.303 308.685 334.249 306.077V279.64H360.728C365.928 279.64 370.915 277.574 374.592 273.897C378.269 270.22 380.335 265.233 380.335 260.033C380.335 254.833 378.269 249.846 374.592 246.169C370.915 242.492 365.928 240.426 360.728 240.426Z" fill="#00C389"/>
<path d="M812.242 611.472H723.985C721.377 611.526 718.784 611.058 716.358 610.098C713.933 609.137 711.723 607.701 709.86 605.876C707.996 604.05 706.515 601.871 705.504 599.466C704.493 597.061 703.973 594.478 703.973 591.869C703.973 589.26 704.493 586.677 705.504 584.272C706.515 581.867 707.996 579.687 709.86 577.862C711.723 576.036 713.933 574.601 716.358 573.64C718.784 572.679 721.377 572.212 723.985 572.266H812.242C817.371 572.372 822.254 574.484 825.843 578.149C829.433 581.813 831.443 586.739 831.443 591.869C831.443 596.999 829.433 601.924 825.843 605.589C822.254 609.254 817.371 611.365 812.242 611.472Z" fill="#FDDA24"/>
<path d="M797.755 79.1587L816.446 60.4673C820.122 56.7912 822.187 51.8052 822.187 46.6063C822.187 41.4074 820.122 36.4215 816.446 32.7453C812.77 29.0692 807.784 27.0039 802.585 27.0039C797.386 27.0039 792.4 29.0692 788.724 32.7453L770.033 51.4367L751.358 32.7453C747.682 29.0692 742.696 27.0039 737.497 27.0039C732.298 27.0039 727.312 29.0692 723.636 32.7453C719.96 36.4215 717.895 41.4074 717.895 46.6063C717.895 51.8052 719.96 56.7912 723.636 60.4673L742.327 79.1587L723.636 97.8585C721.816 99.6787 720.372 101.84 719.387 104.218C718.402 106.596 717.895 109.145 717.895 111.719C717.895 114.294 718.402 116.843 719.387 119.221C720.372 121.599 721.816 123.76 723.636 125.58C725.456 127.401 727.617 128.845 729.995 129.83C732.374 130.815 734.923 131.322 737.497 131.322C740.071 131.322 742.62 130.815 744.999 129.83C747.377 128.845 749.538 127.401 751.358 125.58L770.033 106.889L788.724 125.58C792.4 129.257 797.386 131.322 802.585 131.322C807.784 131.322 812.77 129.257 816.446 125.58C820.122 121.904 822.187 116.918 822.187 111.719C822.187 106.521 820.122 101.535 816.446 97.8585L797.755 79.1587Z" fill="#FF7F41"/>
</g>
<defs>
<clipPath id="clip0">
<rect width="582.843" height="1026" fill="white" transform="translate(249 27)"/>
</clipPath>
</defs>
</svg>
