<svg width="1080" height="1080" viewBox="0 0 1080 1080" fill="none" xmlns="http://www.w3.org/2000/svg">
<g clip-path="url(#clip0)">
<path d="M940 623C912.386 623 890 600.614 890 573C890 545.386 912.386 523 940 523C967.614 523 990 545.386 990 573C990 600.614 967.614 623 940 623Z" fill="#FDDA24"/>
<path d="M939.255 600.611C923.593 600.611 910.897 587.915 910.897 572.253C910.897 556.591 923.593 543.895 939.255 543.895C954.917 543.895 967.613 556.591 967.613 572.253C967.613 587.915 954.917 600.611 939.255 600.611Z" fill="#FF7F41"/>
<path d="M117 623C89.3857 623 67 600.614 67 573C67 545.386 89.3857 523 117 523C144.614 523 167 545.386 167 573C167 600.614 144.614 623 117 623Z" fill="#FDDA24"/>
<path d="M116.255 600.611C100.593 600.611 87.8969 587.915 87.8969 572.253C87.8969 556.591 100.593 543.895 116.255 543.895C131.917 543.895 144.613 556.591 144.613 572.253C144.613 587.915 131.917 600.611 116.255 600.611Z" fill="#FF7F41"/>
<path d="M704.072 512.771C703.715 497.908 715.474 485.57 730.337 485.213C744.95 484.862 757.08 496.424 757.431 511.036L762.56 724.624L709.19 725.906L704.072 512.771Z" fill="#B28038"/>
<path d="M349.487 512.771C349.843 497.908 338.084 485.57 323.221 485.213C308.609 484.862 296.478 496.424 296.127 511.036L290.998 724.624L344.368 725.906L349.487 512.771Z" fill="#B28038"/>
<path d="M584.055 739.238H709.276V992.892H584.055V739.238Z" fill="#E4AC7B"/>
<path d="M468.465 739.238H343.243V992.892H468.465V739.238Z" fill="#E4AC7B"/>
<path d="M322 465.297L528.02 584.384V821.366L322 703.47V465.297Z" fill="#9063CD"/>
<path d="M732.848 465.297L526.828 584.384V821.366L732.848 703.47V465.297Z" fill="#FF7F41"/>
<path d="M528.018 347.402L321.998 465.298L526.828 584.385L732.848 465.298L528.018 347.402Z" fill="#59CBE8"/>
<mask id="mask0" mask-type="alpha" maskUnits="userSpaceOnUse" x="322" y="347" width="411" height="238">
<path d="M528.018 347.402L321.998 465.298L526.828 584.385L732.848 465.298L528.018 347.402Z" fill="#59CBE8"/>
</mask>
<g mask="url(#mask0)">
<path fill-rule="evenodd" clip-rule="evenodd" d="M651.264 550.708L505.394 466.49L520.875 439.676L666.745 523.894L651.264 550.708Z" fill="#FDDA24"/>
<path fill-rule="evenodd" clip-rule="evenodd" d="M554.331 466.488L305.329 610.25L289.848 583.436L538.85 439.674L554.331 466.488Z" fill="#FDDA24"/>
</g>
<mask id="mask1" mask-type="alpha" maskUnits="userSpaceOnUse" x="526" y="465" width="207" height="357">
<path d="M732.848 465.301L526.828 584.388V821.37L732.848 703.474V465.301Z" fill="#FF7F41"/>
</mask>
<g mask="url(#mask1)">
<path fill-rule="evenodd" clip-rule="evenodd" d="M648.295 473.637L648.295 833.279L617.332 833.279L617.332 473.637L648.295 473.637Z" fill="#FDDA24"/>
</g>
<mask id="mask2" mask-type="alpha" maskUnits="userSpaceOnUse" x="322" y="465" width="207" height="357">
<path d="M322 465.297L528.02 584.384V821.366L322 703.47V465.297Z" fill="#9063CD"/>
</mask>
<g mask="url(#mask2)">
<path fill-rule="evenodd" clip-rule="evenodd" d="M438.705 473.633L438.705 833.275L407.742 833.275L407.742 473.633L438.705 473.633Z" fill="#FDDA24"/>
</g>
<path fill-rule="evenodd" clip-rule="evenodd" d="M631.845 337.247C621.393 338.705 606.49 345.395 589.412 362.473C576.079 375.806 566.82 401.308 561.489 428.815C560.713 432.821 560.046 436.724 559.474 440.461C563.211 439.889 567.115 439.222 571.121 438.446C598.627 433.115 624.129 423.856 637.463 410.523C654.541 393.445 661.23 378.542 662.689 368.09C664.019 358.556 661.386 351.074 655.124 344.812C648.862 338.549 641.38 335.916 631.845 337.247ZM556.214 472.191C587.209 468.164 633.783 457.99 659.357 432.417C699.977 391.796 703.509 349.409 677.018 322.918C650.526 296.426 608.139 299.958 567.519 340.579C541.945 366.152 531.772 412.726 527.744 443.722C525.374 461.959 525.132 474.804 525.132 474.804C525.132 474.804 537.976 474.561 556.214 472.191Z" fill="#FDDA24"/>
<path fill-rule="evenodd" clip-rule="evenodd" d="M420.237 337.247C430.689 338.705 445.592 345.395 462.67 362.473C476.003 375.806 485.262 401.308 490.593 428.815C491.369 432.821 492.036 436.724 492.608 440.461C488.871 439.889 484.967 439.222 480.962 438.446C453.455 433.115 427.953 423.856 414.619 410.523C397.541 393.445 390.852 378.542 389.393 368.09C388.063 358.556 390.696 351.074 396.958 344.812C403.22 338.549 410.702 335.916 420.237 337.247ZM495.868 472.191C464.873 468.164 418.299 457.99 392.725 432.417C352.105 391.796 348.573 349.409 375.064 322.918C401.556 296.426 443.943 299.958 484.563 340.579C510.137 366.152 520.31 412.726 524.338 443.722C526.708 461.959 526.95 474.804 526.95 474.804C526.95 474.804 514.106 474.561 495.868 472.191Z" fill="#FDDA24"/>
<path d="M751.604 762.912C738.698 779.42 722.263 793.136 703.412 802.948C699.188 805.135 695.118 808.188 691.227 811.759C686.707 815.886 682.426 820.705 678.637 825.546C672.835 821.219 667.776 816.102 663.636 810.426L651.042 752.931C652.248 747.193 654.149 741.506 656.832 735.983C667.479 714.067 687.697 699.961 709.999 696.209C717.125 695 718.736 694.346 726.003 695.362L739.504 667.573L739.481 604.76C737.115 584.929 751.277 567.019 771.051 564.625C771.888 564.529 772.67 564.693 773.368 565.032C774.589 565.625 775.527 566.8 775.66 568.301L782.15 622.831L787.917 669.68C789.286 680.765 787.651 691.97 783.23 702.253L777.569 715.383L775.908 719.247L775.851 719.363L771.261 729.995C766.019 741.82 759.411 752.908 751.604 762.912Z" fill="#E4AC7B"/>
<path d="M300.599 762.912C313.505 779.42 329.941 793.136 348.791 802.948C353.015 805.135 357.085 808.188 360.976 811.759C365.496 815.886 369.777 820.705 373.566 825.546C379.368 821.219 384.427 816.102 388.567 810.426L401.162 752.931C399.955 747.193 398.054 741.506 395.371 735.983C384.724 714.067 364.506 699.961 342.204 696.209C335.078 695 333.467 694.346 326.2 695.362L312.7 667.573L312.722 604.76C315.088 584.929 300.926 567.019 281.152 564.625C280.315 564.529 279.533 564.693 278.835 565.032C277.614 565.625 276.676 566.8 276.543 568.301L270.053 622.831L264.287 669.68C262.917 680.765 264.553 691.97 268.974 702.253L274.634 715.383L276.295 719.247L276.352 719.363L280.942 729.995C286.184 741.82 292.792 752.908 300.599 762.912Z" fill="#E4AC7B"/>
<path d="M430.348 156.51C430.348 165.694 426.576 172.664 419.032 177.42C411.488 182.176 401.566 184.636 389.266 184.8V204.48C393.202 204.808 397.261 205.587 401.443 206.817C401.443 208.621 400.951 210.015 399.967 210.999H367.741C367.167 210.671 366.675 210.179 366.265 209.523C365.937 208.785 365.773 208.088 365.773 207.432C368.643 205.464 371.554 204.029 374.506 203.127V140.151C370.98 139.331 367.905 138.47 365.281 137.568C365.281 136.338 365.404 135.354 365.65 134.616C365.896 133.796 366.265 132.976 366.757 132.156C369.873 131.254 373.645 130.557 378.073 130.065C382.583 129.491 387.421 129.204 392.587 129.204C404.231 129.204 413.415 131.213 420.139 135.231C426.945 139.167 430.348 146.26 430.348 156.51ZM395.908 134.124C393.202 134.124 390.988 134.37 389.266 134.862V177.912C390.496 178.486 391.644 178.855 392.71 179.019C393.858 179.183 395.293 179.265 397.015 179.265C402.427 179.265 406.773 177.461 410.053 173.853C413.333 170.245 414.973 165.571 414.973 159.831C414.973 153.927 414.03 149.048 412.144 145.194C410.258 141.34 407.88 138.552 405.01 136.83C402.14 135.026 399.106 134.124 395.908 134.124Z" fill="#2C2A29"/>
<path d="M492.491 203.004C492.819 203.988 492.983 205.095 492.983 206.325C490.687 208.211 488.227 209.687 485.603 210.753C482.979 211.737 481.011 212.229 479.699 212.229C478.715 212.229 477.28 211.245 475.394 209.277C473.508 207.227 472.032 205.095 470.966 202.881C468.67 205.505 465.8 207.719 462.356 209.523C458.912 211.327 455.222 212.229 451.286 212.229C448.662 212.229 446.038 211.696 443.414 210.63C440.79 209.482 438.576 207.678 436.772 205.218C434.968 202.676 434.066 199.437 434.066 195.501C434.066 188.449 437.346 183.365 443.906 180.249C450.466 177.051 459.117 175.329 469.859 175.083V167.703C469.859 158.191 466.046 153.435 458.42 153.435C455.14 153.435 452.475 154.993 450.425 158.109C448.375 161.143 446.735 165.448 445.505 171.024C445.013 171.516 444.234 171.844 443.168 172.008C441.118 171.024 439.478 169.589 438.248 167.703C437.1 165.817 436.526 163.849 436.526 161.799C436.526 158.765 437.141 156.469 438.371 154.911C444.029 150.647 450.548 148.515 457.928 148.515C467.03 148.515 473.713 150.401 477.977 154.173C482.241 157.945 484.373 164.013 484.373 172.377V199.068C486.669 200.298 489.375 201.61 492.491 203.004ZM457.682 203.25C461.782 203.25 465.841 201.815 469.859 198.945V180.741H465.8C459.732 180.741 455.222 181.93 452.27 184.308C449.318 186.604 447.842 189.433 447.842 192.795C447.842 195.747 448.662 198.248 450.302 200.298C451.942 202.266 454.402 203.25 457.682 203.25Z" fill="#2C2A29"/>
<path d="M529.24 164.628C526.042 164.628 523.295 165.202 520.999 166.35V204.603C526.493 205.095 530.798 205.833 533.914 206.817C533.914 208.621 533.422 210.015 532.438 210.999H499.351C498.777 210.671 498.285 210.179 497.875 209.523C497.547 208.785 497.383 208.088 497.383 207.432C500.499 205.464 503.533 203.947 506.485 202.881V161.799C503.533 160.241 500.827 158.929 498.367 157.863C498.038 156.879 497.875 155.772 497.875 154.542C500.171 152.656 502.631 151.18 505.255 150.114C507.96 149.048 509.929 148.515 511.159 148.515C511.897 148.515 512.963 149.212 514.357 150.606C515.751 151.918 517.063 153.599 518.293 155.649C519.523 157.617 520.342 159.462 520.753 161.184C523.212 157.248 526.288 154.173 529.978 151.959C533.668 149.663 537.153 148.515 540.433 148.515C541.663 150.565 542.278 153.394 542.278 157.002C542.278 158.396 542.073 160.159 541.663 162.291C541.335 164.341 540.925 165.735 540.433 166.473C537.563 165.243 533.831 164.628 529.24 164.628Z" fill="#2C2A29"/>
<path d="M605.042 203.004C605.37 203.988 605.534 205.095 605.534 206.325C603.238 208.211 600.778 209.687 598.154 210.753C595.53 211.737 593.562 212.229 592.25 212.229C591.266 212.229 589.831 211.245 587.945 209.277C586.059 207.227 584.583 205.095 583.517 202.881C581.221 205.505 578.351 207.719 574.907 209.523C571.463 211.327 567.773 212.229 563.837 212.229C561.213 212.229 558.589 211.696 555.965 210.63C553.341 209.482 551.127 207.678 549.323 205.218C547.519 202.676 546.617 199.437 546.617 195.501C546.617 188.449 549.897 183.365 556.457 180.249C563.017 177.051 571.668 175.329 582.41 175.083V167.703C582.41 158.191 578.597 153.435 570.971 153.435C567.691 153.435 565.026 154.993 562.976 158.109C560.926 161.143 559.286 165.448 558.056 171.024C557.564 171.516 556.785 171.844 555.719 172.008C553.669 171.024 552.029 169.589 550.799 167.703C549.651 165.817 549.077 163.849 549.077 161.799C549.077 158.765 549.692 156.469 550.922 154.911C556.58 150.647 563.099 148.515 570.479 148.515C579.581 148.515 586.264 150.401 590.528 154.173C594.792 157.945 596.924 164.013 596.924 172.377V199.068C599.22 200.298 601.926 201.61 605.042 203.004ZM570.233 203.25C574.333 203.25 578.392 201.815 582.41 198.945V180.741H578.351C572.283 180.741 567.773 181.93 564.821 184.308C561.869 186.604 560.393 189.433 560.393 192.795C560.393 195.747 561.213 198.248 562.853 200.298C564.493 202.266 566.953 203.25 570.233 203.25Z" fill="#2C2A29"/>
<path d="M667.508 203.373C670.296 203.373 672.838 202.84 675.134 201.774C675.544 202.266 675.831 203.127 675.995 204.357C676.241 205.505 676.364 206.571 676.364 207.555C675.216 208.703 673.002 209.769 669.722 210.753C666.442 211.737 663.08 212.229 659.636 212.229C647.828 212.229 641.924 206.243 641.924 194.271V158.109H632.084C632.084 156.223 633.56 153.394 636.512 149.622C639.464 145.768 642.826 142.324 646.598 139.29C650.452 136.256 653.732 134.739 656.438 134.739V151.467C661.686 150.155 666.893 149.499 672.059 149.499C675.749 149.499 677.594 150.278 677.594 151.836C677.594 152.738 677.389 153.804 676.979 155.034C676.651 156.264 676.241 157.289 675.749 158.109H656.438V193.779C656.438 197.305 657.299 199.806 659.021 201.282C660.825 202.676 663.654 203.373 667.508 203.373Z" fill="#2C2A29"/>
<path d="M699.92 139.413C697.46 139.413 695.369 138.593 693.647 136.953C691.925 135.231 691.064 133.181 691.064 130.803C691.064 128.425 691.925 126.375 693.647 124.653C695.369 122.931 697.46 122.07 699.92 122.07C702.38 122.07 704.471 122.931 706.193 124.653C707.997 126.293 708.899 128.343 708.899 130.803C708.899 133.181 707.997 135.231 706.193 136.953C704.471 138.593 702.38 139.413 699.92 139.413ZM707.177 204.726C710.621 205.054 713.942 205.751 717.14 206.817C717.14 208.621 716.648 210.015 715.664 210.999H685.775C685.201 210.671 684.709 210.179 684.299 209.523C683.971 208.785 683.807 208.088 683.807 207.432C686.841 205.546 689.793 204.07 692.663 203.004V163.521C688.727 161.553 686.144 160.364 684.914 159.954C684.75 159.954 684.545 159.667 684.299 159.093C684.135 158.437 684.053 157.74 684.053 157.002C686.677 154.788 690.285 152.82 694.877 151.098C699.551 149.376 703.651 148.515 707.177 148.515V204.726Z" fill="#2C2A29"/>
<path fill-rule="evenodd" clip-rule="evenodd" d="M804 169C804 163.477 808.477 159 814 159H864C869.523 159 874 163.477 874 169C874 174.523 869.523 179 864 179H814C808.477 179 804 174.523 804 169Z" fill="#FDDA24"/>
<path fill-rule="evenodd" clip-rule="evenodd" d="M275 169C275 163.477 270.523 159 265 159H215C209.477 159 205 163.477 205 169C205 174.523 209.477 179 215 179H265C270.523 179 275 174.523 275 169Z" fill="#FDDA24"/>
<path fill-rule="evenodd" clip-rule="evenodd" d="M796.93 115.427C793.025 111.521 793.025 105.19 796.93 101.284L832.286 65.9291C836.191 62.0238 842.523 62.0238 846.428 65.9291C850.333 69.8343 850.333 76.166 846.428 80.0712L811.073 115.427C807.167 119.332 800.836 119.332 796.93 115.427Z" fill="#FDDA24"/>
<path fill-rule="evenodd" clip-rule="evenodd" d="M282.07 115.427C285.975 111.521 285.975 105.19 282.07 101.284L246.714 65.9291C242.809 62.0238 236.477 62.0238 232.572 65.9291C228.667 69.8343 228.667 76.166 232.572 80.0712L267.927 115.427C271.833 119.332 278.164 119.332 282.07 115.427Z" fill="#FDDA24"/>
<path fill-rule="evenodd" clip-rule="evenodd" d="M802.07 228.93C805.975 225.025 812.306 225.025 816.212 228.93L851.567 264.286C855.472 268.191 855.472 274.523 851.567 278.428C847.662 282.333 841.33 282.333 837.425 278.428L802.07 243.073C798.164 239.167 798.164 232.836 802.07 228.93Z" fill="#FDDA24"/>
<path fill-rule="evenodd" clip-rule="evenodd" d="M276.93 228.93C273.025 225.025 266.694 225.025 262.788 228.93L227.433 264.286C223.528 268.191 223.528 274.523 227.433 278.428C231.338 282.333 237.67 282.333 241.575 278.428L276.93 243.073C280.836 239.167 280.836 232.836 276.93 228.93Z" fill="#FDDA24"/>
<path d="M399.643 1016.09C396.374 1017.98 392.715 1019.09 388.947 1019.34C385.179 1019.59 381.403 1018.98 377.912 1017.54C324.785 995.583 276.681 963.048 236.527 921.912C216.546 901.325 198.732 878.741 183.365 854.515C168.04 830.321 155.194 804.643 145.02 777.871C142.745 771.77 142.977 765.017 145.664 759.086C148.351 753.155 153.275 748.528 159.362 746.214C165.448 743.901 172.203 744.09 178.151 746.739C184.099 749.388 188.758 754.283 191.11 760.355C200.094 784.025 211.443 806.727 224.986 828.118C238.541 849.485 254.252 869.405 271.874 887.564C307.321 923.877 349.789 952.594 396.692 971.965C400.95 973.719 404.631 976.63 407.319 980.369C410.007 984.107 411.594 988.524 411.9 993.118C412.207 997.713 411.221 1002.3 409.054 1006.36C406.886 1010.43 403.625 1013.8 399.638 1016.1L399.643 1016.09Z" fill="#F5B6CD"/>
<path d="M721.695 980.765C721.348 980.965 721.006 981.163 720.658 981.363C700.047 992.022 678.55 1000.87 656.41 1007.82C645.393 1011.28 634.114 1014.28 622.89 1016.76C612.074 1019.16 600.515 1021.17 588.61 1022.72C565.566 1025.7 542.304 1026.62 519.097 1025.49C472.677 1023.23 427.014 1012.84 384.182 994.803C373.527 990.324 362.952 985.335 352.743 979.965C342.674 974.668 332.574 968.754 322.702 962.391C283.593 937.21 249.249 905.306 221.259 868.155C217.315 862.939 215.605 856.37 216.505 849.893C217.405 843.416 220.841 837.562 226.057 833.619C231.273 829.675 237.842 827.966 244.319 828.865C250.796 829.765 256.65 833.201 260.593 838.417C285.104 870.943 315.181 898.871 349.432 920.907C358.079 926.488 366.919 931.657 375.699 936.284C384.644 940.985 393.947 945.35 403.266 949.291C440.814 965.097 480.844 974.195 521.536 976.17C541.824 977.166 562.16 976.369 582.309 973.788C592.724 972.443 602.799 970.693 612.217 968.606C622.096 966.417 632.008 963.777 641.696 960.737C661.122 954.634 679.984 946.86 698.068 937.503C703.808 934.368 710.558 933.64 716.834 935.481C723.11 937.323 728.397 941.581 731.533 947.321C734.669 953.061 735.396 959.811 733.555 966.087C731.714 972.362 727.455 977.65 721.715 980.786L721.695 980.765Z" fill="#00C389"/>
<path d="M744.365 987.06L744.274 987.113C735.01 992.396 725.295 997.476 715.405 1002.21C706.041 1006.66 696.225 1010.84 685.397 1015.04C644.557 1030.69 601.481 1039.73 557.794 1041.81C553.176 1041.96 548.686 1040.28 545.292 1037.15C541.899 1034.01 539.873 1029.67 539.652 1025.05C539.432 1020.44 541.034 1015.92 544.113 1012.48C547.191 1009.03 551.501 1006.93 556.112 1006.64C596.048 1004.73 635.426 996.469 672.76 982.162C682.735 978.307 691.737 974.459 700.264 970.406C709.342 966.068 718.282 961.394 726.792 956.538C735.436 951.548 743.962 946.17 752.151 940.588C759.906 935.297 767.753 929.449 776.12 922.682C807.184 897.577 834.027 867.66 855.632 834.067L857.126 831.724C858.003 830.355 858.841 829.059 859.592 827.811L863.812 820.82C866.29 816.519 868.631 812.459 870.819 808.332L870.865 808.257C875.777 799.085 880.202 790.04 884.008 781.376C892.039 763.108 898.626 744.239 903.708 724.942C904.293 722.704 905.312 720.604 906.708 718.76C908.104 716.917 909.85 715.366 911.845 714.197C913.84 713.028 916.047 712.264 918.337 711.947C920.628 711.631 922.959 711.769 925.196 712.353C927.434 712.937 929.534 713.956 931.378 715.353C933.222 716.749 934.772 718.494 935.941 720.49C937.11 722.485 937.875 724.691 938.191 726.982C938.508 729.273 938.37 731.603 937.785 733.841C932.233 754.929 925.037 775.551 916.263 795.515C912.087 805.019 907.267 814.886 901.926 824.85C899.449 829.534 896.836 834.052 894.309 838.423L893.78 839.338L889.726 846.038C888.73 847.695 887.732 849.248 886.756 850.755L885.36 852.944L885.288 853.058C861.64 889.846 832.248 922.605 798.231 950.089C789.085 957.451 780.513 963.848 771.973 969.665C763.058 975.78 753.765 981.617 744.365 987.06Z" fill="#59CBE8"/>
</g>
<defs>
<clipPath id="clip0">
<rect width="1080" height="1080" fill="white"/>
</clipPath>
</defs>
</svg>
