<svg width="1080" height="1080" viewBox="0 0 1080 1080" fill="none" xmlns="http://www.w3.org/2000/svg">
<path fill-rule="evenodd" clip-rule="evenodd" d="M371 196C371 193.239 373.239 191 376 191H394C396.761 191 399 193.239 399 196C399 198.761 396.761 201 394 201H376C373.239 201 371 198.761 371 196Z" fill="#FDDA24"/>
<path fill-rule="evenodd" clip-rule="evenodd" d="M681 196C681 193.239 683.239 191 686 191H704C706.761 191 709 193.239 709 196C709 198.761 706.761 201 704 201H686C683.239 201 681 198.761 681 196Z" fill="#FDDA24"/>
<path fill-rule="evenodd" clip-rule="evenodd" d="M535 60C532.239 60 530 57.7614 530 55V37C530 34.2386 532.239 32 535 32C537.761 32 540 34.2386 540 37V55C540 57.7614 537.761 60 535 60Z" fill="#FDDA24"/>
<path fill-rule="evenodd" clip-rule="evenodd" d="M535 370C532.239 370 530 367.761 530 365V347C530 344.239 532.239 342 535 342C537.761 342 540 344.239 540 347V365C540 367.761 537.761 370 535 370Z" fill="#FDDA24"/>
<path fill-rule="evenodd" clip-rule="evenodd" d="M423.535 77.4652C425.487 75.5126 428.653 75.5126 430.606 77.4652L443.334 90.1931C445.286 92.1458 445.286 95.3116 443.334 97.2642C441.381 99.2168 438.215 99.2168 436.263 97.2642L423.535 84.5363C421.582 82.5837 421.582 79.4178 423.535 77.4652Z" fill="#FDDA24"/>
<path fill-rule="evenodd" clip-rule="evenodd" d="M642.539 296.467C644.491 294.515 647.657 294.515 649.61 296.467L662.338 309.195C664.29 311.148 664.29 314.314 662.338 316.266C660.385 318.219 657.219 318.219 655.267 316.266L642.539 303.538C640.586 301.586 640.586 298.42 642.539 296.467Z" fill="#FDDA24"/>
<path fill-rule="evenodd" clip-rule="evenodd" d="M416.465 316.266C414.513 314.313 414.513 311.148 416.465 309.195L429.193 296.467C431.146 294.514 434.312 294.514 436.264 296.467C438.217 298.42 438.217 301.585 436.264 303.538L423.536 316.266C421.584 318.219 418.418 318.219 416.465 316.266Z" fill="#FDDA24"/>
<path fill-rule="evenodd" clip-rule="evenodd" d="M635.465 97.264C633.513 95.3114 633.513 92.1456 635.465 90.193L648.193 77.4651C650.146 75.5124 653.312 75.5124 655.264 77.4651C657.217 79.4177 657.217 82.5835 655.264 84.5361L642.536 97.264C640.584 99.2167 637.418 99.2167 635.465 97.264Z" fill="#FDDA24"/>
<path d="M653 201C653 263.408 602.408 314 540 314C477.592 314 427 263.408 427 201C427 138.592 477.592 88 540 88C602.408 88 653 138.592 653 201Z" fill="white"/>
<path fill-rule="evenodd" clip-rule="evenodd" d="M540 93C480.353 93 432 141.353 432 201C432 260.647 480.353 309 540 309C599.647 309 648 260.647 648 201C648 141.353 599.647 93 540 93ZM422 201C422 135.83 474.83 83 540 83C605.17 83 658 135.83 658 201C658 266.17 605.17 319 540 319C474.83 319 422 266.17 422 201Z" fill="#FDDA24"/>
<path d="M521 917C521 917 428.547 917 314.5 917C200.453 917 108 917 108 917C108 834.71 200.453 768 314.5 768C428.547 768 521 834.71 521 917Z" fill="#E4AC7B"/>
<rect width="54" height="183" transform="matrix(1 0 0 -1 513 803)" fill="#FDDA24"/>
<path fill-rule="evenodd" clip-rule="evenodd" d="M410 916.945C470.608 890.65 513 830.276 513 760H567C567 830.276 609.393 890.65 670 916.945V937H410V916.945Z" fill="#FDDA24"/>
<path fill-rule="evenodd" clip-rule="evenodd" d="M366.611 402C364.031 410.771 361.941 419.801 360.376 429.048H719.624C718.059 419.801 715.969 410.771 713.389 402H366.611ZM723 469.5C723 585.756 641.068 680 540 680C438.932 680 357 585.756 357 469.5C357 460.541 357.487 451.712 358.431 443.048H721.569C722.513 451.712 723 460.541 723 469.5Z" fill="#FDDA24"/>
<path fill-rule="evenodd" clip-rule="evenodd" d="M672.787 531.309C677.295 532.56 679.938 537.238 678.691 541.758C667.011 584.111 635.121 618.479 593.657 635.373C589.325 637.139 584.385 635.047 582.625 630.702C580.865 626.357 582.95 621.403 587.283 619.638C624.213 604.591 652.184 574.159 662.369 537.231C663.615 532.71 668.28 530.059 672.787 531.309Z" fill="white"/>
<ellipse cx="686.712" cy="891.465" rx="43.3685" ry="43.3685" transform="rotate(-90 686.712 891.465)" fill="#9063CD"/>
<ellipse cx="749.454" cy="853.633" rx="43.3685" ry="43.3685" transform="rotate(-90 749.454 853.633)" fill="#9063CD"/>
<ellipse cx="802.974" cy="842.561" rx="43.3685" ry="43.3685" transform="rotate(-90 802.974 842.561)" fill="#9063CD"/>
<ellipse cx="571.369" cy="962.977" rx="43.8299" ry="43.3685" transform="rotate(-90 571.369 962.977)" fill="#9063CD"/>
<ellipse cx="633.193" cy="962.977" rx="43.8299" ry="43.3685" transform="rotate(-90 633.193 962.977)" fill="#9063CD"/>
<ellipse cx="695.013" cy="962.977" rx="43.8299" ry="43.3685" transform="rotate(-90 695.013 962.977)" fill="#9063CD"/>
<ellipse cx="756.837" cy="962.977" rx="43.8299" ry="43.3685" transform="rotate(-90 756.837 962.977)" fill="#9063CD"/>
<ellipse cx="818.661" cy="962.977" rx="43.8299" ry="43.3685" transform="rotate(-90 818.661 962.977)" fill="#9063CD"/>
<ellipse cx="866.642" cy="962.977" rx="43.8299" ry="43.3685" transform="rotate(-90 866.642 962.977)" fill="#9063CD"/>
<ellipse cx="632.271" cy="906.229" rx="43.3685" ry="43.3685" transform="rotate(-90 632.271 906.229)" fill="#9063CD"/>
<ellipse cx="722.697" cy="900.692" rx="43.3685" ry="43.3685" transform="rotate(-90 722.697 900.692)" fill="#9063CD"/>
<ellipse cx="784.521" cy="900.692" rx="43.3685" ry="43.3685" transform="rotate(-90 784.521 900.692)" fill="#9063CD"/>
<ellipse cx="846.341" cy="900.692" rx="43.3685" ry="43.3685" transform="rotate(-90 846.341 900.692)" fill="#9063CD"/>
<path d="M970.337 816.859C960.833 863.491 902.748 879.104 902.748 879.104C902.748 879.104 855.406 842.004 864.91 795.372C874.414 748.741 938.284 704.744 938.284 704.744C938.284 704.744 979.841 770.228 970.337 816.859Z" fill="#00C389"/>
<path d="M916.088 929.396C894.108 911.828 901.544 877.051 901.544 877.051C901.544 877.051 933.827 862.133 955.807 879.701C977.787 897.269 983.73 942.74 983.73 942.74C983.73 942.74 938.068 946.963 916.088 929.396Z" fill="#00C389"/>
<path fill-rule="evenodd" clip-rule="evenodd" d="M231.209 769.497C233.695 765.193 239.2 763.72 243.504 766.207C249.33 769.573 256.207 777.176 262.015 788.802C267.952 800.686 273.087 817.361 274.97 839.745C275.386 844.698 271.709 849.051 266.756 849.468C261.803 849.884 257.45 846.207 257.033 841.254C255.316 820.838 250.701 806.43 245.913 796.847C240.996 787.006 236.173 782.759 234.499 781.792C230.195 779.306 228.722 773.801 231.209 769.497Z" fill="#B28038"/>
<path fill-rule="evenodd" clip-rule="evenodd" d="M293.209 760.497C295.695 756.193 301.2 754.72 305.504 757.207C311.33 760.573 318.207 768.176 324.015 779.802C329.952 791.686 335.087 808.361 336.97 830.745C337.386 835.698 333.709 840.051 328.756 840.468C323.803 840.884 319.45 837.207 319.033 832.254C317.316 811.838 312.701 797.43 307.913 787.847C302.996 778.006 298.173 773.759 296.499 772.792C292.195 770.306 290.722 764.801 293.209 760.497Z" fill="#B28038"/>
<path fill-rule="evenodd" clip-rule="evenodd" d="M355.209 763.497C357.695 759.193 363.2 757.72 367.504 760.207C373.33 763.573 380.207 771.176 386.015 782.802C391.952 794.686 397.087 811.361 398.97 833.745C399.386 838.698 395.709 843.051 390.756 843.468C385.803 843.884 381.45 840.207 381.033 835.254C379.316 814.838 374.701 800.43 369.913 790.847C364.996 781.006 360.173 776.759 358.499 775.792C354.195 773.306 352.722 767.801 355.209 763.497Z" fill="#B28038"/>
<path d="M501.571 177.457C499.413 178.065 497.31 178.536 495.263 178.868V216.218C495.263 222.526 493.852 227.118 491.03 229.996C488.263 232.928 484.03 234.395 478.331 234.395C476.892 234.395 475.343 234.173 473.683 233.731C472.023 233.343 470.64 232.845 469.533 232.237C469.201 231.019 469.035 229.996 469.035 229.166C469.035 226.897 469.616 224.462 470.778 221.862L473.351 222.111C474.79 225.431 475.952 227.755 476.837 229.083C477.778 230.411 478.995 231.075 480.489 231.075C481.928 231.075 483.09 230.549 483.975 229.498C484.86 228.446 485.303 226.842 485.303 224.684V180.113C483.311 179.393 481.236 178.37 479.078 177.042C479.078 176.599 479.189 176.156 479.41 175.714C479.687 175.216 480.019 174.856 480.406 174.635H500.575C501.239 175.299 501.571 176.239 501.571 177.457Z" fill="#2C2A29"/>
<path d="M558.324 223.522C560.316 224.13 562.418 225.154 564.632 226.593C564.632 227.035 564.493 227.506 564.217 228.004C563.995 228.446 563.691 228.778 563.304 229H543.135C542.471 228.336 542.139 227.395 542.139 226.178C544.352 225.514 546.427 225.043 548.364 224.767V203.104H521.804V224.767C523.74 225.043 525.815 225.514 528.029 226.178C528.029 227.395 527.697 228.336 527.033 229H506.864C506.476 228.778 506.144 228.446 505.868 228.004C505.646 227.506 505.536 227.035 505.536 226.593C507.749 225.154 509.852 224.13 511.844 223.522V180.113C509.852 179.393 507.777 178.37 505.619 177.042C505.619 176.599 505.729 176.156 505.951 175.714C506.227 175.216 506.559 174.856 506.947 174.635H527.116C527.78 175.299 528.112 176.239 528.112 177.457C525.954 178.065 523.851 178.536 521.804 178.868V198.539H548.364V178.868C546.316 178.536 544.214 178.065 542.056 177.457C542.056 176.239 542.388 175.299 543.052 174.635H563.221C563.608 174.856 563.912 175.216 564.134 175.714C564.41 176.156 564.549 176.599 564.549 177.042C562.391 178.37 560.316 179.393 558.324 180.113V223.522Z" fill="#2C2A29"/>
<path d="M586.958 229.996C582.974 229.996 579.544 229.553 576.666 228.668C573.844 227.782 571.742 226.676 570.358 225.348C569.75 224.186 569.445 222 569.445 218.791C569.445 216.743 569.694 214.89 570.192 213.23C570.746 211.514 571.493 210.186 572.433 209.246L574.093 209.578C575.421 215.166 577.303 219.178 579.737 221.613C582.172 224.047 585.492 225.265 589.697 225.265C592.132 225.265 594.235 224.684 596.005 223.522C597.776 222.304 598.689 220.506 598.744 218.127C598.744 216.356 598.357 214.862 597.582 213.645C596.863 212.372 595.646 211.182 593.93 210.076C592.27 208.914 589.808 207.558 586.543 206.009C582.725 204.183 579.765 202.606 577.662 201.278C575.615 199.894 573.983 198.234 572.765 196.298C571.603 194.361 571.022 191.899 571.022 188.911C571.022 186.365 571.797 183.931 573.346 181.607C574.951 179.227 577.22 177.318 580.152 175.88C583.085 174.386 586.488 173.639 590.361 173.639C593.349 173.639 596.116 173.998 598.661 174.718C601.262 175.382 603.365 176.322 604.969 177.54C605.301 178.259 605.523 178.978 605.633 179.698C605.799 180.417 605.882 181.385 605.882 182.603C605.882 186.697 604.748 189.879 602.479 192.148L600.985 191.816C599.547 187.334 597.831 183.986 595.839 181.773C593.903 179.504 591.164 178.37 587.622 178.37C585.354 178.37 583.5 179.034 582.061 180.362C580.623 181.634 579.903 183.294 579.903 185.342C579.903 187.721 581.01 189.907 583.223 191.899C585.437 193.891 589.006 195.993 593.93 198.207C597.472 199.811 600.183 201.305 602.064 202.689C604.001 204.072 605.384 205.621 606.214 207.337C607.1 208.997 607.542 211.072 607.542 213.562C607.487 216.882 606.546 219.787 604.72 222.277C602.95 224.767 600.515 226.676 597.416 228.004C594.318 229.332 590.832 229.996 586.958 229.996Z" fill="#2C2A29"/>
<path fill-rule="evenodd" clip-rule="evenodd" d="M853.343 327.55C855.648 326.029 858.749 326.665 860.27 328.97C930.564 435.499 930.278 574.885 859.412 681.147C857.88 683.445 854.775 684.065 852.478 682.533C850.181 681.001 849.56 677.896 851.092 675.599C919.727 572.683 920.004 437.652 851.924 334.477C850.403 332.173 851.038 329.071 853.343 327.55Z" fill="#E4AC7B"/>
<ellipse cx="920.66" cy="359.743" rx="14.2342" ry="44.9753" transform="rotate(14.6673 920.66 359.743)" fill="#E4AC7B"/>
<ellipse cx="940.504" cy="425.452" rx="13.3421" ry="44.9753" transform="rotate(22.7954 940.504 425.452)" fill="#E4AC7B"/>
<ellipse cx="947.646" cy="503.786" rx="13.3421" ry="44.9753" transform="rotate(34.4799 947.646 503.786)" fill="#E4AC7B"/>
<ellipse rx="13.3421" ry="44.9753" transform="matrix(-0.650504 0.759503 0.759503 0.650504 857.32 505.343)" fill="#E4AC7B"/>
<ellipse cx="940.862" cy="582.869" rx="13.3421" ry="44.9753" transform="rotate(49.3444 940.862 582.869)" fill="#E4AC7B"/>
<ellipse rx="13.3421" ry="44.9753" transform="matrix(-0.701354 0.712813 0.712813 0.701354 847.838 568.882)" fill="#E4AC7B"/>
<ellipse cx="838.703" cy="382.929" rx="13.3421" ry="44.9753" transform="rotate(-54.0505 838.703 382.929)" fill="#E4AC7B"/>
<ellipse cx="841.239" cy="312.333" rx="16.4932" ry="44.9753" transform="rotate(-34.8569 841.239 312.333)" fill="#E4AC7B"/>
<ellipse cx="853.377" cy="443.561" rx="13.3421" ry="44.9753" transform="rotate(-50.595 853.377 443.561)" fill="#E4AC7B"/>
<path fill-rule="evenodd" clip-rule="evenodd" d="M226.657 327.55C224.352 326.029 221.251 326.665 219.73 328.97C149.436 435.499 149.722 574.885 220.588 681.147C222.12 683.445 225.225 684.065 227.522 682.533C229.819 681.001 230.44 677.896 228.908 675.599C160.273 572.683 159.996 437.652 228.076 334.477C229.597 332.173 228.962 329.071 226.657 327.55Z" fill="#E4AC7B"/>
<path d="M145.57 363.347C151.859 387.377 163.123 405.243 170.728 403.252C178.333 401.262 179.4 380.168 173.111 356.139C166.821 332.109 155.557 314.243 147.952 316.233C140.347 318.224 139.281 339.317 145.57 363.347Z" fill="#E4AC7B"/>
<path d="M127.196 430.621C136.82 453.52 150.129 469.769 156.922 466.914C163.715 464.06 161.42 443.182 151.796 420.283C142.173 397.384 128.864 381.135 122.071 383.99C115.278 386.845 117.573 407.722 127.196 430.621Z" fill="#E4AC7B"/>
<path d="M121.355 511.339C135.417 531.814 151.741 545.031 157.815 540.86C163.889 536.688 157.414 516.708 143.352 496.232C129.29 475.757 112.967 462.54 106.892 466.711C100.818 470.883 107.294 490.863 121.355 511.339Z" fill="#E4AC7B"/>
<path d="M231.359 515.476C212.494 531.634 193.315 540.196 188.522 534.6C183.728 529.003 195.136 511.368 214.001 495.21C232.867 479.052 252.046 470.49 256.839 476.087C261.633 481.683 250.225 499.318 231.359 515.476Z" fill="#E4AC7B"/>
<path d="M130.446 592.991C149.29 609.174 168.458 617.761 173.258 612.171C178.059 606.581 166.675 588.93 147.831 572.747C128.987 556.564 109.819 547.977 105.018 553.567C100.218 559.157 111.602 576.808 130.446 592.991Z" fill="#E4AC7B"/>
<path d="M241.519 578.393C223.814 595.814 205.271 605.678 200.103 600.426C194.935 595.173 205.099 576.793 222.804 559.372C240.51 541.951 259.053 532.086 264.221 537.339C269.389 542.591 259.225 560.972 241.519 578.393Z" fill="#E4AC7B"/>
<path d="M233.464 372.128C213.356 386.71 200.562 403.367 204.888 409.333C209.214 415.298 229.022 408.312 249.13 393.73C269.238 379.148 282.032 362.49 277.706 356.525C273.38 350.56 253.573 357.546 233.464 372.128Z" fill="#E4AC7B"/>
<path d="M225.227 302.907C211.031 323.289 205.582 344.033 213.057 349.239C220.531 354.445 238.099 342.142 252.295 321.759C266.492 301.377 271.941 280.633 264.466 275.427C256.991 270.221 239.424 282.524 225.227 302.907Z" fill="#E4AC7B"/>
<path d="M218.153 433.252C198.961 449.02 187.194 466.418 191.871 472.112C196.549 477.805 215.9 469.638 235.092 453.871C254.285 438.103 266.052 420.705 261.374 415.011C256.697 409.318 237.346 417.484 218.153 433.252Z" fill="#E4AC7B"/>
</svg>
