<svg width="1080" height="800" viewBox="0 0 1080 800" fill="none" xmlns="http://www.w3.org/2000/svg">
<path d="M568.862 329.349H302.992C302.992 314.223 315.371 301.958 330.636 301.958C331.712 301.958 332.74 302.006 333.767 302.152C338.709 283.536 355.833 269.816 376.138 269.816C376.823 269.816 377.459 269.816 378.144 269.864C387.978 249.261 409.164 235.008 433.725 235.008C461.32 235.008 484.707 253.091 492.438 277.912C507.899 279.9 521.06 289.305 528.106 302.394C529.965 302.103 531.824 301.958 533.732 301.958C550.759 301.958 565.046 313.641 568.862 329.349Z" fill="#59CBE8"/>
<path d="M285.441 281.797C304.98 281.797 320.819 266.003 320.819 246.52C320.819 227.036 304.98 211.242 285.441 211.242C265.902 211.242 250.062 227.036 250.062 246.52C250.062 266.003 265.902 281.797 285.441 281.797Z" fill="#FDDA24"/>
<path d="M285.438 282.032C265.81 282.032 249.82 266.088 249.82 246.516C249.82 226.944 265.81 211 285.438 211C305.066 211 321.056 226.944 321.056 246.516C321.056 266.088 305.066 282.032 285.438 282.032ZM285.438 211.477C266.049 211.477 250.299 227.183 250.299 246.516C250.299 265.849 266.049 281.555 285.438 281.555C304.827 281.555 320.577 265.849 320.577 246.516C320.577 227.183 304.827 211.477 285.438 211.477Z" fill="#FDDA24"/>
<path d="M285.441 266.855C296.704 266.855 305.835 257.751 305.835 246.519C305.835 235.288 296.704 226.184 285.441 226.184C274.178 226.184 265.047 235.288 265.047 246.519C265.047 257.751 274.178 266.855 285.441 266.855Z" fill="#FF7F41"/>
<path d="M229.297 459.027L305.444 407.555L381.591 459.027V582.56H229.297V459.027Z" fill="#F5B6CD"/>
<path d="M381.59 520.046L418.634 494L455.679 520.046V582.557H381.59V520.046Z" fill="#00C389"/>
<path d="M455.676 545.351L477.285 529.848L498.895 545.351V582.56H455.676V545.351Z" fill="#9063CD"/>
<path d="M132.654 501.302C134.308 501.302 135.961 501.357 137.614 501.411C142.849 501.686 148.14 502.401 153.816 503.555C157.178 504.214 159.382 507.511 158.666 510.863C158.004 514.215 154.698 516.413 151.336 515.699C146.321 514.655 141.582 514.05 136.953 513.83C118.216 512.786 100.967 518.776 90.8272 529.766C88.5127 532.294 84.5449 532.459 82.0099 530.096C79.4749 527.788 79.3096 523.831 81.6792 521.304C93.5275 508.5 111.934 501.302 132.654 501.302Z" fill="#59CBE8"/>
<path d="M191.018 515.865C191.789 515.865 192.561 516.03 193.332 516.305C194.655 516.854 196.033 517.349 197.355 517.898C212.841 524.053 228.822 530.372 245.079 532.735C271.09 536.472 286.741 528.174 293.739 522.899C296.495 520.811 300.408 521.36 302.447 524.108C304.541 526.855 303.99 530.757 301.234 532.79C286.41 543.945 265.855 548.231 243.26 544.989C225.516 542.406 208.818 535.812 192.671 529.383C191.348 528.834 190.026 528.339 188.703 527.79C185.507 526.526 183.964 522.899 185.231 519.712C186.168 517.349 188.538 515.865 191.018 515.865Z" fill="#59CBE8"/>
<path d="M315.892 517.235C317.435 517.235 318.978 517.784 320.245 518.883C322.89 521.301 323.111 525.367 320.686 528.005C319.749 528.994 297.871 552.733 265.413 554.052C261.831 554.217 258.8 551.414 258.634 547.842C258.469 544.27 261.28 541.248 264.862 541.083C291.92 539.984 310.822 519.488 311.042 519.268C312.365 517.949 314.128 517.235 315.892 517.235Z" fill="#9063CD"/>
<path d="M134.971 508.715C151.338 508.715 162.801 513.771 167.705 516.463C170.736 518.112 171.838 521.904 170.185 524.871C168.532 527.893 164.729 528.992 161.754 527.344C156.518 524.486 142.025 518.277 120.698 522.618C117.336 523.277 114.03 521.134 113.369 517.782C112.707 514.43 114.856 511.133 118.218 510.474C124.17 509.265 129.791 508.715 134.971 508.715Z" fill="#FDDA24"/>
<path d="M191.017 509.545C191.899 509.545 192.725 509.765 193.552 510.205C204.408 515.974 233.175 525.81 233.45 525.865C236.261 526.8 237.804 529.877 236.812 532.734C235.875 535.537 232.789 537.075 229.923 536.086C228.711 535.647 200.055 525.92 188.427 519.711C185.782 518.282 184.79 515.04 186.223 512.403C187.215 510.589 189.088 509.545 191.017 509.545Z" fill="#FF7F41"/>
<path d="M900.147 583.144C900.147 575.154 893.649 568.656 885.659 568.656C877.67 568.656 871.172 575.154 871.172 583.144" fill="#9063CD"/>
<path d="M882.043 583.14C882.043 558.122 861.761 537.867 836.769 537.867C811.777 537.867 791.496 558.148 791.496 583.14" fill="#9063CD"/>
<path d="M833.143 583.139C833.143 567.134 819.769 554.164 803.263 554.164C786.758 554.164 773.383 567.16 773.383 583.139" fill="#9063CD"/>
<path d="M787.867 583.144C787.867 570.129 777.719 559.602 765.23 559.602C752.742 559.602 742.594 570.156 742.594 583.144" fill="#9063CD"/>
<path d="M599.426 498.024L591.766 574.976C591.383 578.747 588.032 581.468 584.25 581.086C580.707 580.752 578.074 577.745 578.074 574.26L578.122 496.927C578.122 491.055 582.909 486.281 588.798 486.281C594.686 486.281 599.474 491.055 599.474 496.927C599.474 497.308 599.474 497.69 599.426 498.024Z" fill="#2C2A29"/>
<path d="M612.543 495.878L622.405 573.45C622.884 577.269 620.203 580.706 616.373 581.183C612.782 581.613 609.527 579.274 608.713 575.837L591.526 499.506C590.234 493.777 593.872 488.049 599.617 486.76C605.362 485.471 611.107 489.099 612.399 494.828C612.447 495.162 612.495 495.544 612.543 495.878Z" fill="#2C2A29"/>
<path d="M628.915 505.893C627.239 505.893 625.851 504.556 625.803 502.838C625.276 476.63 606.414 472 605.6 471.809C603.925 471.427 602.871 469.756 603.254 468.085C603.637 466.415 605.265 465.364 606.941 465.746C607.18 465.794 613.308 467.178 619.388 472.477C624.941 477.299 631.643 486.464 631.978 502.695C632.026 504.413 630.638 505.845 628.915 505.845C628.962 505.893 628.962 505.893 628.915 505.893Z" fill="#9063CD"/>
<path d="M633.078 512.77C632.982 512.77 632.886 512.77 632.838 512.77C631.689 512.627 630.875 511.576 631.019 510.431C631.977 502.793 631.498 495.823 629.583 489.665C629.248 488.567 629.87 487.422 630.971 487.04C632.072 486.706 633.221 487.326 633.604 488.424C635.711 495.155 636.237 502.697 635.184 510.908C635.04 512.006 634.131 512.77 633.078 512.77Z" fill="#00C389"/>
<path d="M622.304 475.487C621.778 475.487 621.203 475.296 620.82 474.867C614.74 468.613 608.182 466.322 608.134 466.322C607.033 465.94 606.458 464.746 606.841 463.696C607.224 462.598 608.373 462.025 609.474 462.407C609.762 462.503 616.99 464.985 623.836 472.002C624.65 472.814 624.602 474.151 623.788 474.962C623.358 475.296 622.831 475.487 622.304 475.487Z" fill="#00C389"/>
<path d="M594.692 505.62H596.99C606.326 505.62 613.842 498.078 613.842 488.817V487.289H577.793V488.817C577.793 498.078 585.357 505.62 594.692 505.62Z" fill="#2C2A29"/>
<path d="M581.66 448.094L574.191 495.162L618.522 501.368C618.522 501.368 623.022 448.667 581.66 448.094Z" fill="#E6DCCB"/>
<path d="M585.497 457.398C585.066 457.398 584.635 457.302 584.204 457.111C583.965 457.016 578.316 454.343 573.529 447.803C569.172 441.883 564.624 431.477 567.88 415.58C568.215 413.91 569.842 412.812 571.566 413.146C573.241 413.48 574.342 415.103 574.007 416.822C568.789 442.504 586.167 451.144 586.885 451.478C588.417 452.194 589.087 454.056 588.369 455.584C587.747 456.729 586.646 457.398 585.497 457.398Z" fill="#9063CD"/>
<path d="M565.292 431.099C564.191 431.099 563.282 430.287 563.234 429.189C562.659 422.172 563.808 414.677 566.633 406.896C567.016 405.798 568.213 405.273 569.314 405.655C570.415 406.037 570.989 407.23 570.558 408.328C567.973 415.537 566.92 422.458 567.399 428.903C567.494 430.049 566.633 431.051 565.484 431.147C565.436 431.099 565.34 431.099 565.292 431.099Z" fill="#59CBE8"/>
<path d="M582.095 460.215C581.712 460.215 581.329 460.119 580.994 459.928C580.707 459.785 574.196 455.775 569.074 447.421C568.451 446.419 568.787 445.178 569.744 444.557C570.749 443.937 571.994 444.271 572.616 445.226C577.164 452.673 583.053 456.3 583.101 456.348C584.106 456.969 584.393 458.21 583.771 459.212C583.484 459.833 582.814 460.215 582.095 460.215Z" fill="#59CBE8"/>
<path d="M606.69 442.408C610.291 438.657 609.882 432.438 605.776 428.518C601.669 424.598 595.42 424.462 591.818 428.214C588.217 431.966 588.626 438.185 592.732 442.105C596.839 446.025 603.088 446.16 606.69 442.408Z" fill="#E4AC7B"/>
<path d="M664.607 446.58C660.501 442.66 660.092 436.441 663.693 432.689C667.295 428.937 673.544 429.073 677.65 432.993C681.757 436.912 682.166 443.131 678.564 446.883C674.963 450.635 668.714 450.499 664.607 446.58Z" fill="#B28038"/>
<path d="M705.341 493.059C705.58 493.059 705.772 493.011 706.011 492.964C707.064 492.582 707.639 491.436 707.256 490.386C703.426 479.454 693.804 468.714 693.373 468.284C692.607 467.425 691.314 467.377 690.5 468.141C689.639 468.904 689.591 470.193 690.357 471.005C690.452 471.1 699.883 481.602 703.426 491.723C703.665 492.534 704.479 493.059 705.341 493.059Z" fill="#F5B6CD"/>
<path d="M704.192 505.905C704.336 505.905 704.479 505.905 704.671 505.857C706.155 505.618 707.16 504.186 706.873 502.706C703.857 485.187 692.989 469.1 677.814 459.696C676.521 458.884 674.845 459.314 674.032 460.555C673.218 461.844 673.649 463.515 674.893 464.326C688.729 472.919 698.686 487.574 701.463 503.613C701.75 504.95 702.899 505.905 704.192 505.905Z" fill="#59CBE8"/>
<path d="M655.791 457.165L673.887 497.693L689.733 499.507C689.781 499.507 710.893 439.646 655.791 457.165Z" fill="#E6DCCB"/>
<path d="M669.58 579.508C671.686 579.508 673.601 578.028 673.984 575.88C674.08 575.45 682.266 532.917 685.474 509.621C685.809 507.187 684.086 504.895 681.644 504.561C679.203 504.227 676.905 505.945 676.57 508.38C673.41 531.437 665.224 573.731 665.176 574.161C664.697 576.596 666.325 578.935 668.766 579.412C669.006 579.46 669.293 579.508 669.58 579.508Z" fill="#9063CD"/>
<path d="M666.273 520.516C666.273 520.516 663.64 542.761 653.874 556.604L666.273 520.516Z" fill="white"/>
<path d="M653.874 559.893C654.927 559.893 655.981 559.416 656.603 558.461C666.752 544.14 669.481 521.8 669.625 520.845C669.864 519.031 668.524 517.36 666.704 517.121C664.885 516.883 663.21 518.219 662.97 520.033C662.922 520.224 660.289 541.61 651.145 554.595C650.092 556.122 650.427 558.175 651.959 559.273C652.534 559.702 653.204 559.893 653.874 559.893Z" fill="#00C389"/>
<path d="M645.594 581.993C646.742 581.993 647.844 581.564 648.753 580.704C667.998 561.992 675.036 522.036 675.323 520.318C675.754 517.883 674.078 515.544 671.637 515.114C669.195 514.685 666.849 516.355 666.419 518.79C666.371 519.172 659.573 557.552 642.434 574.26C640.663 575.978 640.615 578.843 642.338 580.609C643.248 581.516 644.445 581.993 645.594 581.993Z" fill="#FF7F41"/>
<path d="M662.353 463.227C663.55 463.227 664.651 462.463 664.986 461.222C665.417 459.79 664.555 458.262 663.119 457.88C656.848 456.114 651.295 452.2 647.465 446.901C643.683 441.602 641.816 435.062 642.199 428.57C642.246 427.377 642.438 426.231 642.677 425.133C643.012 423.653 642.055 422.221 640.571 421.887C639.087 421.553 637.651 422.508 637.315 423.987C637.028 425.372 636.837 426.804 636.741 428.236C636.262 435.969 638.512 443.703 643.012 450.052C647.513 456.353 654.119 461.031 661.635 463.132C661.827 463.227 662.114 463.227 662.353 463.227Z" fill="#9063CD"/>
<path d="M658.803 465.519C659.713 465.519 660.527 464.946 660.766 464.039C661.053 462.941 660.431 461.843 659.378 461.509C643.148 456.926 639.51 441.316 639.51 441.125C639.271 440.027 638.17 439.311 637.069 439.55C635.967 439.789 635.249 440.886 635.489 441.984C635.632 442.7 639.702 460.124 658.277 465.375C658.42 465.471 658.612 465.519 658.803 465.519Z" fill="#FDDA24"/>
<path d="M683.559 491.195H691.613L686.061 527.458H655.351L656.139 522.257C658.95 504.15 670.329 491.195 683.559 491.195Z" fill="#2C2A29"/>
<path d="M741.184 503.264C740.948 503.264 740.712 503.231 740.476 503.164C733.565 501.416 727.329 497.348 722.913 491.769C718.497 486.155 716.036 479.164 715.969 472.038C715.969 470.424 717.25 469.113 718.834 469.113C720.452 469.113 721.767 470.391 721.767 471.97C721.834 477.819 723.857 483.567 727.464 488.172C731.071 492.777 736.195 496.105 741.892 497.517C743.442 497.92 744.386 499.5 743.982 501.046C743.678 502.39 742.498 503.264 741.184 503.264Z" fill="#F5B6CD"/>
<path d="M748.392 581.688C746.504 581.688 744.65 580.814 743.504 579.133C733.796 565.251 737.942 532.881 738.414 529.251C738.852 525.99 741.886 523.738 745.122 524.175C748.392 524.612 750.65 527.604 750.212 530.864C748.56 542.864 747.92 564.713 753.246 572.31C755.134 574.999 754.46 578.696 751.763 580.579C750.785 581.352 749.572 581.688 748.392 581.688Z" fill="#2C2A29"/>
<path d="M731.036 581.686C728.204 581.686 725.676 579.669 725.171 576.779C720.653 551.165 728.204 529.048 728.542 528.106C729.62 525.014 733.025 523.367 736.126 524.443C739.228 525.518 740.879 528.913 739.801 532.006C739.666 532.342 732.958 552.308 736.902 574.695C737.475 577.921 735.317 581.014 732.081 581.585C731.71 581.686 731.373 581.686 731.036 581.686Z" fill="#2C2A29"/>
<path d="M752.475 488.763C756.377 485.04 756.765 479.131 753.343 475.567C749.922 472.002 743.985 472.131 740.084 475.855C736.182 479.579 735.793 485.487 739.215 489.052C742.637 492.616 748.574 492.487 752.475 488.763Z" fill="#B28038"/>
<path d="M731.541 493.617C731.305 493.617 731.069 493.55 730.833 493.415C726.113 490.76 722.742 483.365 722.608 483.062C722.27 482.323 722.608 481.482 723.349 481.146C724.091 480.81 724.933 481.146 725.271 481.886C725.304 481.953 728.406 488.709 732.249 490.894C732.956 491.297 733.192 492.171 732.788 492.877C732.552 493.348 732.046 493.617 731.541 493.617Z" fill="#9063CD"/>
<path d="M756.761 495.397V535.263H724.096C724.13 535.263 720.658 493.717 756.761 495.397Z" fill="#E6DCCB"/>
<path d="M770.752 529.213C769.37 529.213 768.122 528.205 767.886 526.793C766.302 517.516 759.628 509.18 750.93 505.583C749.447 504.978 748.739 503.264 749.346 501.785C749.953 500.306 751.672 499.6 753.155 500.205C763.673 504.575 771.696 514.591 773.617 525.785C773.887 527.364 772.808 528.877 771.224 529.146C771.055 529.213 770.887 529.213 770.752 529.213Z" fill="#59CBE8"/>
<path d="M720.656 490.562C720.286 490.562 719.915 490.427 719.645 490.158C718.094 488.646 716.746 485.889 715.6 481.99C714.757 479.167 714.353 476.814 714.353 476.713C714.218 475.94 714.757 475.167 715.533 475.032C716.342 474.898 717.083 475.436 717.218 476.209C717.656 478.696 719.274 485.688 721.701 488.074C722.274 488.646 722.274 489.553 721.701 490.125C721.432 490.427 721.061 490.562 720.656 490.562Z" fill="#FDDA24"/>
<path d="M767.11 525.346C766.368 525.346 765.727 524.775 765.66 524.035C765.323 520.674 761.817 516.002 760.502 514.489C759.963 513.884 760.031 512.977 760.637 512.439C761.244 511.901 762.154 511.968 762.694 512.573C762.93 512.809 768.053 518.792 768.559 523.733C768.627 524.54 768.053 525.246 767.244 525.313C767.211 525.346 767.177 525.346 767.11 525.346Z" fill="#9063CD"/>
<path d="M767.147 512.472C766.675 512.472 766.203 512.237 765.9 511.8C762.596 506.556 754.27 502.422 754.203 502.388C753.495 502.018 753.191 501.178 753.528 500.438C753.899 499.733 754.742 499.43 755.484 499.766C755.854 499.934 764.619 504.304 768.361 510.254C768.799 510.926 768.597 511.833 767.889 512.237C767.686 512.371 767.417 512.472 767.147 512.472Z" fill="#FDDA24"/>
<path d="M738.883 476.269L742.058 477.283L755.948 481.724L756.112 481.366C757.945 477.238 755.62 472.678 750.91 471.172C746.201 469.667 740.88 471.783 739.047 475.912L738.883 476.269Z" fill="#FDDA24"/>
<path d="M745.867 478.571L737.62 476.04L733.254 470.688L745.867 478.571Z" fill="#9063CD"/>
<path d="M949.993 588.36H115.482C114.142 588.36 113.09 586.827 113.09 584.877C113.09 582.927 114.142 581.395 115.482 581.395H949.993C951.333 581.395 952.385 582.927 952.385 584.877C952.385 586.827 951.333 588.36 949.993 588.36Z" fill="#00C389"/>
<path d="M140.136 444.127C123.24 451.188 105.135 454.904 86.8232 455.069L85.6797 455.079L86.4905 454.273C99.4733 441.359 114.838 431.086 131.734 424.024C148.63 416.963 166.735 413.247 185.047 413.082L186.19 413.072L185.38 413.878C172.397 426.793 157.032 437.065 140.136 444.127Z" fill="#00C389"/>
<path d="M222.896 454.756C208.333 443.655 196.062 429.833 186.764 414.057L186.183 413.072L187.287 413.371C204.962 418.157 221.541 426.328 236.105 437.429C250.668 448.531 262.939 462.352 272.237 478.128L272.818 479.113L271.714 478.814C254.039 474.028 237.46 465.857 222.896 454.756Z" fill="#00C389"/>
<path d="M182.316 357.66C179.983 375.823 181.197 394.266 185.89 411.967L186.183 413.072L186.746 412.077C195.759 396.136 201.593 378.598 203.926 360.435C206.258 342.272 205.044 323.829 200.352 306.129L200.059 305.023L199.496 306.019C190.483 321.959 184.648 339.497 182.316 357.66Z" fill="#00C389"/>
<path d="M187.147 405.601C191.154 405.418 194.551 408.517 194.734 412.524C194.917 416.531 191.817 419.928 187.811 420.111C183.804 420.294 180.407 417.194 180.224 413.188C180.041 409.181 183.141 405.784 187.147 405.601Z" fill="#00C389"/>
<path d="M184.431 414.901C184.45 413.557 185.258 412.48 186.249 412.48C187.24 412.48 188.048 413.557 188.066 414.901L193.099 587.585H179.398L184.431 414.901Z" fill="#00C389"/>
<path d="M933.369 404.683C954.631 410.38 976.795 411.898 998.635 409.152L999.998 408.981L998.903 408.15C981.363 394.852 961.409 385.084 940.147 379.387C918.886 373.69 896.722 372.173 874.882 374.919L873.518 375.09L874.614 375.921C892.154 389.218 912.108 398.986 933.369 404.683Z" fill="#00C389"/>
<path d="M836.491 430.643C852.056 415.079 864.452 396.643 872.994 376.356L873.527 375.089L872.26 375.623C851.974 384.164 833.538 396.561 817.973 412.125C802.409 427.69 790.013 446.126 781.471 466.412L780.938 467.679L782.204 467.146C802.491 458.604 820.927 446.208 836.491 430.643Z" fill="#00C389"/>
<path d="M869.23 308.46C874.927 329.722 876.445 351.886 873.699 373.726L873.527 375.089L872.697 373.994C859.399 356.454 849.631 336.5 843.934 315.238C838.237 293.977 836.72 271.813 839.466 249.973L839.637 248.609L840.468 249.705C853.765 267.245 863.533 287.199 869.23 308.46Z" fill="#00C389"/>
<path d="M871.178 366.345C866.376 366.77 862.828 371.008 863.253 375.811C863.679 380.613 867.917 384.161 872.719 383.736C877.522 383.31 881.07 379.072 880.644 374.27C880.219 369.467 875.98 365.919 871.178 366.345Z" fill="#00C389"/>
<path d="M871.827 376.667C871.849 375.052 872.82 373.758 874.011 373.758C875.202 373.758 876.174 375.052 876.196 376.667L882.245 584.235H865.777L871.827 376.667Z" fill="#00C389"/>
<path d="M797.15 327.016C798.837 327.016 800.524 326.96 802.21 326.904C807.551 326.624 812.948 325.895 818.739 324.718C822.168 324.045 824.417 320.681 823.686 317.262C823.012 313.842 819.638 311.6 816.209 312.329C811.093 313.394 806.258 314.01 801.536 314.235C782.421 315.3 764.824 309.189 754.48 297.978C752.118 295.399 748.07 295.231 745.484 297.641C742.898 299.996 742.73 304.032 745.147 306.611C757.234 319.672 776.012 327.016 797.15 327.016Z" fill="#59CBE8"/>
<path d="M856.686 312.165C857.473 312.165 858.26 311.997 859.047 311.717C860.396 311.156 861.802 310.652 863.151 310.091C878.949 303.813 895.253 297.366 911.837 294.955C938.373 291.143 954.34 299.608 961.48 304.99C964.291 307.12 968.282 306.559 970.362 303.756C972.499 300.954 971.936 296.973 969.125 294.899C954.002 283.519 933.032 279.147 909.982 282.454C891.879 285.089 874.845 291.816 858.372 298.375C857.023 298.935 855.674 299.44 854.325 300.001C851.064 301.29 849.49 304.99 850.783 308.241C851.738 310.652 854.156 312.165 856.686 312.165Z" fill="#59CBE8"/>
<path d="M984.081 310.762C985.655 310.762 987.23 310.201 988.523 309.08C991.221 306.614 991.446 302.465 988.972 299.774C988.017 298.765 965.697 274.548 932.584 273.202C928.93 273.034 925.838 275.893 925.669 279.537C925.5 283.181 928.367 286.264 932.022 286.432C959.626 287.554 978.909 308.464 979.134 308.688C980.483 310.033 982.282 310.762 984.081 310.762Z" fill="#9063CD"/>
<path d="M799.511 319.457C816.208 319.457 827.902 314.3 832.905 311.553C835.998 309.871 837.122 306.003 835.435 302.976C833.749 299.892 829.87 298.771 826.834 300.453C821.493 303.368 806.707 309.703 784.95 305.274C781.52 304.601 778.147 306.788 777.473 310.207C776.798 313.627 778.991 316.99 782.42 317.663C788.492 318.897 794.226 319.457 799.511 319.457Z" fill="#FDDA24"/>
<path d="M856.689 318.606C857.588 318.606 858.432 318.381 859.275 317.933C870.35 312.047 899.697 302.012 899.978 301.956C902.845 301.003 904.419 297.864 903.407 294.949C902.452 292.09 899.303 290.52 896.38 291.529C895.143 291.978 865.909 301.9 854.046 308.235C851.348 309.692 850.336 313 851.798 315.691C852.81 317.541 854.721 318.606 856.689 318.606Z" fill="#FF7F41"/>
</svg>
