<svg width="1080" height="1080" viewBox="0 0 1080 1080" fill="none" xmlns="http://www.w3.org/2000/svg">
<g clip-path="url(#clip0)">
<path d="M255.335 357.615H94.8077C76.8333 357.589 59.6025 350.438 46.892 337.729C34.1814 325.02 27.0281 307.79 27 289.816L27 129.288C27.026 111.312 34.1783 94.0803 46.8891 81.3696C59.5999 68.6588 76.8319 61.5064 94.8077 61.4805H255.335C261.331 61.4805 267.08 63.8621 271.32 68.1014C275.559 72.3407 277.941 78.0905 277.941 84.0857C277.941 90.081 275.559 95.8308 271.32 100.07C267.08 104.309 261.331 106.691 255.335 106.691H94.8077C88.8165 106.698 83.0726 109.08 78.8363 113.317C74.5999 117.553 72.2171 123.297 72.2106 129.288V289.816C72.2171 295.806 74.6002 301.549 78.8368 305.784C83.0734 310.019 88.8173 312.4 94.8077 312.405H255.335C261.325 312.4 267.068 310.019 271.303 305.784C275.539 301.549 277.92 295.806 277.924 289.816V129.288C277.924 123.293 280.306 117.543 284.545 113.304C288.785 109.064 294.534 106.683 300.53 106.683C306.525 106.683 312.275 109.064 316.514 113.304C320.753 117.543 323.135 123.293 323.135 129.288V289.816C323.107 307.789 315.955 325.018 303.246 337.726C290.537 350.435 273.308 357.587 255.335 357.615Z" fill="#9063CD"/>
<path d="M391.254 114.39V304.714C391.254 334.31 415.246 358.303 444.842 358.303H635.167C664.763 358.303 688.755 334.31 688.755 304.714V114.39C688.755 84.7938 664.763 60.8015 635.167 60.8015H444.842C415.246 60.8015 391.254 84.7938 391.254 114.39Z" fill="#FDDA24"/>
<path d="M635.156 385.098H444.832C423.52 385.074 403.089 376.597 388.019 361.528C372.95 346.458 364.473 326.027 364.449 304.715V114.391C364.473 93.0785 372.949 72.6459 388.019 57.5751C403.088 42.5043 423.52 34.026 444.832 34L635.156 34C656.47 34.0238 676.904 42.5012 691.975 57.5722C707.046 72.6432 715.523 93.0771 715.547 114.391V304.715C715.523 326.028 707.046 346.461 691.974 361.531C676.903 376.601 656.469 385.076 635.156 385.098ZM444.832 87.5965C437.733 87.6117 430.93 90.4405 425.914 95.4631C420.897 100.486 418.077 107.292 418.07 114.391V304.715C418.079 311.817 420.904 318.625 425.925 323.646C430.947 328.668 437.755 331.493 444.856 331.501H635.156C642.258 331.495 649.068 328.671 654.09 323.649C659.112 318.627 661.936 311.817 661.942 304.715V114.391C661.936 107.288 659.112 100.478 654.09 95.4544C649.068 90.4312 642.259 87.6052 635.156 87.5965H444.832Z" fill="#00C389"/>
<path d="M985.194 352.036H824.69C818.695 352.036 812.945 349.654 808.706 345.415C804.467 341.175 802.085 335.426 802.085 329.43C802.085 323.435 804.467 317.685 808.706 313.446C812.945 309.207 818.695 306.825 824.69 306.825H985.218C991.209 306.819 996.953 304.436 1001.19 300.199C1005.43 295.963 1007.81 290.219 1007.82 284.228V123.7C1007.81 117.702 1005.43 111.95 1001.19 107.71C996.945 103.469 991.192 101.087 985.194 101.087H824.69C818.699 101.093 812.955 103.476 808.719 107.712C804.483 111.949 802.1 117.693 802.093 123.684V284.228C802.093 290.223 799.712 295.973 795.472 300.212C791.233 304.452 785.483 306.833 779.488 306.833C773.493 306.833 767.743 304.452 763.504 300.212C759.264 295.973 756.883 290.223 756.883 284.228V123.7C756.909 105.725 764.061 88.4924 776.772 75.7817C789.483 63.0709 806.715 55.9185 824.69 55.8926H985.218C1003.19 55.9185 1020.43 63.0709 1033.14 75.7817C1045.85 88.4924 1053 105.725 1053.03 123.7V284.228C1053 302.208 1045.84 319.444 1033.13 332.155C1020.41 344.867 1003.17 352.016 985.194 352.036Z" fill="#F5B6CD"/>
<path d="M123.395 162.62V256.469H217.244V162.62H123.395Z" fill="#00C389"/>
<path d="M539.999 280.481C579.175 280.481 610.932 248.723 610.932 209.548C610.932 170.373 579.175 138.615 539.999 138.615C500.824 138.615 469.066 170.373 469.066 209.548C469.066 248.723 500.824 280.481 539.999 280.481Z" fill="white"/>
<path d="M900.17 149.506L843.742 247.249H956.605L900.17 149.506Z" fill="#00C389"/>
<path d="M594.242 259.922C594.242 232.102 571.689 209.549 543.869 209.549C516.049 209.549 493.496 232.102 493.496 259.922V648.916C493.496 676.736 516.049 699.289 543.869 699.289C571.689 699.289 594.242 676.736 594.242 648.916V259.922Z" fill="#8F6121"/>
<path d="M551.241 431.617L747.439 450.156C792.724 454.443 826.644 492.062 824.713 535.865L817.571 697.653C816.545 720.894 810.547 743.646 799.981 764.372L791.799 780.44H493.496V431.617H551.241Z" fill="#8F6121"/>
<path d="M422.278 525.345C407.753 534.193 395.748 546.629 387.418 561.457C379.088 576.285 374.712 593.006 374.711 610.014C374.708 634.463 383.741 658.05 400.073 676.243L493.513 780.474V481.926L422.278 525.345Z" fill="#8F6121"/>
<path d="M469.91 496.309L493.497 699.29V481.926L469.91 496.309Z" fill="#6A4E32"/>
<path d="M751.416 1046.08H521.723C501.825 1046.08 482.745 1038.17 468.677 1024.1C454.61 1010.02 446.707 990.94 446.707 971.042V789.963H826.448V971.042C826.448 990.943 818.543 1010.03 804.472 1024.1C790.401 1038.17 771.316 1046.08 751.416 1046.08Z" fill="#59CBE8"/>
<path d="M836.873 751.029H436.27V837.294H836.873V751.029Z" fill="#FF7F41"/>
<path d="M748.486 968.392C770.469 968.392 788.289 950.572 788.289 928.59C788.289 906.607 770.469 888.787 748.486 888.787C726.504 888.787 708.684 906.607 708.684 928.59C708.684 950.572 726.504 968.392 748.486 968.392Z" fill="#2C2A29"/>
</g>
<defs>
<clipPath id="clip0">
<rect width="1026" height="1012.08" fill="white" transform="translate(27 34)"/>
</clipPath>
</defs>
</svg>
