<svg width="1080" height="1080" viewBox="0 0 1080 1080" fill="none" xmlns="http://www.w3.org/2000/svg">
<path d="M621.456 864.21H305.918V425.822H643.126L621.456 864.21Z" fill="#9063CD"/>
<path d="M579.461 829.607H256.346L242.258 391.213H579.461V829.607Z" fill="#59CBE8"/>
<path d="M612.376 359.408H275.168V797.796H612.376V359.408Z" fill="#E6DCCB"/>
<path d="M552.996 542.539H462.465L463.934 324.471H572.193L552.996 542.539Z" fill="#F5B6CD"/>
<path d="M463.266 423.615H323.147L317.688 324.471H463.936L463.266 423.615Z" fill="#FF7F41"/>
<path d="M462.469 542.537H342.832L336.309 424.094H463.263L462.469 542.537Z" fill="#9063CD"/>
<path d="M519.462 513.648L497.668 513.556L497.852 469.979L521.849 470.081L519.462 513.648Z" fill="#2C2A29"/>
<path d="M526.281 414.013L498.082 413.894L498.303 362.162L530.293 362.297L526.281 414.013Z" fill="#2C2A29"/>
<path d="M392.958 513.622H351.977L349.363 470.027H392.958V513.622Z" fill="#2C2A29"/>
<path d="M583.182 324.47H302.959L301.059 307.352H586.481L583.182 324.47Z" fill="#FDDA24"/>
<path d="M445.71 470.027H407.359V542.533H445.71V470.027Z" fill="#2C2A29"/>
<path d="M409.602 423.614H445.906L445.776 348.047H408.133L409.602 423.614Z" fill="#2C2A29"/>
<path d="M342.792 423.614H390.997L388.854 348.047H339.309L342.792 423.614Z" fill="#2C2A29"/>
<path d="M466.938 438.955H314.523L313.48 423.613H467.04L466.938 438.955Z" fill="#FDDA24"/>
<path d="M781.271 449.308H719.992C709.706 449.288 699.848 445.193 692.575 437.92C685.302 430.647 681.207 420.789 681.188 410.504V349.224C681.207 338.939 685.302 329.08 692.575 321.808C699.848 314.535 709.706 310.44 719.992 310.42H781.271C791.557 310.44 801.415 314.535 808.688 321.808C815.961 329.08 820.056 338.939 820.076 349.224V410.504C820.056 420.789 815.961 430.647 808.688 437.92C801.415 445.193 791.557 449.288 781.271 449.308ZM719.992 343.36C718.437 343.361 716.946 343.98 715.847 345.079C714.747 346.179 714.129 347.669 714.128 349.224V410.504C714.129 412.058 714.747 413.549 715.847 414.649C716.946 415.748 718.437 416.366 719.992 416.368H781.271C782.826 416.366 784.317 415.748 785.416 414.649C786.516 413.549 787.134 412.058 787.136 410.504V349.224C787.134 347.669 786.516 346.179 785.416 345.079C784.317 343.98 782.826 343.361 781.271 343.36H719.992Z" fill="#F5B6CD"/>
<path d="M781.271 623.198H719.992C709.706 623.178 699.848 619.084 692.575 611.811C685.302 604.538 681.207 594.68 681.188 584.394V523.115C681.207 512.83 685.302 502.971 692.575 495.698C699.848 488.425 709.706 484.331 719.992 484.311H781.271C791.557 484.331 801.415 488.425 808.688 495.698C815.961 502.971 820.056 512.83 820.076 523.115V584.394C820.056 594.68 815.961 604.538 808.688 611.811C801.415 619.084 791.557 623.178 781.271 623.198ZM719.992 517.251C718.437 517.252 716.946 517.87 715.847 518.97C714.747 520.069 714.129 521.56 714.128 523.115V584.394C714.129 585.949 714.747 587.44 715.847 588.539C716.946 589.639 718.437 590.257 719.992 590.258H781.271C782.826 590.257 784.317 589.639 785.416 588.539C786.516 587.44 787.134 585.949 787.136 584.394V523.115C787.134 521.56 786.516 520.069 785.416 518.97C784.317 517.87 782.826 517.252 781.271 517.251H719.992Z" fill="#F5B6CD"/>
<path d="M781.271 790.922H719.992C709.704 790.91 699.84 786.818 692.566 779.544C685.291 772.269 681.199 762.405 681.188 752.117V690.843C681.199 680.555 685.291 670.692 692.566 663.417C699.84 656.142 709.704 652.05 719.992 652.039H781.271C791.559 652.05 801.423 656.142 808.697 663.417C815.972 670.692 820.064 680.555 820.076 690.843V752.117C820.064 762.405 815.972 772.269 808.697 779.544C801.423 786.818 791.559 790.91 781.271 790.922ZM719.992 684.979C718.437 684.981 716.946 685.599 715.847 686.698C714.747 687.798 714.129 689.289 714.128 690.843V752.117C714.129 753.672 714.747 755.163 715.847 756.262C716.946 757.362 718.437 757.98 719.992 757.982H781.271C782.826 757.98 784.317 757.362 785.416 756.262C786.516 755.163 787.134 753.672 787.136 752.117V690.843C787.134 689.289 786.516 687.798 785.416 686.698C784.317 685.599 782.826 684.981 781.271 684.979H719.992Z" fill="#F5B6CD"/>
<path d="M749.099 423.105C746.936 423.109 744.793 422.685 742.794 421.857C740.795 421.03 738.979 419.815 737.451 418.283L709.02 389.836C707.459 388.314 706.215 386.497 705.362 384.49C704.508 382.484 704.061 380.328 704.047 378.147C704.033 375.967 704.453 373.805 705.281 371.788C706.109 369.771 707.329 367.938 708.871 366.396C710.413 364.854 712.245 363.634 714.263 362.806C716.28 361.978 718.441 361.559 720.622 361.572C722.802 361.586 724.959 362.033 726.965 362.887C728.972 363.741 730.789 364.984 732.311 366.546L749.115 383.345L826.119 306.341C829.208 303.251 833.397 301.515 837.766 301.514C842.135 301.513 846.325 303.247 849.415 306.336C852.505 309.424 854.241 313.614 854.242 317.982C854.243 322.351 852.509 326.541 849.42 329.631L760.742 418.283C759.215 419.815 757.4 421.029 755.402 421.857C753.404 422.685 751.262 423.109 749.099 423.105Z" fill="#00C389"/>
<path d="M749.099 594.118C746.936 594.118 744.794 593.693 742.796 592.865C740.797 592.038 738.981 590.825 737.451 589.296L709.02 560.849C707.459 559.327 706.215 557.51 705.362 555.503C704.508 553.497 704.061 551.341 704.047 549.16C704.033 546.979 704.453 544.818 705.281 542.801C706.109 540.783 707.329 538.951 708.871 537.409C710.413 535.867 712.245 534.647 714.263 533.819C716.28 532.991 718.441 532.571 720.622 532.585C722.802 532.599 724.959 533.046 726.965 533.9C728.972 534.753 730.788 535.997 732.311 537.558L749.115 554.358L826.103 477.359C829.191 474.267 833.38 472.528 837.75 472.525C842.12 472.522 846.312 474.255 849.404 477.343C852.496 480.431 854.235 484.62 854.238 488.99C854.241 493.36 852.508 497.552 849.42 500.644L760.769 589.296C759.237 590.828 757.417 592.043 755.415 592.87C753.412 593.698 751.266 594.122 749.099 594.118Z" fill="#00C389"/>
<path d="M578.696 589.82H313.48V620.179H578.696V589.82Z" fill="#2C2A29"/>
<path d="M578.696 647.645H313.48V678.003H578.696V647.645Z" fill="#2C2A29"/>
<path d="M578.696 708.027H313.48V738.386H578.696V708.027Z" fill="#2C2A29"/>
</svg>
