<svg width="1080" height="1080" viewBox="0 0 1080 1080" fill="none" xmlns="http://www.w3.org/2000/svg">
<g clip-path="url(#clip0)">
<path fill-rule="evenodd" clip-rule="evenodd" d="M229.812 462.577C229.812 442.376 215.262 426 197.312 426C179.363 426 164.812 442.376 164.812 462.577V706.423C164.812 726.624 179.363 743 197.312 743C212.49 743 225.237 731.291 228.812 715.462V743H287.812V813H340.812V581.973C340.812 567.629 328.948 556 314.312 556C302.186 556 291.961 563.984 288.812 574.881V515.391C288.812 499.159 275.381 486 258.812 486C244.909 486 233.215 495.265 229.812 507.837V462.577Z" fill="#B28038"/>
<path fill-rule="evenodd" clip-rule="evenodd" d="M851.109 462.577C851.109 442.376 865.66 426 883.609 426C901.559 426 916.109 442.376 916.109 462.577V706.423C916.109 726.624 901.559 743 883.609 743C868.432 743 855.685 731.291 852.109 715.462V743H793.109V813H740.109V581.973C740.109 567.629 751.974 556 766.609 556C778.736 556 788.961 563.984 792.109 574.881V515.391C792.109 499.159 805.541 486 822.109 486C836.012 486 847.707 495.265 851.109 507.837V462.577Z" fill="#B28038"/>
<path fill-rule="evenodd" clip-rule="evenodd" d="M131.2 431.473C150.087 431.473 165.399 446.784 165.399 465.672V620.647L165.547 620.803C165.306 622.815 165.957 624.915 167.502 626.459L240.101 699.058L246.185 705.445C246.224 705.383 246.263 705.321 246.302 705.259L271.371 730.328C274.042 733 278.373 733 281.044 730.328C283.715 727.657 283.715 723.327 281.044 720.655L228.917 668.528C219.72 656.863 220.502 639.898 231.266 629.134C242.874 617.527 261.694 617.527 273.302 629.134L415.724 771.556L415.179 772.101H417.11V1000.55H272.104V859.958L119.266 697.299C106.558 683.775 98.8563 666.398 97.2976 648.041C97.1013 646.559 97 645.046 97 643.51V465.672C97 446.784 112.312 431.473 131.2 431.473Z" fill="#E4AC7B"/>
<path fill-rule="evenodd" clip-rule="evenodd" d="M949.722 431.473C930.834 431.473 915.523 446.784 915.523 465.672V620.647L915.375 620.803C915.616 622.815 914.965 624.915 913.42 626.459L840.821 699.058L834.737 705.445C834.698 705.383 834.659 705.321 834.62 705.259L809.551 730.328C806.88 733 802.549 733 799.878 730.328C797.206 727.657 797.206 723.327 799.878 720.655L852.005 668.528C861.202 656.863 860.419 639.898 849.656 629.134C838.048 617.527 819.228 617.527 807.62 629.134L665.198 771.556L665.742 772.101H663.812V1000.55H808.818V859.958L961.656 697.299C974.364 683.775 982.066 666.398 983.624 648.041C983.821 646.559 983.922 645.046 983.922 643.51V465.672C983.922 446.784 968.61 431.473 949.722 431.473Z" fill="#E4AC7B"/>
<path d="M754.227 413.229C752.02 416.014 748.857 417.88 745.351 418.465C741.846 419.049 738.248 418.31 735.256 416.391C732.265 414.473 730.093 411.511 729.163 408.081C728.233 404.651 728.61 400.997 730.222 397.83C736.899 384.718 742.237 370.966 746.156 356.784C750.054 342.6 752.485 328.054 753.409 313.374C755.181 283.936 750.944 254.446 740.955 226.699C739.663 223.124 739.845 219.183 741.46 215.742C743.074 212.301 745.989 209.642 749.564 208.351C753.139 207.059 757.08 207.241 760.521 208.855C763.962 210.47 766.621 213.385 767.912 216.96C779.221 248.398 784.015 281.807 782.004 315.156C780.95 331.796 778.191 348.284 773.769 364.361C769.352 380.412 763.324 395.976 755.777 410.816C755.344 411.671 754.825 412.479 754.227 413.229Z" fill="#F5B6CD"/>
<path d="M430.545 505.819C428.382 508.542 425.303 510.386 421.881 511.007C418.459 511.627 414.928 510.983 411.946 509.193C406.237 505.767 400.434 501.928 394.689 497.78C388.747 493.476 383.435 489.278 378.412 484.927C357.479 466.857 339.775 445.356 326.057 421.345C298.337 373.023 287.985 316.672 296.72 261.653C297.81 254.876 299.196 248.065 300.843 241.396L300.881 241.239L301.262 239.677C301.551 238.57 301.827 237.453 302.146 236.283L302.178 236.242L303.593 231.225L305.496 225.051L306.658 221.583C307.916 218.041 310.515 215.135 313.895 213.491C317.275 211.847 321.166 211.597 324.729 212.794C328.292 213.992 331.242 216.542 332.943 219.894C334.644 223.246 334.96 227.132 333.822 230.715L332.418 235.019L331.054 239.475L329.79 243.964C329.554 244.819 329.324 245.726 329.082 246.69L328.657 248.357C327.205 254.239 325.974 260.257 325.035 266.192C323.126 278.227 322.234 290.402 322.367 302.587C322.876 339.301 332.713 375.282 350.953 407.149C363.065 428.342 378.698 447.318 397.18 463.262C401.566 467.068 406.249 470.762 411.475 474.579C416.537 478.24 421.661 481.629 426.691 484.622C429.949 486.579 432.297 489.75 433.219 493.437C434.14 497.125 433.56 501.027 431.605 504.287C431.284 504.819 430.93 505.331 430.545 505.819Z" fill="#FF7F41"/>
<path d="M590.191 518.15C588.706 520.028 586.608 521.322 584.264 521.806C554.091 528.082 522.956 528.148 492.757 522C462.594 515.753 433.995 503.506 408.659 485.986C383.329 468.424 361.882 445.841 345.65 419.639C329.419 393.448 318.645 364.247 313.976 333.79C313.758 332.452 313.807 331.085 314.121 329.766C314.435 328.448 315.007 327.205 315.805 326.11C316.603 325.014 317.611 324.088 318.77 323.386C319.928 322.683 321.215 322.217 322.555 322.015C323.895 321.814 325.262 321.88 326.576 322.211C327.891 322.541 329.126 323.13 330.211 323.942C331.296 324.754 332.209 325.773 332.897 326.94C333.586 328.108 334.035 329.4 334.22 330.743C338.471 358.45 348.275 385.013 363.043 408.839C377.799 432.663 397.298 453.197 420.327 469.165C443.388 485.112 469.421 496.258 496.877 501.941C524.333 507.534 552.639 507.476 580.071 501.771C582.131 501.339 584.274 501.553 586.208 502.383C588.142 503.213 589.773 504.619 590.879 506.409C591.985 508.2 592.512 510.288 592.389 512.388C592.266 514.489 591.498 516.501 590.191 518.15Z" fill="#FDDA24"/>
<path d="M765.762 311.287C763.907 313.629 761.366 315.334 758.495 316.161C755.624 316.989 752.565 316.898 749.748 315.902C746.931 314.905 744.496 313.053 742.783 310.605C741.07 308.156 740.166 305.233 740.196 302.245C740.316 290.432 739.402 278.631 737.464 266.978C736.484 261.079 735.254 255.251 733.811 249.66C732.316 243.956 730.596 238.266 728.632 232.717C720.77 210.375 709.042 189.589 693.984 171.307C686.479 162.192 678.183 153.758 669.193 146.103C664.54 142.145 659.855 138.497 655.275 135.265C650.478 131.867 645.465 128.633 640.366 125.652C630.152 119.676 619.438 114.597 608.346 110.473C606.553 109.837 604.905 108.85 603.497 107.571C602.089 106.291 600.95 104.744 600.146 103.02C599.342 101.296 598.89 99.4287 598.815 97.5278C598.741 95.6268 599.045 93.7301 599.711 91.948C600.377 90.166 601.392 88.5345 602.695 87.1485C603.998 85.7625 605.564 84.6499 607.302 83.8755C609.039 83.101 610.914 82.6803 612.816 82.6379C614.718 82.5954 616.609 82.932 618.379 83.6281C631.021 88.3273 643.23 94.1165 654.869 100.93C660.656 104.317 666.349 108.016 671.817 111.857C677.083 115.572 682.457 119.76 687.78 124.288C698.064 133.043 707.554 142.691 716.139 153.118C733.309 173.972 746.69 197.675 755.672 223.151C757.911 229.485 759.897 235.986 761.576 242.477C763.255 248.969 764.612 255.547 765.747 262.262C767.955 275.57 768.998 289.046 768.863 302.536C768.833 305.717 767.741 308.796 765.762 311.287Z" fill="#00C389"/>
<path d="M646.411 516.614L636.015 521.807C635.357 522.135 634.671 522.405 633.966 522.616C633.107 522.917 630.965 523.699 628.887 524.451C623.675 526.336 615.762 529.22 609.239 531.503L608.639 531.695C608.051 531.864 607.464 532.041 606.885 532.223C605.405 532.668 603.878 533.128 602.251 533.556C593.638 535.918 584.905 537.814 576.089 539.237C567.227 540.64 558.295 541.557 549.332 541.982C540.356 542.413 531.363 542.338 522.395 541.759C513.449 541.172 504.543 540.09 495.717 538.516C494.111 538.253 492.574 537.673 491.194 536.811C489.814 535.948 488.619 534.82 487.679 533.492C486.739 532.163 486.072 530.662 485.717 529.073C485.362 527.485 485.326 525.842 485.611 524.24C485.897 522.638 486.498 521.109 487.379 519.741C488.261 518.373 489.405 517.194 490.746 516.272C492.087 515.35 493.598 514.704 495.191 514.371C496.784 514.038 498.427 514.024 500.025 514.332C507.962 515.743 515.97 516.717 524.014 517.249C532.06 517.763 540.129 517.823 548.181 517.429C556.229 517.049 564.251 516.227 572.209 514.968C580.165 513.683 588.046 511.968 595.817 509.83L595.984 509.788C597.203 509.471 598.479 509.092 599.832 508.681L601.447 508.203C607.772 505.991 615.405 503.226 620.5 501.362L624.769 499.807L626.079 499.342C633.456 496.773 639.587 500.72 641.839 505.949L646.411 516.614ZM621.09 518.686C622.5 520.396 624.355 521.685 626.45 522.409C624.36 521.675 622.507 520.388 621.09 518.686Z" fill="#9063CD"/>
<path d="M708.844 143.64C707.948 144.775 706.823 145.707 705.541 146.375C704.26 147.043 702.851 147.432 701.408 147.516C699.965 147.6 698.521 147.378 697.17 146.864C695.82 146.349 694.593 145.555 693.572 144.532C677.141 128.096 658.195 114.385 637.446 103.917C631.896 101.132 626.715 98.7603 621.635 96.6747C616.223 94.4673 610.718 92.446 605.302 90.6826C599.774 88.9174 594.127 87.3449 588.525 86.002C583.222 84.7287 577.639 83.6408 571.458 82.6745C548.529 79.112 525.177 79.2433 502.289 83.0634C501.753 83.1593 501.215 83.2479 500.677 83.3365C499.749 83.4966 498.868 83.6401 498.037 83.8038L493.369 84.7564C490.555 85.3668 487.898 85.9478 485.277 86.6178L485.227 86.6311C479.379 88.1123 473.737 89.7298 468.521 91.4769C457.523 95.1605 446.831 99.7 436.542 105.054C435.35 105.679 434.048 106.064 432.708 106.186C431.368 106.308 430.017 106.165 428.733 105.765C427.448 105.365 426.255 104.716 425.221 103.855C424.188 102.994 423.334 101.938 422.708 100.746C422.083 99.5552 421.698 98.2526 421.576 96.9127C421.454 95.5729 421.597 94.2221 421.997 92.9375C422.397 91.653 423.046 90.4598 423.907 89.426C424.768 88.3923 425.824 87.5383 427.015 86.9128C438.266 81.0573 449.956 76.0891 461.98 72.0535C467.703 70.1395 473.828 68.3576 480.195 66.7601C483.171 65.9968 486.13 65.3545 488.995 64.7308L489.62 64.5984L494.085 63.7253C495.185 63.5079 496.246 63.3324 497.27 63.1612C497.766 63.0737 498.264 62.9934 498.757 62.9026L498.841 62.8891C523.91 58.688 549.491 58.533 574.61 62.43C581.36 63.4866 587.462 64.6781 593.302 66.0754C599.389 67.5557 605.539 69.2524 611.555 71.1771L611.6 71.2128C617.493 73.1332 623.474 75.3304 629.374 77.7381C634.96 80.0297 640.594 82.6138 646.638 85.6423C669.334 97.0947 690.058 112.095 708.027 130.078C709.799 131.847 710.86 134.205 711.01 136.704C711.16 139.203 710.39 141.671 708.844 143.64Z" fill="#59CBE8"/>
<path d="M653.023 910.266H819.917V993.713C819.917 1008.82 807.668 1021.07 792.558 1021.07H680.383C665.273 1021.07 653.023 1008.82 653.023 993.713V910.266Z" fill="#59CBE8"/>
<path d="M428.055 910.266H261.161V993.713C261.161 1008.82 273.41 1021.07 288.52 1021.07H400.695C415.805 1021.07 428.055 1008.82 428.055 993.713V910.266Z" fill="#F5B6CD"/>
<path d="M828.122 878.803H644.812V918.474H828.122V878.803Z" fill="#FF7F41"/>
<path d="M252.948 878.803H436.258V918.474H252.948V878.803Z" fill="#9063CD"/>
<path fill-rule="evenodd" clip-rule="evenodd" d="M649.9 273.177C649.79 236.056 621.231 206 586.017 206C567.656 206 551.103 214.172 539.45 227.257C527.797 214.172 511.245 206 492.883 206C457.602 206 429 236.173 429 273.394H429.219C429.429 348.938 539.609 410.143 539.609 410.143C539.609 410.143 650 348.822 650 273.177H649.9Z" fill="#9063CD"/>
<path fill-rule="evenodd" clip-rule="evenodd" d="M406.97 145.232C406.929 131.289 396.202 120 382.975 120C376.079 120 369.862 123.069 365.485 127.983C361.108 123.069 354.891 120 347.995 120C334.743 120 324 131.333 324 145.313H324.082C324.161 173.689 365.545 196.678 365.545 196.678C365.545 196.678 407.009 173.645 407.009 145.232H406.97Z" fill="#FF7F41"/>
<path fill-rule="evenodd" clip-rule="evenodd" d="M732.97 456.232C732.929 442.289 722.202 431 708.975 431C702.079 431 695.862 434.069 691.485 438.983C687.108 434.069 680.891 431 673.995 431C660.743 431 650 442.333 650 456.313H650.082C650.161 484.689 691.545 507.678 691.545 507.678C691.545 507.678 733.009 484.645 733.009 456.232H732.97Z" fill="#FF7F41"/>
<path d="M172 353C144.386 353 122 330.614 122 303C122 275.386 144.386 253 172 253C199.614 253 222 275.386 222 303C222 330.614 199.614 353 172 353Z" fill="#FDDA24"/>
<path d="M171.255 330.613C155.593 330.613 142.897 317.916 142.897 302.255C142.897 286.593 155.593 273.896 171.255 273.896C186.917 273.896 199.613 286.593 199.613 302.255C199.613 317.916 186.917 330.613 171.255 330.613Z" fill="#FF7F41"/>
<path d="M908 353C880.386 353 858 330.614 858 303C858 275.386 880.386 253 908 253C935.614 253 958 275.386 958 303C958 330.614 935.614 353 908 353Z" fill="#FDDA24"/>
<path d="M907.255 330.613C891.593 330.613 878.897 317.916 878.897 302.255C878.897 286.593 891.593 273.896 907.255 273.896C922.917 273.896 935.613 286.593 935.613 302.255C935.613 317.916 922.917 330.613 907.255 330.613Z" fill="#FF7F41"/>
</g>
<defs>
<clipPath id="clip0">
<rect width="1080" height="1080" fill="white"/>
</clipPath>
</defs>
</svg>
