<svg width="1080" height="800" viewBox="0 0 1080 800" fill="none" xmlns="http://www.w3.org/2000/svg">
<g clip-path="url(#clip0)">
<path d="M177.48 375.229C174.882 375.229 173.15 373.495 173.15 370.894V359.191C173.15 357.023 174.882 354.856 177.48 354.856H180.078V338.384C180.078 336.217 181.81 334.049 184.408 334.049H196.099C198.697 334.049 200.429 336.217 200.429 338.384V355.29H571.945V334.049C571.945 334.049 574.11 334.049 576.275 334.049H587.966H590.131V265.128L427.322 262.96H425.59L396.579 262.527H393.115V263.827V286.368H403.507C406.105 286.368 407.837 286.368 407.837 286.368V331.882C407.837 331.882 406.105 331.882 403.507 331.882H366.702H362.372V286.368C362.372 286.368 364.104 286.368 366.702 286.368H375.795V250.39L368.434 244.321V221.781L482.747 223.948L600.09 187.536V178H629.967V187.103L682.794 226.115L683.227 226.549H711.805L710.939 246.488L680.196 265.995L638.194 265.561V510.906H640.06C640.06 511.339 640.06 512.639 640.06 515.24V553.386H571.512V521.742H395.28V553.386H374.929V521.742H200.429V553.386H180.078V521.742H177.48C174.882 521.742 173.15 520.008 173.15 517.408V505.704C173.15 503.536 174.882 501.369 177.48 501.369H180.078V448.486H177.48C174.882 448.486 173.15 446.752 173.15 444.151V432.447C173.15 430.28 174.882 428.113 177.48 428.113H180.078V375.229H177.48ZM388.785 261.66L379.692 254.291V286.368H388.785V261.66ZM395.713 375.229V428.113H571.945V375.229H395.713ZM610.482 199.24C610.482 198.373 610.482 197.506 610.482 197.506H600.523V191.438L495.304 223.948L590.564 225.248V207.043C590.564 207.043 592.729 207.043 594.894 207.043H610.915V199.24H610.482ZM638.627 226.549L677.165 226.982L629.967 191.871V197.073H620.008C620.008 197.073 620.008 198.373 620.008 198.807V206.176H638.627V226.549ZM571.945 501.369V448.486H395.713V501.369H571.945ZM200.862 501.369H375.362V448.486H200.862V501.369ZM200.862 428.113H375.362V375.229H200.862V428.113Z" fill="#5CC9E6"/>
</g>
<path d="M662.402 550.321C662.402 536.818 673.343 525.887 686.859 525.887C700.374 525.887 711.315 536.818 711.315 550.321" fill="#59CBE8"/>
<path d="M592.27 550.32C592.27 527.98 610.4 509.848 632.779 509.848C655.158 509.848 673.288 527.962 673.288 550.32" fill="#59CBE8"/>
<rect x="80.0039" y="550.312" width="631.316" height="5.39586" fill="#FDDA24"/>
<path fill-rule="evenodd" clip-rule="evenodd" d="M80.0007 554.536C80.0007 566.078 89.3791 575.428 100.934 575.428H259.47C262.953 575.428 266.099 574.018 268.383 571.742C270.658 569.462 272.071 566.322 272.071 562.844C272.071 558.492 269.818 554.442 266.099 552.148L237.106 534.24C236.487 533.854 235.771 533.652 235.042 533.652H232.515L250.719 522.264H259.185C261.406 522.264 263.211 520.464 263.211 518.246V483.566C263.211 482.616 262.875 481.7 262.269 480.982L231.914 444.919C231.152 444.011 230.02 443.487 228.836 443.487H207.252V437.629C207.252 430.691 204.819 424.317 200.763 419.313L269.317 353.087L342.138 459.939C339.555 463.62 338.018 468.138 338.018 473.032C338.018 473.972 338.08 474.904 338.19 475.812C338.276 476.508 338.386 477.19 338.537 477.864C338.959 479.844 339.627 481.724 340.52 483.464C341.761 485.656 343.448 487.77 345.244 489.696C345.37 489.806 345.494 489.922 345.628 490.032C345.636 490.064 345.636 490.086 345.644 490.12C348.484 501.82 342.757 515.32 340.082 520.722C339.492 521.912 340.254 523.322 341.57 523.494C343.995 523.8 347.149 524.2 347.157 524.2C346.42 525.592 345.723 526.8 345.127 527.762C344.382 528.976 345.174 530.558 346.592 530.698L351.38 531.184C350.572 532.148 349.803 533 349.111 533.744C347.997 534.934 348.775 536.878 350.406 536.988C364.766 537.926 378.314 529.822 383.863 516.572C391.985 497.198 386.977 479.594 382.539 469.344C382.513 469.288 382.491 469.248 382.467 469.202C378.236 460.98 372.243 452.955 363.455 451.099L275.876 322.797C274.203 320.347 270.728 319.995 268.602 322.061L256.306 333.995L256.408 334.145L179.429 408.505C178.966 408.483 178.503 408.467 178.033 408.467H177.72C175.624 408.467 173.92 410.165 173.92 412.257V455.609C165.111 455.671 157.985 462.814 157.985 471.622V485.53C157.813 485.272 157.611 485.02 157.364 484.81L145.345 474.042C144.623 473.4 143.689 473.048 142.725 473.048H97.9138C96.9499 473.048 96.0161 473.4 95.2946 474.042L83.2731 484.81C82.4415 485.546 81.9706 486.61 81.9706 487.724V506.824C81.3033 507.502 80.8864 508.428 80.8864 509.454C80.8864 510.472 81.3033 511.404 81.9706 512.078V518.35C81.9706 520.51 83.72 522.264 85.8922 522.264H89.3089L107.511 533.652H100.934C95.1544 533.652 89.9261 535.986 86.1387 539.766C82.3473 543.55 80.0007 548.764 80.0007 554.536Z" fill="#9063CD"/>
<path fill-rule="evenodd" clip-rule="evenodd" d="M177.418 408.469C175.3 408.469 173.584 410.179 173.584 412.293V455.653H207.699V438.691C207.699 422.069 194.075 408.469 177.418 408.469Z" fill="#FF7F41"/>
<path fill-rule="evenodd" clip-rule="evenodd" d="M157.643 486.336H182.508V455.598C168.777 455.598 157.643 466.708 157.643 480.412V486.336Z" fill="#9063CD"/>
<path fill-rule="evenodd" clip-rule="evenodd" d="M345.304 490.121C347.174 492.073 349.136 493.811 350.837 495.205C355.163 505.245 350.554 517.137 346.817 524.205C346.809 524.205 343.659 523.805 341.23 523.495C339.912 523.329 339.15 521.917 339.741 520.727C342.417 515.323 348.146 501.821 345.304 490.121Z" fill="#9063CD"/>
<path fill-rule="evenodd" clip-rule="evenodd" d="M347.057 524.199C350.738 517.239 355.077 505.141 351.077 495.199L355.592 498.611C355.706 498.691 355.814 498.779 355.911 498.881C356.907 499.915 357.722 500.979 358.387 502.061C364.682 512.301 357.041 524.329 351.282 531.181H351.28L346.496 530.697C345.073 530.553 344.282 528.977 345.027 527.759C345.62 526.793 346.322 525.587 347.057 524.199Z" fill="#FF7F41"/>
<path fill-rule="evenodd" clip-rule="evenodd" d="M355.087 451.163C356.504 450.867 357.969 450.711 359.472 450.711C370.507 450.711 377.698 459.839 382.567 469.207C382.591 469.255 382.611 469.299 382.633 469.349C387.122 479.605 392.178 497.205 383.98 516.581C378.375 529.829 364.686 537.937 350.188 536.995C348.538 536.887 347.755 534.943 348.881 533.749C349.579 533.013 350.356 532.153 351.172 531.193C356.989 524.343 364.706 512.311 358.348 502.071C357.674 500.987 356.851 499.923 355.843 498.887C355.747 498.789 355.642 498.703 355.53 498.625C354.991 498.263 353.204 497.027 350.963 495.209C349.246 493.815 347.264 492.077 345.376 490.127C345.37 490.099 345.364 490.071 345.36 490.043C345.228 489.931 345.1 489.817 344.971 489.703C343.154 487.777 341.455 485.661 340.202 483.471C339.302 481.729 338.621 479.853 338.194 477.873C338.05 477.203 337.934 476.517 337.85 475.821C337.739 474.909 337.677 473.981 337.677 473.037C337.677 462.245 345.152 453.241 355.087 451.163Z" fill="#FDDA24"/>
<path fill-rule="evenodd" clip-rule="evenodd" d="M82.9365 484.796L94.96 474.034C95.6774 473.392 96.6113 473.034 97.5792 473.034H142.391C143.685 473.034 144.631 473.392 145.351 474.034L157.372 484.812C157.823 485.216 158.158 485.718 158.378 486.266L182.397 486.252V447.489C182.397 445.271 184.195 443.477 186.415 443.477H229.285C230.473 443.477 231.599 444.001 232.361 444.909L262.718 480.972C263.326 481.694 263.66 482.608 263.66 483.552V518.24C263.66 520.456 261.075 522.252 258.855 522.252H85.5556C83.3894 522.252 81.634 520.5 81.634 518.338V487.712C81.634 486.598 82.1069 485.538 82.9365 484.796Z" fill="#FDDA24"/>
<path fill-rule="evenodd" clip-rule="evenodd" d="M210.933 500.127H242.928C245.118 500.127 246.881 498.337 246.851 496.155L246.657 483.019C246.645 482.139 246.334 481.287 245.775 480.603L223.463 453.295C222.718 452.385 221.6 451.855 220.421 451.855H210.933C208.765 451.855 207.009 453.607 207.009 455.769V496.211C207.009 498.375 208.765 500.127 210.933 500.127Z" fill="#F5B6CD"/>
<path fill-rule="evenodd" clip-rule="evenodd" d="M84.293 513.195H108.813C110.887 513.195 112.57 511.517 112.57 509.447C112.57 507.377 110.887 505.699 108.813 505.699H84.293C82.2189 505.699 80.5376 507.377 80.5376 509.447C80.5376 511.517 82.2189 513.195 84.293 513.195Z" fill="#FF7F41"/>
<path fill-rule="evenodd" clip-rule="evenodd" d="M195.323 494.592C198.754 494.592 201.535 491.816 201.535 488.392V458.364C201.535 454.94 198.754 452.164 195.323 452.164C191.892 452.164 189.111 454.94 189.111 458.364V488.392C189.111 491.816 191.892 494.592 195.323 494.592Z" fill="#F5B6CD"/>
<path fill-rule="evenodd" clip-rule="evenodd" d="M195.313 484.837C197.037 484.837 198.434 483.445 198.434 481.723V460.241C198.434 458.523 197.037 457.129 195.313 457.129C193.592 457.129 192.193 458.523 192.193 460.241V481.723C192.193 483.445 193.592 484.837 195.313 484.837Z" fill="#F5B6CD"/>
<path fill-rule="evenodd" clip-rule="evenodd" d="M239.623 559.649C239.623 564.823 243.675 569.015 248.677 569.015C253.675 569.015 257.727 564.823 257.727 559.649C257.727 554.477 253.675 550.285 248.677 550.285C243.675 550.285 239.623 554.477 239.623 559.649Z" fill="#FF7F41"/>
<path fill-rule="evenodd" clip-rule="evenodd" d="M244.153 559.651C244.153 562.237 246.179 564.335 248.68 564.335C251.179 564.335 253.207 562.237 253.207 559.651C253.207 557.065 251.179 554.969 248.68 554.969C246.179 554.969 244.153 557.065 244.153 559.651Z" fill="#F5B6CD"/>
<path fill-rule="evenodd" clip-rule="evenodd" d="M199.688 555.6C199.688 563.012 205.495 569.02 212.661 569.02C219.825 569.02 225.633 563.012 225.633 555.6C225.633 548.188 219.825 542.18 212.661 542.18C205.495 542.18 199.688 548.188 199.688 555.6Z" fill="#FF7F41"/>
<path fill-rule="evenodd" clip-rule="evenodd" d="M206.156 555.597C206.156 559.305 209.059 562.307 212.642 562.307C216.223 562.307 219.129 559.305 219.129 555.597C219.129 551.891 216.223 548.887 212.642 548.887C209.059 548.887 206.156 551.891 206.156 555.597Z" fill="#F5B6CD"/>
<path fill-rule="evenodd" clip-rule="evenodd" d="M163.672 555.6C163.672 563.012 169.48 569.02 176.646 569.02C183.81 569.02 189.617 563.012 189.617 555.6C189.617 548.188 183.81 542.18 176.646 542.18C169.48 542.18 163.672 548.188 163.672 555.6Z" fill="#FF7F41"/>
<path fill-rule="evenodd" clip-rule="evenodd" d="M170.148 555.597C170.148 559.305 173.051 562.307 176.632 562.307C180.215 562.307 183.121 559.305 183.121 555.597C183.121 551.891 180.215 548.887 176.632 548.887C173.051 548.887 170.148 551.891 170.148 555.597Z" fill="#F5B6CD"/>
<path fill-rule="evenodd" clip-rule="evenodd" d="M127.649 555.6C127.649 563.012 133.456 569.02 140.622 569.02C147.786 569.02 153.594 563.012 153.594 555.6C153.594 548.188 147.786 542.18 140.622 542.18C133.456 542.18 127.649 548.188 127.649 555.6Z" fill="#FF7F41"/>
<path fill-rule="evenodd" clip-rule="evenodd" d="M134.132 555.597C134.132 559.305 137.036 562.307 140.617 562.307C144.2 562.307 147.105 559.305 147.105 555.597C147.105 551.891 144.2 548.887 140.617 548.887C137.036 548.887 134.132 551.891 134.132 555.597Z" fill="#F5B6CD"/>
<path fill-rule="evenodd" clip-rule="evenodd" d="M91.6334 555.6C91.6334 563.012 97.4407 569.02 104.607 569.02C111.771 569.02 117.578 563.012 117.578 555.6C117.578 548.188 111.771 542.18 104.607 542.18C97.4407 542.18 91.6334 548.188 91.6334 555.6Z" fill="#FF7F41"/>
<path fill-rule="evenodd" clip-rule="evenodd" d="M98.1126 555.597C98.1126 559.305 101.016 562.307 104.599 562.307C108.18 562.307 111.086 559.305 111.086 555.597C111.086 551.891 108.18 548.887 104.599 548.887C101.016 548.887 98.1126 551.891 98.1126 555.597Z" fill="#F5B6CD"/>
<path fill-rule="evenodd" clip-rule="evenodd" d="M89.2834 521.906H250.699L232.496 533.294H107.487L89.2834 521.906Z" fill="#FF7F41"/>
<path d="M883.957 604.711C883.957 582.355 865.86 564.258 843.504 564.258C821.148 564.258 803.051 582.355 803.051 604.711" fill="#00C389"/>
<path d="M1000 604.705C1000 567.72 970.01 537.699 932.994 537.699C895.978 537.699 865.988 567.72 865.988 604.705" fill="#00C389"/>
<path d="M874.966 450.337L859.21 608.607C858.453 616.319 851.545 621.997 843.833 621.24C836.594 620.53 831.152 614.332 831.152 607.235L831.247 448.161C831.247 436.048 841.089 426.254 853.154 426.254C865.267 426.254 875.061 436.095 875.061 448.161C875.061 448.918 875.014 449.628 874.966 450.337Z" fill="#2C2A29"/>
<path d="M901.84 445.873L922.043 605.468C923.037 613.275 917.501 620.419 909.694 621.413C902.36 622.359 895.594 617.438 893.985 610.388L858.735 453.444C856.086 441.615 863.514 429.928 875.296 427.278C887.077 424.629 898.812 432.057 901.461 443.839C901.65 444.501 901.792 445.211 901.84 445.873Z" fill="#2C2A29"/>
<path d="M923.185 469.822C922.948 469.822 922.711 469.822 922.475 469.774C919.399 469.396 917.223 466.604 917.601 463.529C918.358 457.236 918.5 451.18 917.98 445.596C917.696 442.521 919.967 439.777 923.043 439.493C926.118 439.209 928.862 441.48 929.146 444.555C929.761 450.943 929.619 457.804 928.768 464.948C928.389 467.74 925.976 469.822 923.185 469.822Z" fill="#F5B6CD"/>
<path d="M919.54 433.158C917.269 433.158 915.187 431.786 914.288 429.562C906.528 409.548 890.252 403.065 889.542 402.781C886.656 401.693 885.189 398.476 886.277 395.542C887.366 392.656 890.63 391.189 893.517 392.277C894.416 392.609 915.092 400.605 924.745 425.493C925.88 428.379 924.414 431.644 921.527 432.732C920.865 433.063 920.202 433.158 919.54 433.158Z" fill="#00C389"/>
<path d="M928.579 483.216C928.248 483.216 927.917 483.169 927.585 483.074C925.598 482.507 924.368 480.472 924.936 478.438C928.579 465.047 929.525 452.367 927.68 440.869C927.349 438.835 928.768 436.895 930.803 436.564C932.837 436.232 934.777 437.652 935.109 439.686C937.096 452.272 936.102 465.946 932.175 480.425C931.749 482.128 930.235 483.216 928.579 483.216Z" fill="#9063CD"/>
<path d="M918.975 413.709C917.792 413.709 916.657 413.189 915.9 412.148C906.626 399.373 895.554 393.6 895.412 393.553C893.567 392.607 892.81 390.336 893.756 388.49C894.703 386.645 896.974 385.888 898.819 386.834C899.339 387.118 911.594 393.411 922.003 407.748C923.234 409.451 922.855 411.817 921.152 413C920.489 413.473 919.732 413.709 918.975 413.709Z" fill="#9063CD"/>
<path d="M870.839 350.525C880.325 346.729 884.473 334.802 880.105 323.885C875.736 312.968 864.505 307.195 855.019 310.99C845.534 314.786 841.385 326.713 845.754 337.631C850.122 348.548 861.353 354.321 870.839 350.525Z" fill="#B28038"/>
<path d="M865.448 467.598H869.611C886.408 467.598 900.082 453.971 900.082 437.127V434.43H834.977V437.174C834.977 453.971 848.603 467.598 865.448 467.598Z" fill="#2C2A29"/>
<path d="M834.701 366.013L829.023 467.22L908.702 473.986C908.75 473.986 908.087 349.168 834.701 366.013Z" fill="#E6DCCB"/>
<path d="M829.23 422.549C830.831 424.855 830.862 428.062 829.163 430.544C820.968 442.178 809.352 451.861 794.507 459.308C791.286 460.901 787.558 459.529 786.118 456.153C784.679 452.777 786.052 448.802 789.272 447.21C802.164 440.761 812.128 432.513 819.057 422.683C821.167 419.676 825.165 419.019 827.964 421.19C828.422 421.57 828.868 422.027 829.23 422.549Z" fill="#F5B6CD"/>
<path d="M839.064 377.815C839.594 378.536 839.983 379.427 840.167 380.404C840.263 380.987 842.816 394.806 836.542 411.79C835.302 415.189 831.498 417.009 828.103 415.846C824.709 414.683 822.955 410.937 824.195 407.539C829.161 394.134 827.235 383.255 827.216 383.139C826.537 379.583 828.888 376.151 832.436 375.435C835.128 374.826 837.628 375.863 839.064 377.815Z" fill="#00C389"/>
<path d="M822.943 443.608C824.182 445.392 823.903 447.967 822.282 449.446C811.728 459.169 798.447 466.731 782.773 471.869C780.608 472.564 778.33 471.329 777.688 469.008C777.075 466.731 778.289 464.294 780.496 463.566C795.051 458.77 807.282 451.833 816.978 442.92C818.724 441.344 821.278 441.487 822.774 443.271C822.792 443.39 822.853 443.478 822.943 443.608Z" fill="#9063CD"/>
<path d="M847.684 379.574C848.12 380.169 848.383 380.892 848.442 381.7C848.495 382.317 849.596 397.828 841.891 416.32C840.966 418.513 838.477 419.57 836.332 418.733C834.156 417.853 833.149 415.386 834.031 413.225C840.921 396.713 839.919 382.703 839.943 382.554C839.785 380.245 841.527 378.168 843.884 377.93C845.43 377.768 846.844 378.426 847.684 379.574Z" fill="#9063CD"/>
<path fill-rule="evenodd" clip-rule="evenodd" d="M884.329 323.639L883.783 319.951C883.75 319.729 883.771 319.506 883.791 319.282C884.639 309.799 886.818 297.821 866.375 295.984C847.454 294.283 845.331 310.525 845.11 315.126C845.073 315.862 844.653 316.525 844.005 316.873C841.844 318.035 837.378 320.759 839.477 322.452C841.919 324.421 873.998 327.486 882.617 326.029C883.74 325.839 884.496 324.769 884.329 323.639Z" fill="#FDDA24"/>
<path fill-rule="evenodd" clip-rule="evenodd" d="M866.406 296.035C872.507 296.582 876.451 297.921 879.332 300.114C876.797 296.503 872.285 294.746 864.767 294.072C850.096 292.756 845.894 299.631 846.247 308.857C848.08 302.6 853.037 294.836 866.406 296.035Z" fill="#F5B6CD"/>
<path fill-rule="evenodd" clip-rule="evenodd" d="M883.783 319.787C883.773 319.72 883.773 319.653 883.769 319.587C883.583 319.687 883.378 319.76 883.158 319.797C875.288 321.161 850.788 318.042 844.739 315.953C844.552 316.231 844.304 316.468 844.005 316.632C841.844 317.823 837.378 320.614 839.477 322.349C841.919 324.367 873.998 327.508 882.616 326.015C883.74 325.82 884.496 324.724 884.329 323.565L883.783 319.787Z" fill="#FDDA24"/>
<path fill-rule="evenodd" clip-rule="evenodd" d="M847.444 322.769C839.637 320.877 842.437 317.286 844.702 315.958C844.526 315.903 844.358 315.85 844.205 315.797C844.019 316.075 843.773 316.31 843.475 316.475C841.327 317.663 836.887 320.452 838.974 322.183C841.402 324.199 873.3 327.376 881.861 325.844C882.993 325.642 883.143 325.056 883.45 324.645C874.097 325.909 856.67 324.189 849.076 323.082" fill="#FF7F41"/>
<path d="M727.674 447.915L727.579 606.989C727.579 614.749 733.872 621.089 741.632 621.089C748.918 621.089 754.927 615.506 755.637 608.409L771.393 450.092C772.576 438.074 763.823 427.333 751.757 426.103C739.739 424.92 728.999 433.674 727.768 445.739C727.721 446.496 727.674 447.206 727.674 447.915Z" fill="#2C2A29"/>
<path d="M755.212 453.172L790.462 610.164C792.165 617.829 799.83 622.655 807.495 620.951C814.687 619.343 819.419 612.435 818.52 605.243L798.316 445.649C796.802 433.63 785.825 425.161 773.854 426.675C761.836 428.189 753.367 439.166 754.881 451.137C754.928 451.8 755.07 452.509 755.212 453.172Z" fill="#2C2A29"/>
<path d="M754.221 344.519C749.911 333.748 754.008 321.978 763.373 318.231C772.737 314.483 783.823 320.178 788.133 330.949C792.443 341.721 788.346 353.491 778.981 357.238C769.617 360.985 758.531 355.291 754.221 344.519Z" fill="#E4AC7B"/>
<path d="M761.888 467.359H766.099C782.896 467.359 796.57 453.733 796.57 436.888V434.191H731.465V436.936C731.417 453.733 745.091 467.359 761.888 467.359Z" fill="#2C2A29"/>
<path d="M738.469 363.211L722.808 460.964L804.994 459.592C804.947 459.639 813.085 364.252 738.469 363.211Z" fill="#FF7F41"/>
<path d="M707.05 316.467C710.693 316.467 713.769 313.723 714.1 310.032C714.384 306.956 714.857 303.739 715.519 300.474C716.277 296.642 713.816 292.904 709.984 292.099C706.151 291.295 702.413 293.803 701.609 297.635C700.852 301.373 700.284 305.111 699.953 308.707C699.574 312.587 702.46 316.041 706.388 316.42C706.624 316.467 706.813 316.467 707.05 316.467Z" fill="#FDDA24"/>
<path d="M734.918 375.093C737.568 375.093 740.17 373.579 741.353 370.976C743.009 367.428 741.495 363.217 737.946 361.561C737.094 361.135 719.209 352.239 714.762 328.109C714.052 324.276 710.361 321.721 706.481 322.431C702.649 323.141 700.094 326.831 700.804 330.711C706.623 362.318 730.849 373.957 731.89 374.43C732.883 374.856 733.924 375.093 734.918 375.093Z" fill="#F5B6CD"/>
<path d="M698.482 327.873C698.624 327.873 698.766 327.873 698.908 327.873C701.983 327.637 704.302 324.94 704.065 321.817C703.166 310.461 705.059 298.206 709.648 285.337C710.689 282.403 709.175 279.186 706.241 278.145C703.308 277.104 700.091 278.618 699.05 281.551C693.892 295.888 691.81 309.751 692.851 322.716C693.135 325.649 695.596 327.873 698.482 327.873Z" fill="#FF7F41"/>
<path d="M728.774 380.53C730.667 380.53 732.512 379.584 733.6 377.833C735.209 375.184 734.357 371.73 731.708 370.121C731.518 369.979 721.298 363.544 713.349 350.58C711.741 347.93 708.287 347.078 705.637 348.734C702.987 350.343 702.136 353.797 703.792 356.447C713.255 371.919 725.367 379.395 725.888 379.726C726.787 380.246 727.781 380.53 728.774 380.53Z" fill="#FF7F41"/>
<path fill-rule="evenodd" clip-rule="evenodd" d="M796.061 339.473L796.458 335.935C796.482 335.722 796.56 335.529 796.638 335.335C799.93 327.129 805.204 317.206 785.068 307.433C766.432 298.387 760.119 312.174 758.713 316.231C758.487 316.88 757.893 317.31 757.15 317.366C754.674 317.554 749.472 318.235 751.152 320.593C753.108 323.337 784.658 338.837 793.721 340.946C794.902 341.221 795.939 340.558 796.061 339.473Z" fill="#FDDA24"/>
<path fill-rule="evenodd" clip-rule="evenodd" d="M786.292 306.239C791.977 308.815 795.354 311.505 797.451 314.734C796.118 310.144 792.323 306.832 785.315 303.658C771.641 297.463 765.52 303.231 763.054 312.943C766.714 307.039 773.83 300.594 786.292 306.239Z" fill="#F5B6CD"/>
<path fill-rule="evenodd" clip-rule="evenodd" d="M794.091 335.801C794.097 335.737 794.113 335.677 794.126 335.616C793.924 335.634 793.71 335.62 793.491 335.569C785.631 333.751 762.925 321.467 757.634 317.247C757.389 317.425 757.095 317.542 756.77 317.574C754.416 317.809 749.474 318.593 751.069 320.966C752.924 323.726 782.878 338.962 791.485 340.952C792.607 341.212 793.593 340.518 793.71 339.412L794.091 335.801Z" fill="#FDDA24"/>
<path fill-rule="evenodd" clip-rule="evenodd" d="M756.228 321.264C754.794 319.12 755.554 317.89 758.041 317.572C757.885 317.455 757.737 317.342 757.604 317.235C757.359 317.413 757.067 317.529 756.743 317.562C754.402 317.8 749.484 318.591 751.067 320.955C752.91 323.708 782.691 338.909 791.255 340.843C792.386 341.099 792.671 340.63 793.063 340.38C783.805 337.897 762.948 326.22 758.472 323.147" fill="#FF7F41"/>
<defs>
<clipPath id="clip0">
<rect width="539.088" height="375.386" fill="white" transform="matrix(-1 0 0 1 712.234 178)"/>
</clipPath>
</defs>
</svg>
