<svg width="1080" height="1080" viewBox="0 0 1080 1080" fill="none" xmlns="http://www.w3.org/2000/svg">
<path d="M858.407 800.977L539.904 836.763L222.578 800.977L223.129 444.658H858.963L858.407 800.977Z" fill="#59CBE8"/>
<path d="M539.901 819.122L233.938 783.341L234.494 431.256L539.901 459.881V819.122Z" fill="#E6DCCB"/>
<path d="M226.167 499.5C222.581 499.526 219.095 498.32 216.291 496.084C213.487 493.849 211.536 490.718 210.763 487.217C209.99 483.715 210.442 480.054 212.043 476.846C213.645 473.638 216.299 471.076 219.563 469.589C221.777 468.563 223.883 467.689 225.967 466.835L227.625 466.15L228.051 465.977L229.59 465.388C231.664 464.589 233.802 463.768 236.07 462.985C238.338 462.202 240.536 461.457 242.658 460.782L244.397 460.242C245.348 459.95 246.298 459.702 247.254 459.4L248.517 459.038L250.926 458.347L257.314 456.727L263.702 455.29L270.074 454.054C275.118 453.195 281.079 452.245 287.127 451.656C293.246 450.981 299.18 450.673 304.191 450.457H304.542L306.346 450.419C308.468 450.371 310.666 450.322 312.907 450.322H312.983L319.511 450.387L321.498 450.457C332.772 450.835 344.015 451.854 355.173 453.508L359.585 454.14L363.996 454.923C366.821 455.463 369.834 456.1 372.869 456.878C378.768 458.341 384.583 460.124 390.289 462.218C392.221 462.928 393.995 464.01 395.509 465.405C397.023 466.8 398.247 468.479 399.112 470.347C399.977 472.215 400.466 474.235 400.55 476.291C400.635 478.348 400.313 480.401 399.604 482.333C398.895 484.266 397.812 486.04 396.417 487.554C395.023 489.068 393.344 490.292 391.476 491.157C389.608 492.022 387.588 492.511 385.531 492.595C383.475 492.679 381.421 492.358 379.489 491.648C374.831 489.943 370.085 488.49 365.271 487.296L365.147 487.264C362.911 486.691 360.513 486.184 358.056 485.708L354.357 485.055L350.61 484.515C340.635 483.033 330.584 482.121 320.505 481.783L318.599 481.68L312.848 481.626C310.968 481.626 309.068 481.669 307.037 481.718L305.363 481.75C300.887 481.945 295.643 482.22 290.465 482.792H290.238C285.227 483.273 280.199 484.072 275.507 484.866L269.945 485.946L264.453 487.188L259.01 488.592L257.271 489.094L255.883 489.494C255.154 489.704 254.42 489.91 253.691 490.136L252.168 490.622C250.218 491.243 248.388 491.832 246.654 492.458L246.303 492.583C244.581 493.166 242.777 493.862 240.871 494.597L239.472 495.137L237.917 495.779C236.076 496.541 234.342 497.254 232.739 497.999C230.683 498.97 228.44 499.483 226.167 499.5Z" fill="#00C389"/>
<path d="M154.561 596.159C150.668 596.155 146.846 595.117 143.487 593.15C140.128 591.182 137.352 588.357 135.445 584.964C133.537 581.57 132.566 577.731 132.632 573.838C132.698 569.946 133.797 566.141 135.818 562.814C143.638 549.981 152.823 538.032 163.212 527.174C166.074 524.161 168.952 521.385 171.144 519.301L171.366 519.09C173.904 516.746 176.669 514.23 179.698 511.708C182.727 509.186 185.638 506.886 188.392 504.796L188.667 504.591C191.103 502.798 194.343 500.444 197.847 498.149C210.429 489.819 223.93 482.97 238.083 477.737C252.224 472.549 266.892 468.927 281.823 466.937C284.689 466.528 287.608 466.69 290.411 467.414C293.215 468.138 295.847 469.409 298.157 471.155C300.467 472.9 302.409 475.086 303.871 477.585C305.333 480.084 306.286 482.848 306.675 485.717C307.064 488.586 306.882 491.503 306.139 494.302C305.396 497.1 304.106 499.724 302.345 502.022C300.584 504.32 298.385 506.246 295.876 507.691C293.367 509.136 290.597 510.07 287.725 510.439C275.97 512.004 264.422 514.854 253.289 518.939C242.295 523.006 231.807 528.33 222.034 534.804L221.958 534.858C219.388 536.543 216.823 538.4 214.847 539.858C212.595 541.57 210.219 543.406 208.021 545.258L207.821 545.431C205.596 547.273 203.366 549.298 201.287 551.225C199.489 552.937 197.178 555.167 195.045 557.419L194.991 557.473C186.782 566.048 179.524 575.484 173.342 585.618C171.382 588.842 168.624 591.506 165.334 593.352C162.044 595.199 158.334 596.165 154.561 596.159Z" fill="#9063CD"/>
<path d="M845.78 783.341L539.902 819.122V459.881L846.331 431.256L845.78 783.341Z" fill="#9063CD"/>
<path d="M405.931 600.75C384.321 600.75 363.595 609.334 348.314 624.615C333.032 639.895 324.447 660.62 324.445 682.231H487.417C487.416 660.62 478.83 639.895 463.549 624.615C448.267 609.334 427.542 600.75 405.931 600.75Z" fill="#00C389"/>
<path d="M332.478 637.361C326.586 637.361 320.751 638.522 315.308 640.777C309.864 643.032 304.918 646.337 300.751 650.503C296.585 654.669 293.28 659.616 291.025 665.059C288.77 670.503 287.609 676.338 287.609 682.23H377.352C377.352 676.337 376.191 670.502 373.936 665.058C371.681 659.614 368.375 654.668 364.208 650.501C360.041 646.335 355.094 643.03 349.65 640.775C344.206 638.521 338.371 637.361 332.478 637.361Z" fill="#00C389"/>
<path d="M539.901 502.145V369.975L375.52 390.041L381.26 520.176L539.901 502.145Z" fill="#F5B6CD"/>
<path d="M520.978 490.114L521.049 398.449L395.504 412.1L399.381 503.89L520.978 490.114Z" fill="#2C2A29"/>
<path d="M539.902 502.146V682.231H743.579L753.926 477.965L539.902 502.146Z" fill="#E6DCCB"/>
<path d="M381.262 520.177L382.828 557.756L388.006 682.231H539.903V502.146L381.262 520.177Z" fill="#FF7F41"/>
<path d="M552.146 380.009L363.902 401.334V382.159L552.146 360.834V380.009Z" fill="#FDDA24"/>
<path d="M691.438 576.773H602.781V682.23H691.438V576.773Z" fill="#59CBE8"/>
<path d="M670.346 576.773H602.781V682.23H670.346V576.773Z" fill="#2C2A29"/>
<path d="M429.895 653.469C443.13 653.469 453.86 642.74 453.86 629.504C453.86 616.269 443.13 605.539 429.895 605.539C416.659 605.539 405.93 616.269 405.93 629.504C405.93 642.74 416.659 653.469 429.895 653.469Z" fill="#2C2A29"/>
<path d="M497.078 592.19C510.314 592.19 521.044 581.46 521.044 568.225C521.044 554.989 510.314 544.26 497.078 544.26C483.843 544.26 473.113 554.989 473.113 568.225C473.113 581.46 483.843 592.19 497.078 592.19Z" fill="#2C2A29"/>
<path d="M400.33 659.799C385.029 659.799 370.354 665.877 359.535 676.697C348.715 687.517 342.637 702.191 342.637 717.492H458.024C458.024 702.191 451.946 687.517 441.126 676.697C430.306 665.877 415.632 659.799 400.33 659.799Z" fill="#00C389"/>
<path d="M539.901 797.622L233.938 761.842V783.339L539.901 819.12V797.622Z" fill="#00C389"/>
<path d="M845.882 761.842L539.902 797.622V819.12L845.882 783.339V761.842Z" fill="#00C389"/>
<path d="M594.617 619.996H579.238V638.837H594.617V619.996Z" fill="#9063CD"/>
<path d="M738.915 634.387C726.199 634.388 714.003 639.441 705.012 648.433C696.02 657.426 690.969 669.622 690.969 682.339H786.867C786.867 669.621 781.815 657.424 772.823 648.432C763.83 639.439 751.633 634.387 738.915 634.387Z" fill="#00C389"/>
<path d="M783.614 638.625C775.737 638.625 768.183 641.754 762.613 647.324C757.043 652.894 753.914 660.448 753.914 668.325H813.314C813.314 660.448 810.185 652.894 804.615 647.324C799.045 641.754 791.491 638.625 783.614 638.625Z" fill="#00C389"/>
<path d="M776.598 773.075C770.62 773.075 764.583 772.826 758.545 772.319C754.479 771.957 750.722 770.001 748.094 766.877C745.466 763.753 744.182 759.716 744.523 755.648C744.863 751.58 746.8 747.812 749.911 745.168C753.021 742.524 757.052 741.219 761.121 741.539C769.742 742.27 778.404 742.385 787.041 741.884C790.821 741.604 795.287 741.231 799.548 740.551L799.801 740.508C800.757 740.373 801.681 740.237 802.458 740.086L802.669 740.043L805.806 739.503C806.427 739.363 807.048 739.228 807.675 739.098C809.1 738.79 810.45 738.504 811.622 738.185L811.914 738.11C827.952 734.114 842.861 726.77 855.016 716.861L855.097 716.796C861.416 711.671 867.171 705.887 872.264 699.543C877.495 693.053 882.104 686.085 886.029 678.731C894.061 663.599 899.635 647.285 902.542 630.401C903.236 626.364 905.506 622.768 908.852 620.405C910.509 619.234 912.38 618.402 914.359 617.954C916.337 617.507 918.384 617.454 920.383 617.798C922.383 618.142 924.294 618.876 926.009 619.959C927.725 621.042 929.21 622.452 930.38 624.108C931.551 625.765 932.383 627.636 932.831 629.615C933.278 631.593 933.331 633.64 932.987 635.639C929.558 655.806 922.895 675.286 913.255 693.328C908.413 702.394 902.727 710.984 896.272 718.983C889.805 727.021 882.503 734.351 874.489 740.848C858.872 753.554 839.869 762.961 819.522 768.053C817.616 768.56 815.742 768.955 814.122 769.306L812.232 769.716L811.622 769.84L808.29 770.445C806.875 770.72 805.542 770.92 804.294 771.098C798.894 771.962 793.613 772.405 789.174 772.718H788.985C784.903 772.96 780.774 773.078 776.598 773.075Z" fill="#FF7F41"/>
<path d="M777.178 796.035C774.797 796.035 772.318 796.003 769.651 795.932H769.386L764.434 795.733C763.322 795.673 762.21 795.598 761.097 795.517L759.601 795.419L756.691 795.209L749.131 794.464L746.512 794.14C744.249 793.864 741.906 793.6 739.427 793.178L734.502 792.417L727.223 791.121L720.505 789.755C719.668 789.587 718.885 789.404 718.286 789.253L717.665 789.107L717.379 789.042L716.769 788.896C716.142 788.751 715.359 788.567 714.474 788.324L714.306 788.281L713.037 787.93C711.838 787.606 710.488 787.244 708.993 786.752C701.767 784.51 694.75 781.647 688.019 778.193C681.458 774.825 675.158 770.97 669.173 766.659C663.407 762.496 657.898 757.987 652.676 753.159C643.393 744.578 634.527 734.691 625.568 722.919C623.926 720.869 622.711 718.512 621.994 715.985C621.277 713.459 621.073 710.814 621.393 708.208C621.714 705.601 622.553 703.085 623.86 700.807C625.168 698.529 626.918 696.537 629.008 694.946C631.097 693.355 633.484 692.198 636.027 691.543C638.571 690.889 641.22 690.75 643.818 691.134C646.416 691.519 648.91 692.419 651.155 693.782C653.4 695.146 655.349 696.945 656.888 699.073C664.448 709.003 671.803 717.233 679.379 724.237C683.428 727.989 687.7 731.493 692.172 734.729C696.568 737.894 701.196 740.725 706.017 743.196C710.768 745.632 715.722 747.646 720.824 749.217L721.197 749.336C721.737 749.509 722.487 749.719 723.303 749.941L724.923 750.383C725.171 750.454 725.425 750.508 725.673 750.562L726.553 750.772L727.417 750.977C727.687 751.042 727.957 751.107 728.217 751.161L734.815 752.506L741.133 753.629L745.653 754.32C747.37 754.601 749.25 754.828 751.237 755.071L753.85 755.389L760.163 756.01L762.177 756.145L763.797 756.259C764.672 756.318 765.547 756.377 766.422 756.426L770.769 756.599C777.308 756.766 782.622 756.691 787.482 756.372C793.265 756.005 798.87 755.373 804.222 754.498C815.105 752.702 825.731 749.592 835.866 745.237C845.915 740.885 855.332 735.2 863.865 728.335C872.434 721.398 880.102 713.416 886.69 704.575C888.241 702.507 890.184 700.765 892.409 699.447C894.633 698.13 897.095 697.264 899.654 696.898C902.213 696.532 904.819 696.674 907.323 697.315C909.828 697.957 912.181 699.085 914.249 700.636C916.318 702.187 918.06 704.13 919.377 706.354C920.695 708.578 921.561 711.04 921.927 713.6C922.293 716.159 922.151 718.765 921.509 721.269C920.868 723.773 919.74 726.127 918.189 728.195C909.63 739.653 899.668 749.994 888.537 758.975C877.262 768.052 864.815 775.568 851.531 781.32C838.461 786.948 824.757 790.968 810.718 793.292H810.653C804.038 794.372 797.104 795.166 790.057 795.614C786.034 795.905 781.828 796.035 777.178 796.035Z" fill="#FDDA24"/>
</svg>
