<svg width="1080" height="1080" viewBox="0 0 1080 1080" fill="none" xmlns="http://www.w3.org/2000/svg">
<path d="M832.099 185.898H699.799C666.599 185.898 639.699 212.798 639.699 245.998C639.699 279.198 666.599 306.098 699.799 306.098C721.999 306.098 741.399 293.998 751.799 276.098H780.099C790.499 293.998 809.899 306.098 832.099 306.098C865.299 306.098 892.199 279.198 892.199 245.998C892.199 212.798 865.299 185.898 832.099 185.898Z" fill="#FDDA24"/>
<path d="M726.098 235.597H707.798V217.297H686.898V235.597H668.598V256.497H686.898V274.797H707.798V256.497H726.098V235.597Z" fill="white"/>
<path d="M806.9 255.198C813.196 255.198 818.3 250.094 818.3 243.798C818.3 237.502 813.196 232.398 806.9 232.398C800.604 232.398 795.5 237.502 795.5 243.798C795.5 250.094 800.604 255.198 806.9 255.198Z" fill="#00C389"/>
<path d="M860.4 255.198C866.696 255.198 871.8 250.094 871.8 243.798C871.8 237.502 866.696 232.398 860.4 232.398C854.104 232.398 849 237.502 849 243.798C849 250.094 854.104 255.198 860.4 255.198Z" fill="#F5B6CD"/>
<path d="M833.599 281.898C839.895 281.898 844.999 276.794 844.999 270.498C844.999 264.202 839.895 259.098 833.599 259.098C827.303 259.098 822.199 264.202 822.199 270.498C822.199 276.794 827.303 281.898 833.599 281.898Z" fill="#9063CD"/>
<path d="M833.599 228.398C839.895 228.398 844.999 223.294 844.999 216.998C844.999 210.702 839.895 205.598 833.599 205.598C827.303 205.598 822.199 210.702 822.199 216.998C822.199 223.294 827.303 228.398 833.599 228.398Z" fill="#FF7F41"/>
<path d="M777.501 249.098H754.301V259.998H777.501V249.098Z" fill="white"/>
<path d="M284.8 700.699C176.8 700.699 89 612.899 89 504.999C89 482.399 92.8 460.199 100.4 438.999C103.6 430.199 113.3 425.599 122.1 428.699C130.9 431.899 135.5 441.599 132.4 450.399C126.2 467.899 123 486.199 123 504.999C123 594.199 195.6 666.799 284.8 666.799C374 666.799 446.6 594.199 446.6 504.999C446.6 474.099 437.9 444.099 421.3 418.199C405.2 392.899 382.5 372.699 355.6 359.599C347.2 355.499 343.7 345.299 347.8 336.899C351.9 328.499 362.1 324.999 370.5 329.099C403 344.999 430.5 369.499 449.9 399.999C469.9 431.399 480.5 467.699 480.5 505.099C480.5 612.899 392.7 700.699 284.8 700.699Z" fill="#FF7F41"/>
<path d="M140.099 416.899C136.599 416.899 133.099 415.799 130.099 413.599C122.499 408.099 120.799 397.399 126.399 389.899C144.199 365.499 167.699 345.199 194.499 331.199C222.199 316.799 253.399 309.199 284.799 309.199C294.199 309.199 301.799 316.799 301.799 326.199C301.799 335.599 294.199 343.199 284.799 343.199C258.499 343.199 233.399 349.299 210.199 361.399C188.099 372.899 168.599 389.699 153.899 409.899C150.599 414.499 145.399 416.899 140.099 416.899Z" fill="#FF7F41"/>
<path d="M911.298 603.698C908.898 603.698 906.398 602.998 904.198 601.498C899.498 598.298 894.498 595.298 889.398 592.698C883.298 589.498 880.898 581.998 883.998 575.898C887.198 569.798 894.698 567.398 900.798 570.498C906.798 573.598 912.598 577.098 918.198 580.898C923.898 584.798 925.298 592.598 921.398 598.298C919.198 601.798 915.298 603.698 911.298 603.698Z" fill="#F5B6CD"/>
<path d="M971.401 686.1C966.001 686.1 961.001 682.6 959.401 677.2C953.701 658 944.101 640.6 930.901 625.4C926.401 620.2 926.901 612.3 932.101 607.8C937.301 603.3 945.201 603.8 949.701 609C965.301 626.9 976.601 647.5 983.301 670.1C985.301 676.7 981.501 683.7 974.901 685.7C973.801 685.9 972.601 686.1 971.401 686.1Z" fill="#F5B6CD"/>
<path d="M825.098 882.4C733.998 882.4 659.898 808.3 659.898 717.2C659.898 626.1 733.998 552 825.098 552C831.998 552 837.598 557.6 837.598 564.5C837.598 571.4 831.998 577 825.098 577C747.798 577.1 684.998 640 684.998 717.3C684.998 794.6 747.898 857.5 825.198 857.5C902.498 857.5 965.398 794.6 965.398 717.3C965.398 715.3 965.398 713.2 965.298 711.2C964.998 704.3 970.398 698.5 977.298 698.2C984.198 697.9 989.998 703.3 990.298 710.2C990.398 712.6 990.498 715 990.498 717.4C990.298 808.3 916.198 882.4 825.098 882.4Z" fill="#F5B6CD"/>
<path d="M765.998 443.1C657.298 443.1 568.898 354.7 568.898 246C568.898 137.4 657.298 49 765.998 49C806.498 49 845.398 61.2 878.598 84.3C910.998 106.9 935.598 138.1 949.798 174.8C953.098 183.3 948.898 192.9 940.398 196.2C931.898 199.5 922.298 195.3 918.998 186.8C907.198 156.3 886.698 130.3 859.698 111.5C832.098 92.2 799.698 82 765.998 82C675.498 82 601.898 155.6 601.898 246.1C601.898 336.6 675.498 410.2 765.998 410.2C793.998 410.2 821.598 403 845.898 389.5C853.898 385.1 863.898 387.9 868.398 395.9C872.798 403.9 869.998 413.9 861.998 418.4C832.698 434.5 799.598 443.1 765.998 443.1Z" fill="#00C389"/>
<path d="M920.698 355.602C917.798 355.602 914.898 354.802 912.198 353.202C904.398 348.502 901.898 338.402 906.598 330.602C921.898 305.202 929.998 276.002 929.998 246.102C929.998 237.002 937.398 229.602 946.498 229.602C955.598 229.602 962.998 237.002 962.998 246.102C962.998 282.002 953.298 317.102 934.898 347.602C931.798 352.702 926.298 355.602 920.698 355.602Z" fill="#00C389"/>
<path d="M825.101 811.1C876.905 811.1 918.901 769.104 918.901 717.3C918.901 665.496 876.905 623.5 825.101 623.5C773.296 623.5 731.301 665.496 731.301 717.3C731.301 769.104 773.296 811.1 825.101 811.1Z" fill="#9063CD"/>
<path d="M860.601 743.898C846.701 763.798 837.701 785.298 835.301 804.698C835.001 806.698 834.901 808.698 834.801 810.598C836.101 810.498 837.401 810.298 838.701 810.098C839.901 791.198 848.501 767.998 863.801 746.098L901.001 772.398C901.201 772.098 901.501 771.798 901.701 771.498C902.201 770.698 902.801 769.998 903.301 769.198L866.101 742.998C881.501 721.998 900.101 706.698 917.201 699.498C917.001 698.198 916.701 696.898 916.401 695.698C914.601 696.398 912.801 697.198 911.001 698.198C893.901 706.698 876.901 721.798 862.901 740.898L828.301 716.398L881.001 641.998C880.501 641.598 879.901 641.198 879.401 640.798C878.901 640.398 878.301 640.098 877.801 639.698L825.101 713.998L791.701 690.298C805.101 670.798 813.701 649.798 816.101 630.798C816.401 628.398 816.601 626.198 816.701 623.898C815.401 623.998 814.101 624.198 812.801 624.298C811.901 642.998 803.501 666.098 788.601 687.998L750.301 660.798C749.701 661.498 749.201 662.298 748.701 662.998C748.501 663.298 748.301 663.598 748.001 663.998L786.301 691.198C770.401 713.198 751.001 729.198 733.301 736.398C733.601 737.698 733.901 738.998 734.201 740.198C736.301 739.398 738.401 738.398 740.501 737.398C758.001 728.698 775.401 713.098 789.501 693.398L822.901 717.098L769.301 792.698C769.801 793.098 770.401 793.498 770.901 793.898C771.401 794.298 772.001 794.598 772.501 794.998L826.101 719.398L860.601 743.898Z" fill="#FF7F41"/>
<path d="M334.699 416.898H230.999H216.799V480.298V538.898C213.299 537.198 209.399 536.198 205.299 536.198C191.099 536.198 179.699 547.698 179.699 561.798C179.699 575.998 191.199 587.398 205.299 587.398C219.399 587.398 230.999 575.998 230.999 561.798V480.298H334.699V538.898C331.199 537.198 327.299 536.198 323.199 536.198C308.999 536.198 297.599 547.698 297.599 561.798C297.599 575.998 309.099 587.398 323.199 587.398C337.299 587.398 348.799 575.898 348.799 561.798V480.298V416.898H334.699Z" fill="#9063CD"/>
<path d="M576.502 1031.7C687.732 1031.7 777.902 941.529 777.902 830.298C777.902 719.068 687.732 628.898 576.502 628.898C465.271 628.898 375.102 719.068 375.102 830.298C375.102 941.529 465.271 1031.7 576.502 1031.7Z" fill="#E4AC7B"/>
<path d="M669.904 905.198L437.304 905.298C412.404 905.298 392.204 885.099 392.204 860.198L392.004 334.098C392.004 309.198 412.204 288.998 437.104 288.998L669.704 288.898C694.604 288.898 714.804 309.098 714.804 333.998L715.004 860.098C715.104 884.998 694.904 905.198 669.904 905.198Z" fill="#59CBE8"/>
<path d="M553.605 889.797C564.927 889.797 574.105 880.619 574.105 869.297C574.105 857.975 564.927 848.797 553.605 848.797C542.284 848.797 533.105 857.975 533.105 869.297C533.105 880.619 542.284 889.797 553.605 889.797Z" fill="white"/>
<path d="M690.703 357.398L690.803 829.498H690.703L416.403 829.598V775.198L416.203 357.498L690.703 357.398Z" fill="white"/>
<path d="M627.104 503.199H478.404C469.604 503.199 462.504 510.699 462.504 519.999V609.399C462.504 618.699 469.604 626.199 478.404 626.199H627.004C635.804 626.199 642.904 618.699 642.904 609.399V536.799V519.999C643.004 510.599 635.904 503.199 627.104 503.199Z" fill="#FF7F41"/>
<path d="M489.505 605.001C488.905 605.001 488.205 604.901 487.505 604.801C483.205 603.701 480.505 599.301 481.605 595.001L497.805 530.401C498.705 526.801 501.905 524.301 505.605 524.301H536.005C544.905 524.301 552.505 527.801 557.505 534.301C562.605 540.801 564.205 549.701 561.905 558.601C557.705 575.001 539.305 588.901 521.805 588.901C514.505 588.901 507.205 586.501 501.505 582.401L497.405 598.901C496.505 602.501 493.205 605.001 489.505 605.001ZM506.005 564.301C506.505 564.701 506.905 565.201 507.305 565.701C510.105 569.801 516.105 572.701 521.905 572.701C532.105 572.701 544.005 563.901 546.405 554.601C547.405 550.501 546.905 546.801 544.905 544.201C543.005 541.801 539.905 540.501 536.105 540.501H512.105L506.005 564.301Z" fill="white"/>
<path d="M594.103 591.2C591.503 591.2 589.003 590.2 587.003 588.3C583.103 584.4 583.103 578.1 587.003 574.2L599.903 561.3L587.003 548.4C583.103 544.5 583.103 538.2 587.003 534.3C590.903 530.4 597.203 530.4 601.103 534.3L621.103 554.3C625.003 558.2 625.003 564.5 621.103 568.4L601.103 588.4C599.203 590.3 596.603 591.2 594.103 591.2Z" fill="white"/>
<path d="M690.702 775.102H416.402V829.602H690.702V775.102Z" fill="#FDDA24"/>
<path d="M415.902 830.1V774.6H416.402L691.202 774.5V830H690.702L415.902 830.1ZM416.902 775.7V829.2L690.202 829.1V775.6L416.902 775.7Z" fill="#FDDA24"/>
<path d="M772.104 851.397C765.304 883.097 751.704 913.297 732.104 939.697C727.704 945.597 724.104 952.597 721.104 960.197C717.604 968.997 691.404 982.097 681.804 976.997L625.404 905.497C623.204 896.697 622.004 887.497 622.004 877.997C622.004 840.297 640.604 806.997 669.104 786.697C678.204 780.197 680.004 778.197 690.804 774.697V726.897L648.304 639.497C631.604 613.497 639.204 578.997 665.104 562.297C666.204 561.597 667.404 561.297 668.604 561.297C670.704 561.297 672.804 562.297 674.004 564.297L719.904 635.797L759.604 697.097C769.004 711.597 774.304 728.297 775.104 745.597L776.104 767.697L776.404 774.197V774.397L777.204 792.297C778.004 812.297 776.304 832.097 772.104 851.397Z" fill="#E4AC7B"/>
<path d="M625.504 905.5L681.904 977C654.104 962.4 633.304 936.6 625.504 905.5Z" fill="#E4AC7B"/>
<path d="M378.102 823.999L345.302 782.799C332.202 766.399 334.902 742.499 351.402 729.399L381.102 705.699L437.602 776.599C450.702 792.999 448.002 816.899 431.602 829.999C415.102 843.099 391.202 840.399 378.102 823.999Z" fill="#E4AC7B"/>
<path d="M378.102 747.198L345.302 705.998C332.202 689.598 334.902 665.698 351.402 652.598L381.102 628.898L437.602 699.798C450.702 716.198 448.002 740.098 431.502 753.198C415.002 766.298 391.102 763.598 378.102 747.198Z" fill="#E4AC7B"/>
<path d="M378.102 670.3L345.302 629.1C332.202 612.7 334.902 588.8 351.302 575.7L381.002 552L437.502 622.9C450.602 639.3 447.902 663.2 431.402 676.3C415.002 689.5 391.102 686.8 378.102 670.3Z" fill="#E4AC7B"/>
<path d="M381.004 475.298L392.104 466.898V507.798L381.004 475.298Z" fill="#E4AC7B"/>
<path d="M378.001 593.499L345.201 552.299C332.101 535.899 334.801 511.999 351.301 498.899L381.001 475.199L437.501 546.099C450.601 562.499 447.901 586.399 431.501 599.499C415.001 612.599 391.101 609.899 378.001 593.499Z" fill="#E4AC7B"/>
</svg>
