<svg width="1080" height="1080" viewBox="0 0 1080 1080" fill="none" xmlns="http://www.w3.org/2000/svg">
<path d="M269.18 566.305C267.88 566.305 266.58 566.205 265.28 566.005C249.88 563.705 234.48 560.105 219.58 555.105C203.88 549.905 189.08 543.305 175.58 535.505C167.98 531.105 160.88 526.305 154.38 521.305L154.28 521.205C152.68 520.005 150.98 518.605 149.08 516.905L146.98 515.105C146.28 514.505 145.58 513.805 144.88 513.105L144.08 512.305C143.68 511.905 143.38 511.605 142.98 511.305C141.98 510.405 140.78 509.205 139.48 507.905L135.28 503.605C129.68 497.605 124.38 491.305 119.58 484.705L119.38 484.505C114.28 477.505 109.98 470.905 106.18 464.305L106.08 464.205C101.48 456.205 97.9799 449.505 95.0799 443.105L93.6799 440.005L90.1799 431.505C89.7799 430.505 89.4799 429.605 89.0799 428.705C88.1799 426.305 87.1799 423.705 86.1799 420.805C83.2799 412.505 81.0799 404.405 79.5799 398.205L79.3799 397.405C79.1799 396.505 78.9799 395.705 78.7799 394.805C78.1799 392.105 77.4799 389.005 76.8799 385.805C76.7799 385.305 76.6799 384.805 76.5799 384.305C76.3799 383.005 76.0799 381.505 75.7799 379.905L74.9799 374.605C74.6799 372.505 74.4799 370.705 74.2799 369.005V368.005C74.2799 367.505 74.1799 367.005 74.0799 366.405C73.9799 365.105 73.7799 363.605 73.6799 361.905V361.605C73.6799 360.805 73.5799 359.905 73.4799 359.105C73.2799 356.305 73.0799 353.205 73.0799 349.805C72.8799 342.605 73.0799 334.905 73.8799 325.505V325.005C75.6799 307.305 79.4799 290.705 85.1799 275.905C90.3799 262.405 105.58 255.605 119.08 260.805C132.58 266.005 139.38 281.205 134.18 294.705C130.18 305.205 127.48 317.105 126.08 330.105C125.48 337.405 125.28 343.305 125.48 348.405V349.205C125.48 351.105 125.58 353.305 125.78 355.605C125.88 356.505 125.88 357.405 125.98 358.305C125.98 359.005 126.08 359.805 126.18 360.705C126.28 361.405 126.28 362.005 126.38 362.705L126.48 363.605C126.58 364.705 126.68 365.805 126.78 366.505L126.98 367.005L127.78 372.205C127.88 373.005 128.08 373.905 128.18 374.705C128.28 375.405 128.48 376.105 128.58 376.805V377.105C128.88 379.005 129.38 381.105 129.88 383.305C130.08 384.105 130.28 385.005 130.48 385.805C131.78 390.905 133.48 397.405 135.68 403.505L135.88 404.205C136.38 405.805 137.18 407.705 137.88 409.705C138.28 410.705 138.58 411.605 138.98 412.605L141.68 419.005L142.78 421.305C144.98 426.105 147.68 431.405 151.38 437.905C154.28 442.905 157.58 447.905 161.58 453.505C165.18 458.405 169.18 463.105 173.28 467.505L176.88 471.205C177.28 471.605 177.88 472.205 178.58 472.805C179.08 473.305 179.58 473.705 180.08 474.205C180.28 474.405 180.58 474.705 180.78 474.905C180.98 475.105 181.08 475.205 181.28 475.405L183.58 477.405C184.38 478.105 185.48 478.905 186.68 479.905L186.78 480.005C191.38 483.605 196.28 486.905 201.88 490.105C212.28 496.105 223.78 501.205 236.08 505.305C248.18 509.305 260.58 512.305 272.88 514.105C287.18 516.205 297.18 529.605 294.98 543.905C293.18 556.905 281.98 566.305 269.18 566.305Z" fill="#FF7F41"/>
<path d="M302.379 536.405C286.679 536.405 270.579 534.605 254.279 531.105C237.579 527.505 221.779 522.205 207.179 515.405C199.379 511.805 191.979 507.705 185.179 503.405L184.979 503.305C183.279 502.205 181.679 501.105 180.079 500.005L179.479 499.605C179.079 499.305 178.579 499.005 178.179 498.605C177.079 497.805 175.979 497.005 174.679 496.005L174.479 495.905C173.079 494.805 171.379 493.505 169.779 492.005C169.579 491.905 169.479 491.705 169.279 491.605C168.779 491.105 167.979 490.505 167.179 489.805L165.179 488.005C159.279 482.505 153.579 476.205 148.279 469.405C143.179 462.905 138.479 455.905 134.179 448.605C130.079 441.605 126.279 434.205 122.879 426.505C119.679 419.305 116.879 411.605 114.179 403.105C111.079 393.205 116.679 382.705 126.579 379.605C136.479 376.505 146.979 382.105 150.079 392.005C152.279 399.105 154.579 405.405 157.179 411.305C159.979 417.605 163.179 423.805 166.579 429.605C169.979 435.405 173.779 441.005 177.779 446.205C181.979 451.505 186.279 456.405 190.779 460.605L192.779 462.405C192.979 462.605 193.179 462.705 193.379 462.905C193.679 463.205 194.079 463.505 194.379 463.805L194.479 463.905C195.279 464.605 196.379 465.505 197.479 466.405L198.079 466.905C198.479 467.205 199.179 467.705 199.879 468.205C200.479 468.605 200.979 469.005 201.579 469.405C202.879 470.305 204.179 471.205 205.479 472.005C210.779 475.405 216.579 478.605 222.879 481.405C234.979 487.005 248.279 491.405 262.279 494.505C276.279 497.505 290.079 499.105 303.479 499.005C310.379 499.005 316.979 498.505 323.279 497.605H323.379C326.079 497.205 329.079 496.705 332.679 495.805L333.179 495.705C333.479 495.605 333.779 495.505 334.079 495.505L337.679 494.605C338.379 494.405 339.079 494.205 339.779 494.105C340.779 493.805 341.879 493.605 342.879 493.305H342.979C356.779 489.505 370.979 484.605 385.079 478.805C398.079 473.405 411.479 467.005 425.879 459.305C434.979 454.405 446.379 457.805 451.279 466.905C456.179 476.005 452.779 487.405 443.679 492.305C428.179 500.605 413.779 507.505 399.479 513.505C383.979 519.905 368.379 525.305 353.179 529.505C351.779 529.905 350.479 530.205 349.079 530.605C348.479 530.805 347.879 530.905 347.279 531.105L343.579 532.005C342.779 532.205 341.879 532.405 340.879 532.705C336.379 533.705 332.479 534.405 328.679 535.005C320.779 536.205 312.379 536.805 303.779 536.805C303.279 536.405 302.879 536.405 302.379 536.405Z" fill="#FDDA24"/>
<path d="M973.391 441.609C963.291 441.609 953.591 435.709 949.291 425.909L948.391 423.809L947.391 421.809C947.091 421.209 946.791 420.609 946.491 420.109C946.091 419.309 945.691 418.409 945.291 417.609C944.891 416.909 944.591 416.209 944.191 415.609C942.991 413.409 941.791 411.309 940.791 409.609L940.691 409.509C940.291 408.809 939.791 408.109 939.391 407.409C939.091 406.809 938.591 406.109 938.391 405.809L938.091 405.409L934.791 400.509C934.591 400.109 934.091 399.509 933.591 398.809C933.191 398.209 932.691 397.609 932.291 397.109C931.991 396.709 931.691 396.409 931.491 396.009C930.891 395.209 930.391 394.509 929.991 394.109L929.691 393.709L926.091 389.409C925.791 389.009 925.191 388.309 924.491 387.609C923.991 387.009 923.491 386.509 922.991 385.909L922.791 385.709C921.491 384.209 919.791 382.409 917.991 380.609C917.391 380.009 916.791 379.409 916.191 378.809L915.991 378.609C915.691 378.309 915.091 377.809 914.491 377.209C913.991 376.709 913.491 376.309 912.991 375.809C912.491 375.309 911.991 374.909 911.491 374.409C910.891 373.809 910.291 373.309 909.991 373.009C909.091 372.209 908.191 371.509 907.291 370.709C905.591 369.209 903.891 367.809 902.491 366.809L901.991 366.409C892.091 358.609 880.991 351.509 868.991 345.209C856.891 338.909 844.691 333.709 832.791 329.909C820.191 325.809 807.491 323.109 794.891 321.709C782.191 320.409 769.191 320.509 756.391 322.009C743.491 323.609 730.691 326.509 718.391 330.509C705.991 334.609 693.691 339.609 681.691 345.609C668.691 352.009 652.991 346.709 646.491 333.709C640.091 320.709 645.391 305.009 658.391 298.509C672.591 291.409 687.291 285.409 702.091 280.609C717.691 275.509 733.791 271.909 750.091 269.909H750.291C766.991 268.009 783.891 267.809 800.391 269.509H800.591C816.791 271.309 833.091 274.809 849.091 280.009C863.791 284.809 878.791 291.109 893.491 298.809C908.291 306.609 921.991 315.409 934.291 325.009C936.991 327.009 939.391 329.109 941.491 330.909C942.191 331.509 942.991 332.209 943.691 332.809C945.191 334.009 946.491 335.209 947.491 336.209C947.891 336.509 948.191 336.909 948.591 337.209L949.091 337.609C949.491 337.909 949.791 338.309 950.191 338.609C951.191 339.509 952.491 340.709 953.891 342.109C954.391 342.609 954.891 343.209 955.491 343.709C957.691 345.909 960.091 348.409 962.591 351.209C962.891 351.609 963.291 351.909 963.591 352.309C964.591 353.409 965.691 354.609 966.791 356.009L970.291 360.209C971.691 361.809 972.791 363.409 973.791 364.709L974.791 366.009C975.091 366.409 975.391 366.809 975.691 367.209C976.591 368.309 977.591 369.709 978.691 371.409L981.691 375.809C982.891 377.509 983.791 379.009 984.491 380.209C984.691 380.609 984.991 381.009 985.191 381.409C987.191 384.609 988.892 387.709 990.392 390.409C990.792 391.109 991.191 391.809 991.491 392.509L991.791 393.109C992.491 394.409 993.091 395.709 993.791 397.109C993.991 397.609 994.291 398.109 994.491 398.609L996.291 402.309L997.392 404.909C1003.19 418.209 997.092 433.709 983.892 439.509C980.491 440.909 976.891 441.609 973.391 441.609Z" fill="#F5B6CD"/>
<path d="M360.772 555.908C350.972 555.908 341.972 549.508 339.172 539.708C335.672 527.808 342.572 515.308 354.572 511.808L357.572 510.908L366.772 508.008L375.872 504.808L384.872 501.408L391.172 498.908C393.572 497.908 396.172 496.808 398.772 495.708C400.172 495.108 401.472 494.508 402.872 493.908C418.472 486.908 433.872 479.008 448.872 470.408C480.672 452.208 510.672 431.108 536.272 412.708C546.372 405.508 560.472 407.808 567.672 417.908C574.872 428.008 572.572 442.108 562.472 449.308C535.972 468.308 504.872 490.208 471.272 509.408C455.072 518.808 438.172 527.408 421.072 535.008L420.672 535.208C419.372 535.808 418.072 536.308 416.772 536.908C413.872 538.208 410.872 539.508 407.672 540.708L400.972 543.408L390.872 547.208L380.672 550.708L370.372 554.008L367.072 555.008C364.972 555.608 362.872 555.908 360.772 555.908Z" fill="#00C389"/>
<path d="M624.274 404.305C615.774 404.305 607.374 400.205 602.374 392.505C594.374 380.405 597.674 364.105 609.774 356.105C625.974 345.405 639.374 337.205 652.074 330.205C654.874 328.605 657.574 327.205 660.174 325.805C661.074 325.305 661.974 324.805 662.874 324.405L663.574 324.105C664.574 323.605 665.574 323.105 666.574 322.605C669.174 321.305 671.774 320.005 674.674 318.705C681.974 315.205 689.574 312.005 697.874 308.805C705.374 305.905 713.274 303.305 722.274 300.905C730.074 298.805 738.374 297.005 747.674 295.605C765.074 293.005 782.574 292.705 799.874 294.705C814.274 296.305 824.574 309.405 822.974 323.805C821.374 338.205 808.274 348.605 793.874 346.905C781.074 345.405 768.174 345.705 755.374 347.605C748.174 348.705 741.874 350.005 736.174 351.605H736.074C728.874 353.605 722.474 355.605 716.674 357.905L716.574 358.005C709.574 360.705 703.174 363.405 697.174 366.305L696.674 366.505C694.674 367.405 692.474 368.505 690.174 369.705C689.174 370.205 688.174 370.705 687.174 371.205C686.274 371.705 685.474 372.105 684.574 372.605C682.174 373.905 679.874 375.105 677.774 376.305L677.474 376.505C665.974 382.805 653.674 390.405 638.674 400.305C634.274 402.805 629.174 404.305 624.274 404.305Z" fill="#FF7F41"/>
<path d="M933.48 625.108C930.58 625.108 927.68 624.408 924.88 623.008C915.68 618.308 912.08 607.008 916.78 597.808C927.68 576.708 935.48 555.508 940.18 534.808C945.18 512.508 946.48 491.008 943.88 471.008C943.08 465.208 942.28 460.508 941.08 455.908L940.88 455.208C940.58 453.708 940.08 452.108 939.58 450.308C939.38 449.508 939.08 448.708 938.88 447.808C938.78 447.408 938.58 446.808 938.38 446.208C938.18 445.708 937.98 445.108 937.88 444.608C937.68 444.108 937.58 443.608 937.38 443.108C937.18 442.608 936.98 441.908 936.88 441.708L936.68 441.108C932.88 431.108 928.38 422.008 922.98 414.108C917.08 405.308 910.48 397.408 903.18 390.508C895.78 383.408 887.28 376.808 878.08 370.808C869.38 365.108 866.98 353.508 872.58 344.908C878.28 336.208 889.88 333.808 898.48 339.408C909.58 346.708 919.88 354.708 928.98 363.408C938.28 372.208 946.68 382.208 954.08 393.208C960.98 403.408 966.88 415.008 971.68 427.808C972.28 429.208 972.68 430.508 972.98 431.508C973.08 431.808 973.18 432.208 973.28 432.508L973.38 432.908C973.48 433.308 973.68 433.708 973.78 434.108C974.08 435.108 974.58 436.408 974.98 437.808C975.18 438.508 975.38 439.208 975.58 439.908C976.18 442.008 976.88 444.308 977.38 446.908C978.98 453.308 980.08 459.708 980.88 465.708V466.008C984.08 490.508 982.58 516.408 976.58 543.008C971.18 566.808 962.28 591.008 949.98 614.908C946.88 621.408 940.28 625.108 933.48 625.108Z" fill="#59CBE8"/>
<path d="M354.187 377.528C409.32 377.528 454.015 332.834 454.015 277.701C454.015 222.567 409.32 177.873 354.187 177.873C299.054 177.873 254.359 222.567 254.359 277.701C254.359 332.834 299.054 377.528 354.187 377.528Z" fill="#00C389"/>
<path d="M326.148 334.477C323.664 334.477 321.181 333.412 319.406 331.638L293.03 305.262C289.245 301.477 289.245 295.445 293.03 291.778C296.815 287.993 302.847 287.993 306.514 291.778L326.148 311.412L401.61 235.95C405.395 232.165 411.427 232.165 415.094 235.95C418.879 239.735 418.879 245.767 415.094 249.434L332.89 331.638C331.116 333.53 328.75 334.477 326.148 334.477Z" fill="white"/>
<path d="M665.295 965.595C776.525 965.595 866.695 875.425 866.695 764.195C866.695 652.965 776.525 562.795 665.295 562.795C554.064 562.795 463.895 652.965 463.895 764.195C463.895 875.425 554.064 965.595 665.295 965.595Z" fill="#E4AC7B"/>
<path d="M744.589 854.101L515.389 814.401C490.789 810.101 474.389 786.801 478.689 762.201L568.589 243.801C572.889 219.201 596.189 202.801 620.789 207.101L849.989 246.801C874.589 251.101 890.989 274.401 886.689 299.001L796.789 817.401C792.489 841.901 769.089 858.401 744.589 854.101Z" fill="#FF7F41"/>
<path d="M636.086 819.295C647.408 819.295 656.586 810.117 656.586 798.795C656.586 787.473 647.408 778.295 636.086 778.295C624.764 778.295 615.586 787.473 615.586 798.795C615.586 810.117 624.764 819.295 636.086 819.295Z" fill="white"/>
<path d="M858.791 317.902L778.091 783.102H777.891L507.691 736.202L516.991 682.502L588.391 271.002L858.791 317.902Z" fill="white"/>
<path d="M516.995 682.541L507.691 736.24L777.959 783.063L787.262 729.364L516.995 682.541Z" fill="#FDDA24"/>
<path d="M778.286 783.602L777.786 783.502L507.086 736.602L507.186 736.102L516.586 682.002L517.086 682.102L787.786 729.002L787.686 729.502L778.286 783.602ZM508.286 735.802L777.586 782.502L786.686 729.802L517.386 683.102L508.286 735.802Z" fill="#FDDA24"/>
<path d="M854.49 818.503C842.29 848.603 823.79 876.003 799.99 898.703C794.69 903.803 789.89 910.103 785.59 917.003C780.59 925.103 752.59 933.503 743.99 926.803L700.69 846.703C699.99 837.603 700.39 828.303 701.99 819.003C708.39 781.903 732.49 752.203 763.99 737.103C773.99 732.303 776.19 730.603 787.39 728.903L795.59 681.803L768.69 588.503C756.69 560.103 770.09 527.303 798.49 515.303C799.69 514.803 800.89 514.703 802.09 514.903C804.19 515.303 805.99 516.603 806.89 518.703L839.89 597.003L868.49 664.203C875.29 680.103 877.69 697.503 875.39 714.603L872.59 736.603L871.79 743.103V743.303L869.49 761.103C866.89 781.003 861.79 800.303 854.49 818.503Z" fill="#E4AC7B"/>
<path d="M700.68 846.797L743.979 926.897C719.18 907.697 703.08 878.697 700.68 846.797Z" fill="#E4AC7B"/>
<path d="M871.791 743.305L871.691 743.404L871.791 743.305Z" fill="#CB913F"/>
<path d="M470.886 724.099L445.586 677.899C435.486 659.499 442.286 636.399 460.686 626.399L493.986 608.199L537.485 687.699C547.585 706.099 540.785 729.199 522.386 739.199C504.086 749.299 480.986 742.499 470.886 724.099Z" fill="#E4AC7B"/>
<path d="M484.093 648.4L458.793 602.2C448.693 583.8 455.493 560.7 473.893 550.7L507.193 532.5L550.693 612C560.793 630.4 553.993 653.5 535.593 663.5C517.193 673.6 494.093 666.8 484.093 648.4Z" fill="#E4AC7B"/>
<path d="M497.175 572.699L471.875 526.499C461.775 508.099 468.575 484.999 486.975 474.999L520.275 456.799L563.775 536.299C573.875 554.699 567.075 577.799 548.675 587.799C530.275 597.899 507.275 591.099 497.175 572.699Z" fill="#E4AC7B"/>
<path d="M533.48 381.003L545.78 374.703L538.78 414.903L533.48 381.003Z" fill="#E4AC7B"/>
<path d="M510.28 497L484.98 450.8C474.88 432.4 481.68 409.3 500.08 399.3L533.38 381.1L576.88 460.6C586.98 479 580.18 502.1 561.78 512.1C543.48 522.2 520.38 515.4 510.28 497Z" fill="#E4AC7B"/>
<path d="M864.277 756.497C856.577 756.497 848.977 753.097 843.777 746.697C834.677 735.397 836.477 718.897 847.777 709.797C860.677 699.397 872.877 687.897 883.877 675.597C889.477 669.397 894.877 662.997 899.977 656.397C905.077 649.797 909.877 642.997 914.477 635.997C933.677 606.897 947.477 576.497 955.377 545.797C958.977 531.797 973.377 523.297 987.377 526.997C1001.38 530.597 1009.88 544.997 1006.18 558.997C996.777 595.297 980.677 630.897 958.177 664.997C952.877 672.997 947.177 680.897 941.377 688.497L941.277 688.597C935.377 696.197 929.177 703.597 922.777 710.697C909.877 725.097 895.677 738.597 880.477 750.697C875.877 754.597 870.077 756.497 864.277 756.497Z" fill="#9063CD"/>
<path d="M371.007 845.823C396.867 845.823 417.83 824.859 417.83 798.999C417.83 773.139 396.867 752.176 371.007 752.176C345.147 752.176 324.184 773.139 324.184 798.999C324.184 824.859 345.147 845.823 371.007 845.823Z" fill="#FDDA24"/>
<path d="M371 846.004C345.081 846.004 324 824.923 324 799.004C324 773.085 345.081 752.004 371 752.004C396.919 752.004 418 773.085 418 799.004C418 824.923 396.954 846.004 371 846.004ZM371 752.357C345.293 752.357 324.353 773.262 324.353 799.004C324.353 824.746 345.293 845.651 371 845.651C396.742 845.651 417.647 824.711 417.647 799.004C417.647 773.297 396.742 752.357 371 752.357Z" fill="#FDDA24"/>
<path d="M370.994 825.986C385.893 825.986 397.972 813.907 397.972 799.008C397.972 784.108 385.893 772.029 370.994 772.029C356.094 772.029 344.016 784.108 344.016 799.008C344.016 813.907 356.094 825.986 370.994 825.986Z" fill="#FF7F41"/>
<path d="M219.999 756.714C261.265 756.714 294.718 723.261 294.718 681.996C294.718 640.73 261.265 607.277 219.999 607.277C178.734 607.277 145.281 640.73 145.281 681.996C145.281 723.261 178.734 756.714 219.999 756.714Z" fill="#FDDA24"/>
<path d="M219.992 757C178.632 757 144.992 723.36 144.992 682C144.992 640.64 178.632 607 219.992 607C261.352 607 294.992 640.64 294.992 682C294.992 723.36 261.408 757 219.992 757ZM219.992 607.563C178.97 607.563 145.556 640.922 145.556 682C145.556 723.078 178.97 756.436 219.992 756.436C261.07 756.436 294.429 723.022 294.429 682C294.429 640.978 261.07 607.563 219.992 607.563Z" fill="#FDDA24"/>
<path d="M220 725.046C243.776 725.046 263.05 705.772 263.05 681.996C263.05 658.22 243.776 638.945 220 638.945C196.224 638.945 176.949 658.22 176.949 681.996C176.949 705.772 196.224 725.046 220 725.046Z" fill="#FF7F41"/>
<path d="M725.379 485.666C733.741 487.14 741.71 481.56 743.184 473.198L743.27 472.713C745.458 460.306 741.608 447.314 732.706 437.064C727.624 431.211 721.168 426.5 713.862 423.193L715.686 412.848C717.16 404.487 711.58 396.517 703.218 395.043C694.857 393.569 686.887 399.149 685.413 407.51L683.706 417.192C674.636 417.417 665.88 419.705 658.257 423.931C646.386 430.519 638.325 441.411 636.137 453.817L635.63 456.693C633.443 469.1 637.292 482.092 646.194 492.342C654.43 501.824 666.263 508.334 679.515 510.671L683.064 511.296C694.526 513.317 703.383 521.902 702.014 529.664L701.138 534.632C699.769 542.399 688.511 547.432 677.049 545.411L673.5 544.785C662.226 542.797 653.481 534.463 654.498 526.801C654.503 526.775 654.508 526.744 654.513 526.718C655.988 518.351 650.404 510.376 642.037 508.9C633.775 507.444 625.89 512.877 624.283 521.075L624.278 521.075C624.267 521.137 624.256 521.2 624.25 521.263C624.244 521.3 624.232 521.336 624.225 521.372C624.2 521.518 624.18 521.66 624.16 521.807C622.249 533.988 626.114 546.676 634.842 556.724C640.555 563.301 648 568.445 656.451 571.76L654.187 584.605C652.712 592.967 658.292 600.936 666.654 602.41C675.015 603.885 682.985 598.304 684.459 589.943L686.84 576.44C694.837 575.832 702.515 573.613 709.292 569.851C721.163 563.264 729.224 552.372 731.412 539.965L732.288 534.996C734.475 522.59 730.626 509.598 721.724 499.347C713.488 489.866 701.655 483.355 688.403 481.019L684.854 480.393C673.392 478.372 664.535 469.787 665.904 462.026L666.411 459.15C667.78 451.383 679.038 446.351 690.5 448.372L694.049 448.998C705.511 451.019 714.368 459.603 712.999 467.365L712.914 467.85C711.438 476.217 717.023 484.192 725.379 485.666Z" fill="#00C389"/>
</svg>
