<svg width="1080" height="1080" viewBox="0 0 1080 1080" fill="none" xmlns="http://www.w3.org/2000/svg">
<path d="M341.134 493.193H235.181C223.317 493.176 211.944 488.456 203.555 480.067C195.166 471.679 190.444 460.307 190.426 448.443V342.49C190.443 330.625 195.164 319.251 203.553 310.862C211.943 302.472 223.316 297.752 235.181 297.734H341.134C345.091 297.734 348.886 299.306 351.685 302.104C354.483 304.902 356.055 308.697 356.055 312.655C356.055 316.612 354.483 320.407 351.685 323.205C348.886 326.003 345.091 327.575 341.134 327.575H235.181C231.227 327.579 227.435 329.152 224.639 331.948C221.843 334.744 220.27 338.535 220.266 342.49V448.443C220.27 452.397 221.843 456.187 224.64 458.983C227.436 461.778 231.227 463.35 235.181 463.352H341.134C345.087 463.348 348.877 461.776 351.672 458.981C354.467 456.186 356.039 452.396 356.044 448.443V342.49C356.044 338.533 357.616 334.737 360.414 331.939C363.212 329.141 367.007 327.569 370.964 327.569C374.921 327.569 378.716 329.141 381.514 331.939C384.312 334.737 385.884 338.533 385.884 342.49V448.443C385.866 460.306 381.145 471.677 372.757 480.065C364.369 488.454 352.997 493.174 341.134 493.193Z" fill="#9063CD"/>
<path d="M430.844 332.656V458.276C430.844 477.811 446.679 493.646 466.214 493.646H591.834C611.368 493.646 627.204 477.811 627.204 458.276V332.656C627.204 313.122 611.368 297.286 591.834 297.286H466.214C446.679 297.286 430.844 313.122 430.844 332.656Z" fill="#FDDA24"/>
<path d="M591.84 511.332H466.209C452.142 511.316 438.656 505.722 428.709 495.775C418.762 485.829 413.166 472.344 413.148 458.277V332.64C413.164 318.573 418.759 305.086 428.707 295.138C438.654 285.191 452.141 279.596 466.209 279.58H591.84C605.906 279.599 619.39 285.195 629.335 295.142C639.28 305.089 644.874 318.575 644.889 332.64V458.277C644.872 472.342 639.278 485.826 629.333 495.772C619.388 505.717 605.905 511.313 591.84 511.332ZM466.209 314.972C461.524 314.977 457.032 316.84 453.718 320.152C450.404 323.464 448.538 327.955 448.529 332.64V458.277C448.535 462.964 450.399 467.458 453.714 470.772C457.028 474.086 461.522 475.951 466.209 475.956H591.84C596.527 475.952 601.022 474.088 604.336 470.773C607.651 467.459 609.515 462.964 609.519 458.277V332.64C609.511 327.955 607.645 323.464 604.331 320.152C601.017 316.84 596.525 314.977 591.84 314.972H466.209Z" fill="#00C389"/>
<path d="M822.863 489.511H716.91C712.953 489.511 709.158 487.939 706.36 485.141C703.562 482.343 701.99 478.548 701.99 474.59C701.99 470.633 703.562 466.838 706.36 464.04C709.158 461.242 712.953 459.67 716.91 459.67H822.863C826.818 459.666 830.609 458.093 833.405 455.297C836.201 452.501 837.774 448.71 837.778 444.755V338.802C837.774 334.848 836.201 331.057 833.405 328.26C830.609 325.464 826.818 323.892 822.863 323.887H716.91C712.957 323.893 709.167 325.466 706.372 328.262C703.577 331.058 702.005 334.849 702.001 338.802V444.755C702.001 448.713 700.429 452.508 697.631 455.306C694.832 458.104 691.037 459.676 687.08 459.676C683.123 459.676 679.328 458.104 676.53 455.306C673.732 452.508 672.16 448.713 672.16 444.755V338.802C672.177 326.937 676.898 315.564 685.288 307.174C693.677 298.785 705.051 294.064 716.915 294.047H822.869C834.733 294.064 846.107 298.785 854.496 307.174C862.886 315.564 867.607 326.937 867.624 338.802V444.755C867.607 456.621 862.885 467.995 854.495 476.385C846.104 484.775 834.729 489.495 822.863 489.511Z" fill="#F5B6CD"/>
<path d="M254.047 364.49V426.434H315.99V364.49H254.047Z" fill="#00C389"/>
<path d="M529.021 442.281C554.878 442.281 575.839 421.319 575.839 395.463C575.839 369.606 554.878 348.645 529.021 348.645C503.164 348.645 482.203 369.606 482.203 395.463C482.203 421.319 503.164 442.281 529.021 442.281Z" fill="white"/>
<path d="M766.748 355.834L729.504 420.348H803.997L766.748 355.834Z" fill="#00C389"/>
<path d="M564.824 428.711C564.824 410.348 549.938 395.463 531.576 395.463C513.214 395.463 498.328 410.348 498.328 428.711V685.459C498.328 703.821 513.214 718.707 531.576 718.707C549.938 718.707 564.824 703.821 564.824 685.459V428.711Z" fill="#8F6121"/>
<path d="M536.441 542.041L665.939 554.283C695.828 557.112 718.216 581.942 716.942 610.853L712.227 717.627C711.551 732.968 707.592 747.984 700.617 761.664L695.217 772.27H498.328V542.041H536.441Z" fill="#8F6121"/>
<path d="M451.322 603.898C441.738 609.74 433.816 617.948 428.32 627.735C422.824 637.522 419.937 648.558 419.938 659.783C419.941 675.912 425.903 691.472 436.678 703.474L498.351 772.27V575.24L451.322 603.898Z" fill="#8F6121"/>
<path d="M482.762 584.733L498.33 718.707V575.24L482.762 584.733Z" fill="#6A4E32"/>
<path d="M668.566 947.604H516.961C503.826 947.602 491.23 942.383 481.942 933.095C472.655 923.807 467.437 911.21 467.438 898.075V778.557H718.089V898.075C718.089 911.21 712.872 923.807 703.585 933.095C694.297 942.383 681.701 947.602 668.566 947.604Z" fill="#59CBE8"/>
<path d="M724.966 752.857H460.555V809.795H724.966V752.857Z" fill="#FF7F41"/>
<path d="M666.63 896.323C681.139 896.323 692.901 884.561 692.901 870.052C692.901 855.543 681.139 843.781 666.63 843.781C652.121 843.781 640.359 855.543 640.359 870.052C640.359 884.561 652.121 896.323 666.63 896.323Z" fill="#2C2A29"/>
</svg>
