<svg width="1080" height="1080" viewBox="0 0 1080 1080" fill="none" xmlns="http://www.w3.org/2000/svg">
<path d="M638.801 581.232H432.801L448.301 900.643H829.301L844.901 581.232H638.801Z" fill="#59CBE8"/>
<g style="mix-blend-mode:multiply" opacity="0.1">
<path fill-rule="evenodd" clip-rule="evenodd" d="M843.107 599.494H806.133H804.857H727.424H727.333H648.634H648.624H569.834V644.079C569.834 661.1 587.434 674.843 609.234 674.843C630.829 674.843 648.302 661.358 648.629 644.559C648.956 661.358 666.43 674.843 688.024 674.843C709.18 674.843 726.38 661.901 727.378 645.579C728.377 661.901 745.577 674.843 766.733 674.843C786.102 674.843 802.156 663.994 805.495 649.635C808.553 662.784 822.273 672.99 839.438 674.616L843.107 599.494ZM436.325 672.445C441.029 673.99 446.201 674.843 451.633 674.843C473.144 674.843 490.725 661.339 491.029 644.523C491.333 661.339 508.815 674.843 530.425 674.843C552.125 674.843 569.825 661.1 569.825 644.079V599.494H491.025L432.785 599.494L436.325 672.445Z" fill="#2C2A29"/>
</g>
<path d="M983 889.434H104V901.133H983V889.434Z" fill="#00C389"/>
<path d="M910.397 833.955C895.697 833.955 881.597 839.755 871.097 850.255C860.697 860.655 854.797 874.755 854.797 889.555H965.797C965.797 882.255 964.397 875.055 961.597 868.355C958.797 861.655 954.697 855.455 949.597 850.355C944.497 845.255 938.297 841.155 931.597 838.355C924.997 835.355 917.697 833.955 910.397 833.955Z" fill="#00C389"/>
<path d="M849.698 850.953C839.298 850.953 829.198 855.053 821.898 862.453C814.498 869.853 810.398 879.853 810.398 890.253H888.998C888.998 879.853 884.898 869.753 877.498 862.453C870.098 855.153 860.098 850.953 849.698 850.953Z" fill="#00C389"/>
<path d="M435.492 841.951C422.192 841.951 409.492 847.251 400.092 856.551C390.692 865.951 385.492 878.651 385.492 891.951H485.492C485.492 878.651 480.192 865.951 470.892 856.551C461.492 847.251 448.792 841.951 435.492 841.951Z" fill="#00C389"/>
<path d="M373.809 866.934C367.209 866.934 360.809 869.534 356.109 874.234C351.409 878.934 348.809 885.234 348.809 891.933H398.808C398.808 885.334 396.208 878.934 391.508 874.234C386.809 869.634 380.509 866.934 373.809 866.934Z" fill="#00C389"/>
<path d="M874.4 581.7H401.5V531H874.4V581.7Z" fill="#59CBE8"/>
<path d="M440.22 656.581C418.42 656.581 400.82 642.839 400.82 625.817V581.232H479.62V625.817C479.62 642.839 461.92 656.581 440.22 656.581Z" fill="#FDDA24"/>
<path d="M597.822 656.581C576.022 656.581 558.422 642.839 558.422 625.817V581.232H637.222V625.817C637.222 642.839 619.622 656.581 597.822 656.581Z" fill="#FDDA24"/>
<path d="M755.423 656.581C733.623 656.581 716.023 642.839 716.023 625.817V581.232H794.823V625.817C794.823 642.839 777.223 656.581 755.423 656.581Z" fill="#FDDA24"/>
<path d="M519.029 656.581C497.229 656.581 479.629 642.839 479.629 625.817V581.232H558.429V625.817C558.429 642.839 540.729 656.581 519.029 656.581Z" fill="#FF7F41"/>
<path d="M676.63 656.581C654.83 656.581 637.23 642.839 637.23 625.817V581.232H716.03V625.817C716.03 642.839 698.43 656.581 676.63 656.581Z" fill="#FF7F41"/>
<path d="M834.33 656.581C812.53 656.581 794.93 642.839 794.93 625.817V581.232H873.73V625.817C873.73 642.839 856.03 656.581 834.33 656.581Z" fill="#FF7F41"/>
<path fill-rule="evenodd" clip-rule="evenodd" d="M573.195 695.556V754.333H648.91V759.232H573.195V819.997L568.284 820.004V759.232H492.164V754.333H568.284V695.567L573.195 695.556ZM573.195 695.556L648.917 695.401V819.893L573.195 819.997V820.638H568.284V820.004L492.164 820.108V695.723L568.284 695.567V695.398H573.195V695.556Z" fill="white"/>
<path fill-rule="evenodd" clip-rule="evenodd" d="M677.105 889.159L784.207 889.481L784.421 695.722L677.96 695.4L677.105 889.159ZM764.135 752.484V832.399H769.033V752.484H764.135Z" fill="white"/>
<path d="M265.395 562.177L229.695 921.776C227.895 939.376 212.295 952.077 194.695 950.377C178.195 948.777 165.895 934.777 165.895 918.477L166.095 557.177C166.095 529.777 188.395 507.477 215.895 507.477C243.395 507.477 265.695 529.777 265.695 557.177C265.595 558.777 265.595 560.577 265.395 562.177Z" fill="#2C2A29"/>
<path d="M327.282 551.678L373.282 914.178C375.482 931.978 362.982 948.078 345.182 950.277C328.482 952.277 313.282 941.378 309.482 925.278L229.382 568.578C223.382 541.778 240.282 515.078 267.082 508.978C293.882 502.978 320.682 519.878 326.682 546.678C326.882 548.278 327.082 550.078 327.282 551.678Z" fill="#2C2A29"/>
<path d="M402.785 598.98C394.985 598.98 388.485 592.78 388.285 584.68C385.785 462.18 297.885 440.58 294.085 439.68C286.285 437.88 281.385 430.08 283.185 422.28C284.985 414.48 292.585 409.58 300.385 411.38C301.485 411.58 330.085 418.08 358.385 442.78C384.285 465.28 415.485 508.18 417.085 583.98C417.285 591.98 410.885 598.68 402.785 598.68C402.985 598.98 402.985 598.98 402.785 598.98Z" fill="#9063CD"/>
<path d="M422.181 631.079C421.781 631.079 421.281 631.079 421.081 631.079C415.681 630.379 411.981 625.479 412.581 620.179C417.081 584.479 414.781 551.879 405.881 523.179C404.281 518.079 407.181 512.679 412.381 510.879C417.481 509.279 422.881 512.179 424.681 517.379C434.481 548.879 436.981 584.079 432.081 622.479C431.381 627.479 427.081 631.079 422.181 631.079Z" fill="#F5B6CD"/>
<path d="M371.988 456.877C369.488 456.877 366.888 455.977 365.088 453.977C336.788 424.777 306.188 414.077 305.988 414.077C300.888 412.277 298.188 406.677 299.988 401.777C301.788 396.677 307.088 393.977 312.288 395.777C313.588 396.177 347.288 407.777 379.188 440.577C382.988 444.377 382.788 450.577 378.988 454.377C376.888 455.977 374.488 456.877 371.988 456.877Z" fill="#F5B6CD"/>
<path d="M182.593 328.881L147.793 548.781L354.393 577.781C354.393 577.781 375.393 331.481 182.593 328.881Z" fill="#FDDA24"/>
<path d="M200.391 372.378C198.391 372.378 196.391 371.978 194.391 371.078C193.291 370.678 166.991 358.178 144.591 327.578C124.291 299.878 103.091 251.178 118.291 176.978C119.891 169.178 127.391 164.078 135.491 165.578C143.291 167.178 148.391 174.678 146.891 182.778C122.591 302.778 203.591 343.178 206.891 344.678C213.991 347.978 217.191 356.678 213.791 363.878C210.891 369.178 205.791 372.378 200.391 372.378Z" fill="#9063CD"/>
<path d="M106.288 249.48C101.188 249.48 96.8878 245.68 96.6878 240.58C93.9878 207.78 99.2878 172.68 112.488 136.38C114.288 131.28 119.888 128.78 124.988 130.58C130.088 132.38 132.788 137.98 130.788 143.08C118.788 176.78 113.788 209.08 116.088 239.18C116.488 244.58 112.488 249.18 107.188 249.68C106.888 249.48 106.488 249.48 106.288 249.48Z" fill="#F5B6CD"/>
<path d="M184.586 385.477C182.786 385.477 180.986 385.077 179.486 384.177C178.186 383.477 147.786 364.777 123.886 325.777C120.986 321.077 122.586 315.277 126.986 312.377C131.686 309.477 137.486 311.077 140.386 315.477C161.586 350.277 188.986 367.177 189.286 367.477C193.986 370.377 195.286 376.177 192.386 380.877C191.086 383.677 187.886 385.477 184.586 385.477Z" fill="#F5B6CD"/>
<path d="M299.198 302.278C315.998 284.778 314.098 255.678 294.898 237.378C275.798 219.078 246.598 218.478 229.798 235.978C212.998 253.478 214.898 282.578 234.098 300.878C253.298 319.178 282.398 319.778 299.198 302.278Z" fill="#E4AC7B"/>
</svg>
