<svg width="686" height="870" viewBox="0 0 686 870" fill="none" xmlns="http://www.w3.org/2000/svg">
<path d="M150.337 728.404C96.7915 728.404 53.3477 772.033 53.3477 825.954H247.26C247.326 772.099 203.883 728.404 150.337 728.404Z" fill="#00C389"/>
<path d="M578.434 821.769H419.25L421.825 436.088H612.172L578.434 821.769Z" fill="#F5B6CD"/>
<path d="M420.643 611.397H174.241L164.668 436.088H421.832L420.643 611.397Z" fill="#FF7F41"/>
<path d="M419.259 821.763H208.84L197.352 612.254H420.645L419.259 821.763Z" fill="#9063CD"/>
<path d="M519.485 770.628L481.125 770.495L481.455 693.398L523.711 693.598L519.485 770.628Z" fill="#2C2A29"/>
<path d="M531.498 594.456L481.914 594.19L482.244 502.75L538.563 502.949L531.498 594.456Z" fill="#2C2A29"/>
<path d="M296.982 770.634H224.95L220.328 693.537H296.982V770.634Z" fill="#2C2A29"/>
<path d="M631.531 436.078H138.727L135.426 405.797H637.341L631.531 436.078Z" fill="#FDDA24"/>
<path d="M389.809 693.537H322.332V821.765H389.809V693.537Z" fill="#2C2A29"/>
<path d="M326.294 611.394H390.139L389.875 477.787H323.719L326.294 611.394Z" fill="#2C2A29"/>
<path d="M208.766 611.394H293.541L289.777 477.787H202.691L208.766 611.394Z" fill="#2C2A29"/>
<path d="M436.297 286.746C421.771 286.746 409.953 274.86 409.953 260.25V73.9839C409.953 59.3748 421.771 47.4883 436.297 47.4883C450.822 47.4883 462.64 59.3748 462.64 73.9839V260.25C462.64 274.86 450.822 286.746 436.297 286.746Z" fill="#D79F6F"/>
<path d="M406.718 376.982C446.318 376.982 478.42 344.695 478.42 304.866C478.42 265.037 446.318 232.75 406.718 232.75C367.118 232.75 335.016 265.037 335.016 304.866C335.016 344.695 367.118 376.982 406.718 376.982Z" fill="#FDDA24"/>
<path d="M412.448 337.741C396.668 337.741 383.926 324.925 383.926 309.054V68.0034C383.926 52.1326 396.668 39.3164 412.448 39.3164C428.228 39.3164 440.971 52.1326 440.971 68.0034V308.988C440.971 324.925 428.162 337.741 412.448 337.741Z" fill="#E4AC7B"/>
<path d="M342.137 23.8418V202.605C342.137 218.475 354.879 231.292 370.659 231.292C386.439 231.292 399.181 218.475 399.181 202.605V23.8418H342.137Z" fill="#E4AC7B"/>
<path d="M301.734 23.8418V187.464C301.734 203.335 314.477 216.151 330.257 216.151C346.037 216.151 358.779 203.335 358.779 187.464V23.8418H301.734Z" fill="#E4AC7B"/>
<path d="M259.41 23.8418V172.324C259.41 188.195 272.153 201.011 287.933 201.011C303.712 201.011 316.455 188.195 316.455 172.324V23.8418H259.41Z" fill="#E4AC7B"/>
<path d="M462.627 0H257.887V69.991H462.627V0Z" fill="#59CBE8"/>
<path d="M427.106 638.547H159.048L157.199 611.387H427.304L427.106 638.547Z" fill="#FDDA24"/>
<path d="M68.7311 766.982C30.7672 766.982 0 797.927 0 836.11H137.462C137.462 797.927 106.695 766.982 68.7311 766.982Z" fill="#00C389"/>
<path d="M189.749 782.053C141.551 782.053 102.465 821.365 102.465 869.84H277.099C277.033 821.365 237.946 782.053 189.749 782.053Z" fill="#00C389"/>
<path d="M596.467 772.287C564.973 772.287 539.422 797.986 539.422 829.661H653.512C653.512 797.986 627.96 772.287 596.467 772.287Z" fill="#00C389"/>
<path d="M649.682 777.338C630.139 777.338 614.359 793.275 614.359 812.865H685.005C685.005 793.275 669.159 777.338 649.682 777.338Z" fill="#00C389"/>
</svg>
