<svg width="89" height="59" viewBox="0 0 89 59" fill="none" xmlns="http://www.w3.org/2000/svg">
<rect width="89" height="59" fill="white"/>
<path fill-rule="evenodd" clip-rule="evenodd" d="M57.6642 20.8424L56.9655 24.9921C54.8705 23.806 50.1024 23.5253 50.1024 25.7095C50.1024 26.5774 51.1812 27.1743 52.4815 27.8937C54.4535 28.9847 56.9349 30.3576 56.9349 33.385C56.9349 38.2221 51.8941 40 48.5536 40C45.213 40 43.0269 38.9084 43.0269 38.9084L43.7553 34.5706C45.7593 36.224 51.8332 36.6933 51.8332 34.0719C51.8332 32.9705 50.6378 32.3209 49.2514 31.5676C47.3383 30.528 45.0616 29.2909 45.0616 26.3964C45.0616 21.0916 50.8312 20 53.2608 20C55.5083 20 57.6642 20.8424 57.6642 20.8424ZM69.5045 39.6671H74L70.0805 20.3452H66.1444C64.327 20.3452 63.8843 21.7851 63.8843 21.7851L56.583 39.6671H61.6861L62.7067 36.7972H68.9306L69.5045 39.6671ZM64.1172 32.8325L66.6896 25.602L68.1368 32.8325H64.1172ZM26.3285 33.6352L30.996 20.3458H36.2651L28.4758 39.6677H23.3747L19.1212 22.8819C16.3602 21.1774 14 20.6729 14 20.6729L14.0905 20.3458H21.8068C23.9301 20.3458 24.1293 22.0859 24.1293 22.0859L25.7766 30.7745L25.7761 30.7734L26.3285 33.6352ZM35.1145 39.6671H40.0104L43.0707 20.3458H38.1744L35.1145 39.6671Z" fill="#12219B"/>
</svg>
