<svg width="230" height="351" viewBox="0 0 230 351" fill="none" xmlns="http://www.w3.org/2000/svg">
<g clip-path="url(#clip0)">
<path d="M114.767 333.97C51.4474 333.97 16.3711 294.338 16.3711 220.997V129.889C16.3711 127.715 17.235 125.629 18.7727 124.091C20.3104 122.554 22.3961 121.69 24.5707 121.69C26.7098 121.8 28.7322 122.699 30.2468 124.213C31.7613 125.728 32.6605 127.75 32.7704 129.889V220.997C30.966 246.163 37.7072 271.202 51.9029 292.06C59.5576 301.135 69.2297 308.292 80.1456 312.959C91.0615 317.625 102.918 319.673 114.767 318.937C125.192 319.641 135.651 318.228 145.515 314.783C155.379 311.339 164.444 305.934 172.165 298.893C173.78 297.6 175.789 296.895 177.859 296.895C179.929 296.895 181.937 297.6 183.553 298.893C184.55 300.615 184.956 302.616 184.71 304.59C184.463 306.564 183.577 308.403 182.186 309.826C173.162 318.196 162.536 324.65 150.948 328.8C139.361 332.949 127.053 334.708 114.767 333.97ZM205.874 172.71C204.78 172.776 203.684 172.61 202.659 172.221C201.634 171.833 200.704 171.231 199.928 170.456C199.153 169.681 198.552 168.75 198.163 167.725C197.775 166.7 197.608 165.604 197.675 164.51V136.723C198.953 110.688 192.108 84.8994 178.087 62.9256C170.939 52.965 161.381 44.9816 150.306 39.7231C139.231 34.4647 127.003 32.1033 114.767 32.8602C104.535 32.8304 94.3709 34.5244 84.7015 37.8711C76.2291 40.5443 68.388 44.9106 61.6537 50.7052C54.9194 56.4998 49.4324 63.6019 45.5254 71.5808C44.4583 73.54 42.7095 75.0396 40.6104 75.7953C38.5114 76.5509 36.208 76.5101 34.137 75.6807C32.2264 74.4578 30.8407 72.5661 30.251 70.3757C29.6612 68.1852 29.9099 65.8536 30.9483 63.8367C41.06 44.0067 58.569 28.9523 79.6906 21.9274C91.0401 18.3466 102.866 16.5036 114.767 16.4609C177.175 16.4609 213.163 62.0146 213.163 135.811V164.51C213.163 166.685 212.299 168.771 210.761 170.308C209.223 171.846 207.138 172.71 204.963 172.71H205.874Z" fill="#8E60FF"/>
<path d="M214.072 91.1298C212.218 90.8301 210.479 90.0377 209.036 88.8356C207.594 87.6336 206.501 86.0659 205.872 84.2967C200.437 63.012 187.495 44.4077 169.429 31.91C167.924 30.3056 167.086 28.1881 167.086 25.9881C167.086 23.788 167.924 21.6705 169.429 20.0661C171.079 18.6546 173.179 17.8789 175.351 17.8789C177.523 17.8789 179.623 18.6546 181.273 20.0661C202.175 34.9574 217.172 56.7273 223.638 81.5635C224.015 82.8902 224.031 84.2935 223.684 85.6284C223.337 86.9633 222.64 88.1813 221.665 89.1566C220.689 90.1318 219.471 90.8289 218.136 91.1758C216.802 91.5227 215.398 91.5068 214.072 91.1298Z" fill="#FC7E43"/>
<path d="M8.14886 227.791C6.2348 227.933 4.33616 227.359 2.82114 226.181C1.30611 225.003 0.282644 223.304 -0.0507949 221.413V136.684C-2.21902 102.736 7.08627 69.0441 26.3703 41.021C35.8069 28.2822 48.1434 17.9757 62.3577 10.9556C78.7722 3.40805 96.6812 -0.329476 114.744 0.0227771C116.919 0.0227771 119.005 0.886667 120.542 2.4244C122.08 3.96213 122.944 6.04775 122.944 8.22243C123.011 9.31655 122.844 10.4123 122.455 11.4373C122.067 12.4623 121.465 13.3931 120.69 14.1681C119.915 14.9432 118.984 15.545 117.959 15.9335C116.934 16.3221 115.838 16.4886 114.744 16.4221C100.192 16.1353 85.7667 19.1891 72.5786 25.3488C59.3905 31.5085 47.7904 40.6101 38.6698 51.9539C22.1315 76.9818 14.2877 106.756 16.3485 136.684V223.236C15.6683 224.787 14.4979 226.073 13.0168 226.896C11.5358 227.719 9.82574 228.033 8.14886 227.791Z" fill="#00C482"/>
<path d="M40.8877 143.071C38.9736 143.213 37.075 142.64 35.56 141.461C34.0449 140.283 33.0215 138.584 32.688 136.694C31.7455 114.719 36.1211 92.8409 45.4431 72.9187C49.2966 64.3809 54.9584 56.7818 62.0371 50.6469C69.1158 44.5121 77.4424 39.9878 86.4413 37.3869C88.5013 36.6145 90.7781 36.6556 92.8089 37.5017C94.8398 38.3479 96.4721 39.9357 97.3742 41.9423C97.7147 43.0502 97.8164 44.2176 97.6727 45.3677C97.529 46.5178 97.1431 47.6244 96.5405 48.6144C95.9378 49.6045 95.1322 50.4555 94.1766 51.1114C93.221 51.7673 92.1372 52.2132 90.9967 52.4196C63.209 61.0748 49.0873 91.1402 49.0873 136.694C48.6672 138.54 47.6209 140.184 46.1262 141.347C44.6316 142.509 42.7806 143.119 40.8877 143.071Z" fill="#83E2FF"/>
<path d="M114.819 350.776C93.527 351.54 72.4274 346.501 53.7776 336.199C37.5079 326.986 24.4666 312.991 16.4236 296.112C15.8714 295.195 15.515 294.174 15.3771 293.113C15.2392 292.052 15.3227 290.974 15.6223 289.947C15.9219 288.92 16.4311 287.966 17.1179 287.145C17.8046 286.324 18.654 285.655 19.6124 285.179C21.5477 284.226 23.7805 284.075 25.827 284.757C27.8734 285.439 29.5687 286.9 30.5452 288.823C38.9768 303.493 51.327 315.525 66.2118 323.571C81.0965 331.617 97.9278 335.359 114.819 334.377C128.816 335.314 142.841 333.006 155.799 327.633C168.757 322.26 180.3 313.967 189.527 303.401C206.471 279.707 214.827 250.943 213.215 221.86V136.674C213.215 134.5 214.079 132.414 215.617 130.876C217.155 129.338 219.24 128.475 221.415 128.475C223.222 128.967 224.821 130.033 225.971 131.511C227.121 132.99 227.76 134.801 227.792 136.674V223.226C229.292 255.749 219.828 287.833 200.916 314.333C190.256 326.524 176.969 336.138 162.056 342.45C147.143 348.763 130.992 351.61 114.819 350.776Z" fill="#FFABE2"/>
<path d="M114.678 322.974C101.71 324.247 88.6276 322.341 76.5626 317.42C64.4976 312.498 53.8139 304.711 45.4363 294.731C31.1578 273.085 24.7269 247.201 27.2149 221.389C27.1513 219.578 27.4612 217.772 28.1255 216.085C28.7898 214.398 29.7941 212.866 31.076 211.584C32.358 210.302 33.89 209.298 35.5768 208.634C37.2637 207.97 39.0692 207.66 40.881 207.723C42.6928 207.66 44.4983 207.97 46.1851 208.634C47.8719 209.298 49.404 210.302 50.6859 211.584C51.9678 212.866 52.9722 214.398 53.6365 216.085C54.3007 217.772 54.6107 219.578 54.5471 221.389C53.24 241.231 58.1782 260.984 68.6687 277.876C74.3615 284.17 81.4417 289.052 89.3484 292.136C97.2552 295.22 105.771 296.42 114.222 295.642C122.673 296.42 131.189 295.22 139.096 292.136C147.003 289.052 154.083 284.17 159.776 277.876C170.266 260.984 175.205 241.231 173.898 221.389V136.66C174.223 121.081 171.436 105.594 165.698 91.106C164.314 87.7164 164.3 83.9217 165.66 80.5223C167.02 77.1228 169.646 74.3844 172.987 72.8845C174.625 72.1444 176.397 71.7464 178.194 71.7149C179.992 71.6834 181.777 72.0191 183.44 72.7015C185.103 73.3838 186.609 74.3984 187.867 75.6831C189.124 76.9678 190.106 78.4957 190.752 80.1731C198.391 98.0191 202.267 117.248 202.141 136.66V223.212C203.676 248.625 196.616 273.816 182.097 294.731C173.902 304.445 163.516 312.072 151.794 316.983C140.071 321.893 127.35 323.947 114.678 322.974Z" fill="#FFD825"/>
</g>
<defs>
<clipPath id="clip0">
<rect width="229.59" height="350.763" fill="white"/>
</clipPath>
</defs>
</svg>
