<svg width="245" height="349" viewBox="0 0 245 349" fill="none" xmlns="http://www.w3.org/2000/svg">
<g clip-path="url(#clip0)">
<path d="M236.035 315.737H153.127C150.988 315.627 148.965 314.728 147.451 313.214C145.936 311.699 145.037 309.677 144.927 307.538C144.927 305.363 145.791 303.277 147.329 301.74C148.867 300.202 150.952 299.338 153.127 299.338H236.035C238.209 299.338 240.295 300.202 241.833 301.74C243.37 303.277 244.234 305.363 244.234 307.538C244.124 309.677 243.225 311.699 241.711 313.214C240.196 314.728 238.174 315.627 236.035 315.737ZM120.328 284.305C118.154 284.305 116.068 283.441 114.53 281.904C112.993 280.366 112.129 278.28 112.129 276.106V63.8258L15.5549 86.147C13.3369 86.437 11.0898 85.9008 9.24161 84.6407C7.39346 83.3806 6.07346 81.4846 5.53311 79.314C5.33489 77.2294 5.86081 75.1402 7.02234 73.3979C8.18388 71.6555 9.91014 70.3665 11.9106 69.7477L118.506 45.6043C120.698 44.7178 123.148 44.7178 125.339 45.6043C126.379 46.405 127.211 47.4435 127.766 48.6325C128.32 49.8216 128.582 51.1264 128.528 52.4374V276.106C128.528 278.28 127.664 280.366 126.126 281.904C124.589 283.441 122.503 284.305 120.328 284.305Z" fill="#8E60FF"/>
<path d="M111.606 332.097H52.3864C50.4561 331.771 48.7062 330.765 47.453 329.261C46.1998 327.758 45.526 325.855 45.5533 323.898C45.4868 322.803 45.6534 321.708 46.0419 320.683C46.4305 319.658 47.0322 318.727 47.8073 317.952C48.5824 317.177 49.5132 316.575 50.5381 316.186C51.5631 315.798 52.6589 315.631 53.753 315.698H112.973C115.112 315.808 117.134 316.707 118.649 318.222C120.163 319.736 121.062 321.758 121.172 323.898C121.117 325.076 120.821 326.231 120.303 327.291C119.785 328.352 119.055 329.295 118.159 330.063C117.263 330.831 116.22 331.407 115.093 331.757C113.966 332.107 112.779 332.223 111.606 332.097Z" fill="#FC7E43"/>
<path d="M136.764 348.557H11.0356C8.8965 348.447 6.87414 347.548 5.35958 346.033C3.84502 344.518 2.94585 342.496 2.83594 340.357C2.83594 338.182 3.69983 336.097 5.23756 334.559C6.77529 333.021 8.86091 332.157 11.0356 332.157H128.564V104.389C128.564 102.214 129.428 100.129 130.966 98.5911C132.503 97.0533 134.589 96.1895 136.764 96.1895C138.938 96.1895 141.024 97.0533 142.562 98.5911C144.099 100.129 144.963 102.214 144.963 104.389V340.357C144.853 342.496 143.954 344.518 142.44 346.033C140.925 347.548 138.903 348.447 136.764 348.557Z" fill="#00C482"/>
<path d="M213.708 332.097H160.866C159.789 332.097 158.723 331.885 157.728 331.473C156.734 331.061 155.83 330.457 155.068 329.696C154.307 328.934 153.703 328.03 153.291 327.035C152.879 326.041 152.667 324.974 152.667 323.898C152.6 322.803 152.767 321.708 153.155 320.683C153.544 319.658 154.145 318.727 154.921 317.952C155.696 317.177 156.626 316.575 157.651 316.186C158.676 315.798 159.772 315.631 160.866 315.698H213.708C215.883 315.698 217.969 316.562 219.507 318.099C221.044 319.637 221.908 321.723 221.908 323.898C221.798 326.037 220.899 328.059 219.384 329.574C217.87 331.088 215.848 331.987 213.708 332.097Z" fill="#83E2FF"/>
<path d="M235.941 348.52H172.166C169.991 348.52 167.905 347.656 166.368 346.119C164.83 344.581 163.966 342.495 163.966 340.32C163.9 339.226 164.066 338.131 164.455 337.106C164.843 336.081 165.445 335.15 166.22 334.375C166.995 333.6 167.926 332.998 168.951 332.609C169.976 332.221 171.072 332.054 172.166 332.121H235.941C238.115 332.121 240.201 332.985 241.739 334.522C243.277 336.06 244.14 338.146 244.14 340.32C244.031 342.46 243.131 344.482 241.617 345.997C240.102 347.511 238.08 348.41 235.941 348.52ZM30.9494 65.1766C29.9595 65.445 28.9242 65.5015 27.911 65.3424C26.8978 65.1832 25.9296 64.8121 25.0696 64.2531C24.2097 63.6942 23.4775 62.96 22.9207 62.0987C22.3639 61.2374 21.9952 60.2682 21.8387 59.2546C21.4225 57.0858 21.8512 54.84 23.0368 52.9769C24.2224 51.1138 26.0753 49.7744 28.2162 49.2328L132.99 25.5449C137.089 25.5449 140.278 25.5449 141.645 31.4669C142.11 33.3979 141.858 35.432 140.937 37.1914C140.015 38.9509 138.486 40.316 136.634 41.0332L30.9494 65.1766Z" fill="#FFABE2"/>
<path d="M91.0877 318.922H10.9133C8.01376 318.922 5.23294 317.77 3.18263 315.72C1.13232 313.67 -0.0195312 310.889 -0.0195312 307.989C-0.0195313 305.09 1.13232 302.309 3.18263 300.259C5.23294 298.208 8.01376 297.056 10.9133 297.056H91.0877C93.9873 297.056 96.7681 298.208 98.8184 300.259C100.869 302.309 102.021 305.09 102.021 307.989C102.021 310.889 100.869 313.67 98.8184 315.72C96.7681 317.77 93.9873 318.922 91.0877 318.922ZM154.863 279.29C151.68 279.172 148.668 277.825 146.459 275.531C144.25 273.237 143.017 270.176 143.019 266.991V27.3788L51.9116 48.789C50.2084 49.6913 48.3106 50.1642 46.3832 50.1668C44.4557 50.1694 42.5567 49.7015 40.8511 48.8038C39.1454 47.9061 37.6846 46.6057 36.5955 45.0154C35.5064 43.4252 34.8218 41.5931 34.6012 39.6783C34.2765 37.9674 34.3056 36.2081 34.6867 34.5088C35.0678 32.8096 35.7928 31.2063 36.8171 29.7979C37.8414 28.3895 39.1433 27.2058 40.6424 26.3197C42.1416 25.4336 43.8064 24.8639 45.5341 24.6456L150.307 0.0466532C153.964 -0.601047 157.728 0.217228 160.785 2.32433C162.328 3.50319 163.581 5.01877 164.45 6.75555C165.318 8.49232 165.778 10.4044 165.796 12.3461V266.535C165.797 268.19 165.464 269.827 164.818 271.35C164.171 272.873 163.225 274.249 162.034 275.398C160.843 276.546 159.433 277.442 157.888 278.033C156.342 278.623 154.694 278.896 153.041 278.835L154.863 279.29Z" fill="#FFD825"/>
</g>
<defs>
<clipPath id="clip0">
<rect width="244.167" height="348.485" fill="white"/>
</clipPath>
</defs>
</svg>
