<svg width="298" height="355" viewBox="0 0 298 355" fill="none" xmlns="http://www.w3.org/2000/svg">
<g clip-path="url(#clip0)">
<path d="M143.935 276.989H52.8276C50.8525 276.675 49.047 275.687 47.7183 274.192C46.3895 272.697 45.6195 270.788 45.5391 268.79C45.649 266.651 46.5481 264.628 48.0627 263.114C49.5773 261.599 51.5996 260.7 53.7387 260.59H144.846C146.985 260.7 149.007 261.599 150.522 263.114C152.037 264.628 152.936 266.651 153.046 268.79C153.053 269.948 152.815 271.094 152.347 272.153C151.879 273.212 151.192 274.161 150.331 274.935C149.471 275.71 148.456 276.293 147.353 276.647C146.251 277.001 145.086 277.118 143.935 276.989ZM265.108 260.59H209.077C206.902 260.59 204.816 259.726 203.279 258.188C201.741 256.651 200.877 254.565 200.877 252.39C200.987 250.251 201.886 248.229 203.401 246.714C204.915 245.2 206.938 244.301 209.077 244.191H265.108C267.247 244.301 269.269 245.2 270.784 246.714C272.298 248.229 273.197 250.251 273.307 252.39C273.307 254.565 272.443 256.651 270.906 258.188C269.368 259.726 267.282 260.59 265.108 260.59ZM205.888 210.025C203.749 209.916 201.726 209.016 200.212 207.502C198.697 205.987 197.798 203.965 197.688 201.826V143.973C197.746 142.955 198.005 141.959 198.449 141.042C198.892 140.124 199.513 139.303 200.275 138.626C201.037 137.949 201.925 137.429 202.888 137.096C203.851 136.762 204.87 136.622 205.888 136.684C206.965 136.684 208.031 136.896 209.026 137.308C210.021 137.72 210.924 138.324 211.686 139.086C212.447 139.847 213.051 140.751 213.463 141.746C213.875 142.741 214.088 143.807 214.088 144.884V201.826C213.978 203.965 213.078 205.987 211.564 207.502C210.049 209.016 208.027 209.916 205.888 210.025Z" fill="#8E60FF"/>
<path d="M172.947 354.401C170.808 354.291 168.786 353.392 167.271 351.877C165.757 350.363 164.858 348.34 164.748 346.201V260.56H25.809C23.6343 260.56 21.5487 259.696 20.011 258.159C18.4733 256.621 17.6094 254.535 17.6094 252.361C17.7193 250.222 18.6185 248.199 20.133 246.685C21.6476 245.17 23.6699 244.271 25.809 244.161H172.947C174.084 244.1 175.222 244.263 176.296 244.642C177.37 245.021 178.358 245.609 179.204 246.37C180.051 247.132 180.738 248.053 181.228 249.081C181.718 250.109 182 251.224 182.058 252.361V346.201C182 347.338 181.718 348.453 181.228 349.481C180.738 350.509 180.051 351.43 179.204 352.192C178.358 352.953 177.37 353.541 176.296 353.92C175.222 354.299 174.084 354.462 172.947 354.401Z" fill="#FC7E43"/>
<path d="M255.928 276.956H198.075C195.9 276.956 193.814 276.093 192.277 274.555C190.739 273.017 189.875 270.931 189.875 268.757C189.985 266.618 190.884 264.595 192.399 263.081C193.913 261.566 195.936 260.667 198.075 260.557H255.928C258.067 260.667 260.089 261.566 261.604 263.081C263.118 264.595 264.018 266.618 264.128 268.757C264.128 270.931 263.264 273.017 261.726 274.555C260.188 276.093 258.103 276.956 255.928 276.956ZM132.478 244.158H8.11612C6.53969 244.642 4.8413 244.54 3.33429 243.87C1.82728 243.2 0.613351 242.008 -0.0835333 240.514C-0.850957 239.284 -1.25781 237.863 -1.25781 236.414C-1.25781 234.964 -0.850957 233.544 -0.0835333 232.314L108.79 21.4005C108.79 16.8452 113.801 14.5675 116.534 14.5675C117.625 14.4382 118.73 14.5425 119.778 14.8734C120.825 15.2042 121.79 15.7541 122.609 16.4866C123.427 17.219 124.081 18.1172 124.526 19.1215C124.97 20.1258 125.197 21.2132 125.189 22.3116C125.533 23.9642 125.533 25.6699 125.189 27.3225L21.3267 227.758H132.478C134.617 227.868 136.639 228.768 138.154 230.282C139.668 231.797 140.567 233.819 140.677 235.958C140.567 238.097 139.668 240.12 138.154 241.634C136.639 243.149 134.617 244.048 132.478 244.158Z" fill="#00C482"/>
<path d="M55.8869 223.193C54.8166 223.331 53.7291 223.229 52.703 222.895C51.6768 222.561 50.7376 222.004 49.9531 221.263C49.1686 220.522 48.5584 219.616 48.1665 218.61C47.7747 217.605 47.611 216.525 47.6872 215.449C47.4324 213.941 47.4324 212.401 47.6872 210.893L153.827 4.53547C154.689 2.80597 156.105 1.41458 157.849 0.582921C159.593 -0.248737 161.565 -0.472826 163.452 -0.0536519C165.338 0.365522 167.03 1.40385 168.257 2.89594C169.485 4.38803 170.178 6.24806 170.227 8.17976C170.556 9.37212 170.556 10.6317 170.227 11.824L63.631 218.638C62.8119 219.973 61.6773 221.087 60.327 221.881C58.9767 222.675 57.452 223.126 55.8869 223.193Z" fill="#83E2FF"/>
<path d="M205.816 354.344C203.677 354.234 201.655 353.335 200.14 351.82C198.626 350.306 197.726 348.283 197.616 346.144V291.48C197.55 290.386 197.717 289.29 198.105 288.265C198.494 287.24 199.095 286.309 199.87 285.534C200.645 284.759 201.576 284.157 202.601 283.769C203.626 283.38 204.722 283.214 205.816 283.28C207.991 283.28 210.076 284.144 211.614 285.682C213.152 287.22 214.016 289.305 214.016 291.48V346.144C213.906 348.283 213.007 350.306 211.492 351.82C209.978 353.335 207.955 354.234 205.816 354.344ZM173.018 238.638C171.941 238.638 170.874 238.426 169.88 238.014C168.885 237.602 167.981 236.998 167.219 236.236C166.458 235.475 165.854 234.571 165.442 233.576C165.03 232.581 164.818 231.515 164.818 230.438V166.208C164.818 165.131 165.03 164.064 165.442 163.07C165.854 162.075 166.458 161.171 167.219 160.409C167.981 159.648 168.885 159.044 169.88 158.632C170.874 158.22 171.941 158.008 173.018 158.008C174.154 157.946 175.292 158.11 176.366 158.489C177.44 158.868 178.428 159.455 179.274 160.217C180.121 160.979 180.808 161.9 181.298 162.928C181.788 163.956 182.07 165.07 182.128 166.208V230.438C182.07 231.575 181.788 232.69 181.298 233.718C180.808 234.746 180.121 235.667 179.274 236.429C178.428 237.19 177.44 237.777 176.366 238.157C175.292 238.536 174.154 238.699 173.018 238.638ZM50.4782 197.64C49.3841 197.706 48.2883 197.539 47.2634 197.151C46.2384 196.762 45.3076 196.161 44.5325 195.386C43.7574 194.61 43.1557 193.68 42.7672 192.655C42.3786 191.63 42.2121 190.534 42.2786 189.44C41.8863 188.101 41.8863 186.679 42.2786 185.34L105.143 62.3452C105.738 60.547 106.908 58.9938 108.471 57.9241C110.035 56.8544 111.906 56.3271 113.798 56.4233C115.703 56.41 117.546 57.0997 118.975 58.3604C120.404 59.621 121.318 61.3641 121.542 63.2563C122.121 65.4972 122.121 67.8484 121.542 70.0894L58.2224 193.084C57.4721 194.479 56.3532 195.642 54.9877 196.445C53.6221 197.249 52.0623 197.662 50.4782 197.64Z" fill="#FFABE2"/>
<path d="M283.3 249.59H189.459C185.835 249.59 182.359 248.15 179.796 245.587C177.233 243.024 175.793 239.548 175.793 235.924V144.816C175.793 141.192 177.233 137.716 179.796 135.153C182.359 132.59 185.835 131.15 189.459 131.15C193.047 131.264 196.458 132.741 198.996 135.279C201.535 137.818 203.011 141.228 203.125 144.816V222.258H283.3C286.924 222.258 290.4 223.697 292.963 226.26C295.526 228.823 296.966 232.299 296.966 235.924C296.966 239.548 295.526 243.024 292.963 245.587C290.4 248.15 286.924 249.59 283.3 249.59Z" fill="#FFD825"/>
</g>
<defs>
<clipPath id="clip0">
<rect width="297.01" height="354.407" fill="white"/>
</clipPath>
</defs>
</svg>
