<svg width="243" height="345" viewBox="0 0 243 345" fill="none" xmlns="http://www.w3.org/2000/svg">
<g clip-path="url(#clip0)">
<path d="M84.3071 344.418C82.9164 344.408 81.5509 344.045 80.3392 343.362C79.1275 342.68 78.1093 341.7 77.3804 340.516C76.6515 339.331 76.2359 337.981 76.1726 336.591C76.1093 335.202 76.4004 333.82 77.0185 332.574L220.968 49.2301C221.401 48.2331 222.039 47.3385 222.841 46.6045C223.643 45.8704 224.59 45.3134 225.622 44.9697C226.653 44.6259 227.745 44.5031 228.827 44.6093C229.909 44.7154 230.956 45.0482 231.901 45.5858C233.745 46.6402 235.108 48.3691 235.703 50.4084C236.298 52.4477 236.078 54.6383 235.09 56.5187L91.1401 339.862C90.4108 341.081 89.4192 342.123 88.2373 342.911C87.0554 343.698 85.7128 344.213 84.3071 344.418Z" fill="#8E60FF"/>
<path d="M196.735 16.4136H40.9418C38.7672 16.4136 36.6815 15.5497 35.1438 14.012C33.6061 12.4742 32.7422 10.3886 32.7422 8.21392C32.7422 6.03924 33.6061 3.95362 35.1438 2.41589C36.6815 0.878154 38.7672 0.0142641 40.9418 0.0142641H196.735C197.829 -0.0522337 198.925 0.114298 199.95 0.502848C200.975 0.891398 201.906 1.49311 202.681 2.2682C203.456 3.04329 204.058 3.97409 204.446 4.99906C204.835 6.02402 205.001 7.1198 204.935 8.21392C205.001 9.30804 204.835 10.4038 204.446 11.4288C204.058 12.4537 203.456 13.3845 202.681 14.1596C201.906 14.9347 200.975 15.5364 199.95 15.925C198.925 16.3135 197.829 16.4801 196.735 16.4136Z" fill="#FC7E43"/>
<path d="M127.522 32.7704H24.5707C23.494 32.7704 22.4277 32.5583 21.4329 32.1462C20.438 31.7342 19.5341 31.1302 18.7727 30.3688C18.0113 29.6074 17.4073 28.7034 16.9953 27.7086C16.5832 26.7138 16.3711 25.6475 16.3711 24.5707C16.3711 23.494 16.5832 22.4277 16.9953 21.4329C17.4073 20.438 18.0113 19.5341 18.7727 18.7727C19.5341 18.0113 20.438 17.4073 21.4329 16.9953C22.4277 16.5832 23.494 16.3711 24.5707 16.3711H127.522C129.697 16.3711 131.782 17.235 133.32 18.7727C134.858 20.3104 135.722 22.3961 135.722 24.5707C135.722 26.7454 134.858 28.831 133.32 30.3688C131.782 31.9065 129.697 32.7704 127.522 32.7704Z" fill="#00C482"/>
<path d="M186.77 49.2456H8.19965C6.02497 49.2456 3.93936 48.3817 2.40162 46.844C0.86389 45.3062 0 43.2206 0 41.0459C0 38.8713 0.86389 36.7856 2.40162 35.2479C3.93936 33.7102 6.02497 32.8463 8.19965 32.8463H186.77C187.864 32.7798 188.96 32.9463 189.985 33.3349C191.01 33.7234 191.941 34.3251 192.716 35.1002C193.491 35.8753 194.092 36.8061 194.481 37.8311C194.87 38.8561 195.036 39.9518 194.97 41.0459C195.036 42.1401 194.87 43.2358 194.481 44.2608C194.092 45.2858 193.491 46.2166 192.716 46.9917C191.941 47.7668 191.01 48.3685 189.985 48.757C188.96 49.1456 187.864 49.3121 186.77 49.2456Z" fill="#83E2FF"/>
<path d="M48.296 344.402C45.5628 344.402 36.4521 339.846 40.5519 332.558L159.447 97.5011C159.933 96.4348 160.631 95.4784 161.498 94.6898C162.365 93.9013 163.383 93.297 164.491 92.9137C165.598 92.5303 166.772 92.3758 167.941 92.4597C169.11 92.5435 170.249 92.8638 171.291 93.4012C173.135 94.4556 174.498 96.1845 175.093 98.2238C175.688 100.263 175.468 102.454 174.48 104.334L55.1291 339.846C54.4912 341.139 53.5236 342.241 52.324 343.041C51.1243 343.841 49.735 344.31 48.296 344.402Z" fill="#FFABE2"/>
<path d="M97.9974 286.108C96.0429 286.501 94.0299 286.501 92.0754 286.108C88.8163 284.535 86.3144 281.732 85.1188 278.316C83.9232 274.9 84.1315 271.149 85.6979 267.887L215.981 9.14214C216.8 7.50903 217.937 6.05653 219.326 4.87048C220.715 3.68443 222.328 2.78889 224.069 2.23681C225.81 1.68473 227.645 1.48731 229.463 1.65621C231.282 1.82511 233.049 2.3569 234.658 3.22016C237.837 4.87434 240.24 7.71109 241.347 11.1193C242.455 14.5275 242.179 18.2345 240.58 21.4416L110.297 278.364C109.141 280.649 107.386 282.576 105.22 283.94C103.053 285.304 100.557 286.054 97.9974 286.108Z" fill="#FFD825"/>
</g>
<defs>
<clipPath id="clip0">
<rect width="242.345" height="344.385" fill="white"/>
</clipPath>
</defs>
</svg>
