<svg width="239" height="373" viewBox="0 0 239 373" fill="none" xmlns="http://www.w3.org/2000/svg">
<g clip-path="url(#clip0)">
<path d="M171.702 344.444C170.526 344.445 169.362 344.207 168.282 343.744C167.201 343.281 166.225 342.602 165.415 341.75C164.606 340.897 163.978 339.888 163.571 338.785C163.163 337.682 162.985 336.507 163.047 335.333C163.058 333.815 163.489 332.331 164.293 331.044C165.098 329.757 166.243 328.719 167.603 328.044C178.903 323.198 188.52 315.122 195.247 304.829C201.974 294.537 205.51 282.487 205.412 270.191C205.412 224.638 169.88 210.06 119.771 198.672C55.5407 182.728 28.6641 156.763 28.6641 103.009C28.6641 101.933 28.8762 100.866 29.2882 99.8715C29.7003 98.8767 30.3043 97.9727 31.0657 97.2113C31.8271 96.4499 32.731 95.8459 33.7258 95.4339C34.7207 95.0218 35.7869 94.8097 36.8637 94.8097C37.994 94.6733 39.1404 94.7877 40.2213 95.1449C41.3023 95.5021 42.2912 96.0932 43.1177 96.8762C43.9441 97.6591 44.5878 98.6147 45.0028 99.6748C45.4179 100.735 45.5941 101.873 45.5189 103.009C45.5189 148.563 67.8402 169.062 126.149 182.728C184.457 196.394 224.089 215.071 224.089 273.836C224.77 288.994 220.761 303.993 212.61 316.791C204.458 329.589 192.56 339.563 178.536 345.355L171.702 344.444Z" fill="#8E60FF"/>
<path d="M122.991 336.226C73.3375 336.226 38.2612 315.271 38.2612 273.362C38.2612 266.073 41.9055 262.429 46.4609 262.429C48.6356 262.429 50.7212 263.293 52.2589 264.831C53.7967 266.369 54.6606 268.454 54.6606 270.629C55.5716 309.349 82.9038 318.916 126.18 318.916C169.456 318.916 189.044 300.239 189.044 269.262C189.044 238.286 164.9 227.808 119.802 215.053C88.1565 208.725 58.7594 194.105 34.617 172.688C33.8862 171.158 33.6478 169.439 33.9345 167.768C34.2212 166.097 35.019 164.556 36.218 163.357C37.417 162.158 38.9583 161.36 40.6295 161.073C42.3007 160.786 44.0197 161.025 45.5498 161.756C66.3128 182.542 93.3927 195.841 122.535 199.565C173.1 210.954 205.443 227.808 205.443 270.173C205.443 312.538 174.467 336.226 122.991 336.226Z" fill="#FC7E43"/>
<path d="M159.476 166.319C157.543 166.893 155.462 166.691 153.675 165.756C151.889 164.82 150.538 163.224 149.91 161.308C149.559 160.262 149.422 159.155 149.509 158.055C149.595 156.955 149.903 155.884 150.414 154.906C150.924 153.928 151.627 153.062 152.479 152.362C153.332 151.662 154.317 151.141 155.376 150.83C165.266 146.951 173.697 140.082 179.495 131.18C185.293 122.279 188.168 111.79 187.719 101.177C187.719 68.3782 170.409 52.4345 132.144 52.4345C123.363 52.2201 114.657 54.09 106.738 57.8908C98.8199 61.6916 91.9152 67.3151 86.5902 74.3002C84.94 75.7117 82.8398 76.4874 80.6682 76.4874C78.4967 76.4874 76.3965 75.7117 74.7463 74.3002C73.3686 72.7231 72.6094 70.7001 72.6094 68.606C72.6094 66.5119 73.3686 64.4889 74.7463 62.9118C81.7992 54.5459 90.5838 47.8103 100.493 43.1701C110.403 38.5298 121.202 36.0955 132.144 36.0352C182.253 36.0352 204.119 59.2675 204.119 93.8883C204.119 128.509 182.253 163.13 159.476 166.319Z" fill="#00C482"/>
<path d="M115.288 352.194C103.939 353.384 92.4659 352.268 81.5581 348.915C70.6504 345.561 60.5324 340.039 51.8113 332.679C43.0901 325.32 35.9455 316.274 30.8062 306.085C25.6668 295.896 22.6386 284.774 21.9032 273.386C21.7733 260.086 24.3288 246.897 29.4166 234.608C34.5044 222.319 42.0199 211.183 51.513 201.867C53.1925 200.331 55.3864 199.479 57.6628 199.479C59.9391 199.479 62.133 200.331 63.8125 201.867C64.6251 202.672 65.2702 203.63 65.7104 204.685C66.1506 205.741 66.3773 206.873 66.3773 208.017C66.3773 209.161 66.1506 210.293 65.7104 211.348C65.2702 212.404 64.6251 213.362 63.8125 214.167C56.0246 221.418 49.7581 230.147 45.3783 239.845C40.9986 249.543 38.5932 260.016 38.3025 270.653C38.3025 313.929 73.3788 335.795 115.744 335.795C122.121 335.795 125.31 339.439 125.31 343.995C125.31 348.55 122.121 352.194 115.288 352.194Z" fill="#83E2FF"/>
<path d="M136.681 366.751C134.507 366.751 132.421 365.887 130.883 364.35C129.346 362.812 128.482 360.726 128.482 358.552C128.592 356.413 129.491 354.39 131.005 352.876C132.52 351.361 134.542 350.462 136.681 350.352C147.853 351.573 159.157 350.333 169.798 346.719C180.439 343.106 190.161 337.207 198.279 329.436C206.397 321.665 212.716 312.21 216.791 301.737C220.866 291.264 222.598 280.025 221.867 268.811C221.867 223.257 181.324 196.836 130.76 184.081C80.195 171.326 45.5742 156.749 45.5742 102.996C45.9199 91.487 48.5705 80.1644 53.3693 69.6981C58.168 59.2318 65.0173 49.8343 73.5119 42.0617C82.0065 34.2892 91.9739 28.2994 102.824 24.4469C113.674 20.5943 125.187 18.9573 136.681 19.6326C182.235 19.6326 220.5 45.5982 220.5 91.1518C220.5 93.3265 219.636 95.4121 218.099 96.9498C216.561 98.4876 214.475 99.3515 212.301 99.3515C210.275 99.364 208.316 98.6263 206.802 97.2805C205.288 95.9346 204.326 94.076 204.101 92.0629C204.101 53.3423 174.491 34.2098 133.037 34.2098C123.704 33.9058 114.402 35.4444 105.664 38.7376C96.9252 42.0308 88.9215 47.0139 82.1101 53.4022C75.2988 59.7905 69.8133 67.4587 65.9673 75.9683C62.1213 84.4778 59.9902 93.662 59.6958 102.996C59.6958 148.549 85.2059 156.293 133.948 168.593C193.168 183.17 238.266 214.147 238.266 268.811C239.374 282.271 237.476 295.809 232.708 308.445C227.941 321.081 220.424 332.499 210.701 341.873C200.979 351.247 189.294 358.342 176.492 362.644C163.69 366.947 150.092 368.35 136.681 366.751Z" fill="#FFABE2"/>
<path d="M102.894 372.675C76.2092 372.692 50.5606 362.347 31.355 343.821C12.1493 325.296 0.887097 300.036 -0.0574826 273.369C-1.30824 244.991 8.48864 217.233 27.2747 195.927C30.0316 193.089 33.7962 191.452 37.752 191.372C41.0349 191.524 44.2017 192.632 46.8628 194.561C49.2638 197.168 50.5966 200.583 50.5966 204.127C50.5966 207.671 49.2638 211.086 46.8628 213.693C33.7387 230.78 26.8296 251.828 27.2747 273.369C28.3252 293.068 36.8977 311.612 51.223 325.174C65.5483 338.737 84.5333 346.282 104.26 346.254C107.764 346.254 111.124 347.646 113.602 350.124C116.079 352.601 117.471 355.961 117.471 359.465C117.471 362.969 116.079 366.329 113.602 368.806C111.124 371.284 107.764 372.675 104.26 372.675H102.894ZM189.446 185.906C186.985 186.218 184.491 185.685 182.373 184.393C180.255 183.101 178.64 181.128 177.792 178.796C176.944 176.465 176.915 173.915 177.708 171.564C178.501 169.214 180.07 167.203 182.157 165.862C193.588 157.181 202.719 145.834 208.754 132.811C214.789 119.789 217.544 105.487 216.778 91.154C216.778 45.6004 183.524 20.5459 133.415 20.5459C111.745 20.4901 90.8184 28.4391 74.6505 42.8671C72.5319 44.6068 69.8755 45.5578 67.1341 45.5578C64.3928 45.5578 61.7363 44.6068 59.6178 42.8671C58.5283 41.8447 57.66 40.6098 57.0665 39.2387C56.4729 37.8676 56.1667 36.3893 56.1667 34.8953C56.1667 33.4012 56.4729 31.923 57.0665 30.5518C57.66 29.1807 58.5283 27.9458 59.6178 26.9234C80.1049 9.24578 106.358 -0.315369 133.415 0.0467337C146.445 -1.62108 159.68 -0.521092 172.256 3.27485C184.832 7.07079 196.466 13.4773 206.397 22.0757C216.328 30.6742 224.333 41.2712 229.89 53.1745C235.447 65.0777 238.429 78.0194 238.644 91.154C239.444 108.676 235.963 126.129 228.502 142.004C221.041 157.878 209.825 171.696 195.823 182.261C194.158 184.147 191.916 185.428 189.446 185.906Z" fill="#FFD825"/>
</g>
<defs>
<clipPath id="clip0">
<rect width="238.701" height="372.629" fill="white"/>
</clipPath>
</defs>
</svg>
