<svg width="236" height="351" viewBox="0 0 236 351" fill="none" xmlns="http://www.w3.org/2000/svg">
<g clip-path="url(#clip0)">
<path d="M115.763 350.788C90.0115 351.89 64.3766 346.731 41.0552 335.755C39.1782 334.616 37.8045 332.805 37.2124 330.691C36.6203 328.576 36.8541 326.316 37.8664 324.367C38.1698 323.254 38.7046 322.217 39.436 321.325C40.1673 320.433 41.0787 319.705 42.1105 319.189C43.1424 318.673 44.2715 318.381 45.4241 318.331C46.5767 318.281 47.7268 318.475 48.7993 318.901C69.6407 328.942 92.6537 333.639 115.763 332.567C128.786 333.265 141.814 331.28 154.038 326.735C166.263 322.19 177.423 315.182 186.827 306.146C188.431 304.64 190.549 303.803 192.749 303.803C194.949 303.803 197.066 304.64 198.671 306.146C199.458 306.871 200.086 307.751 200.515 308.731C200.945 309.711 201.166 310.77 201.166 311.84C201.166 312.91 200.945 313.968 200.515 314.948C200.086 315.928 199.458 316.809 198.671 317.534C187.92 328.532 174.995 337.17 160.72 342.895C146.446 348.621 131.134 351.309 115.763 350.788ZM107.563 220.96C93.107 222.699 78.4446 221.145 64.6731 216.417C50.9016 211.688 38.3776 203.907 28.0379 193.655C17.6983 183.403 9.8107 170.946 4.96522 157.215C0.119728 143.484 -1.55821 128.836 0.0569268 114.365C1.13755 89.7702 9.0224 65.958 22.8337 45.5788C23.2143 44.4259 23.8462 43.3718 24.6837 42.4927C25.5212 41.6137 26.5435 40.9316 27.6767 40.4958C28.8099 40.0599 30.0258 39.8812 31.2365 39.9724C32.4473 40.0637 33.6226 40.4227 34.6777 41.0235C35.4532 41.7074 36.0744 42.5486 36.4998 43.4911C36.9253 44.4336 37.1453 45.4558 37.1453 46.4899C37.1453 47.524 36.9253 48.5462 36.4998 49.4887C36.0744 50.4312 35.4532 51.2724 34.6777 51.9563C21.6898 70.6932 14.7 92.9334 14.6341 115.731C12.7893 128.122 13.8735 140.772 17.7997 152.667C21.7258 164.563 28.3848 175.373 37.2425 184.23C46.1002 193.088 56.9102 199.747 68.8057 203.673C80.7012 207.599 93.3512 208.683 105.741 206.839C106.818 206.839 107.884 207.051 108.879 207.463C109.874 207.875 110.778 208.479 111.539 209.24C112.301 210.002 112.905 210.906 113.317 211.9C113.729 212.895 113.941 213.962 113.941 215.038C113.496 216.501 112.671 217.819 111.551 218.859C110.431 219.899 109.055 220.624 107.563 220.96Z" fill="#8E60FF"/>
<path d="M116.685 334.364C85.82 336.792 55.1491 327.704 30.5887 308.854C29.1135 307.325 28.2891 305.284 28.2891 303.16C28.2891 301.035 29.1135 298.994 30.5887 297.465C31.3139 296.679 32.1943 296.051 33.1744 295.621C34.1544 295.191 35.2128 294.97 36.2829 294.97C37.3529 294.97 38.4114 295.191 39.3914 295.621C40.3715 296.051 41.2519 296.679 41.9771 297.465C63.2982 313.749 89.9754 321.394 116.685 318.876C177.727 318.876 203.237 270.589 203.237 204.08V147.594C203.354 132.312 201.981 117.055 199.137 102.04C198.654 99.8655 199.054 97.5879 200.25 95.7085C201.446 93.829 203.34 92.5017 205.515 92.0184C207.689 91.5351 209.967 91.9356 211.846 93.1316C213.726 94.3276 215.053 96.2212 215.536 98.3959C218.44 114.937 219.812 131.711 219.636 148.505V203.169C219.636 278.788 186.838 334.364 116.685 334.364Z" fill="#FC7E43"/>
<path d="M108.937 204.986C96.8634 206.63 84.5739 205.516 72.9923 201.727C61.4108 197.939 50.8385 191.575 42.0701 183.113C33.3016 174.652 26.565 164.313 22.3666 152.873C18.1682 141.434 16.6172 129.192 17.8301 117.067C16.8296 103.708 18.7012 90.2891 23.3189 77.7133C27.9366 65.1376 35.1934 53.6963 44.6014 44.1589C54.0094 34.6214 65.3504 27.2089 77.8619 22.4197C90.3734 17.6306 103.765 15.5758 117.137 16.3936C140.46 14.5921 163.634 21.3986 182.279 35.5262C183.318 36.9903 183.877 38.7414 183.877 40.5371C183.877 42.3327 183.318 44.0839 182.279 45.548C180.599 47.0845 178.405 47.9366 176.129 47.9366C173.853 47.9366 171.659 47.0845 169.979 45.548C154.271 35.544 135.679 31.0562 117.137 32.7929C105.807 31.7401 94.3845 33.197 83.6816 37.0599C72.9787 40.9228 63.2586 47.0968 55.2126 55.1427C47.1667 63.1887 40.9927 72.9088 37.1298 83.6117C33.2669 94.3146 31.81 105.737 32.8628 117.067C32.8628 165.81 57.0063 188.586 108.937 188.586C118.839 189.306 128.773 187.705 137.947 183.908C147.121 180.112 155.281 174.227 161.78 166.721C163.357 165.343 165.38 164.584 167.474 164.584C169.568 164.584 171.591 165.343 173.168 166.721C173.967 167.486 174.603 168.405 175.038 169.423C175.472 170.441 175.696 171.536 175.696 172.643C175.696 173.749 175.472 174.844 175.038 175.862C174.603 176.88 173.967 177.799 173.168 178.565C165.128 187.502 155.18 194.518 144.062 199.091C132.944 203.665 120.939 205.679 108.937 204.986Z" fill="#00C482"/>
<path d="M194.949 204.541C192.774 204.541 190.689 203.677 189.151 202.139C187.613 200.602 186.749 198.516 186.749 196.341V150.788C186.749 88.3792 171.716 49.6587 117.052 49.6587C108.39 48.605 99.6016 49.435 91.2895 52.092C82.9774 54.749 75.3374 59.1702 68.8921 65.0531C62.4468 70.936 57.3485 78.1418 53.9458 86.1775C50.5431 94.2132 48.9165 102.889 49.1772 111.612C49.119 112.689 48.8488 113.744 48.382 114.717C47.9152 115.69 47.261 116.561 46.457 117.28C45.6529 118 44.7148 118.553 43.6963 118.909C42.6779 119.266 41.5992 119.417 40.522 119.356C38.3495 119.026 36.3693 117.923 34.9462 116.249C33.5231 114.574 32.753 112.442 32.7779 110.245C32.4442 99.3904 34.4525 88.5913 38.6659 78.5824C42.8794 68.5734 49.1992 59.5893 57.1955 52.2414C65.1918 44.8935 74.6769 39.354 85.0056 35.9999C95.3344 32.6458 106.264 31.5557 117.052 32.8038C181.283 32.8038 203.148 78.3575 203.148 144.41V196.341C203.215 197.435 203.048 198.531 202.66 199.556C202.271 200.581 201.67 201.512 200.895 202.287C200.119 203.062 199.189 203.664 198.164 204.052C197.139 204.441 196.043 204.608 194.949 204.541Z" fill="#83E2FF"/>
<path d="M116.688 318.875C93.3475 320.93 69.9461 315.676 49.7237 303.843C48.6575 303.356 47.701 302.659 46.9125 301.792C46.1239 300.925 45.5197 299.907 45.1363 298.799C44.753 297.692 44.5985 296.518 44.6823 295.349C44.7661 294.18 45.0865 293.04 45.6239 291.999C46.3893 291.2 47.3086 290.564 48.3263 290.129C49.3441 289.695 50.4393 289.471 51.5459 289.471C52.6525 289.471 53.7477 289.695 54.7654 290.129C55.7832 290.564 56.7024 291.2 57.4679 291.999C75.9234 303.09 97.7106 307.286 118.965 303.843C156.319 298.376 175.907 279.244 182.285 238.246C182.826 236.105 184.166 234.252 186.029 233.066C187.892 231.88 190.138 231.452 192.307 231.868C194.32 232.307 196.094 233.489 197.276 235.177C198.458 236.865 198.96 238.937 198.684 240.979C189.573 294.732 161.786 318.875 116.688 318.875ZM227.838 215.013C225.699 214.903 223.677 214.004 222.162 212.49C220.648 210.975 219.749 208.953 219.639 206.814V148.505C219.639 70.6081 192.307 16.3993 116.688 16.3993C101.076 16.1936 85.5825 19.1373 71.1339 25.0545C70.2092 25.5169 69.2012 25.7894 68.1695 25.856C67.1378 25.9225 66.1031 25.7819 65.1266 25.4422C64.1501 25.1026 63.2515 24.5708 62.4838 23.8783C61.7161 23.1858 61.0948 22.3466 60.6566 21.4102C60.2055 20.3636 59.9655 19.2383 59.9504 18.0988C59.9354 16.9592 60.1455 15.8279 60.5687 14.7698C60.992 13.7117 61.62 12.7475 62.4169 11.9327C63.2137 11.118 64.1635 10.4685 65.212 10.0218C81.711 3.90278 99.0981 0.51768 116.688 0C199.14 0 236.038 56.942 236.038 148.505V206.814C235.928 208.953 235.029 210.975 233.514 212.49C232 214.004 229.978 214.903 227.838 215.013Z" fill="#FFABE2"/>
<path d="M110.216 191.804C88.0824 193.571 66.1462 186.531 49.1738 172.216C48.0843 171.193 47.216 169.958 46.6225 168.587C46.0289 167.216 45.7227 165.738 45.7227 164.244C45.7227 162.75 46.0289 161.271 46.6225 159.9C47.216 158.529 48.0843 157.294 49.1738 156.272C51.2797 154.319 54.0457 153.234 56.9179 153.234C59.79 153.234 62.5561 154.319 64.662 156.272C70.9675 161.46 78.2431 165.34 86.0643 167.687C93.8854 170.033 102.096 170.798 110.216 169.938C120.305 170.109 130.229 167.363 138.795 162.03C147.361 156.696 154.204 149.002 158.503 139.873C159.197 138.648 160.141 137.583 161.274 136.748C162.408 135.913 163.704 135.325 165.079 135.024C166.455 134.724 167.878 134.716 169.256 135.002C170.635 135.288 171.937 135.861 173.08 136.684C174.367 137.308 175.514 138.189 176.448 139.273C177.382 140.357 178.084 141.621 178.51 142.987C178.937 144.353 179.08 145.792 178.929 147.215C178.779 148.638 178.338 150.015 177.635 151.261C171.322 163.655 161.656 174.027 149.736 181.195C137.816 188.363 124.123 192.039 110.216 191.804Z" fill="#FFD825"/>
</g>
<defs>
<clipPath id="clip0">
<rect width="235.968" height="350.763" fill="white"/>
</clipPath>
</defs>
</svg>
