<svg width="48" height="48" viewBox="0 0 48 48" fill="none" xmlns="http://www.w3.org/2000/svg">
<path fill-rule="evenodd" clip-rule="evenodd" d="M9.72054 20.9792C8.76342 22.9059 8.26389 25.0367 8.26248 27.1977L6.19531 27.197C6.19683 24.7036 6.77315 22.245 7.87752 20.022C8.98189 17.7989 10.0317 16.4717 12 14.9998C12.4608 14.6553 13.659 14.1596 13.996 14.6308C14.3329 15.1019 14.2325 15.7631 13.7718 16.1077C12.0657 17.3834 10.6778 19.0524 9.72054 20.9792ZM8.26248 27.1977L6.19531 27.197C6.19683 29.6904 6.77315 32.1503 7.87752 34.3734C8.98189 36.5964 10.0317 37.5282 12 39C12.4608 39.3445 13.8872 39.9481 14.2242 39.4769C14.5611 39.0058 14.4608 38.3445 14 38C12.2939 36.7243 10.6778 35.343 9.72054 33.4161C8.76342 31.4895 8.26389 29.3586 8.26248 27.1977Z" fill="#FF7F37"/>
<path fill-rule="evenodd" clip-rule="evenodd" d="M20.0032 14.0383C17.5071 14.2299 15.1985 15.1313 13.2943 16.5266C12.8488 16.8531 12.223 16.7565 11.8966 16.3111C11.5701 15.8656 11.6666 15.2398 12.1121 14.9134C14.596 13.0933 17.6814 12 21.0032 12C21.5555 12 22.0032 12.4477 22.0032 13V27C22.0032 27.5523 21.5555 28 21.0032 28C20.4509 28 20.0032 27.5523 20.0032 27V14.0383Z" fill="#9063CD"/>
<path fill-rule="evenodd" clip-rule="evenodd" d="M11.9381 37.7025C12.2663 37.2584 12.8925 37.1645 13.3366 37.4928C15.4679 39.0681 18.1204 39.9969 21.0023 39.9969C23.3612 39.9969 25.5706 39.3659 27.4852 38.2692C27.9644 37.9947 28.5755 38.1607 28.85 38.6399C29.1245 39.1191 28.9585 39.7302 28.4793 40.0047C26.2739 41.268 23.7233 41.9969 21.0023 41.9969C17.6841 41.9969 14.6166 40.9258 12.1479 39.1011C11.7037 38.7728 11.6098 38.1467 11.9381 37.7025Z" fill="#FDDA24"/>
<path fill-rule="evenodd" clip-rule="evenodd" d="M20 27C20 26.4477 20.4477 26 21 26H35C35.5523 26 36 26.4477 36 27C36 32.5512 32.977 37.4149 28.4792 40.0065C28.0007 40.2822 27.3893 40.1178 27.1135 39.6392C26.8378 39.1607 27.0022 38.5493 27.4808 38.2735C31.11 36.1824 33.6276 32.389 33.962 28H21C20.4477 28 20 27.5523 20 27Z" fill="#00CCEA"/>
<path fill-rule="evenodd" clip-rule="evenodd" d="M24.9982 8.00002C27.634 7.99533 30.2238 8.69087 32.5025 10.0155C32.98 10.293 33.1421 10.9051 32.8646 11.3826C32.587 11.86 31.9749 12.0221 31.4975 11.7446C29.8136 10.7658 27.9335 10.1838 26 10.037V23C26 23.5523 25.5523 24 25 24C24.4477 24 24 23.5523 24 23V9.00002C24 8.44843 24.4466 8.001 24.9982 8.00002Z" fill="#00C389"/>
<path fill-rule="evenodd" clip-rule="evenodd" d="M31.1346 10.3819C31.4113 9.90398 32.0231 9.74084 32.501 10.0176C36.9762 12.6085 40 17.4507 40 23.003C40 23.5553 39.5523 24.003 39 24.003H25C24.4477 24.003 24 23.5553 24 23.003C24 22.4507 24.4477 22.003 25 22.003H37.962C37.6276 17.6173 35.1119 13.8401 31.499 11.7484C31.021 11.4717 30.8579 10.8599 31.1346 10.3819Z" fill="#F5B6CD"/>
</svg>
