<svg width="48" height="48" viewBox="0 0 48 48" fill="none" xmlns="http://www.w3.org/2000/svg">
<path fill-rule="evenodd" clip-rule="evenodd" d="M13 6C13.5523 6 14 6.44772 14 7V30H34V7C34 6.44772 34.4477 6 35 6C35.5523 6 36 6.44772 36 7V31C36 31.5523 35.5523 32 35 32H13C12.4477 32 12 31.5523 12 31V7C12 6.44772 12.4477 6 13 6Z" fill="#9063CD"/>
<path fill-rule="evenodd" clip-rule="evenodd" d="M25.4766 7C25.4766 6.44772 25.9243 6 26.4766 6H37.9966C40.2088 6 41.9966 7.78772 41.9966 10V15C41.9966 15.5523 41.5489 16 40.9966 16H36.9966C36.4443 16 35.9966 15.5523 35.9966 15C35.9966 14.4477 36.4443 14 36.9966 14H39.9966V10C39.9966 8.89228 39.1043 8 37.9966 8H26.4766C25.9243 8 25.4766 7.55228 25.4766 7Z" fill="#FDDA24"/>
<path fill-rule="evenodd" clip-rule="evenodd" d="M24 12C21.7909 12 20 13.7909 20 16C20 18.2091 21.7909 20 24 20C26.2091 20 28 18.2091 28 16C28 13.7909 26.2091 12 24 12ZM18 16C18 12.6863 20.6863 10 24 10C27.3137 10 30 12.6863 30 16C30 19.3137 27.3137 22 24 22C20.6863 22 18 19.3137 18 16Z" fill="#F5B6CD"/>
<path fill-rule="evenodd" clip-rule="evenodd" d="M17 22C17.5523 22 18 22.4477 18 23V26H30V23C30 22.4477 30.4477 22 31 22C31.5523 22 32 22.4477 32 23V27C32 27.5523 31.5523 28 31 28H17C16.4477 28 16 27.5523 16 27V23C16 22.4477 16.4477 22 17 22Z" fill="#00CCEA"/>
<path fill-rule="evenodd" clip-rule="evenodd" d="M18.2929 34.2929C18.6834 33.9024 19.3166 33.9024 19.7071 34.2929L24 38.5858L28.2929 34.2929C28.6834 33.9024 29.3166 33.9024 29.7071 34.2929C30.0976 34.6834 30.0976 35.3166 29.7071 35.7071L24.7071 40.7071C24.3166 41.0976 23.6834 41.0976 23.2929 40.7071L18.2929 35.7071C17.9024 35.3166 17.9024 34.6834 18.2929 34.2929Z" fill="#FF7F37"/>
<path fill-rule="evenodd" clip-rule="evenodd" d="M10 8C8.89228 8 8 8.89228 8 10V14H11C11.5523 14 12 14.4477 12 15C12 15.5523 11.5523 16 11 16H7C6.44772 16 6 15.5523 6 15V10C6 7.78772 7.78772 6 10 6H26.48C27.0323 6 27.48 6.44772 27.48 7C27.48 7.55228 27.0323 8 26.48 8H10Z" fill="#00C389"/>
</svg>
