<svg width="48" height="48" viewBox="0 0 48 48" fill="none" xmlns="http://www.w3.org/2000/svg">
<path fill-rule="evenodd" clip-rule="evenodd" d="M19 10C18.4523 10 18 10.4523 18 11V15C18 15.5523 17.5523 16 17 16C16.4477 16 16 15.5523 16 15V11C16 9.34772 17.3477 8 19 8H29C30.6523 8 32 9.34772 32 11V15C32 15.5523 31.5523 16 31 16C30.4477 16 30 15.5523 30 15V11C30 10.4523 29.5477 10 29 10H19Z" fill="#FDDA24"/>
<path fill-rule="evenodd" clip-rule="evenodd" d="M7 24C7.55228 24 8 24.4477 8 25V37C8 37.5477 8.45228 38 9 38H39C39.5477 38 40 37.5477 40 37V33C40 32.4477 40.4477 32 41 32C41.5523 32 42 32.4477 42 33V37C42 38.6523 40.6523 40 39 40H9C7.34772 40 6 38.6523 6 37V25C6 24.4477 6.44772 24 7 24Z" fill="#9063CD"/>
<path fill-rule="evenodd" clip-rule="evenodd" d="M30 15C30 14.4477 30.4477 14 31 14H41C41.5523 14 42 14.4477 42 15V33C42 33.5523 41.5523 34 41 34C40.4477 34 40 33.5523 40 33V16H31C30.4477 16 30 15.5523 30 15Z" fill="#F5B6CD"/>
<path fill-rule="evenodd" clip-rule="evenodd" d="M6 15C6 14.4477 6.44772 14 7 14H31C31.5523 14 32 14.4477 32 15C32 15.5523 31.5523 16 31 16H8V25C8 25.5523 7.55228 26 7 26C6.44772 26 6 25.5523 6 25V15Z" fill="#00CCEA"/>
<path fill-rule="evenodd" clip-rule="evenodd" d="M6.09542 24.5744C6.33058 24.0747 6.92632 23.8603 7.42603 24.0954L24.0002 31.895L40.5744 24.0954C41.0742 23.8603 41.6699 24.0747 41.9051 24.5744C42.1402 25.0742 41.9258 25.6699 41.426 25.9051L24.426 33.9051C24.1564 34.032 23.8441 34.032 23.5744 33.9051L6.57444 25.9051C6.07472 25.6699 5.86026 25.0742 6.09542 24.5744Z" fill="#FF7F37"/>
<path fill-rule="evenodd" clip-rule="evenodd" d="M24 18C24.5523 18 25 18.4477 25 19V22H28C28.5523 22 29 22.4477 29 23C29 23.5523 28.5523 24 28 24H25V27C25 27.5523 24.5523 28 24 28C23.4477 28 23 27.5523 23 27V24H20C19.4477 24 19 23.5523 19 23C19 22.4477 19.4477 22 20 22H23V19C23 18.4477 23.4477 18 24 18Z" fill="#00C389"/>
</svg>
