<svg width="48" height="48" viewBox="0 0 48 48" fill="none" xmlns="http://www.w3.org/2000/svg">
<path fill-rule="evenodd" clip-rule="evenodd" d="M25.0741 25.0741C25.4647 24.6836 26.0978 24.6836 26.4884 25.0741L30.7084 29.2941C31.0989 29.6847 31.0989 30.3178 30.7084 30.7084C30.3178 31.0989 29.6847 31.0989 29.2941 30.7084L25.0741 26.4884C24.6836 26.0978 24.6836 25.4647 25.0741 25.0741Z" fill="#00C389"/>
<path fill-rule="evenodd" clip-rule="evenodd" d="M7 17C7.55228 17 8 17.4477 8 18C8 23.5277 12.4723 28 18 28C18.5523 28 19 28.4477 19 29C19 29.5523 18.5523 30 18 30C11.3677 30 6 24.6323 6 18C6 17.4477 6.44772 17 7 17Z" fill="#FDDA24"/>
<path fill-rule="evenodd" clip-rule="evenodd" d="M29 17C29.5523 17 30 17.4477 30 18C30 24.6323 24.6323 30 18 30C17.4477 30 17 29.5523 17 29C17 28.4477 17.4477 28 18 28C23.5277 28 28 23.5277 28 18C28 17.4477 28.4477 17 29 17Z" fill="#F5B6CD"/>
<path fill-rule="evenodd" clip-rule="evenodd" d="M18 8C12.4723 8 8 12.4723 8 18C8 18.5523 7.55228 19 7 19C6.44772 19 6 18.5523 6 18C6 11.3677 11.3677 6 18 6C24.6323 6 30 11.3677 30 18C30 18.5523 29.5523 19 29 19C28.4477 19 28 18.5523 28 18C28 12.4723 23.5277 8 18 8Z" fill="#FF7F37"/>
<path fill-rule="evenodd" clip-rule="evenodd" d="M35.6129 31.6132C36.0034 31.2227 36.6366 31.2227 37.0271 31.6132L41.7071 36.2932C41.8946 36.4807 42 36.7351 42 37.0003C42 39.7526 39.7523 42.0003 37 42.0003C36.7348 42.0003 36.4804 41.895 36.2929 41.7074L33.7929 39.2074C33.4024 38.8169 33.4024 38.1837 33.7929 37.7932C34.1834 37.4027 34.8166 37.4027 35.2071 37.7932L37.3888 39.9749C38.7279 39.799 39.7987 38.7282 39.9746 37.3892L35.6129 33.0274C35.2224 32.6369 35.2224 32.0037 35.6129 31.6132Z" fill="#00CCEA"/>
<path fill-rule="evenodd" clip-rule="evenodd" d="M32.2929 28.2929C32.6834 27.9024 33.3166 27.9024 33.7071 28.2929L37.0271 31.6129C37.4176 32.0034 37.4176 32.6366 37.0271 33.0271C36.6366 33.4176 36.0034 33.4176 35.6129 33.0271L33 30.4142L30.4142 33L35.2071 37.7929C35.5976 38.1834 35.5976 38.8166 35.2071 39.2071C34.8166 39.5976 34.1834 39.5976 33.7929 39.2071L28.2929 33.7071C27.9024 33.3166 27.9024 32.6834 28.2929 32.2929L32.2929 28.2929Z" fill="#9063CD"/>
<path fill-rule="evenodd" clip-rule="evenodd" d="M10 18C10 13.5877 13.5877 10 18 10C18.5523 10 19 10.4477 19 11C19 11.5523 18.5523 12 18 12C14.6923 12 12 14.6923 12 18C12 18.5523 11.5523 19 11 19C10.4477 19 10 18.5523 10 18Z" fill="#00C389"/>
</svg>
