<svg width="48" height="48" viewBox="0 0 48 48" fill="none" xmlns="http://www.w3.org/2000/svg">
<path fill-rule="evenodd" clip-rule="evenodd" d="M18.1681 8.4453C18.3535 8.1671 18.6658 8 19.0001 8H29.0001C29.3345 8 29.6467 8.1671 29.8322 8.4453L33.8322 14.4453C34.1385 14.9048 34.0143 15.5257 33.5548 15.8321C33.0953 16.1384 32.4744 16.0142 32.1681 15.5547L28.4649 10H19.5353L15.8322 15.5547C15.5258 16.0142 14.9049 16.1384 14.4454 15.8321C13.9859 15.5257 13.8617 14.9048 14.1681 14.4453L18.1681 8.4453Z" fill="#00C389"/>
<path fill-rule="evenodd" clip-rule="evenodd" d="M32 15C32 14.4477 32.4477 14 33 14H40C42.2123 14 44 15.7877 44 18V27C44 27.5523 43.5523 28 43 28C42.4477 28 42 27.5523 42 27V18C42 16.8923 41.1077 16 40 16H33C32.4477 16 32 15.5523 32 15Z" fill="#00CCEA"/>
<path fill-rule="evenodd" clip-rule="evenodd" d="M42.9962 26C43.5485 26 43.9962 26.4477 43.9962 27V36C43.9962 38.2123 42.2085 40 39.9962 40H22.1562C21.604 40 21.1562 39.5523 21.1562 39C21.1562 38.4477 21.604 38 22.1562 38H39.9962C41.104 38 41.9962 37.1077 41.9962 36V27C41.9962 26.4477 42.444 26 42.9962 26Z" fill="#F5B6CD"/>
<path fill-rule="evenodd" clip-rule="evenodd" d="M5 26.8828C5.55228 26.8828 6 27.3305 6 27.8828V36.0028C6 37.1105 6.89228 38.0028 8 38.0028H22.16C22.7123 38.0028 23.16 38.4505 23.16 39.0028C23.16 39.5551 22.7123 40.0028 22.16 40.0028H8C5.78772 40.0028 4 38.2151 4 36.0028V27.8828C4 27.3305 4.44772 26.8828 5 26.8828Z" fill="#9063CD"/>
<path fill-rule="evenodd" clip-rule="evenodd" d="M4 18C4 15.7877 5.78772 14 8 14H15C15.5523 14 16 14.4477 16 15C16 15.5523 15.5523 16 15 16H8C6.89228 16 6 16.8923 6 18V27.88C6 28.4323 5.55228 28.88 5 28.88C4.44772 28.88 4 28.4323 4 27.88V18Z" fill="#FDDA24"/>
<path fill-rule="evenodd" clip-rule="evenodd" d="M24 20C20.6863 20 18 22.6863 18 26C18 29.3137 20.6863 32 24 32C27.3137 32 30 29.3137 30 26C30 22.6863 27.3137 20 24 20ZM16 26C16 21.5817 19.5817 18 24 18C28.4183 18 32 21.5817 32 26C32 30.4183 28.4183 34 24 34C19.5817 34 16 30.4183 16 26Z" fill="#FF7F37"/>
<path fill-rule="evenodd" clip-rule="evenodd" d="M20 13C20 12.4477 20.4477 12 21 12H27C27.5523 12 28 12.4477 28 13C28 13.5523 27.5523 14 27 14H21C20.4477 14 20 13.5523 20 13Z" fill="#00C389"/>
</svg>
