<svg width="48" height="48" viewBox="0 0 48 48" fill="none" xmlns="http://www.w3.org/2000/svg">
<path fill-rule="evenodd" clip-rule="evenodd" d="M15 20C15.5523 20 16 20.4477 16 21C16 26.9315 20.7134 31.778 26.5932 31.9926L30.0023 28.5835C30.1837 28.3926 30.4021 28.2406 30.6443 28.1368C30.8909 28.0311 31.1568 27.9777 31.425 27.98C31.4274 27.98 31.4298 27.98 31.4322 27.9801L31.42 28.98V27.98H31.425H36C38.2123 27.98 40 29.7677 40 31.98V37.06C40 38.8114 38.882 40.36 37.2026 40.8931L37.2017 40.8934C35.5539 41.4149 33.82 41.7703 32.0211 41.9167C31.4707 41.9615 30.9881 41.5516 30.9433 41.0011C30.8985 40.4507 31.3084 39.9681 31.8589 39.9233C33.4997 39.7897 35.0855 39.4653 36.5974 38.9869L36.9 39.94L36.5983 38.9866C37.4384 38.7195 38 37.9483 38 37.06V31.98C38 30.8723 37.1077 29.98 36 29.98H31.4341C31.4318 29.9824 31.4295 29.9847 31.4271 29.9871L27.7071 33.7071C27.5196 33.8946 27.2652 34 27 34C19.8277 34 14 28.1723 14 21C14 20.4477 14.4477 20 15 20Z" fill="#9063CD"/>
<path fill-rule="evenodd" clip-rule="evenodd" d="M7.16674 21.038C7.71105 20.9445 8.22812 21.3099 8.32165 21.8542C9.90829 31.0873 17.4873 38.4737 26.7944 39.7732L26.7991 39.7739C28.5213 40.0226 30.206 40.0611 31.855 39.9269C32.4054 39.8821 32.888 40.292 32.9328 40.8425C32.9776 41.3929 32.5677 41.8755 32.0172 41.9203C30.2269 42.066 28.3924 42.0246 26.5155 41.7537C16.3436 40.3323 8.08378 32.2791 6.35055 22.193C6.25701 21.6487 6.62243 21.1316 7.16674 21.038Z" fill="#00CCEA"/>
<path fill-rule="evenodd" clip-rule="evenodd" d="M7.08404 10.7974C7.61718 9.11803 9.16576 8 10.9172 8H15.9972C18.2094 8 19.9972 9.78772 19.9972 12V16.58C19.9972 17.1282 19.7897 17.6217 19.4043 18.0071L15.7043 21.7071C15.3137 22.0976 14.6806 22.0976 14.2901 21.7071C13.8995 21.3166 13.8995 20.6834 14.2901 20.2929L17.9901 16.5929C17.993 16.59 17.9953 16.5875 17.9971 16.5855C17.9971 16.5839 17.9972 16.5821 17.9972 16.58V12C17.9972 10.8923 17.1049 10 15.9972 10H10.9172C10.029 10 9.25787 10.5615 8.99066 11.4014C8.03735 14.4337 7.72919 17.7371 8.20501 21.1833C8.22751 21.3109 8.24411 21.4383 8.2575 21.541L8.25876 21.5507C8.27439 21.6705 8.28631 21.7601 8.30103 21.8411C8.39983 22.3845 8.03943 22.9051 7.49605 23.0039C6.95267 23.1027 6.43209 22.7423 6.33329 22.1989C6.30876 22.0639 6.29099 21.9277 6.27683 21.819L6.27556 21.8093C6.25993 21.6895 6.24802 21.5999 6.23329 21.5189C6.2308 21.5052 6.22859 21.4914 6.22667 21.4776C5.70635 17.7312 6.03864 14.1218 7.08322 10.8L7.08404 10.7974L7.08404 10.7974Z" fill="#F5B6CD"/>
<path fill-rule="evenodd" clip-rule="evenodd" d="M38.6183 9.21974C39.0493 8.87433 39.6786 8.94368 40.0241 9.37463C41.0845 10.6977 41.7495 12.2934 41.9424 13.9779C42.1354 15.6624 41.8485 17.3672 41.1148 18.8957C40.3811 20.4243 39.2304 21.7145 37.7954 22.6175C36.3606 23.5205 34.6999 23.9997 33.0046 24C31.8221 24.0021 30.651 23.7705 29.5583 23.3188C28.4652 22.8669 27.4722 22.2035 26.6363 21.3668C26.246 20.9761 26.2463 20.3429 26.637 19.9526C27.0277 19.5623 27.6609 19.5626 28.0512 19.9533C28.701 20.6037 29.4728 21.1193 30.3224 21.4705C31.172 21.8218 32.0826 22.0017 33.0019 22L33.0036 22C34.3223 21.9999 35.6141 21.6272 36.7302 20.9248C37.8462 20.2225 38.7411 19.2191 39.3118 18.0303C39.8824 16.8415 40.1055 15.5156 39.9554 14.2055C39.8054 12.8954 39.2882 11.6544 38.4635 10.6254C38.1181 10.1945 38.1874 9.56514 38.6183 9.21974ZM33.0046 24C33.0043 24 33.0041 24 33.0039 24L33.0038 23L33.0056 24C33.0052 24 33.0049 24 33.0046 24Z" fill="#00C389"/>
<path fill-rule="evenodd" clip-rule="evenodd" d="M30.017 6.50814C31.7757 5.89062 33.6828 5.83452 35.4747 6.34757C37.2667 6.86063 38.8551 7.91752 40.0204 9.37223C40.3658 9.80326 40.2963 10.4326 39.8652 10.7779C39.4342 11.1232 38.8049 11.0537 38.4596 10.6227C37.5532 9.49131 36.3179 8.66933 34.9242 8.27032C33.5306 7.8713 32.0474 7.91494 30.6796 8.3952C29.3118 8.87546 28.1269 9.76864 27.2887 10.9513C26.4504 12.134 26.0001 13.5478 26 14.9975M30.017 6.50814C28.2583 7.12566 26.7348 8.27411 25.657 9.79482L30.017 6.50814ZM25.657 9.79482C24.5791 11.3155 24.0001 13.1334 24 14.9974L25.657 9.79482ZM24 14.9974V14.9975V14.9974ZM24 14.9975C24 17.4758 25.0147 19.7239 26.628 21.3597L24 14.9975ZM26 14.9975C26 16.9192 26.7854 18.671 28.052 19.9552C28.4398 20.3484 28.4354 20.9816 28.0422 21.3694C27.649 21.7572 27.0159 21.7529 26.628 21.3597" fill="#FDDA24"/>
<path fill-rule="evenodd" clip-rule="evenodd" d="M31.4855 13.1711L33.278 14.8484C33.3026 14.833 33.3267 14.8182 33.3501 14.8039C33.497 14.7145 33.6083 14.6514 33.7066 14.5956C33.8367 14.5218 33.9441 14.4609 34.0809 14.3692C34.2729 14.2406 34.3795 14.1361 34.4438 14.0362C34.4991 13.9502 34.5575 13.8148 34.5575 13.56C34.5575 12.6923 33.8652 12 32.9975 12C32.2643 12 31.6563 12.4943 31.4855 13.1711ZM29.4375 13.56C29.4375 11.5877 31.0252 10 32.9975 10C34.9698 10 36.5575 11.5877 36.5575 13.56C36.5575 14.1653 36.406 14.6823 36.1262 15.1175C35.8555 15.5389 35.5021 15.8244 35.1941 16.0308C35.0153 16.1506 34.7746 16.2892 34.5918 16.3945C34.5089 16.4423 34.4379 16.4832 34.3899 16.5124C34.1676 16.6477 34.0756 16.73 34.0329 16.786C33.8616 17.011 33.603 17.1528 33.3212 17.1765C33.0394 17.2002 32.7607 17.1034 32.5543 16.9102L29.7543 14.2902C29.5522 14.1011 29.4375 13.8367 29.4375 13.56Z" fill="#FF7F37"/>
</svg>
