<svg width="48" height="48" viewBox="0 0 48 48" fill="none" xmlns="http://www.w3.org/2000/svg">
<path fill-rule="evenodd" clip-rule="evenodd" d="M7 6C7.55228 6 8 6.44772 8 7V22.5C8 23.0523 7.55228 23.5 7 23.5C6.44772 23.5 6 23.0523 6 22.5V7C6 6.44772 6.44772 6 7 6Z" fill="#00CCEA"/>
<path fill-rule="evenodd" clip-rule="evenodd" d="M7 21.5C7.55228 21.5 8 21.9477 8 22.5V38C8 39.1077 8.89228 40 10 40H21.58C22.1323 40 22.58 40.4477 22.58 41C22.58 41.5523 22.1323 42 21.58 42H10C7.78772 42 6 40.2123 6 38V22.5C6 21.9477 6.44772 21.5 7 21.5Z" fill="#00C389"/>
<path fill-rule="evenodd" clip-rule="evenodd" d="M20.5781 41C20.5781 40.4477 21.0258 40 21.5781 40H40.9981C41.5504 40 41.9981 40.4477 41.9981 41C41.9981 41.5523 41.5504 42 40.9981 42H21.5781C21.0258 42 20.5781 41.5523 20.5781 41Z" fill="#FDDA24"/>
<path fill-rule="evenodd" clip-rule="evenodd" d="M20.2929 20.2929C20.6834 19.9024 21.3166 19.9024 21.7071 20.2929L27.7071 26.2929C28.0976 26.6834 28.0976 27.3166 27.7071 27.7071C27.3166 28.0976 26.6834 28.0976 26.2929 27.7071L21 22.4142L11.7071 31.7071C11.3166 32.0976 10.6834 32.0976 10.2929 31.7071C9.90237 31.3166 9.90237 30.6834 10.2929 30.2929L20.2929 20.2929Z" fill="#9063CD"/>
<path fill-rule="evenodd" clip-rule="evenodd" d="M39.7071 14.2929C40.0976 14.6834 40.0976 15.3166 39.7071 15.7071L27.7071 27.7071C27.3166 28.0976 26.6834 28.0976 26.2929 27.7071C25.9024 27.3166 25.9024 26.6834 26.2929 26.2929L38.2929 14.2929C38.6834 13.9024 39.3166 13.9024 39.7071 14.2929Z" fill="#F5B6CD"/>
<path fill-rule="evenodd" clip-rule="evenodd" d="M32 15C32 14.4477 32.4477 14 33 14H39C39.5523 14 40 14.4477 40 15V21C40 21.5523 39.5523 22 39 22C38.4477 22 38 21.5523 38 21V16H33C32.4477 16 32 15.5523 32 15Z" fill="#FF7F37"/>
</svg>
