<svg width="48" height="48" viewBox="0 0 48 48" fill="none" xmlns="http://www.w3.org/2000/svg">
<path fill-rule="evenodd" clip-rule="evenodd" d="M14.9375 34C15.4898 34 15.9375 34.4477 15.9375 35V38H42.9375C43.4898 38 43.9375 38.4477 43.9375 39C43.9375 39.5523 43.4898 40 42.9375 40H14.9375C14.3852 40 13.9375 39.5523 13.9375 39V35C13.9375 34.4477 14.3852 34 14.9375 34Z" fill="#F5B6CD"/>
<path fill-rule="evenodd" clip-rule="evenodd" d="M37.9375 23C37.9375 22.4477 38.3852 22 38.9375 22H42.9375C43.4898 22 43.9375 22.4477 43.9375 23V39C43.9375 39.5523 43.4898 40 42.9375 40C42.3852 40 41.9375 39.5523 41.9375 39V24H38.9375C38.3852 24 37.9375 23.5523 37.9375 23Z" fill="#00C389"/>
<path fill-rule="evenodd" clip-rule="evenodd" d="M10.9375 19.9375C11.4898 19.9375 11.9375 20.3852 11.9375 20.9375V33.9975H38.9375C39.4898 33.9975 39.9375 34.4452 39.9375 34.9975C39.9375 35.5498 39.4898 35.9975 38.9375 35.9975H10.9375C10.3852 35.9975 9.9375 35.5498 9.9375 34.9975V20.9375C9.9375 20.3852 10.3852 19.9375 10.9375 19.9375Z" fill="#00CCEA"/>
<path fill-rule="evenodd" clip-rule="evenodd" d="M16 19C16 18.4477 16.4477 18 17 18H38.94C39.4923 18 39.94 18.4477 39.94 19V35C39.94 35.5523 39.4923 36 38.94 36C38.3877 36 37.94 35.5523 37.94 35V20H17C16.4477 20 16 19.5523 16 19Z" fill="#FDDA24"/>
<path fill-rule="evenodd" clip-rule="evenodd" d="M25.9375 23C25.9375 22.4477 26.3852 22 26.9375 22H34.9375C35.4898 22 35.9375 22.4477 35.9375 23C35.9375 23.5523 35.4898 24 34.9375 24H26.9375C26.3852 24 25.9375 23.5523 25.9375 23ZM29.9375 27C29.9375 26.4477 30.3852 26 30.9375 26H34.9375C35.4898 26 35.9375 26.4477 35.9375 27C35.9375 27.5523 35.4898 28 34.9375 28H30.9375C30.3852 28 29.9375 27.5523 29.9375 27ZM13.9375 31C13.9375 30.4477 14.3852 30 14.9375 30H24.9375C25.4898 30 25.9375 30.4477 25.9375 31C25.9375 31.5523 25.4898 32 24.9375 32H14.9375C14.3852 32 13.9375 31.5523 13.9375 31Z" fill="#9063CD"/>
<path fill-rule="evenodd" clip-rule="evenodd" d="M4 15C4 12.2277 6.22772 10 9 10C9.26522 10 9.51957 10.1054 9.70711 10.2929L21.7071 22.2929C21.8946 22.4804 22 22.7348 22 23V27C22 27.5523 21.5523 28 21 28H17C16.7348 28 16.4804 27.8946 16.2929 27.7071L4.29289 15.7071C4.10536 15.5196 4 15.2652 4 15ZM6.0246 14.6104L17.4142 26H20V23.4142L8.61038 12.0246C7.25695 12.197 6.197 13.257 6.0246 14.6104Z" fill="#FF7F37"/>
</svg>
