<svg width="48" height="48" viewBox="0 0 48 48" fill="none" xmlns="http://www.w3.org/2000/svg">
<path fill-rule="evenodd" clip-rule="evenodd" d="M6 27C6 26.4477 6.44772 26 7 26H41C41.5523 26 42 26.4477 42 27C42 27.5523 41.5523 28 41 28H7C6.44772 28 6 27.5523 6 27Z" fill="#00CCEA"/>
<path fill-rule="evenodd" clip-rule="evenodd" d="M21.2428 32.0301C21.7786 32.164 22.1043 32.707 21.9704 33.2428L19.9704 41.2428C19.8364 41.7786 19.2935 42.1043 18.7577 41.9704C18.2219 41.8364 17.8961 41.2935 18.0301 40.7577L20.0301 32.7577C20.164 32.2219 20.707 31.8961 21.2428 32.0301ZM26.7577 32.0301C27.2935 31.8961 27.8364 32.2219 27.9704 32.7577L29.9704 40.7577C30.1043 41.2935 29.7786 41.8364 29.2428 41.9704C28.707 42.1043 28.164 41.7786 28.0301 41.2428L26.0301 33.2428C25.8961 32.707 26.2219 32.164 26.7577 32.0301Z" fill="#FDDA24"/>
<path fill-rule="evenodd" clip-rule="evenodd" d="M14 41C14 40.4477 14.4477 40 15 40H33C33.5523 40 34 40.4477 34 41C34 41.5523 33.5523 42 33 42H15C14.4477 42 14 41.5523 14 41Z" fill="#F5B6CD"/>
<path fill-rule="evenodd" clip-rule="evenodd" d="M7 9C7.55228 9 8 9.44772 8 10V30C8 31.1077 8.89228 32 10 32H29.78C30.3323 32 30.78 32.4477 30.78 33C30.78 33.5523 30.3323 34 29.78 34H10C7.78772 34 6 32.2123 6 30V10C6 9.44772 6.44772 9 7 9Z" fill="#FF7F37"/>
<path fill-rule="evenodd" clip-rule="evenodd" d="M41.0013 15.2188C41.5535 15.2188 42.0013 15.6665 42.0013 16.2187V29.9987C42.0013 32.211 40.2135 33.9987 38.0013 33.9987H29.7813C29.229 33.9987 28.7812 33.551 28.7812 32.9987C28.7812 32.4465 29.229 31.9987 29.7813 31.9987H38.0013C39.109 31.9987 40.0013 31.1065 40.0013 29.9987V16.2187C40.0013 15.6665 40.449 15.2188 41.0013 15.2188Z" fill="#00C389"/>
<path fill-rule="evenodd" clip-rule="evenodd" d="M10 8C8.89228 8 8 8.89228 8 10C8 10.5523 7.55228 11 7 11C6.44772 11 6 10.5523 6 10C6 7.78772 7.78772 6 10 6H38C40.2123 6 42 7.78772 42 10V16.22C42 16.7723 41.5523 17.22 41 17.22C40.4477 17.22 40 16.7723 40 16.22V10C40 8.89228 39.1077 8 38 8H10Z" fill="#9063CD"/>
<path fill-rule="evenodd" clip-rule="evenodd" d="M22 11C22 10.4477 22.4477 10 23 10H25C25.5523 10 26 10.4477 26 11C26 11.5523 25.5523 12 25 12H23C22.4477 12 22 11.5523 22 11Z" fill="#00C389"/>
</svg>
