<svg width="48" height="48" viewBox="0 0 48 48" fill="none" xmlns="http://www.w3.org/2000/svg">
<path fill-rule="evenodd" clip-rule="evenodd" d="M22 11C22 10.4477 22.4477 10 23 10H27C27.5523 10 28 10.4477 28 11C28 11.5523 27.5523 12 27 12H23C22.4477 12 22 11.5523 22 11Z" fill="#00C389"/>
<path fill-rule="evenodd" clip-rule="evenodd" d="M25 34C24.4477 34 24 34.4477 24 35C24 35.5523 24.4477 36 25 36C25.5523 36 26 35.5523 26 35C26 34.4477 25.5523 34 25 34ZM22 35C22 33.3431 23.3431 32 25 32C26.6569 32 28 33.3431 28 35C28 36.6569 26.6569 38 25 38C23.3431 38 22 36.6569 22 35Z" fill="#9063CD"/>
<path fill-rule="evenodd" clip-rule="evenodd" d="M18 7C18 6.44772 18.4477 6 19 6H32C34.2123 6 36 7.78772 36 10V22C36 22.5523 35.5523 23 35 23C34.4477 23 34 22.5523 34 22V10C34 8.89228 33.1077 8 32 8H19C18.4477 8 18 7.55228 18 7Z" fill="#FDDA24"/>
<path fill-rule="evenodd" clip-rule="evenodd" d="M35 21C35.5523 21 36 21.4477 36 22V38C36 40.2123 34.2123 42 32 42H24C23.4477 42 23 41.5523 23 41C23 40.4477 23.4477 40 24 40H32C33.1077 40 34 39.1077 34 38V22C34 21.4477 34.4477 21 35 21Z" fill="#FF7F37"/>
<path fill-rule="evenodd" clip-rule="evenodd" d="M15 22C15.5523 22 16 22.4477 16 23V38C16 39.1077 16.8923 40 18 40H24C24.5523 40 25 40.4477 25 41C25 41.5523 24.5523 42 24 42H18C15.7877 42 14 40.2123 14 38V23C14 22.4477 14.4477 22 15 22Z" fill="#00CCEA"/>
<path fill-rule="evenodd" clip-rule="evenodd" d="M14 10C14 7.78772 15.7877 6 18 6H19C19.5523 6 20 6.44772 20 7C20 7.55228 19.5523 8 19 8H18C16.8923 8 16 8.89228 16 10V23C16 23.5523 15.5523 24 15 24C14.4477 24 14 23.5523 14 23V10Z" fill="#F5B6CD"/>
</svg>
