<svg width="48" height="48" viewBox="0 0 48 48" fill="none" xmlns="http://www.w3.org/2000/svg">
<path fill-rule="evenodd" clip-rule="evenodd" d="M16 7C16 6.44772 16.4477 6 17 6H33C33.5523 6 34 6.44772 34 7V25C34 25.5523 33.5523 26 33 26C32.4477 26 32 25.5523 32 25V8H17C16.4477 8 16 7.55228 16 7Z" fill="#F5B6CD"/>
<path fill-rule="evenodd" clip-rule="evenodd" d="M17.7071 6.29289C18.0976 6.68342 18.0976 7.31658 17.7071 7.70711L10 15.4142V39C10 39.5523 9.55228 40 9 40C8.44772 40 8 39.5523 8 39V15C8 14.7348 8.10536 14.4804 8.29289 14.2929L16.2929 6.29289C16.6834 5.90237 17.3166 5.90237 17.7071 6.29289Z" fill="#00C389"/>
<path fill-rule="evenodd" clip-rule="evenodd" d="M8 39C8 38.4477 8.44772 38 9 38H25C25.5523 38 26 38.4477 26 39C26 39.5523 25.5523 40 25 40H9C8.44772 40 8 39.5523 8 39Z" fill="#FDDA24"/>
<path fill-rule="evenodd" clip-rule="evenodd" d="M17 6C17.5523 6 18 6.44772 18 7V15C18 15.5523 17.5523 16 17 16H9C8.44772 16 8 15.5523 8 15C8 14.4477 8.44772 14 9 14H16V7C16 6.44772 16.4477 6 17 6Z" fill="#00CCEA"/>
<path fill-rule="evenodd" clip-rule="evenodd" d="M36.1757 38.1757C36.5662 37.7852 37.1994 37.7852 37.5899 38.1757L41.7099 42.2957C42.1004 42.6862 42.1004 43.3194 41.7099 43.7099C41.3194 44.1004 40.6862 44.1004 40.2957 43.7099L36.1757 39.5899C35.7852 39.1994 35.7852 38.5662 36.1757 38.1757Z" fill="#9063CD"/>
<path fill-rule="evenodd" clip-rule="evenodd" d="M31 26C27.134 26 24 29.134 24 33C24 36.866 27.134 40 31 40C34.866 40 38 36.866 38 33C38 29.134 34.866 26 31 26ZM22 33C22 28.0294 26.0294 24 31 24C35.9706 24 40 28.0294 40 33C40 37.9706 35.9706 42 31 42C26.0294 42 22 37.9706 22 33Z" fill="#FF7F37"/>
<path fill-rule="evenodd" clip-rule="evenodd" d="M26 33C26 30.2477 28.2477 28 31 28C31.5523 28 32 28.4477 32 29C32 29.5523 31.5523 30 31 30C29.3523 30 28 31.3523 28 33C28 33.5523 27.5523 34 27 34C26.4477 34 26 33.5523 26 33Z" fill="#9063CD"/>
</svg>
