<svg width="48" height="48" viewBox="0 0 48 48" fill="none" xmlns="http://www.w3.org/2000/svg">
<path fill-rule="evenodd" clip-rule="evenodd" d="M38.6381 11.0625C38.6381 10.5102 39.0858 10.0625 39.6381 10.0625C42.0917 10.0625 43.9981 12.1124 43.9981 14.5825V33.4225C43.9981 35.8688 42.0953 37.9425 39.6381 37.9425H25.0781C24.5258 37.9425 24.0781 37.4948 24.0781 36.9425C24.0781 36.3902 24.5258 35.9425 25.0781 35.9425H39.6381C40.901 35.9425 41.9981 34.8562 41.9981 33.4225V14.5825C41.9981 13.1326 40.9046 12.0625 39.6381 12.0625C39.0858 12.0625 38.6381 11.6148 38.6381 11.0625Z" fill="#FF7F37"/>
<path fill-rule="evenodd" clip-rule="evenodd" d="M5 20C5.55228 20 6 20.4477 6 21V33.42C6 34.8699 7.09355 35.94 8.36 35.94H25.08C25.6323 35.94 26.08 36.3877 26.08 36.94C26.08 37.4923 25.6323 37.94 25.08 37.94H8.36C5.90645 37.94 4 35.8901 4 33.42V21C4 20.4477 4.44772 20 5 20Z" fill="#F5B6CD"/>
<path fill-rule="evenodd" clip-rule="evenodd" d="M4 14.5825C4 12.1362 5.90284 10.0625 8.36 10.0625H39.64C40.1923 10.0625 40.64 10.5102 40.64 11.0625C40.64 11.6148 40.1923 12.0625 39.64 12.0625H8.36C7.09716 12.0625 6 13.1488 6 14.5825V21.0025C6 21.5548 5.55228 22.0025 5 22.0025C4.44772 22.0025 4 21.5548 4 21.0025V14.5825Z" fill="#FDDA24"/>
<path fill-rule="evenodd" clip-rule="evenodd" d="M26 19C26 18.4477 26.4477 18 27 18H37C37.5523 18 38 18.4477 38 19C38 19.5523 37.5523 20 37 20H27C26.4477 20 26 19.5523 26 19ZM26 25C26 24.4477 26.4477 24 27 24H37C37.5523 24 38 24.4477 38 25C38 25.5523 37.5523 26 37 26H27C26.4477 26 26 25.5523 26 25ZM26 31C26 30.4477 26.4477 30 27 30H33C33.5523 30 34 30.4477 34 31C34 31.5523 33.5523 32 33 32H27C26.4477 32 26 31.5523 26 31Z" fill="#9063CD"/>
<path fill-rule="evenodd" clip-rule="evenodd" d="M11.6415 22.9653C12.0397 22.7238 12.5519 22.7892 12.8767 23.123C13.4081 23.6692 14.1495 24.0003 15 24.0003C15.8505 24.0003 16.5919 23.6692 17.1233 23.123C17.4481 22.7892 17.9603 22.7238 18.3585 22.9653C20.4939 24.2601 22 26.7026 22 29.0003V31.0003C22 31.5526 21.5523 32.0003 21 32.0003H9C8.44772 32.0003 8 31.5526 8 31.0003V29.0003C8 26.7026 9.50614 24.2601 11.6415 22.9653ZM12.0984 25.0813C10.8074 26.1136 10 27.6854 10 29.0003V30.0003H20V29.0003C20 27.6854 19.1925 26.1136 17.9016 25.0813C17.0823 25.6683 16.0808 26.0003 15 26.0003C13.9192 26.0003 12.9177 25.6683 12.0984 25.0813Z" fill="#00CCEA"/>
<path fill-rule="evenodd" clip-rule="evenodd" d="M15.2972 18.0148C14.8068 17.9659 14.3121 18.0387 13.8565 18.2265C13.401 18.4143 12.9987 18.7114 12.6853 19.0916C12.3718 19.4718 12.1569 19.9233 12.0593 20.4063C11.9618 20.8893 11.9848 21.3888 12.1262 21.8608C12.2675 22.3328 12.523 22.7628 12.87 23.1126L12.8768 23.1194L12.8767 23.1195C13.4081 23.6656 14.1495 23.9968 15 23.9968C15.8505 23.9968 16.5919 23.6656 17.1233 23.1195L17.1328 23.1096L17.1329 23.1097C17.6694 22.5732 17.9999 21.8261 18 20.9971C17.9995 20.5045 17.8778 20.0197 17.6455 19.5853C17.4131 19.1508 17.0773 18.7802 16.6678 18.5063C16.2582 18.2324 15.7875 18.0636 15.2972 18.0148ZM13.0942 16.3775C13.8534 16.0644 14.6781 15.9432 15.4953 16.0246C16.3124 16.1059 17.097 16.3873 17.7796 16.8438C18.4622 17.3004 19.0219 17.918 19.4092 18.6422C19.7964 19.3664 19.9993 20.1748 20 20.996V20.9968C20 22.3652 19.4526 23.6159 18.552 24.5191C17.6437 25.4499 16.3871 25.9968 15 25.9968C13.6122 25.9968 12.355 25.4493 11.4466 24.5176C10.87 23.9351 10.4455 23.2199 10.2103 22.4347C9.97462 21.648 9.93637 20.8154 10.0989 20.0105C10.2614 19.2055 10.6197 18.4529 11.1421 17.8193C11.6645 17.1857 12.335 16.6905 13.0942 16.3775Z" fill="#00C389"/>
</svg>
