<svg width="48" height="48" viewBox="0 0 48 48" fill="none" xmlns="http://www.w3.org/2000/svg">
<path fill-rule="evenodd" clip-rule="evenodd" d="M26.1565 8.21857C19.6697 6.87018 14 11.761 14 17.9995C14 20.6754 15.036 23.089 16.7417 24.8673C17.124 25.2658 17.1108 25.8989 16.7122 26.2812C16.3137 26.6635 15.6806 26.6503 15.2983 26.2517C13.244 24.11 12 21.2036 12 17.9995C12 10.518 18.8103 4.64881 26.5635 6.26043C27.1042 6.37283 27.4515 6.90229 27.3391 7.44301C27.2267 7.98374 26.6972 8.33097 26.1565 8.21857Z" fill="#00C389"/>
<path fill-rule="evenodd" clip-rule="evenodd" d="M32.9762 24.445C33.3927 24.8077 33.4364 25.4394 33.0737 25.8559C32.7561 26.2207 32.4402 26.5673 32.1558 26.8795C31.9894 27.0621 31.8337 27.233 31.6948 27.3887C31.2978 27.8337 30.987 28.2092 30.7409 28.5886C30.2802 29.2986 29.9995 30.09 29.9995 31.4592V32.9992C29.9995 33.5515 29.5518 33.9992 28.9995 33.9992H18.9995C18.4472 33.9992 17.9995 33.5515 17.9995 32.9992V31.4392C17.9995 30.1173 17.7797 29.3586 17.3967 28.7047C17.0114 28.0469 16.4442 27.4527 15.5523 26.5182C15.4695 26.4315 15.3839 26.3418 15.2954 26.2489C14.9145 25.849 14.9299 25.216 15.3299 24.8351C15.7298 24.4542 16.3628 24.4696 16.7437 24.8696C16.8416 24.9724 16.9385 25.0737 17.0341 25.1735C17.8729 26.05 18.6117 26.8219 19.1224 27.6938C19.7293 28.7299 19.9995 29.8611 19.9995 31.4392V31.9992H27.9995V31.4592C27.9995 29.7485 28.3689 28.5698 29.0632 27.4999C29.3945 26.9892 29.7875 26.5223 30.2024 26.0573C30.3715 25.8677 30.5384 25.6847 30.709 25.4977C30.9777 25.2031 31.2555 24.8985 31.5653 24.5426C31.928 24.126 32.5597 24.0824 32.9762 24.445Z" fill="#F5B6CD"/>
<path fill-rule="evenodd" clip-rule="evenodd" d="M25.3803 7.03618C25.492 6.49531 26.021 6.14743 26.5619 6.25916C31.2259 7.22263 34.9088 11.042 35.7824 15.6939L35.783 15.6972C36.5003 19.5879 35.3461 23.2114 33.0779 25.8503C32.718 26.2691 32.0866 26.3168 31.6678 25.9569C31.2489 25.5969 31.2012 24.9655 31.5612 24.5467C33.4527 22.346 34.4185 19.3301 33.8165 16.0615C33.0895 12.1941 30.0127 9.01423 26.1573 8.2178C25.6164 8.10608 25.2685 7.57704 25.3803 7.03618Z" fill="#FDDA24"/>
<path fill-rule="evenodd" clip-rule="evenodd" d="M24 12C20.6923 12 18 14.6923 18 18C18 18.5523 17.5523 19 17 19C16.4477 19 16 18.5523 16 18C16 13.5877 19.5877 10 24 10C24.5523 10 25 10.4477 25 11C25 11.5523 24.5523 12 24 12Z" fill="#FF7F37"/>
<path fill-rule="evenodd" clip-rule="evenodd" d="M18 37C18 36.4477 18.4477 36 19 36H29C29.5523 36 30 36.4477 30 37C30 37.5523 29.5523 38 29 38H19C18.4477 38 18 37.5523 18 37Z" fill="#9063CD"/>
<path fill-rule="evenodd" clip-rule="evenodd" d="M18 41C18 40.4477 18.4477 40 19 40H29C29.5523 40 30 40.4477 30 41C30 41.5523 29.5523 42 29 42H19C18.4477 42 18 41.5523 18 41Z" fill="#00CCEA"/>
</svg>
