<svg width="48" height="48" viewBox="0 0 48 48" fill="none" xmlns="http://www.w3.org/2000/svg">
<path fill-rule="evenodd" clip-rule="evenodd" d="M7.08869 22.0032C7.10079 22.118 7.11773 22.2317 7.13225 22.3462C7.15198 22.4979 7.17146 22.65 7.19566 22.8006C7.21671 22.9347 7.24224 23.0677 7.26717 23.2012C7.291 23.3273 7.31436 23.4532 7.34134 23.5785C7.35368 23.6375 7.36288 23.6974 7.37607 23.7563C7.39398 23.8351 7.41733 23.9115 7.43633 23.99C7.47069 24.1302 7.50675 24.2699 7.54462 24.4089C7.58479 24.5567 7.62569 24.7045 7.67058 24.8508C7.70059 24.9493 7.73362 25.0461 7.76569 25.1437C9.10649 29.2501 12.1194 32.6093 16.0911 34.3857C16.1078 34.3943 16.1223 34.4057 16.1396 34.4134C16.2154 34.4469 16.2923 34.4755 16.3683 34.5078C16.3907 34.5172 16.4131 34.5261 16.4356 34.5356C16.4664 34.5484 16.4973 34.561 16.5285 34.5739C16.5964 34.6018 16.6621 34.6339 16.7306 34.6609C16.7399 34.6646 16.7493 34.6656 16.7586 34.669C16.8625 34.7099 16.9671 34.7485 17.0716 34.7867C17.0913 34.7941 17.1112 34.8007 17.131 34.8076C17.3511 34.8877 17.5729 34.9636 17.7961 35.0334C17.8028 35.0353 17.8094 35.0373 17.8163 35.0393C19.0319 35.4163 20.287 35.6416 21.5707 35.7062C21.8333 35.7196 22.0978 35.7265 22.3634 35.7265C22.6747 35.7265 22.983 35.7142 23.2899 35.696C23.3737 35.6908 23.4573 35.6833 23.5413 35.6768C23.776 35.6587 24.0096 35.636 24.2413 35.6077C24.3227 35.5976 24.4043 35.5876 24.4857 35.5763C24.76 35.5382 25.0326 35.4937 25.3022 35.4413C25.3325 35.4354 25.3628 35.431 25.3931 35.425C25.6975 35.3637 25.9983 35.2928 26.296 35.2142C26.3683 35.1949 26.4396 35.1729 26.5117 35.1528C26.7264 35.0923 26.9393 35.0282 27.1501 34.9588C27.2579 34.9237 27.3655 34.8872 27.4727 34.8495C27.646 34.7883 27.8174 34.7227 27.9879 34.6553C28.15 34.5916 28.3111 34.5259 28.4711 34.4567C28.6589 34.3752 28.8461 34.2922 29.0296 34.2031C29.0889 34.1747 29.1493 34.1485 29.208 34.1195C29.212 34.1173 29.2162 34.1171 29.2197 34.1151C29.3307 34.0598 29.4355 33.9968 29.5445 33.9392C29.619 33.8995 29.6938 33.8601 29.7675 33.8193C29.8652 33.7655 29.9658 33.7172 30.0624 33.6611C30.0679 33.6579 30.0722 33.6533 30.0776 33.65C30.1605 33.6017 30.2406 33.5496 30.3224 33.5C30.3259 33.4977 30.3293 33.4953 30.3329 33.4931C30.7415 33.2447 31.1349 32.9774 31.5151 32.6946C31.5302 32.6836 31.5457 32.6729 31.5608 32.6616C31.746 32.5227 31.927 32.3799 32.1054 32.2335C32.1278 32.215 32.15 32.196 32.1721 32.1773C32.6994 31.7391 33.1943 31.2678 33.6552 30.7668C33.6962 30.7227 33.7371 30.6785 33.7773 30.6337C33.9131 30.4827 34.046 30.3301 34.1756 30.1743C34.2286 30.1104 34.2796 30.0451 34.3316 29.9802C34.5222 29.7429 34.7057 29.5004 34.882 29.2524C34.965 29.1357 35.0486 29.0201 35.1285 28.9014C35.2064 28.7847 35.2808 28.6659 35.3556 28.5472C35.4469 28.4031 35.5357 28.2574 35.6222 28.1099C35.6828 28.0066 35.7433 27.9035 35.8013 27.7986C35.93 27.5671 36.0534 27.3324 36.1704 27.0936C36.1823 27.0694 36.1956 27.0458 36.2075 27.0216C36.3389 26.7495 36.4597 26.4716 36.5752 26.1909C36.6046 26.1197 36.6318 26.0478 36.66 25.9763C36.7489 25.75 36.8329 25.5214 36.9113 25.29C36.9344 25.2224 36.9581 25.1552 36.9802 25.0873C37.1694 24.5033 37.3245 23.9043 37.4432 23.2921C37.4593 23.2086 37.4732 23.1247 37.488 23.0407C37.525 22.8312 37.5579 22.6204 37.5864 22.4079C37.5881 22.3981 37.594 22.3905 37.5953 22.3804C37.5998 22.345 37.6013 22.3086 37.6059 22.2732C37.6137 22.2095 37.6207 22.1457 37.628 22.0818C37.647 21.9116 37.6613 21.7401 37.675 21.5684C37.6821 21.4725 37.691 21.3772 37.6967 21.2813C37.6983 21.2551 37.7013 21.2294 37.7025 21.2035C37.7034 21.1886 37.7056 21.1738 37.7064 21.1589C37.7064 21.1581 37.7062 21.1571 37.7062 21.1559C37.7197 20.8932 37.7267 20.6291 37.7267 20.363C37.7267 20.0808 37.7177 19.8011 37.7025 19.5227C37.6965 19.4054 37.6849 19.2897 37.6758 19.1731C37.6639 19.018 37.6528 18.8627 37.6361 18.7088C37.6195 18.552 37.598 18.3966 37.5765 18.2412C37.5619 18.1364 37.548 18.0316 37.5317 17.9276C37.5017 17.7388 37.4673 17.5512 37.4305 17.3641C37.4193 17.307 37.408 17.2502 37.396 17.1933C36.752 14.1002 35.1712 11.2928 32.8229 9.11606C32.7106 9.01127 32.5978 8.90649 32.4828 8.80533C32.4101 8.74193 32.3356 8.68021 32.2618 8.61814C32.1087 8.48879 31.9541 8.36235 31.7968 8.23953C31.7677 8.21691 31.7407 8.19258 31.7113 8.1702C31.7029 8.16379 31.6934 8.15992 31.6847 8.15387C29.652 6.59672 27.2831 5.58201 24.7607 5.18815C24.7365 5.18428 24.7126 5.17944 24.6883 5.17581C24.4791 5.14411 24.2688 5.11858 24.058 5.09559C24.0102 5.09027 23.9629 5.08276 23.9147 5.07792C23.717 5.05832 23.5182 5.04501 23.3189 5.03267C23.259 5.02892 23.1996 5.02275 23.1393 5.0196C22.8816 5.00678 22.6229 5 22.3634 5C21.956 5 21.5534 5.02069 21.154 5.05191C21.099 5.05627 21.0445 5.05953 20.9898 5.06474C20.5854 5.10055 20.1859 5.15258 19.7909 5.21937C19.7649 5.22397 19.7388 5.22881 19.7127 5.23353C18.8647 5.38175 18.0402 5.5981 17.2457 5.87967C17.2424 5.88076 17.2394 5.88185 17.2364 5.8827C16.8547 6.01846 16.4802 6.16983 16.113 6.33403C16.0587 6.35822 16.0048 6.38279 15.9506 6.40759C15.6441 6.54904 15.3409 6.69666 15.0455 6.85723C15.0294 6.86509 15.0129 6.86933 14.9971 6.87768C14.9589 6.89861 14.9234 6.92269 14.8856 6.94374C14.8581 6.95923 14.8317 6.97641 14.8041 6.99202C14.7193 7.04006 14.6367 7.09149 14.5528 7.14097C14.4861 7.18066 14.4186 7.21902 14.3526 7.25968C14.1901 7.35902 14.0299 7.46041 13.8721 7.56532C13.7801 7.62655 13.6898 7.69007 13.599 7.75323C13.3502 7.92614 13.108 8.10571 12.8715 8.29181C12.8172 8.33452 12.7591 8.3713 12.7052 8.41474C12.6891 8.42793 12.677 8.4439 12.6618 8.45782C12.451 8.62964 12.2464 8.80739 12.0461 8.98961C12.0416 8.99361 12.037 8.99772 12.0324 9.00195C11.4881 9.49721 10.9817 10.0278 10.5171 10.5913C10.5149 10.5936 10.5131 10.596 10.5111 10.5984C10.3662 10.7744 10.2257 10.9531 10.0891 11.1352C10.0571 11.1775 10.0263 11.2206 9.99499 11.2632C9.73133 11.6214 9.48086 11.9886 9.24975 12.3678C9.24225 12.3804 9.23402 12.3921 9.2264 12.4046C9.14436 12.5401 9.06716 12.6784 8.98936 12.8165C8.9147 12.9476 8.8421 13.0797 8.7712 13.2132C8.70816 13.333 8.64584 13.4528 8.58619 13.5743C8.48685 13.775 8.39259 13.9787 8.30208 14.1841C8.27449 14.2467 8.24424 14.3077 8.21762 14.3706C8.09953 14.6482 7.99159 14.931 7.88983 15.2164C7.86503 15.2858 7.84252 15.3558 7.81869 15.4257C7.7381 15.6628 7.66296 15.9022 7.59387 16.1442C7.57487 16.2109 7.55515 16.2771 7.537 16.3439C7.37316 16.9486 7.24503 17.5675 7.15536 18.1992C7.14472 18.2736 7.13625 18.3482 7.12681 18.4229C7.0962 18.6659 7.07115 18.9105 7.05203 19.1569C7.04538 19.2421 7.03787 19.327 7.03243 19.4124C7.01331 19.7272 7 20.0436 7 20.363C7 20.64 7.00847 20.9151 7.02287 21.1886C7.02759 21.2766 7.0369 21.364 7.04295 21.4518C7.0559 21.6363 7.06933 21.8207 7.08869 22.0032ZM9.10891 19.162C9.11859 19.0554 9.12948 18.9494 9.1417 18.8434C9.18369 18.4754 9.23705 18.1106 9.30856 17.7522C9.31642 17.7131 9.32332 17.6739 9.33155 17.6347C9.40766 17.2713 9.50276 16.9147 9.60779 16.5628C9.63937 16.4575 9.67229 16.3531 9.70629 16.2488C9.81736 15.9074 9.938 15.5703 10.0755 15.2417C10.0851 15.2191 10.0928 15.1953 10.1021 15.1728C10.2578 14.8071 10.4319 14.4513 10.6181 14.1032C10.6495 14.0448 10.6819 13.9872 10.7139 13.9291C11.1122 13.2108 11.5711 12.5306 12.0906 11.9011C12.0924 11.8991 12.0942 11.8968 12.096 11.8945C12.9042 10.9168 13.8494 10.0567 14.9009 9.34233C14.9144 9.33313 14.9278 9.32381 14.9411 9.31486C15.2748 9.08968 15.6202 8.88095 15.9742 8.68626C16.0675 8.63532 16.1644 8.59176 16.2589 8.543C16.5139 8.41075 16.7722 8.2837 17.0367 8.16766C17.1991 8.09712 17.3641 8.03432 17.5293 7.97007C17.7349 7.88948 17.942 7.81192 18.1526 7.7415C18.3404 7.67882 18.53 7.62171 18.7205 7.56726C18.9235 7.5093 19.1288 7.45703 19.3357 7.40875C19.5259 7.36422 19.7164 7.32078 19.9084 7.28448C20.1459 7.24007 20.3867 7.20607 20.6284 7.17437C20.7913 7.15295 20.9537 7.1267 21.1176 7.11133C21.5282 7.07273 21.9429 7.04792 22.3634 7.04792C22.8149 7.04792 23.2611 7.07164 23.7011 7.11581C23.8045 7.12609 23.905 7.14787 24.0078 7.1607C24.3475 7.20281 24.6864 7.24794 25.0181 7.31521C25.0991 7.33155 25.1775 7.3566 25.2581 7.3745C25.61 7.45291 25.9599 7.53737 26.3008 7.64312C26.3469 7.65728 26.3911 7.67652 26.4372 7.69128C26.8098 7.81119 27.1775 7.94236 27.5348 8.09385C27.5503 8.10026 27.5648 8.10837 27.5803 8.1149C28.7588 8.61887 29.8517 9.28655 30.8274 10.092C30.8294 10.0935 30.8312 10.0953 30.833 10.0969C33.1234 11.9898 34.7708 14.6335 35.3981 17.6469C35.4033 17.6723 35.4084 17.6975 35.4136 17.7229C35.4953 18.1281 35.5584 18.5398 35.6026 18.9572C35.6071 19.002 35.6098 19.0476 35.6141 19.0927C35.6538 19.5112 35.6786 19.9343 35.6786 20.363C35.6786 20.7663 35.653 21.1638 35.6181 21.5581C35.6157 21.5829 35.6138 21.6081 35.6117 21.6329C35.6046 21.7041 35.5986 21.7752 35.5907 21.8461C35.549 22.2204 35.4932 22.5905 35.4208 22.9547C35.4035 23.0429 35.3818 23.1298 35.3624 23.2173C35.2939 23.5299 35.2143 23.8379 35.1243 24.1417C35.0983 24.2291 35.075 24.3173 35.0473 24.4039C34.9326 24.7637 34.8029 25.117 34.659 25.4629C34.6268 25.5399 34.5913 25.615 34.558 25.6912C34.4259 25.9925 34.2838 26.2883 34.1303 26.5774C34.0971 26.6402 34.0658 26.7043 34.0315 26.7664C33.8403 27.1132 33.6359 27.4517 33.4158 27.7787C33.3991 27.8035 33.3811 27.8271 33.3646 27.8516C33.1446 28.1738 32.9111 28.4862 32.6646 28.7874C32.6475 28.808 32.6313 28.8293 32.6142 28.8498C32.08 29.494 31.4865 30.0875 30.8421 30.6215C30.8336 30.6284 30.825 30.6354 30.8167 30.6424C30.1767 31.1696 29.4858 31.6368 28.754 32.0389C28.7197 32.0578 28.6853 32.0765 28.6504 32.095C27.944 32.4751 27.199 32.791 26.4239 33.0401C26.3409 33.0667 26.257 33.0912 26.1734 33.116C25.8405 33.2156 25.5025 33.3038 25.1592 33.3774C25.1087 33.3883 25.059 33.4025 25.0084 33.4125C24.6328 33.4886 24.25 33.5443 23.8639 33.5879C23.7642 33.5991 23.6642 33.6084 23.5643 33.6173C23.1681 33.653 22.7685 33.6783 22.3634 33.6783C20.5432 33.6783 18.8083 33.3094 17.2267 32.6454C17.1959 32.6326 17.1661 32.6192 17.1354 32.6063C13.5947 31.0883 10.8409 28.0791 9.66745 24.372C9.65837 24.3428 9.64845 24.3141 9.63937 24.2846C9.51958 23.8975 9.41855 23.5026 9.33433 23.1014C9.32429 23.0544 9.31582 23.0071 9.3065 22.96C9.22834 22.5661 9.16554 22.167 9.12319 21.7616C9.11895 21.7205 9.1169 21.6789 9.1129 21.6377C9.07261 21.2179 9.04805 20.7933 9.04805 20.363C9.04805 19.9577 9.07358 19.5581 9.10891 19.162Z" fill="#FDDA24"/>
<path fill-rule="evenodd" clip-rule="evenodd" d="M25.0742 42.8952C25.0742 42.3296 25.5327 41.8711 26.0984 41.8711H30.5566C31.1222 41.8711 31.5808 42.3296 31.5808 42.8952C31.5808 43.4609 31.1222 43.9194 30.5566 43.9194H26.0984C25.5327 43.9194 25.0742 43.4609 25.0742 42.8952Z" fill="#59CBE8"/>
<path fill-rule="evenodd" clip-rule="evenodd" d="M13.1445 42.8952C13.1445 42.3296 13.6031 41.8711 14.1687 41.8711H19.2469C19.8125 41.8711 20.2711 42.3296 20.2711 42.8952C20.2711 43.4609 19.8125 43.9194 19.2469 43.9194H14.1687C13.6031 43.9194 13.1445 43.4609 13.1445 42.8952Z" fill="#00C389"/>
<path fill-rule="evenodd" clip-rule="evenodd" d="M22.364 37.7734C22.9296 37.7734 23.3881 38.232 23.3881 38.7976V42.8945C23.3881 43.4601 22.9296 43.9187 22.364 43.9187C21.7984 43.9187 21.3398 43.4601 21.3398 42.8945V38.7976C21.3398 38.232 21.7984 37.7734 22.364 37.7734Z" fill="#9063CD"/>
<path fill-rule="evenodd" clip-rule="evenodd" d="M18.2227 42.8952C18.2227 42.3296 18.6812 41.8711 19.2468 41.8711H26.0979C26.6636 41.8711 27.1221 42.3296 27.1221 42.8952C27.1221 43.4609 26.6636 43.9194 26.0979 43.9194H19.2468C18.6812 43.9194 18.2227 43.4609 18.2227 42.8952Z" fill="#FDDA24"/>
<path fill-rule="evenodd" clip-rule="evenodd" d="M36.7363 20.0834C37.3012 20.1122 37.7357 20.5936 37.7068 21.1585C37.4164 26.8428 34.0378 31.7081 29.2203 34.1146C28.7143 34.3674 28.0992 34.1621 27.8465 33.6561C27.5937 33.1501 27.799 32.535 28.305 32.2823C32.4846 30.1944 35.4098 25.9755 35.6612 21.0539C35.6901 20.4891 36.1714 20.0545 36.7363 20.0834Z" fill="#F5B6CD"/>
<path fill-rule="evenodd" clip-rule="evenodd" d="M30.4352 32.2604C30.7191 32.7496 30.5525 33.3763 30.0633 33.6602C27.7988 34.9739 25.1676 35.7257 22.3641 35.7257C20.1508 35.7257 18.0443 35.2571 16.1404 34.4125C15.6233 34.1832 15.3901 33.5781 15.6195 33.0611C15.8488 32.544 16.4539 32.3108 16.9709 32.5402C18.6184 33.271 20.4424 33.6775 22.3641 33.6775C24.7971 33.6775 27.0748 33.0259 29.0354 31.8885C29.5247 31.6046 30.1514 31.7711 30.4352 32.2604Z" fill="#FF7F41"/>
<path fill-rule="evenodd" clip-rule="evenodd" d="M8.15065 22.5331C8.70241 22.4087 9.25057 22.7551 9.37499 23.3069C10.3497 27.6294 13.43 31.1587 17.4825 32.7565C18.0087 32.964 18.267 33.5587 18.0596 34.0849C17.8521 34.6111 17.2573 34.8695 16.7311 34.662C12.0564 32.8188 8.50272 28.7503 7.37687 23.7575C7.25245 23.2057 7.59888 22.6575 8.15065 22.5331Z" fill="#59CBE8"/>
<path fill-rule="evenodd" clip-rule="evenodd" d="M16.3873 7.28654C16.6588 7.78271 16.4767 8.40507 15.9806 8.67663C11.8473 10.9388 9.04829 15.3259 9.04829 20.3653C9.04829 21.3774 9.16112 22.3621 9.37425 23.3077C9.49861 23.8595 9.15212 24.4076 8.60035 24.532C8.04857 24.6564 7.50045 24.3099 7.37608 23.7581C7.1299 22.6658 7 21.5301 7 20.3653C7 14.5478 10.2338 9.48694 14.9972 6.87986C15.4933 6.6083 16.1157 6.79037 16.3873 7.28654Z" fill="#9063CD"/>
<path fill-rule="evenodd" clip-rule="evenodd" d="M22.3623 7.04829C19.1902 7.04829 16.2798 8.15599 13.9927 10.0069C13.553 10.3627 12.9081 10.2947 12.5523 9.85507C12.1965 9.41539 12.2644 8.77051 12.7041 8.41469C15.3427 6.27939 18.7044 5 22.3623 5C26.5477 5 30.344 6.67501 33.114 9.38922C33.518 9.78509 33.5246 10.4335 33.1287 10.8375C32.7328 11.2415 32.0844 11.2481 31.6804 10.8522C29.2778 8.49798 25.9903 7.04829 22.3623 7.04829Z" fill="#00C389"/>
<path fill-rule="evenodd" clip-rule="evenodd" d="M30.2744 8.35754C30.6188 7.9089 31.2617 7.82444 31.7104 8.16889C35.3659 10.9755 37.7256 15.3931 37.7256 20.3619C37.7256 21.0452 37.6808 21.7187 37.5941 22.3792C37.5204 22.94 37.0061 23.3349 36.4453 23.2613C35.8845 23.1876 35.4896 22.6733 35.5632 22.1125C35.6384 21.54 35.6773 20.9556 35.6773 20.3619C35.6773 16.0567 33.6353 12.2292 30.463 9.79356C30.0144 9.44911 29.9299 8.80618 30.2744 8.35754Z" fill="#FDDA24"/>
<path fill-rule="evenodd" clip-rule="evenodd" d="M8.60465 32.675C9.00461 32.275 9.65306 32.275 10.053 32.675C12.1792 34.8011 14.7158 36.2611 17.4068 37.0576C17.9492 37.2181 18.2587 37.7879 18.0982 38.3303C17.9377 38.8726 17.3678 39.1822 16.8255 39.0216C13.8152 38.1307 10.9783 36.4969 8.60465 34.1233C8.2047 33.7234 8.2047 33.0749 8.60465 32.675Z" fill="#00C389"/>
<path fill-rule="evenodd" clip-rule="evenodd" d="M16.1322 37.7494C16.2927 37.207 16.8625 36.8975 17.4049 37.058C20.5381 37.9853 23.8818 38.0134 27.0279 37.1421C27.573 36.9911 28.1373 37.3107 28.2882 37.8558C28.4392 38.4009 28.1197 38.9651 27.5746 39.1161C24.0594 40.0896 20.3248 40.0583 16.8236 39.0221C16.2812 38.8615 15.9717 38.2917 16.1322 37.7494Z" fill="#F5B6CD"/>
<path fill-rule="evenodd" clip-rule="evenodd" d="M36.1242 32.675C36.5242 33.0749 36.5242 33.7234 36.1242 34.1233C33.6644 36.5832 30.707 38.2482 27.5751 39.1157C27.03 39.2666 26.4657 38.9471 26.3148 38.402C26.1638 37.8569 26.4833 37.2927 27.0284 37.1417C29.8284 36.3662 32.4726 34.8782 34.6759 32.675C35.0758 32.275 35.7243 32.275 36.1242 32.675Z" fill="#FDDA24"/>
<path fill-rule="evenodd" clip-rule="evenodd" d="M40.3439 24.5727C40.8868 24.7315 41.1982 25.3003 41.0394 25.8431C40.1525 28.8758 38.5128 31.7349 36.1233 34.1245C35.7234 34.5245 35.0749 34.5245 34.675 34.1245C34.275 33.7246 34.275 33.0761 34.6749 32.6762C36.8153 30.5357 38.2806 27.9792 39.0735 25.2682C39.2322 24.7253 39.801 24.4139 40.3439 24.5727Z" fill="#9063CD"/>
<path fill-rule="evenodd" clip-rule="evenodd" d="M39.9287 14.6629C40.4757 14.5189 41.0358 14.8456 41.1798 15.3926C42.0811 18.8168 42.034 22.4388 41.0386 25.8426C40.8799 26.3854 40.3111 26.6968 39.7682 26.5381C39.2253 26.3793 38.9139 25.8105 39.0727 25.2676C39.9634 22.2216 40.0057 18.9787 39.199 15.914C39.055 15.367 39.3817 14.8069 39.9287 14.6629Z" fill="#FF7F41"/>
<path fill-rule="evenodd" clip-rule="evenodd" d="M34.675 6.60465C35.0749 6.2047 35.7234 6.2047 36.1233 6.60465C38.6462 9.1275 40.3329 12.1735 41.1807 15.3945C41.3246 15.9415 40.9979 16.5017 40.4509 16.6456C39.9039 16.7896 39.3438 16.4629 39.1998 15.9159C38.4419 13.0361 36.9345 10.3126 34.675 8.05301C34.275 7.65306 34.275 7.00461 34.675 6.60465Z" fill="#59CBE8"/>
</svg>
