<svg width="48" height="48" viewBox="0 0 48 48" fill="none" xmlns="http://www.w3.org/2000/svg">
<path fill-rule="evenodd" clip-rule="evenodd" d="M14.9962 9C11.3071 9 8.1396 11.212 6.75318 14.3989C6.53286 14.9054 5.94371 15.1373 5.43728 14.917C4.93084 14.6967 4.69889 14.1075 4.9192 13.6011C6.61279 9.70804 10.4853 7 14.9962 7C19.3804 7 23.1424 9.57903 24.9 13.2921C25.1363 13.7913 24.9232 14.3875 24.424 14.6238C23.9249 14.8601 23.3286 14.647 23.0923 14.1479C21.65 11.101 18.572 9 14.9962 9Z" fill="#9063CD"/>
<path fill-rule="evenodd" clip-rule="evenodd" d="M6.24475 13.0858C6.74977 13.3094 6.97796 13.9 6.75443 14.405C6.27018 15.499 6 16.7213 6 18.0002C6 24.3355 9.58817 29.7953 13.7121 33.9782C14.0998 34.3715 14.0954 35.0046 13.7021 35.3924C13.3088 35.7801 12.6756 35.7756 12.2879 35.3823C8.01183 31.0452 4 25.105 4 18.0002C4 16.4392 4.32982 14.9415 4.92557 13.5955C5.14911 13.0905 5.73972 12.8623 6.24475 13.0858Z" fill="#00CCEA"/>
<path fill-rule="evenodd" clip-rule="evenodd" d="M12.297 33.9685C12.6897 33.5803 13.3229 33.5839 13.7112 33.9766C16.2519 36.5467 18.9465 38.5859 21.0108 39.9843C22.0415 40.6824 22.9113 41.2183 23.521 41.5783C23.7059 41.6875 23.8668 41.7804 24.0009 41.8568C24.0381 41.8357 24.0773 41.8133 24.1186 41.7896C24.5017 41.57 25.057 41.2414 25.7369 40.8102C27.0978 39.9471 28.9524 38.6763 30.9232 37.0486C31.3491 36.697 31.9794 36.7571 32.331 37.1829C32.6827 37.6087 32.6226 38.239 32.1968 38.5907C30.1476 40.2831 28.2222 41.6023 26.8081 42.4992C26.1005 42.9479 25.5195 43.2919 25.1133 43.5248C24.9101 43.6412 24.7505 43.73 24.6405 43.7902C24.5855 43.8204 24.5429 43.8434 24.5134 43.8592L24.4791 43.8775L24.4696 43.8826L24.4667 43.8841C24.4666 43.8842 24.4651 43.8849 24 42.9997C23.5334 43.8841 23.5332 43.8841 23.533 43.884L23.5311 43.883L23.5268 43.8807L23.5118 43.8727L23.4573 43.8433C23.4103 43.8179 23.3421 43.7806 23.2542 43.7317C23.0785 43.6338 22.8243 43.4896 22.504 43.3005C21.8637 42.9224 20.9585 42.3645 19.8892 41.6401C17.7535 40.1935 14.9481 38.0727 12.2888 35.3827C11.9006 34.99 11.9042 34.3568 12.297 33.9685ZM24 42.9997L23.533 43.884C23.8245 44.0377 24.175 44.0374 24.4667 43.8841L24 42.9997Z" fill="#FDDA24"/>
<path fill-rule="evenodd" clip-rule="evenodd" d="M42.8946 20.1323C43.4386 20.2273 43.8026 20.7453 43.7076 21.2894C42.4046 28.7503 36.8914 34.7053 32.2001 38.5877C31.7746 38.9399 31.1443 38.8804 30.7921 38.4549C30.44 38.0294 30.4995 37.3991 30.925 37.047C35.5137 33.2494 40.5605 27.6844 41.7374 20.9453C41.8325 20.4013 42.3505 20.0372 42.8946 20.1323Z" fill="#00C389"/>
<path fill-rule="evenodd" clip-rule="evenodd" d="M35.9782 8.39069C36.1941 7.88233 36.7811 7.6452 37.2895 7.86104C41.2259 9.53234 43.9987 13.4463 43.9987 18.0015C43.9987 19.1247 43.8927 20.223 43.7035 21.2953C43.6075 21.8392 43.0888 22.2023 42.5449 22.1063C42.001 22.0103 41.6379 21.4916 41.7339 20.9477C41.9047 19.98 41.9987 18.9983 41.9987 18.0015C41.9987 14.2767 39.7315 11.0707 36.5079 9.70198C35.9995 9.48614 35.7624 8.89906 35.9782 8.39069Z" fill="#FF7F37"/>
<path fill-rule="evenodd" clip-rule="evenodd" d="M33.0002 9C29.4244 9 26.3464 11.101 24.9041 14.1479C24.6678 14.647 24.0716 14.8601 23.5724 14.6238C23.0732 14.3875 22.8601 13.7913 23.0964 13.2921C24.8541 9.57903 28.616 7 33.0002 7C34.5162 7 35.9667 7.3077 37.2849 7.85692C37.7947 8.06934 38.0357 8.65481 37.8233 9.16462C37.6109 9.67442 37.0254 9.91549 36.5156 9.70308C35.4338 9.2523 34.2442 9 33.0002 9Z" fill="#F5B6CD"/>
</svg>
