<svg width="48" height="48" viewBox="0 0 48 48" fill="none" xmlns="http://www.w3.org/2000/svg">
<path fill-rule="evenodd" clip-rule="evenodd" d="M28.0001 13C28.0001 12.4477 28.4478 12 29.0001 12H37.0001C37.5524 12 38.0001 12.4477 38.0001 13V17C38.0001 17.5523 37.5524 18 37.0001 18C36.4478 18 36.0001 17.5523 36.0001 17V14H29.0001C28.4478 14 28.0001 13.5523 28.0001 13ZM37.5258 30.1493C37.8206 30.3316 38.0001 30.6534 38.0001 31V35C38.0001 35.5523 37.5524 36 37.0001 36H29.0001C28.5363 36 28.1334 35.6811 28.0268 35.2298C27.9203 34.7784 28.1381 34.313 28.5529 34.1056L36.5529 30.1056C36.8629 29.9506 37.231 29.9671 37.5258 30.1493ZM33.2362 34H36.0001V32.618L33.2362 34Z" fill="#00CCEA"/>
<path fill-rule="evenodd" clip-rule="evenodd" d="M26 9C26 8.44772 26.4477 8 27 8H41C41.5523 8 42 8.44772 42 9V39C42 39.5523 41.5523 40 41 40H27C26.4477 40 26 39.5523 26 39C26 38.4477 26.4477 38 27 38H40V10H27C26.4477 10 26 9.55228 26 9Z" fill="#00C389"/>
<path fill-rule="evenodd" clip-rule="evenodd" d="M14 11C14 10.4477 14.4477 10 15 10H19C19.5523 10 20 10.4477 20 11C20 11.5523 19.5523 12 19 12H15C14.4477 12 14 11.5523 14 11Z" fill="#F5B6CD"/>
<path fill-rule="evenodd" clip-rule="evenodd" d="M17 34C16.4477 34 16 34.4477 16 35C16 35.5523 16.4477 36 17 36C17.5523 36 18 35.5523 18 35C18 34.4477 17.5523 34 17 34ZM14 35C14 33.3431 15.3431 32 17 32C18.6569 32 20 33.3431 20 35C20 36.6569 18.6569 38 17 38C15.3431 38 14 36.6569 14 35Z" fill="#F5B6CD"/>
<path fill-rule="evenodd" clip-rule="evenodd" d="M31.1927 20.1819C30.5878 19.993 29.9465 19.9505 29.3219 20.0579C28.6973 20.1654 28.1071 20.4197 27.6001 20.8C27.1582 21.1314 26.5314 21.0418 26.2001 20.6C25.8687 20.1582 25.9582 19.5314 26.4001 19.2C27.1606 18.6296 28.0459 18.248 28.9828 18.0869C29.9198 17.9257 30.8816 17.9894 31.7891 18.2729C32.6965 18.5564 33.5237 19.0514 34.2023 19.7173C34.8809 20.3831 35.3915 21.2007 35.6922 22.1026C35.9928 23.0046 36.0748 23.965 35.9314 24.9049C35.7881 25.8447 35.4234 26.737 34.8675 27.5083C34.3116 28.2795 33.5804 28.9076 32.7341 29.3409C31.8879 29.7741 30.9508 30 30.0001 30C28.6508 30 27.4053 29.542 26.4062 28.8046C25.9619 28.4766 25.8675 27.8505 26.1955 27.4061C26.5235 26.9618 27.1496 26.8675 27.5939 27.1954C28.2748 27.698 29.1093 28 30.0001 28C30.6339 28 31.2586 27.8494 31.8228 27.5606C32.387 27.2718 32.8744 26.853 33.245 26.3388C33.6156 25.8247 33.8587 25.2298 33.9543 24.6032C34.0499 23.9767 33.9952 23.3364 33.7948 22.7351C33.5944 22.1338 33.2539 21.5888 32.8015 21.1449C32.3491 20.701 31.7977 20.3709 31.1927 20.1819Z" fill="#FF7F37"/>
<path fill-rule="evenodd" clip-rule="evenodd" d="M27 9C27.5523 9 28 9.44772 28 10V38C28 40.2123 26.2123 42 24 42H10C7.78772 42 6 40.2123 6 38C6 37.4477 6.44772 37 7 37C7.55228 37 8 37.4477 8 38C8 39.1077 8.89228 40 10 40H24C25.1077 40 26 39.1077 26 38V10C26 9.44772 26.4477 9 27 9Z" fill="#FDDA24"/>
<path fill-rule="evenodd" clip-rule="evenodd" d="M6 10C6 7.78772 7.78772 6 10 6H24C26.2123 6 28 7.78772 28 10C28 10.5523 27.5523 11 27 11C26.4477 11 26 10.5523 26 10C26 8.89228 25.1077 8 24 8H10C8.89228 8 8 8.89228 8 10V38C8 38.5523 7.55228 39 7 39C6.44772 39 6 38.5523 6 38V10Z" fill="#9063CD"/>
</svg>
