<svg width="48" height="48" viewBox="0 0 48 48" fill="none" xmlns="http://www.w3.org/2000/svg">
<path fill-rule="evenodd" clip-rule="evenodd" d="M29.7969 26C28.6923 26 27.7969 26.8954 27.7969 28C27.7969 29.1046 28.6923 30 29.7969 30C30.9014 30 31.7969 29.1046 31.7969 28C31.7969 26.8954 30.9014 26 29.7969 26ZM25.7969 28C25.7969 25.7909 27.5877 24 29.7969 24C32.006 24 33.7969 25.7909 33.7969 28C33.7969 30.2091 32.006 32 29.7969 32C27.5877 32 25.7969 30.2091 25.7969 28Z" fill="#F5B6CD"/>
<path fill-rule="evenodd" clip-rule="evenodd" d="M29.4089 11.2461C29.6991 9.26507 31.6062 8 33.397 8H42.997C43.5493 8 43.997 8.44772 43.997 9C43.997 9.55228 43.5493 10 42.997 10H33.397C32.3917 10 31.503 10.7296 31.387 11.5414L31.3837 11.5644L31.3834 11.5644L29.7834 21.1644C29.6926 21.7092 29.1774 22.0772 28.6326 21.9864C28.0879 21.8956 27.7198 21.3804 27.8106 20.8356L29.4089 11.2461Z" fill="#00CCEA"/>
<path fill-rule="evenodd" clip-rule="evenodd" d="M14.7969 8C10.9309 8 7.79688 11.134 7.79688 15C7.79688 18.866 10.9309 22 14.7969 22C18.6629 22 21.7969 18.866 21.7969 15C21.7969 11.134 18.6629 8 14.7969 8ZM5.79688 15C5.79688 10.0294 9.82631 6 14.7969 6C19.7674 6 23.7969 10.0294 23.7969 15C23.7969 19.9706 19.7674 24 14.7969 24C9.82631 24 5.79688 19.9706 5.79688 15Z" fill="#FF7F37"/>
<path fill-rule="evenodd" clip-rule="evenodd" d="M14.7969 12C13.14 12 11.7969 13.3431 11.7969 15C11.7969 16.6569 13.14 18 14.7969 18C16.4537 18 17.7969 16.6569 17.7969 15C17.7969 13.3431 16.4537 12 14.7969 12ZM9.79688 15C9.79688 12.2386 12.0355 10 14.7969 10C17.5583 10 19.7969 12.2386 19.7969 15C19.7969 17.7614 17.5583 20 14.7969 20C12.0355 20 9.79688 17.7614 9.79688 15Z" fill="#FDDA24"/>
<path fill-rule="evenodd" clip-rule="evenodd" d="M28.7969 22C25.9492 22 23.7969 24.1523 23.7969 27V35C23.7969 35.5523 23.3492 36 22.7969 36C22.2446 36 21.7969 35.5523 21.7969 35V27C21.7969 23.0477 24.8446 20 28.7969 20H42.9969C43.5492 20 43.9969 20.4477 43.9969 21C43.9969 21.5523 43.5492 22 42.9969 22H28.7969Z" fill="#00C389"/>
<path fill-rule="evenodd" clip-rule="evenodd" d="M21.7969 35C21.7969 34.4477 22.2446 34 22.7969 34H42.9969C43.5492 34 43.9969 34.4477 43.9969 35C43.9969 35.5523 43.5492 36 42.9969 36H35.9969V38C35.9969 40.1523 34.1492 42 31.9969 42H29.7969C27.6446 42 25.7969 40.1523 25.7969 38V36H22.7969C22.2446 36 21.7969 35.5523 21.7969 35ZM27.7969 36V38C27.7969 39.0477 28.7492 40 29.7969 40H31.9969C33.0446 40 33.9969 39.0477 33.9969 38V36H27.7969Z" fill="#9063CD"/>
</svg>
