<svg width="48" height="48" viewBox="0 0 48 48" fill="none" xmlns="http://www.w3.org/2000/svg">
<path fill-rule="evenodd" clip-rule="evenodd" d="M14 29C14 28.4477 14.4477 28 15 28H23C23.5523 28 24 28.4477 24 29V41C24 41.5523 23.5523 42 23 42C22.4477 42 22 41.5523 22 41V30H16V41C16 41.5523 15.5523 42 15 42C14.4477 42 14 41.5523 14 41V29Z" fill="#00C389"/>
<path fill-rule="evenodd" clip-rule="evenodd" d="M18.2929 8.29289C18.6834 7.90237 19.3166 7.90237 19.7071 8.29289L31.7071 20.2929C31.8946 20.4804 32 20.7348 32 21V23C32 23.5523 31.5523 24 31 24C30.4477 24 30 23.5523 30 23V21.4142L18.2929 9.70711C17.9024 9.31658 17.9024 8.68342 18.2929 8.29289Z" fill="#F5B6CD"/>
<path fill-rule="evenodd" clip-rule="evenodd" d="M19.7071 8.29289C20.0976 8.68342 20.0976 9.31658 19.7071 9.70711L8 21.4142V39C8 39.5523 7.55228 40 7 40C6.44772 40 6 39.5523 6 39V21C6 20.7348 6.10536 20.4804 6.29289 20.2929L18.2929 8.29289C18.6834 7.90237 19.3166 7.90237 19.7071 8.29289Z" fill="#00CCEA"/>
<path fill-rule="evenodd" clip-rule="evenodd" d="M7 38C7.55228 38 8 38.4477 8 39C8 39.3728 8.11989 39.6057 8.25711 39.7429C8.39433 39.8801 8.62725 40 9 40H29C29.3728 40 29.6057 39.8801 29.7429 39.7429C29.8801 39.6057 30 39.3728 30 39C30 38.4477 30.4477 38 31 38C31.5523 38 32 38.4477 32 39C32 39.8272 31.7199 40.5943 31.1571 41.1571C30.5943 41.7199 29.8272 42 29 42H9C8.17275 42 7.40567 41.7199 6.84289 41.1571C6.28011 40.5943 6 39.8272 6 39C6 38.4477 6.44772 38 7 38Z" fill="#9063CD"/>
<path fill-rule="evenodd" clip-rule="evenodd" d="M35 24C31.134 24 28 27.134 28 31C28 34.866 31.134 38 35 38C38.866 38 42 34.866 42 31C42 27.134 38.866 24 35 24ZM26 31C26 26.0294 30.0294 22 35 22C39.9706 22 44 26.0294 44 31C44 35.9706 39.9706 40 35 40C30.0294 40 26 35.9706 26 31Z" fill="#FF7F37"/>
<path fill-rule="evenodd" clip-rule="evenodd" d="M35 28C33.3431 28 32 29.3431 32 31C32 32.6569 33.3431 34 35 34C36.6569 34 38 32.6569 38 31C38 29.3431 36.6569 28 35 28ZM30 31C30 28.2386 32.2386 26 35 26C37.7614 26 40 28.2386 40 31C40 33.7614 37.7614 36 35 36C32.2386 36 30 33.7614 30 31Z" fill="#FDDA24"/>
</svg>
