<svg width="48" height="48" viewBox="0 0 48 48" fill="none" xmlns="http://www.w3.org/2000/svg">
<path fill-rule="evenodd" clip-rule="evenodd" d="M31.8944 13.1546C32.1414 13.6485 31.9412 14.2492 31.4472 14.4962C29.3674 15.5361 28 17.601 28 20.0018V32.0018H40V20.0018C40 17.601 38.6326 15.5361 36.5528 14.4962C36.0588 14.2492 35.8586 13.6485 36.1056 13.1546C36.3526 12.6606 36.9532 12.4604 37.4472 12.7074C40.1674 14.0674 42 16.8026 42 20.0018V33.0018C42 33.5541 41.5523 34.0018 41 34.0018H27C26.4477 34.0018 26 33.5541 26 33.0018V20.0018C26 16.8026 27.8326 14.0674 30.5528 12.7074C31.0468 12.4604 31.6474 12.6606 31.8944 13.1546Z" fill="#9063CD"/>
<path fill-rule="evenodd" clip-rule="evenodd" d="M15 8C11.134 8 8 11.134 8 15C8 18.866 11.134 22 15 22C18.866 22 22 18.866 22 15C22 11.134 18.866 8 15 8ZM6 15C6 10.0294 10.0294 6 15 6C19.9706 6 24 10.0294 24 15C24 19.9706 19.9706 24 15 24C10.0294 24 6 19.9706 6 15Z" fill="#FF7F37"/>
<path fill-rule="evenodd" clip-rule="evenodd" d="M15 12C13.3431 12 12 13.3431 12 15C12 16.6569 13.3431 18 15 18C16.6569 18 18 16.6569 18 15C18 13.3431 16.6569 12 15 12ZM10 15C10 12.2386 12.2386 10 15 10C17.7614 10 20 12.2386 20 15C20 17.7614 17.7614 20 15 20C12.2386 20 10 17.7614 10 15Z" fill="#FDDA24"/>
<path fill-rule="evenodd" clip-rule="evenodd" d="M24 9C24 8.44772 24.4477 8 25 8H27C27.2652 8 27.5196 8.10536 27.7071 8.29289L31.1071 11.6929C31.4976 12.0834 31.4976 12.7166 31.1071 13.1071C30.7166 13.4976 30.0834 13.4976 29.6929 13.1071L26.5858 10H25C24.4477 10 24 9.55228 24 9ZM40.2929 8.29289C40.4804 8.10536 40.7348 8 41 8H43C43.4455 8 43.8373 8.2947 43.9608 8.72272C44.0843 9.15075 43.9098 9.60887 43.5328 9.84623L38.1328 13.2462C37.702 13.5175 37.1361 13.4218 36.8185 13.0238C36.5008 12.6259 36.5329 12.0529 36.8929 11.6929L40.2929 8.29289Z" fill="#00C389"/>
<path fill-rule="evenodd" clip-rule="evenodd" d="M34 12C32.8954 12 32 12.8954 32 14C32 15.1046 32.8954 16 34 16C35.1046 16 36 15.1046 36 14C36 12.8954 35.1046 12 34 12ZM30 14C30 11.7909 31.7909 10 34 10C36.2091 10 38 11.7909 38 14C38 16.2091 36.2091 18 34 18C31.7909 18 30 16.2091 30 14Z" fill="#00C389"/>
<path fill-rule="evenodd" clip-rule="evenodd" d="M31 32C31.5523 32 32 32.4477 32 33V38C32 39.0477 32.9523 40 34 40C35.0477 40 36 39.0477 36 38V33C36 32.4477 36.4477 32 37 32C37.5523 32 38 32.4477 38 33V38C38 40.1523 36.1523 42 34 42C31.8477 42 30 40.1523 30 38V33C30 32.4477 30.4477 32 31 32Z" fill="#00CCEA"/>
<path fill-rule="evenodd" clip-rule="evenodd" d="M34 26C32.9523 26 32 26.9523 32 28V32H36V28C36 26.9523 35.0477 26 34 26ZM30 28C30 25.8477 31.8477 24 34 24C36.1523 24 38 25.8477 38 28V33C38 33.5523 37.5523 34 37 34H31C30.4477 34 30 33.5523 30 33V28Z" fill="#F5B6CD"/>
</svg>
