<svg width="48" height="48" viewBox="0 0 48 48" fill="none" xmlns="http://www.w3.org/2000/svg">
<path fill-rule="evenodd" clip-rule="evenodd" d="M7 20.3203C7.55228 20.3203 8 20.768 8 21.3203V29.0003C8 31.8976 9.66625 34.6236 12.5592 36.6659C15.4492 38.706 19.4923 40.0003 24 40.0003C25.1152 40.0003 26.2269 39.9233 27.2761 39.7707C27.8226 39.6912 28.3301 40.0698 28.4096 40.6164C28.4891 41.1629 28.1105 41.6704 27.5639 41.7499C26.4131 41.9173 25.2048 42.0003 24 42.0003C19.1277 42.0003 14.6708 40.6046 11.4058 38.2998C8.14375 35.997 6 32.723 6 29.0003V21.3203C6 20.768 6.44772 20.3203 7 20.3203Z" fill="#00C389"/>
<path fill-rule="evenodd" clip-rule="evenodd" d="M41.002 20.5391C41.5543 20.5391 42.002 20.9868 42.002 21.5391V28.9991C42.002 35.5359 35.5348 40.5985 27.5649 41.7488C27.0182 41.8277 26.5112 41.4485 26.4323 40.9019C26.3534 40.3553 26.7325 39.8482 27.2792 39.7693C34.8292 38.6796 40.002 34.0623 40.002 28.9991V21.5391C40.002 20.9868 40.4497 20.5391 41.002 20.5391Z" fill="#00CCEA"/>
<path fill-rule="evenodd" clip-rule="evenodd" d="M15 30.5C15.5523 30.5 16 30.9477 16 31.5V39C16 39.5523 15.5523 40 15 40C14.4477 40 14 39.5523 14 39V31.5C14 30.9477 14.4477 30.5 15 30.5Z" fill="#00C389"/>
<path fill-rule="evenodd" clip-rule="evenodd" d="M21 32C21.5523 32 22 32.4477 22 33V40C22 40.5523 21.5523 41 21 41C20.4477 41 20 40.5523 20 40V33C20 32.4477 20.4477 32 21 32Z" fill="#FF7F37"/>
<path fill-rule="evenodd" clip-rule="evenodd" d="M35 30C35.5523 30 36 30.4477 36 31V38C36 38.5523 35.5523 39 35 39C34.4477 39 34 38.5523 34 38V31C34 30.4477 34.4477 30 35 30Z" fill="#00CCEA"/>
<path fill-rule="evenodd" clip-rule="evenodd" d="M28.5489 9.40517C28.679 8.86845 29.2197 8.53886 29.7564 8.66903C36.6472 10.3402 42.0007 15.0531 42.0007 21.0009C42.0007 24.3708 40.2508 27.3743 37.506 29.6176C34.7632 31.8593 30.9838 33.3868 26.7506 33.8548C26.2017 33.9155 25.7075 33.5197 25.6468 32.9708C25.5861 32.4218 25.9819 31.9276 26.5308 31.8669C30.4376 31.435 33.8382 30.0324 36.2404 28.0691C38.6406 26.1074 40.0007 23.6309 40.0007 21.0009C40.0007 16.3887 35.7542 12.1816 29.285 10.6127C28.7483 10.4825 28.4187 9.9419 28.5489 9.40517Z" fill="#FDDA24"/>
<path fill-rule="evenodd" clip-rule="evenodd" d="M12.5592 13.3344C9.66625 15.3767 8 18.1027 8 21C8 23.8973 9.66625 26.6233 12.5592 28.6656C15.4492 30.7057 19.4923 32 24 32C24.871 32 25.7113 31.9613 26.5245 31.8667C27.0731 31.8029 27.5695 32.1959 27.6333 32.7445C27.6971 33.2931 27.3041 33.7895 26.7555 33.8533C25.8487 33.9588 24.929 34 24 34C19.1277 34 14.6708 32.6043 11.4058 30.2994C8.14375 27.9967 6 24.7227 6 21C6 17.2773 8.14375 14.0033 11.4058 11.7006C14.6708 9.39568 19.1277 8 24 8C26.0162 8 27.9351 8.22871 29.7546 8.66792C30.2915 8.79751 30.6217 9.33777 30.4921 9.87464C30.3625 10.4115 29.8222 10.7417 29.2854 10.6121C27.6249 10.2113 25.8638 10 24 10C19.4923 10 15.4492 11.2943 12.5592 13.3344Z" fill="#FF7F37"/>
<path fill-rule="evenodd" clip-rule="evenodd" d="M16.7434 17.0718C14.9196 18.1922 14 19.609 14 21.0022C14 22.5955 15.2241 24.2449 17.5815 25.4049C18.077 25.6488 18.2811 26.2482 18.0373 26.7437C17.7934 27.2392 17.194 27.4433 16.6985 27.1994C14.0159 25.8795 12 23.6889 12 21.0022C12 18.6554 13.5404 16.6922 15.6966 15.3676C17.8685 14.0334 20.8062 13.2422 24 13.2422C26.2994 13.2422 28.4611 13.6636 30.2983 14.3686C30.8139 14.5664 31.0715 15.1448 30.8736 15.6604C30.6758 16.1761 30.0974 16.4337 29.5817 16.2358C27.9789 15.6208 26.0606 15.2422 24 15.2422C21.1138 15.2422 18.5515 15.961 16.7434 17.0718Z" fill="#9063CD"/>
<path fill-rule="evenodd" clip-rule="evenodd" d="M29.0107 14.93C29.2135 14.4163 29.7943 14.1642 30.308 14.367C33.4997 15.6269 36.0009 17.9852 36.0009 20.9971C36.0009 23.3439 34.4605 25.3071 32.3043 26.6317C30.1324 27.966 27.1947 28.7571 24.0009 28.7571C21.2628 28.7571 18.7305 28.1684 16.7013 27.1754C16.2052 26.9326 15.9999 26.3337 16.2426 25.8376C16.4854 25.3415 17.0843 25.1362 17.5804 25.3789C19.3112 26.2259 21.5389 26.7571 24.0009 26.7571C26.887 26.7571 29.4493 26.0383 31.2574 24.9276C33.0812 23.8072 34.0009 22.3904 34.0009 20.9971C34.0009 19.2091 32.462 17.3674 29.5737 16.2273C29.06 16.0245 28.8079 15.4437 29.0107 14.93Z" fill="#F5B6CD"/>
</svg>
