<svg width="48" height="48" viewBox="0 0 48 48" fill="none" xmlns="http://www.w3.org/2000/svg">
<path fill-rule="evenodd" clip-rule="evenodd" d="M2.35655 0.987135C2.95718 0.884174 3.57742 1.09158 3.85565 1.48843L13.3259 14.9963C13.6577 15.4696 13.3938 16.047 12.7364 16.2859C12.0791 16.5248 11.2771 16.3348 10.9453 15.8615L3.9987 5.95319V23.9959C3.9987 24.5261 3.40174 24.9559 2.66536 24.9559C1.92898 24.9559 1.33203 24.5261 1.33203 23.9959V1.92103C1.33203 1.47649 1.75592 1.0901 2.35655 0.987135Z" fill="#FF7F37"/>
<path fill-rule="evenodd" clip-rule="evenodd" d="M2.66536 23.0352C3.40174 23.0352 3.9987 23.465 3.9987 23.9952V43.994L17.0819 33.7659C17.5808 33.3759 18.4243 33.351 18.966 33.7101C19.5076 34.0693 19.5423 34.6766 19.0435 35.0666L3.64612 47.1038C3.27401 47.3946 2.69222 47.4915 2.18054 47.3477C1.66887 47.2039 1.33203 46.8489 1.33203 46.4534V23.9952C1.33203 23.465 1.92898 23.0352 2.66536 23.0352Z" fill="#F5B6CD"/>
<path fill-rule="evenodd" clip-rule="evenodd" d="M11.5241 14.5754C12.1789 14.3327 12.9828 14.5182 13.3199 14.9896L24.6343 30.8146L16.9017 36.741C16.3975 37.1274 15.5537 37.1464 15.017 36.7833C14.4803 36.4203 14.454 35.8128 14.9582 35.4264L21.4016 30.4881L10.9489 15.8683C10.6119 15.3969 10.8694 14.8181 11.5241 14.5754Z" fill="#00CCEA"/>
<path fill-rule="evenodd" clip-rule="evenodd" d="M45.6325 7.39924C46.1346 7.7871 46.1049 8.39456 45.5662 8.75604L26.9182 21.2693C26.3795 21.6308 25.5358 21.6094 25.0337 21.2215C24.5317 20.8337 24.5614 20.2262 25.1001 19.8647L43.7481 7.35147C44.2868 6.98999 45.1305 7.01137 45.6325 7.39924Z" fill="#FDDA24"/>
<path fill-rule="evenodd" clip-rule="evenodd" d="M22.4324 15.3332C23.0931 15.0991 23.8923 15.295 24.2175 15.7707L27.2059 20.1432C27.531 20.6189 27.259 21.1943 26.5983 21.4284C25.9376 21.6625 25.1384 21.4667 24.8132 20.9909L21.8248 16.6185C21.4997 16.1427 21.7717 15.5673 22.4324 15.3332Z" fill="#9063CD"/>
</svg>
