<svg width="48" height="48" viewBox="0 0 48 48" fill="none" xmlns="http://www.w3.org/2000/svg">
<path fill-rule="evenodd" clip-rule="evenodd" d="M25.3562 1.67532C25.4916 2.17642 25.0147 2.65867 24.2909 2.75244L16.8103 3.72161L24.9667 9.11678C25.4991 9.46896 25.5183 10.0533 25.0096 10.4219C24.5009 10.7905 23.6569 10.8038 23.1245 10.4516L13.0881 3.81284C12.7264 3.57363 12.5886 3.21444 12.731 2.88252C12.8735 2.5506 13.2723 2.30179 13.7639 2.2381L23.8003 0.937792C24.5241 0.844015 25.2207 1.17422 25.3562 1.67532Z" fill="#F5B6CD"/>
<path fill-rule="evenodd" clip-rule="evenodd" d="M23.7315 0.947067C24.3322 0.848063 24.9524 1.04749 25.2306 1.42906L34.9853 14.8069C35.3172 15.262 35.0533 15.8172 34.3959 16.0469C33.7385 16.2767 32.9366 16.094 32.6048 15.6389L25.3737 5.72197V23.7078C25.3737 24.2176 24.7767 24.6309 24.0404 24.6309C23.304 24.6309 22.707 24.2176 22.707 23.7078V1.84504C22.707 1.4176 23.1309 1.04607 23.7315 0.947067Z" fill="#00CCEA"/>
<path fill-rule="evenodd" clip-rule="evenodd" d="M24.0443 22.7852C24.7807 22.7852 25.3776 23.1984 25.3776 23.7082V43.5859L38.9231 33.4041C39.422 33.0291 40.2655 33.0051 40.8071 33.3505C41.3488 33.6959 41.3834 34.2798 40.8846 34.6548L25.025 46.576C24.6529 46.8558 24.0711 46.9489 23.5594 46.8106C23.0478 46.6723 22.7109 46.331 22.7109 45.9507V23.7082C22.7109 23.1984 23.3079 22.7852 24.0443 22.7852Z" fill="#00C389"/>
<path fill-rule="evenodd" clip-rule="evenodd" d="M33.1921 14.4033C33.8468 14.17 34.6508 14.3483 34.9878 14.8016L46.1985 29.8779C46.4568 30.2253 46.3712 30.6476 45.9848 30.9324L38.6834 36.3127C38.1792 36.6843 37.3354 36.7025 36.7987 36.3534C36.2621 36.0043 36.2357 35.4202 36.7399 35.0486L43.3966 30.1433L32.6169 15.6466C32.2798 15.1933 32.5374 14.6367 33.1921 14.4033Z" fill="#FDDA24"/>
<path fill-rule="evenodd" clip-rule="evenodd" d="M9.06445 7.15016C9.68101 7.42873 9.85472 8.00053 9.45255 8.42744L9.45106 8.42903L9.44392 8.43666L9.41271 8.47032C9.38459 8.5008 9.34214 8.54715 9.28707 8.60826C9.17691 8.73049 9.01641 8.91159 8.81922 9.14262C8.42451 9.60508 7.8846 10.2655 7.30791 11.0526C6.14573 12.6389 4.87172 14.6896 4.30132 16.6525C3.72015 18.6524 3.93769 20.3108 5.26215 21.3771C6.56545 22.4263 9.34239 23.2172 15.0365 22.7925C15.7686 22.7379 16.4261 23.1045 16.505 23.6114C16.5838 24.1182 16.0543 24.5734 15.3221 24.628C9.33175 25.0749 5.41101 24.3283 3.24031 22.5808C1.09077 20.8504 1.05797 18.4531 1.68703 16.2884C2.32686 14.0866 3.72363 11.8637 4.92968 10.2175C5.5371 9.38841 6.10567 8.69287 6.52341 8.20344C6.73244 7.95854 6.90415 7.76471 7.02465 7.63101C7.08492 7.56414 7.13241 7.51227 7.16539 7.47651L7.20379 7.4351L7.21443 7.42372L7.21755 7.42041C7.21789 7.42005 7.21916 7.41869 8.33574 7.92318L7.21916 7.41869C7.62161 6.99177 8.44778 6.87154 9.06445 7.15016Z" fill="#9063CD"/>
<path fill-rule="evenodd" clip-rule="evenodd" d="M6.92244 18.3704C7.36957 17.9654 8.20635 17.888 8.79144 18.1975L17.7105 22.9163C18.2956 23.2258 18.4075 23.8051 17.9604 24.2102C17.5132 24.6153 16.6764 24.6927 16.0914 24.3831L7.17224 19.6644C6.58715 19.3548 6.47531 18.7755 6.92244 18.3704Z" fill="#FF7F37"/>
<path fill-rule="evenodd" clip-rule="evenodd" d="M17.9604 23.2064C18.4075 23.6114 18.2956 24.1908 17.7105 24.5003L8.79144 29.2191C8.20635 29.5286 7.36957 29.4512 6.92244 29.0461C6.47531 28.6411 6.58715 28.0618 7.17224 27.7522L16.0914 23.0334C16.6764 22.7239 17.5132 22.8013 17.9604 23.2064Z" fill="#F5B6CD"/>
</svg>
