<svg width="48" height="48" viewBox="0 0 48 48" fill="none" xmlns="http://www.w3.org/2000/svg">
<path fill-rule="evenodd" clip-rule="evenodd" d="M2.3545 1.29665C2.95414 1.16045 3.57414 1.43156 3.85375 1.95223L11.8085 16.7652C12.1425 17.387 11.8811 18.1475 11.2248 18.4638C10.5684 18.7802 9.76569 18.5325 9.43179 17.9108L3.9987 7.79357V24.4483C3.9987 25.1459 3.40174 25.7114 2.66536 25.7114C1.92898 25.7114 1.33203 25.1459 1.33203 24.4483V2.525C1.33203 1.94082 1.75486 1.43285 2.3545 1.29665Z" fill="#00C389"/>
<path fill-rule="evenodd" clip-rule="evenodd" d="M2.66536 21.8164C3.40174 21.8164 3.9987 22.3819 3.9987 23.0796V45.1099H18.575C19.3113 45.1099 19.9083 45.6754 19.9083 46.3731C19.9083 47.0707 19.3113 47.6362 18.575 47.6362H1.33203V23.0796C1.33203 22.3819 1.92898 21.8164 2.66536 21.8164Z" fill="#F5B6CD"/>
<path fill-rule="evenodd" clip-rule="evenodd" d="M26.0084 35.4481C26.3858 34.849 27.2043 34.6532 27.8367 35.0107L46.0135 45.2872C46.5286 45.5785 46.775 46.1598 46.6156 46.7077C46.4561 47.2555 45.9301 47.6351 45.3302 47.6351H16.4036C15.6673 47.6351 15.0703 47.0695 15.0703 46.3719C15.0703 45.6743 15.6673 45.1088 16.4036 45.1088H40.4941L26.4701 37.1801C25.8378 36.8226 25.6311 36.0471 26.0084 35.4481Z" fill="#FDDA24"/>
<path fill-rule="evenodd" clip-rule="evenodd" d="M10.085 16.4396C10.7588 16.1583 11.5458 16.4477 11.8428 17.086L17.5076 29.2617L29.4145 36.3959C30.0369 36.7688 30.2223 37.5491 29.8287 38.1387C29.4351 38.7283 28.6115 38.9039 27.9891 38.531L15.3952 30.9853L9.40265 18.105C9.10565 17.4666 9.41114 16.721 10.085 16.4396Z" fill="#FF7F37"/>
<path fill-rule="evenodd" clip-rule="evenodd" d="M19.6576 7.42969C20.3939 7.42969 20.9909 7.99522 20.9909 8.69285V21.7098C20.9909 22.4074 20.3939 22.973 19.6576 22.973C18.9212 22.973 18.3242 22.4074 18.3242 21.7098V8.69285C18.3242 7.99522 18.9212 7.42969 19.6576 7.42969Z" fill="#00CCEA"/>
<path fill-rule="evenodd" clip-rule="evenodd" d="M35.6489 19.0406C36.0065 19.6504 35.7746 20.4194 35.1309 20.7582L22.1139 27.6092C21.4702 27.948 20.6585 27.7283 20.3008 27.1185C19.9432 26.5087 20.1752 25.7396 20.8189 25.4008L33.8358 18.5498C34.4795 18.211 35.2913 18.4307 35.6489 19.0406Z" fill="#9063CD"/>
<path fill-rule="evenodd" clip-rule="evenodd" d="M27.3633 30.2749C27.3633 29.5773 27.9602 29.0117 28.6966 29.0117H40.2672C41.0036 29.0117 41.6006 29.5773 41.6006 30.2749C41.6006 30.9725 41.0036 31.538 40.2672 31.538H28.6966C27.9602 31.538 27.3633 30.9725 27.3633 30.2749Z" fill="#F5B6CD"/>
</svg>
