<svg width="48" height="48" viewBox="0 0 48 48" fill="none" xmlns="http://www.w3.org/2000/svg">
<path fill-rule="evenodd" clip-rule="evenodd" d="M44.24 11.8444C44.6032 11.6245 45.0591 11.7711 45.2583 12.1719L47.1575 15.9915C47.3127 16.3036 47.2695 16.6904 47.0504 16.9517C46.8312 17.213 46.4851 17.2903 46.1911 17.1437L41.246 14.678C40.8686 14.4897 40.7008 13.9995 40.8714 13.583C41.042 13.1665 41.4863 12.9814 41.8637 13.1696L44.7621 14.6148L43.9432 12.968C43.744 12.5673 43.8769 12.0642 44.24 11.8444Z" fill="#00CCEA"/>
<path fill-rule="evenodd" clip-rule="evenodd" d="M42.8293 8.5313C43.2123 8.70533 43.395 9.18902 43.2373 9.61166L39.7757 18.8879C39.618 19.3105 39.1797 19.5121 38.7967 19.338C38.4137 19.164 38.231 18.6803 38.3887 18.2577L41.8503 8.98145C42.008 8.55881 42.4463 8.35728 42.8293 8.5313Z" fill="#FF7F37"/>
<path fill-rule="evenodd" clip-rule="evenodd" d="M42.2121 7.98579C42.5588 7.82617 42.9591 7.9743 43.1485 8.33234L45.1694 12.152C45.3782 12.5467 45.2575 13.0535 44.8998 13.2839C44.5421 13.5144 44.0828 13.3812 43.874 12.9864L42.184 9.79215L36.8983 12.2253C36.516 12.4013 36.0769 12.202 35.9174 11.7801C35.7579 11.3583 35.9385 10.8737 36.3208 10.6977L42.2121 7.98579Z" fill="#FDDA24"/>
<path fill-rule="evenodd" clip-rule="evenodd" d="M27.6944 1.0477C27.9232 0.814516 28.2589 0.76171 28.5377 0.915028L33.4827 3.63442C33.8535 3.83829 34.0042 4.33518 33.8195 4.74426C33.6347 5.15334 33.1844 5.31969 32.8137 5.11582L29.6365 3.36861L31.8847 9.53161C32.0394 9.95561 31.8533 10.4377 31.469 10.6084C31.0848 10.779 30.6479 10.5737 30.4932 10.1497L27.5074 1.96476C27.3911 1.64589 27.4655 1.28088 27.6944 1.0477Z" fill="#F5B6CD"/>
<path fill-rule="evenodd" clip-rule="evenodd" d="M28.8977 18.2566C29.0545 18.6797 28.8709 19.1629 28.4875 19.336L17.6084 24.2469C17.225 24.42 16.7871 24.2173 16.6303 23.7943C16.4734 23.3713 16.6571 22.888 17.0404 22.715L27.9196 17.804C28.3029 17.631 28.7409 17.8336 28.8977 18.2566Z" fill="#00CCEA"/>
<path fill-rule="evenodd" clip-rule="evenodd" d="M22.8851 24.6457C23.1209 25.0214 23.0359 25.537 22.6954 25.7972L16.2668 30.7081C16.006 30.9073 15.6599 30.904 15.4024 30.6998C15.1448 30.4957 15.0314 30.1348 15.1192 29.7986L15.9969 26.4368C16.1116 25.9976 16.5272 25.7442 16.9252 25.8707C17.3233 25.9972 17.553 26.4558 17.4383 26.895L17.1431 28.0255L21.8416 24.4363C22.1821 24.1761 22.6493 24.2699 22.8851 24.6457Z" fill="#F5B6CD"/>
<path fill-rule="evenodd" clip-rule="evenodd" d="M16.9958 23.7247C17.13 23.3471 17.4925 23.1325 17.8519 23.2179L25.8896 25.1277C26.2946 25.2239 26.5521 25.6641 26.4649 26.1109C26.3777 26.5578 25.9788 26.842 25.5739 26.7458L18.1594 24.984L17.0343 28.1488C16.8831 28.5742 16.4479 28.7839 16.0623 28.617C15.6766 28.4501 15.4867 27.9698 15.6379 27.5443L16.9958 23.7247Z" fill="#FDDA24"/>
<path fill-rule="evenodd" clip-rule="evenodd" d="M33.3047 3.55513C33.5994 3.54455 33.8723 3.72547 34.0023 4.0175L35.7997 8.05662C35.9823 8.46689 35.8289 8.96279 35.4571 9.16425C35.0853 9.36572 34.6359 9.19644 34.4533 8.78617L33.3884 6.39309L31.3693 11.7916C31.2112 12.2141 30.7727 12.4152 30.3899 12.2409C30.007 12.0665 29.8247 11.5827 29.9827 11.1602L32.6358 4.06656C32.7483 3.76582 33.01 3.56571 33.3047 3.55513Z" fill="#00C389"/>
<path fill-rule="evenodd" clip-rule="evenodd" d="M31.4361 9.06574C31.8233 9.22784 32.0182 9.70568 31.8713 10.133L27.1299 23.9262L29.6155 22.4975C29.9829 22.2863 30.4358 22.4438 30.6272 22.8491C30.8185 23.2545 30.6759 23.7543 30.3085 23.9654L26.077 26.3977C25.801 26.5563 25.4649 26.5104 25.2323 26.2823C24.9997 26.0542 24.9189 25.6913 25.0293 25.3702L30.4688 9.54602C30.6157 9.11867 31.0488 8.90364 31.4361 9.06574Z" fill="#FF7F37"/>
<path fill-rule="evenodd" clip-rule="evenodd" d="M34.4255 6.89925C34.8042 6.71413 35.2473 6.90283 35.415 7.32072L40.0639 18.9006L29.025 24.7713C28.6519 24.9697 28.2036 24.7968 28.0238 24.3851C27.8439 23.9733 28.0006 23.4787 28.3738 23.2802L38.1041 18.1055L34.0436 7.99111C33.8758 7.57322 34.0468 7.08438 34.4255 6.89925Z" fill="#9063CD"/>
<path fill-rule="evenodd" clip-rule="evenodd" d="M15.4782 36.1207C15.707 36.5018 15.6124 37.0153 15.2671 37.2676C12.8249 39.0525 11.1662 41.5261 10.1137 43.5797C9.58926 44.6031 9.22043 45.5124 8.9836 46.1629C8.8653 46.4879 8.78025 46.7474 8.72543 46.9233C8.69802 47.0112 8.6782 47.0781 8.66557 47.1217L8.65199 47.1695L8.64917 47.1797C8.64913 47.1798 8.6492 47.1795 8.64917 47.1797C8.64922 47.1795 8.64894 47.1805 7.92988 46.9452L7.21083 46.71C7.09307 47.1482 7.31954 47.6087 7.71667 47.7387C8.11363 47.8686 8.53122 47.6176 8.64917 47.1797C8.64913 47.1798 8.6492 47.1795 8.64917 47.1797M7.92988 46.9452C7.21083 46.71 7.21075 46.7103 7.21083 46.71L7.21169 46.7068L7.21321 46.7012L7.21827 46.6829L7.23658 46.6185C7.25246 46.5636 7.2758 46.4849 7.30699 46.3849C7.36935 46.1848 7.46318 45.899 7.59172 45.5459C7.84858 44.8404 8.24524 43.8632 8.80803 42.765C9.93012 40.5755 11.7329 37.8653 14.4388 35.8877C14.7842 35.6353 15.2495 35.7396 15.4782 36.1207" fill="#FF7F37"/>
<path fill-rule="evenodd" clip-rule="evenodd" d="M25.4906 33.285C25.5002 33.742 25.1722 34.121 24.7581 34.1315C21.3699 34.2179 18.6454 35.3934 16.7654 36.5501C15.8258 37.1282 15.1005 37.6997 14.6133 38.1232C14.3698 38.3349 14.1864 38.5091 14.0659 38.6281C14.0056 38.6876 13.9612 38.7333 13.9329 38.7628L13.9026 38.7948L13.8969 38.801L13.8967 38.8012L13.8966 38.8014C13.6033 39.1238 13.1287 39.1231 12.8363 38.7996C12.5437 38.4761 12.5442 37.9521 12.8375 37.6293L13.3672 38.2151C12.8375 37.6293 12.8377 37.629 12.8379 37.6287L12.8385 37.6281L12.8399 37.6265L12.844 37.6221L12.8568 37.6082C12.8675 37.5968 12.8824 37.581 12.9015 37.561C12.9396 37.5212 12.9943 37.4651 13.0654 37.3949C13.2075 37.2545 13.415 37.0577 13.685 36.8231C14.2246 36.354 15.0157 35.7316 16.0349 35.1045C18.0724 33.8509 21.0348 32.5709 24.7235 32.4768C25.1376 32.4662 25.481 32.8281 25.4906 33.285Z" fill="#00C389"/>
<path fill-rule="evenodd" clip-rule="evenodd" d="M39.8435 28.7103C40.2307 28.8725 40.4255 29.3504 40.2786 29.7777L39.5774 29.4841C40.2786 29.7777 40.2788 29.777 40.2786 29.7777L40.2777 29.7803L40.2766 29.7832L40.2741 29.7903L40.2674 29.8088C40.2621 29.823 40.2553 29.841 40.2467 29.8625C40.2295 29.9056 40.2054 29.9627 40.1735 30.0318C40.1096 30.1698 40.0139 30.3561 39.8786 30.5728C39.6078 31.0068 39.178 31.5628 38.5277 32.0974C37.2146 33.1768 35.0722 34.1123 31.6845 33.8875C28.4796 33.6751 26.1463 33.7358 24.6229 33.8475C23.8612 33.9034 23.3019 33.9721 22.9372 34.0258C22.7548 34.0527 22.6211 34.0759 22.5351 34.0918C22.4921 34.0998 22.461 34.106 22.4418 34.1099L22.4217 34.1141L22.4192 34.1147C22.4191 34.1147 22.4193 34.1146 22.4192 34.1147C22.4194 34.1146 22.4192 34.1147 22.2697 33.3037L22.1202 32.4927C21.7143 32.5838 21.4522 33.0208 21.5347 33.4687C21.6173 33.9164 22.0134 34.2055 22.4192 34.1147M39.8435 28.7103C39.4585 28.5491 39.0283 28.7605 38.8789 29.1827L39.8435 28.7103ZM38.8789 29.1827L38.8739 29.1954C38.8678 29.2108 38.8559 29.2393 38.8376 29.279C38.8008 29.3584 38.7383 29.4818 38.6433 29.634C38.4536 29.9378 38.1345 30.3566 37.6316 30.7701C36.6383 31.5866 34.8567 32.4398 31.7745 32.2353C28.509 32.0189 26.1123 32.0794 24.5234 32.196C23.729 32.2543 23.1366 32.3266 22.7386 32.3852C22.5396 32.4146 22.3892 32.4405 22.2864 32.4596C22.235 32.4691 22.1956 32.4769 22.1679 32.4826L22.1352 32.4894L22.1255 32.4915L22.1223 32.4922L22.1202 32.4927C22.1199 32.4928 22.1202 32.4927 22.2697 33.3037" fill="#F5B6CD"/>
<path fill-rule="evenodd" clip-rule="evenodd" d="M13.4765 30.6241C13.725 30.9897 13.6579 31.5084 13.3265 31.7827L11.3485 33.4197C11.0171 33.6939 10.547 33.6198 10.2985 33.2541C10.05 32.8885 10.1171 32.3698 10.4485 32.0955L12.4265 30.4585C12.7579 30.1843 13.228 30.2584 13.4765 30.6241Z" fill="#FF7F37"/>
<path fill-rule="evenodd" clip-rule="evenodd" d="M9.02338 33.8975C9.27191 34.2631 9.20475 34.7819 8.87338 35.0561L6.89536 36.6931C6.56399 36.9673 6.09388 36.8932 5.84536 36.5276C5.59683 36.1619 5.66399 35.6432 5.99536 35.369L7.97338 33.732C8.30475 33.4577 8.77485 33.5318 9.02338 33.8975Z" fill="#9063CD"/>
<path fill-rule="evenodd" clip-rule="evenodd" d="M4.07807 37.1709C4.32659 37.5366 4.25944 38.0553 3.92807 38.3295L1.95004 39.9665C1.61867 40.2408 1.14857 40.1667 0.900044 39.801C0.651516 39.4354 0.718673 38.9166 1.05004 38.6424L3.02807 37.0054C3.35944 36.7312 3.82954 36.8053 4.07807 37.1709Z" fill="#00CCEA"/>
</svg>
