<svg width="48" height="48" viewBox="0 0 48 48" fill="none" xmlns="http://www.w3.org/2000/svg">
<path fill-rule="evenodd" clip-rule="evenodd" d="M16.8851 15.1821H13.1215V13.1484H18.9864C19.7961 13.1484 20.4526 13.7858 20.4526 14.572V20.2664H18.358V16.6282L13.1305 21.7037L11.0359 19.67L6.21138 24.3542C5.81107 24.7429 5.17428 24.7429 4.77397 24.3542C4.35659 23.949 4.35659 23.279 4.77397 22.8738L11.0359 16.7939L13.1305 18.8276L16.8851 15.1821Z" fill="#FDDA24"/>
<path d="M36.0601 31.3477C36.1007 32.7272 37.0339 33.214 37.0339 33.214L29.5173 36.7327C28.4994 37.2268 27.3769 37.4841 26.2388 37.4841H19.3438V35.4504H26.2388C27.0517 35.4504 27.8535 35.2666 28.5806 34.9137L36.0601 31.3477Z" fill="#00C389"/>
<path fill-rule="evenodd" clip-rule="evenodd" d="M32.6553 23.8496C32.1575 23.2053 31.2211 23.0646 30.5461 23.5327L24.9086 27.4424L20.479 26.7256C19.2515 26.527 17.9912 26.7593 16.924 27.381L13.6714 29.2758L12.5938 27.5319L15.8463 25.6371C17.3404 24.7667 19.1048 24.4415 20.8234 24.7196L24.3972 25.2979L29.3286 21.8779C30.9295 20.7676 33.1505 21.1013 34.3309 22.6294C35.5784 24.2444 35.1725 26.5452 33.4426 27.665L26.2811 32.3005L25.1193 30.6083L32.2807 25.9729C33.0101 25.5007 33.1813 24.5306 32.6553 23.8496Z" fill="#59CBE8"/>
<path fill-rule="evenodd" clip-rule="evenodd" d="M12.394 25.0039L17.1648 31.952L21.9356 38.9002L14.901 42.9982L10.1302 36.0501L5.35938 29.102L12.394 25.0039ZM8.32071 29.7485L15.5359 40.2566L18.9743 38.2536L11.7591 27.7455L8.32071 29.7485Z" fill="#9063CD"/>
<path d="M36.6654 16.8394C37.1626 15.2303 38.8746 14.2847 40.5532 14.6922C42.3078 15.1181 43.3632 16.8566 42.8972 18.5533L39.7735 29.9265C39.3834 31.3469 37.0303 33.1941 37.0303 33.1941C36.2927 32.6785 35.839 32.4334 36.0936 31.3751C36.0936 31.3751 37.5141 30.26 37.7496 29.4025L40.8733 18.0293C41.038 17.4298 40.6651 16.8156 40.0452 16.6652C39.4522 16.5212 38.8473 16.8553 38.6716 17.4238L36.6295 24.033C36.2372 25.3027 35.4009 26.3998 34.2649 27.1351L26.283 32.3017L25.1211 30.6095L33.103 25.443C33.8334 24.9702 34.371 24.2649 34.6232 23.4486L36.6654 16.8394Z" fill="#F5B6CD"/>
<path fill-rule="evenodd" clip-rule="evenodd" d="M27.7838 14.8857C30.3288 14.8857 32.3919 12.8237 32.3919 10.2802C32.3919 7.73667 30.3288 5.67472 27.7838 5.67472C25.2388 5.67472 23.1757 7.73667 23.1757 10.2802C23.1757 12.8237 25.2388 14.8857 27.7838 14.8857ZM27.7838 16.5604C31.2543 16.5604 34.0676 13.7487 34.0676 10.2802C34.0676 6.81174 31.2543 4 27.7838 4C24.3134 4 21.5 6.81174 21.5 10.2802C21.5 13.7487 24.3134 16.5604 27.7838 16.5604Z" fill="#FF7F41"/>
<path fill-rule="evenodd" clip-rule="evenodd" d="M27.3239 10.7562V10.8949C27.3239 11.1424 27.565 11.3725 27.8952 11.3725C28.2253 11.3725 28.4664 11.1424 28.4664 10.8949C28.4664 10.6474 28.2253 10.4173 27.8952 10.4173C27.0471 10.4173 26.3242 9.81545 26.3242 9.04607C26.3242 8.43277 26.7838 7.9284 27.3953 7.74991V7.05859H28.395V7.74991C29.0066 7.9284 29.4661 8.43277 29.4661 9.04607V9.18473H28.4664V9.04607C28.4664 8.7986 28.2253 8.56846 27.8952 8.56846C27.565 8.56846 27.3239 8.7986 27.3239 9.04607C27.3239 9.29354 27.565 9.52368 27.8952 9.52368C28.7432 9.52368 29.4661 10.1255 29.4661 10.8949C29.4661 11.5082 29.0066 12.0126 28.395 12.1911V12.8824H27.3953V12.1911C26.7838 12.0126 26.3242 11.5082 26.3242 10.8949V10.7562H27.3239Z" fill="#00C389"/>
</svg>
