<svg width="48" height="48" viewBox="0 0 48 48" fill="none" xmlns="http://www.w3.org/2000/svg">
<path fill-rule="evenodd" clip-rule="evenodd" d="M21 21C21.5523 21 22 21.4477 22 22V27C22 27.5523 21.5523 28 21 28C20.4477 28 20 27.5523 20 27V22C20 21.4477 20.4477 21 21 21Z" fill="#00CCEA"/>
<path fill-rule="evenodd" clip-rule="evenodd" d="M21 37C21.5523 37 22 37.4477 22 38V41C22 41.5523 21.5523 42 21 42C20.4477 42 20 41.5523 20 41V38C20 37.4477 20.4477 37 21 37Z" fill="#FF7F37"/>
<path fill-rule="evenodd" clip-rule="evenodd" d="M27 21C27.5523 21 28 21.4477 28 22V27C28 27.5523 27.5523 28 27 28C26.4477 28 26 27.5523 26 27V22C26 21.4477 26.4477 21 27 21Z" fill="#00CCEA"/>
<path fill-rule="evenodd" clip-rule="evenodd" d="M23.2929 5.29289C23.6834 4.90237 24.3166 4.90237 24.7071 5.29289L27.7071 8.29289C27.8946 8.48043 28 8.73478 28 9V11C28 11.5523 27.5523 12 27 12H21C20.4477 12 20 11.5523 20 11V9C20 8.73478 20.1054 8.48043 20.2929 8.29289L23.2929 5.29289ZM22 9.41421V10H26V9.41421L24 7.41421L22 9.41421Z" fill="#FDDA24"/>
<path fill-rule="evenodd" clip-rule="evenodd" d="M34 27C34 26.4477 34.4477 26 35 26C37.7523 26 40 28.2477 40 31V33C40 35.7523 37.7523 38 35 38H28V41C28 41.5523 27.5523 42 27 42C26.4477 42 26 41.5523 26 41V38H13C12.4477 38 12 37.5523 12 37C12 36.4477 12.4477 36 13 36H35C36.6477 36 38 34.6477 38 33V31C38 29.3523 36.6477 28 35 28C34.4477 28 34 27.5523 34 27Z" fill="#FF7F37"/>
<path fill-rule="evenodd" clip-rule="evenodd" d="M12.3598 26.2318C12.5395 26.082 12.7661 26 13 26H35C35.5523 26 36 26.4477 36 27C36 27.5523 35.5523 28 35 28H13.3621L8.56205 32L13.6402 36.2318C14.0645 36.5853 14.1218 37.2159 13.7682 37.6402C13.4147 38.0645 12.7841 38.1218 12.3598 37.7682L6.35982 32.7682C6.13182 32.5782 6 32.2968 6 32C6 31.7032 6.13182 31.4218 6.35982 31.2318L12.3598 26.2318Z" fill="#00C389"/>
<path fill-rule="evenodd" clip-rule="evenodd" d="M34.2318 10.3598C34.5853 9.93556 35.2159 9.87824 35.6402 10.2318L41.6402 15.2318C41.8682 15.4218 42 15.7032 42 16C42 16.2968 41.8682 16.5783 41.6402 16.7682L35.6402 21.7682C35.4605 21.918 35.2339 22 35 22H13C12.4477 22 12 21.5523 12 21C12 20.4477 12.4477 20 13 20H34.638L39.438 16L34.3598 11.7682C33.9355 11.4147 33.8782 10.7841 34.2318 10.3598Z" fill="#F5B6CD"/>
<path fill-rule="evenodd" clip-rule="evenodd" d="M8 15C8 12.2477 10.2477 10 13 10H35C35.5523 10 36 10.4477 36 11C36 11.5523 35.5523 12 35 12H13C11.3523 12 10 13.3523 10 15V17C10 18.6477 11.3523 20 13 20C13.5523 20 14 20.4477 14 21C14 21.5523 13.5523 22 13 22C10.2477 22 8 19.7523 8 17V15Z" fill="#9063CD"/>
</svg>
