<svg width="48" height="48" viewBox="0 0 48 48" fill="none" xmlns="http://www.w3.org/2000/svg">
<path fill-rule="evenodd" clip-rule="evenodd" d="M9 20C9.55228 20 10 20.4477 10 21V42H24C24.5523 42 25 42.4477 25 43C25 43.5523 24.5523 44 24 44H9C8.44772 44 8 43.5523 8 43V21C8 20.4477 8.44772 20 9 20Z" fill="#FDDA24"/>
<path fill-rule="evenodd" clip-rule="evenodd" d="M39 19C39.5523 19 40 19.4477 40 20V37C40 40.8723 36.8723 44 33 44H24C23.4477 44 23 43.5523 23 43C23 42.4477 23.4477 42 24 42H33C35.7677 42 38 39.7677 38 37V20C38 19.4477 38.4477 19 39 19Z" fill="#9063CD"/>
<path fill-rule="evenodd" clip-rule="evenodd" d="M18 5C18 4.44772 18.4477 4 19 4H39C39.5523 4 40 4.44772 40 5V20C40 20.5523 39.5523 21 39 21C38.4477 21 38 20.5523 38 20V6H19C18.4477 6 18 5.55228 18 5Z" fill="#00CCEA"/>
<path fill-rule="evenodd" clip-rule="evenodd" d="M19.7071 4.29289C20.0976 4.68342 20.0976 5.31658 19.7071 5.70711L10 15.4142V21C10 21.5523 9.55228 22 9 22C8.44772 22 8 21.5523 8 21V15C8 14.7348 8.10536 14.4804 8.29289 14.2929L18.2929 4.29289C18.6834 3.90237 19.3166 3.90237 19.7071 4.29289Z" fill="#00C389"/>
<path fill-rule="evenodd" clip-rule="evenodd" d="M14 19C14 18.4477 14.4477 18 15 18H33C33.5523 18 34 18.4477 34 19C34 19.5523 33.5523 20 33 20H15C14.4477 20 14 19.5523 14 19ZM14 25C14 24.4477 14.4477 24 15 24H33C33.5523 24 34 24.4477 34 25C34 25.5523 33.5523 26 33 26H15C14.4477 26 14 25.5523 14 25Z" fill="#FF7F37"/>
<path fill-rule="evenodd" clip-rule="evenodd" d="M14 31C14 30.4477 14.4477 30 15 30H33C33.5523 30 34 30.4477 34 31C34 31.5523 33.5523 32 33 32H15C14.4477 32 14 31.5523 14 31ZM14 37C14 36.4477 14.4477 36 15 36H33C33.5523 36 34 36.4477 34 37C34 37.5523 33.5523 38 33 38H15C14.4477 38 14 37.5523 14 37Z" fill="#F5B6CD"/>
<path fill-rule="evenodd" clip-rule="evenodd" d="M19 4C19.5523 4 20 4.44772 20 5V15C20 15.5523 19.5523 16 19 16H9C8.44772 16 8 15.5523 8 15C8 14.4477 8.44772 14 9 14H18V5C18 4.44772 18.4477 4 19 4Z" fill="#00C389"/>
</svg>
