<svg width="48" height="48" viewBox="0 0 48 48" fill="none" xmlns="http://www.w3.org/2000/svg">
<path fill-rule="evenodd" clip-rule="evenodd" d="M43 24C43.5523 24 44 24.4477 44 25V26C44 33.3651 38.3147 39.4185 31.0742 39.9572C30.5235 39.9982 30.0438 39.585 30.0028 39.0342C29.9618 38.4834 30.3751 38.0037 30.9258 37.9628C37.1254 37.5015 42 32.3149 42 26V25C42 24.4477 42.4478 24 43 24Z" fill="#FF7F37"/>
<path fill-rule="evenodd" clip-rule="evenodd" d="M6 7C6 6.44772 6.44772 6 7 6H31C31.5523 6 32 6.44772 32 7V11C32 11.5523 31.5523 12 31 12C30.4477 12 30 11.5523 30 11V8H8V16.1C8 16.6523 7.55228 17.1 7 17.1C6.44772 17.1 6 16.6523 6 16.1V7Z" fill="#00C389"/>
<path fill-rule="evenodd" clip-rule="evenodd" d="M7 15.1016C7.55228 15.1016 8 15.5493 8 16.1016V40.0016H16.58C17.1323 40.0016 17.58 40.4493 17.58 41.0016C17.58 41.5539 17.1323 42.0016 16.58 42.0016H7C6.44772 42.0016 6 41.5539 6 41.0016V16.1016C6 15.5493 6.44772 15.1016 7 15.1016Z" fill="#00CCEA"/>
<path fill-rule="evenodd" clip-rule="evenodd" d="M30.9981 24C31.5504 24 31.9981 24.4477 31.9981 25V41C31.9981 41.5523 31.5504 42 30.9981 42H16.5781C16.0258 42 15.5781 41.5523 15.5781 41C15.5781 40.4477 16.0258 40 16.5781 40H29.9981V25C29.9981 24.4477 30.4458 24 30.9981 24Z" fill="#9063CD"/>
<path fill-rule="evenodd" clip-rule="evenodd" d="M10 15C10 14.4477 10.4477 14 11 14H17C17.5523 14 18 14.4477 18 15C18 15.5523 17.5523 16 17 16H11C10.4477 16 10 15.5523 10 15ZM10 21C10 20.4477 10.4477 20 11 20H27C27.5523 20 28 20.4477 28 21C28 21.5523 27.5523 22 27 22H11C10.4477 22 10 21.5523 10 21Z" fill="#F5B6CD"/>
<path fill-rule="evenodd" clip-rule="evenodd" d="M10 27C10 26.4477 10.4477 26 11 26H27C27.5523 26 28 26.4477 28 27C28 27.5523 27.5523 28 27 28H11C10.4477 28 10 27.5523 10 27Z" fill="#00CCEA"/>
<path fill-rule="evenodd" clip-rule="evenodd" d="M10 33C10 32.4477 10.4477 32 11 32H27C27.5523 32 28 32.4477 28 33C28 33.5523 27.5523 34 27 34H11C10.4477 34 10 33.5523 10 33Z" fill="#FF7F37"/>
<path fill-rule="evenodd" clip-rule="evenodd" d="M15.9766 11.0234C15.9766 10.4712 16.4243 10.0234 16.9766 10.0234H29.9766C33.6896 10.0234 37.2505 11.4984 39.8761 14.1239C42.5016 16.7495 43.9766 20.3104 43.9766 24.0234V25.0034C43.9766 25.5557 43.5288 26.0034 42.9766 26.0034C42.4243 26.0034 41.9766 25.5557 41.9766 25.0034V24.0234C41.9766 20.8408 40.7123 17.7886 38.4618 15.5382C36.2114 13.2877 33.1592 12.0234 29.9766 12.0234H17.9766C17.9766 13.0843 18.398 14.1017 19.1481 14.8519C19.8983 15.602 20.9157 16.0234 21.9766 16.0234H26.9766C27.5288 16.0234 27.9766 16.4712 27.9766 17.0234C27.9766 20.8912 31.1088 24.0234 34.9766 24.0234C35.5288 24.0234 35.9766 24.4712 35.9766 25.0234C35.9766 25.5757 35.5288 26.0234 34.9766 26.0234C30.3423 26.0234 26.5285 22.5247 26.0314 18.0234H21.9766C20.3853 18.0234 18.8591 17.3913 17.7339 16.2661C16.6087 15.1409 15.9766 13.6147 15.9766 12.0234V11.0234Z" fill="#FDDA24"/>
</svg>
