<svg width="48" height="48" viewBox="0 0 48 48" fill="none" xmlns="http://www.w3.org/2000/svg">
<path fill-rule="evenodd" clip-rule="evenodd" d="M39 30.7188C39.5523 30.7188 40 31.1665 40 31.7187V39.9987C40 42.211 38.2123 43.9987 36 43.9987H15C14.4477 43.9987 14 43.551 14 42.9987V36.9987C14 36.4465 14.4477 35.9988 15 35.9988C15.5523 35.9988 16 36.4465 16 36.9987V41.9987H36C37.1077 41.9987 38 41.1065 38 39.9987V31.7187C38 31.1665 38.4477 30.7188 39 30.7188Z" fill="#00CCEA"/>
<path fill-rule="evenodd" clip-rule="evenodd" d="M32 9C32 8.44772 32.4477 8 33 8H39C39.5523 8 40 8.44772 40 9V31.72C40 32.2723 39.5523 32.72 39 32.72C38.4477 32.72 38 32.2723 38 31.72V10H33C32.4477 10 32 9.55228 32 9Z" fill="#9063CD"/>
<path fill-rule="evenodd" clip-rule="evenodd" d="M9 20C9.55228 20 10 20.4477 10 21V36H30C31.1077 36 32 35.1077 32 34V29.86C32 29.3077 32.4477 28.86 33 28.86C33.5523 28.86 34 29.3077 34 29.86V34C34 36.2123 32.2123 38 30 38H9C8.44772 38 8 37.5523 8 37V21C8 20.4477 8.44772 20 9 20Z" fill="#00C389"/>
<path fill-rule="evenodd" clip-rule="evenodd" d="M16 5C16 4.44772 16.4477 4 17 4H33C33.5523 4 34 4.44772 34 5V29.86C34 30.4123 33.5523 30.86 33 30.86C32.4477 30.86 32 30.4123 32 29.86V6H17C16.4477 6 16 5.55228 16 5Z" fill="#FDDA24"/>
<path fill-rule="evenodd" clip-rule="evenodd" d="M17.5847 4.18877C17.9826 4.47554 18.1138 5.00855 17.8944 5.44723L10 13.5V21.4243C9.79259 21.8391 9.22162 22.0798 8.77025 21.9733C8.31888 21.8667 8 21.4638 8 21V13C8 12.7348 8.10536 12.4804 8.29289 12.2929L16.2929 4.29291C16.6397 3.9461 17.1868 3.902 17.5847 4.18877ZM21 14C20.4477 14 20 13.5523 20 13C20 12.4477 20.4477 12 21 12H29C29.5523 12 30 12.4477 30 13C30 13.5523 29.5523 14 29 14H21Z" fill="#FF7F37"/>
<path fill-rule="evenodd" clip-rule="evenodd" d="M12 19C12 18.4477 12.4477 18 13 18H29C29.5523 18 30 18.4477 30 19C30 19.5523 29.5523 20 29 20H13C12.4477 20 12 19.5523 12 19ZM12 25C12 24.4477 12.4477 24 13 24H29C29.5523 24 30 24.4477 30 25C30 25.5523 29.5523 26 29 26H13C12.4477 26 12 25.5523 12 25ZM12 31C12 30.4477 12.4477 30 13 30H29C29.5523 30 30 30.4477 30 31C30 31.5523 29.5523 32 29 32H13C12.4477 32 12 31.5523 12 31Z" fill="#F5B6CD"/>
<path fill-rule="evenodd" clip-rule="evenodd" d="M17 4C17.5523 4 18 4.44772 18 5V13C18 13.5523 17.5523 14 17 14H9C8.44772 14 8 13.5523 8 13C8 12.4477 8.44772 12 9 12H16V5C16 4.44772 16.4477 4 17 4Z" fill="#FF7F37"/>
</svg>
