<svg width="48" height="48" viewBox="0 0 48 48" fill="none" xmlns="http://www.w3.org/2000/svg">
<path fill-rule="evenodd" clip-rule="evenodd" d="M10.0301 14.7575C10.1414 14.3123 10.5414 14 11.0002 14H14.7602C15.8704 14 16.8476 14.4569 17.4616 15.2793C18.0721 16.097 18.2426 17.1666 17.9697 18.2453C17.6887 19.3559 16.9321 20.287 16.0565 20.929C15.1805 21.5712 14.0831 22 13.0002 22C12.1202 22 11.2084 21.7139 10.481 21.1999L9.97038 23.2425C9.83643 23.7783 9.2935 24.1041 8.7577 23.9701C8.22191 23.8362 7.89615 23.2933 8.03009 22.7575L10.0301 14.7575ZM11.0432 18.9511C11.1063 19.007 11.1633 19.0719 11.2123 19.1453C11.5207 19.6079 12.2446 20 13.0002 20C13.5774 20 14.27 19.7588 14.874 19.316C15.4783 18.873 15.8918 18.3041 16.0308 17.7547C16.1779 17.1734 16.0584 16.743 15.8589 16.4757C15.6629 16.2131 15.3101 16 14.7602 16H11.781L11.0432 18.9511Z" fill="#FF7F37"/>
<path fill-rule="evenodd" clip-rule="evenodd" d="M38.6594 11.0625C38.6594 10.5102 39.1071 10.0625 39.6594 10.0625C42.1129 10.0625 44.0194 12.1124 44.0194 14.5825V33.4225C44.0194 35.8688 42.1165 37.9425 39.6594 37.9425H8.35938C7.80709 37.9425 7.35938 37.4948 7.35938 36.9425C7.35938 36.3902 7.80709 35.9425 8.35938 35.9425H39.6594C40.9222 35.9425 42.0194 34.8562 42.0194 33.4225V14.5825C42.0194 13.1326 40.9258 12.0625 39.6594 12.0625C39.1071 12.0625 38.6594 11.6148 38.6594 11.0625Z" fill="#FDDA24"/>
<path fill-rule="evenodd" clip-rule="evenodd" d="M4 14.5825C4 12.1362 5.90284 10.0625 8.36 10.0625H39.64C40.1923 10.0625 40.64 10.5102 40.64 11.0625C40.64 11.6148 40.1923 12.0625 39.64 12.0625H8.36C7.09716 12.0625 6 13.1488 6 14.5825V33.4025C6 34.8524 7.09355 35.9225 8.36 35.9225C8.91228 35.9225 9.36 36.3702 9.36 36.9225C9.36 37.4748 8.91228 37.9225 8.36 37.9225C5.90645 37.9225 4 35.8726 4 33.4025V14.5825Z" fill="#9063CD"/>
<path fill-rule="evenodd" clip-rule="evenodd" d="M36.2929 16.2929C36.6834 15.9024 37.3166 15.9024 37.7071 16.2929L39.7071 18.2929C40.0976 18.6834 40.0976 19.3166 39.7071 19.7071L37.7071 21.7071C37.3166 22.0976 36.6834 22.0976 36.2929 21.7071C35.9024 21.3166 35.9024 20.6834 36.2929 20.2929L37.5858 19L36.2929 17.7071C35.9024 17.3166 35.9024 16.6834 36.2929 16.2929Z" fill="#00CCEA"/>
<path fill-rule="evenodd" clip-rule="evenodd" d="M8 29C8 28.4477 8.44772 28 9 28H39C39.5523 28 40 28.4477 40 29C40 29.5523 39.5523 30 39 30H9C8.44772 30 8 29.5523 8 29Z" fill="#00C389"/>
<path fill-rule="evenodd" clip-rule="evenodd" d="M8 33C8 32.4477 8.44772 32 9 32H25C25.5523 32 26 32.4477 26 33C26 33.5523 25.5523 34 25 34H9C8.44772 34 8 33.5523 8 33Z" fill="#F5B6CD"/>
</svg>
