<svg width="48" height="48" viewBox="0 0 48 48" fill="none" xmlns="http://www.w3.org/2000/svg">
<path fill-rule="evenodd" clip-rule="evenodd" d="M10.4454 20.1681C10.9049 19.8617 11.5258 19.9859 11.8322 20.4454L15.8322 26.4454C16.1385 26.9049 16.0143 27.5258 15.5548 27.8322C15.0953 28.1385 14.4744 28.0143 14.1681 27.5548L10.1681 21.5548C9.8617 21.0953 9.98588 20.4744 10.4454 20.1681ZM20.4454 20.1681C20.9049 19.8617 21.5258 19.9859 21.8322 20.4454L25.8322 26.4454C26.1385 26.9049 26.0143 27.5258 25.5548 27.8322C25.0953 28.1385 24.4744 28.0143 24.1681 27.5548L20.1681 21.5548C19.8617 21.0953 19.9859 20.4744 20.4454 20.1681ZM30.4454 20.1681C30.9049 19.8617 31.5258 19.9859 31.8322 20.4454L35.8322 26.4454C36.1385 26.9049 36.0143 27.5258 35.5548 27.8322C35.0953 28.1385 34.4744 28.0143 34.1681 27.5548L30.1681 21.5548C29.8617 21.0953 29.9859 20.4744 30.4454 20.1681Z" fill="#00C389"/>
<path fill-rule="evenodd" clip-rule="evenodd" d="M41 19C41.5523 19 42 19.4477 42 20V38C42 40.2123 40.2123 42 38 42H19C18.4477 42 18 41.5523 18 41C18 40.4477 18.4477 40 19 40H38C39.1077 40 40 39.1077 40 38V20C40 19.4477 40.4477 19 41 19Z" fill="#FF7F37"/>
<path fill-rule="evenodd" clip-rule="evenodd" d="M6 21C6 20.4477 6.44772 20 7 20H41C41.5523 20 42 20.4477 42 21C42 21.5523 41.5523 22 41 22H8V38C8 39.1077 8.89228 40 10 40H19C19.5523 40 20 40.4477 20 41C20 41.5523 19.5523 42 19 42H10C7.78772 42 6 40.2123 6 38V21Z" fill="#9063CD"/>
<path fill-rule="evenodd" clip-rule="evenodd" d="M6 27C6 26.4477 6.44772 26 7 26H41C41.5523 26 42 26.4477 42 27C42 27.5523 41.5523 28 41 28H7C6.44772 28 6 27.5523 6 27Z" fill="#00CCEA"/>
<path fill-rule="evenodd" clip-rule="evenodd" d="M9.16253 8.40715C8.55878 8.29828 8 8.76347 8 9.38302V13.003C8 13.5553 7.55228 14.003 7 14.003C6.44772 14.003 6 13.5553 6 13.003V9.38302C6 7.52323 7.68005 6.10876 9.51555 6.43855C9.51619 6.43867 9.51683 6.43878 9.51747 6.4389L39.514 11.7383C40.0578 11.8344 40.4208 12.3531 40.3247 12.897C40.2287 13.4409 39.7099 13.8039 39.166 13.7078L9.16603 8.40777L9.16253 8.40715Z" fill="#F5B6CD"/>
<path fill-rule="evenodd" clip-rule="evenodd" d="M38.3538 12.5389C38.4446 11.9941 38.9598 11.6261 39.5046 11.7169C40.951 11.958 42.0002 13.2188 42.0002 14.6633V19.0033C42.0002 19.2989 41.8694 19.5794 41.6429 19.7694C41.4164 19.9594 41.1175 20.0394 40.8264 19.9881L6.82638 13.9881C6.2825 13.8921 5.9194 13.3734 6.01538 12.8295C6.11136 12.2856 6.63007 11.9225 7.17395 12.0185L40.0002 17.8114V14.6633C40.0002 14.1878 39.6493 13.7686 39.1758 13.6897C38.631 13.5989 38.263 13.0837 38.3538 12.5389Z" fill="#FDDA24"/>
</svg>
