<svg width="48" height="48" viewBox="0 0 48 48" fill="none" xmlns="http://www.w3.org/2000/svg">
<path fill-rule="evenodd" clip-rule="evenodd" d="M18.4471 29.5546C18.8376 29.9451 18.8376 30.5783 18.4471 30.9688L9.70711 39.7088C9.31658 40.0993 8.68342 40.0993 8.29289 39.7088C7.90237 39.3183 7.90237 38.6851 8.29289 38.2946L17.0329 29.5546C17.4234 29.1641 18.0566 29.1641 18.4471 29.5546Z" fill="#F5B6CD"/>
<path fill-rule="evenodd" clip-rule="evenodd" d="M29.7093 18.2929C30.0998 18.6834 30.0998 19.3166 29.7093 19.7071L18.4493 30.9671C18.0588 31.3576 17.4256 31.3576 17.0351 30.9671C16.6446 30.5766 16.6446 29.9434 17.0351 29.5529L28.2951 18.2929C28.6856 17.9024 29.3188 17.9024 29.7093 18.2929Z" fill="#9063CD"/>
<path fill-rule="evenodd" clip-rule="evenodd" d="M39.7071 8.29289C40.0976 8.68342 40.0976 9.31658 39.7071 9.70711L29.7071 19.7071C29.3166 20.0976 28.6834 20.0976 28.2929 19.7071C27.9024 19.3166 27.9024 18.6834 28.2929 18.2929L38.2929 8.29289C38.6834 7.90237 39.3166 7.90237 39.7071 8.29289Z" fill="#00CCEA"/>
<path fill-rule="evenodd" clip-rule="evenodd" d="M8.29289 8.29289C8.68342 7.90237 9.31658 7.90237 9.70711 8.29289L18.0471 16.6329C18.4376 17.0234 18.4376 17.6566 18.0471 18.0471C17.6566 18.4376 17.0234 18.4376 16.6329 18.0471L8.29289 9.70711C7.90237 9.31658 7.90237 8.68342 8.29289 8.29289Z" fill="#00C389"/>
<path fill-rule="evenodd" clip-rule="evenodd" d="M16.6327 16.6327C17.0233 16.2422 17.6564 16.2422 18.047 16.6327L31.707 30.2927C32.0975 30.6833 32.0975 31.3164 31.707 31.707C31.3164 32.0975 30.6833 32.0975 30.2927 31.707L16.6327 18.047C16.2422 17.6564 16.2422 17.0233 16.6327 16.6327Z" fill="#FF7F37"/>
<path fill-rule="evenodd" clip-rule="evenodd" d="M30.2929 30.2929C30.6834 29.9024 31.3166 29.9024 31.7071 30.2929L39.7071 38.2929C40.0976 38.6834 40.0976 39.3166 39.7071 39.7071C39.3166 40.0976 38.6834 40.0976 38.2929 39.7071L30.2929 31.7071C29.9024 31.3166 29.9024 30.6834 30.2929 30.2929Z" fill="#FDDA24"/>
</svg>
