<svg width="48" height="48" viewBox="0 0 48 48" fill="none" xmlns="http://www.w3.org/2000/svg">
<path fill-rule="evenodd" clip-rule="evenodd" d="M13.5104 27.5226C14.0503 27.6388 14.3938 28.1707 14.2776 28.7106L12.5776 36.6106C12.5408 36.7819 12.4596 36.9405 12.3421 37.0705L6.74211 43.2705C6.37192 43.6803 5.73957 43.7125 5.32972 43.3423C4.91987 42.9721 4.88772 42.3398 5.25791 41.9299L10.6786 35.9284L12.3224 28.2898C12.4386 27.7499 12.9705 27.4064 13.5104 27.5226Z" fill="#F5B6CD"/>
<path fill-rule="evenodd" clip-rule="evenodd" d="M19.565 28.63C20.1017 28.4997 20.6424 28.8291 20.7728 29.3658L24.1728 43.3658C24.3031 43.9025 23.9737 44.4432 23.437 44.5735C22.9003 44.7039 22.3596 44.3745 22.2293 43.8378L18.8293 29.8378C18.6989 29.3011 19.0283 28.7604 19.565 28.63Z" fill="#59CBE8"/>
<path fill-rule="evenodd" clip-rule="evenodd" d="M22.1955 18.8356C22.6726 18.5573 23.2849 18.7185 23.5632 19.1955L26.5545 24.3235L30.8873 21.7404C31.3617 21.4576 31.9755 21.6129 32.2583 22.0873C32.5411 22.5617 32.3858 23.1755 31.9114 23.4583L26.7114 26.5583C26.4822 26.695 26.2079 26.7343 25.9495 26.6677C25.6911 26.601 25.4701 26.4338 25.3356 26.2033L21.8356 20.2033C21.5573 19.7262 21.7185 19.1139 22.1955 18.8356Z" fill="#FF7F41"/>
<path fill-rule="evenodd" clip-rule="evenodd" d="M20.1984 8.5C19.2043 8.5 18.3984 9.30589 18.3984 10.3C18.3984 11.2941 19.2043 12.1 20.1984 12.1C21.1926 12.1 21.9984 11.2941 21.9984 10.3C21.9984 9.30589 21.1926 8.5 20.1984 8.5ZM16.3984 10.3C16.3984 8.20132 18.0998 6.5 20.1984 6.5C22.2971 6.5 23.9984 8.20132 23.9984 10.3C23.9984 12.3987 22.2971 14.1 20.1984 14.1C18.0998 14.1 16.3984 12.3987 16.3984 10.3Z" fill="#9063CD"/>
<path fill-rule="evenodd" clip-rule="evenodd" d="M32.3649 8.00204C32.916 8.03698 33.3345 8.51213 33.2996 9.06331L31.0996 43.7633C31.0646 44.3145 30.5895 44.733 30.0383 44.698C29.4871 44.6631 29.0687 44.1879 29.1036 43.6368L31.3036 8.93676C31.3385 8.38558 31.8137 7.96709 32.3649 8.00204Z" fill="#9063CD"/>
<path fill-rule="evenodd" clip-rule="evenodd" d="M31.6442 8.24718C31.8439 8.07252 32.1049 7.98442 32.3696 8.00227L41.2696 8.60227C41.6543 8.6282 41.9898 8.87296 42.132 9.23136C42.2741 9.58975 42.1975 9.99793 41.9352 10.2805L39.8802 12.4935L41.6264 15.0335C41.8437 15.3495 41.8611 15.7619 41.6712 16.0951C41.4814 16.4283 41.1177 16.6235 40.7351 16.5977L31.8351 15.9977C31.2844 15.9606 30.8679 15.4843 30.9046 14.9335L31.3046 8.93348C31.3222 8.66872 31.4444 8.42184 31.6442 8.24718ZM33.2336 10.0651L32.9666 14.0695L38.8073 14.4632L37.7783 12.9665C37.5131 12.5808 37.551 12.0626 37.8696 11.7196L39.0423 10.4566L33.2336 10.0651Z" fill="#00C389"/>
<path fill-rule="evenodd" clip-rule="evenodd" d="M7.64498 3.0015C8.19645 2.97153 8.6678 3.39429 8.69777 3.94576L9.16769 12.5922L14.4823 15.5244C14.9659 15.7912 15.1416 16.3995 14.8748 16.8831C14.608 17.3667 13.9997 17.5424 13.5162 17.2756L7.71617 14.0756C7.41423 13.909 7.21943 13.5986 7.20072 13.2543L6.70072 4.05429C6.67075 3.50282 7.09351 3.03147 7.64498 3.0015Z" fill="#FDDA24"/>
<path fill-rule="evenodd" clip-rule="evenodd" d="M13.4057 15.5948C13.6441 15.4183 13.9485 15.3567 14.2368 15.4267L21.2368 17.1267C21.2726 17.1354 21.3079 17.1461 21.3425 17.1587L21.0008 18.0984C21.3425 17.1587 21.343 17.1588 21.3435 17.159L21.3446 17.1594L21.3468 17.1602L21.3519 17.1621L21.3645 17.1669C21.3741 17.1705 21.3857 17.1751 21.3994 17.1806C21.4267 17.1916 21.4621 17.2065 21.5041 17.2254C21.588 17.2631 21.7001 17.3178 21.8289 17.3916C22.0827 17.5369 22.4222 17.7681 22.7356 18.1077C23.0524 18.4509 23.352 18.9158 23.493 19.5147C23.634 20.1141 23.6008 20.7834 23.3513 21.5097L20.7561 29.8941C20.6079 30.3729 20.1281 30.6681 19.6339 30.5844L13.1339 29.4844C12.6312 29.3994 12.273 28.9497 12.3025 28.4407L13.0025 16.3407C13.0196 16.0446 13.1673 15.7713 13.4057 15.5948ZM20.6891 19.0518L14.9299 17.6531L14.3509 27.6619L19.1044 28.4664L21.4455 20.9028C21.4489 20.8918 21.4525 20.8808 21.4563 20.8699C21.6014 20.4529 21.5915 20.1655 21.5461 19.9728C21.4996 19.7748 21.3992 19.6085 21.266 19.4642C21.1294 19.3163 20.9689 19.2038 20.8352 19.1272C20.7738 19.0921 20.7227 19.0671 20.6891 19.0518Z" fill="#00C389"/>
</svg>
