<svg width="48" height="48" viewBox="0 0 48 48" fill="none" xmlns="http://www.w3.org/2000/svg">
<path fill-rule="evenodd" clip-rule="evenodd" d="M26.2299 25.3916C26.5659 24.9533 27.1936 24.8704 27.6319 25.2064C29.0654 26.3055 30.0035 28.0326 30.0035 30.0001V41.0001C30.0035 41.5523 29.5558 42.0001 29.0035 42.0001C28.4512 42.0001 28.0035 41.5523 28.0035 41.0001V30.0001C28.0035 28.6875 27.3815 27.5346 26.4151 26.7937C25.9768 26.4576 25.8939 25.8299 26.2299 25.3916Z" fill="#00CCEA"/>
<path fill-rule="evenodd" clip-rule="evenodd" d="M24 26C22.9391 26 21.9217 26.4214 21.1716 27.1716C20.4214 27.9217 20 28.9391 20 30V41C20 41.5523 19.5523 42 19 42C18.4477 42 18 41.5523 18 41V30C18 28.4087 18.6321 26.8826 19.7574 25.7574C20.8826 24.6321 22.4087 24 24 24C25.3672 24 26.613 24.4567 27.6139 25.1954C28.0582 25.5234 28.1525 26.1495 27.8246 26.5939C27.4966 27.0382 26.8705 27.1325 26.4261 26.8046C25.747 26.3033 24.9128 26 24 26Z" fill="#9063CD"/>
<path fill-rule="evenodd" clip-rule="evenodd" d="M23.2689 6.31769C23.6458 5.91393 24.2786 5.89211 24.6823 6.26895L39.6823 20.2689C39.885 20.4581 40 20.7228 40 21V27C40 27.5523 39.5523 28 39 28C38.4477 28 38 27.5523 38 27V21.4346L23.3177 7.73106C22.9139 7.35423 22.8921 6.72144 23.2689 6.31769Z" fill="#F5B6CD"/>
<path fill-rule="evenodd" clip-rule="evenodd" d="M39 26C39.5523 26 40 26.4477 40 27V39C40 40.6523 38.6523 42 37 42H21C20.4477 42 20 41.5523 20 41C20 40.4477 20.4477 40 21 40H37C37.5477 40 38 39.5477 38 39V27C38 26.4477 38.4477 26 39 26Z" fill="#FDDA24"/>
<path fill-rule="evenodd" clip-rule="evenodd" d="M9 26.3984C9.55228 26.3984 10 26.8462 10 27.3984V38.9984C10 39.5462 10.4523 39.9984 11 39.9984H21C21.5523 39.9984 22 40.4462 22 40.9984C22 41.5507 21.5523 41.9984 21 41.9984H11C9.34772 41.9984 8 40.6507 8 38.9984V27.3984C8 26.8462 8.44772 26.3984 9 26.3984Z" fill="#00C389"/>
<path fill-rule="evenodd" clip-rule="evenodd" d="M24.7311 6.31769C25.1079 6.72144 25.0861 7.35423 24.6823 7.73106L10 21.4346V27.4C10 27.9523 9.55228 28.4 9 28.4C8.44772 28.4 8 27.9523 8 27.4V21C8 20.7228 8.11505 20.4581 8.31768 20.2689L23.3177 6.26895C23.7214 5.89211 24.3542 5.91393 24.7311 6.31769Z" fill="#FF7F37"/>
</svg>
