<svg width="48" height="48" viewBox="0 0 48 48" fill="none" xmlns="http://www.w3.org/2000/svg">
<path fill-rule="evenodd" clip-rule="evenodd" d="M26.1566 8.21857C19.6697 6.87018 14.0001 11.761 14.0001 17.9995V18.0035H14.0001C13.9899 20.5604 14.973 23.0215 16.7421 24.8676C17.1242 25.2664 17.1107 25.8994 16.712 26.2815C16.3132 26.6636 15.6802 26.6501 15.2981 26.2514C13.1707 24.0314 11.9883 21.0722 12.0001 17.9975C12.0013 10.517 18.8111 4.64896 26.5636 6.26043C27.1043 6.37283 27.4516 6.90229 27.3392 7.44301C27.2268 7.98374 26.6973 8.33097 26.1566 8.21857Z" fill="#00C389"/>
<path fill-rule="evenodd" clip-rule="evenodd" d="M32.9801 24.449C33.3966 24.8116 33.4403 25.4433 33.0776 25.8598C32.76 26.2246 32.4441 26.5712 32.1597 26.8834C31.9933 27.0661 31.8376 27.2369 31.6987 27.3926C31.3017 27.8376 30.9909 28.2131 30.7448 28.5925C30.2841 29.3025 30.0034 30.0939 30.0034 31.4631V33.0031C30.0034 33.5554 29.5557 34.0031 29.0034 34.0031H19.0034C18.4512 34.0031 18.0034 33.5554 18.0034 33.0031V31.4431C18.0034 30.1212 17.7837 29.3625 17.4006 28.7086C17.0153 28.0508 16.4482 27.4567 15.5562 26.5222C15.4734 26.4354 15.3878 26.3457 15.2993 26.2528C14.9184 25.8529 14.9339 25.2199 15.3338 24.839C15.7337 24.4581 16.3667 24.4736 16.7476 24.8735C16.8455 24.9764 16.9424 25.0776 17.038 25.1774C17.8768 26.0539 18.6156 26.8258 19.1263 27.6977C19.7332 28.7338 20.0034 29.8651 20.0034 31.4431V32.0031H28.0034V31.4631C28.0034 29.7524 28.3728 28.5737 29.0671 27.5038C29.3984 26.9931 29.7914 26.5262 30.2063 26.0612C30.3754 25.8716 30.5423 25.6886 30.7129 25.5016C30.9816 25.207 31.2594 24.9024 31.5693 24.5465C31.9319 24.13 32.5636 24.0863 32.9801 24.449Z" fill="#F5B6CD"/>
<path fill-rule="evenodd" clip-rule="evenodd" d="M25.3803 7.04009C25.492 6.49922 26.021 6.15134 26.5619 6.26306C31.2259 7.22653 34.9088 11.0459 35.7824 15.6978L35.783 15.7011C36.5003 19.5918 35.3461 23.2153 33.0779 25.8542C32.718 26.2731 32.0866 26.3208 31.6678 25.9608C31.2489 25.6008 31.2012 24.9694 31.5612 24.5506C33.4527 22.3499 34.4185 19.334 33.8165 16.0654C33.0895 12.198 30.0127 9.01813 26.1573 8.22171C25.6164 8.10998 25.2685 7.58095 25.3803 7.04009Z" fill="#FDDA24"/>
<path fill-rule="evenodd" clip-rule="evenodd" d="M24 12C20.6923 12 18 14.6923 18 18C18 18.5523 17.5523 19 17 19C16.4477 19 16 18.5523 16 18C16 13.5877 19.5877 10 24 10C24.5523 10 25 10.4477 25 11C25 11.5523 24.5523 12 24 12Z" fill="#FF7F37"/>
<path fill-rule="evenodd" clip-rule="evenodd" d="M18 37C18 36.4477 18.4477 36 19 36H29C29.5523 36 30 36.4477 30 37C30 37.5523 29.5523 38 29 38H19C18.4477 38 18 37.5523 18 37Z" fill="#9063CD"/>
<path fill-rule="evenodd" clip-rule="evenodd" d="M18 41C18 40.4477 18.4477 40 19 40H29C29.5523 40 30 40.4477 30 41C30 41.5523 29.5523 42 29 42H19C18.4477 42 18 41.5523 18 41Z" fill="#00CCEA"/>
</svg>
