<svg width="48" height="48" viewBox="0 0 48 48" fill="none" xmlns="http://www.w3.org/2000/svg">
<path fill-rule="evenodd" clip-rule="evenodd" d="M23 36C23.5523 36 24 36.4477 24 37V42H31C31.5523 42 32 42.4477 32 43C32 43.5523 31.5523 44 31 44H15C14.4477 44 14 43.5523 14 43C14 42.4477 14.4477 42 15 42H22V37C22 36.4477 22.4477 36 23 36Z" fill="#FF7F37"/>
<path fill-rule="evenodd" clip-rule="evenodd" d="M23 6C15.8123 6 10 11.8123 10 19L10 19.0015C9.99502 22.2628 11.2217 25.4058 13.4346 27.8015C13.8093 28.2072 13.7842 28.8398 13.3785 29.2146C12.9728 29.5893 12.3402 29.5642 11.9654 29.1585C9.41069 26.3927 7.99445 22.7644 8.00002 18.9992C8.00043 10.7073 14.708 4 23 4C23.5523 4 24 4.44772 24 5C24 5.55228 23.5523 6 23 6ZM8.00002 18.9992C8.00002 18.999 8.00002 18.9987 8.00002 18.9985L9.00002 19H8.00002C8.00002 18.9997 8.00002 18.9995 8.00002 18.9992Z" fill="#FDDA24"/>
<path fill-rule="evenodd" clip-rule="evenodd" d="M36.7083 22.0418C37.2377 22.1993 37.5391 22.7561 37.3816 23.2855C35.5389 29.4778 29.7977 34.0003 23.0031 34.0003C18.6317 34.0003 14.7086 32.1344 11.9675 29.1577C11.5934 28.7514 11.6195 28.1188 12.0257 27.7446C12.432 27.3705 13.0646 27.3966 13.4387 27.8029C15.8176 30.3862 19.2146 32.0003 23.0031 32.0003C28.8886 32.0003 33.8674 28.0827 35.4647 22.715C35.6222 22.1857 36.179 21.8843 36.7083 22.0418Z" fill="#9063CD"/>
<path fill-rule="evenodd" clip-rule="evenodd" d="M22 5C22 4.44772 22.4477 4 23 4C31.2923 4 38 10.7077 38 19C38 20.4959 37.7862 21.9333 37.3774 23.2887C37.2179 23.8175 36.66 24.1169 36.1313 23.9574C35.6025 23.7979 35.3031 23.24 35.4626 22.7113C35.8138 21.5467 36 20.3041 36 19C36 11.8123 30.1877 6 23 6C22.4477 6 22 5.55228 22 5Z" fill="#00C389"/>
<path fill-rule="evenodd" clip-rule="evenodd" d="M38.221 28.6643C38.6697 28.9864 38.7722 29.6112 38.4501 30.0598C37.8592 30.883 37.1841 31.6845 36.4249 32.4437C29.0138 39.8548 16.9815 39.8534 9.55171 32.4448C9.16063 32.0548 9.15973 31.4216 9.5497 31.0305C9.93967 30.6395 10.5728 30.6386 10.9639 31.0285C17.6142 37.6599 28.3818 37.6585 35.0107 31.0295C35.6915 30.3487 36.2964 29.6303 36.8255 28.8934C37.1476 28.4448 37.7724 28.3422 38.221 28.6643Z" fill="#F5B6CD"/>
<path fill-rule="evenodd" clip-rule="evenodd" d="M35.0116 5.57414C35.4022 5.18362 36.0353 5.18362 36.4259 5.57414C43.0976 12.2459 43.7718 22.6323 38.4519 30.0634C38.1304 30.5124 37.5057 30.6158 37.0566 30.2944C36.6076 29.9729 36.5041 29.3482 36.8256 28.8991C41.5856 22.2502 40.9799 12.9566 35.0116 6.98836C34.6211 6.59783 34.6211 5.96467 35.0116 5.57414Z" fill="#00CCEA"/>
</svg>
