<svg width="48" height="48" viewBox="0 0 48 48" fill="none" xmlns="http://www.w3.org/2000/svg">
<path fill-rule="evenodd" clip-rule="evenodd" d="M39 34C39.5523 34 40 34.4477 40 35V40C40 42.2123 38.2123 44 36 44H15C14.4477 44 14 43.5523 14 43V37C14 36.4477 14.4477 36 15 36C15.5523 36 16 36.4477 16 37V42H36C37.1077 42 38 41.1077 38 40V35C38 34.4477 38.4477 34 39 34Z" fill="#FDDA24"/>
<path fill-rule="evenodd" clip-rule="evenodd" d="M32 9C32 8.44772 32.4477 8 33 8H39C39.5523 8 40 8.44772 40 9V35C40 35.5523 39.5523 36 39 36C38.4477 36 38 35.5523 38 35V10H33C32.4477 10 32 9.55228 32 9Z" fill="#00CCEA"/>
<path fill-rule="evenodd" clip-rule="evenodd" d="M16.2929 4.29289C16.4804 4.10536 16.7348 4 17 4H33C33.5523 4 34 4.44772 34 5C34 5.55228 33.5523 6 33 6H17.4142L10 13.4142V36H15C15.5523 36 16 36.4477 16 37C16 37.5523 15.5523 38 15 38H9C8.44772 38 8 37.5523 8 37V13C8 12.7348 8.10536 12.4804 8.29289 12.2929L16.2929 4.29289Z" fill="#FF7F37"/>
<path fill-rule="evenodd" clip-rule="evenodd" d="M33 4C33.5523 4 34 4.44772 34 5V34C34 36.2123 32.2123 38 30 38H15C14.4477 38 14 37.5523 14 37C14 36.4477 14.4477 36 15 36H30C31.1077 36 32 35.1077 32 34V5C32 4.44772 32.4477 4 33 4Z" fill="#00C389"/>
<path fill-rule="evenodd" clip-rule="evenodd" d="M17 4C17.5523 4 18 4.44772 18 5V13C18 13.5523 17.5523 14 17 14H9C8.44772 14 8 13.5523 8 13C8 12.4477 8.44772 12 9 12H16V5C16 4.44772 16.4477 4 17 4Z" fill="#F5B6CD"/>
<path fill-rule="evenodd" clip-rule="evenodd" d="M21 13.9766C21.5523 13.9766 22 14.4243 22 14.9766V16.1021C23.727 16.5452 25 18.1097 25 19.9766C25 20.5288 24.5523 20.9766 24 20.9766C23.4477 20.9766 23 20.5288 23 19.9766C23 18.8688 22.1077 17.9766 21 17.9766C19.8923 17.9766 19 18.8688 19 19.9766C19 21.0843 19.8923 21.9766 21 21.9766C23.2123 21.9766 25 23.7643 25 25.9766C25 27.8434 23.727 29.408 22 29.851V30.9766C22 31.5288 21.5523 31.9766 21 31.9766C20.4477 31.9766 20 31.5288 20 30.9766V29.851C18.273 29.408 17 27.8434 17 25.9766C17 25.4243 17.4477 24.9766 18 24.9766C18.5523 24.9766 19 25.4243 19 25.9766C19 27.0843 19.8923 27.9766 21 27.9766C22.1077 27.9766 23 27.0843 23 25.9766C23 24.8688 22.1077 23.9766 21 23.9766C18.7877 23.9766 17 22.1888 17 19.9766C17 18.1097 18.273 16.5452 20 16.1021V14.9766C20 14.4243 20.4477 13.9766 21 13.9766Z" fill="#9063CD"/>
</svg>
