<svg width="48" height="48" viewBox="0 0 48 48" fill="none" xmlns="http://www.w3.org/2000/svg">
<path fill-rule="evenodd" clip-rule="evenodd" d="M28.2929 32.2929C28.6834 31.9024 29.3166 31.9024 29.7071 32.2929L33.7071 36.2929C34.0976 36.6834 34.0976 37.3166 33.7071 37.7071C33.3166 38.0976 32.6834 38.0976 32.2929 37.7071L29 34.4142L25.7071 37.7071C25.3166 38.0976 24.6834 38.0976 24.2929 37.7071C23.9024 37.3166 23.9024 36.6834 24.2929 36.2929L28.2929 32.2929Z" fill="#FDDA24"/>
<path fill-rule="evenodd" clip-rule="evenodd" d="M29 33C29.5523 33 30 33.4477 30 34V35C30 39.9723 25.9723 44 21 44C16.0277 44 12 39.9723 12 35C12 34.4477 12.4477 34 13 34C13.5523 34 14 34.4477 14 35C14 38.8677 17.1323 42 21 42C24.8677 42 28 38.8677 28 35V34C28 33.4477 28.4477 33 29 33Z" fill="#FDDA24"/>
<path fill-rule="evenodd" clip-rule="evenodd" d="M14.2929 10.2929C14.6834 9.90237 15.3166 9.90237 15.7071 10.2929L19 13.5858L22.2929 10.2929C22.6834 9.90237 23.3166 9.90237 23.7071 10.2929C24.0976 10.6834 24.0976 11.3166 23.7071 11.7071L19.7071 15.7071C19.3166 16.0976 18.6834 16.0976 18.2929 15.7071L14.2929 11.7071C13.9024 11.3166 13.9024 10.6834 14.2929 10.2929Z" fill="#00CCEA"/>
<path fill-rule="evenodd" clip-rule="evenodd" d="M18 13C18 8.02772 22.0277 4 27 4C31.9723 4 36 8.02772 36 13C36 13.5523 35.5523 14 35 14C34.4477 14 34 13.5523 34 13C34 9.13228 30.8677 6 27 6C23.1323 6 20 9.13228 20 13V14C20 14.5523 19.5523 15 19 15C18.4477 15 18 14.5523 18 14V13Z" fill="#00CCEA"/>
<path fill-rule="evenodd" clip-rule="evenodd" d="M6 13C6 12.4477 6.44772 12 7 12H11C11.5523 12 12 12.4477 12 13C12 13.5523 11.5523 14 11 14H8V34H21C21.5523 34 22 34.4477 22 35C22 35.5523 21.5523 36 21 36H7C6.44772 36 6 35.5523 6 35V13Z" fill="#FF7F37"/>
<path fill-rule="evenodd" clip-rule="evenodd" d="M26 13C26 12.4477 26.4477 12 27 12H41C41.5523 12 42 12.4477 42 13V35C42 35.5523 41.5523 36 41 36H37C36.4477 36 36 35.5523 36 35C36 34.4477 36.4477 34 37 34H40V14H27C26.4477 14 26 13.5523 26 13Z" fill="#00C389"/>
<path fill-rule="evenodd" clip-rule="evenodd" d="M24 20C21.7909 20 20 21.7909 20 24C20 26.2091 21.7909 28 24 28C26.2091 28 28 26.2091 28 24C28 21.7909 26.2091 20 24 20ZM18 24C18 20.6863 20.6863 18 24 18C27.3137 18 30 20.6863 30 24C30 27.3137 27.3137 30 24 30C20.6863 30 18 27.3137 18 24Z" fill="#9063CD"/>
<path fill-rule="evenodd" clip-rule="evenodd" d="M10 17C10 16.4477 10.4477 16 11 16H15C15.5523 16 16 16.4477 16 17V31C16 31.5523 15.5523 32 15 32H11C10.4477 32 10 31.5523 10 31V17ZM12 18V30H14V18H12ZM32 17C32 16.4477 32.4477 16 33 16H37C37.5523 16 38 16.4477 38 17V31C38 31.5523 37.5523 32 37 32H33C32.4477 32 32 31.5523 32 31C32 30.4477 32.4477 30 33 30H36V18H33C32.4477 18 32 17.5523 32 17Z" fill="#F5B6CD"/>
</svg>
