<svg width="48" height="48" viewBox="0 0 48 48" fill="none" xmlns="http://www.w3.org/2000/svg">
<path fill-rule="evenodd" clip-rule="evenodd" d="M32 8C29.9603 8 28.0929 8.77959 26.6638 10.0479C26.2507 10.4145 25.6187 10.3769 25.2521 9.96378C24.8855 9.55072 24.9231 8.91867 25.3362 8.55208C27.1071 6.98041 29.4397 6 32 6H41C41.5523 6 42 6.44772 42 7V8C42 13.5323 37.5323 18 32 18H23C22.4477 18 22 17.5523 22 17C22 16.4477 22.4477 16 23 16H32C36.4277 16 40 12.4277 40 8H32Z" fill="#FF7F37"/>
<path fill-rule="evenodd" clip-rule="evenodd" d="M22 41C22 40.4477 22.4477 40 23 40H41C41.5523 40 42 40.4477 42 41C42 41.5523 41.5523 42 41 42H23C22.4477 42 22 41.5523 22 41Z" fill="#FDDA24"/>
<path fill-rule="evenodd" clip-rule="evenodd" d="M6 41C6 40.4477 6.44772 40 7 40H23C23.5523 40 24 40.4477 24 41C24 41.5523 23.5523 42 23 42H7C6.44772 42 6 41.5523 6 41Z" fill="#F5B6CD"/>
<path fill-rule="evenodd" clip-rule="evenodd" d="M23 16C23.5523 16 24 16.4477 24 17V35C24 35.5523 23.5523 36 23 36C22.4477 36 22 35.5523 22 35V17C22 16.4477 22.4477 16 23 16Z" fill="#00CCEA"/>
<path fill-rule="evenodd" clip-rule="evenodd" d="M23 26C23.5523 26 24 26.4477 24 27V41C24 41.5523 23.5523 42 23 42C22.4477 42 22 41.5523 22 41V27C22 26.4477 22.4477 26 23 26Z" fill="#F5B6CD"/>
<path fill-rule="evenodd" clip-rule="evenodd" d="M26.7465 8.63151C27.114 9.0438 27.0777 9.67592 26.6654 10.0434C25.0301 11.5009 24 13.6327 24 15.9969V16.9969C24 17.5492 23.5523 17.9969 23 17.9969C22.4477 17.9969 22 17.5492 22 16.9969V15.9969C22 13.041 23.2899 10.3729 25.3346 8.55037C25.7469 8.1829 26.379 8.21923 26.7465 8.63151Z" fill="#00CCEA"/>
<path fill-rule="evenodd" clip-rule="evenodd" d="M28 30C26.9391 30 25.9217 30.4214 25.1716 31.1716C24.4214 31.9217 24 32.9391 24 34H28C29.0609 34 30.0783 33.5786 30.8284 32.8284C31.5786 32.0783 32 31.0609 32 30H28ZM28 36H23C22.4477 36 22 35.5523 22 35V34C22 32.4087 22.6321 30.8826 23.7574 29.7574C24.8826 28.6321 26.4087 28 28 28H33C33.5523 28 34 28.4477 34 29V30C34 31.5913 33.3679 33.1174 32.2426 34.2426C31.1174 35.3679 29.5913 36 28 36Z" fill="#00C389"/>
<path fill-rule="evenodd" clip-rule="evenodd" d="M8 19C8 18.4477 8.44772 18 9 18H16C20.4123 18 24 21.5877 24 26V27C24 27.5523 23.5523 28 23 28H16C11.5877 28 8 24.4123 8 20V19ZM10 20C10 23.3077 12.6923 26 16 26H22C22 22.6923 19.3077 20 16 20H10Z" fill="#9063CD"/>
</svg>
