<svg width="48" height="48" viewBox="0 0 48 48" fill="none" xmlns="http://www.w3.org/2000/svg">
<path fill-rule="evenodd" clip-rule="evenodd" d="M14 32C12.8954 32 12 32.8954 12 34C12 35.1046 12.8954 36 14 36C15.1046 36 16 35.1046 16 34C16 32.8954 15.1046 32 14 32ZM10 34C10 31.7909 11.7909 30 14 30C16.2091 30 18 31.7909 18 34C18 36.2091 16.2091 38 14 38C11.7909 38 10 36.2091 10 34Z" fill="#FF7F37"/>
<path fill-rule="evenodd" clip-rule="evenodd" d="M32.9981 16C33.5504 16 33.9981 16.4477 33.9981 17V21C33.9981 21.5523 33.5504 22 32.9981 22H29.9981V25C29.9981 25.2652 29.8928 25.5196 29.7052 25.7071L25.2852 30.1271C24.8947 30.5176 24.2615 30.5176 23.871 30.1271C23.4805 29.7366 23.4805 29.1034 23.871 28.7129L27.9981 24.5858V21C27.9981 20.4477 28.4458 20 28.9981 20H31.9981V17C31.9981 16.4477 32.4458 16 32.9981 16Z" fill="#F5B6CD"/>
<path fill-rule="evenodd" clip-rule="evenodd" d="M24.2887 28.4657C24.817 28.3045 25.3759 28.602 25.5371 29.1302C26.0634 30.8549 26.1119 32.6901 25.6773 34.4401C25.2428 36.1902 24.3414 37.7895 23.0694 39.0676L23.0689 39.0681C22.1417 39.9982 21.0401 40.7362 19.8272 41.2398C18.6143 41.7433 17.3139 42.0025 16.0006 42.0025C14.6873 42.0025 13.387 41.7433 12.174 41.2398C10.9611 40.7362 9.85953 39.9982 8.93238 39.0681C8.54249 38.677 8.5435 38.0438 8.93465 37.6539C9.3258 37.264 9.95897 37.265 10.3489 37.6562C11.0902 38.3999 11.9711 38.99 12.9409 39.3926C13.9107 39.7953 14.9505 40.0025 16.0006 40.0025C17.0507 40.0025 18.0905 39.7953 19.0604 39.3926C20.03 38.9901 20.9106 38.4002 21.6518 37.6567C22.6685 36.6352 23.3889 35.3569 23.7363 33.9581C24.0836 32.5593 24.0449 31.0925 23.6242 29.714C23.463 29.1858 23.7605 28.6269 24.2887 28.4657Z" fill="#FDDA24"/>
<path fill-rule="evenodd" clip-rule="evenodd" d="M8.93238 24.9339C11.6322 22.2132 15.4822 21.445 18.8866 22.4619C19.4158 22.62 19.7166 23.1771 19.5585 23.7063C19.4005 24.2355 18.8434 24.5363 18.3142 24.3782C15.5594 23.5554 12.4904 24.1865 10.3504 26.3443L10.3464 26.3483L10.3463 26.3483C9.60262 27.0897 9.01253 27.9705 8.60989 28.9404C8.20726 29.9102 8 30.95 8 32.0001C8 33.0502 8.20726 34.09 8.60989 35.0598C9.01253 36.0297 9.60262 36.9105 10.3463 37.6518C10.7375 38.0417 10.7385 38.6749 10.3486 39.066C9.95872 39.4572 9.32556 39.4582 8.93441 39.0683C8.00428 38.1412 7.2663 37.0396 6.76275 35.8267C6.2592 34.6137 6 33.3134 6 32.0001C6 30.6868 6.2592 29.3864 6.76275 28.1735C7.26593 26.9615 8.00321 25.8606 8.93238 24.9339Z" fill="#00CCEA"/>
<path fill-rule="evenodd" clip-rule="evenodd" d="M35.8125 6.39834C36.2009 6.791 36.1974 7.42416 35.8048 7.81254L19.3048 24.1325C18.9121 24.5209 18.279 24.5174 17.8906 24.1248C17.5022 23.7321 17.5057 23.099 17.8983 22.7106L34.3983 6.39059C34.791 6.00221 35.4242 6.00568 35.8125 6.39834Z" fill="#9063CD"/>
<path fill-rule="evenodd" clip-rule="evenodd" d="M34.1 7.10156C34.1 6.54928 34.5477 6.10156 35.1 6.10156H41C41.5523 6.10156 42 6.54928 42 7.10156V13.0016C42 13.5538 41.5523 14.0016 41 14.0016H38V17.0016C38 17.5538 37.5523 18.0016 37 18.0016H33C32.4477 18.0016 32 17.5538 32 17.0016C32 16.4493 32.4477 16.0016 33 16.0016H36V13.0016C36 12.4493 36.4477 12.0016 37 12.0016H40V8.10156H35.1C34.5477 8.10156 34.1 7.65385 34.1 7.10156Z" fill="#00C389"/>
</svg>
