<svg width="48" height="48" viewBox="0 0 48 48" fill="none" xmlns="http://www.w3.org/2000/svg">
<path fill-rule="evenodd" clip-rule="evenodd" d="M13 26C12.4477 26 12 26.4477 12 27C12 27.5523 12.4477 28 13 28C13.5523 28 14 27.5523 14 27C14 26.4477 13.5523 26 13 26ZM10 27C10 25.3431 11.3431 24 13 24C14.6569 24 16 25.3431 16 27C16 28.6569 14.6569 30 13 30C11.3431 30 10 28.6569 10 27Z" fill="#FF7F37"/>
<path fill-rule="evenodd" clip-rule="evenodd" d="M6 21C6 20.4477 6.44772 20 7 20H19C19.5523 20 20 20.4477 20 21C20 21.5523 19.5523 22 19 22H8V41C8 41.5523 7.55228 42 7 42C6.44772 42 6 41.5523 6 41V21Z" fill="#9063CD"/>
<path fill-rule="evenodd" clip-rule="evenodd" d="M26 8.03043V15.0034C26 16.9641 25.1981 18.7339 23.9037 20.0034H30V11.4834C30 10.5175 29.6121 9.65427 28.9817 9.03922L28.9606 9.01804C28.2419 8.27371 27.1817 7.85996 26 8.03043ZM20 22.0034V31.0034C20 31.5557 19.5523 32.0034 19 32.0034C18.4477 32.0034 18 31.5557 18 31.0034V21.0034C18 20.4512 18.4477 20.0034 19 20.0034C21.7677 20.0034 24 17.7712 24 15.0034V7.24344C24 6.8118 24.277 6.42887 24.6869 6.29372C26.869 5.57434 29.0042 6.19183 30.389 7.61811C31.3922 8.60234 32 9.97468 32 11.4834V20.0034H35.18C35.7323 20.0034 36.18 20.4512 36.18 21.0034C36.18 21.5557 35.7323 22.0034 35.18 22.0034H20Z" fill="#00C389"/>
<path fill-rule="evenodd" clip-rule="evenodd" d="M32 21C32 20.4477 32.4477 20 33 20H40C41.0792 20 42 20.8748 42 22V32C42 34.084 41.3777 35.9995 40.2867 37.6026C39.976 38.0592 39.354 38.1774 38.8974 37.8667C38.4408 37.556 38.3226 36.934 38.6333 36.4774C39.5023 35.2005 40 33.676 40 32V22H33C32.4477 22 32 21.5523 32 21Z" fill="#00CCEA"/>
<path fill-rule="evenodd" clip-rule="evenodd" d="M40.0188 36.2099C40.4768 36.5185 40.5979 37.14 40.2893 37.598C39.3745 38.9555 38.1397 40.0671 36.6937 40.8347C35.248 41.6021 33.6357 42.002 31.999 41.9992C31.9987 41.9992 31.9993 41.9992 31.999 41.9992H19C18.4477 41.9992 18 41.5514 18 40.9992C18 40.4469 18.4477 39.9992 19 39.9992H32C33.3088 40.0015 34.5999 39.6818 35.756 39.0681C36.912 38.4545 37.8993 37.5657 38.6307 36.4803C38.9393 36.0223 39.5608 35.9012 40.0188 36.2099Z" fill="#FDDA24"/>
<path fill-rule="evenodd" clip-rule="evenodd" d="M19 29C19.5523 29 20 29.4477 20 30V41C20 41.5523 19.5523 42 19 42H7C6.44772 42 6 41.5523 6 41C6 40.4477 6.44772 40 7 40H18V30C18 29.4477 18.4477 29 19 29Z" fill="#F5B6CD"/>
</svg>
