<svg width="48" height="48" viewBox="0 0 48 48" fill="none" xmlns="http://www.w3.org/2000/svg">
<path fill-rule="evenodd" clip-rule="evenodd" d="M11.9766 14C10.8688 14 9.97656 14.8923 9.97656 16V30C9.97656 31.9414 10.4388 33.7837 11.2648 35.3806C11.5185 35.8711 11.3265 36.4745 10.836 36.7282C10.3454 36.982 9.74208 36.79 9.48835 36.2994C8.51432 34.4163 7.97656 32.2586 7.97656 30V16C7.97656 13.7877 9.76428 12 11.9766 12C14.1888 12 15.9766 13.7877 15.9766 16V17C15.9766 17.5523 15.5288 18 14.9766 18C14.4243 18 13.9766 17.5523 13.9766 17V16C13.9766 14.8923 13.0843 14 11.9766 14Z" fill="#FF7F37"/>
<path fill-rule="evenodd" clip-rule="evenodd" d="M9.91406 34.9423C10.4077 34.6947 11.0087 34.8941 11.2563 35.3878C12.2539 37.3766 13.7857 39.0482 15.68 40.2154C17.5742 41.3826 19.7561 41.9992 21.9811 41.9962L21.9824 41.9962L23.9824 41.9962C27.6597 41.9962 30.9999 40.5787 33.5033 38.2622C33.9086 37.8871 34.5413 37.9116 34.9164 38.317C35.2915 38.7223 35.267 39.355 34.8616 39.7301C32.005 42.3736 28.1851 43.9962 23.9824 43.9962L21.9838 43.9962" fill="#00C389"/>
<path fill-rule="evenodd" clip-rule="evenodd" d="M37.9766 18C36.9157 18 35.8983 18.4214 35.1481 19.1716C34.398 19.9217 33.9766 20.9391 33.9766 22C33.9766 22.5523 33.5288 23 32.9766 23C32.4243 23 31.9766 22.5523 31.9766 22C31.9766 20.4087 32.6087 18.8826 33.7339 17.7574C34.8591 16.6321 36.3853 16 37.9766 16H38.9766C39.5288 16 39.9766 16.4477 39.9766 17V28C39.9766 32.6312 37.991 36.812 34.8583 39.7316C34.4543 40.1081 33.8216 40.0858 33.445 39.6818C33.0685 39.2778 33.0908 38.645 33.4948 38.2684C36.2421 35.708 37.9766 32.0488 37.9766 28V18Z" fill="#9063CD"/>
<path fill-rule="evenodd" clip-rule="evenodd" d="M17.9766 8C16.8688 8 15.9766 8.89228 15.9766 10V25C15.9766 25.5523 15.5288 26 14.9766 26C14.4243 26 13.9766 25.5523 13.9766 25V10C13.9766 7.78772 15.7643 6 17.9766 6C20.1888 6 21.9766 7.78772 21.9766 10V17C21.9766 17.5523 21.5288 18 20.9766 18C20.4243 18 19.9766 17.5523 19.9766 17V10C19.9766 8.89228 19.0843 8 17.9766 8Z" fill="#F5B6CD"/>
<path fill-rule="evenodd" clip-rule="evenodd" d="M19.9766 8C19.9766 5.78772 21.7643 4 23.9766 4C26.1888 4 27.9766 5.78772 27.9766 8V25C27.9766 25.5523 27.5288 26 26.9766 26C26.4243 26 25.9766 25.5523 25.9766 25V8C25.9766 6.89228 25.0843 6 23.9766 6C22.8688 6 21.9766 6.89228 21.9766 8V25C21.9766 25.5523 21.5288 26 20.9766 26C20.4243 26 19.9766 25.5523 19.9766 25V8Z" fill="#00CCEA"/>
<path fill-rule="evenodd" clip-rule="evenodd" d="M29.9766 8C28.8688 8 27.9766 8.89228 27.9766 10V25C27.9766 25.5523 27.5288 26 26.9766 26C26.4243 26 25.9766 25.5523 25.9766 25V10C25.9766 7.78772 27.7643 6 29.9766 6C32.1888 6 33.9766 7.78772 33.9766 10V25C33.9766 25.5523 33.5288 26 32.9766 26C32.4243 26 31.9766 25.5523 31.9766 25V10C31.9766 8.89228 31.0843 8 29.9766 8Z" fill="#FDDA24"/>
</svg>
