<svg width="48" height="48" viewBox="0 0 48 48" fill="none" xmlns="http://www.w3.org/2000/svg">
<path fill-rule="evenodd" clip-rule="evenodd" d="M16.8971 7.95442C15.8091 7.95442 14.9271 8.83642 14.9271 9.92441V26.6699C14.9271 27.2139 14.4861 27.6549 13.9421 27.6549C13.398 27.6549 12.957 27.2139 12.957 26.6699V9.92441C12.957 7.74839 14.721 5.98438 16.8971 5.98438C19.0731 5.98438 20.8372 7.74839 20.8372 9.92441L20.8229 26.6707C20.8224 27.2147 20.381 27.6554 19.837 27.6549C19.293 27.6544 18.8524 27.213 18.8528 26.669L18.8672 9.92441C18.8672 9.92432 18.8672 9.9245 18.8672 9.92441C18.867 8.83654 17.985 7.95442 16.8971 7.95442Z" fill="#9063CD"/>
<path fill-rule="evenodd" clip-rule="evenodd" d="M18.8646 9.92414C18.8644 8.83624 17.9824 7.95442 16.8945 7.95442V5.98438C19.0705 5.98438 20.8347 7.74837 20.8347 9.92454L20.8202 26.6707C20.8198 27.2147 20.3784 27.6554 19.8344 27.6549C19.2903 27.6544 18.8497 27.213 18.8502 26.669L18.8646 9.92414Z" fill="#00C389"/>
<path fill-rule="evenodd" clip-rule="evenodd" d="M22.8061 5.98567C21.718 5.98567 20.8359 6.86777 20.8359 7.95579L20.8345 9.87159C20.8355 9.88983 20.836 9.90819 20.8359 9.92668L20.8216 26.6721C20.8211 27.2161 20.3798 27.6568 19.8358 27.6563C19.2918 27.6559 18.8511 27.2145 18.8516 26.6705L18.8659 7.95579C18.8663 5.78015 20.6301 4.01562 22.8061 4.01562C24.9821 4.01562 26.7461 5.77983 26.7461 7.95579L26.7461 26.6705C26.7461 27.2143 26.3053 27.6561 25.7615 27.6563C25.2176 27.6566 24.7765 27.216 24.776 26.6721L24.7617 9.92668C24.7617 9.86898 24.7666 9.81243 24.776 9.75744V7.95579C24.776 6.86774 23.894 5.98567 22.8061 5.98567Z" fill="#00C389"/>
<path fill-rule="evenodd" clip-rule="evenodd" d="M26.7318 9.92441C26.7318 9.92453 26.7318 9.92428 26.7318 9.92441L26.7461 26.669C26.7466 27.213 26.3059 27.6544 25.7619 27.6549C25.2179 27.6554 24.7765 27.2147 24.7761 26.6707L24.7617 9.92525C24.7617 7.74924 26.5257 5.98438 28.7018 5.98438C30.8779 5.98438 32.6419 7.74837 32.6419 9.92441V12.43C33.2247 12.0896 33.9027 11.8945 34.6264 11.8945C36.8024 11.8945 38.5664 13.6585 38.5664 15.8346C38.5664 16.3786 38.1254 16.8196 37.5814 16.8196C37.0374 16.8196 36.5963 16.3786 36.5963 15.8346C36.5963 14.7466 35.7143 13.8646 34.6264 13.8646C33.5382 13.8646 32.6562 14.7466 32.6562 15.8346V24.6998C32.6562 25.2438 32.2152 25.6849 31.6712 25.6849H31.6569C31.1129 25.6849 30.6719 25.2438 30.6719 24.6998V9.92441C30.6719 8.83645 29.7899 7.95442 28.7018 7.95442C27.6139 7.95442 26.732 8.8366 26.7318 9.92441Z" fill="#FDDA24"/>
<path fill-rule="evenodd" clip-rule="evenodd" d="M34.6264 13.8646C33.5382 13.8646 32.6563 14.7466 32.6563 15.8346V24.6998C32.6563 25.2439 32.2152 25.6849 31.6712 25.6849H31.6569C31.1129 25.6849 30.6719 25.2439 30.6719 24.6998C30.6719 24.6424 30.6768 24.5862 30.6862 24.5315V15.8346C30.6862 13.6585 32.4503 11.8945 34.6264 11.8945C36.8024 11.8945 38.5664 13.6585 38.5664 15.8346V29.625C38.5664 30.169 38.1254 30.6101 37.5814 30.6101C37.0374 30.6101 36.5964 30.169 36.5964 29.625V15.8346C36.5964 14.7466 35.7144 13.8646 34.6264 13.8646Z" fill="#F5B6CD"/>
<path fill-rule="evenodd" clip-rule="evenodd" d="M37.5805 28.6406C38.1246 28.6406 38.5656 29.0816 38.5656 29.6256C38.5656 37.2419 32.3914 43.416 24.7752 43.416H22.8051C19.6979 43.416 16.8282 42.3871 14.5218 40.652C14.0871 40.325 13.9998 39.7074 14.3268 39.2727C14.6539 38.838 15.2714 38.7507 15.7062 39.0777C17.6829 40.5649 20.1398 41.446 22.8051 41.446H24.7752C31.3034 41.446 36.5955 36.1539 36.5955 29.6256C36.5955 29.0816 37.0365 28.6406 37.5805 28.6406Z" fill="#FF7F41"/>
<path fill-rule="evenodd" clip-rule="evenodd" d="M12.9558 27.6575C11.8676 27.6575 10.9857 28.5396 10.9857 29.6275C10.9857 33.4909 12.838 36.9212 15.7071 39.0797C17.6838 40.5669 20.1406 41.4479 22.806 41.4479H24.7761C25.3201 41.4479 25.7611 41.8889 25.7611 42.4329C25.7611 42.9769 25.3201 43.4179 24.7761 43.4179H22.806C19.6989 43.4179 16.8291 42.3892 14.5227 40.654L14.5227 40.654C11.1802 38.1393 9.01562 34.1361 9.01562 29.6275C9.01562 27.4515 10.7797 25.6875 12.9558 25.6875C13.4998 25.6875 13.9408 26.1285 13.9408 26.6725C13.9408 27.2165 13.4998 27.6575 12.9558 27.6575Z" fill="#59CBE8"/>
<path fill-rule="evenodd" clip-rule="evenodd" d="M25.7597 25.6875C26.3038 25.6875 26.7448 26.1285 26.7448 26.6725C26.7448 30.4807 23.6577 33.5677 19.8496 33.5677H17.8796C17.3355 33.5677 16.8945 33.1267 16.8945 32.5827C16.8945 32.0387 17.3355 31.5976 17.8796 31.5976H19.8496C22.5697 31.5976 24.7747 29.3926 24.7747 26.6725C24.7747 26.1285 25.2157 25.6875 25.7597 25.6875Z" fill="#FF7F41"/>
<path fill-rule="evenodd" clip-rule="evenodd" d="M12.9558 27.6575C11.8677 27.6575 10.9857 28.5396 10.9857 29.6277H9.01562C9.01562 27.4517 10.7796 25.6875 12.9558 25.6875H25.761C26.305 25.6875 26.7461 26.1285 26.7461 26.6725C26.7461 27.2165 26.305 27.6575 25.761 27.6575H12.9558Z" fill="#9063CD"/>
</svg>
