<svg width="48" height="48" viewBox="0 0 48 48" fill="none" xmlns="http://www.w3.org/2000/svg">
<path fill-rule="evenodd" clip-rule="evenodd" d="M33.9766 14C32.8688 14 31.9766 14.8923 31.9766 16V17C31.9766 17.5523 31.5288 18 30.9766 18C30.4243 18 29.9766 17.5523 29.9766 17V16C29.9766 13.7877 31.7643 12 33.9766 12C36.1888 12 37.9766 13.7877 37.9766 16V30C37.9766 33.3999 36.7706 36.5264 34.7425 38.9429C34.3875 39.3659 33.7567 39.421 33.3337 39.066C32.9107 38.7109 32.8555 38.0802 33.2106 37.6571C34.9425 35.5936 35.9766 32.9201 35.9766 30V16C35.9766 14.8923 35.0843 14 33.9766 14Z" fill="#00C389"/>
<path fill-rule="evenodd" clip-rule="evenodd" d="M23.9766 10C23.9766 7.78772 25.7643 6 27.9766 6C30.1888 6 31.9766 7.78772 31.9766 10V25C31.9766 25.5523 31.5288 26 30.9766 26C30.4243 26 29.9766 25.5523 29.9766 25V10C29.9766 8.89228 29.0843 8 27.9766 8C26.8688 8 25.9766 8.89228 25.9766 10V17C25.9766 17.5523 25.5288 18 24.9766 18C24.4243 18 23.9766 17.5523 23.9766 17V10Z" fill="#FDDA24"/>
<path fill-rule="evenodd" clip-rule="evenodd" d="M21.9766 6C20.8688 6 19.9766 6.89228 19.9766 8V25C19.9766 25.5523 19.5288 26 18.9766 26C18.4243 26 17.9766 25.5523 17.9766 25V8C17.9766 5.78772 19.7643 4 21.9766 4C24.1888 4 25.9766 5.78772 25.9766 8V25C25.9766 25.5523 25.5288 26 24.9766 26C24.4243 26 23.9766 25.5523 23.9766 25V8C23.9766 6.89228 23.0843 6 21.9766 6Z" fill="#FF7F37"/>
<path fill-rule="evenodd" clip-rule="evenodd" d="M11.9766 10C11.9766 7.78772 13.7643 6 15.9766 6C18.1888 6 19.9766 7.78772 19.9766 10V25C19.9766 25.5523 19.5288 26 18.9766 26C18.4243 26 17.9766 25.5523 17.9766 25V10C17.9766 8.89228 17.0843 8 15.9766 8C14.8688 8 13.9766 8.89228 13.9766 10V17C13.9766 17.5523 13.5288 18 12.9766 18C12.4243 18 11.9766 17.5523 11.9766 17V10Z" fill="#F5B6CD"/>
<path fill-rule="evenodd" clip-rule="evenodd" d="M7.97656 17C7.97656 16.4477 8.42428 16 8.97656 16H9.97656C10.7645 16 11.5447 16.1552 12.2727 16.4567C13.0006 16.7583 13.6621 17.2002 14.2192 17.7574C14.7764 18.3145 15.2183 18.9759 15.5198 19.7039C15.8214 20.4319 15.9766 21.2121 15.9766 22V26.0549C20.4779 26.552 23.9766 30.3657 23.9766 35C23.9766 35.5523 23.5288 36 22.9766 36C22.4243 36 21.9766 35.5523 21.9766 35C21.9766 31.1323 18.8443 28 14.9766 28C14.4243 28 13.9766 27.5523 13.9766 27V22C13.9766 21.4747 13.8731 20.9546 13.6721 20.4693C13.4711 19.984 13.1764 19.543 12.805 19.1716C12.4336 18.8001 11.9926 18.5055 11.5073 18.3045C11.022 18.1035 10.5019 18 9.97656 18V30C9.97656 30.5523 9.52885 31 8.97656 31C8.42428 31 7.97656 30.5523 7.97656 30V17Z" fill="#00CCEA"/>
<path fill-rule="evenodd" clip-rule="evenodd" d="M8.97656 29C9.52885 29 9.97656 29.4477 9.97656 30C9.97656 33.1826 11.2408 36.2348 13.4913 38.4853C15.7417 40.7357 18.794 42 21.9766 42H23.9762C23.9763 42 23.9761 42 23.9762 42C25.7389 41.9993 27.4802 41.6103 29.0755 40.8605C30.6709 40.1106 32.0815 39.0184 33.2069 37.6616C33.5594 37.2365 34.1899 37.1777 34.615 37.5303C35.0401 37.8829 35.0988 38.5133 34.7463 38.9384C33.4333 40.5214 31.7876 41.7957 29.9262 42.6705C28.0649 43.5454 26.0336 43.9993 23.9769 44H21.9766C18.2635 44 14.7026 42.525 12.0771 39.8995C9.45156 37.274 7.97656 33.713 7.97656 30C7.97656 29.4477 8.42428 29 8.97656 29Z" fill="#9063CD"/>
</svg>
