<svg width="48" height="48" viewBox="0 0 48 48" fill="none" xmlns="http://www.w3.org/2000/svg">
<path fill-rule="evenodd" clip-rule="evenodd" d="M36.9786 29C37.5309 29 37.9786 29.4477 37.9786 30C37.9786 33.713 36.5036 37.274 33.8781 39.8995C31.2526 42.525 27.6916 44 23.9786 44H21.9786C21.2222 44 20.473 43.9352 19.7531 43.8294C19.2067 43.749 18.8289 43.2409 18.9092 42.6945C18.9896 42.1481 19.4977 41.7703 20.0441 41.8506C20.6841 41.9448 21.3349 42 21.9786 42H23.9786C27.1612 42 30.2134 40.7357 32.4639 38.4853C34.7143 36.2348 35.9786 33.1826 35.9786 30C35.9786 29.4477 36.4263 29 36.9786 29Z" fill="#F5B6CD"/>
<path fill-rule="evenodd" clip-rule="evenodd" d="M33.9766 14C32.8688 14 31.9766 14.8923 31.9766 16V17C31.9766 17.5523 31.5288 18 30.9766 18C30.4243 18 29.9766 17.5523 29.9766 17V16C29.9766 13.7877 31.7643 12 33.9766 12C36.1888 12 37.9766 13.7877 37.9766 16V30C37.9766 30.5523 37.5288 31 36.9766 31C36.4243 31 35.9766 30.5523 35.9766 30V16C35.9766 14.8923 35.0843 14 33.9766 14Z" fill="#9063CD"/>
<path fill-rule="evenodd" clip-rule="evenodd" d="M27.9766 8C26.8688 8 25.9766 8.89228 25.9766 10V27C25.9766 27.5523 25.5288 28 24.9766 28C24.4243 28 23.9766 27.5523 23.9766 27V10C23.9766 7.78772 25.7643 6 27.9766 6C30.1888 6 31.9766 7.78772 31.9766 10V25C31.9766 25.5523 31.5288 26 30.9766 26C30.4243 26 29.9766 25.5523 29.9766 25V10C29.9766 8.89228 29.0843 8 27.9766 8Z" fill="#00C389"/>
<path fill-rule="evenodd" clip-rule="evenodd" d="M21.9766 6C20.8688 6 19.9766 6.89228 19.9766 8V27C19.9766 27.5523 19.5288 28 18.9766 28C18.4243 28 17.9766 27.5523 17.9766 27V8C17.9766 5.78772 19.7643 4 21.9766 4C24.1888 4 25.9766 5.78772 25.9766 8V27C25.9766 27.5523 25.5288 28 24.9766 28C24.4243 28 23.9766 27.5523 23.9766 27V8C23.9766 6.89228 23.0843 6 21.9766 6Z" fill="#FDDA24"/>
<path fill-rule="evenodd" clip-rule="evenodd" d="M11.9766 10C11.9766 7.78772 13.7643 6 15.9766 6C18.1888 6 19.9766 7.78772 19.9766 10V27C19.9766 27.5523 19.5288 28 18.9766 28C18.4243 28 17.9766 27.5523 17.9766 27V10C17.9766 8.89228 17.0843 8 15.9766 8C14.8688 8 13.9766 8.89228 13.9766 10V27C13.9766 27.5523 13.5288 28 12.9766 28C12.4243 28 11.9766 27.5523 11.9766 27V10Z" fill="#FF7F37"/>
<path fill-rule="evenodd" clip-rule="evenodd" d="M11.9766 28C10.8688 28 9.97656 28.8923 9.97656 30C9.97656 35.9814 14.3326 40.9297 20.0558 41.8528C20.601 41.9407 20.9717 42.454 20.8838 42.9992C20.7959 43.5445 20.2826 43.9152 19.7373 43.8272C13.0605 42.7503 7.97656 36.9786 7.97656 30C7.97656 27.7877 9.76428 26 11.9766 26H24.9766C25.5288 26 25.9766 26.4477 25.9766 27C25.9766 30.8723 22.8488 34 18.9766 34H16.9766C16.4243 34 15.9766 33.5523 15.9766 33C15.9766 32.4477 16.4243 32 16.9766 32H18.9766C21.4017 32 23.4157 30.2862 23.8772 28H11.9766Z" fill="#00CCEA"/>
</svg>
