<svg width="48" height="48" viewBox="0 0 48 48" fill="none" xmlns="http://www.w3.org/2000/svg">
<path fill-rule="evenodd" clip-rule="evenodd" d="M11 18C9.53984 18 8 19.5711 8 22C8 24.4289 9.53984 26 11 26C12.4602 26 14 24.4289 14 22C14 19.5711 12.4602 18 11 18ZM6 22C6 18.9061 8.04188 16 11 16C13.9581 16 16 18.9061 16 22C16 25.0939 13.9581 28 11 28C8.04188 28 6 25.0939 6 22Z" fill="#FF7F37"/>
<path fill-rule="evenodd" clip-rule="evenodd" d="M39 18C37.5398 18 36 19.5711 36 22C36 24.4289 37.5398 26 39 26C40.4602 26 42 24.4289 42 22C42 19.5711 40.4602 18 39 18ZM34 22C34 18.9061 36.0419 16 39 16C41.9581 16 44 18.9061 44 22C44 25.0939 41.9581 28 39 28C36.0419 28 34 25.0939 34 22Z" fill="#00C389"/>
<path fill-rule="evenodd" clip-rule="evenodd" d="M19 8C17.5398 8 16 9.5711 16 12C16 14.4289 17.5398 16 19 16C20.4602 16 22 14.4289 22 12C22 9.5711 20.4602 8 19 8ZM14 12C14 8.90606 16.0419 6 19 6C21.9581 6 24 8.90606 24 12C24 15.0939 21.9581 18 19 18C16.0419 18 14 15.0939 14 12Z" fill="#FDDA24"/>
<path fill-rule="evenodd" clip-rule="evenodd" d="M31 8C29.5398 8 28 9.5711 28 12C28 14.4289 29.5398 16 31 16C32.4602 16 34 14.4289 34 12C34 9.5711 32.4602 8 31 8ZM26 12C26 8.90606 28.0419 6 31 6C33.9581 6 36 8.90606 36 12C36 15.0939 33.9581 18 31 18C28.0419 18 26 15.0939 26 12Z" fill="#00CCEA"/>
<path fill-rule="evenodd" clip-rule="evenodd" d="M25.5779 18.2854L25.0001 19.1016L24.4266 18.2823C24.7725 18.0402 25.2333 18.0414 25.5779 18.2854ZM24.9975 20.3418C25.1549 20.4604 25.3409 20.6024 25.5512 20.7659C26.2576 21.3153 27.2349 22.106 28.3149 23.0682C28.7273 23.4356 29.3594 23.3991 29.7268 22.9868C30.0942 22.5744 30.0577 21.9423 29.6453 21.5749C28.5254 20.5771 27.5127 19.7578 26.7791 19.1872C26.412 18.9017 26.1142 18.678 25.907 18.5249C25.8034 18.4483 25.7224 18.3893 25.6666 18.349L25.6023 18.3028L25.585 18.2904L25.5779 18.2854L25.0001 19.1016C24.4266 18.2823 24.4269 18.2822 24.4266 18.2823L24.4231 18.2848L24.4153 18.2903L24.3868 18.3105L24.2808 18.3864C24.189 18.4525 24.056 18.5493 23.8876 18.6746C23.551 18.925 23.0724 19.2895 22.4992 19.7495C21.3544 20.6682 19.8243 21.9742 18.2904 23.5196C16.76 25.0615 15.2033 26.864 14.0238 28.7778C12.8512 30.6803 12.0009 32.774 12.0001 34.8787C11.9785 38.8799 15.0727 41.9964 18.9507 42.0215C20.7855 42.0441 22.4273 41.3348 23.6795 40.1753C24.0848 39.8001 24.1091 39.1674 23.7339 38.7622C23.3586 38.3569 22.7259 38.3326 22.3207 38.7078C21.4137 39.5476 20.2568 40.0381 18.9729 40.0216L18.9661 40.0216C16.2066 40.005 13.9832 37.8035 14.0001 34.8873L14.0001 34.8816C14.0001 33.2973 14.6495 31.5744 15.7264 29.8272C16.7969 28.0903 18.2403 26.4092 19.7099 24.9285C21.1759 23.4514 22.6458 22.1962 23.751 21.3093C24.2563 20.9038 24.6837 20.5766 24.9975 20.3418Z" fill="#9063CD"/>
<path fill-rule="evenodd" clip-rule="evenodd" d="M28.257 21.6783C28.6245 21.2661 29.2566 21.2298 29.6689 21.5973C31.4473 23.1826 33.5114 25.2479 35.1385 27.5159C36.75 29.7622 38.0234 32.332 38.0234 34.9038V34.9095H38.0234C38.0005 38.8828 34.8882 42.1473 30.9774 42.1237L30.9705 42.1237C29.1669 42.1003 27.5099 41.3741 26.2772 40.2112L26.266 40.2006L26.2661 40.2005C25.9249 39.8686 25.4684 39.6818 24.9924 39.6794C24.5164 39.677 24.058 39.8591 23.7134 40.1876C23.3137 40.5686 22.6807 40.5535 22.2996 40.1538C21.9186 39.754 21.9337 39.121 22.3334 38.74C23.0525 38.0545 24.0092 37.6744 25.0025 37.6794C25.9931 37.6844 26.9432 38.072 27.6546 38.761C28.5405 39.5946 29.7203 40.1064 30.9931 40.1238C33.7198 40.1382 36.0049 37.845 36.0234 34.9009C36.0225 32.9534 35.0362 30.8043 33.5134 28.6817C32.0054 26.5797 30.0596 24.6249 28.338 23.0902C27.9258 22.7227 27.8895 22.0906 28.257 21.6783Z" fill="#F5B6CD"/>
</svg>
