<svg width="48" height="48" viewBox="0 0 48 48" fill="none" xmlns="http://www.w3.org/2000/svg">
<path fill-rule="evenodd" clip-rule="evenodd" d="M24.0877 15.7428C24.6955 11.3528 28.4544 8 32.9982 8C33.5505 8 33.9982 8.44772 33.9982 9C33.9982 9.55228 33.5505 10 32.9982 10C29.4621 10 26.5409 12.6072 26.0688 16.0172C25.993 16.5642 25.4882 16.9463 24.9411 16.8706C24.394 16.7948 24.0119 16.2899 24.0877 15.7428Z" fill="#F5B6CD"/>
<path fill-rule="evenodd" clip-rule="evenodd" d="M32 8.99993C32 8.44765 32.4478 7.99996 33.0001 8C34.864 8.00013 36.6819 8.57911 38.2026 9.65696C39.7234 10.7348 40.8718 12.2583 41.4893 14.017C42.1068 15.7757 42.1629 17.6828 41.6499 19.4747C41.1368 21.2667 40.0799 22.8551 38.6252 24.0204C38.1942 24.3657 37.5649 24.2963 37.2196 23.8652C36.8743 23.4342 36.9437 22.8049 37.3748 22.4596C38.5061 21.5532 39.3281 20.3179 39.7271 18.9242C40.1262 17.5306 40.0825 16.0474 39.6023 14.6796C39.122 13.3118 38.2288 12.1269 37.0461 11.2887C35.8634 10.4504 34.4496 10.0001 32.9999 10C32.4476 9.99996 32 9.55222 32 8.99993Z" fill="#9063CD"/>
<path fill-rule="evenodd" clip-rule="evenodd" d="M20.9992 14C22.5156 13.998 24.0158 14.3131 25.4034 14.925L25.4069 14.9266L25.4069 14.9266C27.2106 15.7304 28.7658 17.0031 29.9106 18.612C31.0554 20.2209 31.748 22.1073 31.9162 24.0748C31.9633 24.6251 31.5553 25.1093 31.0051 25.1564C30.4548 25.2034 29.9706 24.7955 29.9235 24.2452C29.7857 22.634 29.2185 21.0891 28.281 19.7715C27.3438 18.4544 26.0709 17.4125 24.5946 16.7542C23.4624 16.2552 22.2385 15.9983 21.0012 16L20.9999 16C16.5767 16 12.9205 19.2007 12.164 23.3974C12.066 23.9409 11.546 24.3021 11.0025 24.2041C10.4589 24.1062 10.0977 23.5861 10.1957 23.0426C11.1192 17.9196 15.5826 14.0003 20.9992 14ZM20.9992 14C20.9994 14 20.9996 14 20.9999 14V15L20.9985 14C20.9987 14 20.9989 14 20.9992 14Z" fill="#FF7F37"/>
<path fill-rule="evenodd" clip-rule="evenodd" d="M30.4075 23.3025C31.7449 22.5001 33.3008 22 35.002 22C39.9743 22 44.002 26.0277 44.002 31C44.002 35.9723 39.9743 40 35.002 40H32.542C31.9897 40 31.542 39.5523 31.542 39C31.542 38.4477 31.9897 38 32.542 38H35.002C38.8697 38 42.002 34.8677 42.002 31C42.002 27.1323 38.8697 24 35.002 24C33.7033 24 32.4992 24.3799 31.4365 25.0175C30.9629 25.3016 30.3487 25.1481 30.0645 24.6745C29.7804 24.2009 29.934 23.5867 30.4075 23.3025Z" fill="#00C389"/>
<path fill-rule="evenodd" clip-rule="evenodd" d="M14 39C14 38.4477 14.4477 38 15 38H32.54C33.0923 38 33.54 38.4477 33.54 39C33.54 39.5523 33.0923 40 32.54 40H15C14.4477 40 14 39.5523 14 39Z" fill="#00CCEA"/>
<path fill-rule="evenodd" clip-rule="evenodd" d="M12.153 22.9881C12.2805 23.5255 11.9482 24.0644 11.4109 24.192C8.30572 24.9288 6 27.6986 6 30.999C6 34.8667 9.13228 37.999 13 37.999H15C15.5523 37.999 16 38.4467 16 38.999C16 39.5513 15.5523 39.999 15 39.999H13C8.02772 39.999 4 35.9713 4 30.999C4 26.7394 6.97429 23.1892 10.9491 22.246C11.4865 22.1185 12.0255 22.4507 12.153 22.9881Z" fill="#FDDA24"/>
</svg>
