<svg width="48" height="48" viewBox="0 0 48 48" fill="none" xmlns="http://www.w3.org/2000/svg">
<path fill-rule="evenodd" clip-rule="evenodd" d="M10 19C10 18.4477 10.4477 18 11 18H17C17.5523 18 18 18.4477 18 19V35C18 35.5523 17.5523 36 17 36H11C10.4477 36 10 35.5523 10 35V19ZM12 20V34H16V20H12Z" fill="#FDDA24"/>
<path fill-rule="evenodd" clip-rule="evenodd" d="M23 18C23.5523 18 24 18.4477 24 19V35C24 35.5523 23.5523 36 23 36C22.4477 36 22 35.5523 22 35V19C22 18.4477 22.4477 18 23 18Z" fill="#00C389"/>
<path fill-rule="evenodd" clip-rule="evenodd" d="M28 19C28 18.4477 28.4477 18 29 18H35C35.5523 18 36 18.4477 36 19V35C36 35.5523 35.5523 36 35 36H29C28.4477 36 28 35.5523 28 35V19ZM30 20V34H34V20H30Z" fill="#FF7F37"/>
<path fill-rule="evenodd" clip-rule="evenodd" d="M6 38C6 35.7877 7.78772 34 10 34H36C38.2123 34 40 35.7877 40 38V41C40 41.5523 39.5523 42 39 42H7C6.44772 42 6 41.5523 6 41V38ZM10 36C8.89228 36 8 36.8923 8 38V40H38V38C38 36.8923 37.1077 36 36 36H10Z" fill="#F5B6CD"/>
<path fill-rule="evenodd" clip-rule="evenodd" d="M23.8944 6.55301C24.1414 7.04698 23.9412 7.64766 23.4472 7.89465L8 15.6183V18.0002H19C19.5523 18.0002 20 18.4479 20 19.0002C20 19.5525 19.5523 20.0002 19 20.0002H7C6.44772 20.0002 6 19.5525 6 19.0002V15.0002C6 14.6214 6.214 14.2752 6.55279 14.1058L22.5528 6.10579C23.0468 5.8588 23.6474 6.05903 23.8944 6.55301Z" fill="#9063CD"/>
<path fill-rule="evenodd" clip-rule="evenodd" d="M22.1056 6.55301C22.3526 6.05903 22.9532 5.8588 23.4472 6.10579L39.4472 14.1058C39.786 14.2752 40 14.6214 40 15.0002V19.0002C40 19.5525 39.5523 20.0002 39 20.0002H19C18.4477 20.0002 18 19.5525 18 19.0002C18 18.4479 18.4477 18.0002 19 18.0002H38V15.6183L22.5528 7.89465C22.0588 7.64766 21.8586 7.04698 22.1056 6.55301Z" fill="#00CCEA"/>
<path fill-rule="evenodd" clip-rule="evenodd" d="M23 12C22.4477 12 22 12.4477 22 13C22 13.5523 22.4477 14 23 14C23.5523 14 24 13.5523 24 13C24 12.4477 23.5523 12 23 12ZM20 13C20 11.3431 21.3431 10 23 10C24.6569 10 26 11.3431 26 13C26 14.6569 24.6569 16 23 16C21.3431 16 20 14.6569 20 13Z" fill="#00C389"/>
</svg>
