<svg width="48" height="48" viewBox="0 0 48 48" fill="none" xmlns="http://www.w3.org/2000/svg">
<path fill-rule="evenodd" clip-rule="evenodd" d="M36 17C36 16.4477 36.4477 16 37 16H41C41.5523 16 42 16.4477 42 17C42 17.5523 41.5523 18 41 18H37C36.4477 18 36 17.5523 36 17Z" fill="#00CCEA"/>
<path fill-rule="evenodd" clip-rule="evenodd" d="M6 11C6 10.4477 6.44772 10 7 10H41C41.5523 10 42 10.4477 42 11C42 11.5523 41.5523 12 41 12H7C6.44772 12 6 11.5523 6 11Z" fill="#9063CD"/>
<path fill-rule="evenodd" clip-rule="evenodd" d="M6 17C6 16.4477 6.44772 16 7 16H31C31.5523 16 32 16.4477 32 17C32 17.5523 31.5523 18 31 18H7C6.44772 18 6 17.5523 6 17Z" fill="#00CCEA"/>
<path fill-rule="evenodd" clip-rule="evenodd" d="M8.96491 28.0028C9.51567 27.9618 9.99537 28.3751 10.0364 28.9258C10.4976 35.1254 15.6842 40 21.9991 40H22.9991C23.5514 40 23.9991 40.4478 23.9991 41C23.9991 41.5523 23.5514 42 22.9991 42H21.9991C14.634 42 8.58059 36.3147 8.04187 29.0742C8.00089 28.5235 8.41415 28.0438 8.96491 28.0028Z" fill="#FF7F37"/>
<path fill-rule="evenodd" clip-rule="evenodd" d="M7 18.4375C7.55228 18.4375 8 18.8852 8 19.4375V25.9975C8 27.1052 8.89228 27.9975 10 27.9975H23C23.5523 27.9975 24 28.4452 24 28.9975C24 29.5498 23.5523 29.9975 23 29.9975H10C7.78772 29.9975 6 28.2098 6 25.9975V19.4375C6 18.8852 6.44772 18.4375 7 18.4375Z" fill="#F5B6CD"/>
<path fill-rule="evenodd" clip-rule="evenodd" d="M6 10C6 7.78772 7.78772 6 10 6H28.58C29.1323 6 29.58 6.44772 29.58 7C29.58 7.55228 29.1323 8 28.58 8H10C8.89228 8 8 8.89228 8 10V19.44C8 19.9923 7.55228 20.44 7 20.44C6.44772 20.44 6 19.9923 6 19.44V10Z" fill="#00C389"/>
<path fill-rule="evenodd" clip-rule="evenodd" d="M27.5781 7C27.5781 6.44772 28.0258 6 28.5781 6H37.9981C40.2104 6 41.9981 7.78772 41.9981 10V26C41.9981 28.2123 40.2104 30 37.9981 30C37.4458 30 36.9981 29.5523 36.9981 29C36.9981 28.4477 37.4458 28 37.9981 28C39.1058 28 39.9981 27.1077 39.9981 26V10C39.9981 8.89228 39.1058 8 37.9981 8H28.5781C28.0258 8 27.5781 7.55228 27.5781 7Z" fill="#00CCEA"/>
<path fill-rule="evenodd" clip-rule="evenodd" d="M31.7339 15.7574C32.8591 14.6321 34.3853 14 35.9766 14H36.9766C37.5288 14 37.9766 14.4477 37.9766 15V28C37.9766 29.8385 37.6144 31.659 36.9109 33.3576C36.2073 35.0561 35.1761 36.5995 33.8761 37.8995C32.576 39.1995 31.0327 40.2307 29.3341 40.9343C27.6356 41.6379 25.8151 42 23.9766 42H22.9966C22.4443 42 21.9966 41.5523 21.9966 41C21.9966 40.4477 22.4443 40 22.9966 40H23.9766C25.5524 40 27.1129 39.6896 28.5688 39.0866C30.0247 38.4835 31.3475 37.5996 32.4618 36.4853C33.5761 35.371 34.4601 34.0481 35.0631 32.5922C35.6662 31.1363 35.9766 29.5759 35.9766 28V16C34.9157 16 33.8983 16.4214 33.1481 17.1716C32.398 17.9217 31.9766 18.9391 31.9766 20V25C31.9766 25.5523 31.5288 26 30.9766 26C27.1088 26 23.9766 29.1323 23.9766 33C23.9766 33.5523 23.5288 34 22.9766 34C22.4243 34 21.9766 33.5523 21.9766 33C21.9766 28.3657 25.4753 24.552 29.9766 24.0549V20C29.9766 18.4087 30.6087 16.8826 31.7339 15.7574Z" fill="#FDDA24"/>
</svg>
