<svg width="48" height="48" viewBox="0 0 48 48" fill="none" xmlns="http://www.w3.org/2000/svg">
<path fill-rule="evenodd" clip-rule="evenodd" d="M27 30C27.5523 30 28 30.4477 28 31V38C28 40.2123 26.2123 42 24 42H10C9.44772 42 9 41.5523 9 41C9 40.4477 9.44772 40 10 40H24C25.1077 40 26 39.1077 26 38V31C26 30.4477 26.4477 30 27 30Z" fill="#FF7F37"/>
<path fill-rule="evenodd" clip-rule="evenodd" d="M7 13.5C7.55228 13.5 8 13.9477 8 14.5V38C8 39.1077 8.89228 40 10 40C10.5523 40 11 40.4477 11 41C11 41.5523 10.5523 42 10 42C7.78772 42 6 40.2123 6 38V14.5C6 13.9477 6.44772 13.5 7 13.5Z" fill="#9063CD"/>
<path fill-rule="evenodd" clip-rule="evenodd" d="M6 10C6 7.78772 7.78772 6 10 6H24C26.2123 6 28 7.78772 28 10V17C28 17.5523 27.5523 18 27 18C26.4477 18 26 17.5523 26 17V10C26 8.89228 25.1077 8 24 8H10C8.89228 8 8 8.89228 8 10V14.5C8 15.0523 7.55228 15.5 7 15.5C6.44772 15.5 6 15.0523 6 14.5V10Z" fill="#00C389"/>
<path fill-rule="evenodd" clip-rule="evenodd" d="M14 11C14 10.4477 14.4477 10 15 10H19C19.5523 10 20 10.4477 20 11C20 11.5523 19.5523 12 19 12H15C14.4477 12 14 11.5523 14 11Z" fill="#00CCEA"/>
<path fill-rule="evenodd" clip-rule="evenodd" d="M17 34C16.4477 34 16 34.4477 16 35C16 35.5523 16.4477 36 17 36C17.5523 36 18 35.5523 18 35C18 34.4477 17.5523 34 17 34ZM14 35C14 33.3431 15.3431 32 17 32C18.6569 32 20 33.3431 20 35C20 36.6569 18.6569 38 17 38C15.3431 38 14 36.6569 14 35Z" fill="#00CCEA"/>
<path fill-rule="evenodd" clip-rule="evenodd" d="M36.7304 9.85539C37.1209 9.46487 37.7541 9.46487 38.1446 9.85539C45.9551 17.6659 45.9551 30.3391 38.1446 38.1496C37.7541 38.5401 37.1209 38.5401 36.7304 38.1496C36.3399 37.7591 36.3399 37.1259 36.7304 36.7354C43.7599 29.7059 43.7599 18.2991 36.7304 11.2696C36.3399 10.8791 36.3399 10.2459 36.7304 9.85539Z" fill="#F5B6CD"/>
<path fill-rule="evenodd" clip-rule="evenodd" d="M33.8944 12.6914C34.2849 12.3008 34.9181 12.3008 35.3086 12.6913C36.7949 14.1774 37.9739 15.9418 38.7783 17.8836C39.5827 19.8254 39.9967 21.9066 39.9967 24.0084C39.9967 26.1103 39.5827 28.1915 38.7783 30.1333C37.9739 32.0751 36.7949 33.8394 35.3086 35.3256C34.9181 35.7161 34.2849 35.716 33.8944 35.3255C33.5039 34.935 33.5039 34.3018 33.8945 33.9113C35.195 32.6109 36.2267 31.067 36.9306 29.3679C37.6344 27.6687 37.9967 25.8476 37.9967 24.0084C37.9967 22.1693 37.6344 20.3481 36.9306 18.649C36.2267 16.9499 35.195 15.406 33.8945 14.1056C33.5039 13.7151 33.5039 13.0819 33.8944 12.6914Z" fill="#FDDA24"/>
<path fill-rule="evenodd" clip-rule="evenodd" d="M31.0737 15.5121C31.464 15.1213 32.0972 15.1209 32.4879 15.5112C33.6034 16.6253 34.4883 17.9484 35.092 19.4048C35.6958 20.8611 36.0066 22.4222 36.0066 23.9987C36.0066 25.5753 35.6958 27.1364 35.092 28.5927C34.4883 30.0491 33.6034 31.3722 32.4879 32.4863C32.0972 32.8766 31.464 32.8762 31.0737 32.4854C30.6834 32.0947 30.6838 31.4615 31.0746 31.0712C32.004 30.1428 32.7414 29.0404 33.2445 27.8268C33.7476 26.6133 34.0066 25.3124 34.0066 23.9987C34.0066 22.685 33.7476 21.3842 33.2445 20.1707C32.7414 18.9571 32.004 17.8546 31.0746 16.9263C30.6838 16.536 30.6834 15.9028 31.0737 15.5121Z" fill="#00CCEA"/>
</svg>
