<svg width="48" height="48" viewBox="0 0 48 48" fill="none" xmlns="http://www.w3.org/2000/svg">
<path fill-rule="evenodd" clip-rule="evenodd" d="M10.2929 17.7929C10.6834 17.4024 11.3166 17.4024 11.7071 17.7929L16.2071 22.2929C16.5976 22.6834 16.5976 23.3166 16.2071 23.7071C15.8166 24.0976 15.1834 24.0976 14.7929 23.7071L10.2929 19.2071C9.90237 18.8166 9.90237 18.1834 10.2929 17.7929Z" fill="#00C389"/>
<path fill-rule="evenodd" clip-rule="evenodd" d="M16.2071 7.29289C16.5976 7.68342 16.5976 8.31658 16.2071 8.70711L11.7071 13.2071C11.3166 13.5976 10.6834 13.5976 10.2929 13.2071C9.90237 12.8166 9.90237 12.1834 10.2929 11.7929L14.7929 7.29289C15.1834 6.90237 15.8166 6.90237 16.2071 7.29289Z" fill="#FDDA24"/>
<path fill-rule="evenodd" clip-rule="evenodd" d="M20 15.5C20 14.9477 20.4477 14.5 21 14.5H38C38.5523 14.5 39 14.9477 39 15.5C39 16.0523 38.5523 16.5 38 16.5H21C20.4477 16.5 20 16.0523 20 15.5Z" fill="#59CBE8"/>
<path fill-rule="evenodd" clip-rule="evenodd" d="M9 15.5C9 14.9477 9.44772 14.5 10 14.5H25.5C26.0523 14.5 26.5 14.9477 26.5 15.5C26.5 16.0523 26.0523 16.5 25.5 16.5H10C9.44772 16.5 9 16.0523 9 15.5Z" fill="#9063CD"/>
<path fill-rule="evenodd" clip-rule="evenodd" d="M37.7071 34.7929C37.3166 34.4024 36.6834 34.4024 36.2929 34.7929L31.7929 39.2929C31.4024 39.6834 31.4024 40.3166 31.7929 40.7071C32.1834 41.0976 32.8166 41.0976 33.2071 40.7071L37.7071 36.2071C38.0976 35.8166 38.0976 35.1834 37.7071 34.7929Z" fill="#00C389"/>
<path fill-rule="evenodd" clip-rule="evenodd" d="M31.7929 24.2929C31.4024 24.6834 31.4024 25.3166 31.7929 25.7071L36.2929 30.2071C36.6834 30.5976 37.3166 30.5976 37.7071 30.2071C38.0976 29.8166 38.0976 29.1834 37.7071 28.7929L33.2071 24.2929C32.8166 23.9024 32.1834 23.9024 31.7929 24.2929Z" fill="#FDDA24"/>
<path fill-rule="evenodd" clip-rule="evenodd" d="M28 32.5C28 31.9477 27.5523 31.5 27 31.5H10C9.44772 31.5 9 31.9477 9 32.5C9 33.0523 9.44772 33.5 10 33.5H27C27.5523 33.5 28 33.0523 28 32.5Z" fill="#59CBE8"/>
<path fill-rule="evenodd" clip-rule="evenodd" d="M39 32.5C39 31.9477 38.5523 31.5 38 31.5H22.5C21.9477 31.5 21.5 31.9477 21.5 32.5C21.5 33.0523 21.9477 33.5 22.5 33.5H38C38.5523 33.5 39 33.0523 39 32.5Z" fill="#9063CD"/>
<path fill-rule="evenodd" clip-rule="evenodd" d="M13.2069 10.2929C13.5974 10.6834 13.5974 11.3166 13.2069 11.7071L9.76754 15.1464C9.57228 15.3417 9.57228 15.6583 9.76754 15.8536L13.2069 19.2929C13.5974 19.6834 13.5974 20.3166 13.2069 20.7071C12.8164 21.0976 12.1832 21.0976 11.7927 20.7071L8.35333 17.2678C7.37702 16.2915 7.37701 14.7085 8.35333 13.7322L11.7927 10.2929C12.1832 9.90237 12.8164 9.90237 13.2069 10.2929Z" fill="#FF7F41"/>
<path fill-rule="evenodd" clip-rule="evenodd" d="M34.7931 27.2929C34.4026 27.6834 34.4026 28.3166 34.7931 28.7071L38.2325 32.1464C38.4277 32.3417 38.4277 32.6583 38.2325 32.8536L34.7931 36.2929C34.4026 36.6834 34.4026 37.3166 34.7931 37.7071C35.1836 38.0976 35.8168 38.0976 36.2073 37.7071L39.6467 34.2678C40.623 33.2915 40.623 31.7085 39.6467 30.7322L36.2073 27.2929C35.8168 26.9024 35.1836 26.9024 34.7931 27.2929Z" fill="#FF7F41"/>
</svg>
