<svg width="48" height="48" viewBox="0 0 48 48" fill="none" xmlns="http://www.w3.org/2000/svg">
<g clip-path="url(#clip0)">
<path d="M15.46 27.6432C15.1736 27.6295 14.9781 27.525 14.7781 27.325C14.3781 26.925 14.3509 26.3523 14.7145 25.9886L19.8057 20.8974C20.1693 20.5338 20.7421 20.561 21.1421 20.961C21.5421 21.361 21.5693 21.9338 21.2057 22.2974L16.1145 27.3886C15.9327 27.5704 15.7463 27.6568 15.46 27.6432Z" fill="#9063CD"/>
<path d="M21.3584 33.5416C21.072 33.528 20.8766 33.4234 20.6766 33.2234C20.2766 32.8234 20.2493 32.2507 20.613 31.887L25.7041 26.7959C26.0678 26.4322 26.6405 26.4595 27.0405 26.8595C27.4405 27.2595 27.4678 27.8322 27.1041 28.1959L22.013 33.287C21.8311 33.4689 21.6448 33.5552 21.3584 33.5416Z" fill="#9063CD"/>
<path d="M5.05235 43.9492C4.75234 43.9492 4.55235 43.8492 4.35235 43.6492C3.95235 43.2492 3.95235 42.6492 4.35235 42.2492L7.84524 38.7563C8.24524 38.3563 8.84524 38.3563 9.24524 38.7563C9.64524 39.1563 9.64524 39.7563 9.24524 40.1563L5.75235 43.6492C5.55235 43.8492 5.35235 43.9492 5.05235 43.9492Z" fill="#59CBE8"/>
<path d="M15.6716 43.3315C12.7716 43.3315 9.97162 42.2315 7.97162 40.1315C7.57162 39.7315 7.57162 39.1315 7.97162 38.7315C8.37162 38.3315 8.97162 38.3315 9.37162 38.7315C11.0716 40.4315 13.2716 41.3315 15.6716 41.3315C18.0716 41.3315 20.2716 40.4315 21.9716 38.7315L24.7716 35.9315C25.1716 35.5315 25.7716 35.5315 26.1716 35.9315C26.5716 36.3315 26.5716 36.9315 26.1716 37.3315L23.3716 40.1315C21.2716 42.2315 18.5716 43.3315 15.6716 43.3315Z" fill="#F5B6CD"/>
<path d="M4.4435 32.1034C4.4435 35.0034 5.5435 37.8034 7.6435 39.8034C8.0435 40.2034 8.6435 40.2034 9.0435 39.8034C9.4435 39.4034 9.4435 38.8034 9.0435 38.4034C7.3435 36.7034 6.4435 34.5034 6.4435 32.1034C6.4435 29.7034 7.3435 27.5034 9.0435 25.8034L11.8435 23.0034C12.2435 22.6034 12.2435 22.0034 11.8435 21.6034C11.4435 21.2034 10.8435 21.2034 10.4435 21.6034L7.6435 24.4034C5.5435 26.5034 4.4435 29.2034 4.4435 32.1034Z" fill="#FDDA24"/>
<path d="M28.2531 40.4547C27.9531 40.4547 27.7531 40.3547 27.5531 40.1547L17.6531 30.2547C17.2531 29.8547 17.2531 29.2547 17.6531 28.8547C18.0531 28.4547 18.6531 28.4547 19.0531 28.8547L28.9531 38.7547C29.3531 39.1547 29.3531 39.7547 28.9531 40.1547C28.7531 40.3547 28.5531 40.4547 28.2531 40.4547Z" fill="#00C389"/>
<path d="M18.4016 30.6031C18.1016 30.6031 17.9016 30.5031 17.7016 30.3031L7.80156 20.4031C7.40156 20.0031 7.40156 19.4031 7.80156 19.0031C8.20156 18.6031 8.80156 18.6031 9.20156 19.0031L19.1016 28.9031C19.5016 29.3031 19.5016 29.9031 19.1016 30.3031C18.9016 30.5031 18.6016 30.6031 18.4016 30.6031Z" fill="#FF7F41"/>
<path d="M43.8828 5.11094C43.8828 4.81094 43.7828 4.61094 43.5828 4.41094C43.1828 4.01094 42.5828 4.01094 42.1828 4.41094L38.6899 7.90383C38.2899 8.30383 38.2899 8.90383 38.6899 9.30383C39.0899 9.70383 39.6899 9.70383 40.0899 9.30383L43.5828 5.81094C43.7828 5.61094 43.8828 5.41094 43.8828 5.11094Z" fill="#59CBE8"/>
<path d="M43.269 15.7302C43.269 12.8302 42.169 10.0302 40.069 8.03022C39.669 7.63022 39.069 7.63022 38.669 8.03022C38.269 8.43022 38.269 9.03022 38.669 9.43022C40.369 11.1302 41.269 13.3302 41.269 15.7302C41.269 18.1302 40.369 20.3302 38.669 22.0302L35.869 24.8302C35.469 25.2302 35.469 25.8302 35.869 26.2302C36.269 26.6302 36.869 26.6302 37.269 26.2302L40.069 23.4302C42.169 21.3302 43.269 18.6302 43.269 15.7302Z" fill="#F5B6CD"/>
<path d="M32.037 4.50209C34.937 4.50209 37.737 5.60209 39.737 7.70209C40.137 8.10209 40.137 8.70209 39.737 9.10209C39.337 9.50209 38.737 9.50209 38.337 9.10209C36.637 7.40209 34.437 6.50209 32.037 6.50209C29.637 6.50209 27.437 7.40209 25.737 9.10209L22.937 11.9021C22.537 12.3021 21.937 12.3021 21.537 11.9021C21.137 11.5021 21.137 10.9021 21.537 10.5021L24.337 7.70209C26.437 5.60209 29.137 4.50209 32.037 4.50209Z" fill="#FDDA24"/>
<path d="M40.3883 28.3078C40.3883 28.0078 40.2883 27.8078 40.0883 27.6078L30.1883 17.7078C29.7883 17.3078 29.1883 17.3078 28.7883 17.7078C28.3883 18.1078 28.3883 18.7078 28.7883 19.1078L38.6883 29.0078C39.0883 29.4078 39.6883 29.4078 40.0883 29.0078C40.2883 28.8078 40.3883 28.6078 40.3883 28.3078Z" fill="#00C389"/>
<path d="M30.5367 18.4602C30.5367 18.1602 30.4367 17.9602 30.2367 17.7602L20.3367 7.86016C19.9367 7.46016 19.3367 7.46016 18.9367 7.86016C18.5367 8.26016 18.5367 8.86016 18.9367 9.26016L28.8367 19.1602C29.2367 19.5602 29.8367 19.5602 30.2367 19.1602C30.4367 18.9602 30.5367 18.6602 30.5367 18.4602Z" fill="#FF7F41"/>
</g>
<defs>
<clipPath id="clip0">
<rect width="48" height="48" fill="white"/>
</clipPath>
</defs>
</svg>
