<svg width="48" height="48" viewBox="0 0 48 48" fill="none" xmlns="http://www.w3.org/2000/svg">
<path fill-rule="evenodd" clip-rule="evenodd" d="M26 6C24.8954 6 24 6.89543 24 8C24 9.10457 24.8954 10 26 10C27.1046 10 28 9.10457 28 8C28 6.89543 27.1046 6 26 6ZM22 8C22 5.79086 23.7909 4 26 4C28.2091 4 30 5.79086 30 8C30 10.2091 28.2091 12 26 12C23.7909 12 22 10.2091 22 8Z" fill="#FF7F37"/>
<path fill-rule="evenodd" clip-rule="evenodd" d="M9.85483 28.0581C10.3752 28.2432 10.647 28.815 10.4619 29.3354C10.0329 30.5415 9.90007 31.8329 10.0746 33.1011C10.249 34.3692 10.7257 35.5768 11.4645 36.6222C12.2032 37.6676 13.1824 38.5202 14.3195 39.1081C15.4566 39.6959 16.7183 40.0019 17.9984 40.0003L17.9997 40.0003C20.7524 40.0003 23.1898 38.5978 24.633 36.4776C24.9438 36.021 25.5658 35.9028 26.0224 36.2136C26.479 36.5244 26.5971 37.1464 26.2864 37.603C24.4897 40.2426 21.4474 42.0001 18.0003 42.0003C16.3999 42.0022 14.8226 41.6196 13.401 40.8847C11.9792 40.1496 10.7549 39.0836 9.83114 37.7765C8.90743 36.4693 8.31139 34.9593 8.09322 33.3737C7.87505 31.788 8.04116 30.1732 8.57753 28.6652C8.76261 28.1448 9.33448 27.873 9.85483 28.0581ZM18.0003 42.0003C18.0001 42.0003 17.9999 42.0003 17.9997 42.0003V41.0003L18.001 42.0003C18.0008 42.0003 18.0005 42.0003 18.0003 42.0003Z" fill="#F5B6CD"/>
<path fill-rule="evenodd" clip-rule="evenodd" d="M18.0811 14.6176C18.2257 14.222 18.6026 13.9595 19.0238 13.9609L24.7403 13.9809L24.7421 13.9809M19.7185 15.9634L16.9395 23.5643C16.7498 24.083 16.1756 24.3498 15.6569 24.1601C15.1382 23.9705 14.8714 23.3963 15.0611 22.8776L18.0811 14.6176" fill="#9063CD"/>
<path fill-rule="evenodd" clip-rule="evenodd" d="M26 27C26 26.4477 26.4477 26 27 26H33C33.4888 26 33.906 26.3534 33.9864 26.8356L35.8471 38H37C37.5523 38 38 38.4477 38 39C38 39.5523 37.5523 40 37 40H35C34.5112 40 34.094 39.6466 34.0136 39.1644L32.1529 28H27C26.4477 28 26 27.5523 26 27Z" fill="#00C389"/>
<path fill-rule="evenodd" clip-rule="evenodd" d="M10 11C10 10.4477 10.4477 10 11 10H13C13.5523 10 14 10.4477 14 11V23C14 23.5523 13.5523 24 13 24C12.4477 24 12 23.5523 12 23V12H11C10.4477 12 10 11.5523 10 11Z" fill="#FDDA24"/>
<path fill-rule="evenodd" clip-rule="evenodd" d="M8.57943 28.6709C9.93635 24.7781 13.6489 22 18.0037 22C23.536 22 28.0037 26.4677 28.0037 32C28.0037 34.084 27.3814 35.9995 26.2904 37.6026C25.9797 38.0592 25.3577 38.1774 24.9011 37.8667C24.4445 37.556 24.3263 36.934 24.637 36.4774C25.506 35.2005 26.0037 33.676 26.0037 32C26.0037 27.5723 22.4314 24 18.0037 24C14.5185 24 11.5511 26.2219 10.468 29.3291C10.2862 29.8507 9.71607 30.1261 9.19456 29.9443C8.67305 29.7625 8.39765 29.1924 8.57943 28.6709Z" fill="#00CCEA"/>
</svg>
