<svg width="48" height="48" viewBox="0 0 48 48" fill="none" xmlns="http://www.w3.org/2000/svg">
<path fill-rule="evenodd" clip-rule="evenodd" d="M6 17C6 16.4477 6.44772 16 7 16H15C15.5523 16 16 16.4477 16 17C16 17.5523 15.5523 18 15 18H8V28C8 28.5523 7.55228 29 7 29C6.44772 29 6 28.5523 6 28V17Z" fill="#FF7F37"/>
<path fill-rule="evenodd" clip-rule="evenodd" d="M7 27C7.55228 27 8 27.4477 8 28V38H30C30.5523 38 31 38.4477 31 39C31 39.5523 30.5523 40 30 40H7C6.44772 40 6 39.5523 6 39V28C6 27.4477 6.44772 27 7 27Z" fill="#F5B6CD"/>
<path fill-rule="evenodd" clip-rule="evenodd" d="M32 17C32 16.4477 32.4477 16 33 16H41C41.5523 16 42 16.4477 42 17V39C42 39.5523 41.5523 40 41 40H30C29.4477 40 29 39.5523 29 39C29 38.4477 29.4477 38 30 38H40V18H33C32.4477 18 32 17.5523 32 17Z" fill="#00CCEA"/>
<path fill-rule="evenodd" clip-rule="evenodd" d="M24 24C21.7909 24 20 25.7909 20 28C20 30.2091 21.7909 32 24 32C26.2091 32 28 30.2091 28 28C28 25.7909 26.2091 24 24 24ZM18 28C18 24.6863 20.6863 22 24 22C27.3137 22 30 24.6863 30 28C30 31.3137 27.3137 34 24 34C20.6863 34 18 31.3137 18 28Z" fill="#FDDA24"/>
<path fill-rule="evenodd" clip-rule="evenodd" d="M10 21C10 20.4477 10.4477 20 11 20H15C15.5523 20 16 20.4477 16 21C16 21.5523 15.5523 22 15 22H12V34H15C15.5523 34 16 34.4477 16 35C16 35.5523 15.5523 36 15 36H11C10.4477 36 10 35.5523 10 35V21ZM32 21C32 20.4477 32.4477 20 33 20H37C37.5523 20 38 20.4477 38 21V35C38 35.5523 37.5523 36 37 36H33C32.4477 36 32 35.5523 32 35V21ZM34 22V34H36V22H34Z" fill="#9063CD"/>
<path fill-rule="evenodd" clip-rule="evenodd" d="M24 7.92188C24.5523 7.92188 25 8.36959 25 8.92188V17.5877L28.2929 14.2948C28.6834 13.9042 29.3166 13.9042 29.7071 14.2948C30.0976 14.6853 30.0976 15.3185 29.7071 15.709L24.7071 20.709C24.3166 21.0995 23.6834 21.0995 23.2929 20.709L18.2929 15.709C17.9024 15.3185 17.9024 14.6853 18.2929 14.2948C18.6834 13.9042 19.3166 13.9042 19.7071 14.2948L23 17.5877V8.92188C23 8.36959 23.4477 7.92188 24 7.92188Z" fill="#00C389"/>
</svg>
