<svg width="48" height="48" viewBox="0 0 48 48" fill="none" xmlns="http://www.w3.org/2000/svg">
<path fill-rule="evenodd" clip-rule="evenodd" d="M6.11833 30.5281C6.29235 30.203 6.63121 30 7 30H17C17.5523 30 18 30.4477 18 31V37C18 37.5523 17.5523 38 17 38H11C10.6656 38 10.3534 37.8329 10.168 37.5547L6.16795 31.5547C5.96338 31.2478 5.94431 30.8533 6.11833 30.5281ZM8.86852 32L11.5352 36H16V32H8.86852ZM21 30C21.5523 30 22 30.4477 22 31V37C22 37.5523 21.5523 38 21 38C20.4477 38 20 37.5523 20 37V31C20 30.4477 20.4477 30 21 30ZM25 30C25.5523 30 26 30.4477 26 31V37C26 37.5523 25.5523 38 25 38C24.4477 38 24 37.5523 24 37V31C24 30.4477 24.4477 30 25 30Z" fill="#9063CD"/>
<path fill-rule="evenodd" clip-rule="evenodd" d="M27 10.127C26.314 10.3042 25.6811 10.662 25.1716 11.1716C24.4214 11.9217 24 12.9391 24 14C24 15.0609 24.4214 16.0783 25.1716 16.8284C25.6811 17.338 26.314 17.6958 27 17.873V10.127ZM24.4452 18.8336C24.2028 18.6553 23.9727 18.458 23.7574 18.2426C22.6321 17.1174 22 15.5913 22 14C22 12.4087 22.6321 10.8826 23.7574 9.75736C24.8826 8.63214 26.4087 8 28 8C28.2652 8 28.5196 8.10536 28.7071 8.29289C28.8946 8.48043 29 8.73478 29 9V19C29 19.5523 28.5523 20 28 20C24.6923 20 22 22.6923 22 26V28C22 28.5523 21.5523 29 21 29C20.4477 29 20 28.5523 20 28V26C20 22.8639 21.8124 20.1444 24.4452 18.8336Z" fill="#FDDA24"/>
<path fill-rule="evenodd" clip-rule="evenodd" d="M27.9986 12C28.8399 11.9988 29.672 12.1745 30.441 12.5158C31.2099 12.8571 31.8985 13.3562 32.4621 13.9809C33.0256 14.6055 33.4515 15.3417 33.7121 16.1416C33.9724 16.9408 34.0619 17.7858 33.9748 18.6219C33.6553 21.8041 30.777 24 27.72 24C26.7723 24 26 24.7723 26 25.72V28C26 28.5523 25.5523 29 25 29C24.4477 29 24 28.5523 24 28V25.72C24 23.6677 25.6677 22 27.72 22C29.9023 22 31.7833 20.437 31.985 18.4205L31.9854 18.416C32.0438 17.8582 31.9841 17.2943 31.8104 16.7611C31.6367 16.2278 31.3528 15.737 30.9771 15.3206C30.6014 14.9041 30.1423 14.5714 29.6297 14.3439C29.117 14.1164 28.5623 13.9992 28.0014 14C27.4491 14.0008 27.0008 13.5537 27 13.0014C26.9992 12.4491 27.4463 12.0008 27.9986 12Z" fill="#00C389"/>
<path fill-rule="evenodd" clip-rule="evenodd" d="M23.9998 4C27.7466 3.99936 31.4183 5.05078 34.5968 7.03455C37.7753 9.01833 40.3329 11.8547 41.9784 15.2208C42.221 15.717 42.0154 16.3158 41.5192 16.5584C41.023 16.801 40.4242 16.5954 40.1816 16.0992C38.7006 13.0696 36.3986 10.5167 33.5378 8.73122C30.6771 6.94574 27.3724 5.99942 24.0002 6C23.4479 6.00009 23.0001 5.55246 23 5.00017C22.9999 4.44789 23.4475 4.0001 23.9998 4Z" fill="#FDDA24"/>
<path d="M43.9993 23.9963L40.6435 14.7564L40.1792 16.0922C41.3366 18.4828 41.9993 21.1544 41.9993 23.9965L43.9993 23.9963Z" fill="#00C389"/>
<path d="M40.6435 14.7564C40.1464 14.9971 39.9386 15.5951 40.1792 16.0922L40.6435 14.7564Z" fill="#00C389"/>
<path d="M41.9794 15.2207C41.7387 14.7236 41.1406 14.5158 40.6435 14.7564L43.9993 23.9963C43.9993 20.8385 43.262 17.8701 41.9794 15.2207Z" fill="#00C389"/>
<path d="M41.0267 34.4931C42.9709 31.3372 44 27.703 43.9993 23.9963L41.9993 23.9965C41.9999 27.3327 41.0737 30.6037 39.3239 33.4442C37.5741 36.2847 35.0695 38.5832 32.0896 40.0833C31.5963 40.3316 31.3977 40.9328 31.6461 41.4261C31.8944 41.9194 32.4956 42.118 32.9889 41.8697C36.2998 40.2029 39.0826 37.6491 41.0267 34.4931Z" fill="#00C389"/>
<path fill-rule="evenodd" clip-rule="evenodd" d="M5.18168 26.841C5.72265 26.7298 6.25134 27.0782 6.36253 27.6192C8.04912 35.8247 15.3083 42.0005 24.003 42.0005C26.9255 42.0005 29.6704 41.3177 32.0902 40.0889C32.5827 39.8388 33.1846 40.0353 33.4346 40.5277C33.6847 41.0202 33.4882 41.6221 32.9958 41.8721C30.2957 43.2433 27.2406 44.0005 24.003 44.0005C14.3377 44.0005 6.2769 37.1363 4.40349 28.0218C4.29229 27.4809 4.6407 26.9522 5.18168 26.841Z" fill="#00CCEA"/>
<path fill-rule="evenodd" clip-rule="evenodd" d="M4 24C4 12.9477 12.9477 4 24 4C24.5523 4 25 4.44772 25 5C25 5.55228 24.5523 6 24 6C14.0523 6 6 14.0523 6 24C6 25.2493 6.13251 26.4645 6.36119 27.627C6.4678 28.1689 6.11492 28.6946 5.57302 28.8012C5.03112 28.9078 4.50541 28.5549 4.39881 28.013C4.14749 26.7355 4 25.3907 4 24Z" fill="#F5B6CD"/>
<path fill-rule="evenodd" clip-rule="evenodd" d="M9.85539 9.85539C10.2459 9.46487 10.8791 9.46487 11.2696 9.85539L37.7096 36.2954C38.1001 36.6859 38.1001 37.3191 37.7096 37.7096C37.3191 38.1001 36.6859 38.1001 36.2954 37.7096L9.85539 11.2696C9.46487 10.8791 9.46487 10.2459 9.85539 9.85539Z" fill="#FF7F37"/>
</svg>
