<svg width="48" height="48" viewBox="0 0 48 48" fill="none" xmlns="http://www.w3.org/2000/svg">
<path d="M34 10.5H5C4.4 10.5 4 10.1 4 9.5C4 8.9 4.4 8.5 5 8.5H34C34.6 8.5 35 8.9 35 9.5C35 10.1 34.6 10.5 34 10.5Z" fill="#F5B6CD"/>
<path d="M10.3 30.7H6V9.5C6 8.9 5.6 8.5 5 8.5C4.4 8.5 4 8.9 4 9.5V31.8C4 32.4 4.4 32.8 5 32.8H10.3C10.9 32.8 11.3 32.4 11.3 31.8C11.3 31.2 10.9 30.7 10.3 30.7Z" fill="#59CBE8"/>
<path d="M22.3008 30.6992H16.8008C16.2008 30.6992 15.8008 31.0992 15.8008 31.6992C15.8008 32.2992 16.2008 32.6992 16.8008 32.6992H22.3008C22.9008 32.6992 23.3008 32.2992 23.3008 31.6992C23.3008 31.0992 22.8008 30.6992 22.3008 30.6992Z" fill="#59CBE8"/>
<path d="M38.4992 32.6992H28.6992C28.0992 32.6992 27.6992 32.2992 27.6992 31.6992C27.6992 31.0992 28.0992 30.6992 28.6992 30.6992H38.4992C40.3992 30.6992 41.9992 29.0992 41.9992 27.1992C41.9992 26.5992 42.3992 26.1992 42.9992 26.1992C43.5992 26.1992 43.9992 26.5992 43.9992 27.1992C43.9992 30.2992 41.4992 32.6992 38.4992 32.6992Z" fill="#00C389"/>
<path d="M38.5 4C35.5 4 33 6.5 33 9.5V27.3C33 27.9 33.4 28.3 34 28.3C34.6 28.3 35 27.9 35 27.3C35 25.4 36.6 23.8 38.5 23.8C40.4 23.8 42 25.4 42 27.3C42 27.9 42.4 28.3 43 28.3C43.6 28.3 44 27.9 44 27.3V9.5C44 6.5 41.5 4 38.5 4ZM38.5 21.8C37.2 21.8 36 22.3 35 23V9.5C35 7.6 36.6 6 38.5 6C40.4 6 42 7.6 42 9.5V23.1C41.1 22.3 39.8 21.8 38.5 21.8Z" fill="#FDDA24"/>
<path d="M25.5008 15C23.2008 15 21.3008 16.9 21.3008 19.2V39.4C21.3008 39.7 21.4008 39.9 21.6008 40.1L24.8008 43.2C25.0008 43.4 25.2008 43.5 25.5008 43.5C25.8008 43.5 26.0008 43.4 26.2008 43.2L29.4008 40.1C29.6008 39.9 29.7008 39.6 29.7008 39.4V19.3C29.7008 16.9 27.8008 15 25.5008 15ZM25.5008 17C26.7008 17 27.7008 18 27.7008 19.2V20.2H23.2008V19.2C23.3008 18 24.3008 17 25.5008 17ZM25.5008 41.1L23.3008 39V22.3H27.8008V39L25.5008 41.1Z" fill="#FF7F41"/>
<path d="M16.8008 15H10.3008C9.70078 15 9.30078 15.4 9.30078 16V43C9.30078 43.6 9.70078 44 10.3008 44H16.8008C17.4008 44 17.8008 43.6 17.8008 43V16C17.8008 15.5 17.4008 15 16.8008 15ZM15.8008 42H11.3008V39.5H14.0008C14.6008 39.5 15.0008 39.1 15.0008 38.5C15.0008 37.9 14.6008 37.5 14.0008 37.5H11.3008V35H14.0008C14.6008 35 15.0008 34.6 15.0008 34C15.0008 33.4 14.6008 33 14.0008 33H11.3008V30.5H14.0008C14.6008 30.5 15.0008 30.1 15.0008 29.5C15.0008 28.9 14.6008 28.5 14.0008 28.5H11.3008V26H14.0008C14.6008 26 15.0008 25.6 15.0008 25C15.0008 24.4 14.6008 24 14.0008 24H11.3008V21.5H14.0008C14.6008 21.5 15.0008 21.1 15.0008 20.5C15.0008 19.9 14.6008 19.5 14.0008 19.5H11.3008V17H15.8008V42Z" fill="#9063CD"/>
</svg>
