<svg width="48" height="48" viewBox="0 0 48 48" fill="none" xmlns="http://www.w3.org/2000/svg">
<path fill-rule="evenodd" clip-rule="evenodd" d="M23 13C23 12.4477 23.4477 12 24 12C28.4123 12 32 15.5877 32 20C32 21.1 31.7707 22.1537 31.3591 23.1139C31.1416 23.6215 30.5537 23.8567 30.0461 23.6391C29.5385 23.4216 29.3033 22.8337 29.5209 22.3261C29.8293 21.6063 30 20.82 30 20C30 16.6923 27.3077 14 24 14C23.4477 14 23 13.5523 23 13Z" fill="#9063CD"/>
<path fill-rule="evenodd" clip-rule="evenodd" d="M24.9973 12.9996C24.9975 13.5519 24.55 13.9998 23.9977 14C23.0493 14.0004 22.1144 14.2253 21.2697 14.6563C20.4249 15.0874 19.6941 15.7123 19.1372 16.4799C18.5803 17.2476 18.213 18.1362 18.0654 19.073C17.9178 20.0099 17.9941 20.9684 18.288 21.8701C18.4592 22.3952 18.1723 22.9596 17.6472 23.1308C17.1221 23.3019 16.5577 23.015 16.3865 22.4899C15.9947 21.2881 15.893 20.0105 16.0897 18.7618C16.2865 17.5131 16.776 16.3287 17.5183 15.3055C18.2607 14.2823 19.2347 13.4493 20.3607 12.8748C21.4867 12.3003 22.7327 12.0005 23.9969 12C24.5491 11.9998 24.997 12.4473 24.9973 12.9996Z" fill="#00C389"/>
<path fill-rule="evenodd" clip-rule="evenodd" d="M17.0244 21.2298C17.5492 21.0576 18.1142 21.3434 18.2864 21.8682C18.6673 23.0292 19.3937 24.0462 20.3683 24.7832C21.3429 25.5202 22.5193 25.9421 23.7402 25.9924C24.9611 26.0428 26.1682 25.7191 27.2002 25.0648C28.2321 24.4105 29.0397 23.4568 29.5149 22.331C29.7297 21.8222 30.3163 21.5839 30.8251 21.7987C31.3339 22.0135 31.5723 22.6001 31.3575 23.1089C30.7239 24.6098 29.6471 25.8815 28.2711 26.7539C26.8952 27.6263 25.2856 28.0578 23.6578 27.9907C22.03 27.9236 20.4614 27.3611 19.162 26.3784C17.8625 25.3958 16.894 24.0397 16.3861 22.4917C16.2139 21.967 16.4997 21.402 17.0244 21.2298Z" fill="#F5B6CD"/>
<path fill-rule="evenodd" clip-rule="evenodd" d="M24 6C16.2723 6 10 12.2723 10 20C10 20.5523 9.55228 21 9 21C8.44772 21 8 20.5523 8 20C8 11.1677 15.1677 4 24 4C24.5523 4 25 4.44772 25 5C25 5.55228 24.5523 6 24 6Z" fill="#59CBE8"/>
<path fill-rule="evenodd" clip-rule="evenodd" d="M9 19C9.55228 19 10 19.4477 10 20C10 26.1254 13.547 31.6401 17.2399 35.7023C19.0726 37.7183 20.9083 39.3401 22.2862 40.4577C22.9744 41.016 23.5465 41.4468 23.9443 41.7367C24.1432 41.8816 24.2984 41.9911 24.4026 42.0636C24.4546 42.0998 24.494 42.1268 24.5196 42.1442L24.5478 42.1633L24.5539 42.1674L24.5547 42.1679L24.555 42.1681L24.555 42.1682C25.0143 42.4746 25.1383 43.0953 24.8321 43.5547C24.5257 44.0142 23.9048 44.1384 23.4453 43.8321L24 43C23.4453 43.8321 23.445 43.8319 23.4446 43.8316L23.4436 43.8309L23.4406 43.8289L23.4305 43.8221L23.3943 43.7976C23.3632 43.7764 23.3183 43.7456 23.2605 43.7055C23.145 43.6251 22.9779 43.5071 22.7666 43.3532C22.3441 43.0454 21.7443 42.5934 21.0263 42.011C19.5917 40.8474 17.6774 39.1567 15.7601 37.0477C11.953 32.8599 8 26.8746 8 20C8 19.4477 8.44772 19 9 19Z" fill="#FF7F41"/>
<path fill-rule="evenodd" clip-rule="evenodd" d="M39.0001 19C39.5524 19 40.0001 19.4477 40.0001 20C40.0001 26.8746 36.0472 32.8599 32.24 37.0477C30.3228 39.1567 28.4084 40.8474 26.9738 42.011C26.2558 42.5934 25.656 43.0454 25.2335 43.3532C25.0222 43.5071 24.8551 43.6251 24.7396 43.7055C24.6818 43.7456 24.6369 43.7764 24.6058 43.7976L24.5696 43.8221L24.5595 43.8289L24.5565 43.8309L24.5555 43.8316C24.5551 43.8319 24.5548 43.8321 24.0001 43L24.5548 43.8321C24.0953 44.1384 23.4744 44.0142 23.1681 43.5547C22.8618 43.0953 22.9858 42.4746 23.4451 42.1682L23.4451 42.1681L23.4454 42.1679L23.4462 42.1674L23.4523 42.1633L23.4805 42.1442C23.5061 42.1268 23.5455 42.0998 23.5976 42.0636C23.7017 41.9911 23.8569 41.8816 24.0558 41.7367C24.4536 41.4468 25.0257 41.016 25.7139 40.4577C27.0919 39.3401 28.9275 37.7183 30.7602 35.7023C34.4531 31.6401 38.0001 26.1254 38.0001 20C38.0001 19.4477 38.4478 19 39.0001 19Z" fill="#FDDA24"/>
<path fill-rule="evenodd" clip-rule="evenodd" d="M23 5C23 4.44772 23.4477 4 24 4C32.8323 4 40 11.1677 40 20C40 20.5523 39.5523 21 39 21C38.4477 21 38 20.5523 38 20C38 12.2723 31.7277 6 24 6C23.4477 6 23 5.55228 23 5Z" fill="#00C389"/>
</svg>
