<svg width="48" height="48" viewBox="0 0 48 48" fill="none" xmlns="http://www.w3.org/2000/svg">
<path fill-rule="evenodd" clip-rule="evenodd" d="M23 5C23 4.44772 23.4477 4 24 4C32.8323 4 40 11.1677 40 20C40 20.5523 39.5523 21 39 21C38.4477 21 38 20.5523 38 20C38 12.2723 31.7277 6 24 6C23.4477 6 23 5.55228 23 5Z" fill="#00C389"/>
<path fill-rule="evenodd" clip-rule="evenodd" d="M39.0003 19C39.5526 19.0002 40.0002 19.448 40 20.0003C39.9993 22.3727 39.4713 24.7153 38.454 26.8586C37.4368 29.0019 35.9559 30.8922 34.1183 32.3929C32.2808 33.8935 30.1327 34.9669 27.8294 35.5354C25.7812 36.0409 23.6558 36.1359 21.5755 35.8179C21.4127 35.9326 21.2142 36 21 36C20.4477 36 20 35.5523 20 35V34.7C20 34.3998 20.1349 34.1155 20.3674 33.9256C20.5998 33.7356 20.9054 33.6602 21.1995 33.7201C23.2338 34.1343 25.3346 34.0911 27.3501 33.5937C29.3656 33.0962 31.2454 32.1569 32.8533 30.8438C34.4612 29.5307 35.7571 27.8765 36.6472 26.0011C37.5373 24.1256 37.9994 22.0757 38 19.9997C38.0002 19.4474 38.448 18.9998 39.0003 19Z" fill="#F5B6CD"/>
<path fill-rule="evenodd" clip-rule="evenodd" d="M9 20C9.55228 20 10 20.4477 10 21V37C10 39.7677 12.2323 42 15 42C17.7677 42 20 39.7677 20 37V35C20 34.4477 20.4477 34 21 34C21.5523 34 22 34.4477 22 35V37C22 40.8723 18.8723 44 15 44C11.1277 44 8 40.8723 8 37V21C8 20.4477 8.44772 20 9 20Z" fill="#FDDA24"/>
<path d="M24.0201 18.001C24.5827 18.001 25.0999 18.2394 25.4782 18.6331L28.0001 18.001C27.735 18.001 27.4353 17.8607 27.1381 17.4926L27.132 17.4853C26.3965 16.5921 25.2809 16.001 24.0201 16.001C21.8078 16.001 20.0201 17.7887 20.0201 20.001L22.0874 19.4829C22.3146 18.6278 23.0917 18.001 24.0201 18.001Z" fill="#FF7F41"/>
<path d="M24.0201 22.001C22.9124 22.001 22.0201 21.1087 22.0201 20.001C22.0201 19.8217 22.0435 19.648 22.0874 19.4829L20.0201 20.001L24.0201 24.001L27.2454 22.3802C27.3644 22.2505 27.4912 22.156 27.6187 22.0938L28.56 20.0367C28.3783 20.0132 28.1916 20.001 28.0001 20.001C26.9603 20.001 26.1132 20.5656 25.5731 21.264C25.2168 21.7097 24.6635 22.001 24.0201 22.001Z" fill="#FF7F41"/>
<path d="M20.0201 20.001C20.0201 22.2133 21.8078 24.001 24.0201 24.001L20.0201 20.001Z" fill="#FF7F41"/>
<path d="M27.1433 22.503L27.1527 22.4907C27.183 22.4514 27.2139 22.4146 27.2454 22.3802L24.0201 24.001C25.2943 24.001 26.4194 23.4146 27.1433 22.503Z" fill="#FF7F41"/>
<path d="M30.9583 27.1569L30.9601 27.1551C33.5012 24.6643 31.8772 20.4661 28.56 20.0367L27.6187 22.0938C27.7477 22.0309 27.8772 22.001 28.0001 22.001C29.9529 22.001 30.9193 24.393 29.561 25.7259C29.1049 26.1707 28.5978 26.5616 28.0492 26.8882L24.0005 30.001C26.7152 30.0009 29.1619 28.9089 30.9583 27.1569Z" fill="#FF7F41"/>
<path d="M24.941 27.9457L24.0005 30.001L28.0492 26.8882C27.1175 27.443 26.0661 27.8124 24.941 27.9457Z" fill="#FF7F41"/>
<path d="M24.0001 28.001C22.6804 28.0015 21.3806 27.6755 20.2174 27.052C19.0542 26.4285 18.0633 25.527 17.3331 24.4277C17.0275 23.9676 16.4068 23.8424 15.9468 24.148C15.4867 24.4536 15.3616 25.0743 15.6671 25.5343C16.58 26.9085 17.8186 28.0354 19.2726 28.8148C20.7265 29.594 22.3509 30.0016 24.0005 30.001L24.941 27.9457C24.6326 27.9822 24.3186 28.001 24.0001 28.001Z" fill="#FF7F41"/>
<path d="M28.0001 20.001C28.204 20.001 28.4022 19.9875 28.5944 19.9617L31.1096 14.4651L30.2042 15.5515C30.3175 16.7975 29.3825 18.001 28.0001 18.001L25.4782 18.6331C25.5154 18.6718 25.5513 18.712 25.5857 18.7537C26.1284 19.4238 26.9475 20.001 28.0001 20.001Z" fill="#FF7F41"/>
<path d="M32.196 15.3705C32.146 14.8204 31.6596 14.4151 31.1096 14.4651L28.5944 19.9617C30.9446 19.6452 32.3871 17.4726 32.196 15.3705Z" fill="#FF7F41"/>
<path fill-rule="evenodd" clip-rule="evenodd" d="M14 20.0035C14 14.2562 19.1428 9.53752 24.885 10.0272L24.8854 10.0272C27.2261 10.2278 29.3394 11.2532 30.9371 12.8065L30.9472 12.8164L30.9471 12.8164C31.6878 13.5571 32.0948 14.4542 32.1761 15.3756C32.2247 15.9258 31.818 16.4111 31.2679 16.4597C30.7177 16.5082 30.2324 16.1016 30.1839 15.5514C30.1453 15.1145 29.9537 14.6535 29.5376 14.2354C28.2561 12.9917 26.5717 12.1792 24.715 12.0199M24.7146 12.0199C20.1369 11.6298 16 15.4311 16 20.0035C16 21.6358 16.4958 23.1477 17.3374 24.4369C17.6393 24.8994 17.5091 25.519 17.0466 25.8209C16.5842 26.1228 15.9645 25.9926 15.6626 25.5302C14.6242 23.9394 14 22.0513 14 20.0035" fill="#9063CD"/>
<path fill-rule="evenodd" clip-rule="evenodd" d="M8 20C8 11.1677 15.1677 4 24 4C24.5523 4 25 4.44772 25 5C25 5.55228 24.5523 6 24 6C16.2723 6 10 12.2723 10 20C10 20.5523 9.55228 21 9 21C8.44772 21 8 20.5523 8 20Z" fill="#00CCEA"/>
</svg>
