<svg width="48" height="48" viewBox="0 0 48 48" fill="none" xmlns="http://www.w3.org/2000/svg">
<path fill-rule="evenodd" clip-rule="evenodd" d="M8.55204 6.03374L6.03374 8.55204C6.22998 7.26038 7.26038 6.22998 8.55204 6.03374ZM4 9C4 6.24772 6.24772 4 9 4H11C11.4045 4 11.7691 4.24364 11.9239 4.61732C12.0787 4.99099 11.9931 5.42111 11.7071 5.70711L5.70711 11.7071C5.42111 11.9931 4.99099 12.0787 4.61732 11.9239C4.24364 11.7691 4 11.4045 4 11V9ZM34.0761 4.61732C34.2309 4.24364 34.5955 4 35 4H37C39.7523 4 42 6.24772 42 9V11C42 11.4045 41.7564 11.7691 41.3827 11.9239C41.009 12.0787 40.5789 11.9931 40.2929 11.7071L34.2929 5.70711C34.0069 5.42111 33.9213 4.99099 34.0761 4.61732ZM39.9663 8.55204L37.448 6.03374C38.7396 6.22998 39.77 7.26038 39.9663 8.55204ZM41.3827 34.0761C41.7564 34.2309 42 34.5955 42 35V37C42 39.7523 39.7523 42 37 42H35C34.5955 42 34.2309 41.7564 34.0761 41.3827C33.9213 41.009 34.0069 40.5789 34.2929 40.2929L40.2929 34.2929C40.5789 34.0069 41.009 33.9213 41.3827 34.0761ZM5 34C5.55228 34 6 34.4477 6 35V37C6 38.6477 7.35228 40 9 40H11C11.5523 40 12 40.4477 12 41C12 41.5523 11.5523 42 11 42H9C6.24772 42 4 39.7523 4 37V35C4 34.4477 4.44772 34 5 34ZM39.9663 37.448C39.77 38.7396 38.7396 39.77 37.448 39.9663L39.9663 37.448Z" fill="#FDDA24"/>
<path fill-rule="evenodd" clip-rule="evenodd" d="M10 11C10 10.4477 10.4477 10 11 10H21C21.5523 10 22 10.4477 22 11V21C22 21.5523 21.5523 22 21 22H11C10.4477 22 10 21.5523 10 21V11ZM12 12V20H20V12H12Z" fill="#00CCEA"/>
<path fill-rule="evenodd" clip-rule="evenodd" d="M24 11C24 10.4477 24.4477 10 25 10H35C35.5523 10 36 10.4477 36 11V21C36 21.5523 35.5523 22 35 22H25C24.4477 22 24 21.5523 24 21V11ZM26 12V20H34V12H26Z" fill="#F5B6CD"/>
<path fill-rule="evenodd" clip-rule="evenodd" d="M14 15C14 14.4477 14.4477 14 15 14H17C17.5523 14 18 14.4477 18 15V17C18 17.5523 17.5523 18 17 18H15C14.4477 18 14 17.5523 14 17V15ZM28 15C28 14.4477 28.4477 14 29 14H31C31.5523 14 32 14.4477 32 15V17C32 17.5523 31.5523 18 31 18H29C28.4477 18 28 17.5523 28 17V15ZM14 29C14 28.4477 14.4477 28 15 28H17C17.5523 28 18 28.4477 18 29V31C18 31.5523 17.5523 32 17 32H15C14.4477 32 14 31.5523 14 31V29ZM28 29C28 28.4477 28.4477 28 29 28H31C31.5523 28 32 28.4477 32 29V31C32 31.5523 31.5523 32 31 32H29C28.4477 32 28 31.5523 28 31V29Z" fill="#00C389"/>
<path fill-rule="evenodd" clip-rule="evenodd" d="M10 25C10 24.4477 10.4477 24 11 24H21C21.5523 24 22 24.4477 22 25V35C22 35.5523 21.5523 36 21 36H11C10.4477 36 10 35.5523 10 35V25ZM12 26V34H20V26H12Z" fill="#9063CD"/>
<path fill-rule="evenodd" clip-rule="evenodd" d="M24 25C24 24.4477 24.4477 24 25 24H35C35.5523 24 36 24.4477 36 25V35C36 35.5523 35.5523 36 35 36H25C24.4477 36 24 35.5523 24 35V25ZM26 26V34H34V26H26Z" fill="#FF7F37"/>
</svg>
