<svg width="48" height="48" viewBox="0 0 48 48" fill="none" xmlns="http://www.w3.org/2000/svg">
<path fill-rule="evenodd" clip-rule="evenodd" d="M5 26C5.55228 26 6 26.4477 6 27V32C6 35.1871 9.00341 38 13 38C16.9966 38 20 35.1871 20 32V27C20 26.4477 20.4477 26 21 26C21.5523 26 22 26.4477 22 27V32C22 36.5329 17.8434 40 13 40C8.15659 40 4 36.5329 4 32V27C4 26.4477 4.44772 26 5 26Z" fill="#FDDA24"/>
<path fill-rule="evenodd" clip-rule="evenodd" d="M6.00545 25.796C5.91253 28.9871 8.83393 31.8809 12.8278 31.9972C16.8217 32.1135 19.9066 29.3946 19.9995 26.2035C20.0924 23.0124 17.171 20.1186 13.1771 20.0023C9.18323 19.886 6.09838 22.6049 6.00545 25.796ZM12.7696 33.9963C7.93072 33.8554 3.87416 30.2754 4.0063 25.7378C4.13844 21.2002 8.39645 17.8622 13.2354 18.0031C18.0743 18.144 22.1308 21.7241 21.9987 26.2617C21.8665 30.7993 17.6085 34.1373 12.7696 33.9963Z" fill="#FDDA24"/>
<path fill-rule="evenodd" clip-rule="evenodd" d="M6.00545 25.796C5.91253 28.9871 8.83393 31.8809 12.8278 31.9972C16.8217 32.1135 19.9066 29.3946 19.9995 26.2035C20.0924 23.0124 17.171 20.1186 13.1771 20.0023C9.18323 19.886 6.09838 22.6049 6.00545 25.796ZM12.7696 33.9963C7.93072 33.8554 3.87416 30.2754 4.0063 25.7378C4.13844 21.2002 8.39645 17.8622 13.2354 18.0031C18.0743 18.144 22.1308 21.7241 21.9987 26.2617C21.8665 30.7993 17.6085 34.1373 12.7696 33.9963Z" fill="#FDDA24"/>
<path fill-rule="evenodd" clip-rule="evenodd" d="M27 22C27.5523 22 28 22.4477 28 23V28C28 31.1871 31.0034 34 35 34C38.9966 34 42 31.1871 42 28V23C42 22.4477 42.4477 22 43 22C43.5523 22 44 22.4477 44 23V28C44 32.5329 39.8434 36 35 36C30.1566 36 26 32.5329 26 28V23C26 22.4477 26.4477 22 27 22Z" fill="#00C389"/>
<path fill-rule="evenodd" clip-rule="evenodd" d="M27 28C27.5523 28 28 28.4477 28 29V34C28 37.1871 31.0034 40 35 40C38.9966 40 42 37.1871 42 34V29C42 28.4477 42.4477 28 43 28C43.5523 28 44 28.4477 44 29V34C44 38.5329 39.8434 42 35 42C30.1566 42 26 38.5329 26 34V29C26 28.4477 26.4477 28 27 28Z" fill="#00C389"/>
<path fill-rule="evenodd" clip-rule="evenodd" d="M27 16C27.5523 16 28 16.4477 28 17V22C28 25.1871 31.0034 28 35 28C38.9966 28 42 25.1871 42 22V17C42 16.4477 42.4477 16 43 16C43.5523 16 44 16.4477 44 17V22C44 26.5329 39.8434 30 35 30C30.1566 30 26 26.5329 26 22V17C26 16.4477 26.4477 16 27 16Z" fill="#9063CD"/>
<path fill-rule="evenodd" clip-rule="evenodd" d="M12.2929 8.29289C12.6834 7.90237 13.3166 7.90237 13.7071 8.29289L19.7071 14.2929C20.0976 14.6834 20.0976 15.3166 19.7071 15.7071C19.3166 16.0976 18.6834 16.0976 18.2929 15.7071L13 10.4142L7.70711 15.7071C7.31658 16.0976 6.68342 16.0976 6.29289 15.7071C5.90237 15.3166 5.90237 14.6834 6.29289 14.2929L12.2929 8.29289Z" fill="#FF7F37"/>
<path fill-rule="evenodd" clip-rule="evenodd" d="M10.7716 24.6787C10.2371 25.0795 10 25.5569 10 26C10 26.4431 10.2371 26.9205 10.7716 27.3213C11.3063 27.7224 12.0909 28 13 28C13.9091 28 14.6937 27.7224 15.2284 27.3213C15.7629 26.9205 16 26.4431 16 26C16 25.5569 15.7629 25.0795 15.2284 24.6787C14.6937 24.2776 13.9091 24 13 24C12.0909 24 11.3063 24.2776 10.7716 24.6787ZM9.57157 23.0787C10.4845 22.3939 11.7 22 13 22C14.3 22 15.5155 22.3939 16.4284 23.0787C17.3417 23.7636 18 24.7862 18 26C18 27.2138 17.3417 28.2364 16.4284 28.9213C15.5155 29.6061 14.3 30 13 30C11.7 30 10.4845 29.6061 9.57157 28.9213C8.65829 28.2364 8 27.2138 8 26C8 24.7862 8.65829 23.7636 9.57157 23.0787Z" fill="#00CCEA"/>
<path fill-rule="evenodd" clip-rule="evenodd" d="M35 10C31.0044 10 28 12.8075 28 16C28 19.1925 31.0044 22 35 22C38.9956 22 42 19.1925 42 16C42 12.8075 38.9956 10 35 10ZM26 16C26 11.4605 30.159 8 35 8C39.841 8 44 11.4605 44 16C44 20.5395 39.841 24 35 24C30.159 24 26 20.5395 26 16Z" fill="#9063CD"/>
<path fill-rule="evenodd" clip-rule="evenodd" d="M32.7716 14.6787C32.2371 15.0795 32 15.5569 32 16C32 16.4431 32.2371 16.9205 32.7716 17.3213C33.3063 17.7224 34.0909 18 35 18C35.9091 18 36.6937 17.7224 37.2284 17.3213C37.7629 16.9205 38 16.4431 38 16C38 15.5569 37.7629 15.0795 37.2284 14.6787C36.6937 14.2776 35.9091 14 35 14C34.0909 14 33.3063 14.2776 32.7716 14.6787ZM31.5716 13.0787C32.4845 12.3939 33.7 12 35 12C36.3 12 37.5155 12.3939 38.4284 13.0787C39.3417 13.7636 40 14.7862 40 16C40 17.2138 39.3417 18.2364 38.4284 18.9213C37.5155 19.6061 36.3 20 35 20C33.7 20 32.4845 19.6061 31.5716 18.9213C30.6583 18.2364 30 17.2138 30 16C30 14.7862 30.6583 13.7636 31.5716 13.0787Z" fill="#F5B6CD"/>
</svg>
