<svg width="48" height="48" viewBox="0 0 48 48" fill="none" xmlns="http://www.w3.org/2000/svg">
<path fill-rule="evenodd" clip-rule="evenodd" d="M38 15C38 14.4477 38.4477 14 39 14H43C43.5523 14 44 14.4477 44 15V37C44 37.5523 43.5523 38 43 38H40.76C40.2077 38 39.76 37.5523 39.76 37C39.76 36.4477 40.2077 36 40.76 36H42V16H39C38.4477 16 38 15.5523 38 15Z" fill="#9063CD"/>
<path fill-rule="evenodd" clip-rule="evenodd" d="M9 32C9.55228 32 10 32.4477 10 33V36H40.76C41.3123 36 41.76 36.4477 41.76 37C41.76 37.5523 41.3123 38 40.76 38H9C8.44772 38 8 37.5523 8 37V33C8 32.4477 8.44772 32 9 32Z" fill="#F5B6CD"/>
<path fill-rule="evenodd" clip-rule="evenodd" d="M4 11C4 10.4477 4.44772 10 5 10H9.72C10.2723 10 10.72 10.4477 10.72 11C10.72 11.5523 10.2723 12 9.72 12H6V32H33C33.5523 32 34 32.4477 34 33C34 33.5523 33.5523 34 33 34H5C4.44772 34 4 33.5523 4 33V11Z" fill="#00C389"/>
<path fill-rule="evenodd" clip-rule="evenodd" d="M8.71875 11C8.71875 10.4477 9.16647 10 9.71875 10H38.9987C39.551 10 39.9987 10.4477 39.9987 11V33C39.9987 33.5523 39.551 34 38.9987 34H32.9987C32.4465 34 31.9987 33.5523 31.9987 33C31.9987 32.4477 32.4465 32 32.9987 32H37.9987V12H9.71875C9.16647 12 8.71875 11.5523 8.71875 11Z" fill="#FDDA24"/>
<path fill-rule="evenodd" clip-rule="evenodd" d="M22 18C19.7909 18 18 19.7909 18 22C18 24.2091 19.7909 26 22 26C24.2091 26 26 24.2091 26 22C26 19.7909 24.2091 18 22 18ZM16 22C16 18.6863 18.6863 16 22 16C25.3137 16 28 18.6863 28 22C28 25.3137 25.3137 28 22 28C18.6863 28 16 25.3137 16 22Z" fill="#FF7F37"/>
<path fill-rule="evenodd" clip-rule="evenodd" d="M30 15C30 14.4477 30.4477 14 31 14H35C35.5523 14 36 14.4477 36 15V29C36 29.5523 35.5523 30 35 30H31C30.4477 30 30 29.5523 30 29C30 28.4477 30.4477 28 31 28H34V16H31C30.4477 16 30 15.5523 30 15Z" fill="#FF7F37"/>
<path fill-rule="evenodd" clip-rule="evenodd" d="M8 15C8 14.4477 8.44772 14 9 14H13C13.5523 14 14 14.4477 14 15C14 15.5523 13.5523 16 13 16H10V28H13C13.5523 28 14 28.4477 14 29C14 29.5523 13.5523 30 13 30H9C8.44772 30 8 29.5523 8 29V15Z" fill="#00CCEA"/>
</svg>
