<svg width="48" height="48" viewBox="0 0 48 48" fill="none" xmlns="http://www.w3.org/2000/svg">
<path fill-rule="evenodd" clip-rule="evenodd" d="M19 34C19.5523 34 20 34.4477 20 35V38.02C20 39.1077 20.8923 40 21.98 40C23.0677 40 23.96 39.1077 23.96 38.02C23.96 37.4677 24.4077 37.02 24.96 37.02C25.5123 37.02 25.96 37.4677 25.96 38.02C25.96 40.2123 24.1723 42 21.98 42C19.7877 42 18 40.2123 18 38.02V35C18 34.4477 18.4477 34 19 34Z" fill="#00C389"/>
<path fill-rule="evenodd" clip-rule="evenodd" d="M25.0036 22C25.5559 22.0015 26.0024 22.4504 26.0009 23.0027L25.9609 38.0227C25.9595 38.5749 25.5106 39.0215 24.9583 39.02C24.406 39.0185 23.9595 38.5696 23.9609 38.0173L24.0009 22.9973C24.0024 22.4451 24.4513 21.9985 25.0036 22Z" fill="#00CCEA"/>
<path fill-rule="evenodd" clip-rule="evenodd" d="M35.9975 20L36 20C38.0227 20 39.8937 20.6014 41.472 21.6462C41.9325 21.951 42.0587 22.5715 41.7539 23.032C41.449 23.4925 40.8285 23.6187 40.368 23.3139C39.1066 22.4788 37.6181 22.0003 36.0013 22C34.0292 22.0053 32.13 22.7461 30.6752 24.0777C30.2954 24.4253 29.7137 24.4277 29.331 24.0833C27.8985 22.794 26.052 22 24 22C21.948 22 20.1015 22.794 18.669 24.0833C18.2585 24.4528 17.6262 24.4195 17.2567 24.009C16.8873 23.5985 16.9205 22.9662 17.331 22.5967C19.0985 21.006 21.412 20 24 20C26.2715 20 28.3315 20.775 29.9964 22.04C31.7134 20.7269 33.82 20.0055 35.9975 20Z" fill="#FDDA24"/>
<path fill-rule="evenodd" clip-rule="evenodd" d="M15.5548 9.21027C15.8573 9.67237 15.7279 10.2922 15.2658 10.5946C13.242 11.9193 11.5439 13.6843 10.2986 15.7578C9.38073 17.2859 8.72628 18.9524 8.35799 20.6875C9.48575 20.2414 10.7112 19.9979 11.9981 19.9979C14.5861 19.9979 16.8997 21.0039 18.6671 22.5946C19.0776 22.9641 19.1109 23.5964 18.7414 24.0069C18.372 24.4174 17.7397 24.4507 17.3292 24.0812C15.8966 22.7919 14.0502 21.9979 11.9981 21.9979C10.3809 21.9979 8.89185 22.4766 7.63013 23.3118C7.30951 23.524 6.8956 23.5336 6.56547 23.3365C6.23535 23.1394 6.04747 22.7705 6.08223 22.3875C6.32815 19.6784 7.18341 17.06 8.58404 14.728C9.98468 12.3961 11.8944 10.411 14.1705 8.92122C14.6326 8.61876 15.2524 8.74817 15.5548 9.21027Z" fill="#9063CD"/>
<path fill-rule="evenodd" clip-rule="evenodd" d="M23.9982 6.00001C27.3952 5.9959 30.7232 6.95837 33.5937 8.77503C34.0603 9.07038 34.1992 9.68812 33.9039 10.1548C33.6085 10.6215 32.9908 10.7604 32.5241 10.465C29.9742 8.8512 27.0178 7.99625 24.0001 8.00001L23.9989 8.00001C20.7795 8.00001 17.7688 8.9599 15.2663 10.5969C14.8041 10.8992 14.1843 10.7696 13.882 10.3074C13.5797 9.84525 13.7093 9.22549 14.1714 8.92315C16.9888 7.08024 20.3779 6.00014 23.9982 6.00001ZM23.9982 6.00001C23.9984 6.00001 23.9987 6.00001 23.9989 6.00001V7.00001L23.9976 6.00001C23.9978 6.00001 23.998 6.00001 23.9982 6.00001Z" fill="#FF7F37"/>
<path fill-rule="evenodd" clip-rule="evenodd" d="M32.1916 9.08664C32.4847 8.61854 33.1018 8.47666 33.5699 8.76975C35.9189 10.2405 37.895 12.2358 39.343 14.5989C40.791 16.962 41.6715 19.6286 41.9153 22.3893C41.9639 22.9395 41.5573 23.4249 41.0072 23.4734C40.457 23.522 39.9717 23.1154 39.9231 22.5653C39.7064 20.1125 38.9242 17.7434 37.6377 15.6438C36.3512 13.5443 34.5955 11.7716 32.5085 10.4649C32.0404 10.1718 31.8985 9.55475 32.1916 9.08664Z" fill="#F5B6CD"/>
</svg>
