<svg width="48" height="48" viewBox="0 0 48 48" fill="none" xmlns="http://www.w3.org/2000/svg">
<path fill-rule="evenodd" clip-rule="evenodd" d="M16 5C16 4.44772 16.4477 4 17 4H29C29.5523 4 30 4.44772 30 5V13C30 13.5523 29.5523 14 29 14C28.4477 14 28 13.5523 28 13V6H18V13C18 13.5523 17.5523 14 17 14C16.4477 14 16 13.5523 16 13V5Z" fill="#00C389"/>
<path fill-rule="evenodd" clip-rule="evenodd" d="M17 34C17.5523 34 18 34.4477 18 35V42H28V35C28 34.4477 28.4477 34 29 34C29.5523 34 30 34.4477 30 35V43C30 43.5523 29.5523 44 29 44H17C16.4477 44 16 43.5523 16 43V35C16 34.4477 16.4477 34 17 34Z" fill="#FDDA24"/>
<path fill-rule="evenodd" clip-rule="evenodd" d="M16 14C14.8923 14 14 14.8923 14 16V27.88C14 28.4323 13.5523 28.88 13 28.88C12.4477 28.88 12 28.4323 12 27.88V16C12 13.7877 13.7877 12 16 12H24C24.5523 12 25 12.4477 25 13C25 13.5523 24.5523 14 24 14H16Z" fill="#00CCEA"/>
<path fill-rule="evenodd" clip-rule="evenodd" d="M13 26.8828C13.5523 26.8828 14 27.3305 14 27.8828V32.0028C14 33.1105 14.8923 34.0028 16 34.0028H30C30.7625 34.0028 31.431 33.5731 31.7614 32.9653C32.0251 32.48 32.6323 32.3005 33.1175 32.5642C33.6028 32.8279 33.7823 33.4351 33.5186 33.9203C32.849 35.1525 31.5175 36.0028 30 36.0028H16C13.7877 36.0028 12 34.2151 12 32.0028V27.8828C12 27.3305 12.4477 26.8828 13 26.8828Z" fill="#FF7F37"/>
<path fill-rule="evenodd" clip-rule="evenodd" d="M23 13C23 12.4477 23.4477 12 24 12H30C32.2123 12 34 13.7877 34 16V32C34 32.6964 33.8137 33.3545 33.5258 33.904C33.2696 34.3932 32.6652 34.5821 32.176 34.3258C31.6868 34.0696 31.4979 33.4652 31.7542 32.976C31.9063 32.6855 32 32.3436 32 32V16C32 14.8923 31.1077 14 30 14H24C23.4477 14 23 13.5523 23 13Z" fill="#F5B6CD"/>
<path fill-rule="evenodd" clip-rule="evenodd" d="M37 21C37.5523 21 38 21.4477 38 22V26C38 26.5523 37.5523 27 37 27C36.4477 27 36 26.5523 36 26V22C36 21.4477 36.4477 21 37 21Z" fill="#9063CD"/>
</svg>
