<svg width="48" height="48" viewBox="0 0 48 48" fill="none" xmlns="http://www.w3.org/2000/svg">
<path fill-rule="evenodd" clip-rule="evenodd" d="M6 7C6 6.44772 6.44772 6 7 6H8.58C10.4416 6 12.1003 7.30079 12.4791 9.17651L13.9439 16H19C19.5523 16 20 16.4477 20 17C20 17.5523 19.5523 18 19 18H14.3733L17.9777 34.7901C18.0936 35.3301 17.7499 35.8618 17.2099 35.9777C16.6699 36.0936 16.1382 35.7499 16.0223 35.2099L10.5193 9.57614C10.3353 8.65582 9.51594 8 8.58 8H7C6.44772 8 6 7.55228 6 7Z" fill="#00C389"/>
<path fill-rule="evenodd" clip-rule="evenodd" d="M34 17C34 16.4477 34.4477 16 35 16H41C41.3138 16 41.6095 16.1473 41.7984 16.3979C41.9874 16.6485 42.0477 16.9732 41.9615 17.2749L38.5819 29.0933C38.5819 29.0935 38.582 29.0932 38.5819 29.0933C38.3444 29.9289 37.8411 30.665 37.1484 31.1893C36.4556 31.7138 35.6108 31.9983 34.7419 32L17 32C16.4477 32 16 31.5523 16 31C16 30.4477 16.4477 30 17 30H34.739C35.1731 29.999 35.5951 29.8567 35.9413 29.5947C36.2877 29.3325 36.5393 28.9646 36.6581 28.5467L39.674 18H35C34.4477 18 34 17.5523 34 17Z" fill="#FF7F37"/>
<path fill-rule="evenodd" clip-rule="evenodd" d="M27 10C23.134 10 20 13.134 20 17C20 20.866 23.134 24 27 24C30.866 24 34 20.866 34 17C34 13.134 30.866 10 27 10ZM18 17C18 12.0294 22.0294 8 27 8C31.9706 8 36 12.0294 36 17C36 21.9706 31.9706 26 27 26C22.0294 26 18 21.9706 18 17Z" fill="#FDDA24"/>
<path fill-rule="evenodd" clip-rule="evenodd" d="M27 12C27.5523 12 28 12.4477 28 13V16H31C31.5523 16 32 16.4477 32 17C32 17.5523 31.5523 18 31 18H28V21C28 21.5523 27.5523 22 27 22C26.4477 22 26 21.5523 26 21V18H23C22.4477 18 22 17.5523 22 17C22 16.4477 22.4477 16 23 16H26V13C26 12.4477 26.4477 12 27 12Z" fill="#9063CD"/>
<path fill-rule="evenodd" clip-rule="evenodd" d="M20 37C20 36.4477 20.4477 36 21 36H33C33.5523 36 34 36.4477 34 37C34 37.5523 33.5523 38 33 38H21C20.4477 38 20 37.5523 20 37Z" fill="#00CCEA"/>
<path fill-rule="evenodd" clip-rule="evenodd" d="M18 36C16.8954 36 16 36.8954 16 38C16 39.1046 16.8954 40 18 40C19.1046 40 20 39.1046 20 38C20 36.8954 19.1046 36 18 36ZM14 38C14 35.7909 15.7909 34 18 34C20.2091 34 22 35.7909 22 38C22 40.2091 20.2091 42 18 42C15.7909 42 14 40.2091 14 38Z" fill="#F5B6CD"/>
<path fill-rule="evenodd" clip-rule="evenodd" d="M36 36C34.8954 36 34 36.8954 34 38C34 39.1046 34.8954 40 36 40C37.1046 40 38 39.1046 38 38C38 36.8954 37.1046 36 36 36ZM32 38C32 35.7909 33.7909 34 36 34C38.2091 34 40 35.7909 40 38C40 40.2091 38.2091 42 36 42C33.7909 42 32 40.2091 32 38Z" fill="#F5B6CD"/>
</svg>
