<svg width="48" height="48" viewBox="0 0 48 48" fill="none" xmlns="http://www.w3.org/2000/svg">
<path fill-rule="evenodd" clip-rule="evenodd" d="M29.4574 8.11073C29.7906 8.28209 30.0001 8.62533 30.0001 9V22.34C30.0001 22.8923 29.5524 23.34 29.0001 23.34C28.4478 23.34 28.0001 22.8923 28.0001 22.34V10.9443L21.5817 15.5335C21.1324 15.8547 20.5078 15.7509 20.1866 15.3016C19.8654 14.8524 19.9692 14.2278 20.4185 13.9065L28.4185 8.18655C28.7232 7.96863 29.1243 7.93936 29.4574 8.11073Z" fill="#FDDA24"/>
<path fill-rule="evenodd" clip-rule="evenodd" d="M28.9963 21.3438C29.5486 21.3438 29.9963 21.7915 29.9963 22.3437V39.0037C29.9963 39.3782 29.7871 39.7213 29.4542 39.8928C29.1212 40.0642 28.7204 40.0353 28.4155 39.8178L21.5755 34.9378C21.126 34.617 21.0215 33.9925 21.3423 33.543C21.663 33.0934 22.2875 32.9889 22.7371 33.3097L27.9963 37.0619V22.3437C27.9963 21.7915 28.444 21.3438 28.9963 21.3438Z" fill="#00C389"/>
<path fill-rule="evenodd" clip-rule="evenodd" d="M7 25C7.55228 25 8 25.4477 8 26C8 27.1077 8.89228 28 10 28H15C15.2086 28 15.412 28.0652 15.5817 28.1866L22.7417 33.3066C23.1909 33.6278 23.2947 34.2524 22.9734 34.7017C22.6522 35.1509 22.0276 35.2547 21.5783 34.9334L14.6792 30H10C7.78772 30 6 28.2123 6 26C6 25.4477 6.44772 25 7 25Z" fill="#00CCEA"/>
<path fill-rule="evenodd" clip-rule="evenodd" d="M21.8141 14.1381C22.1348 14.5877 22.0303 15.2122 21.5807 15.5329L15.5807 19.8129C15.4112 19.9338 15.2082 19.9988 15 19.9988H10C8.89228 19.9988 8 20.8911 8 21.9988V25.9988C8 26.5511 7.55228 26.9988 7 26.9988C6.44772 26.9988 6 26.5511 6 25.9988V21.9988C6 19.7865 7.78772 17.9988 10 17.9988H14.6799L20.4193 13.9047C20.8689 13.584 21.4934 13.6885 21.8141 14.1381Z" fill="#FF7F37"/>
<path fill-rule="evenodd" clip-rule="evenodd" d="M36.7304 9.85539C37.1209 9.46487 37.7541 9.46487 38.1446 9.85539C45.9551 17.6659 45.9551 30.3391 38.1446 38.1496C37.7541 38.5401 37.1209 38.5401 36.7304 38.1496C36.3399 37.7591 36.3399 37.1259 36.7304 36.7354C43.7599 29.7059 43.7599 18.2991 36.7304 11.2696C36.3399 10.8791 36.3399 10.2459 36.7304 9.85539Z" fill="#F5B6CD"/>
<path fill-rule="evenodd" clip-rule="evenodd" d="M32.4955 14.1137C32.8858 13.7229 33.519 13.7225 33.9098 14.1127C35.2106 15.4119 36.2426 16.9547 36.9468 18.653C37.6509 20.3514 38.0133 22.1718 38.0133 24.0103C38.0133 25.8488 37.6509 27.6693 36.9468 29.3676C36.2426 31.0659 35.2106 32.6087 33.9098 33.9079C33.519 34.2982 32.8858 34.2977 32.4955 33.9069C32.1053 33.5162 32.1057 32.883 32.4965 32.4927C33.6114 31.3793 34.4958 30.0571 35.0993 28.6016C35.7027 27.1461 36.0133 25.5859 36.0133 24.0103C36.0133 22.4347 35.7027 20.8745 35.0993 19.419C34.4958 17.9635 33.6114 16.6413 32.4965 15.5279C32.1057 15.1376 32.1053 14.5045 32.4955 14.1137Z" fill="#9063CD"/>
</svg>
