<svg width="48" height="48" viewBox="0 0 48 48" fill="none" xmlns="http://www.w3.org/2000/svg">
<path fill-rule="evenodd" clip-rule="evenodd" d="M4 17C4 16.4477 4.44772 16 5 16H43C43.5523 16 44 16.4477 44 17C44 17.5523 43.5523 18 43 18H5C4.44772 18 4 17.5523 4 17Z" fill="#00CCEA"/>
<path fill-rule="evenodd" clip-rule="evenodd" d="M4 22.8203C4 22.268 4.44772 21.8203 5 21.8203H43C43.5523 21.8203 44 22.268 44 22.8203C44 23.3726 43.5523 23.8203 43 23.8203H5C4.44772 23.8203 4 23.3726 4 22.8203Z" fill="#00C389"/>
<path fill-rule="evenodd" clip-rule="evenodd" d="M27.2812 11.0625C27.2812 10.5102 27.729 10.0625 28.2813 10.0625H39.6413C42.0948 10.0625 44.0013 12.1124 44.0013 14.5825V33.4225C44.0013 35.8688 42.0984 37.9425 39.6413 37.9425C39.089 37.9425 38.6412 37.4948 38.6412 36.9425C38.6412 36.3902 39.089 35.9425 39.6413 35.9425C40.9041 35.9425 42.0013 34.8562 42.0013 33.4225V14.5825C42.0013 13.1326 40.9077 12.0625 39.6413 12.0625H28.2813C27.729 12.0625 27.2812 11.6148 27.2812 11.0625Z" fill="#FF7F37"/>
<path fill-rule="evenodd" clip-rule="evenodd" d="M5 28.4609C5.55228 28.4609 6 28.9087 6 29.4609V33.4209C6 34.8708 7.09355 35.9409 8.36 35.9409H39.66C40.2123 35.9409 40.66 36.3887 40.66 36.9409C40.66 37.4932 40.2123 37.9409 39.66 37.9409H8.36C5.90645 37.9409 4 35.891 4 33.4209V29.4609C4 28.9087 4.44772 28.4609 5 28.4609Z" fill="#FDDA24"/>
<path fill-rule="evenodd" clip-rule="evenodd" d="M4 14.5825C4 12.1362 5.90284 10.0625 8.36 10.0625H28.28C28.8323 10.0625 29.28 10.5102 29.28 11.0625C29.28 11.6148 28.8323 12.0625 28.28 12.0625H8.36C7.09716 12.0625 6 13.1488 6 14.5825V29.4425C6 29.9948 5.55228 30.4425 5 30.4425C4.44772 30.4425 4 29.9948 4 29.4425V14.5825Z" fill="#9063CD"/>
<path fill-rule="evenodd" clip-rule="evenodd" d="M8 33C8 32.4477 8.44772 32 9 32H19C19.5523 32 20 32.4477 20 33C20 33.5523 19.5523 34 19 34H9C8.44772 34 8 33.5523 8 33Z" fill="#F5B6CD"/>
</svg>
