<svg width="48" height="48" viewBox="0 0 48 48" fill="none" xmlns="http://www.w3.org/2000/svg">
<path fill-rule="evenodd" clip-rule="evenodd" d="M37 34C37.5523 34 38 34.4477 38 35V39C38 39.5523 37.5523 40 37 40H27C26.4477 40 26 39.5523 26 39C26 38.4477 26.4477 38 27 38H36V35C36 34.4477 36.4477 34 37 34Z" fill="#FF7F37"/>
<path fill-rule="evenodd" clip-rule="evenodd" d="M23 38C22.4523 38 22 38.4523 22 39C22 39.5477 22.4523 40 23 40H25C25.5477 40 26 39.5477 26 39C26 38.4523 25.5477 38 25 38H23ZM20 39C20 37.3477 21.3477 36 23 36H25C26.6523 36 28 37.3477 28 39C28 40.6523 26.6523 42 25 42H23C21.3477 42 20 40.6523 20 39Z" fill="#F5B6CD"/>
<path fill-rule="evenodd" clip-rule="evenodd" d="M21.0839 6.29926C23.164 5.85626 25.3177 5.89301 27.3815 6.40671C27.9175 6.54011 28.2438 7.08271 28.1104 7.61864C27.977 8.15457 27.4344 8.48089 26.8985 8.34749C25.1295 7.90718 23.2834 7.87568 21.5005 8.25539C19.7175 8.6351 18.0445 9.41604 16.6084 10.5389C15.1723 11.6618 14.011 13.0971 13.2125 14.7359C12.414 16.3746 11.9993 18.1738 12 19.9967V22.9971C12 23.5494 11.5523 23.9971 11 23.9971C10.4477 23.9971 10 23.5494 10 22.9971L10 19.9975C10 19.9974 10 19.9976 10 19.9975C9.99925 17.8708 10.483 15.7716 11.4145 13.8598C12.3461 11.9479 13.7011 10.2734 15.3765 8.96337C17.0519 7.65335 19.0038 6.74225 21.0839 6.29926Z" fill="#00C389"/>
<path fill-rule="evenodd" clip-rule="evenodd" d="M26.1701 7.14293C26.3027 6.60681 26.8448 6.27969 27.381 6.4123C33.4774 7.92024 38.0009 13.4331 38.0009 20.003V23.003C38.0009 23.5553 37.5531 24.003 37.0009 24.003C36.4486 24.003 36.0009 23.5553 36.0009 23.003V20.003C36.0009 14.373 32.1243 9.64585 26.9007 8.35379C26.3646 8.22118 26.0375 7.67906 26.1701 7.14293Z" fill="#00CCEA"/>
<path fill-rule="evenodd" clip-rule="evenodd" d="M34 23C34 22.4477 34.4477 22 35 22H39C41.7523 22 44 24.2477 44 27V31C44 33.7523 41.7523 36 39 36H35C34.4477 36 34 35.5523 34 35V23ZM36 24V34H39C40.6477 34 42 32.6477 42 31V27C42 25.3523 40.6477 24 39 24H36Z" fill="#9063CD"/>
<path fill-rule="evenodd" clip-rule="evenodd" d="M9 24C7.35228 24 6 25.3523 6 27V31C6 32.6477 7.35228 34 9 34H12V24H9ZM4 27C4 24.2477 6.24772 22 9 22H13C13.5523 22 14 22.4477 14 23V35C14 35.5523 13.5523 36 13 36H9C6.24772 36 4 33.7523 4 31V27Z" fill="#FDDA24"/>
</svg>
