<svg width="48" height="48" viewBox="0 0 48 48" fill="none" xmlns="http://www.w3.org/2000/svg">
<path fill-rule="evenodd" clip-rule="evenodd" d="M25 8C25.5523 8 26 8.44772 26 9V21C26 21.5523 25.5523 22 25 22C24.4477 22 24 21.5523 24 21V9C24 8.44772 24.4477 8 25 8Z" fill="#F5B6CD"/>
<path fill-rule="evenodd" clip-rule="evenodd" d="M25 20C25.5523 20 26 20.4477 26 21V27.5492C28.3924 29.1656 30 31.8697 30 35C30 35.5523 29.5523 36 29 36C28.4477 36 28 35.5523 28 35C28 32.4208 26.591 30.1961 24.493 28.9619C24.1875 28.7823 24 28.4544 24 28.1V21C24 20.4477 24.4477 20 25 20Z" fill="#00C389"/>
<path fill-rule="evenodd" clip-rule="evenodd" d="M13 34C13.5523 34 14 34.4477 14 35C14 38.8677 17.1323 42 21 42C24.8677 42 28 38.8677 28 35C28 34.4477 28.4477 34 29 34C29.5523 34 30 34.4477 30 35C30 39.9723 25.9723 44 21 44C16.0277 44 12 39.9723 12 35C12 34.4477 12.4477 34 13 34Z" fill="#00CCEA"/>
<path fill-rule="evenodd" clip-rule="evenodd" d="M17 14C17.5523 14 18 14.4477 18 15V28.1C18 28.4566 17.8101 28.7862 17.5016 28.9651C15.4121 30.1767 14 32.417 14 35C14 35.5523 13.5523 36 13 36C12.4477 36 12 35.5523 12 35C12 31.875 13.6031 29.151 16 27.5458V15C16 14.4477 16.4477 14 17 14Z" fill="#FF7F37"/>
<path fill-rule="evenodd" clip-rule="evenodd" d="M16 9C16 6.24772 18.2477 4 21 4C23.7523 4 26 6.24772 26 9C26 9.55228 25.5523 10 25 10C24.4477 10 24 9.55228 24 9C24 7.35228 22.6477 6 21 6C19.3523 6 18 7.35228 18 9V15C18 15.5523 17.5523 16 17 16C16.4477 16 16 15.5523 16 15V9Z" fill="#FDDA24"/>
<path fill-rule="evenodd" clip-rule="evenodd" d="M21 32C19.3431 32 18 33.3431 18 35C18 36.6569 19.3431 38 21 38C22.6569 38 24 36.6569 24 35C24 33.3431 22.6569 32 21 32ZM16 35C16 32.2386 18.2386 30 21 30C23.7614 30 26 32.2386 26 35C26 37.7614 23.7614 40 21 40C18.2386 40 16 37.7614 16 35Z" fill="#9063CD"/>
<path fill-rule="evenodd" clip-rule="evenodd" d="M21 16C21.5523 16 22 16.4477 22 17V31C22 31.5523 21.5523 32 21 32C20.4477 32 20 31.5523 20 31V17C20 16.4477 20.4477 16 21 16Z" fill="#9063CD"/>
<path fill-rule="evenodd" clip-rule="evenodd" d="M28 11C28 10.4477 28.4477 10 29 10H35C35.5523 10 36 10.4477 36 11C36 11.5523 35.5523 12 35 12H29C28.4477 12 28 11.5523 28 11Z" fill="#00C389"/>
<path fill-rule="evenodd" clip-rule="evenodd" d="M28 17C28 16.4477 28.4477 16 29 16H35C35.5523 16 36 16.4477 36 17C36 17.5523 35.5523 18 35 18H29C28.4477 18 28 17.5523 28 17Z" fill="#F5B6CD"/>
<path fill-rule="evenodd" clip-rule="evenodd" d="M28 23C28 22.4477 28.4477 22 29 22H35C35.5523 22 36 22.4477 36 23C36 23.5523 35.5523 24 35 24H29C28.4477 24 28 23.5523 28 23Z" fill="#FDDA24"/>
</svg>
