<svg width="48" height="48" viewBox="0 0 48 48" fill="none" xmlns="http://www.w3.org/2000/svg">
<path fill-rule="evenodd" clip-rule="evenodd" d="M22 6C22 5.44772 22.4477 5 23 5C24.2348 5 26.205 5.42751 27.8907 6.70242C29.6257 8.01462 31 10.1837 31 13.5V16.3C31 16.8523 30.5523 17.3 30 17.3C29.4477 17.3 29 16.8523 29 16.3V13.5C29 10.8163 27.9243 9.23538 26.6843 8.29758C25.395 7.32249 23.8652 7 23 7C22.4477 7 22 6.55228 22 6Z" fill="#FDDA24"/>
<path fill-rule="evenodd" clip-rule="evenodd" d="M17.1007 16.259C17.1007 16.2589 17.1007 16.2588 17.1007 16.2587C17.0775 15.7073 16.6119 15.2789 16.0604 15.3016C15.5086 15.3244 15.0797 15.7902 15.1024 16.342L16.1016 16.3008C15.1024 16.342 15.1024 16.3424 15.1025 16.3428L15.1025 16.3438L15.1026 16.3464L15.103 16.3544L15.1043 16.3808C15.1054 16.4029 15.1072 16.434 15.1097 16.4735C15.1148 16.5526 15.1229 16.6653 15.1357 16.8071C15.1611 17.0903 15.2049 17.4906 15.2789 17.9692C15.4263 18.9218 15.6967 20.208 16.1922 21.5072C17.1679 24.065 19.1685 27.0008 23.1016 27.0008C23.6539 27.0008 24.1016 26.5531 24.1016 26.0008C24.1016 25.4485 23.6539 25.0008 23.1016 25.0008C20.4347 25.0008 18.9353 23.0866 18.0609 20.7944C17.6315 19.6686 17.3894 18.5298 17.2555 17.6636C17.1889 17.2329 17.1499 16.8754 17.1276 16.6281C17.1166 16.5046 17.1097 16.409 17.1056 16.3459C17.1036 16.3144 17.1023 16.2911 17.1016 16.2765L17.1008 16.2612L17.1007 16.2587L17.1007 16.259Z" fill="#9063CD"/>
<path fill-rule="evenodd" clip-rule="evenodd" d="M29.0009 16.259C29.0009 16.2589 29.0009 16.2588 29.0009 16.2587C29.0241 15.7073 29.4897 15.2789 30.0412 15.3016C30.593 15.3244 31.0219 15.7902 30.9991 16.342L30 16.3008C30.9991 16.342 30.9991 16.3424 30.9991 16.3428L30.9991 16.3438L30.9989 16.3464L30.9986 16.3544L30.9973 16.3808C30.9961 16.4029 30.9944 16.434 30.9918 16.4735C30.9868 16.5526 30.9786 16.6653 30.9659 16.8071C30.9405 17.0903 30.8966 17.4906 30.8226 17.9692C30.6753 18.9218 30.4049 20.208 29.9093 21.5072C28.9337 24.065 26.9331 27.0008 23 27.0008C22.4477 27.0008 22 26.5531 22 26.0008C22 25.4485 22.4477 25.0008 23 25.0008C25.6669 25.0008 27.1663 23.0866 28.0406 20.7944C28.4701 19.6686 28.7122 18.5298 28.8461 17.6636C28.9127 17.2329 28.9517 16.8754 28.9739 16.6281C28.985 16.5046 28.9919 16.409 28.9959 16.3459C28.9979 16.3144 28.9992 16.2911 29 16.2765L29.0008 16.2612L29.0009 16.2587L29.0009 16.259Z" fill="#F5B6CD"/>
<path fill-rule="evenodd" clip-rule="evenodd" d="M18.1093 6.70242C19.795 5.42751 21.7652 5 23 5C23.5523 5 24 5.44772 24 6C24 6.55228 23.5523 7 23 7C22.1348 7 20.605 7.32249 19.3157 8.29758C18.0757 9.23538 17 10.8163 17 13.5V16.4C17 16.9523 16.5523 17.4 16 17.4C15.4477 17.4 15 16.9523 15 16.4V13.5C15 10.1837 16.3743 8.01462 18.1093 6.70242Z" fill="#00C389"/>
<path fill-rule="evenodd" clip-rule="evenodd" d="M5 40C5 39.4477 5.44772 39 6 39H24C24.5523 39 25 39.4477 25 40C25 40.5523 24.5523 41 24 41H6C5.44772 41 5 40.5523 5 40Z" fill="#00C389"/>
<path fill-rule="evenodd" clip-rule="evenodd" d="M14.9929 28.1817C15.0585 28.7288 14.6693 29.2257 14.1229 29.2933C14.1217 29.2935 14.1204 29.2936 14.1191 29.2938L14 28.3009C14.1191 29.2938 14.1197 29.2937 14.1202 29.2936L14.1211 29.2935L14.1225 29.2934L14.1168 29.2941C14.1091 29.2952 14.0948 29.2973 14.0742 29.3006C14.0329 29.3072 13.9668 29.3187 13.8791 29.3368C13.7036 29.3731 13.4435 29.4355 13.1258 29.5374C12.4885 29.7419 11.6332 30.1011 10.7662 30.7164C9.07186 31.9189 7.23902 34.1612 7 38.4284V40.0009C7 40.5532 6.55228 41.0009 6 41.0009C5.44772 41.0009 5 40.5532 5 40.0009V38.4009C5 38.3828 5.00049 38.3647 5.00147 38.3466C5.26862 33.4312 7.43167 30.6304 9.60875 29.0854C10.6793 28.3256 11.7302 27.8848 12.5148 27.6331C12.9081 27.5069 13.2378 27.4271 13.4744 27.3782C13.5928 27.3537 13.6883 27.3369 13.7571 27.3259C13.7916 27.3203 13.8194 27.3163 13.8402 27.3134L13.866 27.3099L13.8748 27.3087L13.8782 27.3083L13.8796 27.3082C13.8802 27.3081 13.8809 27.308 14 28.3009L13.8809 27.308C14.4292 27.2422 14.9271 27.6334 14.9929 28.1817Z" fill="#FDDA24"/>
<path fill-rule="evenodd" clip-rule="evenodd" d="M13.5841 27.3917C14.0863 27.1619 14.6797 27.3827 14.9096 27.8849C16.133 30.5583 18.037 31.8484 19.633 32.4846C20.4381 32.8055 21.1674 32.9602 21.6917 33.0343C21.9532 33.0712 22.1613 33.0878 22.2993 33.0952C22.3683 33.0989 22.4195 33.1003 22.4509 33.1008C22.4665 33.1011 22.4772 33.1011 22.4827 33.1011L22.486 33.1011L22.4847 33.1011L22.4839 33.1012C22.4848 33.1011 22.4857 33.1011 22.4866 33.1011C23.0372 33.0936 23.4906 33.5328 23.5001 34.0838C23.5096 34.636 23.0697 35.0914 22.5175 35.1009L22.5002 34.101C22.5175 35.1009 22.517 35.1009 22.5164 35.1009L22.5152 35.1009L22.5124 35.101L22.5052 35.101L22.4844 35.1011C22.4677 35.1011 22.4455 35.101 22.418 35.1006C22.3631 35.0997 22.2871 35.0975 22.1922 35.0924C22.0025 35.0822 21.7364 35.0605 21.4119 35.0146C20.7643 34.9231 19.8749 34.7341 18.8925 34.3424C16.9135 33.5536 14.5675 31.9437 13.0909 28.7171C12.8611 28.215 13.0819 27.6215 13.5841 27.3917Z" fill="#59CBE8"/>
<path fill-rule="evenodd" clip-rule="evenodd" d="M34.1016 27.1016C30.2356 27.1016 27.1016 30.2356 27.1016 34.1016C27.1016 37.9676 30.2356 41.1016 34.1016 41.1016C37.9676 41.1016 41.1016 37.9676 41.1016 34.1016C41.1016 30.2356 37.9676 27.1016 34.1016 27.1016ZM25.1016 34.1016C25.1016 29.131 29.131 25.1016 34.1016 25.1016C39.0721 25.1016 43.1016 29.131 43.1016 34.1016C43.1016 39.0721 39.0721 43.1016 34.1016 43.1016C29.131 43.1016 25.1016 39.0721 25.1016 34.1016ZM29.7929 29.7945C30.1834 29.404 30.8166 29.404 31.2071 29.7945L34.05 32.6374L36.8929 29.7945C37.2834 29.404 37.9166 29.404 38.3071 29.7945C38.6976 30.185 38.6976 30.8182 38.3071 31.2087L35.4642 34.0516L38.3071 36.8945C38.6976 37.285 38.6976 37.9182 38.3071 38.3087C37.9166 38.6992 37.2834 38.6992 36.8929 38.3087L34.05 35.4658L31.2071 38.3087C30.8166 38.6992 30.1834 38.6992 29.7929 38.3087C29.4024 37.9182 29.4024 37.285 29.7929 36.8945L32.6358 34.0516L29.7929 31.2087C29.4024 30.8182 29.4024 30.185 29.7929 29.7945Z" fill="#FF7F41"/>
<path fill-rule="evenodd" clip-rule="evenodd" d="M22.1016 6C22.1016 5.44772 22.5493 5 23.1016 5C24.7224 5 27.782 5.78328 29.6225 8.42894C29.9379 8.88231 29.826 9.50552 29.3726 9.82091C28.9193 10.1363 28.296 10.0244 27.9807 9.57106C26.6211 7.61672 24.2807 7 23.1016 7C22.5493 7 22.1016 6.55228 22.1016 6Z" fill="#FDDA24"/>
</svg>
