<svg width="48" height="48" viewBox="0 0 48 48" fill="none" xmlns="http://www.w3.org/2000/svg">
<path fill-rule="evenodd" clip-rule="evenodd" d="M24 8C20.6923 8 18 10.6923 18 14V16.96C18 18.5134 18.3557 20.5473 19.1674 22.2997C19.3995 22.8009 19.1814 23.3953 18.6803 23.6274C18.1791 23.8595 17.5847 23.6414 17.3526 23.1403C16.4043 21.0927 16 18.7666 16 16.96V14C16 9.58772 19.5877 6 24 6C25.9433 6 27.7478 6.70815 29.1202 7.85178C29.5445 8.20534 29.6018 8.83591 29.2482 9.26018C28.8947 9.68446 28.2641 9.74179 27.8398 9.38822C26.8122 8.53185 25.4567 8 24 8Z" fill="#00CCEA"/>
<path fill-rule="evenodd" clip-rule="evenodd" d="M17.8356 21.8126C18.3362 21.5793 18.9311 21.7959 19.1644 22.2965C20.1864 24.489 21.756 25.999 23.9981 25.999C24.9962 25.999 25.816 25.7202 26.5059 25.2389C26.9588 24.9229 27.5822 25.0339 27.8982 25.4868C28.2142 25.9398 28.1032 26.5631 27.6502 26.8791C26.6201 27.5978 25.3999 27.999 23.9981 27.999C20.6401 27.999 18.5297 25.669 17.3517 23.1415C17.1184 22.6409 17.335 22.0459 17.8356 21.8126Z" fill="#00C389"/>
<path fill-rule="evenodd" clip-rule="evenodd" d="M27.7141 7.97216C28.0703 7.55014 28.7013 7.49682 29.1233 7.85307C30.8744 9.33133 31.9982 11.5249 31.9982 13.9972V16.9572C31.9982 18.5018 31.6985 20.4212 31.0246 22.2183C30.3542 24.006 29.2739 25.7758 27.6397 26.8847C27.1827 27.1948 26.5609 27.0757 26.2507 26.6187C25.9406 26.1617 26.0597 25.5398 26.5167 25.2297C27.6826 24.4386 28.5623 23.0884 29.1519 21.5161C29.738 19.9532 29.9982 18.2726 29.9982 16.9572V13.9972C29.9982 12.1495 29.162 10.5031 27.8332 9.38135C27.4111 9.0251 27.3578 8.39418 27.7141 7.97216Z" fill="#9063CD"/>
<path fill-rule="evenodd" clip-rule="evenodd" d="M33.4609 28.3132C33.9611 28.5472 34.1769 29.1425 33.9429 29.6427C32.1866 33.3969 28.4242 35.999 23.9971 35.999C22.344 35.999 20.7795 35.6239 19.3727 34.9645C18.8726 34.73 18.6572 34.1346 18.8917 33.6346C19.1261 33.1345 19.7215 32.9191 20.2215 33.1535C21.3747 33.6941 22.6503 33.999 23.9971 33.999C27.61 33.999 30.6877 31.8811 32.1313 28.7952C32.3654 28.295 32.9606 28.0792 33.4609 28.3132Z" fill="#00C389"/>
<path fill-rule="evenodd" clip-rule="evenodd" d="M32.0589 29.0162C32.1709 28.4754 32.7001 28.1277 33.2409 28.2397C38.2346 29.2737 41.9981 33.6941 41.9981 38.999V40.9989C41.9981 41.5512 41.5504 41.9989 40.9981 41.9989H27.0781C26.5258 41.9989 26.0781 41.5512 26.0781 40.9989C26.0781 40.4467 26.5258 39.999 27.0781 39.999H39.9981V38.999C39.9981 34.6638 36.9217 31.0442 32.8354 30.1982C32.2946 30.0862 31.9469 29.557 32.0589 29.0162Z" fill="#F5B6CD"/>
<path fill-rule="evenodd" clip-rule="evenodd" d="M6 41C6 40.4477 6.44772 40 7 40H27.08C27.6323 40 28.08 40.4477 28.08 41C28.08 41.5523 27.6323 42 27.08 42H7C6.44772 42 6 41.5523 6 41Z" fill="#FDDA24"/>
<path fill-rule="evenodd" clip-rule="evenodd" d="M14.7531 28.2249C15.2079 28.1287 15.669 28.3586 15.8659 28.7797C16.7651 30.703 18.3077 32.252 20.2272 33.1591C20.7266 33.395 20.9401 33.9911 20.7041 34.4905C20.4682 34.9898 19.8721 35.2033 19.3728 34.9674C17.284 33.9803 15.5614 32.3702 14.4355 30.3686C10.715 31.4878 8 34.9313 8 39.0032V41.0032C8 41.5555 7.55228 42.0032 7 42.0032C6.44772 42.0032 6 41.5555 6 41.0032V39.0032C6 33.6976 9.76373 29.2799 14.7531 28.2249Z" fill="#FF7F37"/>
</svg>
