<svg width="48" height="48" viewBox="0 0 48 48" fill="none" xmlns="http://www.w3.org/2000/svg">
<path fill-rule="evenodd" clip-rule="evenodd" d="M41.6757 43.8844H7.11328V36.3028C7.11328 32.1343 10.5054 28.7422 14.6738 28.7422L15.4859 28.7443C16.9521 28.7484 18.3824 29.4723 19.4139 30.7253C20.6416 32.2249 22.4558 33.0835 24.3945 33.0835C26.331 33.0835 28.143 32.2271 29.3708 30.7315C30.4172 29.4616 31.8052 28.7633 33.2841 28.7633H34.5033C38.5515 28.9911 41.6757 32.3032 41.6757 36.3028V43.8844ZM9.2734 41.7244H39.5154V36.3028C39.5154 33.4467 37.2879 31.0837 34.4421 30.9215L33.2841 30.9233C32.1765 30.9233 31.4022 31.6619 31.0395 32.1027C29.4024 34.0983 26.9786 35.2438 24.3945 35.2438C21.8061 35.2438 19.3822 34.0963 17.7431 32.0943C17.1144 31.3306 16.3107 30.9066 15.4775 30.9046L14.6738 30.9023C11.6951 30.9023 9.2734 33.3241 9.2734 36.3028V41.7244Z" fill="#FDDA24"/>
<path fill-rule="evenodd" clip-rule="evenodd" d="M24.3945 28.766C18.4352 28.766 15.7539 21.7898 15.7539 16.8366V13.6407C15.7539 8.87528 19.6292 5 24.3945 5C29.1599 5 33.0351 8.87528 33.0351 13.6407V16.8366C33.0351 21.7898 30.3539 28.766 24.3945 28.766ZM24.3945 7.16024C20.821 7.16024 17.9141 10.0672 17.9141 13.6407V16.8366C17.9141 20.024 19.4983 26.6058 24.3945 26.6058C29.2907 26.6058 30.875 20.024 30.875 16.8366V13.6407C30.875 10.0672 27.9681 7.16024 24.3945 7.16024Z" fill="#FDDA24"/>
<path fill-rule="evenodd" clip-rule="evenodd" d="M23.332 42.8021C23.332 42.2059 23.8153 41.7227 24.4115 41.7227H36.9774C37.5736 41.7227 38.0569 42.2059 38.0569 42.8021C38.0569 43.3983 37.5736 43.8816 36.9774 43.8816H24.4115C23.8153 43.8816 23.332 43.3983 23.332 42.8021Z" fill="#9063CD"/>
<path fill-rule="evenodd" clip-rule="evenodd" d="M39.6434 32.73C40.1903 32.4928 40.826 32.744 41.0632 33.2909C41.4641 34.2156 41.685 35.2355 41.685 36.3049V43.8835H36.9779C36.3817 43.8835 35.8984 43.4002 35.8984 42.804C35.8984 42.2078 36.3817 41.7245 36.9779 41.7245H39.526V36.3049C39.526 35.5349 39.3674 34.807 39.0825 34.1498C38.8453 33.6028 39.0964 32.9672 39.6434 32.73Z" fill="#F5B6CD"/>
<path fill-rule="evenodd" clip-rule="evenodd" d="M31.0559 32.1067C31.6728 31.3562 32.4717 30.9285 33.2978 30.9285L31.0559 32.1067ZM29.388 30.736C30.3182 29.6042 31.6874 28.7695 33.2978 28.7695H34.5477L34.5784 28.7713C37.4994 28.9376 39.9603 30.7466 41.0634 33.2907C41.3005 33.8376 41.0494 34.4733 40.5024 34.7104C39.9554 34.9476 39.3198 34.6964 39.0826 34.1495C38.2993 32.3429 36.5574 31.0576 34.4849 30.9285H33.2978M31.0559 32.1067C30.2464 33.0917 29.2189 33.8938 28.0483 34.4406C27.5081 34.6929 26.8657 34.4595 26.6134 33.9194C26.3611 33.3793 26.5944 32.7368 27.1346 32.4845C28.0114 32.075 28.7818 31.4736 29.388 30.736" fill="#FF7F41"/>
<path fill-rule="evenodd" clip-rule="evenodd" d="M14.4219 29.8252C14.4242 29.2291 14.9094 28.7477 15.5056 28.75C17.117 28.7563 18.4972 29.5926 19.4311 30.7314L18.5965 31.416L19.4311 30.7314C20.6107 32.1697 22.4103 33.088 24.4111 33.088C25.3831 33.088 26.3059 32.8716 27.1332 32.4849C27.6733 32.2325 28.3158 32.4657 28.5682 33.0058C28.8206 33.5459 28.5874 34.1883 28.0473 34.4407C26.9407 34.9579 25.7066 35.2469 24.4111 35.2469C21.7379 35.2469 19.3348 34.0185 17.7618 32.1005L17.7618 32.1005C17.144 31.3472 16.3325 30.9122 15.4971 30.9089C14.9009 30.9066 14.4195 30.4214 14.4219 29.8252Z" fill="#00C389"/>
<path fill-rule="evenodd" clip-rule="evenodd" d="M14.6976 30.905C11.7094 30.905 9.29955 33.3149 9.29955 36.3029V40.3839C9.29955 40.98 8.81625 41.4633 8.22009 41.4633C7.62392 41.4633 7.14062 40.98 7.14062 40.3839V36.3029C7.14062 32.1226 10.5171 28.7461 14.6976 28.7461C14.7267 28.7461 15.0492 28.7461 15.5081 28.7479C16.1043 28.7503 16.5856 29.2354 16.5833 29.8316C16.5809 30.4278 16.0958 30.9092 15.4996 30.9068C15.0447 30.905 14.7254 30.905 14.6976 30.905H14.6976Z" fill="#FDDA24"/>
<path fill-rule="evenodd" clip-rule="evenodd" d="M24.4136 7.17845C21.9296 7.17845 19.7704 8.57624 18.6828 10.6333C18.4041 11.1603 17.751 11.3617 17.224 11.083C16.6969 10.8043 16.4956 10.1512 16.7742 9.62415C18.221 6.8879 21.0982 5.01953 24.4136 5.01953C25.5251 5.01953 26.59 5.23012 27.5686 5.61424C28.1236 5.83206 28.3969 6.45852 28.179 7.01347C27.9612 7.56842 27.3348 7.84172 26.7798 7.6239C26.0482 7.33674 25.2506 7.17845 24.4136 7.17845ZM8.22009 39.3068C8.81625 39.3068 9.29955 39.7901 9.29955 40.3862V41.7249H24.4136C25.0098 41.7249 25.4931 42.2082 25.4931 42.8044C25.4931 43.4005 25.0098 43.8838 24.4136 43.8838H7.14062V40.3862C7.14062 39.7901 7.62392 39.3068 8.22009 39.3068Z" fill="#59CBE8"/>
<path fill-rule="evenodd" clip-rule="evenodd" d="M18.2294 9.17229C18.7564 9.45096 18.9578 10.1041 18.6791 10.6311C18.2025 11.5324 17.9324 12.5598 17.9324 13.6538V16.8485C17.9324 17.2201 17.9517 17.6216 17.9924 18.0437C18.0496 18.6372 17.615 19.1646 17.0216 19.2218C16.4281 19.2791 15.9007 18.8444 15.8435 18.251C15.7966 17.7647 15.7734 17.2938 15.7734 16.8485V13.6538C15.7734 12.1998 16.1335 10.8267 16.7706 9.62196C17.0492 9.09493 17.7024 8.89361 18.2294 9.17229Z" fill="#FF7F41"/>
<path fill-rule="evenodd" clip-rule="evenodd" d="M16.8157 17.0715C17.4092 17.0142 17.9366 17.4489 17.9939 18.0423C18.2274 20.4638 19.1325 23.2986 20.7878 25.0165C21.2014 25.4458 21.1888 26.1291 20.7595 26.5428C20.3302 26.9564 19.6468 26.9438 19.2331 26.5145C17.105 24.3059 16.1024 20.9188 15.8449 18.2496C15.7877 17.6562 16.2223 17.1287 16.8157 17.0715Z" fill="#F5B6CD"/>
<path fill-rule="evenodd" clip-rule="evenodd" d="M30.61 23.1696C31.1234 23.4727 31.2938 24.1346 30.9907 24.648C29.6594 26.9029 27.5202 28.7703 24.4099 28.7703C22.2456 28.7703 20.5251 27.8577 19.2319 26.5157C18.8182 26.0865 18.8308 25.4031 19.2601 24.9894C19.6894 24.5757 20.3727 24.5884 20.7864 25.0176C21.736 26.003 22.9173 26.6114 24.4099 26.6114C26.5043 26.6114 28.0406 25.3983 29.1316 23.5504C29.4347 23.037 30.0966 22.8665 30.61 23.1696Z" fill="#00C389"/>
<path fill-rule="evenodd" clip-rule="evenodd" d="M31.9697 12.5742C32.5659 12.5742 33.0492 13.0575 33.0492 13.6537V16.8483C33.0492 19.1229 32.4423 22.1943 30.9935 24.6481C30.6905 25.1615 30.0286 25.332 29.5152 25.0289C29.0018 24.7258 28.8314 24.0639 29.1345 23.5505C30.3488 21.4938 30.8903 18.8195 30.8903 16.8483V13.6537C30.8903 13.0575 31.3736 12.5742 31.9697 12.5742Z" fill="#FDDA24"/>
<path fill-rule="evenodd" clip-rule="evenodd" d="M26.1687 6.22431C26.3866 5.66938 27.0131 5.39615 27.568 5.61402C30.7755 6.87333 33.0494 9.99745 33.0494 13.6557C33.0494 14.2519 32.5661 14.7352 31.9699 14.7352C31.3737 14.7352 30.8904 14.2519 30.8904 13.6557C30.8904 10.9149 29.188 8.56942 26.779 7.6236C26.2241 7.40573 25.9508 6.77925 26.1687 6.22431Z" fill="#9063CD"/>
</svg>
