<svg width="48" height="48" viewBox="0 0 48 48" fill="none" xmlns="http://www.w3.org/2000/svg">
<path fill-rule="evenodd" clip-rule="evenodd" d="M33.9969 17C33.9969 16.4477 34.4446 16 34.9969 16H40.9969C41.5492 16 41.9969 16.4477 41.9969 17V21C41.9969 24.8723 38.8692 28 34.9969 28C34.4446 28 33.9969 27.5523 33.9969 27V17ZM35.9969 18V25.9006C38.283 25.4391 39.9969 23.4251 39.9969 21V18H35.9969ZM24.7969 41C24.7969 40.4477 25.2446 40 25.7969 40H37.9969C38.5492 40 38.9969 40.4477 38.9969 41C38.9969 41.5523 38.5492 42 37.9969 42H25.7969C25.2446 42 24.7969 41.5523 24.7969 41Z" fill="#00CCEA"/>
<path fill-rule="evenodd" clip-rule="evenodd" d="M5 41C5 40.4477 5.44772 40 6 40H25.8C26.3523 40 26.8 40.4477 26.8 41C26.8 41.5523 26.3523 42 25.8 42H6C5.44772 42 5 41.5523 5 41Z" fill="#FDDA24"/>
<path fill-rule="evenodd" clip-rule="evenodd" d="M27.3827 6.07615C27.7564 6.23093 28 6.59557 28 7.00003C28 9.56453 26.0485 11.691 23.5557 11.9692L19.8321 17.5547C19.5876 17.9214 19.132 18.0848 18.7102 17.9571C18.2885 17.8294 18 17.4407 18 17V15C18 12.3935 20.0159 10.2396 22.5671 10.0187L26.2929 6.29292C26.5789 6.00692 27.009 5.92137 27.3827 6.07615ZM35.3827 6.07615C35.7564 6.23093 36 6.59557 36 7.00003C36 9.56453 34.0485 11.691 31.5557 11.9692L27.8321 17.5547C27.5876 17.9214 27.132 18.0848 26.7102 17.9571C26.2885 17.8294 26 17.4407 26 17V15C26 12.3935 28.0159 10.2396 30.5671 10.0187L34.2929 6.29292C34.5789 6.00692 35.009 5.92137 35.3827 6.07615ZM19 6.00003C19.5523 6.00003 20 6.44774 20 7.00003C20 9.56453 18.0485 11.691 15.5557 11.9692L11.8321 17.5547C11.5876 17.9214 11.132 18.0848 10.7102 17.9571C10.2885 17.8294 10 17.4407 10 17V15C10 12.2477 12.2477 10 15 10C16.6477 10 18 8.64774 18 7.00003C18 6.44774 18.4477 6.00003 19 6.00003Z" fill="#00C389"/>
<path fill-rule="evenodd" clip-rule="evenodd" d="M13.4375 17C13.4375 16.4477 13.8852 16 14.4375 16H34.9975C35.5498 16 35.9975 16.4477 35.9975 17C35.9975 17.5523 35.5498 18 34.9975 18H14.4375C13.8852 18 13.4375 17.5523 13.4375 17Z" fill="#9063CD"/>
<path fill-rule="evenodd" clip-rule="evenodd" d="M6 17C6 16.4477 6.44772 16 7 16H14.44C14.9923 16 15.44 16.4477 15.44 17C15.44 17.5523 14.9923 18 14.44 18H8V23C8 30.1877 13.8123 36 21 36C21.5523 36 22 36.4477 22 37C22 37.5523 21.5523 38 21 38C12.7077 38 6 31.2923 6 23V17Z" fill="#F5B6CD"/>
<path fill-rule="evenodd" clip-rule="evenodd" d="M35 16C35.5523 16 36 16.4477 36 17V23C36 31.2923 29.2923 38 21 38C20.4477 38 20 37.5523 20 37C20 36.4477 20.4477 36 21 36C28.1877 36 34 30.1877 34 23V17C34 16.4477 34.4477 16 35 16Z" fill="#FF7F37"/>
</svg>
