<svg width="48" height="48" viewBox="0 0 48 48" fill="none" xmlns="http://www.w3.org/2000/svg">
<path fill-rule="evenodd" clip-rule="evenodd" d="M26.553 26.1058C27.047 25.8588 27.6477 26.059 27.8946 26.553L33.8946 38.553C34.1416 39.047 33.9414 39.6477 33.4474 39.8946C32.9535 40.1416 32.3528 39.9414 32.1058 39.4474L26.1058 27.4474C25.8588 26.9535 26.059 26.3528 26.553 26.1058Z" fill="#9063CD"/>
<path fill-rule="evenodd" clip-rule="evenodd" d="M35 17C35.5523 17 36 17.4477 36 18V37C36 37.2652 35.8946 37.5196 35.7071 37.7071L33.7071 39.7071C33.3166 40.0976 32.6834 40.0976 32.2929 39.7071C31.9024 39.3166 31.9024 38.6834 32.2929 38.2929L34 36.5858V18C34 17.4477 34.4477 17 35 17Z" fill="#00C389"/>
<path fill-rule="evenodd" clip-rule="evenodd" d="M8.08111 14.6063C8.29867 14.0987 8.88655 13.8636 9.39418 14.0811L23.3942 20.0811C23.9018 20.2987 24.137 20.8865 23.9194 21.3942C23.7018 21.9018 23.114 22.137 22.6063 21.9194L8.60634 15.9194C8.09871 15.7018 7.86356 15.114 8.08111 14.6063Z" fill="#9063CD"/>
<path fill-rule="evenodd" clip-rule="evenodd" d="M10.2929 12.2929C10.4804 12.1054 10.7348 12 11 12H31C31.5523 12 32 12.4477 32 13C32 13.5523 31.5523 14 31 14H11.4142L9.70711 15.7071C9.31658 16.0976 8.68342 16.0976 8.29289 15.7071C7.90237 15.3166 7.90237 14.6834 8.29289 14.2929L10.2929 12.2929Z" fill="#FF7F37"/>
<path fill-rule="evenodd" clip-rule="evenodd" d="M37.8331 8.00005C37.7028 7.99875 37.5735 8.02347 37.4528 8.07276C37.3321 8.12205 37.2225 8.19493 37.1303 8.28712L26.4102 19.0072C26.0197 19.3977 25.3865 19.3977 24.996 19.0072C24.6055 18.6167 24.6055 17.9835 24.996 17.593L35.7159 6.87308C35.716 6.87305 35.7159 6.87311 35.7159 6.87308C35.9962 6.59278 36.3296 6.37113 36.6966 6.22125C37.0618 6.07205 37.4531 5.99689 37.8476 6.0001H39.0231C40.6754 6.0001 42.0231 7.34781 42.0231 9.0001V10.1801C42.0231 10.9979 41.6893 11.7387 41.1691 12.2878C40.7892 12.6888 40.1563 12.7059 39.7554 12.3261C39.3544 11.9462 39.3373 11.3133 39.7172 10.9124C39.9169 10.7015 40.0231 10.4423 40.0231 10.1801V9.0001C40.0231 8.45238 39.5708 8.0001 39.0231 8.0001L37.8331 8.00005Z" fill="#F5B6CD"/>
<path fill-rule="evenodd" clip-rule="evenodd" d="M26.4071 17.5898C26.7976 17.9803 26.7976 18.6135 26.4071 19.004L15.7071 29.704C15.5196 29.8915 15.2652 29.9969 15 29.9969H9.41422L8.56964 30.8415L13.5547 34.1648C13.6646 34.2381 13.7588 34.3323 13.8321 34.4422L17.1554 39.4272L18 38.5827V32.9969C18 32.4446 18.4477 31.9969 19 31.9969C19.5523 31.9969 20 32.4446 20 32.9969V38.9969C20 39.2621 19.8947 39.5164 19.7071 39.704L17.7071 41.704C17.4953 41.9158 17.1996 42.0215 16.9015 41.992C16.6033 41.9625 16.3341 41.8009 16.168 41.5516L12.2789 35.718L6.44531 31.8289C6.19603 31.6627 6.03439 31.3935 6.00487 31.0954C5.97535 30.7973 6.08105 30.5016 6.2929 30.2898L8.2929 28.2898C8.48044 28.1022 8.73479 27.9969 9.00001 27.9969H14.5858L24.9929 17.5898C25.3834 17.1992 26.0166 17.1992 26.4071 17.5898Z" fill="#FDDA24"/>
<path fill-rule="evenodd" clip-rule="evenodd" d="M41.1271 10.871C41.5176 11.2615 41.5176 11.8947 41.1271 12.2852L19.7071 33.7052C19.3166 34.0958 18.6834 34.0958 18.2929 33.7052C17.9024 33.3147 17.9024 32.6815 18.2929 32.291L39.7129 10.871C40.1034 10.4805 40.7366 10.4805 41.1271 10.871Z" fill="#00CCEA"/>
</svg>
