<svg version="1.1" xmlns="http://www.w3.org/2000/svg" width="43" height="32" viewBox="0 0 43 32">
<title>amex</title>
<path fill="#2e6fc9" d="M24.299 12.983c0.335-0.131 0.907-0.57 0.907-1.417 0-0.593-0.245-0.94-0.65-1.178-0.418-0.238-0.902-0.255-1.56-0.255h-2.961v5.317h1.289v-1.933h1.38c0.464 0 0.751 0.041 0.938 0.227 0.234 0.256 0.203 0.715 0.203 1.035l0.006 0.671h1.299v-1.045c0-0.475-0.031-0.71-0.214-0.975-0.114-0.156-0.355-0.342-0.637-0.448zM23.524 12.313c-0.179 0.106-0.387 0.109-0.637 0.109h-1.565l0.001-1.18h1.586c0.223 0 0.458 0.011 0.61 0.096 0.167 0.077 0.27 0.242 0.27 0.47 0 0.232-0.099 0.419-0.265 0.505z"></path>
<path fill="#2e6fc9" d="M27.269 10.135h-1.314v5.317h1.314v-5.317z"></path>
<path fill="#2e6fc9" d="M41.188 10.135v3.703l-2.264-3.703h-1.96v5.029l-2.18-5.029h-1.928l-1.818 4.181h-0.577c-0.336 0-0.7-0.063-0.897-0.274-0.242-0.267-0.354-0.679-0.354-1.247 0-0.559 0.15-0.981 0.369-1.205 0.255-0.246 0.519-0.315 0.992-0.315h1.219v-1.139h-1.245c-0.887 0-1.54 0.195-1.955 0.619-0.552 0.57-0.693 1.291-0.693 2.080 0 0.966 0.237 1.578 0.69 2.030 0.448 0.451 1.239 0.588 1.867 0.588h1.507l0.484-1.186h2.673l0.502 1.186h2.62v-3.991l2.443 3.991h1.822v-5.317h-1.317zM32.904 13.157l0.884-2.119 0.892 2.119h-1.776z"></path>
<path fill="#2e6fc9" d="M11.74 10.133l-1.546 3.607-1.685-3.607h-2.101v5.035l-2.191-5.035h-1.911l-2.305 5.317h1.398l0.5-1.186h2.68l0.495 1.186h2.619v-4.168l1.87 4.167 1.133 0.001 1.867-4.164 0.005 4.164h1.32v-5.317h-2.146zM2.356 13.157l0.875-2.119 0.88 2.119h-1.755z"></path>
<path fill="#2e6fc9" d="M19.143 11.241v-1.108h-4.299v5.318h4.299v-1.1h-3.013v-1.063h2.942v-1.089h-2.942v-0.959h3.013z"></path>
<path fill="#2e6fc9" d="M32.102 18.179v-1.1h-4.295v5.318h4.295v-1.103l-3.015-0.007v-1.056h2.94v-1.086h-2.94v-0.967h3.015z"></path>
<path fill="#2e6fc9" d="M19.135 17.081h-4.113l-1.638 1.742-1.586-1.742h-5.176v5.317h5.099l1.648-1.761 1.586 1.761h2.502v-1.783h1.606c1.125 0 2.241-0.305 2.241-1.782 0-1.472-1.147-1.754-2.169-1.752zM11.071 21.292h-3.163v-1.058h2.825v-1.086h-2.825v-0.967h3.226l1.408 1.548-1.471 1.562zM16.175 21.915l-1.977-2.168 1.977-2.096v4.264zM19.119 19.533h-1.662v-1.354h1.678c0.466 0 0.787 0.187 0.787 0.653 0 0.461-0.307 0.703-0.803 0.701z"></path>
<path fill="#2e6fc9" d="M26.18 19.925c0.337-0.133 0.912-0.565 0.914-1.416 0-0.606-0.256-0.939-0.66-1.181-0.425-0.223-0.899-0.25-1.55-0.25h-2.972v5.317h1.293v-1.942h1.375c0.47 0 0.756 0.046 0.944 0.236 0.239 0.248 0.208 0.721 0.208 1.041v0.665h1.292v-1.054c-0.004-0.469-0.030-0.71-0.214-0.97-0.108-0.154-0.344-0.344-0.629-0.447zM25.404 19.265c-0.173 0.101-0.386 0.11-0.637 0.11h-1.565v-1.195h1.586c0.227 0 0.458 0.005 0.614 0.096 0.167 0.086 0.266 0.252 0.266 0.479s-0.099 0.412-0.264 0.51z"></path>
<path fill="#2e6fc9" d="M37.021 19.591c-0.296-0.289-0.776-0.408-1.474-0.424l-0.691-0.020c-0.22 0-0.364-0.014-0.502-0.060-0.162-0.060-0.281-0.195-0.281-0.396 0-0.168 0.052-0.296 0.195-0.383 0.128-0.086 0.28-0.096 0.516-0.096h2.36v-1.131h-2.579c-1.351 0-1.841 0.81-1.841 1.583 0 1.681 1.508 1.606 2.711 1.645 0.226 0 0.36 0.037 0.459 0.118 0.090 0.075 0.157 0.196 0.157 0.352 0 0.145-0.062 0.265-0.151 0.347-0.108 0.101-0.282 0.132-0.525 0.132h-2.497v1.14h2.507c1.298 0 2.023-0.534 2.023-1.678 0-0.546-0.135-0.871-0.386-1.126z"></path>
<path fill="#2e6fc9" d="M42.28 19.591c-0.294-0.289-0.775-0.408-1.473-0.424l-0.692-0.020c-0.218 0-0.363-0.014-0.502-0.060-0.16-0.060-0.28-0.195-0.28-0.396 0-0.168 0.052-0.296 0.194-0.383 0.129-0.086 0.282-0.096 0.517-0.096h2.361v-1.131h-2.581c-1.349 0-1.841 0.81-1.841 1.583 0 1.681 1.509 1.606 2.713 1.645 0.225 0 0.358 0.037 0.459 0.118 0.088 0.075 0.156 0.196 0.156 0.352 0 0.145-0.063 0.265-0.15 0.347-0.109 0.101-0.283 0.132-0.526 0.132h-2.496v1.14h2.507c1.298 0 2.021-0.534 2.021-1.678 0-0.546-0.133-0.871-0.386-1.126z"></path>
</svg>
