<svg version="1.1" xmlns="http://www.w3.org/2000/svg" width="48" height="32" viewBox="0 0 48 32">
<title>logos-Bam-endoso-secundario-positivo</title>
<path d="M21.418 9.059c0.043 0.166 0.212 0.252 0.383 0.196 1.403-0.428 2.809-0.721 4.26-0.934 0.166-0.022 0.257-0.193 0.196-0.364-0.129-0.36-0.194-0.54-0.326-0.899-0.056-0.152-0.207-0.252-0.362-0.235-1.418 0.173-2.788 0.429-4.161 0.824-0.179 0.056-0.289 0.254-0.244 0.43 0.1 0.392 0.151 0.588 0.253 0.982z"></path>
<path d="M27.104 9.256c-0.054-0.161-0.202-0.269-0.348-0.25-2.22 0.281-4.382 0.825-6.432 1.724-0.15 0.070-0.239 0.257-0.208 0.421 0.081 0.42 0.121 0.631 0.203 1.052 0.035 0.18 0.205 0.263 0.372 0.182 2.082-0.946 4.283-1.548 6.54-1.907 0.143-0.023 0.217-0.186 0.162-0.354-0.114-0.348-0.172-0.522-0.289-0.868z"></path>
<path d="M27.098 11.604c-0.055-0.172-0.216-0.284-0.369-0.253-1.386 0.298-2.741 0.658-4.083 1.115-0.17 0.062-0.266 0.24-0.221 0.404 0.107 0.39 0.16 0.586 0.268 0.977 0.051 0.184 0.259 0.278 0.451 0.206 1.342-0.476 2.697-0.892 4.082-1.226 0.133-0.032 0.198-0.187 0.149-0.346-0.109-0.351-0.164-0.527-0.276-0.877z"></path>
<path d="M19.516 18.465c0-0.38-0.244-0.537-0.724-0.537h-0.573v1.075h0.566c0.466 0 0.731-0.186 0.731-0.537zM18.677 16.044c-0.15 0-0.308 0.014-0.458 0.036v0.953h0.487c0.43 0 0.63-0.179 0.63-0.487 0-0.294-0.208-0.501-0.659-0.501zM20.69 18.515c0 0.838-0.845 1.397-1.805 1.397h-1.762v-4.628c0.587-0.086 1.032-0.143 1.555-0.143 0.967 0 1.741 0.451 1.741 1.239 0 0.451-0.236 0.752-0.659 0.917 0.652 0.186 0.931 0.58 0.931 1.218z"></path>
<path d="M23.215 18.995v-0.616h-0.208c-0.487 0-0.931 0.107-0.931 0.444 0 0.258 0.172 0.351 0.523 0.351 0.279 0 0.509-0.086 0.616-0.179zM24.268 17.656v1.884c-0.387 0.294-1.010 0.451-1.855 0.451-0.752 0-1.376-0.308-1.376-0.989 0-1.024 0.996-1.275 2.178-1.311-0.022-0.444-0.201-0.559-0.595-0.559-0.208 0-0.759 0.093-0.831 0.093-0.172 0-0.308-0.107-0.423-0.423l-0.086-0.258c0.444-0.165 0.881-0.279 1.354-0.279 1.032 0 1.633 0.387 1.633 1.39z"></path>
<path d="M30.398 17.362v2.55h-1.067v-2.171c0-0.38-0.244-0.573-0.673-0.573-0.201 0-0.394 0.043-0.552 0.107 0.057 0.158 0.086 0.33 0.086 0.516v2.12h-1.067v-2.171c0-0.38-0.244-0.573-0.673-0.573-0.165 0-0.322 0.021-0.458 0.057v2.686h-1.082l0.007-3.188c0.43-0.301 1.103-0.466 1.669-0.466 0.451 0 0.838 0.15 1.117 0.394 0.365-0.236 0.874-0.394 1.304-0.394 0.781 0 1.39 0.416 1.39 1.103z"></path>
<path d="M19.268 22.691c0.108 0 0.205-0.009 0.283-0.030v-0.801c-0.078-0.042-0.172-0.071-0.266-0.071-0.297 0-0.401 0.2-0.401 0.504 0 0.283 0.163 0.398 0.384 0.398zM19.732 21.197v1.576c-0.111 0.050-0.285 0.073-0.474 0.073-0.379 0-0.558-0.247-0.558-0.563 0-0.413 0.2-0.655 0.511-0.655 0.146 0 0.264 0.042 0.339 0.099v-0.469c0.042-0.033 0.137-0.061 0.181-0.061z"></path>
<path d="M20.208 22.151h0.629v-0.024c0-0.243-0.12-0.365-0.302-0.365-0.174 0-0.302 0.111-0.327 0.389zM21.016 22.274h-0.813c0.005 0.259 0.132 0.422 0.375 0.422 0.125 0 0.266-0.028 0.361-0.071 0.028 0.031 0.047 0.071 0.054 0.139-0.108 0.045-0.257 0.085-0.443 0.085-0.335 0-0.532-0.226-0.532-0.575 0-0.412 0.212-0.646 0.537-0.646 0.292 0 0.476 0.2 0.476 0.523 0 0.045-0.005 0.080-0.014 0.122z"></path>
<path d="M21.316 21.258c0.042-0.033 0.134-0.061 0.182-0.061v1.626h-0.182v-1.564z"></path>
<path d="M23.632 22.097v0.516c-0.137 0.151-0.358 0.233-0.622 0.233-0.433 0-0.728-0.292-0.728-0.796 0-0.49 0.292-0.787 0.728-0.787 0.257 0 0.46 0.094 0.587 0.252-0.017 0.061-0.075 0.099-0.132 0.113-0.089-0.13-0.24-0.205-0.455-0.205-0.335 0-0.539 0.233-0.539 0.627 0 0.405 0.207 0.634 0.539 0.634 0.165 0 0.311-0.038 0.434-0.118v-0.436c0.049-0.047 0.125-0.054 0.189-0.033z"></path>
<path d="M24.454 21.8c-0.193 0-0.29 0.014-0.368 0.057v0.966h-0.181v-1.079c0.132-0.073 0.299-0.109 0.443-0.109 0.071 0 0.111 0.012 0.139 0.021 0 0.054-0.007 0.108-0.033 0.144z"></path>
<path d="M25.642 21.642v1.079c-0.090 0.064-0.349 0.108-0.495 0.108-0.276 0-0.452-0.101-0.452-0.384v-0.768c0.054-0.026 0.111-0.035 0.181-0.035v0.777c0 0.172 0.101 0.25 0.313 0.25 0.101 0 0.196-0.017 0.271-0.038v-0.957c0.049-0.026 0.12-0.033 0.182-0.033z"></path>
<path d="M26.806 22.224c0-0.245-0.137-0.436-0.462-0.436-0.066 0-0.134 0.009-0.205 0.026v0.827c0.071 0.026 0.158 0.047 0.252 0.047 0.257 0 0.415-0.137 0.415-0.464zM26.99 22.252c0 0.337-0.165 0.594-0.518 0.594-0.111 0-0.238-0.035-0.332-0.092v0.476c-0.038 0.035-0.127 0.061-0.182 0.061v-1.593c0.075-0.033 0.229-0.066 0.375-0.066 0.408 0 0.657 0.212 0.657 0.62z"></path>
<path d="M28.116 22.234c0-0.28-0.141-0.443-0.384-0.443-0.238 0-0.382 0.163-0.382 0.443 0 0.297 0.141 0.45 0.382 0.45 0.243 0 0.384-0.153 0.384-0.45zM27.164 22.234c0-0.368 0.229-0.606 0.568-0.606 0.346 0 0.568 0.243 0.568 0.606 0 0.379-0.224 0.612-0.568 0.612-0.346 0-0.568-0.24-0.568-0.612z"></path>
<path d="M17.909 24.827c0-0.125-0.080-0.177-0.238-0.177h-0.189v0.353h0.186c0.153 0 0.24-0.061 0.24-0.177zM17.634 24.031c-0.049 0-0.101 0.005-0.151 0.012v0.313h0.16c0.141 0 0.207-0.059 0.207-0.16 0-0.097-0.068-0.165-0.217-0.165zM18.296 24.844c0 0.276-0.278 0.459-0.594 0.459h-0.58v-1.522c0.193-0.028 0.339-0.047 0.511-0.047 0.318 0 0.573 0.148 0.573 0.407 0 0.148-0.078 0.247-0.217 0.302 0.214 0.061 0.306 0.191 0.306 0.401z"></path>
<path d="M19.126 25.002v-0.203h-0.068c-0.16 0-0.306 0.035-0.306 0.146 0 0.085 0.057 0.115 0.172 0.115 0.092 0 0.167-0.028 0.203-0.059zM19.472 24.561v0.62c-0.127 0.097-0.332 0.148-0.61 0.148-0.247 0-0.452-0.101-0.452-0.325 0-0.337 0.328-0.419 0.716-0.431-0.007-0.146-0.066-0.184-0.196-0.184-0.068 0-0.25 0.031-0.273 0.031-0.057 0-0.101-0.035-0.139-0.139l-0.028-0.085c0.146-0.054 0.29-0.092 0.445-0.092 0.339 0 0.537 0.127 0.537 0.457z"></path>
<path d="M20.77 24.464v0.839h-0.353v-0.714c0-0.125-0.082-0.189-0.226-0.189-0.054 0-0.106 0.007-0.151 0.019v0.884h-0.356l0.003-1.049c0.148-0.099 0.389-0.153 0.584-0.153 0.271 0 0.499 0.134 0.499 0.363z"></path>
<path d="M20.923 24.728c0-0.412 0.287-0.629 0.66-0.629 0.104 0 0.198 0.014 0.311 0.040-0.014 0.118-0.063 0.221-0.118 0.28-0.040-0.012-0.106-0.021-0.144-0.021-0.238 0-0.335 0.122-0.335 0.309 0 0.189 0.089 0.304 0.313 0.304 0.061 0 0.132-0.012 0.219-0.042l0.063 0.283c-0.13 0.052-0.264 0.075-0.37 0.075-0.363 0-0.601-0.217-0.601-0.599z"></path>
<path d="M22.836 24.712c0-0.193-0.094-0.306-0.259-0.306-0.16 0-0.259 0.113-0.259 0.306 0 0.203 0.097 0.309 0.259 0.309 0.165 0 0.259-0.106 0.259-0.309zM21.962 24.712c0-0.377 0.254-0.613 0.615-0.613 0.375 0 0.615 0.245 0.615 0.613 0 0.379-0.243 0.615-0.615 0.615-0.375 0-0.615-0.243-0.615-0.615z"></path>
<path d="M23.392 23.791c0.082-0.061 0.261-0.113 0.356-0.113v1.626h-0.356v-1.513z"></path>
<path d="M24.823 24.712c0-0.193-0.094-0.306-0.259-0.306-0.16 0-0.259 0.113-0.259 0.306 0 0.203 0.097 0.309 0.259 0.309 0.165 0 0.259-0.106 0.259-0.309zM23.948 24.712c0-0.377 0.254-0.613 0.615-0.613 0.375 0 0.615 0.245 0.615 0.613 0 0.379-0.243 0.615-0.615 0.615-0.375 0-0.615-0.243-0.615-0.615z"></path>
<path d="M27.16 24.464v0.839h-0.351v-0.714c0-0.125-0.080-0.189-0.221-0.189-0.066 0-0.13 0.014-0.182 0.035 0.019 0.052 0.028 0.108 0.028 0.169v0.698h-0.351v-0.714c0-0.125-0.080-0.189-0.221-0.189-0.054 0-0.106 0.007-0.151 0.019v0.884h-0.356l0.002-1.049c0.141-0.099 0.363-0.153 0.549-0.153 0.148 0 0.276 0.049 0.367 0.13 0.12-0.078 0.287-0.13 0.429-0.13 0.257 0 0.457 0.137 0.457 0.363z"></path>
<path d="M28.237 24.695c0-0.217-0.113-0.294-0.294-0.294-0.073 0-0.132 0.014-0.184 0.038v0.591c0.064 0.009 0.125 0.014 0.182 0.014 0.207 0 0.297-0.16 0.297-0.349zM28.588 24.65c0 0.429-0.254 0.676-0.669 0.676-0.202 0-0.398-0.038-0.516-0.092v-1.444c0.083-0.061 0.264-0.113 0.356-0.113v0.558c0.101-0.087 0.224-0.134 0.335-0.134 0.351 0 0.495 0.243 0.495 0.549z"></path>
<path d="M28.788 24.134c0.049-0.021 0.111-0.033 0.179-0.033s0.127 0.012 0.177 0.033v1.169h-0.356v-1.169zM28.783 23.762c0-0.099 0.082-0.181 0.182-0.181 0.101 0 0.184 0.080 0.184 0.181 0 0.097-0.082 0.181-0.184 0.181-0.099 0-0.182-0.080-0.182-0.181z"></path>
<path d="M30.037 25.002v-0.203h-0.068c-0.16 0-0.306 0.035-0.306 0.146 0 0.085 0.056 0.115 0.172 0.115 0.092 0 0.167-0.028 0.203-0.059zM30.383 24.561v0.62c-0.127 0.097-0.332 0.148-0.61 0.148-0.247 0-0.452-0.101-0.452-0.325 0-0.337 0.328-0.419 0.716-0.431-0.007-0.146-0.066-0.184-0.196-0.184-0.068 0-0.25 0.031-0.273 0.031-0.056 0-0.101-0.035-0.139-0.139l-0.028-0.085c0.146-0.054 0.29-0.092 0.445-0.092 0.339 0 0.537 0.127 0.537 0.457z"></path>
</svg>
