<svg version="1.1" xmlns="http://www.w3.org/2000/svg" width="48" height="32" viewBox="0 0 48 32">
<title>logos-Bam-endoso-primario-positivo</title>
<path d="M12.363 11.933c0.042 0.163 0.207 0.247 0.374 0.191 1.372-0.419 2.748-0.705 4.167-0.914 0.163-0.022 0.252-0.188 0.192-0.356-0.126-0.353-0.19-0.528-0.319-0.879-0.055-0.149-0.203-0.246-0.354-0.23-1.387 0.17-2.727 0.42-4.071 0.806-0.175 0.054-0.282 0.249-0.238 0.421 0.098 0.384 0.148 0.576 0.248 0.96z"></path>
<path d="M17.925 12.126c-0.053-0.158-0.198-0.263-0.341-0.244-2.172 0.274-4.286 0.807-6.292 1.687-0.146 0.069-0.234 0.251-0.203 0.412 0.079 0.411 0.118 0.617 0.198 1.029 0.034 0.176 0.2 0.257 0.364 0.178 2.037-0.925 4.189-1.514 6.398-1.865 0.14-0.023 0.212-0.182 0.158-0.347-0.111-0.341-0.168-0.511-0.282-0.85z"></path>
<path d="M17.919 14.422c-0.054-0.168-0.211-0.278-0.361-0.247-1.356 0.292-2.681 0.643-3.994 1.091-0.167 0.061-0.26 0.235-0.216 0.395 0.104 0.382 0.157 0.573 0.263 0.956 0.050 0.18 0.253 0.272 0.441 0.201 1.313-0.466 2.638-0.873 3.993-1.199 0.13-0.031 0.194-0.182 0.146-0.338-0.107-0.344-0.161-0.515-0.27-0.858z"></path>
<path d="M23.142 14.079c0-0.463-0.297-0.655-0.881-0.655h-0.698v1.309h0.689c0.567 0 0.89-0.227 0.89-0.655zM22.121 11.129c-0.183 0-0.375 0.017-0.559 0.044v1.161h0.593c0.524 0 0.768-0.218 0.768-0.593 0-0.358-0.253-0.611-0.803-0.611zM24.573 14.14c0 1.021-1.030 1.702-2.199 1.702h-2.147v-5.638c0.716-0.105 1.257-0.175 1.894-0.175 1.178 0 2.121 0.55 2.121 1.51 0 0.55-0.288 0.916-0.803 1.117 0.794 0.227 1.135 0.707 1.135 1.484z"></path>
<path d="M27.648 14.725v-0.751h-0.253c-0.593 0-1.135 0.131-1.135 0.541 0 0.314 0.209 0.428 0.637 0.428 0.34 0 0.62-0.105 0.751-0.218zM28.931 13.093v2.295c-0.471 0.358-1.23 0.55-2.26 0.55-0.916 0-1.676-0.375-1.676-1.204 0-1.248 1.213-1.553 2.653-1.597-0.026-0.541-0.244-0.681-0.724-0.681-0.253 0-0.925 0.113-1.012 0.113-0.209 0-0.375-0.131-0.515-0.515l-0.105-0.314c0.541-0.201 1.073-0.34 1.649-0.34 1.257 0 1.99 0.471 1.99 1.693z"></path>
<path d="M36.398 12.735v3.107h-1.3v-2.644c0-0.463-0.297-0.698-0.82-0.698-0.244 0-0.48 0.052-0.672 0.131 0.070 0.192 0.105 0.401 0.105 0.628v2.583h-1.3v-2.644c0-0.463-0.297-0.698-0.82-0.698-0.201 0-0.393 0.026-0.559 0.070v3.273h-1.318l0.009-3.883c0.524-0.367 1.344-0.567 2.033-0.567 0.55 0 1.021 0.183 1.361 0.48 0.445-0.288 1.065-0.48 1.588-0.48 0.951 0 1.693 0.506 1.693 1.344z"></path>
<path d="M20.84 19.225c0.132 0 0.25-0.012 0.345-0.037v-0.979c-0.095-0.052-0.21-0.086-0.325-0.086-0.363 0-0.489 0.245-0.489 0.616 0 0.345 0.199 0.486 0.469 0.486zM21.407 17.4v1.926c-0.135 0.060-0.348 0.089-0.579 0.089-0.463 0-0.682-0.302-0.682-0.688 0-0.504 0.245-0.8 0.625-0.8 0.179 0 0.323 0.052 0.415 0.121v-0.573c0.052-0.040 0.167-0.075 0.222-0.075z"></path>
<path d="M21.988 18.566h0.769v-0.029c0-0.297-0.147-0.446-0.369-0.446-0.213 0-0.369 0.135-0.4 0.475zM22.976 18.716h-0.993c0.006 0.317 0.161 0.515 0.458 0.515 0.153 0 0.325-0.035 0.44-0.086 0.035 0.037 0.058 0.086 0.066 0.17-0.132 0.055-0.314 0.104-0.541 0.104-0.409 0-0.651-0.276-0.651-0.702 0-0.504 0.259-0.789 0.656-0.789 0.357 0 0.582 0.245 0.582 0.639 0 0.055-0.006 0.098-0.017 0.15z"></path>
<path d="M23.341 17.475c0.052-0.040 0.164-0.075 0.222-0.075v1.986h-0.222v-1.911z"></path>
<path d="M26.171 18.5v0.63c-0.167 0.184-0.438 0.285-0.76 0.285-0.53 0-0.89-0.357-0.89-0.973 0-0.599 0.357-0.961 0.89-0.961 0.314 0 0.561 0.115 0.717 0.308-0.020 0.075-0.092 0.121-0.161 0.138-0.109-0.158-0.294-0.25-0.555-0.25-0.409 0-0.659 0.285-0.659 0.766 0 0.495 0.253 0.774 0.659 0.774 0.201 0 0.38-0.046 0.53-0.144v-0.532c0.061-0.058 0.152-0.066 0.23-0.040z"></path>
<path d="M27.175 18.137c-0.236 0-0.354 0.017-0.449 0.069v1.18h-0.222v-1.318c0.161-0.089 0.366-0.132 0.541-0.132 0.086 0 0.135 0.014 0.17 0.026 0 0.066-0.009 0.132-0.040 0.176z"></path>
<path d="M28.626 17.944v1.318c-0.109 0.078-0.426 0.132-0.605 0.132-0.337 0-0.553-0.124-0.553-0.469v-0.938c0.066-0.032 0.135-0.043 0.222-0.043v0.95c0 0.21 0.124 0.305 0.383 0.305 0.124 0 0.239-0.020 0.331-0.046v-1.169c0.061-0.032 0.147-0.040 0.222-0.040z"></path>
<path d="M30.048 18.655c0-0.299-0.167-0.533-0.564-0.533-0.081 0-0.164 0.012-0.25 0.032v1.010c0.087 0.032 0.193 0.058 0.308 0.058 0.314 0 0.507-0.167 0.507-0.567zM30.273 18.69c0 0.412-0.201 0.726-0.633 0.726-0.135 0-0.291-0.043-0.406-0.112v0.582c-0.046 0.043-0.155 0.075-0.221 0.075v-1.946c0.092-0.040 0.279-0.081 0.457-0.081 0.498 0 0.803 0.259 0.803 0.757z"></path>
<path d="M31.649 18.667c0-0.343-0.173-0.541-0.469-0.541-0.291 0-0.466 0.199-0.466 0.541 0 0.363 0.173 0.55 0.466 0.55 0.297 0 0.469-0.187 0.469-0.55zM30.486 18.667c0-0.449 0.279-0.74 0.694-0.74 0.423 0 0.694 0.296 0.694 0.74 0 0.463-0.273 0.748-0.694 0.748-0.423 0-0.694-0.294-0.694-0.748z"></path>
<path d="M21.158 21.565c0-0.153-0.098-0.216-0.291-0.216h-0.23v0.432h0.227c0.187 0 0.294-0.075 0.294-0.216zM20.822 20.592c-0.060 0-0.124 0.006-0.184 0.014v0.383h0.196c0.173 0 0.253-0.072 0.253-0.196 0-0.118-0.084-0.201-0.265-0.201zM21.63 21.585c0 0.337-0.34 0.561-0.726 0.561h-0.708v-1.86c0.236-0.035 0.415-0.058 0.625-0.058 0.389 0 0.7 0.181 0.7 0.498 0 0.181-0.095 0.302-0.265 0.369 0.262 0.075 0.374 0.233 0.374 0.489z"></path>
<path d="M22.645 21.778v-0.247h-0.083c-0.196 0-0.374 0.043-0.374 0.178 0 0.104 0.069 0.141 0.21 0.141 0.112 0 0.204-0.035 0.247-0.072zM23.068 21.24v0.757c-0.155 0.118-0.406 0.182-0.745 0.182-0.302 0-0.553-0.124-0.553-0.397 0-0.412 0.4-0.512 0.875-0.527-0.009-0.178-0.081-0.225-0.239-0.225-0.083 0-0.305 0.037-0.334 0.037-0.069 0-0.124-0.043-0.17-0.17l-0.035-0.104c0.178-0.066 0.354-0.112 0.544-0.112 0.414 0 0.656 0.156 0.656 0.559z"></path>
<path d="M24.653 21.122v1.025h-0.432v-0.872c0-0.153-0.101-0.23-0.276-0.23-0.066 0-0.13 0.009-0.184 0.023v1.079h-0.435l0.003-1.281c0.181-0.121 0.475-0.187 0.714-0.187 0.331 0 0.61 0.164 0.61 0.443z"></path>
<path d="M24.84 21.444c0-0.504 0.351-0.769 0.806-0.769 0.127 0 0.242 0.017 0.38 0.049-0.017 0.144-0.078 0.271-0.144 0.343-0.049-0.014-0.13-0.026-0.175-0.026-0.291 0-0.409 0.15-0.409 0.377 0 0.23 0.109 0.371 0.383 0.371 0.075 0 0.161-0.015 0.268-0.052l0.078 0.345c-0.158 0.063-0.322 0.092-0.452 0.092-0.443 0-0.734-0.265-0.734-0.731z"></path>
<path d="M27.178 21.424c0-0.236-0.115-0.374-0.317-0.374-0.196 0-0.317 0.138-0.317 0.374 0 0.247 0.118 0.377 0.317 0.377 0.201 0 0.317-0.13 0.317-0.377zM26.11 21.424c0-0.461 0.311-0.749 0.751-0.749 0.458 0 0.751 0.299 0.751 0.749 0 0.463-0.297 0.751-0.751 0.751-0.458 0-0.751-0.297-0.751-0.751z"></path>
<path d="M27.857 20.298c0.101-0.075 0.319-0.138 0.435-0.138v1.986h-0.435v-1.848z"></path>
<path d="M29.604 21.424c0-0.236-0.115-0.374-0.317-0.374-0.196 0-0.317 0.138-0.317 0.374 0 0.247 0.118 0.377 0.317 0.377 0.201 0 0.317-0.13 0.317-0.377zM28.537 21.424c0-0.461 0.311-0.749 0.751-0.749 0.458 0 0.751 0.299 0.751 0.749 0 0.463-0.297 0.751-0.751 0.751-0.458 0-0.751-0.297-0.751-0.751z"></path>
<path d="M32.46 21.122v1.025h-0.429v-0.872c0-0.153-0.098-0.23-0.271-0.23-0.081 0-0.158 0.017-0.222 0.043 0.023 0.063 0.035 0.132 0.035 0.207v0.852h-0.429v-0.872c0-0.153-0.098-0.23-0.271-0.23-0.066 0-0.129 0.009-0.184 0.023v1.079h-0.435l0.003-1.281c0.173-0.121 0.443-0.187 0.671-0.187 0.181 0 0.337 0.060 0.449 0.158 0.147-0.095 0.351-0.158 0.524-0.158 0.314 0 0.559 0.167 0.559 0.443z"></path>
<path d="M33.776 21.404c0-0.265-0.138-0.36-0.36-0.36-0.089 0-0.161 0.017-0.225 0.046v0.722c0.078 0.012 0.153 0.017 0.222 0.017 0.253 0 0.363-0.196 0.363-0.426zM34.205 21.349c0 0.524-0.311 0.826-0.817 0.826-0.248 0-0.487-0.046-0.63-0.112v-1.765c0.101-0.075 0.322-0.138 0.435-0.138v0.682c0.124-0.106 0.273-0.164 0.409-0.164 0.429 0 0.605 0.297 0.605 0.671z"></path>
<path d="M34.449 20.719c0.060-0.026 0.135-0.040 0.219-0.040s0.155 0.014 0.216 0.040v1.428h-0.435v-1.428zM34.444 20.264c0-0.121 0.101-0.222 0.222-0.222 0.124 0 0.225 0.098 0.225 0.222 0 0.118-0.101 0.222-0.225 0.222-0.121 0-0.222-0.098-0.222-0.222z"></path>
<path d="M35.975 21.778v-0.247h-0.084c-0.196 0-0.374 0.043-0.374 0.178 0 0.104 0.069 0.141 0.21 0.141 0.112 0 0.204-0.035 0.248-0.072zM36.398 21.24v0.757c-0.156 0.118-0.406 0.182-0.746 0.182-0.302 0-0.553-0.124-0.553-0.397 0-0.412 0.4-0.512 0.875-0.527-0.009-0.178-0.081-0.225-0.239-0.225-0.084 0-0.305 0.037-0.334 0.037-0.069 0-0.124-0.043-0.17-0.17l-0.035-0.104c0.178-0.066 0.354-0.112 0.544-0.112 0.414 0 0.656 0.156 0.656 0.559z"></path>
</svg>
