<svg version="1.1" xmlns="http://www.w3.org/2000/svg" width="48" height="32" viewBox="0 0 48 32">
<title>logos-Bam-secundario-positivo</title>
<path d="M21.551 11.715c0.042 0.163 0.208 0.247 0.376 0.192 1.378-0.42 2.758-0.708 4.183-0.917 0.163-0.022 0.253-0.189 0.193-0.357-0.127-0.354-0.19-0.53-0.32-0.882-0.055-0.149-0.203-0.247-0.355-0.231-1.393 0.17-2.738 0.422-4.086 0.809-0.176 0.055-0.283 0.25-0.239 0.423 0.099 0.385 0.148 0.578 0.248 0.964z"></path>
<path d="M27.134 11.909c-0.054-0.158-0.199-0.264-0.342-0.245-2.18 0.276-4.303 0.81-6.315 1.693-0.147 0.069-0.235 0.252-0.204 0.413 0.079 0.413 0.119 0.619 0.199 1.033 0.035 0.177 0.201 0.258 0.365 0.179 2.044-0.928 4.205-1.52 6.422-1.872 0.141-0.023 0.213-0.183 0.159-0.348-0.112-0.342-0.169-0.512-0.283-0.853z"></path>
<path d="M27.128 14.214c-0.054-0.169-0.212-0.279-0.362-0.248-1.361 0.293-2.692 0.646-4.009 1.095-0.167 0.061-0.261 0.236-0.217 0.397 0.105 0.383 0.157 0.575 0.264 0.959 0.050 0.181 0.254 0.273 0.443 0.202 1.317-0.468 2.648-0.876 4.008-1.204 0.13-0.031 0.195-0.183 0.146-0.34-0.107-0.345-0.161-0.517-0.271-0.861z"></path>
<path d="M19.683 20.951c0-0.373-0.239-0.527-0.71-0.527h-0.563v1.055h0.556c0.457 0 0.718-0.183 0.718-0.527zM18.86 18.573c-0.148 0-0.302 0.014-0.45 0.035v0.935h0.478c0.422 0 0.619-0.176 0.619-0.478 0-0.288-0.204-0.492-0.647-0.492zM20.836 21c0 0.823-0.83 1.372-1.773 1.372h-1.73v-4.544c0.577-0.084 1.013-0.141 1.526-0.141 0.95 0 1.709 0.443 1.709 1.217 0 0.443-0.232 0.739-0.647 0.9 0.64 0.183 0.914 0.57 0.914 1.196z"></path>
<path d="M23.315 21.471v-0.605h-0.204c-0.478 0-0.914 0.105-0.914 0.436 0 0.253 0.169 0.345 0.514 0.345 0.274 0 0.499-0.084 0.605-0.176zM24.349 20.156v1.85c-0.38 0.288-0.992 0.443-1.822 0.443-0.739 0-1.351-0.303-1.351-0.971 0-1.006 0.978-1.252 2.138-1.287-0.021-0.436-0.197-0.549-0.584-0.549-0.204 0-0.746 0.092-0.816 0.092-0.169 0-0.303-0.105-0.415-0.415l-0.085-0.253c0.436-0.162 0.865-0.274 1.329-0.274 1.013 0 1.604 0.38 1.604 1.365z"></path>
<path d="M30.368 19.868v2.504h-1.048v-2.131c0-0.373-0.239-0.563-0.661-0.563-0.197 0-0.387 0.042-0.542 0.105 0.056 0.155 0.084 0.324 0.084 0.507v2.082h-1.048v-2.131c0-0.373-0.239-0.563-0.661-0.563-0.162 0-0.317 0.021-0.45 0.056v2.638h-1.062l0.007-3.13c0.422-0.295 1.083-0.457 1.639-0.457 0.443 0 0.823 0.148 1.097 0.387 0.359-0.232 0.858-0.387 1.28-0.387 0.767 0 1.365 0.408 1.365 1.083z"></path>
</svg>
