<svg version="1.1" xmlns="http://www.w3.org/2000/svg" width="48" height="32" viewBox="0 0 48 32">
<title>brand-BancoAgricola-endoso-secundario-positivo</title>
<path d="M20.573 9.759c0.049 0.188 0.239 0.285 0.433 0.222 1.588-0.485 3.18-0.816 4.823-1.058 0.188-0.025 0.291-0.218 0.222-0.412-0.146-0.408-0.22-0.611-0.369-1.017-0.063-0.172-0.234-0.285-0.41-0.266-1.605 0.196-3.156 0.486-4.711 0.933-0.202 0.063-0.327 0.288-0.276 0.487 0.113 0.444 0.171 0.666 0.286 1.111z"></path>
<path d="M27.009 9.982c-0.062-0.182-0.229-0.304-0.394-0.283-2.513 0.318-4.96 0.934-7.281 1.952-0.169 0.079-0.271 0.29-0.235 0.477 0.091 0.476 0.137 0.714 0.23 1.191 0.040 0.204 0.232 0.298 0.421 0.206 2.357-1.070 4.848-1.752 7.403-2.158 0.163-0.026 0.245-0.211 0.183-0.401-0.129-0.394-0.194-0.591-0.327-0.983z"></path>
<path d="M27.002 12.639c-0.062-0.195-0.244-0.322-0.417-0.286-1.569 0.338-3.103 0.744-4.622 1.262-0.193 0.070-0.301 0.272-0.251 0.457 0.121 0.442 0.182 0.663 0.304 1.106 0.057 0.208 0.293 0.315 0.51 0.233 1.519-0.539 3.053-1.010 4.621-1.388 0.15-0.036 0.224-0.211 0.168-0.392-0.123-0.398-0.186-0.596-0.313-0.993z"></path>
<path d="M9.028 18.891c0-0.287-0.184-0.406-0.547-0.406h-0.433v0.812h0.428c0.352 0 0.553-0.141 0.553-0.406zM8.394 17.061c-0.114 0-0.233 0.011-0.347 0.027v0.72h0.368c0.325 0 0.477-0.135 0.477-0.368 0-0.222-0.157-0.379-0.498-0.379zM9.916 18.929c0 0.634-0.639 1.056-1.365 1.056h-1.332v-3.499c0.444-0.065 0.78-0.108 1.175-0.108 0.731 0 1.316 0.341 1.316 0.937 0 0.341-0.179 0.569-0.498 0.693 0.493 0.141 0.704 0.439 0.704 0.921z"></path>
<path d="M11.825 19.292v-0.466h-0.157c-0.368 0-0.704 0.081-0.704 0.336 0 0.195 0.13 0.266 0.395 0.266 0.211 0 0.385-0.065 0.466-0.136zM12.621 18.279v1.425c-0.292 0.222-0.764 0.341-1.403 0.341-0.569 0-1.040-0.233-1.040-0.747 0-0.775 0.753-0.964 1.647-0.991-0.016-0.336-0.152-0.422-0.45-0.422-0.157 0-0.574 0.070-0.628 0.070-0.13 0-0.233-0.081-0.32-0.32l-0.065-0.195c0.336-0.125 0.666-0.211 1.024-0.211 0.78 0 1.235 0.292 1.235 1.051z"></path>
<path d="M15.604 18.057v1.928h-0.812v-1.641c0-0.287-0.19-0.433-0.52-0.433-0.125 0-0.244 0.016-0.347 0.043v2.031h-0.818l0.005-2.41c0.341-0.227 0.894-0.352 1.343-0.352 0.623 0 1.148 0.309 1.148 0.834z"></path>
<path d="M15.956 18.664c0-0.948 0.661-1.446 1.517-1.446 0.238 0 0.455 0.033 0.715 0.092-0.032 0.271-0.146 0.509-0.271 0.645-0.092-0.027-0.244-0.049-0.33-0.049-0.547 0-0.769 0.282-0.769 0.71 0 0.433 0.206 0.699 0.72 0.699 0.141 0 0.303-0.027 0.504-0.098l0.146 0.65c-0.298 0.119-0.607 0.173-0.85 0.173-0.834 0-1.381-0.498-1.381-1.376z"></path>
<path d="M20.354 18.626c0-0.444-0.217-0.704-0.596-0.704-0.368 0-0.596 0.26-0.596 0.704 0 0.466 0.222 0.71 0.596 0.71 0.379 0 0.596-0.244 0.596-0.71zM18.345 18.626c0-0.867 0.585-1.408 1.414-1.408 0.861 0 1.414 0.563 1.414 1.408 0 0.872-0.558 1.414-1.414 1.414-0.861 0-1.414-0.558-1.414-1.414z"></path>
<path d="M23.084 19.292v-0.466h-0.157c-0.368 0-0.704 0.081-0.704 0.336 0 0.195 0.13 0.266 0.395 0.266 0.211 0 0.385-0.065 0.466-0.136zM23.881 18.279v1.425c-0.293 0.222-0.764 0.341-1.403 0.341-0.569 0-1.040-0.233-1.040-0.747 0-0.775 0.753-0.964 1.647-0.991-0.016-0.336-0.152-0.422-0.45-0.422-0.157 0-0.574 0.070-0.628 0.070-0.13 0-0.233-0.081-0.32-0.32l-0.065-0.195c0.336-0.125 0.666-0.211 1.024-0.211 0.78 0 1.235 0.292 1.235 1.051z"></path>
<path d="M26.161 19.292v-1.338c-0.13-0.038-0.287-0.054-0.417-0.054-0.417 0-0.682 0.303-0.682 0.758s0.163 0.704 0.693 0.704c0.13 0 0.265-0.022 0.406-0.070zM26.979 17.575v2.259c0 0.71-0.32 1.235-1.322 1.235-0.395 0-0.726-0.054-0.986-0.157 0-0.254 0.027-0.455 0.114-0.596 0.352 0.070 0.585 0.108 0.872 0.108 0.363 0 0.504-0.125 0.504-0.444v-0.222c-0.222 0.152-0.498 0.255-0.775 0.255-0.813 0-1.137-0.488-1.137-1.322 0-0.878 0.639-1.473 1.527-1.473 0.466 0 0.84 0.092 1.202 0.358z"></path>
<path d="M29.093 17.927c-0.412 0-0.59 0.022-0.775 0.13v1.928h-0.818l0.005-2.41c0.39-0.244 0.709-0.352 1.154-0.352 0.292 0 0.439 0.054 0.558 0.103 0 0.238-0.022 0.45-0.125 0.601z"></path>
<path d="M29.749 16.8l0.477-0.899 0.168 0.076c0.298 0.135 0.336 0.255 0.325 0.368-0.005 0.065-0.049 0.238-0.314 0.466l-0.244 0.211-0.412-0.222zM29.608 17.299c0.119-0.049 0.26-0.076 0.417-0.076s0.287 0.027 0.401 0.076v2.687h-0.818v-2.687z"></path>
<path d="M30.886 18.664c0-0.948 0.661-1.446 1.517-1.446 0.238 0 0.455 0.033 0.715 0.092-0.033 0.271-0.146 0.509-0.271 0.645-0.092-0.027-0.244-0.049-0.33-0.049-0.547 0-0.769 0.282-0.769 0.71 0 0.433 0.206 0.699 0.72 0.699 0.141 0 0.303-0.027 0.504-0.098l0.146 0.65c-0.298 0.119-0.607 0.173-0.85 0.173-0.834 0-1.381-0.498-1.381-1.376z"></path>
<path d="M35.285 18.626c0-0.444-0.217-0.704-0.596-0.704-0.368 0-0.596 0.26-0.596 0.704 0 0.466 0.222 0.71 0.596 0.71 0.379 0 0.596-0.244 0.596-0.71zM33.275 18.626c0-0.867 0.585-1.408 1.414-1.408 0.861 0 1.414 0.563 1.414 1.408 0 0.872-0.558 1.414-1.414 1.414-0.861 0-1.414-0.558-1.414-1.414z"></path>
<path d="M36.563 16.508c0.189-0.141 0.601-0.26 0.818-0.26v3.737h-0.818v-3.477z"></path>
<path d="M39.483 19.292v-0.466h-0.157c-0.368 0-0.704 0.081-0.704 0.336 0 0.195 0.13 0.266 0.395 0.266 0.211 0 0.385-0.065 0.466-0.136zM40.279 18.279v1.425c-0.292 0.222-0.764 0.341-1.403 0.341-0.569 0-1.040-0.233-1.040-0.747 0-0.775 0.753-0.964 1.647-0.991-0.016-0.336-0.152-0.422-0.45-0.422-0.157 0-0.574 0.070-0.628 0.070-0.13 0-0.233-0.081-0.32-0.32l-0.065-0.195c0.336-0.125 0.666-0.211 1.024-0.211 0.78 0 1.235 0.292 1.235 1.051z"></path>
<path d="M9.628 24.053c0.136 0 0.258-0.012 0.356-0.038v-1.008c-0.098-0.053-0.216-0.089-0.335-0.089-0.373 0-0.504 0.252-0.504 0.634 0 0.355 0.204 0.501 0.483 0.501zM10.212 22.174v1.982c-0.139 0.062-0.359 0.092-0.596 0.092-0.477 0-0.702-0.311-0.702-0.708 0-0.519 0.252-0.824 0.643-0.824 0.184 0 0.332 0.053 0.427 0.125v-0.59c0.053-0.041 0.172-0.077 0.228-0.077z"></path>
<path d="M10.81 23.374h0.791v-0.030c0-0.305-0.151-0.459-0.379-0.459-0.219 0-0.379 0.139-0.412 0.489zM11.827 23.528h-1.022c0.006 0.326 0.166 0.53 0.471 0.53 0.157 0 0.335-0.035 0.453-0.089 0.036 0.039 0.059 0.089 0.068 0.175-0.136 0.056-0.323 0.107-0.557 0.107-0.421 0-0.67-0.285-0.67-0.723 0-0.519 0.267-0.812 0.676-0.812 0.367 0 0.599 0.252 0.599 0.658 0 0.056-0.006 0.101-0.018 0.154z"></path>
<path d="M12.203 22.251c0.053-0.041 0.169-0.077 0.228-0.077v2.045h-0.228v-1.968z"></path>
<path d="M15.116 23.306v0.649c-0.172 0.19-0.45 0.293-0.782 0.293-0.545 0-0.916-0.367-0.916-1.002 0-0.616 0.367-0.99 0.916-0.99 0.323 0 0.578 0.119 0.738 0.317-0.021 0.077-0.095 0.125-0.166 0.142-0.113-0.163-0.302-0.258-0.572-0.258-0.421 0-0.679 0.293-0.679 0.788 0 0.51 0.261 0.797 0.679 0.797 0.207 0 0.391-0.047 0.545-0.148v-0.548c0.062-0.059 0.157-0.068 0.237-0.041z"></path>
<path d="M16.15 22.933c-0.243 0-0.364 0.018-0.462 0.071v1.215h-0.228v-1.357c0.166-0.092 0.376-0.136 0.557-0.136 0.089 0 0.139 0.015 0.175 0.027 0 0.068-0.009 0.136-0.041 0.181z"></path>
<path d="M17.644 22.734v1.357c-0.113 0.080-0.439 0.136-0.622 0.136-0.347 0-0.569-0.128-0.569-0.483v-0.966c0.068-0.033 0.139-0.044 0.228-0.044v0.978c0 0.216 0.127 0.314 0.394 0.314 0.127 0 0.246-0.021 0.341-0.047v-1.203c0.062-0.033 0.151-0.041 0.228-0.041z"></path>
<path d="M19.107 23.466c0-0.308-0.172-0.548-0.581-0.548-0.083 0-0.169 0.012-0.258 0.033v1.040c0.089 0.033 0.199 0.059 0.317 0.059 0.323 0 0.522-0.172 0.522-0.584zM19.339 23.502c0 0.424-0.207 0.747-0.652 0.747-0.139 0-0.299-0.044-0.418-0.115v0.599c-0.047 0.045-0.16 0.077-0.228 0.077v-2.003c0.095-0.041 0.287-0.083 0.471-0.083 0.513 0 0.827 0.267 0.827 0.779z"></path>
<path d="M20.755 23.478c0-0.353-0.178-0.557-0.483-0.557-0.299 0-0.48 0.205-0.48 0.557 0 0.373 0.178 0.566 0.48 0.566 0.305 0 0.483-0.193 0.483-0.566zM19.558 23.478c0-0.462 0.287-0.762 0.714-0.762 0.436 0 0.714 0.305 0.714 0.762 0 0.477-0.281 0.77-0.714 0.77-0.436 0-0.714-0.302-0.714-0.77z"></path>
<path d="M22.901 23.628c0-0.158-0.101-0.223-0.301-0.223h-0.238v0.447h0.235c0.194 0 0.304-0.077 0.304-0.223zM22.552 22.621c-0.063 0-0.128 0.006-0.191 0.015v0.396h0.202c0.179 0 0.262-0.074 0.262-0.202 0-0.122-0.086-0.209-0.274-0.209zM23.389 23.648c0 0.349-0.351 0.581-0.751 0.581h-0.733v-1.924c0.244-0.036 0.429-0.060 0.646-0.060 0.402 0 0.724 0.188 0.724 0.515 0 0.188-0.098 0.313-0.274 0.381 0.271 0.077 0.387 0.241 0.387 0.506z"></path>
<path d="M24.439 23.848v-0.256h-0.087c-0.202 0-0.387 0.045-0.387 0.185 0 0.107 0.071 0.146 0.217 0.146 0.116 0 0.211-0.036 0.256-0.074zM24.876 23.291v0.783c-0.161 0.122-0.42 0.188-0.771 0.188-0.313 0-0.572-0.128-0.572-0.411 0-0.426 0.414-0.53 0.905-0.545-0.009-0.185-0.084-0.232-0.247-0.232-0.087 0-0.316 0.039-0.345 0.039-0.072 0-0.128-0.045-0.176-0.176l-0.036-0.107c0.185-0.068 0.366-0.116 0.563-0.116 0.429 0 0.679 0.161 0.679 0.578z"></path>
<path d="M26.516 23.169v1.060h-0.447v-0.903c0-0.158-0.104-0.238-0.286-0.238-0.069 0-0.134 0.009-0.191 0.024v1.117h-0.45l0.003-1.325c0.188-0.125 0.491-0.194 0.739-0.194 0.343 0 0.631 0.17 0.631 0.459z"></path>
<path d="M26.71 23.502c0-0.521 0.363-0.795 0.834-0.795 0.131 0 0.25 0.018 0.393 0.051-0.018 0.149-0.081 0.28-0.149 0.355-0.051-0.015-0.134-0.027-0.182-0.027-0.301 0-0.423 0.155-0.423 0.39 0 0.238 0.113 0.384 0.396 0.384 0.077 0 0.167-0.015 0.277-0.054l0.081 0.357c-0.164 0.065-0.334 0.095-0.468 0.095-0.459 0-0.759-0.274-0.759-0.757z"></path>
<path d="M29.129 23.482c0-0.244-0.119-0.387-0.328-0.387-0.202 0-0.328 0.143-0.328 0.387 0 0.256 0.122 0.39 0.328 0.39 0.209 0 0.328-0.134 0.328-0.39zM28.023 23.482c0-0.477 0.322-0.774 0.777-0.774 0.474 0 0.777 0.31 0.777 0.774 0 0.479-0.307 0.777-0.777 0.777-0.474 0-0.777-0.307-0.777-0.777z"></path>
<path d="M29.831 22.317c0.104-0.078 0.33-0.143 0.45-0.143v2.055h-0.45v-1.912z"></path>
<path d="M31.639 23.482c0-0.244-0.119-0.387-0.328-0.387-0.202 0-0.328 0.143-0.328 0.387 0 0.256 0.122 0.39 0.328 0.39 0.209 0 0.328-0.134 0.328-0.39zM30.534 23.482c0-0.477 0.322-0.774 0.777-0.774 0.474 0 0.777 0.31 0.777 0.774 0 0.479-0.307 0.777-0.777 0.777-0.474 0-0.777-0.307-0.777-0.777z"></path>
<path d="M34.594 23.169v1.060h-0.444v-0.903c0-0.158-0.101-0.238-0.28-0.238-0.083 0-0.164 0.018-0.229 0.045 0.024 0.066 0.036 0.137 0.036 0.215v0.882h-0.444v-0.903c0-0.158-0.101-0.238-0.28-0.238-0.068 0-0.134 0.009-0.191 0.024v1.117h-0.45l0.003-1.325c0.179-0.125 0.459-0.194 0.694-0.194 0.188 0 0.349 0.062 0.465 0.164 0.152-0.098 0.363-0.164 0.542-0.164 0.324 0 0.578 0.173 0.578 0.459z"></path>
<path d="M35.955 23.461c0-0.274-0.143-0.372-0.372-0.372-0.092 0-0.167 0.018-0.232 0.048v0.747c0.080 0.012 0.158 0.018 0.229 0.018 0.262 0 0.375-0.202 0.375-0.441zM36.399 23.404c0 0.542-0.322 0.855-0.846 0.855-0.256 0-0.503-0.048-0.652-0.116v-1.826c0.104-0.078 0.334-0.143 0.45-0.143v0.706c0.128-0.11 0.283-0.17 0.423-0.17 0.444 0 0.625 0.307 0.625 0.694z"></path>
<path d="M36.652 22.752c0.062-0.027 0.14-0.042 0.226-0.042s0.161 0.015 0.223 0.042v1.477h-0.45v-1.477zM36.646 22.281c0-0.125 0.104-0.229 0.229-0.229 0.128 0 0.232 0.101 0.232 0.229 0 0.122-0.104 0.229-0.232 0.229-0.125 0-0.229-0.101-0.229-0.229z"></path>
<path d="M38.23 23.848v-0.256h-0.087c-0.202 0-0.387 0.045-0.387 0.185 0 0.107 0.072 0.146 0.217 0.146 0.116 0 0.211-0.036 0.256-0.074zM38.668 23.291v0.783c-0.161 0.122-0.42 0.188-0.771 0.188-0.313 0-0.572-0.128-0.572-0.411 0-0.426 0.414-0.53 0.906-0.545-0.009-0.185-0.083-0.232-0.247-0.232-0.086 0-0.316 0.039-0.345 0.039-0.072 0-0.128-0.045-0.176-0.176l-0.036-0.107c0.185-0.068 0.366-0.116 0.563-0.116 0.429 0 0.679 0.161 0.679 0.578z"></path>
</svg>
