<svg version="1.1" xmlns="http://www.w3.org/2000/svg" width="48" height="32" viewBox="0 0 48 32">
<title>brand-BancadeInversion-secundario-positivo</title>
<path d="M26.308 10.872c-1.089 0.263-2.155 0.59-3.21 0.965-0.151 0.057-0.315-0.017-0.354-0.162-0.085-0.308-0.16-0.546-0.244-0.853-0.035-0.129 0.040-0.269 0.174-0.318 1.055-0.36 2.121-0.643 3.211-0.878 0.12-0.025 0.247 0.064 0.29 0.199 0.088 0.276 0.165 0.497 0.251 0.774 0.039 0.125-0.013 0.247-0.117 0.272zM20.845 10.283c-0.065-0.332-0.13-0.581-0.193-0.912-0.025-0.129 0.046-0.276 0.163-0.331 1.612-0.708 3.312-1.137 5.058-1.358 0.115-0.015 0.231 0.070 0.274 0.197 0.092 0.273 0.171 0.493 0.26 0.767 0.043 0.132-0.014 0.261-0.127 0.279-1.775 0.283-3.505 0.757-5.143 1.501-0.131 0.064-0.265-0.002-0.292-0.143zM21.63 6.514c1.080-0.311 2.157-0.512 3.272-0.649 0.122-0.013 0.241 0.066 0.285 0.185 0.104 0.282 0.188 0.507 0.289 0.791 0.048 0.135-0.023 0.269-0.154 0.286-1.141 0.168-2.247 0.399-3.35 0.736-0.134 0.044-0.267-0.023-0.301-0.154-0.080-0.31-0.153-0.548-0.232-0.856-0.035-0.139 0.051-0.295 0.192-0.339zM23.761 3.922c-2.721 0-4.927 2.206-4.927 4.927s2.206 4.927 4.927 4.927c2.721 0 4.927-2.206 4.927-4.927s-2.206-4.927-4.927-4.927z"></path>
<path d="M18.339 17.738c0-0.298-0.191-0.421-0.567-0.421h-0.449v0.842h0.444c0.365 0 0.573-0.146 0.573-0.421zM17.682 15.839c-0.118 0-0.241 0.011-0.359 0.028v0.747h0.382c0.337 0 0.494-0.14 0.494-0.382 0-0.23-0.163-0.393-0.517-0.393zM19.26 17.777c0 0.657-0.663 1.095-1.415 1.095h-1.382v-3.628c0.46-0.067 0.809-0.112 1.219-0.112 0.758 0 1.365 0.354 1.365 0.972 0 0.354-0.185 0.59-0.517 0.719 0.511 0.146 0.73 0.455 0.73 0.955z"></path>
<path d="M21.247 18.153v-0.483h-0.163c-0.382 0-0.73 0.084-0.73 0.348 0 0.202 0.135 0.275 0.41 0.275 0.219 0 0.399-0.067 0.483-0.14zM22.073 17.103v1.477c-0.303 0.23-0.792 0.354-1.455 0.354-0.59 0-1.078-0.241-1.078-0.775 0-0.803 0.781-1 1.707-1.028-0.017-0.348-0.157-0.438-0.466-0.438-0.163 0-0.595 0.073-0.651 0.073-0.135 0-0.242-0.084-0.331-0.331l-0.067-0.202c0.348-0.129 0.691-0.219 1.062-0.219 0.809 0 1.281 0.303 1.281 1.090z"></path>
<path d="M29.775 18.153v-0.483h-0.163c-0.382 0-0.73 0.084-0.73 0.348 0 0.202 0.135 0.275 0.41 0.275 0.219 0 0.399-0.067 0.483-0.14zM30.601 17.103v1.477c-0.303 0.23-0.792 0.354-1.455 0.354-0.59 0-1.078-0.241-1.078-0.775 0-0.803 0.781-1 1.707-1.028-0.017-0.348-0.157-0.438-0.466-0.438-0.163 0-0.595 0.073-0.651 0.073-0.135 0-0.242-0.084-0.331-0.331l-0.067-0.202c0.348-0.129 0.691-0.219 1.061-0.219 0.809 0 1.281 0.303 1.281 1.090z"></path>
<path d="M25.158 16.873v1.999h-0.842v-1.702c0-0.298-0.197-0.449-0.539-0.449-0.129 0-0.253 0.017-0.359 0.045v2.106h-0.848l0.006-2.499c0.354-0.236 0.927-0.365 1.393-0.365 0.646 0 1.191 0.32 1.191 0.865z"></path>
<path d="M25.523 17.502c0-0.983 0.685-1.5 1.572-1.5 0.247 0 0.472 0.034 0.741 0.096-0.034 0.281-0.152 0.528-0.281 0.668-0.095-0.028-0.253-0.051-0.343-0.051-0.567 0-0.797 0.292-0.797 0.736 0 0.449 0.213 0.725 0.747 0.725 0.146 0 0.315-0.028 0.522-0.101l0.152 0.674c-0.309 0.124-0.629 0.18-0.882 0.18-0.865 0-1.432-0.517-1.432-1.427z"></path>
<path d="M10.916 22.944v-1.415c-0.118-0.050-0.258-0.084-0.427-0.084-0.483 0-0.713 0.264-0.713 0.865 0 0.416 0.247 0.674 0.68 0.674 0.152 0 0.309-0.011 0.46-0.039zM11.764 19.726v3.707c-0.303 0.146-0.769 0.225-1.275 0.225-0.989 0-1.556-0.489-1.556-1.404 0-0.927 0.55-1.522 1.269-1.522 0.298 0 0.534 0.084 0.713 0.23v-0.966c0.197-0.146 0.635-0.27 0.848-0.27z"></path>
<path d="M13.107 21.889h0.927v-0.006c0-0.371-0.185-0.59-0.438-0.59s-0.432 0.152-0.489 0.595zM14.882 22.383h-1.786c0.045 0.393 0.247 0.618 0.646 0.618 0.32 0 0.635-0.056 0.876-0.135 0.118 0.129 0.191 0.298 0.213 0.607-0.326 0.118-0.702 0.197-1.208 0.197-0.814 0-1.382-0.477-1.382-1.376 0-0.944 0.556-1.561 1.41-1.561 0.769 0 1.264 0.494 1.264 1.292 0 0.129-0.011 0.225-0.034 0.359z"></path>
<path d="M16.207 23.601v-3.673c0.236-0.045 0.623-0.045 0.859 0v3.673h-0.859z"></path>
<path d="M20.341 21.602v1.999h-0.842v-1.702c0-0.298-0.197-0.449-0.539-0.449-0.129 0-0.253 0.017-0.359 0.045v2.106h-0.848l0.006-2.499c0.354-0.236 0.927-0.365 1.393-0.365 0.646 0 1.191 0.32 1.191 0.865z"></path>
<path d="M23.498 20.799l-1.034 2.792c-0.152 0.039-0.286 0.056-0.433 0.056-0.152 0-0.292-0.017-0.432-0.056l-1.039-2.803c0.281-0.056 0.573-0.062 0.865 0l0.606 1.87 0.607-1.859c0.292-0.062 0.579-0.062 0.859 0z"></path>
<path d="M24.442 21.889h0.927v-0.006c0-0.371-0.185-0.59-0.438-0.59s-0.433 0.152-0.489 0.595zM26.217 22.383h-1.786c0.045 0.393 0.247 0.618 0.646 0.618 0.32 0 0.635-0.056 0.876-0.135 0.118 0.129 0.191 0.298 0.213 0.607-0.326 0.118-0.702 0.197-1.207 0.197-0.814 0-1.382-0.477-1.382-1.376 0-0.944 0.556-1.561 1.41-1.561 0.769 0 1.264 0.494 1.264 1.292 0 0.129-0.011 0.225-0.034 0.359z"></path>
<path d="M28.379 21.467c-0.427 0-0.612 0.022-0.803 0.135v1.999h-0.848l0.006-2.499c0.404-0.253 0.736-0.365 1.196-0.365 0.303 0 0.455 0.056 0.579 0.107 0 0.247-0.023 0.466-0.129 0.623z"></path>
<path d="M29.508 23.012c0.213 0 0.41-0.079 0.41-0.219s-0.129-0.208-0.438-0.292c-0.506-0.129-0.769-0.433-0.769-0.826 0-0.64 0.522-0.96 1.292-0.96 0.275 0 0.595 0.062 0.725 0.118 0 0.214-0.079 0.506-0.202 0.668-0.185-0.067-0.365-0.107-0.517-0.107-0.275 0-0.449 0.067-0.449 0.219 0 0.112 0.14 0.208 0.416 0.303 0.539 0.18 0.815 0.365 0.815 0.797 0 0.64-0.483 0.955-1.269 0.955-0.292 0-0.466-0.023-0.781-0.073-0.034-0.118-0.051-0.236-0.051-0.359 0-0.146 0.023-0.27 0.067-0.376 0.309 0.101 0.556 0.152 0.753 0.152z"></path>
<path d="M31.294 20.816c0.118-0.050 0.264-0.079 0.427-0.079s0.303 0.028 0.421 0.079v2.786h-0.848v-2.786zM31.283 19.928c0-0.236 0.197-0.433 0.432-0.433 0.242 0 0.438 0.191 0.438 0.433 0 0.23-0.196 0.432-0.438 0.432-0.236 0-0.432-0.191-0.432-0.432z"></path>
<path d="M33.839 20.299l0.494-0.932 0.174 0.079c0.309 0.14 0.348 0.264 0.337 0.382-0.006 0.067-0.051 0.247-0.326 0.483l-0.253 0.219-0.427-0.23zM34.737 22.192c0-0.461-0.225-0.73-0.618-0.73-0.382 0-0.618 0.27-0.618 0.73 0 0.483 0.23 0.736 0.618 0.736 0.393 0 0.618-0.253 0.618-0.736zM32.654 22.192c0-0.899 0.607-1.46 1.466-1.46 0.893 0 1.466 0.584 1.466 1.46 0 0.904-0.579 1.466-1.466 1.466-0.893 0-1.466-0.579-1.466-1.466z"></path>
<path d="M38.596 21.602v1.999h-0.842v-1.702c0-0.298-0.197-0.449-0.539-0.449-0.129 0-0.253 0.017-0.36 0.045v2.106h-0.848l0.006-2.499c0.354-0.236 0.927-0.365 1.393-0.365 0.646 0 1.191 0.32 1.191 0.865z"></path>
<path d="M9.706 27.28c0.136 0 0.258-0.012 0.356-0.039v-1.007c-0.098-0.053-0.216-0.089-0.335-0.089-0.373 0-0.504 0.252-0.504 0.634 0 0.355 0.204 0.501 0.483 0.501zM10.29 25.401v1.982c-0.139 0.062-0.359 0.092-0.596 0.092-0.477 0-0.702-0.311-0.702-0.708 0-0.519 0.252-0.824 0.643-0.824 0.184 0 0.332 0.053 0.427 0.124v-0.59c0.053-0.041 0.172-0.077 0.228-0.077z"></path>
<path d="M10.888 26.601h0.791v-0.030c0-0.305-0.151-0.459-0.379-0.459-0.219 0-0.379 0.139-0.412 0.489zM11.904 26.756h-1.022c0.006 0.326 0.166 0.53 0.471 0.53 0.157 0 0.335-0.035 0.453-0.089 0.036 0.039 0.059 0.089 0.068 0.175-0.136 0.056-0.323 0.107-0.557 0.107-0.421 0-0.67-0.284-0.67-0.723 0-0.519 0.267-0.812 0.676-0.812 0.367 0 0.598 0.252 0.598 0.658 0 0.056-0.006 0.101-0.018 0.154z"></path>
<path d="M12.281 25.478c0.053-0.041 0.169-0.077 0.228-0.077v2.044h-0.228v-1.967z"></path>
<path d="M15.193 26.533v0.649c-0.172 0.189-0.45 0.293-0.782 0.293-0.545 0-0.916-0.367-0.916-1.002 0-0.616 0.367-0.989 0.916-0.989 0.323 0 0.578 0.119 0.738 0.317-0.021 0.077-0.095 0.124-0.166 0.142-0.113-0.163-0.302-0.258-0.572-0.258-0.421 0-0.679 0.293-0.679 0.788 0 0.51 0.261 0.797 0.679 0.797 0.207 0 0.391-0.047 0.545-0.148v-0.548c0.062-0.059 0.157-0.068 0.237-0.041z"></path>
<path d="M16.227 26.16c-0.243 0-0.364 0.018-0.462 0.071v1.215h-0.228v-1.357c0.166-0.092 0.376-0.136 0.557-0.136 0.089 0 0.139 0.015 0.175 0.027 0 0.068-0.009 0.136-0.041 0.181z"></path>
<path d="M17.721 25.961v1.357c-0.113 0.080-0.439 0.136-0.622 0.136-0.347 0-0.569-0.127-0.569-0.483v-0.966c0.068-0.033 0.139-0.045 0.228-0.045v0.978c0 0.216 0.127 0.314 0.394 0.314 0.127 0 0.246-0.021 0.341-0.047v-1.203c0.062-0.033 0.151-0.041 0.228-0.041z"></path>
<path d="M19.184 26.693c0-0.308-0.172-0.548-0.581-0.548-0.083 0-0.169 0.012-0.258 0.033v1.040c0.089 0.033 0.199 0.059 0.317 0.059 0.323 0 0.521-0.172 0.521-0.584zM19.415 26.729c0 0.424-0.207 0.747-0.652 0.747-0.139 0-0.299-0.044-0.418-0.116v0.599c-0.047 0.045-0.16 0.077-0.228 0.077v-2.003c0.095-0.041 0.287-0.083 0.471-0.083 0.513 0 0.827 0.267 0.827 0.779z"></path>
<path d="M20.832 26.705c0-0.353-0.178-0.557-0.483-0.557-0.299 0-0.48 0.204-0.48 0.557 0 0.373 0.178 0.566 0.48 0.566 0.305 0 0.483-0.193 0.483-0.566zM19.635 26.705c0-0.462 0.287-0.761 0.714-0.761 0.436 0 0.714 0.305 0.714 0.761 0 0.477-0.281 0.77-0.714 0.77-0.436 0-0.714-0.302-0.714-0.77z"></path>
<path d="M22.968 26.847c0-0.157-0.101-0.222-0.299-0.222h-0.237v0.444h0.234c0.193 0 0.302-0.077 0.302-0.222zM22.622 25.846c-0.062 0-0.127 0.006-0.189 0.015v0.394h0.201c0.178 0 0.261-0.074 0.261-0.201 0-0.121-0.086-0.207-0.273-0.207zM23.454 26.868c0 0.347-0.35 0.578-0.746 0.578h-0.729v-1.914c0.243-0.035 0.427-0.059 0.643-0.059 0.4 0 0.72 0.187 0.72 0.513 0 0.187-0.098 0.311-0.273 0.379 0.27 0.077 0.385 0.24 0.385 0.504z"></path>
<path d="M24.498 27.067v-0.255h-0.086c-0.201 0-0.385 0.044-0.385 0.184 0 0.107 0.071 0.145 0.216 0.145 0.115 0 0.21-0.035 0.255-0.074zM24.934 26.512v0.779c-0.16 0.121-0.418 0.187-0.767 0.187-0.311 0-0.569-0.127-0.569-0.409 0-0.424 0.412-0.527 0.901-0.542-0.009-0.184-0.083-0.231-0.246-0.231-0.086 0-0.314 0.039-0.344 0.039-0.071 0-0.127-0.045-0.175-0.175l-0.035-0.107c0.184-0.068 0.364-0.116 0.56-0.116 0.427 0 0.675 0.16 0.675 0.575z"></path>
<path d="M26.565 26.391v1.055h-0.445v-0.898c0-0.157-0.104-0.237-0.284-0.237-0.068 0-0.133 0.009-0.19 0.024v1.111h-0.447l0.003-1.318c0.187-0.125 0.489-0.193 0.735-0.193 0.341 0 0.628 0.169 0.628 0.456z"></path>
<path d="M26.758 26.723c0-0.519 0.361-0.791 0.83-0.791 0.13 0 0.249 0.018 0.391 0.050-0.018 0.148-0.080 0.279-0.148 0.353-0.050-0.015-0.133-0.027-0.181-0.027-0.299 0-0.421 0.154-0.421 0.388 0 0.237 0.113 0.382 0.394 0.382 0.077 0 0.166-0.015 0.276-0.053l0.080 0.355c-0.163 0.065-0.332 0.095-0.465 0.095-0.456 0-0.756-0.273-0.756-0.753z"></path>
<path d="M29.164 26.702c0-0.243-0.119-0.385-0.326-0.385-0.201 0-0.326 0.142-0.326 0.385 0 0.255 0.121 0.388 0.326 0.388 0.207 0 0.326-0.133 0.326-0.388zM28.065 26.702c0-0.474 0.32-0.77 0.773-0.77 0.471 0 0.773 0.308 0.773 0.77 0 0.477-0.305 0.773-0.773 0.773-0.471 0-0.773-0.305-0.773-0.773z"></path>
<path d="M29.863 25.544c0.104-0.077 0.329-0.142 0.447-0.142v2.044h-0.447v-1.902z"></path>
<path d="M31.662 26.702c0-0.243-0.119-0.385-0.326-0.385-0.201 0-0.326 0.142-0.326 0.385 0 0.255 0.121 0.388 0.326 0.388 0.207 0 0.326-0.133 0.326-0.388zM30.563 26.702c0-0.474 0.32-0.77 0.773-0.77 0.471 0 0.773 0.308 0.773 0.77 0 0.477-0.305 0.773-0.773 0.773-0.471 0-0.773-0.305-0.773-0.773z"></path>
<path d="M34.601 26.391v1.055h-0.441v-0.898c0-0.157-0.101-0.237-0.279-0.237-0.083 0-0.163 0.018-0.228 0.044 0.024 0.065 0.036 0.136 0.036 0.213v0.877h-0.442v-0.898c0-0.157-0.101-0.237-0.278-0.237-0.068 0-0.133 0.009-0.19 0.024v1.111h-0.447l0.003-1.318c0.178-0.125 0.456-0.193 0.69-0.193 0.187 0 0.347 0.062 0.462 0.163 0.151-0.098 0.361-0.163 0.539-0.163 0.323 0 0.575 0.172 0.575 0.456z"></path>
<path d="M35.955 26.681c0-0.273-0.142-0.37-0.371-0.37-0.092 0-0.166 0.018-0.231 0.047v0.744c0.080 0.012 0.157 0.018 0.228 0.018 0.261 0 0.374-0.201 0.374-0.439zM36.396 26.625c0 0.539-0.32 0.85-0.841 0.85-0.255 0-0.501-0.047-0.649-0.116v-1.816c0.104-0.077 0.332-0.142 0.447-0.142v0.702c0.127-0.11 0.282-0.169 0.421-0.169 0.442 0 0.622 0.305 0.622 0.69z"></path>
<path d="M36.649 25.976c0.062-0.027 0.139-0.041 0.225-0.041s0.16 0.015 0.222 0.041v1.469h-0.447v-1.469zM36.643 25.508c0-0.124 0.104-0.228 0.228-0.228 0.127 0 0.231 0.101 0.231 0.228 0 0.122-0.104 0.228-0.231 0.228-0.124 0-0.228-0.101-0.228-0.228z"></path>
<path d="M38.219 27.067v-0.255h-0.086c-0.201 0-0.385 0.044-0.385 0.184 0 0.107 0.071 0.145 0.216 0.145 0.115 0 0.21-0.035 0.255-0.074zM38.654 26.512v0.779c-0.16 0.121-0.418 0.187-0.767 0.187-0.311 0-0.569-0.127-0.569-0.409 0-0.424 0.412-0.527 0.901-0.542-0.009-0.184-0.083-0.231-0.246-0.231-0.086 0-0.314 0.039-0.344 0.039-0.071 0-0.127-0.045-0.175-0.175l-0.035-0.107c0.184-0.068 0.364-0.116 0.56-0.116 0.427 0 0.675 0.16 0.675 0.575z"></path>
</svg>
