<svg version="1.1" xmlns="http://www.w3.org/2000/svg" width="48" height="32" viewBox="0 0 48 32">
<title>brand-BancoAgricola-secundario-positivo</title>
<path d="M20.515 11.67c0.049 0.188 0.239 0.285 0.433 0.222 1.588-0.485 3.18-0.816 4.823-1.057 0.188-0.025 0.291-0.218 0.222-0.412-0.146-0.408-0.22-0.611-0.369-1.017-0.063-0.172-0.234-0.285-0.41-0.266-1.605 0.196-3.156 0.486-4.711 0.933-0.202 0.063-0.327 0.288-0.276 0.487 0.113 0.444 0.171 0.666 0.286 1.111z"></path>
<path d="M26.951 11.893c-0.061-0.182-0.229-0.304-0.394-0.283-2.513 0.318-4.96 0.934-7.281 1.952-0.169 0.079-0.271 0.29-0.235 0.477 0.091 0.476 0.137 0.714 0.23 1.191 0.040 0.204 0.232 0.298 0.421 0.206 2.357-1.070 4.848-1.752 7.403-2.158 0.163-0.026 0.245-0.211 0.183-0.401-0.129-0.394-0.194-0.591-0.327-0.983z"></path>
<path d="M26.944 14.55c-0.062-0.195-0.244-0.322-0.417-0.286-1.569 0.338-3.103 0.744-4.622 1.262-0.193 0.070-0.301 0.272-0.251 0.457 0.121 0.442 0.182 0.663 0.304 1.106 0.057 0.208 0.293 0.315 0.51 0.233 1.519-0.539 3.053-1.010 4.621-1.388 0.15-0.036 0.224-0.211 0.168-0.392-0.123-0.398-0.186-0.596-0.313-0.992z"></path>
<path d="M8.985 20.798c0-0.287-0.184-0.406-0.546-0.406h-0.433v0.812h0.427c0.352 0 0.552-0.141 0.552-0.406zM8.352 18.969c-0.114 0-0.233 0.011-0.346 0.027v0.72h0.368c0.325 0 0.476-0.135 0.476-0.368 0-0.222-0.157-0.379-0.498-0.379zM9.872 20.836c0 0.633-0.639 1.055-1.364 1.055h-1.331v-3.496c0.444-0.065 0.779-0.108 1.174-0.108 0.73 0 1.315 0.341 1.315 0.936 0 0.341-0.179 0.568-0.498 0.693 0.492 0.141 0.703 0.438 0.703 0.92z"></path>
<path d="M11.779 21.199v-0.465h-0.157c-0.368 0-0.703 0.081-0.703 0.335 0 0.195 0.13 0.265 0.395 0.265 0.211 0 0.384-0.065 0.465-0.135zM12.574 20.187v1.423c-0.292 0.222-0.763 0.341-1.401 0.341-0.568 0-1.039-0.233-1.039-0.747 0-0.774 0.752-0.963 1.645-0.99-0.016-0.335-0.152-0.422-0.449-0.422-0.157 0-0.574 0.070-0.628 0.070-0.13 0-0.233-0.081-0.319-0.319l-0.065-0.195c0.335-0.124 0.666-0.211 1.023-0.211 0.779 0 1.234 0.292 1.234 1.050z"></path>
<path d="M15.554 19.965v1.926h-0.812v-1.64c0-0.287-0.189-0.433-0.519-0.433-0.124 0-0.243 0.016-0.346 0.043v2.029h-0.817l0.005-2.408c0.341-0.227 0.893-0.352 1.342-0.352 0.622 0 1.147 0.308 1.147 0.833z"></path>
<path d="M15.906 20.571c0-0.947 0.66-1.445 1.515-1.445 0.238 0 0.455 0.032 0.714 0.092-0.032 0.271-0.146 0.509-0.271 0.644-0.092-0.027-0.244-0.049-0.33-0.049-0.547 0-0.768 0.281-0.768 0.709 0 0.433 0.206 0.698 0.72 0.698 0.141 0 0.303-0.027 0.503-0.097l0.146 0.649c-0.298 0.119-0.606 0.173-0.849 0.173-0.833 0-1.38-0.498-1.38-1.374z"></path>
<path d="M20.3 20.533c0-0.444-0.216-0.703-0.595-0.703-0.368 0-0.595 0.26-0.595 0.703 0 0.465 0.222 0.709 0.595 0.709 0.379 0 0.595-0.243 0.595-0.709zM18.292 20.533c0-0.866 0.584-1.407 1.412-1.407 0.86 0 1.412 0.563 1.412 1.407 0 0.871-0.557 1.412-1.412 1.412-0.86 0-1.412-0.557-1.412-1.412z"></path>
<path d="M23.027 21.199v-0.465h-0.157c-0.368 0-0.703 0.081-0.703 0.335 0 0.195 0.13 0.265 0.395 0.265 0.211 0 0.384-0.065 0.465-0.135zM23.822 20.187v1.423c-0.292 0.222-0.763 0.341-1.401 0.341-0.568 0-1.039-0.233-1.039-0.747 0-0.774 0.752-0.963 1.645-0.99-0.016-0.335-0.152-0.422-0.449-0.422-0.157 0-0.574 0.070-0.628 0.070-0.13 0-0.233-0.081-0.319-0.319l-0.065-0.195c0.335-0.124 0.666-0.211 1.023-0.211 0.779 0 1.234 0.292 1.234 1.050z"></path>
<path d="M26.101 21.199v-1.337c-0.13-0.038-0.287-0.054-0.417-0.054-0.417 0-0.682 0.303-0.682 0.758s0.162 0.704 0.693 0.704c0.13 0 0.265-0.022 0.406-0.070zM26.918 19.483v2.256c0 0.709-0.319 1.234-1.32 1.234-0.395 0-0.725-0.054-0.985-0.157 0-0.254 0.027-0.455 0.114-0.595 0.352 0.070 0.584 0.108 0.871 0.108 0.362 0 0.503-0.125 0.503-0.444v-0.222c-0.222 0.151-0.498 0.254-0.774 0.254-0.812 0-1.136-0.487-1.136-1.32 0-0.877 0.638-1.472 1.526-1.472 0.465 0 0.839 0.092 1.201 0.357z"></path>
<path d="M29.030 19.835c-0.411 0-0.59 0.022-0.774 0.13v1.926h-0.817l0.005-2.408c0.39-0.243 0.709-0.352 1.153-0.352 0.292 0 0.438 0.054 0.557 0.103 0 0.238-0.022 0.449-0.124 0.601z"></path>
<path d="M29.685 18.71l0.476-0.898 0.168 0.076c0.297 0.135 0.335 0.254 0.325 0.368-0.005 0.065-0.049 0.238-0.314 0.465l-0.244 0.211-0.411-0.222zM29.544 19.207c0.119-0.049 0.26-0.076 0.417-0.076s0.287 0.027 0.401 0.076v2.684h-0.817v-2.684z"></path>
<path d="M30.821 20.571c0-0.947 0.66-1.445 1.515-1.445 0.238 0 0.455 0.032 0.714 0.092-0.032 0.271-0.146 0.509-0.27 0.644-0.092-0.027-0.244-0.049-0.33-0.049-0.547 0-0.768 0.281-0.768 0.709 0 0.433 0.206 0.698 0.72 0.698 0.141 0 0.303-0.027 0.503-0.097l0.146 0.649c-0.297 0.119-0.606 0.173-0.849 0.173-0.833 0-1.38-0.498-1.38-1.374z"></path>
<path d="M35.215 20.533c0-0.444-0.216-0.703-0.595-0.703-0.368 0-0.595 0.26-0.595 0.703 0 0.465 0.222 0.709 0.595 0.709 0.379 0 0.595-0.243 0.595-0.709zM33.207 20.533c0-0.866 0.584-1.407 1.412-1.407 0.86 0 1.412 0.563 1.412 1.407 0 0.871-0.557 1.412-1.412 1.412-0.86 0-1.412-0.557-1.412-1.412z"></path>
<path d="M36.492 18.417c0.189-0.141 0.601-0.26 0.817-0.26v3.734h-0.817v-3.474z"></path>
<path d="M39.408 21.199v-0.465h-0.157c-0.368 0-0.703 0.081-0.703 0.335 0 0.195 0.13 0.265 0.395 0.265 0.211 0 0.384-0.065 0.465-0.135zM40.204 20.187v1.423c-0.292 0.222-0.763 0.341-1.402 0.341-0.568 0-1.039-0.233-1.039-0.747 0-0.774 0.752-0.963 1.645-0.99-0.016-0.335-0.151-0.422-0.449-0.422-0.157 0-0.574 0.070-0.628 0.070-0.13 0-0.233-0.081-0.319-0.319l-0.065-0.195c0.336-0.124 0.666-0.211 1.023-0.211 0.779 0 1.234 0.292 1.234 1.050z"></path>
</svg>
