<svg version="1.1" xmlns="http://www.w3.org/2000/svg" width="115" height="32" viewBox="0 0 115 32">
<title>brand-Bancolombia-filiales-cayman-primario-positivo</title>
<path d="M13.664 9.775c0.066 0.256 0.325 0.387 0.588 0.301 2.157-0.658 4.318-1.108 6.549-1.436 0.256-0.034 0.396-0.296 0.302-0.559-0.198-0.554-0.298-0.83-0.501-1.381-0.086-0.234-0.318-0.387-0.556-0.362-2.18 0.266-4.286 0.66-6.397 1.266-0.275 0.086-0.444 0.391-0.374 0.661 0.154 0.603 0.232 0.905 0.389 1.509z"></path>
<path d="M22.404 10.078c-0.084-0.248-0.311-0.413-0.535-0.384-3.413 0.431-6.736 1.268-9.887 2.65-0.23 0.108-0.368 0.395-0.319 0.647 0.123 0.646 0.186 0.97 0.312 1.617 0.054 0.277 0.315 0.404 0.572 0.28 3.201-1.454 6.583-2.379 10.053-2.931 0.221-0.036 0.333-0.286 0.249-0.545-0.175-0.535-0.264-0.802-0.444-1.335z"></path>
<path d="M22.394 13.687c-0.085-0.264-0.332-0.437-0.567-0.389-2.131 0.458-4.214 1.011-6.277 1.714-0.262 0.095-0.409 0.369-0.34 0.621 0.164 0.6 0.246 0.9 0.413 1.502 0.078 0.283 0.398 0.427 0.693 0.316 2.063-0.732 4.146-1.372 6.275-1.885 0.204-0.049 0.305-0.287 0.229-0.532-0.168-0.54-0.253-0.81-0.425-1.348z"></path>
<path d="M30.53 13.095c0-0.727-0.466-1.028-1.385-1.028h-1.097v2.057h1.083c0.891 0 1.399-0.357 1.399-1.029zM28.925 8.46c-0.288 0-0.59 0.027-0.878 0.069v1.824h0.933c0.823 0 1.207-0.343 1.207-0.933 0-0.562-0.398-0.96-1.262-0.96zM32.779 13.191c0 1.604-1.618 2.674-3.456 2.674h-3.374v-8.859c1.125-0.165 1.975-0.274 2.976-0.274 1.851 0 3.332 0.864 3.332 2.372 0 0.864-0.453 1.44-1.262 1.755 1.248 0.357 1.783 1.111 1.783 2.331z"></path>
<path d="M37.611 14.11v-1.179h-0.398c-0.933 0-1.783 0.206-1.783 0.85 0 0.494 0.329 0.672 1.001 0.672 0.535 0 0.974-0.165 1.179-0.343zM39.627 11.545v3.607c-0.741 0.562-1.934 0.864-3.552 0.864-1.44 0-2.633-0.59-2.633-1.892 0-1.961 1.906-2.441 4.169-2.51-0.041-0.85-0.384-1.070-1.138-1.070-0.398 0-1.454 0.178-1.591 0.178-0.329 0-0.59-0.206-0.809-0.809l-0.165-0.494c0.85-0.315 1.687-0.535 2.592-0.535 1.975 0 3.127 0.741 3.127 2.66z"></path>
<path d="M47.179 10.983v4.882h-2.057v-4.155c0-0.727-0.48-1.097-1.317-1.097-0.315 0-0.617 0.041-0.878 0.11v5.143h-2.071l0.013-6.103c0.864-0.576 2.263-0.891 3.401-0.891 1.577 0 2.907 0.782 2.907 2.112z"></path>
<path d="M48.071 12.519c0-2.4 1.673-3.662 3.84-3.662 0.603 0 1.152 0.082 1.81 0.233-0.082 0.686-0.37 1.289-0.686 1.632-0.233-0.069-0.617-0.123-0.836-0.123-1.385 0-1.947 0.713-1.947 1.797 0 1.097 0.521 1.769 1.824 1.769 0.357 0 0.768-0.069 1.275-0.247l0.37 1.646c-0.754 0.302-1.536 0.439-2.153 0.439-2.112 0-3.497-1.262-3.497-3.483z"></path>
<path d="M59.206 12.423c0-1.125-0.549-1.783-1.509-1.783-0.933 0-1.509 0.658-1.509 1.783 0 1.179 0.562 1.796 1.509 1.796 0.96 0 1.509-0.617 1.509-1.796zM54.119 12.423c0-2.194 1.481-3.566 3.579-3.566 2.181 0 3.579 1.426 3.579 3.566 0 2.208-1.413 3.579-3.579 3.579-2.181 0-3.579-1.412-3.579-3.579z"></path>
<path d="M62.443 7.061c0.48-0.357 1.522-0.658 2.071-0.658v9.463h-2.071v-8.804z"></path>
<path d="M70.768 12.423c0-1.125-0.549-1.783-1.509-1.783-0.933 0-1.509 0.658-1.509 1.783 0 1.179 0.562 1.796 1.509 1.796 0.96 0 1.509-0.617 1.509-1.796zM65.68 12.423c0-2.194 1.481-3.566 3.579-3.566 2.181 0 3.579 1.426 3.579 3.566 0 2.208-1.412 3.579-3.579 3.579-2.181 0-3.579-1.412-3.579-3.579z"></path>
<path d="M84.372 10.983v4.882h-2.043v-4.155c0-0.727-0.466-1.097-1.289-1.097-0.384 0-0.754 0.082-1.056 0.206 0.11 0.302 0.165 0.631 0.165 0.987v4.059h-2.043v-4.155c0-0.727-0.466-1.097-1.289-1.097-0.315 0-0.617 0.041-0.878 0.11v5.143h-2.071l0.014-6.103c0.823-0.576 2.112-0.891 3.195-0.891 0.864 0 1.605 0.288 2.139 0.754 0.699-0.453 1.673-0.754 2.496-0.754 1.495 0 2.661 0.795 2.661 2.112z"></path>
<path d="M90.639 12.327c0-1.262-0.658-1.714-1.714-1.714-0.425 0-0.768 0.082-1.070 0.219v3.442c0.37 0.055 0.727 0.082 1.056 0.082 1.207 0 1.728-0.933 1.728-2.030zM92.683 12.067c0 2.496-1.481 3.936-3.895 3.936-1.179 0-2.317-0.219-3.003-0.535v-8.406c0.48-0.357 1.536-0.658 2.071-0.658v3.25c0.59-0.507 1.303-0.782 1.947-0.782 2.043 0 2.88 1.413 2.88 3.195z"></path>
<path d="M93.849 9.063c0.288-0.123 0.645-0.192 1.042-0.192s0.74 0.069 1.028 0.192v6.802h-2.071v-6.802zM93.821 6.896c0-0.576 0.48-1.056 1.056-1.056 0.59 0 1.070 0.466 1.070 1.056 0 0.562-0.48 1.056-1.070 1.056-0.576 0-1.056-0.466-1.056-1.056z"></path>
<path d="M101.117 14.11v-1.179h-0.398c-0.933 0-1.783 0.206-1.783 0.85 0 0.494 0.329 0.672 1.001 0.672 0.535 0 0.974-0.165 1.179-0.343zM103.133 11.545v3.607c-0.741 0.562-1.934 0.864-3.552 0.864-1.44 0-2.633-0.59-2.633-1.892 0-1.961 1.906-2.441 4.169-2.51-0.041-0.85-0.384-1.070-1.138-1.070-0.398 0-1.454 0.178-1.591 0.178-0.329 0-0.59-0.206-0.809-0.809l-0.165-0.494c0.85-0.315 1.687-0.535 2.592-0.535 1.975 0 3.127 0.741 3.127 2.66z"></path>
<path d="M28.64 24.715c-1.766 0-2.966-1.19-2.966-3.245 0-1.997 1.19-3.206 2.966-3.206 1.037 0 1.843 0.365 2.352 0.989-0.048 0.269-0.269 0.451-0.48 0.518-0.346-0.528-0.998-0.854-1.891-0.854-1.315 0-2.179 0.941-2.179 2.553 0 1.642 0.845 2.582 2.198 2.582 0.768 0 1.402-0.259 1.939-0.806l0.403 0.518c-0.528 0.605-1.344 0.95-2.342 0.95z"></path>
<path d="M34.736 23.822v-1.536h-0.24c-1.008 0-1.949 0.24-1.949 0.979 0 0.614 0.384 0.826 1.065 0.826 0.461 0 0.864-0.125 1.123-0.269zM35.466 21.269v2.957c-0.48 0.298-1.19 0.461-2.016 0.461-0.883 0-1.632-0.394-1.632-1.267 0-1.325 1.363-1.651 2.918-1.67v-0.317c0-0.835-0.365-1.046-1.085-1.046-0.336 0-1.133 0.211-1.229 0.211-0.144 0-0.25-0.077-0.326-0.298l-0.067-0.182c0.566-0.221 1.075-0.365 1.651-0.365 1.123 0 1.786 0.432 1.786 1.517z"></path>
<path d="M40.573 19.848l-1.872 4.387c-0.393 0.864-0.979 1.757-1.805 2.265-0.25-0.058-0.48-0.326-0.518-0.576 0.71-0.432 1.219-0.921 1.584-1.584l-1.92-4.493c0.288-0.067 0.509-0.067 0.797 0l1.469 3.581 1.478-3.581c0.279-0.077 0.509-0.077 0.787 0z"></path>
<path d="M48.176 21.24v3.379h-0.73v-3.168c0-0.701-0.394-1.018-1.219-1.018-0.461 0-0.922 0.144-1.229 0.317 0.086 0.211 0.125 0.451 0.125 0.72v3.149h-0.73v-3.168c0-0.701-0.393-1.018-1.219-1.018-0.413 0-0.806 0.067-1.104 0.154v4.032h-0.739v-4.397c0.355-0.259 1.382-0.442 1.958-0.442 0.624 0 1.104 0.173 1.421 0.499 0.365-0.269 1.238-0.499 1.747-0.499 1.066 0 1.719 0.47 1.719 1.459z"></path>
<path d="M52.189 23.822v-1.536h-0.24c-1.008 0-1.949 0.24-1.949 0.979 0 0.614 0.384 0.826 1.066 0.826 0.461 0 0.864-0.125 1.123-0.269zM52.919 21.269v2.957c-0.48 0.298-1.19 0.461-2.016 0.461-0.883 0-1.632-0.394-1.632-1.267 0-1.325 1.363-1.651 2.918-1.67v-0.317c0-0.835-0.365-1.046-1.085-1.046-0.336 0-1.133 0.211-1.229 0.211-0.144 0-0.25-0.077-0.326-0.298l-0.067-0.182c0.566-0.221 1.075-0.365 1.651-0.365 1.123 0 1.786 0.432 1.786 1.517z"></path>
<path d="M58.15 21.24v3.379h-0.739v-3.168c0-0.701-0.413-1.018-1.277-1.018-0.413 0-0.806 0.067-1.104 0.154v4.032h-0.739v-4.397c0.365-0.259 1.42-0.442 2.016-0.442 1.123 0 1.843 0.47 1.843 1.459z"></path>
</svg>
