<svg version="1.1" xmlns="http://www.w3.org/2000/svg" width="48" height="32" viewBox="0 0 48 32">
<title>brand--Bancolombia-secundario-positivo</title>
<path d="M10.529 21.138c0-0.285-0.183-0.403-0.543-0.403h-0.43v0.806h0.425c0.349 0 0.548-0.14 0.548-0.403zM9.9 19.321c-0.113 0-0.231 0.011-0.344 0.027v0.715h0.366c0.322 0 0.473-0.134 0.473-0.366 0-0.22-0.156-0.376-0.495-0.376zM11.41 21.175c0 0.629-0.634 1.048-1.354 1.048h-1.322v-3.472c0.441-0.065 0.774-0.108 1.166-0.108 0.726 0 1.306 0.339 1.306 0.93 0 0.339-0.177 0.564-0.494 0.688 0.489 0.14 0.699 0.435 0.699 0.914z"></path>
<path d="M13.304 21.535v-0.462h-0.156c-0.366 0-0.699 0.081-0.699 0.333 0 0.194 0.129 0.263 0.392 0.263 0.21 0 0.382-0.065 0.462-0.134zM14.094 20.53v1.413c-0.29 0.22-0.758 0.339-1.392 0.339-0.564 0-1.032-0.231-1.032-0.742 0-0.769 0.747-0.957 1.634-0.983-0.016-0.333-0.151-0.419-0.446-0.419-0.156 0-0.57 0.070-0.623 0.070-0.129 0-0.231-0.081-0.317-0.317l-0.065-0.194c0.333-0.124 0.661-0.209 1.016-0.209 0.774 0 1.225 0.29 1.225 1.043z"></path>
<path d="M17.054 20.31v1.913h-0.806v-1.628c0-0.285-0.188-0.43-0.516-0.43-0.124 0-0.242 0.016-0.344 0.043v2.015h-0.812l0.005-2.392c0.339-0.226 0.887-0.349 1.333-0.349 0.618 0 1.139 0.306 1.139 0.828z"></path>
<path d="M17.403 20.912c0-0.94 0.656-1.435 1.505-1.435 0.236 0 0.451 0.032 0.709 0.091-0.032 0.269-0.145 0.505-0.269 0.64-0.091-0.027-0.242-0.048-0.328-0.048-0.543 0-0.763 0.279-0.763 0.704 0 0.43 0.204 0.693 0.715 0.693 0.14 0 0.301-0.027 0.5-0.097l0.145 0.645c-0.296 0.118-0.602 0.172-0.844 0.172-0.828 0-1.37-0.494-1.37-1.365z"></path>
<path d="M21.767 20.874c0-0.441-0.215-0.699-0.591-0.699-0.366 0-0.591 0.258-0.591 0.699 0 0.462 0.22 0.704 0.591 0.704 0.376 0 0.591-0.242 0.591-0.704zM19.773 20.874c0-0.86 0.58-1.397 1.403-1.397 0.855 0 1.403 0.559 1.403 1.397 0 0.865-0.554 1.403-1.403 1.403-0.855 0-1.403-0.553-1.403-1.403z"></path>
<path d="M23.036 18.773c0.188-0.14 0.597-0.258 0.811-0.258v3.708h-0.811v-3.45z"></path>
<path d="M26.298 20.874c0-0.441-0.215-0.699-0.591-0.699-0.366 0-0.591 0.258-0.591 0.699 0 0.462 0.221 0.704 0.591 0.704 0.376 0 0.591-0.242 0.591-0.704zM24.304 20.874c0-0.86 0.58-1.397 1.403-1.397 0.855 0 1.403 0.559 1.403 1.397 0 0.865-0.554 1.403-1.403 1.403-0.855 0-1.403-0.553-1.403-1.403z"></path>
<path d="M31.63 20.31v1.913h-0.801v-1.628c0-0.285-0.183-0.43-0.505-0.43-0.151 0-0.296 0.032-0.414 0.081 0.043 0.118 0.065 0.247 0.065 0.387v1.591h-0.801v-1.628c0-0.285-0.183-0.43-0.505-0.43-0.124 0-0.242 0.016-0.344 0.043v2.015h-0.811l0.005-2.392c0.323-0.226 0.828-0.349 1.252-0.349 0.339 0 0.629 0.113 0.838 0.296 0.274-0.177 0.656-0.296 0.978-0.296 0.586 0 1.043 0.312 1.043 0.828z"></path>
<path d="M34.086 20.837c0-0.494-0.258-0.672-0.672-0.672-0.167 0-0.301 0.032-0.419 0.086v1.349c0.145 0.021 0.285 0.032 0.414 0.032 0.473 0 0.677-0.365 0.677-0.796zM34.887 20.735c0 0.978-0.58 1.542-1.526 1.542-0.462 0-0.908-0.086-1.177-0.209v-3.295c0.188-0.14 0.602-0.258 0.811-0.258v1.274c0.231-0.199 0.511-0.306 0.763-0.306 0.801 0 1.129 0.553 1.129 1.252z"></path>
<path d="M35.343 19.558c0.113-0.049 0.253-0.075 0.408-0.075s0.29 0.027 0.403 0.075v2.666h-0.811v-2.666zM35.333 18.708c0-0.226 0.188-0.414 0.414-0.414 0.231 0 0.419 0.183 0.419 0.414 0 0.22-0.188 0.414-0.419 0.414-0.226 0-0.414-0.183-0.414-0.414z"></path>
<path d="M38.192 21.535v-0.462h-0.156c-0.366 0-0.699 0.081-0.699 0.333 0 0.194 0.129 0.263 0.393 0.263 0.209 0 0.381-0.065 0.462-0.134zM38.982 20.53v1.413c-0.29 0.22-0.758 0.339-1.392 0.339-0.564 0-1.032-0.231-1.032-0.742 0-0.769 0.747-0.957 1.634-0.983-0.016-0.333-0.151-0.419-0.446-0.419-0.156 0-0.57 0.070-0.623 0.070-0.129 0-0.231-0.081-0.317-0.317l-0.065-0.194c0.333-0.124 0.661-0.209 1.016-0.209 0.774 0 1.225 0.29 1.225 1.043z"></path>
<path d="M20.971 12.020c0.045 0.172 0.22 0.261 0.397 0.203 1.455-0.444 2.913-0.748 4.419-0.969 0.172-0.023 0.267-0.2 0.203-0.377-0.134-0.374-0.201-0.56-0.338-0.932-0.058-0.158-0.215-0.261-0.375-0.244-1.471 0.18-2.892 0.445-4.316 0.854-0.185 0.058-0.299 0.264-0.253 0.446 0.104 0.407 0.157 0.61 0.262 1.018z"></path>
<path d="M26.868 12.224c-0.056-0.167-0.21-0.279-0.361-0.259-2.302 0.291-4.545 0.855-6.671 1.788-0.155 0.073-0.248 0.266-0.216 0.437 0.083 0.436 0.125 0.654 0.21 1.091 0.036 0.187 0.212 0.273 0.386 0.189 2.16-0.981 4.442-1.605 6.783-1.977 0.149-0.024 0.225-0.193 0.168-0.367-0.118-0.361-0.178-0.541-0.299-0.901z"></path>
<path d="M26.861 14.658c-0.057-0.178-0.224-0.295-0.382-0.262-1.438 0.309-2.843 0.682-4.235 1.156-0.177 0.064-0.276 0.249-0.229 0.419 0.111 0.405 0.166 0.607 0.278 1.013 0.053 0.191 0.269 0.288 0.467 0.213 1.392-0.494 2.797-0.926 4.233-1.271 0.138-0.033 0.206-0.193 0.154-0.359-0.113-0.364-0.17-0.546-0.287-0.909z"></path>
</svg>
