<svg version="1.1" xmlns="http://www.w3.org/2000/svg" width="115" height="32" viewBox="0 0 115 32">
<title>brand-Bancolombia-primario-positivo</title>
<path d="M13.665 14.079c0.066 0.256 0.325 0.387 0.588 0.301 2.157-0.658 4.318-1.108 6.549-1.436 0.256-0.034 0.396-0.296 0.302-0.559-0.198-0.554-0.298-0.83-0.501-1.381-0.086-0.234-0.318-0.387-0.556-0.362-2.18 0.267-4.286 0.66-6.397 1.266-0.275 0.086-0.444 0.391-0.374 0.662 0.154 0.603 0.232 0.905 0.389 1.509z"></path>
<path d="M22.405 14.382c-0.084-0.248-0.311-0.413-0.535-0.384-3.413 0.431-6.736 1.268-9.887 2.651-0.23 0.108-0.368 0.395-0.32 0.647 0.124 0.646 0.186 0.97 0.312 1.617 0.054 0.277 0.315 0.404 0.572 0.28 3.201-1.454 6.583-2.379 10.053-2.931 0.221-0.036 0.333-0.286 0.249-0.545-0.175-0.535-0.264-0.802-0.444-1.335z"></path>
<path d="M22.395 17.991c-0.085-0.264-0.332-0.437-0.567-0.389-2.131 0.458-4.214 1.011-6.277 1.714-0.262 0.095-0.409 0.369-0.34 0.621 0.164 0.6 0.247 0.9 0.413 1.502 0.078 0.283 0.398 0.427 0.693 0.316 2.063-0.732 4.146-1.372 6.275-1.885 0.204-0.049 0.305-0.287 0.229-0.532-0.168-0.54-0.253-0.81-0.425-1.348z"></path>
<path d="M30.531 17.399c0-0.727-0.466-1.029-1.385-1.029h-1.097v2.057h1.083c0.891 0 1.399-0.356 1.399-1.028zM28.927 12.764c-0.288 0-0.59 0.027-0.878 0.069v1.824h0.933c0.823 0 1.207-0.343 1.207-0.932 0-0.562-0.398-0.96-1.262-0.96zM32.78 17.495c0 1.604-1.618 2.674-3.456 2.674h-3.374v-8.859c1.125-0.165 1.975-0.274 2.976-0.274 1.851 0 3.333 0.864 3.333 2.372 0 0.864-0.453 1.44-1.262 1.755 1.248 0.357 1.783 1.111 1.783 2.331z"></path>
<path d="M37.612 18.414v-1.179h-0.398c-0.932 0-1.783 0.206-1.783 0.85 0 0.494 0.329 0.672 1.001 0.672 0.535 0 0.973-0.165 1.179-0.343zM39.628 15.849v3.607c-0.741 0.562-1.934 0.864-3.552 0.864-1.44 0-2.633-0.59-2.633-1.893 0-1.961 1.906-2.441 4.169-2.51-0.041-0.85-0.384-1.070-1.138-1.070-0.397 0-1.453 0.178-1.591 0.178-0.329 0-0.59-0.206-0.809-0.809l-0.165-0.494c0.85-0.315 1.687-0.535 2.592-0.535 1.975 0 3.127 0.741 3.127 2.66z"></path>
<path d="M47.18 15.287v4.882h-2.057v-4.155c0-0.727-0.48-1.097-1.317-1.097-0.315 0-0.617 0.041-0.878 0.11v5.143h-2.071l0.014-6.103c0.864-0.576 2.263-0.891 3.401-0.891 1.577 0 2.907 0.782 2.907 2.112z"></path>
<path d="M48.072 16.823c0-2.4 1.673-3.662 3.84-3.662 0.603 0 1.152 0.082 1.81 0.233-0.082 0.686-0.37 1.289-0.686 1.632-0.233-0.069-0.617-0.123-0.837-0.123-1.385 0-1.947 0.713-1.947 1.797 0 1.097 0.521 1.769 1.824 1.769 0.357 0 0.768-0.069 1.275-0.247l0.37 1.646c-0.754 0.302-1.536 0.439-2.153 0.439-2.112 0-3.497-1.262-3.497-3.483z"></path>
<path d="M59.207 16.727c0-1.125-0.549-1.783-1.508-1.783-0.933 0-1.509 0.658-1.509 1.783 0 1.179 0.562 1.796 1.509 1.796 0.96 0 1.508-0.617 1.508-1.796zM54.12 16.727c0-2.194 1.481-3.566 3.579-3.566 2.18 0 3.579 1.426 3.579 3.566 0 2.208-1.413 3.579-3.579 3.579-2.181 0-3.579-1.412-3.579-3.579z"></path>
<path d="M62.444 11.365c0.48-0.357 1.522-0.658 2.071-0.658v9.463h-2.071v-8.804z"></path>
<path d="M70.768 16.727c0-1.125-0.549-1.783-1.509-1.783-0.933 0-1.509 0.658-1.509 1.783 0 1.179 0.562 1.796 1.509 1.796 0.96 0 1.509-0.617 1.509-1.796zM65.68 16.727c0-2.194 1.481-3.566 3.579-3.566 2.181 0 3.579 1.426 3.579 3.566 0 2.208-1.413 3.579-3.579 3.579-2.181 0-3.579-1.412-3.579-3.579z"></path>
<path d="M84.373 15.287v4.882h-2.043v-4.155c0-0.727-0.466-1.097-1.289-1.097-0.384 0-0.754 0.082-1.056 0.206 0.11 0.302 0.165 0.631 0.165 0.987v4.059h-2.043v-4.155c0-0.727-0.466-1.097-1.289-1.097-0.315 0-0.617 0.041-0.878 0.11v5.143h-2.071l0.014-6.103c0.823-0.576 2.112-0.891 3.195-0.891 0.864 0 1.605 0.288 2.139 0.754 0.699-0.453 1.673-0.754 2.496-0.754 1.495 0 2.661 0.795 2.661 2.112z"></path>
<path d="M90.64 16.631c0-1.262-0.659-1.714-1.714-1.714-0.425 0-0.768 0.082-1.070 0.219v3.442c0.37 0.055 0.727 0.082 1.056 0.082 1.207 0 1.728-0.932 1.728-2.030zM92.684 16.37c0 2.496-1.481 3.936-3.895 3.936-1.179 0-2.318-0.219-3.003-0.535v-8.407c0.48-0.357 1.536-0.658 2.071-0.658v3.25c0.59-0.507 1.303-0.782 1.947-0.782 2.043 0 2.88 1.412 2.88 3.195z"></path>
<path d="M93.85 13.367c0.288-0.123 0.645-0.192 1.042-0.192s0.741 0.069 1.029 0.192v6.802h-2.071v-6.802zM93.822 11.2c0-0.576 0.48-1.056 1.056-1.056 0.59 0 1.069 0.466 1.069 1.056 0 0.562-0.48 1.056-1.069 1.056-0.576 0-1.056-0.466-1.056-1.056z"></path>
<path d="M101.118 18.414v-1.179h-0.398c-0.933 0-1.783 0.206-1.783 0.85 0 0.494 0.329 0.672 1.001 0.672 0.535 0 0.974-0.165 1.179-0.343zM103.134 15.849v3.607c-0.741 0.562-1.934 0.864-3.552 0.864-1.44 0-2.633-0.59-2.633-1.893 0-1.961 1.906-2.441 4.169-2.51-0.041-0.85-0.384-1.070-1.138-1.070-0.398 0-1.454 0.178-1.591 0.178-0.329 0-0.59-0.206-0.809-0.809l-0.165-0.494c0.85-0.315 1.687-0.535 2.592-0.535 1.975 0 3.127 0.741 3.127 2.66z"></path>
</svg>
