<svg version="1.1" xmlns="http://www.w3.org/2000/svg" width="48" height="32" viewBox="0 0 48 32">
<title>brand-Bancolombia-filiales-puertorico-secundario-positivo</title>
<path d="M16.126 22.35c0-0.272-0.163-0.537-0.681-0.537-0.106 0-0.212 0.019-0.291 0.041v1.135h0.238c0.529 0 0.734-0.287 0.734-0.639zM16.417 22.343c0 0.495-0.393 0.892-0.987 0.892h-0.276v0.828h-0.303v-2.428c0.193-0.041 0.42-0.076 0.624-0.076 0.685 0 0.942 0.427 0.942 0.783z"></path>
<path d="M18.274 22.169v1.732c-0.144 0.102-0.56 0.174-0.794 0.174-0.442 0-0.726-0.163-0.726-0.617v-1.233c0.087-0.041 0.178-0.057 0.291-0.057v1.248c0 0.276 0.163 0.401 0.503 0.401 0.163 0 0.314-0.027 0.435-0.061v-1.535c0.079-0.042 0.193-0.053 0.291-0.053z"></path>
<path d="M19.038 22.986h1.010v-0.038c0-0.39-0.193-0.586-0.484-0.586-0.28 0-0.484 0.178-0.526 0.624zM20.335 23.182h-1.305c0.008 0.416 0.212 0.677 0.601 0.677 0.2 0 0.427-0.045 0.579-0.113 0.045 0.049 0.076 0.113 0.087 0.223-0.174 0.072-0.412 0.136-0.711 0.136-0.537 0-0.855-0.363-0.855-0.923 0-0.662 0.34-1.036 0.862-1.036 0.469 0 0.764 0.321 0.764 0.84 0 0.072-0.008 0.129-0.023 0.197z"></path>
<path d="M21.629 22.422c-0.31 0-0.465 0.023-0.59 0.091v1.551h-0.291v-1.732c0.212-0.117 0.48-0.174 0.711-0.174 0.113 0 0.178 0.019 0.223 0.034 0 0.087-0.011 0.174-0.053 0.231z"></path>
<path d="M23.051 24.052c-0.061 0.030-0.201 0.053-0.371 0.053-0.352 0-0.533-0.125-0.533-0.514v-1.169h-0.227c0-0.234 0.291-0.526 0.518-0.563v0.325h0.605c0 0.072-0.027 0.182-0.083 0.238h-0.522v1.097c0 0.246 0.079 0.333 0.295 0.333 0.091 0 0.147-0.011 0.257-0.038 0.045 0.045 0.061 0.129 0.061 0.238z"></path>
<path d="M24.817 23.118c0-0.45-0.227-0.711-0.617-0.711-0.382 0-0.613 0.261-0.613 0.711 0 0.477 0.227 0.722 0.613 0.722 0.389 0 0.617-0.246 0.617-0.722zM23.289 23.118c0-0.59 0.367-0.972 0.912-0.972 0.556 0 0.912 0.389 0.912 0.972 0 0.609-0.359 0.983-0.912 0.983-0.556 0-0.912-0.386-0.912-0.983z"></path>
<path d="M27.21 22.906c0.477 0 0.685-0.231 0.685-0.586 0-0.287-0.174-0.503-0.688-0.503-0.106 0-0.208 0.011-0.287 0.030v1.059h0.291zM27.971 24.063l-0.556-0.908c-0.038 0-0.076 0.004-0.117 0.004h-0.378v0.904h-0.303v-2.432c0.204-0.042 0.424-0.072 0.631-0.072 0.685 0 0.949 0.393 0.949 0.76 0 0.348-0.189 0.643-0.518 0.771l0.617 0.972h-0.325z"></path>
<path d="M28.727 22.192c0.041-0.023 0.094-0.030 0.147-0.030 0.057 0 0.106 0.008 0.148 0.030v1.872h-0.295v-1.872zM28.67 21.613c0-0.11 0.095-0.2 0.204-0.2 0.113 0 0.208 0.087 0.208 0.2 0 0.106-0.095 0.197-0.208 0.197-0.11 0-0.204-0.087-0.204-0.197z"></path>
<path d="M29.487 23.141c0-0.635 0.39-0.995 0.961-0.995 0.159 0 0.325 0.015 0.499 0.064-0.011 0.098-0.053 0.197-0.102 0.253-0.072-0.027-0.238-0.064-0.352-0.064-0.503 0-0.696 0.337-0.696 0.726 0 0.42 0.182 0.715 0.639 0.715 0.136 0 0.303-0.042 0.45-0.102l0.061 0.242c-0.174 0.076-0.405 0.121-0.605 0.121-0.514 0-0.855-0.344-0.855-0.961z"></path>
<path d="M32.709 23.118c0-0.45-0.227-0.711-0.617-0.711-0.382 0-0.613 0.261-0.613 0.711 0 0.477 0.227 0.722 0.613 0.722 0.39 0 0.617-0.246 0.617-0.722zM31.181 23.118c0-0.59 0.367-0.972 0.911-0.972 0.556 0 0.911 0.389 0.911 0.972 0 0.609-0.359 0.983-0.911 0.983-0.556 0-0.911-0.386-0.911-0.983z"></path>
<path d="M10.529 19.23c0-0.285-0.183-0.403-0.543-0.403h-0.43v0.806h0.425c0.349 0 0.548-0.14 0.548-0.403zM9.9 17.414c-0.113 0-0.231 0.011-0.344 0.027v0.715h0.366c0.322 0 0.473-0.134 0.473-0.365 0-0.22-0.156-0.376-0.495-0.376zM11.41 19.268c0 0.629-0.634 1.048-1.354 1.048h-1.322v-3.472c0.441-0.064 0.774-0.108 1.166-0.108 0.726 0 1.306 0.339 1.306 0.93 0 0.339-0.177 0.564-0.494 0.688 0.489 0.14 0.699 0.435 0.699 0.914z"></path>
<path d="M13.304 19.628v-0.462h-0.156c-0.366 0-0.699 0.081-0.699 0.333 0 0.193 0.129 0.263 0.392 0.263 0.21 0 0.382-0.064 0.462-0.134zM14.094 18.623v1.413c-0.29 0.221-0.758 0.339-1.392 0.339-0.564 0-1.032-0.231-1.032-0.742 0-0.768 0.747-0.957 1.634-0.983-0.016-0.333-0.151-0.419-0.446-0.419-0.156 0-0.57 0.070-0.623 0.070-0.129 0-0.231-0.081-0.317-0.317l-0.065-0.193c0.333-0.124 0.661-0.21 1.016-0.21 0.774 0 1.225 0.29 1.225 1.043z"></path>
<path d="M17.054 18.403v1.913h-0.806v-1.628c0-0.285-0.188-0.43-0.516-0.43-0.124 0-0.242 0.016-0.344 0.043v2.015h-0.812l0.005-2.392c0.339-0.226 0.887-0.349 1.333-0.349 0.618 0 1.139 0.306 1.139 0.828z"></path>
<path d="M17.403 19.005c0-0.941 0.656-1.435 1.505-1.435 0.236 0 0.451 0.032 0.709 0.091-0.032 0.269-0.145 0.505-0.269 0.64-0.091-0.027-0.242-0.048-0.328-0.048-0.543 0-0.763 0.279-0.763 0.704 0 0.43 0.204 0.693 0.715 0.693 0.14 0 0.301-0.027 0.5-0.097l0.145 0.645c-0.296 0.118-0.602 0.172-0.844 0.172-0.828 0-1.37-0.494-1.37-1.365z"></path>
<path d="M21.767 18.967c0-0.441-0.215-0.699-0.591-0.699-0.366 0-0.591 0.258-0.591 0.699 0 0.462 0.22 0.704 0.591 0.704 0.376 0 0.591-0.242 0.591-0.704zM19.773 18.967c0-0.86 0.58-1.397 1.403-1.397 0.855 0 1.403 0.559 1.403 1.397 0 0.865-0.554 1.403-1.403 1.403-0.855 0-1.403-0.554-1.403-1.403z"></path>
<path d="M23.036 16.866c0.188-0.14 0.597-0.258 0.811-0.258v3.708h-0.811v-3.45z"></path>
<path d="M26.298 18.967c0-0.441-0.215-0.699-0.591-0.699-0.366 0-0.591 0.258-0.591 0.699 0 0.462 0.221 0.704 0.591 0.704 0.376 0 0.591-0.242 0.591-0.704zM24.304 18.967c0-0.86 0.58-1.397 1.403-1.397 0.855 0 1.403 0.559 1.403 1.397 0 0.865-0.554 1.403-1.403 1.403-0.855 0-1.403-0.554-1.403-1.403z"></path>
<path d="M31.63 18.403v1.913h-0.801v-1.628c0-0.285-0.183-0.43-0.505-0.43-0.151 0-0.296 0.032-0.414 0.081 0.043 0.118 0.065 0.247 0.065 0.387v1.591h-0.801v-1.628c0-0.285-0.183-0.43-0.505-0.43-0.124 0-0.242 0.016-0.344 0.043v2.015h-0.811l0.005-2.392c0.323-0.226 0.828-0.349 1.252-0.349 0.339 0 0.629 0.113 0.838 0.296 0.274-0.177 0.656-0.296 0.978-0.296 0.586 0 1.043 0.312 1.043 0.828z"></path>
<path d="M34.086 18.929c0-0.494-0.258-0.672-0.672-0.672-0.167 0-0.301 0.032-0.419 0.086v1.349c0.145 0.022 0.285 0.032 0.414 0.032 0.473 0 0.677-0.365 0.677-0.795zM34.887 18.827c0 0.978-0.58 1.542-1.526 1.542-0.462 0-0.908-0.086-1.177-0.21v-3.295c0.188-0.14 0.602-0.258 0.811-0.258v1.274c0.231-0.199 0.511-0.306 0.763-0.306 0.801 0 1.129 0.554 1.129 1.252z"></path>
<path d="M35.343 17.65c0.113-0.048 0.252-0.075 0.408-0.075s0.29 0.027 0.403 0.075v2.666h-0.811v-2.666zM35.333 16.801c0-0.226 0.188-0.414 0.414-0.414 0.231 0 0.419 0.183 0.419 0.414 0 0.22-0.188 0.414-0.419 0.414-0.226 0-0.414-0.183-0.414-0.414z"></path>
<path d="M38.192 19.628v-0.462h-0.156c-0.365 0-0.699 0.081-0.699 0.333 0 0.193 0.129 0.263 0.393 0.263 0.209 0 0.381-0.064 0.462-0.134zM38.982 18.623v1.413c-0.29 0.221-0.758 0.339-1.392 0.339-0.564 0-1.032-0.231-1.032-0.742 0-0.768 0.747-0.957 1.634-0.983-0.016-0.333-0.15-0.419-0.446-0.419-0.156 0-0.57 0.070-0.623 0.070-0.129 0-0.231-0.081-0.317-0.317l-0.065-0.193c0.333-0.124 0.661-0.21 1.016-0.21 0.774 0 1.225 0.29 1.225 1.043z"></path>
<path d="M20.971 10.112c0.045 0.172 0.22 0.261 0.397 0.203 1.455-0.444 2.914-0.748 4.419-0.969 0.172-0.023 0.267-0.2 0.203-0.377-0.134-0.374-0.201-0.56-0.338-0.932-0.058-0.158-0.215-0.261-0.375-0.244-1.471 0.18-2.892 0.445-4.316 0.854-0.185 0.058-0.299 0.264-0.253 0.446 0.104 0.407 0.157 0.61 0.262 1.018z"></path>
<path d="M26.868 10.317c-0.057-0.167-0.21-0.279-0.361-0.259-2.302 0.291-4.545 0.855-6.671 1.788-0.155 0.073-0.248 0.266-0.216 0.437 0.083 0.436 0.125 0.654 0.21 1.091 0.036 0.187 0.212 0.273 0.386 0.189 2.16-0.981 4.442-1.605 6.783-1.977 0.149-0.024 0.225-0.193 0.168-0.367-0.118-0.361-0.178-0.541-0.299-0.901z"></path>
<path d="M26.861 12.751c-0.057-0.178-0.224-0.295-0.382-0.262-1.437 0.309-2.843 0.682-4.235 1.156-0.177 0.064-0.276 0.249-0.229 0.419 0.111 0.405 0.166 0.607 0.278 1.014 0.053 0.191 0.269 0.288 0.467 0.213 1.392-0.494 2.797-0.926 4.233-1.272 0.138-0.033 0.206-0.193 0.154-0.359-0.113-0.364-0.17-0.546-0.287-0.909z"></path>
</svg>
