<svg version="1.1" xmlns="http://www.w3.org/2000/svg" width="48" height="32" viewBox="0 0 48 32">
<title>brand-Bancolombia-endoso-secundario-positivo</title>
<path d="M10.529 19.224c0-0.285-0.183-0.403-0.543-0.403h-0.43v0.806h0.425c0.349 0 0.548-0.14 0.548-0.403zM9.9 17.408c-0.113 0-0.231 0.011-0.344 0.027v0.715h0.366c0.322 0 0.473-0.134 0.473-0.366 0-0.22-0.156-0.376-0.495-0.376zM11.41 19.262c0 0.629-0.634 1.048-1.354 1.048h-1.322v-3.472c0.441-0.065 0.774-0.107 1.166-0.107 0.726 0 1.306 0.339 1.306 0.93 0 0.339-0.177 0.564-0.494 0.688 0.489 0.14 0.699 0.435 0.699 0.914z"></path>
<path d="M13.304 19.622v-0.462h-0.156c-0.366 0-0.699 0.081-0.699 0.333 0 0.193 0.129 0.263 0.392 0.263 0.21 0 0.382-0.065 0.462-0.134zM14.094 18.617v1.413c-0.29 0.22-0.758 0.339-1.392 0.339-0.564 0-1.032-0.231-1.032-0.742 0-0.769 0.747-0.957 1.634-0.983-0.016-0.333-0.151-0.419-0.446-0.419-0.156 0-0.57 0.070-0.623 0.070-0.129 0-0.231-0.081-0.317-0.317l-0.065-0.194c0.333-0.124 0.661-0.21 1.016-0.21 0.774 0 1.225 0.29 1.225 1.043z"></path>
<path d="M17.054 18.397v1.913h-0.806v-1.628c0-0.285-0.188-0.43-0.516-0.43-0.124 0-0.242 0.016-0.344 0.043v2.015h-0.812l0.005-2.392c0.339-0.226 0.887-0.349 1.333-0.349 0.618 0 1.139 0.306 1.139 0.828z"></path>
<path d="M17.403 18.998c0-0.941 0.656-1.435 1.505-1.435 0.236 0 0.451 0.032 0.709 0.091-0.032 0.269-0.145 0.505-0.269 0.64-0.091-0.027-0.242-0.048-0.328-0.048-0.543 0-0.763 0.279-0.763 0.704 0 0.43 0.204 0.693 0.715 0.693 0.14 0 0.301-0.027 0.5-0.097l0.145 0.645c-0.296 0.118-0.602 0.172-0.844 0.172-0.828 0-1.37-0.495-1.37-1.365z"></path>
<path d="M21.767 18.961c0-0.441-0.215-0.699-0.591-0.699-0.366 0-0.591 0.258-0.591 0.699 0 0.462 0.22 0.704 0.591 0.704 0.376 0 0.591-0.242 0.591-0.704zM19.773 18.961c0-0.86 0.58-1.397 1.403-1.397 0.855 0 1.403 0.559 1.403 1.397 0 0.865-0.554 1.403-1.403 1.403-0.855 0-1.403-0.554-1.403-1.403z"></path>
<path d="M23.036 16.859c0.188-0.14 0.597-0.258 0.811-0.258v3.708h-0.811v-3.45z"></path>
<path d="M26.298 18.961c0-0.441-0.215-0.699-0.591-0.699-0.366 0-0.591 0.258-0.591 0.699 0 0.462 0.221 0.704 0.591 0.704 0.376 0 0.591-0.242 0.591-0.704zM24.304 18.961c0-0.86 0.58-1.397 1.403-1.397 0.855 0 1.403 0.559 1.403 1.397 0 0.865-0.554 1.403-1.403 1.403-0.855 0-1.403-0.554-1.403-1.403z"></path>
<path d="M31.63 18.397v1.913h-0.801v-1.628c0-0.285-0.183-0.43-0.505-0.43-0.151 0-0.296 0.032-0.414 0.081 0.043 0.118 0.065 0.247 0.065 0.387v1.591h-0.801v-1.628c0-0.285-0.183-0.43-0.505-0.43-0.124 0-0.242 0.016-0.344 0.043v2.015h-0.811l0.005-2.392c0.323-0.226 0.828-0.349 1.252-0.349 0.339 0 0.629 0.113 0.838 0.296 0.274-0.177 0.656-0.296 0.978-0.296 0.586 0 1.043 0.312 1.043 0.828z"></path>
<path d="M34.086 18.923c0-0.494-0.258-0.672-0.672-0.672-0.167 0-0.301 0.032-0.419 0.086v1.349c0.145 0.022 0.285 0.032 0.414 0.032 0.473 0 0.677-0.365 0.677-0.795zM34.887 18.821c0 0.978-0.58 1.542-1.526 1.542-0.462 0-0.908-0.086-1.177-0.209v-3.295c0.188-0.14 0.602-0.258 0.811-0.258v1.274c0.231-0.199 0.511-0.306 0.763-0.306 0.801 0 1.129 0.554 1.129 1.252z"></path>
<path d="M35.343 17.644c0.113-0.048 0.252-0.075 0.408-0.075s0.29 0.027 0.403 0.075v2.666h-0.811v-2.666zM35.333 16.795c0-0.226 0.188-0.414 0.414-0.414 0.231 0 0.419 0.183 0.419 0.414 0 0.22-0.188 0.414-0.419 0.414-0.226 0-0.414-0.183-0.414-0.414z"></path>
<path d="M38.192 19.622v-0.462h-0.156c-0.365 0-0.699 0.081-0.699 0.333 0 0.193 0.129 0.263 0.393 0.263 0.209 0 0.381-0.065 0.462-0.134zM38.982 18.617v1.413c-0.29 0.22-0.758 0.339-1.392 0.339-0.564 0-1.032-0.231-1.032-0.742 0-0.769 0.747-0.957 1.634-0.983-0.016-0.333-0.15-0.419-0.446-0.419-0.156 0-0.57 0.070-0.623 0.070-0.129 0-0.231-0.081-0.317-0.317l-0.065-0.194c0.333-0.124 0.661-0.21 1.016-0.21 0.774 0 1.225 0.29 1.225 1.043z"></path>
<path d="M20.971 10.106c0.045 0.172 0.22 0.261 0.397 0.203 1.455-0.444 2.914-0.748 4.419-0.969 0.172-0.023 0.267-0.2 0.203-0.377-0.134-0.374-0.201-0.56-0.338-0.932-0.058-0.158-0.215-0.261-0.375-0.244-1.471 0.18-2.892 0.445-4.316 0.854-0.185 0.058-0.299 0.264-0.253 0.446 0.104 0.407 0.157 0.61 0.262 1.018z"></path>
<path d="M26.868 10.31c-0.057-0.167-0.21-0.279-0.361-0.259-2.302 0.291-4.545 0.855-6.671 1.788-0.155 0.073-0.248 0.266-0.216 0.437 0.083 0.436 0.125 0.654 0.21 1.091 0.036 0.187 0.212 0.273 0.386 0.189 2.16-0.981 4.442-1.605 6.783-1.977 0.149-0.024 0.225-0.193 0.168-0.367-0.118-0.361-0.178-0.541-0.299-0.901z"></path>
<path d="M26.861 12.745c-0.057-0.178-0.224-0.295-0.382-0.262-1.437 0.309-2.843 0.682-4.235 1.156-0.177 0.064-0.276 0.249-0.229 0.419 0.111 0.405 0.166 0.607 0.278 1.014 0.053 0.191 0.269 0.288 0.467 0.213 1.392-0.494 2.797-0.926 4.233-1.272 0.138-0.033 0.206-0.193 0.154-0.359-0.113-0.364-0.17-0.546-0.287-0.909z"></path>
<path d="M10.873 23.628c0.125 0 0.236-0.011 0.326-0.035v-0.923c-0.090-0.049-0.198-0.081-0.307-0.081-0.342 0-0.462 0.231-0.462 0.581 0 0.326 0.187 0.459 0.443 0.459zM11.408 21.907v1.816c-0.128 0.057-0.329 0.084-0.546 0.084-0.437 0-0.643-0.285-0.643-0.649 0-0.475 0.231-0.755 0.589-0.755 0.168 0 0.304 0.049 0.391 0.114v-0.54c0.049-0.038 0.157-0.071 0.209-0.071z"></path>
<path d="M11.956 23.006h0.725v-0.027c0-0.279-0.138-0.421-0.348-0.421-0.201 0-0.348 0.128-0.377 0.448zM12.887 23.147h-0.937c0.005 0.299 0.152 0.486 0.432 0.486 0.144 0 0.307-0.033 0.415-0.081 0.033 0.035 0.054 0.081 0.062 0.16-0.125 0.052-0.296 0.098-0.51 0.098-0.386 0-0.614-0.261-0.614-0.663 0-0.475 0.244-0.744 0.619-0.744 0.337 0 0.548 0.231 0.548 0.603 0 0.052-0.005 0.092-0.016 0.141z"></path>
<path d="M13.232 21.977c0.049-0.038 0.155-0.071 0.209-0.071v1.873h-0.209v-1.803z"></path>
<path d="M15.901 22.944v0.595c-0.158 0.174-0.413 0.269-0.717 0.269-0.5 0-0.839-0.337-0.839-0.918 0-0.565 0.337-0.907 0.839-0.907 0.296 0 0.529 0.108 0.676 0.29-0.019 0.071-0.087 0.114-0.152 0.131-0.103-0.149-0.277-0.236-0.524-0.236-0.386 0-0.622 0.269-0.622 0.722 0 0.467 0.239 0.73 0.622 0.73 0.19 0 0.358-0.043 0.5-0.136v-0.502c0.057-0.054 0.144-0.062 0.217-0.038z"></path>
<path d="M16.848 22.602c-0.223 0-0.334 0.016-0.424 0.065v1.113h-0.209v-1.243c0.152-0.084 0.345-0.125 0.51-0.125 0.081 0 0.128 0.014 0.16 0.024 0 0.062-0.008 0.125-0.038 0.166z"></path>
<path d="M18.217 22.42v1.243c-0.103 0.073-0.402 0.125-0.57 0.125-0.318 0-0.521-0.117-0.521-0.443v-0.885c0.062-0.030 0.128-0.041 0.209-0.041v0.896c0 0.198 0.117 0.288 0.361 0.288 0.117 0 0.225-0.019 0.312-0.043v-1.102c0.057-0.030 0.138-0.038 0.209-0.038z"></path>
<path d="M19.558 23.090c0-0.282-0.157-0.502-0.532-0.502-0.076 0-0.155 0.011-0.236 0.030v0.953c0.081 0.030 0.182 0.054 0.291 0.054 0.296 0 0.478-0.157 0.478-0.535zM19.769 23.123c0 0.388-0.19 0.684-0.597 0.684-0.128 0-0.274-0.041-0.383-0.106v0.548c-0.043 0.041-0.147 0.071-0.209 0.071v-1.835c0.087-0.038 0.263-0.076 0.432-0.076 0.47 0 0.757 0.245 0.757 0.714z"></path>
<path d="M21.067 23.101c0-0.323-0.163-0.51-0.443-0.51-0.274 0-0.44 0.187-0.44 0.51 0 0.342 0.163 0.519 0.44 0.519 0.28 0 0.443-0.177 0.443-0.519zM19.97 23.101c0-0.423 0.263-0.698 0.654-0.698 0.399 0 0.654 0.279 0.654 0.698 0 0.437-0.258 0.706-0.654 0.706-0.399 0-0.654-0.277-0.654-0.706z"></path>
<path d="M23.033 23.238c0-0.145-0.093-0.205-0.276-0.205h-0.218v0.409h0.215c0.177 0 0.279-0.071 0.279-0.205zM22.714 22.316c-0.057 0-0.117 0.005-0.175 0.014v0.363h0.186c0.164 0 0.24-0.068 0.24-0.185 0-0.112-0.079-0.191-0.251-0.191zM23.48 23.257c0 0.319-0.322 0.532-0.688 0.532h-0.671v-1.763c0.224-0.033 0.393-0.055 0.592-0.055 0.369 0 0.663 0.172 0.663 0.472 0 0.172-0.090 0.286-0.251 0.349 0.248 0.071 0.355 0.221 0.355 0.464z"></path>
<path d="M24.442 23.44v-0.235h-0.079c-0.185 0-0.355 0.041-0.355 0.169 0 0.098 0.066 0.134 0.199 0.134 0.106 0 0.194-0.033 0.235-0.068zM24.843 22.93v0.718c-0.147 0.112-0.385 0.172-0.707 0.172-0.286 0-0.524-0.117-0.524-0.377 0-0.39 0.379-0.486 0.829-0.499-0.008-0.169-0.076-0.213-0.226-0.213-0.079 0-0.289 0.035-0.317 0.035-0.066 0-0.117-0.041-0.161-0.161l-0.033-0.098c0.169-0.063 0.335-0.106 0.516-0.106 0.393 0 0.622 0.147 0.622 0.529z"></path>
<path d="M26.346 22.818v0.971h-0.409v-0.827c0-0.145-0.095-0.218-0.262-0.218-0.063 0-0.123 0.008-0.175 0.022v1.023h-0.412l0.003-1.214c0.172-0.115 0.45-0.177 0.677-0.177 0.314 0 0.579 0.156 0.579 0.42z"></path>
<path d="M26.523 23.124c0-0.478 0.333-0.729 0.764-0.729 0.12 0 0.229 0.016 0.36 0.046-0.016 0.137-0.074 0.256-0.136 0.325-0.046-0.014-0.123-0.024-0.166-0.024-0.276 0-0.387 0.142-0.387 0.357 0 0.218 0.104 0.352 0.363 0.352 0.071 0 0.153-0.014 0.254-0.049l0.074 0.328c-0.15 0.060-0.306 0.087-0.428 0.087-0.42 0-0.696-0.251-0.696-0.693z"></path>
<path d="M28.739 23.105c0-0.224-0.109-0.355-0.3-0.355-0.186 0-0.3 0.131-0.3 0.355 0 0.235 0.112 0.357 0.3 0.357 0.191 0 0.3-0.123 0.3-0.357zM27.726 23.105c0-0.437 0.295-0.709 0.712-0.709 0.434 0 0.712 0.284 0.712 0.709 0 0.439-0.281 0.712-0.712 0.712-0.434 0-0.712-0.281-0.712-0.712z"></path>
<path d="M29.383 22.038c0.095-0.071 0.303-0.131 0.412-0.131v1.883h-0.412v-1.752z"></path>
<path d="M31.039 23.105c0-0.224-0.109-0.355-0.3-0.355-0.185 0-0.3 0.131-0.3 0.355 0 0.235 0.112 0.357 0.3 0.357 0.191 0 0.3-0.123 0.3-0.357zM30.026 23.105c0-0.437 0.295-0.709 0.712-0.709 0.434 0 0.712 0.284 0.712 0.709 0 0.439-0.281 0.712-0.712 0.712-0.434 0-0.712-0.281-0.712-0.712z"></path>
<path d="M33.746 22.818v0.971h-0.407v-0.827c0-0.145-0.093-0.218-0.256-0.218-0.076 0-0.15 0.016-0.21 0.041 0.022 0.060 0.033 0.125 0.033 0.196v0.808h-0.407v-0.827c0-0.145-0.093-0.218-0.256-0.218-0.063 0-0.123 0.008-0.175 0.022v1.023h-0.412l0.003-1.214c0.164-0.115 0.42-0.177 0.636-0.177 0.172 0 0.319 0.057 0.426 0.15 0.139-0.090 0.333-0.15 0.496-0.15 0.297 0 0.529 0.158 0.529 0.42z"></path>
<path d="M34.992 23.085c0-0.251-0.131-0.341-0.341-0.341-0.085 0-0.153 0.016-0.213 0.044v0.685c0.074 0.011 0.145 0.017 0.21 0.017 0.24 0 0.344-0.186 0.344-0.404zM35.399 23.034c0 0.497-0.295 0.783-0.775 0.783-0.235 0-0.461-0.044-0.598-0.106v-1.673c0.095-0.071 0.306-0.131 0.412-0.131v0.647c0.117-0.101 0.259-0.156 0.388-0.156 0.407 0 0.573 0.281 0.573 0.636z"></path>
<path d="M35.631 22.436c0.057-0.025 0.128-0.038 0.207-0.038s0.147 0.014 0.205 0.038v1.353h-0.412v-1.353zM35.626 22.005c0-0.115 0.095-0.21 0.21-0.21 0.117 0 0.213 0.093 0.213 0.21 0 0.112-0.096 0.21-0.213 0.21-0.115 0-0.21-0.093-0.21-0.21z"></path>
<path d="M37.077 23.44v-0.235h-0.079c-0.185 0-0.355 0.041-0.355 0.169 0 0.098 0.065 0.134 0.199 0.134 0.106 0 0.194-0.033 0.234-0.068zM37.478 22.93v0.718c-0.147 0.112-0.385 0.172-0.707 0.172-0.286 0-0.524-0.117-0.524-0.377 0-0.39 0.379-0.486 0.829-0.499-0.008-0.169-0.076-0.213-0.226-0.213-0.079 0-0.289 0.035-0.316 0.035-0.066 0-0.117-0.041-0.161-0.161l-0.033-0.098c0.169-0.063 0.336-0.106 0.516-0.106 0.393 0 0.622 0.147 0.622 0.529z"></path>
</svg>
