<svg version="1.1" xmlns="http://www.w3.org/2000/svg" width="48" height="32" viewBox="0 0 48 32">
<title>brand-Banitsmo-secundario-positivo</title>
<path d="M14.454 21.059c0-0.287-0.184-0.406-0.547-0.406h-0.433v0.812h0.428c0.352 0 0.552-0.141 0.552-0.406zM13.821 19.229c-0.114 0-0.233 0.011-0.347 0.027v0.72h0.368c0.325 0 0.477-0.135 0.477-0.368 0-0.222-0.157-0.379-0.498-0.379zM15.343 21.097c0 0.634-0.639 1.056-1.365 1.056h-1.332v-3.498c0.444-0.065 0.78-0.108 1.175-0.108 0.731 0 1.316 0.341 1.316 0.937 0 0.341-0.179 0.569-0.498 0.693 0.493 0.141 0.704 0.439 0.704 0.921z"></path>
<path d="M17.287 21.46v-0.466h-0.157c-0.368 0-0.704 0.081-0.704 0.336 0 0.195 0.13 0.265 0.395 0.265 0.211 0 0.384-0.065 0.466-0.135zM18.083 20.447v1.424c-0.292 0.222-0.764 0.341-1.403 0.341-0.569 0-1.040-0.233-1.040-0.747 0-0.774 0.753-0.964 1.646-0.991-0.016-0.336-0.152-0.422-0.45-0.422-0.157 0-0.574 0.070-0.628 0.070-0.13 0-0.233-0.081-0.32-0.319l-0.065-0.195c0.336-0.125 0.666-0.211 1.024-0.211 0.78 0 1.235 0.292 1.235 1.051z"></path>
<path d="M21.065 20.225v1.928h-0.812v-1.641c0-0.287-0.189-0.433-0.52-0.433-0.125 0-0.244 0.016-0.347 0.043v2.031h-0.818l0.005-2.41c0.341-0.227 0.893-0.352 1.343-0.352 0.623 0 1.148 0.309 1.148 0.834z"></path>
<path d="M21.625 19.467c0.114-0.049 0.255-0.076 0.412-0.076s0.292 0.027 0.406 0.076v2.686h-0.818v-2.686zM21.614 18.611c0-0.227 0.19-0.417 0.417-0.417 0.233 0 0.422 0.184 0.422 0.417 0 0.222-0.189 0.417-0.422 0.417-0.227 0-0.417-0.184-0.417-0.417z"></path>
<path d="M23.753 21.584c0.206 0 0.395-0.076 0.395-0.211s-0.125-0.2-0.422-0.282c-0.487-0.125-0.742-0.417-0.742-0.796 0-0.617 0.504-0.926 1.245-0.926 0.265 0 0.574 0.060 0.699 0.114 0 0.206-0.076 0.487-0.195 0.644-0.179-0.065-0.352-0.103-0.498-0.103-0.265 0-0.433 0.065-0.433 0.211 0 0.108 0.135 0.201 0.401 0.292 0.52 0.173 0.785 0.352 0.785 0.769 0 0.617-0.466 0.921-1.224 0.921-0.282 0-0.45-0.022-0.753-0.070-0.033-0.114-0.049-0.227-0.049-0.347 0-0.141 0.022-0.26 0.065-0.363 0.298 0.098 0.536 0.146 0.726 0.146z"></path>
<path d="M27.035 21.476c0.087 0.13 0.114 0.347 0.114 0.661-0.103 0.043-0.347 0.076-0.585 0.076-0.661 0-0.964-0.189-0.964-0.818v-1.305h-0.406c0-0.536 0.661-1.24 1.219-1.37v0.72h0.802c0 0.195-0.060 0.509-0.201 0.65h-0.601v1.105c0 0.26 0.065 0.336 0.309 0.336 0.119 0 0.206-0.022 0.314-0.054z"></path>
<path d="M31.833 20.225v1.928h-0.807v-1.641c0-0.287-0.184-0.433-0.509-0.433-0.152 0-0.298 0.033-0.417 0.081 0.043 0.119 0.065 0.249 0.065 0.39v1.603h-0.807v-1.641c0-0.287-0.184-0.433-0.509-0.433-0.125 0-0.244 0.016-0.347 0.043v2.031h-0.818l0.005-2.41c0.325-0.227 0.834-0.352 1.262-0.352 0.341 0 0.634 0.114 0.845 0.298 0.276-0.179 0.661-0.298 0.986-0.298 0.59 0 1.051 0.314 1.051 0.834z"></path>
<path d="M34.194 20.793c0-0.444-0.217-0.704-0.596-0.704-0.368 0-0.596 0.26-0.596 0.704 0 0.466 0.222 0.709 0.596 0.709 0.379 0 0.596-0.244 0.596-0.709zM32.185 20.793c0-0.866 0.585-1.408 1.413-1.408 0.861 0 1.413 0.563 1.413 1.408 0 0.872-0.558 1.413-1.413 1.413-0.861 0-1.413-0.558-1.413-1.413z"></path>
<path d="M21.439 12.024c0.044 0.17 0.216 0.257 0.391 0.2 1.431-0.437 2.866-0.736 4.346-0.953 0.17-0.022 0.263-0.196 0.2-0.371-0.131-0.368-0.198-0.551-0.332-0.917-0.057-0.155-0.211-0.257-0.369-0.24-1.447 0.177-2.845 0.438-4.246 0.841-0.183 0.057-0.294 0.259-0.248 0.439 0.102 0.4 0.154 0.6 0.258 1.002z"></path>
<path d="M27.24 12.225c-0.056-0.164-0.206-0.274-0.355-0.255-2.265 0.286-4.471 0.842-6.562 1.759-0.153 0.072-0.244 0.262-0.212 0.43 0.082 0.429 0.123 0.644 0.207 1.073 0.036 0.184 0.209 0.268 0.379 0.186 2.125-0.965 4.369-1.579 6.672-1.945 0.146-0.024 0.221-0.19 0.165-0.361-0.116-0.355-0.175-0.532-0.294-0.886z"></path>
<path d="M27.234 14.62c-0.056-0.175-0.22-0.29-0.376-0.258-1.414 0.304-2.796 0.671-4.166 1.138-0.174 0.063-0.272 0.245-0.226 0.412 0.109 0.398 0.164 0.598 0.274 0.997 0.052 0.188 0.264 0.284 0.46 0.21 1.369-0.486 2.752-0.911 4.164-1.251 0.136-0.033 0.202-0.19 0.152-0.353-0.111-0.359-0.168-0.537-0.282-0.895z"></path>
</svg>
