<svg version="1.1" xmlns="http://www.w3.org/2000/svg" width="112" height="32" viewBox="0 0 112 32">
<title>Gestor-transaccional</title>
<path d="M8.266 14.080c0.105 0.401 0.514 0.608 0.929 0.472 3.404-1.032 6.817-1.738 10.339-2.252 0.404-0.053 0.624-0.464 0.476-0.876-0.313-0.869-0.471-1.302-0.79-2.166-0.136-0.367-0.503-0.607-0.878-0.567-3.441 0.418-6.766 1.035-10.098 1.986-0.434 0.134-0.7 0.613-0.591 1.037 0.243 0.945 0.366 1.418 0.614 2.366z"></path>
<path d="M21.901 14.588c-0.131-0.389-0.487-0.649-0.84-0.603-5.351 0.678-10.561 1.993-15.502 4.166-0.36 0.169-0.577 0.62-0.501 1.017 0.194 1.016 0.291 1.524 0.489 2.542 0.085 0.435 0.493 0.636 0.897 0.44 5.018-2.285 10.322-3.739 15.763-4.607 0.346-0.056 0.522-0.45 0.39-0.856-0.274-0.841-0.413-1.261-0.696-2.098z"></path>
<path d="M21.941 20.268c-0.132-0.418-0.518-0.691-0.884-0.615-3.324 0.725-6.574 1.6-9.793 2.713-0.408 0.151-0.638 0.584-0.531 0.983 0.256 0.949 0.385 1.425 0.644 2.378 0.122 0.447 0.621 0.676 1.081 0.5 3.218-1.159 6.468-2.171 9.789-2.983 0.319-0.078 0.475-0.454 0.357-0.841-0.261-0.855-0.394-1.282-0.663-2.133z"></path>
<path d="M34.6 10.154c0.144-0.126 0.315-0.189 0.513-0.189 0.072 0 0.171 0.018 0.297 0.054v2.985c-0.378 0.414-0.873 0.734-1.486 0.959-0.603 0.216-1.287 0.324-2.053 0.324-0.801 0-1.513-0.176-2.134-0.527-0.612-0.36-1.089-0.882-1.431-1.567-0.342-0.693-0.513-1.517-0.513-2.471 0-0.927 0.171-1.729 0.513-2.404 0.342-0.684 0.819-1.202 1.431-1.553 0.612-0.36 1.323-0.54 2.134-0.54 0.72 0 1.359 0.122 1.918 0.365 0.558 0.234 1.022 0.567 1.391 0.999-0.045 0.144-0.122 0.266-0.23 0.365-0.099 0.099-0.216 0.167-0.351 0.203-0.27-0.387-0.635-0.684-1.094-0.891-0.459-0.216-1.004-0.324-1.634-0.324-1.008 0-1.805 0.338-2.39 1.013-0.576 0.666-0.864 1.589-0.864 2.769 0 1.206 0.293 2.152 0.878 2.836 0.585 0.675 1.377 1.013 2.377 1.013 1.116 0 2.026-0.257 2.728-0.77v-2.647z"></path>
<path d="M37.28 10.964v0.041c0 0.783 0.198 1.413 0.594 1.891 0.405 0.468 0.968 0.702 1.688 0.702 0.324 0 0.666-0.036 1.026-0.108 0.369-0.081 0.68-0.18 0.932-0.297 0.18 0.126 0.288 0.333 0.324 0.621-0.738 0.324-1.522 0.486-2.35 0.486-0.945 0-1.684-0.302-2.215-0.905s-0.797-1.4-0.797-2.39c0-1.179 0.266-2.089 0.797-2.728 0.54-0.648 1.269-0.972 2.188-0.972 0.801 0 1.436 0.27 1.904 0.81 0.468 0.531 0.702 1.256 0.702 2.174 0 0.207-0.023 0.432-0.068 0.675h-4.727zM39.373 7.966c-0.567 0-1.035 0.194-1.404 0.581-0.36 0.387-0.581 0.986-0.662 1.796h3.916c0.009-0.027 0.014-0.072 0.014-0.135 0-0.738-0.167-1.296-0.5-1.675s-0.788-0.567-1.364-0.567z"></path>
<path d="M43.371 13.3c0.72 0.216 1.319 0.324 1.796 0.324 0.459 0 0.842-0.108 1.148-0.324 0.315-0.225 0.473-0.509 0.473-0.851 0-0.351-0.122-0.621-0.365-0.81s-0.662-0.392-1.256-0.608c-0.594-0.225-1.040-0.486-1.337-0.783-0.288-0.297-0.432-0.657-0.432-1.080 0-0.621 0.221-1.085 0.662-1.391 0.441-0.315 1.035-0.473 1.783-0.473 0.306 0 0.617 0.027 0.932 0.081s0.54 0.113 0.675 0.176c0 0.090-0.018 0.198-0.054 0.324-0.027 0.126-0.068 0.243-0.122 0.351-0.468-0.171-0.914-0.257-1.337-0.257-1.161 0-1.742 0.365-1.742 1.094 0 0.279 0.103 0.527 0.311 0.743s0.576 0.419 1.107 0.608c0.747 0.27 1.265 0.549 1.553 0.837s0.432 0.653 0.432 1.094c0 0.639-0.239 1.125-0.716 1.458-0.468 0.324-1.071 0.486-1.81 0.486-0.567 0-1.134-0.077-1.702-0.23-0.045-0.099-0.068-0.23-0.068-0.392 0-0.171 0.023-0.297 0.068-0.378z"></path>
<path d="M52.458 13.462c0.144 0.117 0.216 0.333 0.216 0.648-0.108 0.054-0.275 0.099-0.5 0.135s-0.486 0.054-0.783 0.054c-0.594 0-1.035-0.135-1.323-0.405s-0.432-0.729-0.432-1.377v-4.416h-0.797c0-0.198 0.076-0.419 0.23-0.662 0.162-0.252 0.365-0.468 0.608-0.648 0.243-0.189 0.491-0.302 0.743-0.338v0.986h2.174c0 0.108-0.023 0.225-0.068 0.351-0.036 0.126-0.095 0.23-0.176 0.311h-1.931v4.213c0 0.468 0.086 0.797 0.257 0.986s0.464 0.284 0.878 0.284c0.162 0 0.302-0.009 0.419-0.027s0.279-0.050 0.486-0.095z"></path>
<path d="M56.749 14.286c-0.63 0-1.184-0.144-1.661-0.432s-0.846-0.693-1.107-1.215c-0.261-0.522-0.392-1.13-0.392-1.823 0-0.684 0.131-1.292 0.392-1.823s0.63-0.945 1.107-1.242c0.477-0.297 1.031-0.446 1.661-0.446s1.184 0.149 1.661 0.446 0.846 0.711 1.107 1.242c0.261 0.531 0.392 1.139 0.392 1.823 0 0.693-0.131 1.305-0.392 1.837-0.261 0.522-0.63 0.927-1.107 1.215-0.477 0.279-1.031 0.419-1.661 0.419zM56.749 13.57c0.738 0 1.314-0.239 1.729-0.716 0.423-0.477 0.635-1.157 0.635-2.039 0-0.873-0.212-1.558-0.635-2.053-0.414-0.495-0.99-0.743-1.729-0.743s-1.319 0.248-1.742 0.743c-0.414 0.495-0.621 1.179-0.621 2.053 0 0.882 0.207 1.562 0.621 2.039s0.995 0.716 1.742 0.716z"></path>
<path d="M64.709 7.372c0.054 0.090 0.081 0.212 0.081 0.365 0 0.162-0.027 0.306-0.081 0.432-0.162-0.027-0.324-0.041-0.486-0.041-0.279 0-0.594 0.095-0.945 0.284-0.342 0.18-0.594 0.41-0.756 0.689v5.051h-0.783v-6.698c0.315 0 0.522 0.081 0.621 0.243 0.108 0.153 0.162 0.36 0.162 0.621 0.243-0.324 0.554-0.563 0.932-0.716 0.387-0.153 0.765-0.23 1.134-0.23h0.122z"></path>
<path d="M34.032 18.326c0 0.549-0.054 1.035-0.162 1.459h-2.323v7.387h-1.756v-7.387h-2.498c0-0.63 0.054-1.116 0.162-1.459h6.577z"></path>
<path d="M38.147 20.312c0.135 0.198 0.203 0.464 0.203 0.797 0 0.18-0.018 0.36-0.054 0.54-0.036 0.171-0.086 0.306-0.149 0.405-0.234-0.063-0.428-0.095-0.581-0.095-0.306 0-0.572 0.077-0.797 0.23-0.216 0.144-0.414 0.356-0.594 0.635v4.349h-1.729v-6.725c0.837 0 1.373 0.284 1.607 0.851 0.234-0.333 0.518-0.581 0.851-0.743 0.342-0.162 0.707-0.243 1.094-0.243h0.148z"></path>
<path d="M41.718 20.312c0.9 0 1.598 0.203 2.093 0.608 0.495 0.396 0.743 1.067 0.743 2.012v4.241c-0.396 0-0.734-0.081-1.013-0.243-0.27-0.162-0.459-0.374-0.567-0.635-0.261 0.351-0.594 0.608-0.999 0.77-0.396 0.162-0.779 0.243-1.148 0.243-0.279 0-0.567-0.058-0.864-0.176-0.297-0.126-0.549-0.329-0.756-0.608s-0.311-0.63-0.311-1.053c0-0.918 0.378-1.544 1.134-1.877 0.765-0.342 1.715-0.527 2.849-0.554-0.009-0.531-0.113-0.887-0.311-1.067-0.189-0.18-0.482-0.27-0.878-0.27-0.324 0-0.675 0.045-1.053 0.135-0.252 0.054-0.423 0.081-0.513 0.081-0.144 0-0.27-0.049-0.378-0.149s-0.207-0.275-0.297-0.527l-0.149-0.419c0.882-0.342 1.688-0.513 2.417-0.513zM41.326 25.984c0.306 0 0.576-0.081 0.81-0.243s0.414-0.365 0.54-0.608c0.135-0.243 0.203-0.482 0.203-0.716v-0.257h-0.365c-0.666 0-1.161 0.108-1.486 0.324-0.315 0.207-0.473 0.455-0.473 0.743 0 0.207 0.072 0.387 0.216 0.54 0.153 0.144 0.338 0.216 0.554 0.216z"></path>
<path d="M50 20.312c0.693 0 1.247 0.203 1.661 0.608s0.621 0.945 0.621 1.621v4.632h-1.729v-4.213c0-0.342-0.122-0.626-0.365-0.851-0.234-0.225-0.567-0.338-0.999-0.338-0.36 0-0.698 0.068-1.013 0.203v5.199h-1.729v-6.725c0.747 0 1.256 0.23 1.526 0.689 0.279-0.288 0.594-0.495 0.945-0.621 0.36-0.135 0.72-0.203 1.080-0.203z"></path>
<path d="M53.947 25.552c0.441 0.144 0.797 0.252 1.067 0.324 0.27 0.063 0.513 0.095 0.729 0.095 0.324 0 0.585-0.058 0.783-0.176s0.297-0.279 0.297-0.486c0-0.225-0.086-0.392-0.257-0.5-0.162-0.108-0.473-0.239-0.932-0.392-0.558-0.189-0.986-0.446-1.283-0.77-0.297-0.333-0.446-0.734-0.446-1.202 0-0.729 0.261-1.274 0.783-1.634 0.531-0.369 1.233-0.554 2.107-0.554 0.279 0 0.567 0.018 0.864 0.054 0.297 0.027 0.522 0.058 0.675 0.095 0 0.216-0.036 0.455-0.108 0.716s-0.171 0.482-0.297 0.662c-0.468-0.090-0.815-0.135-1.040-0.135-0.432 0-0.752 0.058-0.959 0.176-0.198 0.117-0.297 0.293-0.297 0.527 0 0.333 0.288 0.59 0.864 0.77 0.756 0.252 1.296 0.531 1.621 0.837s0.486 0.743 0.486 1.31c0 0.648-0.279 1.157-0.837 1.526-0.549 0.36-1.224 0.54-2.026 0.54-0.342 0-0.644-0.014-0.905-0.041s-0.558-0.072-0.891-0.135c-0.117-0.243-0.176-0.495-0.176-0.756 0-0.333 0.059-0.617 0.176-0.851z"></path>
<path d="M62.318 20.312c0.9 0 1.598 0.203 2.093 0.608 0.495 0.396 0.743 1.067 0.743 2.012v4.241c-0.396 0-0.734-0.081-1.013-0.243-0.27-0.162-0.459-0.374-0.567-0.635-0.261 0.351-0.594 0.608-0.999 0.77-0.396 0.162-0.779 0.243-1.148 0.243-0.279 0-0.567-0.058-0.864-0.176-0.297-0.126-0.549-0.329-0.756-0.608s-0.311-0.63-0.311-1.053c0-0.918 0.378-1.544 1.134-1.877 0.765-0.342 1.715-0.527 2.849-0.554-0.009-0.531-0.113-0.887-0.311-1.067-0.189-0.18-0.482-0.27-0.878-0.27-0.324 0-0.675 0.045-1.053 0.135-0.252 0.054-0.423 0.081-0.513 0.081-0.144 0-0.27-0.049-0.378-0.149s-0.207-0.275-0.297-0.527l-0.149-0.419c0.882-0.342 1.688-0.513 2.417-0.513zM61.926 25.984c0.306 0 0.576-0.081 0.81-0.243s0.414-0.365 0.54-0.608c0.135-0.243 0.203-0.482 0.203-0.716v-0.257h-0.365c-0.666 0-1.161 0.108-1.486 0.324-0.315 0.207-0.473 0.455-0.473 0.743 0 0.207 0.072 0.387 0.216 0.54 0.153 0.144 0.338 0.216 0.554 0.216z"></path>
<path d="M71.802 26.875c-0.333 0.144-0.684 0.252-1.053 0.324-0.36 0.072-0.693 0.108-0.999 0.108-0.991 0-1.778-0.297-2.363-0.891-0.585-0.603-0.878-1.449-0.878-2.539 0-1.125 0.333-2.003 0.999-2.633 0.666-0.639 1.571-0.959 2.715-0.959 0.468 0 0.995 0.077 1.58 0.23-0.036 0.279-0.108 0.54-0.216 0.783-0.099 0.243-0.216 0.437-0.351 0.581-0.108-0.036-0.257-0.067-0.446-0.095-0.18-0.027-0.319-0.041-0.419-0.041-0.711 0-1.234 0.189-1.567 0.567-0.324 0.378-0.486 0.9-0.486 1.567 0 0.585 0.148 1.049 0.445 1.391s0.775 0.513 1.431 0.513c0.351 0 0.784-0.095 1.296-0.284l0.311 1.377z"></path>
<path d="M77.71 26.875c-0.333 0.144-0.684 0.252-1.053 0.324-0.36 0.072-0.693 0.108-0.999 0.108-0.991 0-1.778-0.297-2.363-0.891-0.585-0.603-0.878-1.449-0.878-2.539 0-1.125 0.333-2.003 0.999-2.633 0.666-0.639 1.571-0.959 2.715-0.959 0.468 0 0.995 0.077 1.58 0.23-0.036 0.279-0.108 0.54-0.216 0.783-0.099 0.243-0.216 0.437-0.351 0.581-0.108-0.036-0.257-0.067-0.446-0.095-0.18-0.027-0.319-0.041-0.419-0.041-0.711 0-1.233 0.189-1.567 0.567-0.324 0.378-0.486 0.9-0.486 1.567 0 0.585 0.148 1.049 0.445 1.391s0.775 0.513 1.431 0.513c0.351 0 0.784-0.095 1.297-0.284l0.31 1.377z"></path>
<path d="M79.98 19.312c-0.27 0-0.5-0.090-0.689-0.27-0.189-0.189-0.283-0.414-0.283-0.675s0.095-0.486 0.283-0.675c0.189-0.189 0.419-0.284 0.689-0.284s0.504 0.095 0.702 0.284c0.199 0.18 0.297 0.405 0.297 0.675 0 0.252-0.099 0.473-0.297 0.662s-0.432 0.284-0.702 0.284zM79.129 20.474c0.252-0.108 0.54-0.162 0.865-0.162 0.333 0 0.621 0.054 0.864 0.162v6.698h-1.729v-6.698z"></path>
<path d="M85.697 27.307c-0.675 0-1.265-0.144-1.769-0.432s-0.896-0.698-1.175-1.229c-0.27-0.531-0.406-1.152-0.406-1.864 0-0.693 0.135-1.301 0.406-1.823 0.279-0.531 0.671-0.941 1.175-1.229 0.513-0.297 1.103-0.446 1.769-0.446 0.675 0 1.265 0.149 1.769 0.446 0.504 0.288 0.891 0.698 1.161 1.229 0.279 0.522 0.419 1.13 0.419 1.823 0 0.72-0.139 1.346-0.419 1.877-0.27 0.531-0.657 0.941-1.161 1.229-0.504 0.279-1.094 0.419-1.769 0.419zM85.697 25.822c0.513 0 0.909-0.171 1.189-0.513 0.288-0.351 0.432-0.86 0.432-1.526 0-0.639-0.144-1.134-0.432-1.486-0.279-0.351-0.675-0.527-1.189-0.527-0.504 0-0.901 0.18-1.189 0.54-0.288 0.351-0.432 0.842-0.432 1.472 0 0.666 0.14 1.175 0.419 1.526 0.279 0.342 0.68 0.513 1.202 0.513z"></path>
<path d="M94.088 20.312c0.694 0 1.247 0.203 1.661 0.608s0.621 0.945 0.621 1.621v4.632h-1.729v-4.213c0-0.342-0.121-0.626-0.364-0.851-0.234-0.225-0.567-0.338-1-0.338-0.36 0-0.697 0.068-1.013 0.203v5.199h-1.729v-6.725c0.748 0 1.257 0.23 1.526 0.689 0.279-0.288 0.594-0.495 0.946-0.621 0.36-0.135 0.72-0.203 1.080-0.203z"></path>
<path d="M100.551 20.312c0.901 0 1.598 0.203 2.093 0.608 0.495 0.396 0.743 1.067 0.743 2.012v4.241c-0.396 0-0.734-0.081-1.013-0.243-0.27-0.162-0.459-0.374-0.567-0.635-0.261 0.351-0.594 0.608-0.999 0.77-0.396 0.162-0.779 0.243-1.148 0.243-0.279 0-0.567-0.058-0.864-0.176-0.297-0.126-0.549-0.329-0.756-0.608s-0.311-0.63-0.311-1.053c0-0.918 0.378-1.544 1.134-1.877 0.765-0.342 1.715-0.527 2.849-0.554-0.008-0.531-0.112-0.887-0.31-1.067-0.189-0.18-0.482-0.27-0.878-0.27-0.325 0-0.675 0.045-1.053 0.135-0.252 0.054-0.423 0.081-0.513 0.081-0.144 0-0.27-0.049-0.378-0.149s-0.207-0.275-0.297-0.527l-0.149-0.419c0.882-0.342 1.688-0.513 2.418-0.513zM100.159 25.984c0.306 0 0.577-0.081 0.81-0.243s0.414-0.365 0.54-0.608c0.135-0.243 0.202-0.482 0.202-0.716v-0.257h-0.364c-0.666 0-1.161 0.108-1.486 0.324-0.315 0.207-0.472 0.455-0.472 0.743 0 0.207 0.072 0.387 0.216 0.54 0.153 0.144 0.338 0.216 0.554 0.216z"></path>
<path d="M105.083 18.407c0.189-0.144 0.464-0.27 0.823-0.378 0.37-0.117 0.671-0.176 0.905-0.176v9.318h-1.729v-8.765z"></path>
</svg>
