<svg version="1.1" xmlns="http://www.w3.org/2000/svg" width="304" height="32" viewBox="0 0 304 32">
<title>brand-GrupoBancolombia-endoso-positivo</title>
<path d="M50.407 13.853v7.108c-1.88 2.077-4.926 3.213-8.556 3.213-5.963 0-10.015-4.024-10.015-10.97 0-6.751 4.019-10.84 10.015-10.84 3.532 0 6.32 1.298 8.070 3.473-0.227 0.844-1.037 1.363-1.815 1.558-1.231-1.785-3.306-2.824-6.255-2.824-4.602 0-7.422 3.213-7.422 8.633 0 5.582 2.852 8.731 7.422 8.731 2.269 0 4.278-0.519 5.963-1.623v-6.004c0.681-0.649 1.718-0.747 2.593-0.454z"></path>
<path d="M61.719 9.764c-2.657 0-3.986 0.194-5.056 0.779v13.307h-2.495v-14.865c1.815-1.006 4.116-1.493 6.093-1.493 0.972 0 1.523 0.162 1.912 0.292 0 0.746-0.097 1.493-0.454 1.98z"></path>
<path d="M78.056 7.59v14.865c-1.231 0.876-4.796 1.493-6.806 1.493-3.792 0-6.223-1.396-6.223-5.29v-10.581c0.746-0.357 1.523-0.487 2.496-0.487v10.71c0 2.37 1.394 3.44 4.31 3.44 1.394 0 2.69-0.227 3.727-0.519v-13.177c0.681-0.357 1.653-0.454 2.495-0.454z"></path>
<path d="M94.066 15.602c0-3.375-1.88-6.004-6.352-6.004-0.907 0-1.847 0.13-2.82 0.357v11.392c0.972 0.357 2.171 0.649 3.468 0.649 3.532 0 5.704-1.883 5.704-6.394zM96.594 15.993c0 4.641-2.269 8.179-7.13 8.179-1.523 0-3.273-0.487-4.57-1.266v6.556c-0.518 0.487-1.75 0.844-2.495 0.844v-21.94c1.037-0.455 3.144-0.909 5.153-0.909 5.607 0 9.042 2.921 9.042 8.536z"></path>
<path d="M112.087 15.734c0-3.862-1.944-6.101-5.282-6.101-3.274 0-5.25 2.239-5.25 6.101 0 4.090 1.944 6.199 5.25 6.199 3.338 0 5.282-2.11 5.282-6.199zM98.996 15.735c0-5.063 3.144-8.341 7.811-8.341 4.764 0 7.81 3.343 7.81 8.341 0 5.226-3.079 8.439-7.81 8.439-4.764 0-7.811-3.311-7.811-8.439z"></path>
<path d="M19.221 18.291c-2.77 0.668-5.481 1.502-8.165 2.456-0.383 0.145-0.8-0.043-0.901-0.412-0.216-0.784-0.408-1.388-0.621-2.169-0.090-0.328 0.102-0.685 0.443-0.809 2.685-0.916 5.395-1.636 8.168-2.233 0.306-0.062 0.627 0.162 0.737 0.507 0.224 0.701 0.419 1.264 0.637 1.968 0.099 0.319-0.032 0.628-0.298 0.693zM5.323 16.796c-0.164-0.844-0.329-1.477-0.49-2.319-0.063-0.329 0.117-0.703 0.416-0.843 4.1-1.802 8.425-2.892 12.866-3.454 0.292-0.038 0.588 0.178 0.697 0.5 0.234 0.694 0.434 1.254 0.662 1.952 0.11 0.336-0.036 0.663-0.323 0.71-4.515 0.719-8.917 1.925-13.082 3.819-0.335 0.162-0.674-0.004-0.744-0.364zM7.32 7.209c2.747-0.79 5.487-1.303 8.324-1.65 0.31-0.033 0.612 0.167 0.724 0.471 0.263 0.718 0.478 1.29 0.736 2.012 0.122 0.343-0.060 0.684-0.392 0.728-2.902 0.427-5.716 1.014-8.522 1.871-0.342 0.113-0.679-0.059-0.766-0.392-0.204-0.788-0.39-1.393-0.591-2.178-0.090-0.353 0.13-0.751 0.487-0.862zM12.741 0.613c-6.922 0-12.534 5.612-12.534 12.534s5.612 12.534 12.534 12.534c6.922 0 12.534-5.611 12.534-12.534s-5.612-12.534-12.534-12.534z"></path>
<path d="M132.409 17.336c0-1.714-1.1-2.426-3.267-2.426h-2.588v4.852h2.555c2.103 0 3.3-0.841 3.3-2.426zM128.625 6.402c-0.679 0-1.391 0.065-2.070 0.162v4.302h2.199c1.941 0 2.847-0.809 2.847-2.199 0-1.326-0.938-2.264-2.976-2.264zM137.713 17.563c0 3.784-3.817 6.307-8.151 6.307h-7.957v-20.895c2.653-0.388 4.658-0.647 7.019-0.647 4.367 0 7.86 2.038 7.86 5.596 0 2.038-1.067 3.396-2.975 4.14 2.943 0.841 4.204 2.62 4.204 5.499z"></path>
<path d="M149.112 19.731v-2.782h-0.938c-2.2 0-4.205 0.485-4.205 2.006 0 1.164 0.776 1.585 2.361 1.585 1.262 0 2.297-0.388 2.782-0.808zM153.865 13.681v8.507c-1.747 1.326-4.561 2.038-8.377 2.038-3.397 0-6.211-1.391-6.211-4.463 0-4.625 4.496-5.758 9.833-5.919-0.097-2.006-0.906-2.523-2.685-2.523-0.937 0-3.428 0.421-3.751 0.421-0.777 0-1.391-0.485-1.909-1.908l-0.388-1.164c2.005-0.744 3.978-1.261 6.113-1.261 4.658 0 7.375 1.747 7.375 6.275z"></path>
<path d="M171.677 12.356v11.515h-4.852v-9.8c0-1.714-1.132-2.588-3.105-2.588-0.744 0-1.455 0.097-2.070 0.259v12.129h-4.884l0.032-14.393c2.038-1.358 5.337-2.102 8.021-2.102 3.72 0 6.858 1.844 6.858 4.981z"></path>
<path d="M173.777 15.98c0-5.66 3.947-8.636 9.057-8.636 1.423 0 2.717 0.194 4.269 0.55-0.193 1.617-0.873 3.040-1.617 3.849-0.549-0.162-1.455-0.291-1.973-0.291-3.266 0-4.593 1.682-4.593 4.237 0 2.587 1.23 4.172 4.302 4.172 0.841 0 1.811-0.162 3.008-0.582l0.873 3.881c-1.778 0.712-3.622 1.035-5.078 1.035-4.981 0-8.248-2.976-8.248-8.216z"></path>
<path d="M200.042 15.752c0-2.652-1.294-4.205-3.558-4.205-2.2 0-3.558 1.553-3.558 4.205 0 2.782 1.326 4.238 3.558 4.238 2.264 0 3.558-1.456 3.558-4.238zM188.043 15.753c0-5.175 3.493-8.41 8.442-8.41 5.143 0 8.442 3.364 8.442 8.41 0 5.208-3.331 8.442-8.442 8.442-5.143 0-8.442-3.331-8.442-8.442z"></path>
<path d="M207.676 3.107c1.132-0.841 3.59-1.552 4.884-1.552v22.318h-4.884v-20.765z"></path>
<path d="M227.311 15.752c0-2.652-1.294-4.205-3.558-4.205-2.199 0-3.558 1.553-3.558 4.205 0 2.782 1.327 4.238 3.558 4.238 2.264 0 3.558-1.456 3.558-4.238zM215.312 15.753c0-5.175 3.493-8.41 8.442-8.41 5.143 0 8.443 3.364 8.443 8.41 0 5.208-3.332 8.442-8.443 8.442-5.143 0-8.442-3.331-8.442-8.442z"></path>
<path d="M259.397 12.356v11.515h-4.819v-9.8c0-1.714-1.1-2.588-3.040-2.588-0.906 0-1.78 0.194-2.491 0.485 0.259 0.712 0.388 1.488 0.388 2.329v9.574h-4.819v-9.8c0-1.714-1.1-2.588-3.041-2.588-0.744 0-1.455 0.097-2.070 0.259v12.129h-4.884l0.032-14.393c1.941-1.358 4.982-2.102 7.537-2.102 2.037 0 3.784 0.679 5.046 1.779 1.649-1.067 3.946-1.779 5.886-1.779 3.526 0 6.275 1.876 6.275 4.981z"></path>
<path d="M274.179 15.528c0-2.976-1.552-4.043-4.043-4.043-1.003 0-1.811 0.194-2.523 0.518v8.119c0.874 0.129 1.714 0.194 2.491 0.194 2.846 0 4.075-2.199 4.075-4.787zM279 14.913c0 5.887-3.493 9.283-9.186 9.283-2.782 0-5.466-0.517-7.084-1.262v-19.827c1.133-0.841 3.623-1.552 4.885-1.552v7.666c1.391-1.197 3.073-1.844 4.592-1.844 4.82 0 6.793 3.332 6.793 7.536z"></path>
<path d="M281.75 7.828c0.679-0.291 1.52-0.453 2.458-0.453s1.746 0.162 2.424 0.453v16.043h-4.882v-16.043zM281.684 2.717c0-1.358 1.131-2.491 2.49-2.491 1.392 0 2.523 1.1 2.523 2.491 0 1.326-1.131 2.491-2.523 2.491-1.359 0-2.49-1.1-2.49-2.491z"></path>
<path d="M298.892 19.731v-2.782h-0.939c-2.199 0-4.203 0.485-4.203 2.006 0 1.164 0.774 1.585 2.361 1.585 1.26 0 2.295-0.388 2.781-0.808zM303.648 13.681v8.507c-1.746 1.326-4.56 2.038-8.379 2.038-3.396 0-6.21-1.391-6.21-4.463 0-4.625 4.497-5.758 9.834-5.919-0.099-2.006-0.906-2.523-2.685-2.523-0.939 0-3.429 0.421-3.753 0.421-0.774 0-1.389-0.485-1.908-1.908l-0.387-1.164c2.004-0.744 3.978-1.261 6.114-1.261 4.656 0 7.374 1.747 7.374 6.275z"></path>
</svg>
