<svg version="1.1" xmlns="http://www.w3.org/2000/svg" width="48" height="32" viewBox="0 0 48 32">
<title>brand-GrupoBancolombia-secundario-positivo</title>
<path d="M19.782 19.11v1.264c-0.334 0.369-0.875 0.571-1.519 0.571-1.059 0-1.778-0.716-1.778-1.951 0-1.201 0.713-1.928 1.778-1.928 0.627 0 1.122 0.231 1.433 0.618-0.040 0.15-0.184 0.242-0.322 0.277-0.219-0.317-0.587-0.502-1.111-0.502-0.817 0-1.318 0.571-1.318 1.535 0 0.993 0.506 1.553 1.318 1.553 0.403 0 0.759-0.093 1.059-0.289v-1.068c0.121-0.115 0.305-0.133 0.46-0.081z"></path>
<path d="M21.838 18.44c-0.451 0-0.676 0.035-0.857 0.139v2.367h-0.423v-2.644c0.308-0.179 0.698-0.265 1.033-0.265 0.165 0 0.258 0.029 0.324 0.052 0 0.133-0.017 0.265-0.077 0.352z"></path>
<path d="M24.63 18.036v2.644c-0.22 0.156-0.857 0.265-1.216 0.265-0.677 0-1.111-0.248-1.111-0.941v-1.882c0.133-0.064 0.272-0.087 0.446-0.087v1.905c0 0.421 0.249 0.612 0.77 0.612 0.249 0 0.48-0.040 0.666-0.092v-2.343c0.122-0.064 0.295-0.081 0.446-0.081z"></path>
<path d="M27.478 19.488c0-0.602-0.334-1.070-1.128-1.070-0.161 0-0.328 0.023-0.501 0.064v2.031c0.173 0.064 0.386 0.116 0.616 0.116 0.627 0 1.013-0.336 1.013-1.14zM27.927 19.558c0 0.827-0.403 1.458-1.266 1.458-0.271 0-0.581-0.087-0.812-0.226v1.169c-0.092 0.087-0.311 0.151-0.443 0.151v-3.911c0.184-0.081 0.558-0.162 0.915-0.162 0.996 0 1.606 0.521 1.606 1.521z"></path>
<path d="M30.785 19.482c0-0.669-0.338-1.058-0.918-1.058-0.569 0-0.913 0.388-0.913 1.058 0 0.709 0.338 1.075 0.913 1.075 0.58 0 0.918-0.366 0.918-1.075zM28.509 19.482c0-0.878 0.546-1.446 1.358-1.446 0.828 0 1.358 0.579 1.358 1.446 0 0.906-0.535 1.463-1.358 1.463-0.828 0-1.358-0.574-1.358-1.463z"></path>
<path d="M26.361 12.657c-1.072 0.258-2.12 0.581-3.159 0.95-0.148 0.056-0.309-0.017-0.349-0.159-0.084-0.303-0.158-0.537-0.24-0.839-0.035-0.127 0.039-0.265 0.171-0.313 1.039-0.354 2.087-0.633 3.16-0.864 0.118-0.024 0.243 0.063 0.285 0.196 0.087 0.271 0.162 0.489 0.247 0.761 0.038 0.123-0.012 0.243-0.115 0.268zM20.985 12.078c-0.063-0.326-0.127-0.571-0.19-0.897-0.024-0.127 0.045-0.272 0.161-0.326 1.586-0.697 3.259-1.119 4.977-1.336 0.113-0.015 0.227 0.069 0.27 0.194 0.091 0.268 0.168 0.485 0.256 0.755 0.042 0.13-0.014 0.256-0.125 0.274-1.747 0.278-3.449 0.745-5.060 1.477-0.129 0.063-0.261-0.001-0.288-0.141zM21.758 8.369c1.062-0.306 2.122-0.504 3.22-0.638 0.12-0.013 0.237 0.064 0.28 0.182 0.102 0.278 0.185 0.499 0.285 0.778 0.047 0.133-0.023 0.265-0.152 0.282-1.123 0.165-2.211 0.392-3.296 0.724-0.132 0.044-0.263-0.023-0.296-0.152-0.079-0.305-0.151-0.539-0.228-0.843-0.035-0.136 0.050-0.29 0.189-0.333zM23.855 5.818c-2.678 0-4.849 2.171-4.849 4.848s2.171 4.848 4.849 4.848 4.849-2.171 4.849-4.848c0-2.678-2.171-4.848-4.849-4.848z"></path>
<path d="M9.515 25.005c0-0.309-0.199-0.437-0.59-0.437h-0.467v0.873h0.462c0.38 0 0.596-0.151 0.596-0.437zM8.831 23.037c-0.123 0-0.251 0.012-0.374 0.029v0.775h0.397c0.35 0 0.514-0.146 0.514-0.396 0-0.239-0.169-0.408-0.537-0.408zM10.473 25.046c0 0.681-0.689 1.136-1.472 1.136h-1.437v-3.762c0.479-0.070 0.841-0.117 1.268-0.117 0.789 0 1.419 0.367 1.419 1.008 0 0.367-0.193 0.611-0.537 0.745 0.531 0.151 0.759 0.472 0.759 0.99z"></path>
<path d="M12.56 25.404v-0.481h-0.162c-0.38 0-0.727 0.084-0.727 0.347 0 0.201 0.134 0.274 0.408 0.274 0.218 0 0.397-0.067 0.481-0.14zM13.382 24.358v1.471c-0.302 0.229-0.788 0.352-1.448 0.352-0.587 0-1.073-0.241-1.073-0.772 0-0.8 0.777-0.996 1.7-1.024-0.017-0.347-0.157-0.436-0.464-0.436-0.162 0-0.593 0.073-0.648 0.073-0.134 0-0.24-0.084-0.33-0.33l-0.067-0.201c0.347-0.129 0.688-0.218 1.057-0.218 0.805 0 1.275 0.302 1.275 1.085z"></path>
<path d="M16.485 24.151v2.031h-0.883v-1.728c0-0.302-0.206-0.456-0.566-0.456-0.135 0-0.265 0.017-0.377 0.046v2.139h-0.889l0.006-2.538c0.371-0.239 0.972-0.371 1.461-0.371 0.677 0 1.249 0.325 1.249 0.878z"></path>
<path d="M16.873 24.669c0-1.042 0.689-1.59 1.582-1.59 0.249 0 0.474 0.036 0.746 0.101-0.034 0.298-0.153 0.56-0.282 0.709-0.096-0.030-0.254-0.054-0.345-0.054-0.57 0-0.802 0.31-0.802 0.78 0 0.476 0.215 0.768 0.751 0.768 0.147 0 0.316-0.030 0.525-0.107l0.153 0.715c-0.311 0.131-0.633 0.19-0.887 0.19-0.87 0-1.44-0.548-1.44-1.513z"></path>
<path d="M21.599 24.627c0-0.488-0.238-0.774-0.654-0.774-0.404 0-0.654 0.286-0.654 0.774 0 0.512 0.244 0.78 0.654 0.78 0.416 0 0.654-0.268 0.654-0.78zM19.394 24.627c0-0.953 0.642-1.549 1.552-1.549 0.945 0 1.552 0.619 1.552 1.549 0 0.959-0.612 1.554-1.552 1.554-0.945 0-1.552-0.613-1.552-1.554z"></path>
<path d="M23.079 22.392c0.18-0.153 0.57-0.283 0.776-0.283v4.073h-0.776v-3.789z"></path>
<path d="M26.448 24.627c0-0.488-0.238-0.774-0.654-0.774-0.404 0-0.654 0.286-0.654 0.774 0 0.512 0.244 0.78 0.654 0.78 0.416 0 0.654-0.268 0.654-0.78zM24.242 24.627c0-0.953 0.642-1.549 1.552-1.549 0.945 0 1.552 0.619 1.552 1.549 0 0.959-0.612 1.554-1.552 1.554-0.945 0-1.552-0.613-1.552-1.554z"></path>
<path d="M32.194 24.151v2.031h-0.868v-1.728c0-0.302-0.198-0.456-0.547-0.456-0.163 0-0.32 0.034-0.448 0.086 0.047 0.125 0.070 0.262 0.070 0.411v1.688h-0.868v-1.728c0-0.302-0.198-0.456-0.547-0.456-0.134 0-0.262 0.017-0.373 0.046v2.139h-0.879l0.006-2.538c0.349-0.239 0.897-0.371 1.357-0.371 0.367 0 0.681 0.12 0.908 0.314 0.297-0.188 0.71-0.314 1.060-0.314 0.635 0 1.13 0.331 1.13 0.878z"></path>
<path d="M34.823 24.623c0-0.535-0.278-0.727-0.723-0.727-0.179 0-0.324 0.035-0.451 0.093v1.46c0.156 0.023 0.307 0.035 0.445 0.035 0.509 0 0.729-0.396 0.729-0.861zM35.685 24.512c0 1.059-0.624 1.67-1.642 1.67-0.497 0-0.977-0.093-1.267-0.227v-3.567c0.202-0.151 0.648-0.279 0.873-0.279v1.379c0.249-0.215 0.549-0.332 0.821-0.332 0.862 0 1.214 0.599 1.214 1.356z"></path>
<path d="M36.085 23.287c0.131-0.052 0.294-0.082 0.475-0.082s0.338 0.029 0.469 0.082v2.895h-0.944v-2.895zM36.073 22.364c0-0.245 0.219-0.449 0.482-0.449 0.269 0 0.488 0.198 0.488 0.449 0 0.239-0.219 0.45-0.488 0.45-0.263 0-0.482-0.199-0.482-0.45z"></path>
<path d="M39.13 25.404v-0.481h-0.162c-0.38 0-0.727 0.084-0.727 0.347 0 0.201 0.134 0.274 0.408 0.274 0.218 0 0.397-0.067 0.481-0.14zM39.952 24.358v1.471c-0.302 0.229-0.788 0.352-1.448 0.352-0.587 0-1.073-0.241-1.073-0.772 0-0.8 0.777-0.996 1.7-1.024-0.017-0.347-0.157-0.436-0.464-0.436-0.162 0-0.593 0.073-0.648 0.073-0.134 0-0.24-0.084-0.33-0.33l-0.067-0.201c0.347-0.129 0.688-0.218 1.057-0.218 0.805 0 1.275 0.302 1.275 1.085z"></path>
</svg>
