<svg version="1.1" xmlns="http://www.w3.org/2000/svg" width="115" height="32" viewBox="0 0 115 32">
<title>brand-GrupoBancolombia-primario-positivo</title>
<path d="M46.108 11.992v1.989c-0.526 0.581-1.379 0.899-2.395 0.899-1.669 0-2.803-1.126-2.803-3.070 0-1.889 1.125-3.034 2.803-3.034 0.989 0 1.769 0.363 2.258 0.972-0.063 0.236-0.29 0.382-0.508 0.436-0.345-0.5-0.925-0.79-1.751-0.79-1.288 0-2.077 0.899-2.077 2.416 0 1.562 0.798 2.443 2.077 2.443 0.635 0 1.197-0.145 1.669-0.454v-1.68c0.19-0.182 0.481-0.209 0.726-0.127z"></path>
<path d="M49.274 10.847c-0.744 0-1.115 0.054-1.415 0.218v3.724h-0.699v-4.16c0.508-0.282 1.152-0.418 1.705-0.418 0.272 0 0.426 0.045 0.535 0.082 0 0.209-0.027 0.418-0.127 0.554z"></path>
<path d="M53.846 10.238v4.16c-0.345 0.245-1.342 0.418-1.905 0.418-1.061 0-1.741-0.391-1.741-1.481v-2.961c0.208-0.1 0.426-0.136 0.698-0.136v2.998c0 0.663 0.39 0.963 1.207 0.963 0.39 0 0.753-0.063 1.043-0.145v-3.688c0.19-0.1 0.463-0.127 0.699-0.127z"></path>
<path d="M58.327 12.482c0-0.945-0.526-1.68-1.778-1.68-0.254 0-0.517 0.036-0.789 0.1v3.188c0.272 0.1 0.608 0.182 0.97 0.182 0.989 0 1.597-0.527 1.597-1.789zM59.035 12.591c0 1.299-0.635 2.289-1.996 2.289-0.426 0-0.916-0.136-1.279-0.354v1.835c-0.145 0.136-0.49 0.236-0.699 0.236v-6.14c0.29-0.127 0.88-0.254 1.442-0.254 1.569 0 2.531 0.817 2.531 2.389z"></path>
<path d="M63.371 12.518c0-1.081-0.544-1.708-1.479-1.708-0.916 0-1.469 0.627-1.469 1.708 0 1.145 0.544 1.735 1.469 1.735 0.934 0 1.479-0.59 1.479-1.735zM59.706 12.518c0-1.417 0.88-2.334 2.186-2.334 1.333 0 2.186 0.936 2.186 2.334 0 1.462-0.862 2.362-2.186 2.362-1.333 0-2.186-0.927-2.186-2.362z"></path>
<path d="M33.924 19.102c-1.695 0.409-3.354 0.919-4.996 1.503-0.235 0.089-0.489-0.026-0.552-0.252-0.132-0.48-0.25-0.849-0.38-1.328-0.055-0.201 0.063-0.419 0.271-0.495 1.643-0.561 3.302-1.001 4.999-1.367 0.187-0.038 0.384 0.099 0.451 0.31 0.137 0.429 0.256 0.774 0.39 1.204 0.060 0.195-0.020 0.385-0.182 0.424zM25.42 18.187c-0.1-0.516-0.202-0.904-0.3-1.419-0.038-0.201 0.071-0.43 0.254-0.516 2.509-1.102 5.155-1.77 7.873-2.113 0.179-0.023 0.36 0.109 0.426 0.306 0.144 0.425 0.266 0.767 0.405 1.194 0.067 0.206-0.022 0.406-0.198 0.434-2.763 0.44-5.457 1.178-8.006 2.337-0.205 0.099-0.412-0.002-0.455-0.223zM26.642 12.319c1.681-0.483 3.358-0.797 5.094-1.010 0.19-0.020 0.375 0.102 0.443 0.288 0.161 0.439 0.293 0.789 0.45 1.231 0.075 0.21-0.037 0.419-0.24 0.446-1.776 0.261-3.498 0.62-5.215 1.145-0.209 0.069-0.416-0.036-0.469-0.24-0.125-0.482-0.239-0.853-0.361-1.333-0.055-0.216 0.079-0.459 0.298-0.528zM29.959 8.284c-4.236 0-7.67 3.434-7.67 7.67s3.434 7.67 7.67 7.67c4.236 0 7.67-3.434 7.67-7.67s-3.434-7.67-7.67-7.67z"></path>
<path d="M43.977 21.218c0-0.481-0.309-0.681-0.917-0.681h-0.727v1.362h0.718c0.59 0 0.926-0.236 0.926-0.681zM42.914 18.148c-0.191 0-0.391 0.018-0.581 0.045v1.208h0.618c0.545 0 0.799-0.227 0.799-0.618 0-0.372-0.264-0.636-0.836-0.636zM45.467 21.282c0 1.063-1.072 1.771-2.289 1.771h-2.234v-5.868c0.745-0.109 1.308-0.182 1.971-0.182 1.226 0 2.207 0.572 2.207 1.571 0 0.572-0.3 0.954-0.836 1.163 0.827 0.236 1.181 0.736 1.181 1.544z"></path>
<path d="M48.667 21.891v-0.781h-0.264c-0.618 0-1.181 0.136-1.181 0.563 0 0.327 0.218 0.445 0.663 0.445 0.354 0 0.645-0.109 0.781-0.227zM50.003 20.192v2.389c-0.491 0.372-1.281 0.572-2.353 0.572-0.954 0-1.744-0.391-1.744-1.254 0-1.299 1.263-1.617 2.762-1.662-0.027-0.563-0.254-0.709-0.754-0.709-0.264 0-0.963 0.118-1.054 0.118-0.218 0-0.39-0.136-0.536-0.536l-0.109-0.327c0.563-0.209 1.117-0.354 1.717-0.354 1.308 0 2.071 0.491 2.071 1.762z"></path>
<path d="M55.004 19.82v3.234h-1.362v-2.752c0-0.481-0.318-0.727-0.872-0.727-0.209 0-0.409 0.027-0.581 0.073v3.406h-1.372l0.009-4.042c0.572-0.382 1.499-0.59 2.253-0.59 1.044 0 1.925 0.518 1.925 1.399z"></path>
<path d="M55.595 20.837c0-1.59 1.108-2.425 2.544-2.425 0.4 0 0.763 0.055 1.199 0.154-0.055 0.454-0.245 0.854-0.454 1.081-0.154-0.045-0.409-0.082-0.554-0.082-0.917 0-1.29 0.472-1.29 1.19 0 0.727 0.345 1.172 1.208 1.172 0.236 0 0.509-0.045 0.845-0.163l0.245 1.090c-0.499 0.2-1.017 0.291-1.426 0.291-1.399 0-2.316-0.836-2.316-2.307z"></path>
<path d="M62.971 20.773c0-0.745-0.364-1.181-0.999-1.181-0.618 0-0.999 0.436-0.999 1.181 0 0.781 0.372 1.19 0.999 1.19 0.636 0 0.999-0.409 0.999-1.19zM59.601 20.773c0-1.453 0.981-2.362 2.371-2.362 1.444 0 2.371 0.945 2.371 2.362 0 1.462-0.936 2.371-2.371 2.371-1.444 0-2.371-0.936-2.371-2.371z"></path>
<path d="M65.115 17.222c0.318-0.236 1.008-0.436 1.371-0.436v6.268h-1.371v-5.832z"></path>
<path d="M70.629 20.773c0-0.745-0.364-1.181-0.999-1.181-0.618 0-0.999 0.436-0.999 1.181 0 0.781 0.373 1.19 0.999 1.19 0.636 0 0.999-0.409 0.999-1.19zM67.258 20.773c0-1.453 0.981-2.362 2.371-2.362 1.444 0 2.371 0.945 2.371 2.362 0 1.462-0.936 2.371-2.371 2.371-1.444 0-2.371-0.936-2.371-2.371z"></path>
<path d="M79.639 19.82v3.234h-1.353v-2.752c0-0.481-0.309-0.727-0.854-0.727-0.254 0-0.499 0.055-0.699 0.136 0.073 0.2 0.109 0.418 0.109 0.654v2.689h-1.353v-2.752c0-0.481-0.309-0.727-0.854-0.727-0.209 0-0.409 0.027-0.581 0.073v3.406h-1.372l0.009-4.042c0.545-0.382 1.399-0.59 2.117-0.59 0.572 0 1.063 0.191 1.417 0.5 0.463-0.3 1.108-0.5 1.653-0.5 0.99 0 1.762 0.527 1.762 1.399z"></path>
<path d="M83.791 20.71c0-0.836-0.436-1.135-1.136-1.135-0.282 0-0.509 0.055-0.709 0.145v2.28c0.245 0.036 0.482 0.055 0.699 0.055 0.799 0 1.145-0.618 1.145-1.344zM85.144 20.537c0 1.653-0.981 2.607-2.579 2.607-0.781 0-1.535-0.145-1.99-0.354v-5.568c0.318-0.236 1.018-0.436 1.372-0.436v2.153c0.391-0.336 0.863-0.518 1.29-0.518 1.353 0 1.907 0.936 1.907 2.116z"></path>
<path d="M85.917 18.548c0.19-0.082 0.427-0.127 0.69-0.127s0.49 0.045 0.681 0.127v4.505h-1.371v-4.505zM85.898 17.113c0-0.381 0.318-0.699 0.699-0.699 0.39 0 0.709 0.309 0.709 0.699 0 0.372-0.318 0.699-0.709 0.699-0.382 0-0.699-0.309-0.699-0.699z"></path>
<path d="M90.731 21.891v-0.781h-0.264c-0.618 0-1.181 0.136-1.181 0.563 0 0.327 0.218 0.445 0.663 0.445 0.354 0 0.645-0.109 0.781-0.227zM92.066 20.192v2.389c-0.491 0.372-1.281 0.572-2.353 0.572-0.954 0-1.744-0.391-1.744-1.254 0-1.299 1.263-1.617 2.761-1.662-0.027-0.563-0.254-0.709-0.754-0.709-0.263 0-0.963 0.118-1.054 0.118-0.218 0-0.39-0.136-0.536-0.536l-0.109-0.327c0.563-0.209 1.117-0.354 1.717-0.354 1.308 0 2.071 0.491 2.071 1.762z"></path>
</svg>
