<svg version="1.1" xmlns="http://www.w3.org/2000/svg" width="91" height="32" viewBox="0 0 91 32">
<title>brand-GrupoBancolombia-Capital-positivo</title>
<path d="M27.683 29.585c-2.165 0-3.632-1.448-3.632-3.944 0-2.425 1.455-3.897 3.632-3.897 1.266 0 2.248 0.447 2.875 1.201-0.059 0.33-0.331 0.553-0.592 0.636-0.426-0.648-1.218-1.036-2.307-1.036-1.609 0-2.662 1.142-2.662 3.108 0 2.001 1.029 3.143 2.686 3.143 0.935 0 1.715-0.318 2.366-0.977l0.497 0.636c-0.639 0.706-1.633 1.13-2.863 1.13z"></path>
<path d="M36.034 25.393v3.602c-0.592 0.365-1.455 0.565-2.461 0.565-1.077 0-1.999-0.483-1.999-1.542 0-1.613 1.668-2.013 3.573-2.037v-0.389c0-1.012-0.45-1.271-1.325-1.271-0.414 0-1.384 0.259-1.502 0.259-0.178 0-0.308-0.094-0.402-0.365l-0.083-0.224c0.698-0.271 1.313-0.447 2.023-0.447 1.36 0 2.177 0.53 2.177 1.848zM35.135 28.501v-1.872h-0.296c-1.23 0-2.378 0.294-2.378 1.189 0 0.742 0.473 1.001 1.301 1.001 0.568 0.012 1.065-0.141 1.372-0.318z"></path>
<path d="M42.613 26.641c0 1.672-0.816 2.943-2.579 2.943-0.556 0-1.183-0.177-1.656-0.459v2.354c-0.189 0.177-0.639 0.306-0.899 0.306v-7.888c0.379-0.165 1.136-0.33 1.869-0.33 2.023 0 3.265 1.048 3.265 3.073zM41.702 26.5c0-1.213-0.686-2.166-2.295-2.166-0.331 0-0.674 0.047-1.017 0.13v4.097c0.355 0.13 0.781 0.235 1.254 0.235 1.266 0.012 2.059-0.671 2.059-2.296z"></path>
<path d="M43.842 21.897c0-0.341 0.296-0.624 0.639-0.624 0.355 0 0.651 0.271 0.651 0.624 0 0.33-0.296 0.612-0.651 0.612-0.343 0-0.639-0.271-0.639-0.612zM44.019 23.687c0.13-0.071 0.296-0.094 0.461-0.094 0.177 0 0.331 0.024 0.461 0.094v5.78h-0.911v-5.78h-0.012z"></path>
<path d="M49.865 29.431c-0.189 0.094-0.627 0.165-1.148 0.165-1.088 0-1.656-0.389-1.656-1.589v-3.614h-0.71c0-0.718 0.899-1.625 1.609-1.742v1.001h1.881c0 0.224-0.083 0.565-0.26 0.73h-1.621v3.402c0 0.753 0.248 1.024 0.911 1.024 0.284 0 0.461-0.035 0.793-0.118 0.154 0.141 0.201 0.4 0.201 0.742z"></path>
<path d="M55.401 25.393v3.602c-0.592 0.365-1.455 0.565-2.461 0.565-1.077 0-1.999-0.483-1.999-1.542 0-1.613 1.668-2.013 3.572-2.037v-0.389c0-1.012-0.45-1.271-1.325-1.271-0.414 0-1.384 0.259-1.502 0.259-0.177 0-0.307-0.094-0.402-0.365l-0.083-0.224c0.698-0.271 1.313-0.447 2.023-0.447 1.373 0 2.177 0.53 2.177 1.848zM54.514 28.501v-1.872h-0.295c-1.23 0-2.378 0.294-2.378 1.189 0 0.742 0.473 1.001 1.301 1.001 0.568 0.012 1.053-0.141 1.372-0.318z"></path>
<path d="M56.821 21.708c0.213-0.165 0.674-0.306 0.899-0.306v8.052h-0.899v-7.746z"></path>
<path d="M30.771 4.767v2.566c-0.686 0.753-1.786 1.154-3.1 1.154-2.165 0-3.632-1.448-3.632-3.956 0-2.437 1.455-3.908 3.632-3.908 1.278 0 2.283 0.471 2.922 1.248-0.083 0.306-0.379 0.494-0.663 0.565-0.45-0.647-1.195-1.012-2.26-1.012-1.668 0-2.686 1.154-2.686 3.108 0 2.013 1.029 3.143 2.686 3.143 0.816 0 1.55-0.188 2.165-0.589v-2.154c0.248-0.235 0.615-0.271 0.935-0.165z"></path>
<path d="M34.864 3.295c-0.958 0-1.443 0.071-1.834 0.283v4.791h-0.899v-5.356c0.663-0.365 1.491-0.542 2.212-0.542 0.355 0 0.556 0.059 0.698 0.106-0.012 0.271-0.047 0.542-0.177 0.718z"></path>
<path d="M40.791 2.506v5.357c-0.45 0.318-1.739 0.542-2.461 0.542-1.372 0-2.248-0.506-2.248-1.907v-3.814c0.272-0.13 0.556-0.177 0.899-0.177v3.861c0 0.859 0.509 1.236 1.562 1.236 0.509 0 0.97-0.082 1.349-0.188v-4.744c0.237-0.13 0.592-0.165 0.899-0.165z"></path>
<path d="M47.5 5.543c0 1.672-0.816 2.943-2.579 2.943-0.556 0-1.183-0.177-1.656-0.459v2.366c-0.189 0.177-0.639 0.306-0.899 0.306v-7.911c0.379-0.165 1.136-0.33 1.869-0.33 2.023 0 3.265 1.060 3.265 3.084zM46.589 5.402c0-1.213-0.686-2.166-2.295-2.166-0.331 0-0.674 0.047-1.017 0.13v4.109c0.355 0.13 0.781 0.235 1.254 0.235 1.266-0.012 2.058-0.683 2.058-2.307z"></path>
<path d="M48.361 5.449c0-1.825 1.136-3.002 2.828-3.002 1.727 0 2.827 1.201 2.827 3.002 0 1.884-1.112 3.037-2.827 3.037s-2.828-1.189-2.828-3.037zM53.105 5.449c0-1.389-0.71-2.201-1.916-2.201-1.184 0-1.905 0.812-1.905 2.201 0 1.472 0.71 2.237 1.905 2.237 1.218-0.012 1.916-0.765 1.916-2.237z"></path>
<path d="M9.926 0c-5.477 0-9.926 4.426-9.926 9.877s4.448 9.877 9.926 9.877 9.926-4.426 9.926-9.877c0-5.451-4.448-9.877-9.926-9.877zM5.631 5.192c2.177-0.624 4.342-1.024 6.589-1.295 0.248-0.024 0.485 0.13 0.568 0.377 0.213 0.565 0.379 1.012 0.58 1.589 0.095 0.271-0.047 0.542-0.308 0.577-2.295 0.341-4.531 0.801-6.743 1.472-0.272 0.094-0.532-0.047-0.603-0.306-0.166-0.624-0.308-1.095-0.473-1.719-0.059-0.294 0.106-0.612 0.39-0.695zM4.058 12.75c-0.13-0.659-0.26-1.165-0.39-1.825-0.047-0.259 0.095-0.553 0.331-0.659 3.242-1.424 6.672-2.284 10.186-2.719 0.237-0.035 0.461 0.141 0.556 0.388 0.189 0.542 0.343 0.989 0.521 1.542 0.083 0.271-0.024 0.518-0.26 0.565-3.573 0.565-7.063 1.519-10.363 3.014-0.26 0.106-0.532-0.024-0.58-0.306zM15.060 13.927c-2.189 0.53-4.342 1.189-6.459 1.931-0.308 0.118-0.639-0.035-0.71-0.33-0.166-0.612-0.319-1.095-0.497-1.707-0.071-0.259 0.083-0.542 0.355-0.636 2.129-0.718 4.271-1.295 6.471-1.754 0.237-0.047 0.497 0.13 0.58 0.4 0.177 0.553 0.331 1.001 0.509 1.554 0.059 0.247-0.036 0.483-0.248 0.542z"></path>
<path d="M29.944 16.73c0 1.366-1.384 2.284-2.958 2.284h-2.887v-7.558c0.958-0.141 1.692-0.235 2.555-0.235 1.585 0 2.851 0.742 2.851 2.025 0 0.742-0.39 1.224-1.077 1.495 1.053 0.306 1.514 0.954 1.514 1.99zM26.643 12.692c-0.248 0-0.509 0.024-0.757 0.059v1.554h0.804c0.71 0 1.029-0.294 1.029-0.801 0-0.471-0.343-0.812-1.077-0.812zM28.015 16.648c0-0.624-0.402-0.883-1.183-0.883h-0.935v1.754h0.923c0.757 0.012 1.195-0.294 1.195-0.871z"></path>
<path d="M35.812 15.329v3.073c-0.639 0.483-1.656 0.742-3.040 0.742-1.23 0-2.26-0.506-2.26-1.613 0-1.672 1.633-2.084 3.573-2.143-0.035-0.73-0.331-0.906-0.97-0.906-0.343 0-1.242 0.153-1.361 0.153-0.284 0-0.509-0.177-0.698-0.695l-0.142-0.424c0.733-0.271 1.443-0.459 2.224-0.459 1.692 0 2.674 0.636 2.674 2.272zM34.084 17.518v-1.001h-0.343c-0.804 0-1.526 0.177-1.526 0.73 0 0.424 0.284 0.577 0.864 0.577 0.45-0.012 0.828-0.153 1.006-0.306z"></path>
<path d="M42.284 14.846v4.168h-1.763v-3.544c0-0.624-0.414-0.93-1.124-0.93-0.272 0-0.532 0.035-0.757 0.094v4.391h-1.775l0.012-5.203c0.745-0.494 1.94-0.765 2.91-0.765 1.36-0.012 2.496 0.659 2.496 1.789z"></path>
<path d="M43.053 16.153c0-2.048 1.431-3.12 3.289-3.12 0.521 0 0.982 0.071 1.55 0.2-0.071 0.589-0.319 1.095-0.592 1.389-0.201-0.059-0.532-0.106-0.722-0.106-1.183 0-1.668 0.612-1.668 1.53 0 0.93 0.45 1.507 1.562 1.507 0.308 0 0.663-0.059 1.088-0.212l0.319 1.401c-0.651 0.259-1.313 0.377-1.846 0.377-1.798 0.012-2.981-1.071-2.981-2.967z"></path>
<path d="M48.234 16.082c0-1.872 1.266-3.037 3.064-3.037 1.869 0 3.064 1.213 3.064 3.037 0 1.884-1.206 3.049-3.064 3.049-1.869 0-3.064-1.201-3.064-3.049zM52.6 16.082c0-0.954-0.474-1.519-1.289-1.519-0.804 0-1.289 0.565-1.289 1.519 0 1.001 0.485 1.53 1.289 1.53 0.816 0 1.289-0.53 1.289-1.53z"></path>
<path d="M55.367 11.503c0.414-0.306 1.301-0.565 1.775-0.565v8.076h-1.775v-7.511z"></path>
<path d="M58.147 16.082c0-1.872 1.266-3.037 3.064-3.037 1.869 0 3.064 1.213 3.064 3.037 0 1.884-1.206 3.049-3.064 3.049-1.869 0-3.064-1.201-3.064-3.049zM62.5 16.082c0-0.954-0.473-1.519-1.289-1.519-0.804 0-1.289 0.565-1.289 1.519 0 1.001 0.485 1.53 1.289 1.53 0.816 0 1.289-0.53 1.289-1.53z"></path>
<path d="M74.165 14.847v4.167h-1.751v-3.543c0-0.624-0.402-0.93-1.1-0.93-0.332 0-0.651 0.071-0.911 0.177 0.094 0.259 0.142 0.542 0.142 0.848v3.461h-1.751v-3.543c0-0.624-0.402-0.93-1.1-0.93-0.272 0-0.532 0.035-0.757 0.094v4.391h-1.775l0.012-5.203c0.71-0.494 1.81-0.765 2.733-0.765 0.746 0 1.373 0.247 1.834 0.648 0.603-0.389 1.431-0.648 2.141-0.648 1.278-0.024 2.283 0.659 2.283 1.778z"></path>
<path d="M81.288 15.776c0 2.131-1.266 3.355-3.336 3.355-1.005 0-1.987-0.188-2.579-0.459v-7.169c0.414-0.306 1.313-0.565 1.775-0.565v2.767c0.509-0.436 1.112-0.671 1.668-0.671 1.751 0.012 2.472 1.224 2.472 2.743zM79.537 16c0-1.071-0.568-1.46-1.467-1.46-0.367 0-0.662 0.071-0.911 0.188v2.931c0.32 0.047 0.627 0.071 0.911 0.071 1.017 0 1.467-0.8 1.467-1.731z"></path>
<path d="M82.258 11.361c0-0.494 0.414-0.895 0.91-0.895 0.509 0 0.911 0.4 0.911 0.895 0 0.483-0.414 0.906-0.911 0.906s-0.91-0.4-0.91-0.906zM82.281 13.21c0.249-0.106 0.556-0.165 0.899-0.165s0.639 0.059 0.888 0.165v5.804h-1.775v-5.804h-0.012z"></path>
<path d="M90.243 15.329v3.073c-0.639 0.483-1.656 0.742-3.040 0.742-1.231 0-2.26-0.506-2.26-1.613 0-1.672 1.632-2.084 3.573-2.143-0.035-0.73-0.331-0.906-0.97-0.906-0.343 0-1.242 0.153-1.361 0.153-0.284 0-0.508-0.177-0.698-0.695l-0.142-0.424c0.734-0.271 1.444-0.459 2.224-0.459 1.68 0 2.674 0.636 2.674 2.272zM88.516 17.518v-1.001h-0.343c-0.805 0-1.526 0.177-1.526 0.73 0 0.424 0.284 0.577 0.864 0.577 0.45-0.012 0.828-0.153 1.005-0.306z"></path>
</svg>
