<svg version="1.1" xmlns="http://www.w3.org/2000/svg" width="48" height="32" viewBox="0 0 48 32">
<title>brand-Banitsmo-endoso-secundario-positivo</title>
<path d="M14.377 19.284c0-0.287-0.184-0.406-0.547-0.406h-0.433v0.812h0.428c0.352 0 0.552-0.141 0.552-0.406zM13.743 17.453c-0.114 0-0.233 0.011-0.347 0.027v0.72h0.368c0.325 0 0.477-0.135 0.477-0.368 0-0.222-0.157-0.379-0.498-0.379zM15.265 19.322c0 0.634-0.639 1.056-1.365 1.056h-1.332v-3.498c0.444-0.065 0.78-0.108 1.175-0.108 0.731 0 1.316 0.341 1.316 0.937 0 0.341-0.179 0.569-0.498 0.693 0.493 0.141 0.704 0.439 0.704 0.921z"></path>
<path d="M17.209 19.684v-0.466h-0.157c-0.368 0-0.704 0.081-0.704 0.336 0 0.195 0.13 0.265 0.395 0.265 0.211 0 0.384-0.065 0.466-0.135zM18.005 18.672v1.424c-0.292 0.222-0.764 0.341-1.403 0.341-0.569 0-1.040-0.233-1.040-0.747 0-0.774 0.753-0.964 1.646-0.991-0.016-0.336-0.152-0.422-0.45-0.422-0.157 0-0.574 0.070-0.628 0.070-0.13 0-0.233-0.081-0.32-0.319l-0.065-0.195c0.336-0.125 0.666-0.211 1.024-0.211 0.78 0 1.235 0.292 1.235 1.051z"></path>
<path d="M20.988 18.45v1.928h-0.812v-1.641c0-0.287-0.189-0.433-0.52-0.433-0.125 0-0.244 0.016-0.347 0.043v2.031h-0.818l0.005-2.41c0.341-0.227 0.894-0.352 1.343-0.352 0.623 0 1.148 0.309 1.148 0.834z"></path>
<path d="M21.547 17.692c0.114-0.049 0.255-0.076 0.412-0.076s0.292 0.027 0.406 0.076v2.686h-0.818v-2.686zM21.536 16.836c0-0.227 0.19-0.417 0.417-0.417 0.233 0 0.422 0.184 0.422 0.417 0 0.222-0.189 0.417-0.422 0.417-0.227 0-0.417-0.184-0.417-0.417z"></path>
<path d="M23.675 19.809c0.206 0 0.395-0.076 0.395-0.211s-0.125-0.2-0.422-0.282c-0.488-0.125-0.742-0.417-0.742-0.796 0-0.617 0.504-0.926 1.245-0.926 0.265 0 0.574 0.060 0.699 0.114 0 0.206-0.076 0.487-0.195 0.644-0.179-0.065-0.352-0.103-0.498-0.103-0.265 0-0.433 0.065-0.433 0.211 0 0.108 0.136 0.2 0.401 0.292 0.52 0.173 0.785 0.352 0.785 0.769 0 0.617-0.466 0.921-1.224 0.921-0.282 0-0.45-0.022-0.753-0.070-0.033-0.114-0.049-0.228-0.049-0.347 0-0.141 0.022-0.26 0.065-0.363 0.298 0.098 0.536 0.146 0.726 0.146z"></path>
<path d="M26.957 19.701c0.087 0.13 0.114 0.347 0.114 0.661-0.103 0.043-0.347 0.076-0.585 0.076-0.661 0-0.964-0.189-0.964-0.818v-1.305h-0.406c0-0.536 0.661-1.24 1.219-1.37v0.72h0.801c0 0.195-0.060 0.509-0.2 0.65h-0.601v1.105c0 0.26 0.065 0.336 0.309 0.336 0.119 0 0.206-0.022 0.314-0.054z"></path>
<path d="M31.755 18.45v1.928h-0.807v-1.641c0-0.287-0.184-0.433-0.509-0.433-0.152 0-0.298 0.033-0.417 0.081 0.043 0.119 0.065 0.249 0.065 0.39v1.603h-0.807v-1.641c0-0.287-0.184-0.433-0.509-0.433-0.125 0-0.244 0.016-0.347 0.043v2.031h-0.818l0.005-2.41c0.325-0.227 0.834-0.352 1.262-0.352 0.341 0 0.634 0.114 0.845 0.298 0.276-0.179 0.661-0.298 0.986-0.298 0.59 0 1.051 0.314 1.051 0.834z"></path>
<path d="M34.116 19.018c0-0.444-0.216-0.704-0.596-0.704-0.368 0-0.596 0.26-0.596 0.704 0 0.466 0.222 0.709 0.596 0.709 0.379 0 0.596-0.244 0.596-0.709zM32.107 19.018c0-0.866 0.585-1.408 1.413-1.408 0.861 0 1.413 0.563 1.413 1.408 0 0.872-0.558 1.413-1.413 1.413-0.861 0-1.413-0.558-1.413-1.413z"></path>
<path d="M21.362 10.249c0.044 0.17 0.216 0.257 0.391 0.2 1.431-0.437 2.866-0.736 4.346-0.953 0.17-0.023 0.263-0.196 0.2-0.371-0.131-0.368-0.198-0.551-0.332-0.917-0.057-0.155-0.211-0.257-0.369-0.24-1.447 0.177-2.845 0.438-4.246 0.841-0.183 0.057-0.294 0.259-0.248 0.439 0.102 0.4 0.154 0.6 0.258 1.002z"></path>
<path d="M27.163 10.45c-0.056-0.164-0.206-0.274-0.355-0.255-2.265 0.286-4.471 0.841-6.562 1.759-0.153 0.072-0.244 0.262-0.212 0.43 0.082 0.429 0.123 0.644 0.207 1.073 0.036 0.184 0.209 0.268 0.38 0.186 2.124-0.965 4.369-1.579 6.672-1.945 0.147-0.024 0.221-0.19 0.165-0.361-0.116-0.355-0.175-0.532-0.295-0.886z"></path>
<path d="M27.156 12.845c-0.056-0.175-0.22-0.29-0.376-0.258-1.414 0.304-2.796 0.671-4.166 1.138-0.174 0.063-0.272 0.245-0.226 0.412 0.109 0.398 0.164 0.598 0.274 0.997 0.052 0.188 0.264 0.284 0.46 0.21 1.369-0.486 2.752-0.911 4.164-1.251 0.136-0.033 0.202-0.19 0.152-0.353-0.111-0.359-0.168-0.537-0.282-0.895z"></path>
<path d="M12.987 23.417c0.103 0 0.195-0.009 0.268-0.029v-0.761c-0.074-0.040-0.163-0.067-0.253-0.067-0.282 0-0.38 0.19-0.38 0.479 0 0.268 0.154 0.378 0.365 0.378zM13.428 21.999v1.497c-0.105 0.047-0.271 0.069-0.45 0.069-0.36 0-0.53-0.235-0.53-0.535 0-0.392 0.19-0.622 0.486-0.622 0.139 0 0.251 0.040 0.322 0.094v-0.445c0.040-0.031 0.13-0.058 0.172-0.058z"></path>
<path d="M13.88 22.905h0.597v-0.023c0-0.23-0.114-0.347-0.286-0.347-0.166 0-0.286 0.105-0.311 0.369zM14.647 23.022h-0.772c0.004 0.246 0.125 0.401 0.356 0.401 0.119 0 0.253-0.027 0.342-0.067 0.027 0.029 0.045 0.067 0.051 0.132-0.103 0.042-0.244 0.081-0.421 0.081-0.318 0-0.506-0.215-0.506-0.546 0-0.392 0.201-0.613 0.51-0.613 0.277 0 0.452 0.19 0.452 0.497 0 0.042-0.004 0.076-0.013 0.116z"></path>
<path d="M14.932 22.057c0.040-0.031 0.128-0.058 0.172-0.058v1.544h-0.172v-1.486z"></path>
<path d="M17.131 22.854v0.49c-0.13 0.143-0.34 0.221-0.591 0.221-0.412 0-0.691-0.278-0.691-0.756 0-0.465 0.277-0.747 0.691-0.747 0.244 0 0.436 0.090 0.557 0.239-0.016 0.058-0.072 0.094-0.125 0.107-0.085-0.123-0.228-0.195-0.432-0.195-0.318 0-0.512 0.221-0.512 0.595 0 0.385 0.197 0.602 0.512 0.602 0.157 0 0.295-0.036 0.412-0.112v-0.414c0.047-0.045 0.119-0.052 0.179-0.031z"></path>
<path d="M17.912 22.572c-0.183 0-0.275 0.013-0.349 0.054v0.918h-0.172v-1.025c0.125-0.069 0.284-0.103 0.421-0.103 0.067 0 0.105 0.011 0.132 0.020 0 0.051-0.007 0.103-0.031 0.137z"></path>
<path d="M19.040 22.422v1.025c-0.085 0.061-0.331 0.103-0.47 0.103-0.262 0-0.43-0.096-0.43-0.365v-0.729c0.051-0.025 0.105-0.034 0.172-0.034v0.738c0 0.163 0.096 0.237 0.298 0.237 0.096 0 0.186-0.016 0.257-0.036v-0.908c0.047-0.025 0.114-0.031 0.172-0.031z"></path>
<path d="M20.145 22.974c0-0.233-0.13-0.414-0.439-0.414-0.063 0-0.127 0.009-0.195 0.025v0.785c0.067 0.025 0.15 0.045 0.239 0.045 0.244 0 0.394-0.13 0.394-0.441zM20.32 23.001c0 0.32-0.157 0.564-0.492 0.564-0.105 0-0.226-0.034-0.316-0.087v0.452c-0.036 0.034-0.121 0.058-0.172 0.058v-1.512c0.072-0.031 0.217-0.063 0.356-0.063 0.387 0 0.624 0.201 0.624 0.589z"></path>
<path d="M21.389 22.983c0-0.266-0.134-0.42-0.365-0.42-0.226 0-0.362 0.154-0.362 0.42 0 0.282 0.134 0.427 0.362 0.427 0.231 0 0.365-0.145 0.365-0.427zM20.485 22.983c0-0.349 0.217-0.575 0.539-0.575 0.329 0 0.539 0.231 0.539 0.575 0 0.36-0.213 0.582-0.539 0.582-0.329 0-0.539-0.228-0.539-0.582z"></path>
<path d="M23.003 23.091c0-0.119-0.076-0.168-0.226-0.168h-0.179v0.335h0.177c0.145 0 0.228-0.058 0.228-0.168zM22.741 22.335c-0.047 0-0.096 0.004-0.143 0.011v0.298h0.152c0.134 0 0.197-0.056 0.197-0.152 0-0.092-0.065-0.157-0.206-0.157zM23.369 23.107c0 0.262-0.264 0.436-0.564 0.436h-0.55v-1.445c0.183-0.027 0.322-0.045 0.486-0.045 0.302 0 0.544 0.141 0.544 0.387 0 0.141-0.074 0.235-0.206 0.286 0.203 0.058 0.291 0.181 0.291 0.38z"></path>
<path d="M24.158 23.256v-0.192h-0.065c-0.152 0-0.291 0.034-0.291 0.139 0 0.081 0.054 0.11 0.163 0.11 0.087 0 0.159-0.027 0.193-0.056zM24.487 22.838v0.589c-0.121 0.092-0.315 0.141-0.579 0.141-0.235 0-0.43-0.096-0.43-0.309 0-0.32 0.311-0.398 0.68-0.409-0.007-0.139-0.063-0.175-0.186-0.175-0.065 0-0.237 0.029-0.259 0.029-0.054 0-0.096-0.034-0.132-0.132l-0.027-0.081c0.139-0.051 0.275-0.087 0.423-0.087 0.322 0 0.51 0.121 0.51 0.434z"></path>
<path d="M25.719 22.746v0.797h-0.335v-0.678c0-0.119-0.078-0.179-0.215-0.179-0.051 0-0.101 0.007-0.143 0.018v0.839h-0.338l0.002-0.996c0.141-0.094 0.369-0.145 0.555-0.145 0.257 0 0.474 0.127 0.474 0.344z"></path>
<path d="M25.865 22.997c0-0.392 0.273-0.598 0.626-0.598 0.099 0 0.188 0.014 0.295 0.038-0.013 0.112-0.061 0.21-0.112 0.266-0.038-0.011-0.101-0.020-0.137-0.020-0.226 0-0.318 0.116-0.318 0.293 0 0.179 0.085 0.289 0.297 0.289 0.058 0 0.125-0.011 0.208-0.040l0.061 0.269c-0.123 0.049-0.251 0.072-0.351 0.072-0.344 0-0.57-0.206-0.57-0.568z"></path>
<path d="M27.681 22.981c0-0.183-0.089-0.291-0.246-0.291-0.152 0-0.246 0.107-0.246 0.291 0 0.192 0.092 0.293 0.246 0.293 0.157 0 0.246-0.101 0.246-0.293zM26.851 22.981c0-0.358 0.242-0.582 0.584-0.582 0.356 0 0.584 0.233 0.584 0.582 0 0.36-0.23 0.584-0.584 0.584-0.356 0-0.584-0.23-0.584-0.584z"></path>
<path d="M28.209 22.106c0.078-0.058 0.248-0.107 0.338-0.107v1.544h-0.338v-1.436z"></path>
<path d="M29.567 22.981c0-0.183-0.089-0.291-0.246-0.291-0.152 0-0.246 0.107-0.246 0.291 0 0.192 0.092 0.293 0.246 0.293 0.157 0 0.246-0.101 0.246-0.293zM28.737 22.981c0-0.358 0.242-0.582 0.584-0.582 0.356 0 0.584 0.233 0.584 0.582 0 0.36-0.23 0.584-0.584 0.584-0.356 0-0.584-0.23-0.584-0.584z"></path>
<path d="M31.787 22.746v0.797h-0.333v-0.678c0-0.119-0.076-0.179-0.21-0.179-0.063 0-0.123 0.013-0.172 0.034 0.018 0.049 0.027 0.103 0.027 0.161v0.662h-0.333v-0.678c0-0.119-0.076-0.179-0.21-0.179-0.051 0-0.101 0.007-0.143 0.018v0.839h-0.338l0.002-0.996c0.134-0.094 0.345-0.145 0.521-0.145 0.141 0 0.262 0.047 0.349 0.123 0.114-0.074 0.273-0.123 0.407-0.123 0.244 0 0.434 0.13 0.434 0.344z"></path>
<path d="M32.81 22.966c0-0.206-0.107-0.28-0.28-0.28-0.069 0-0.125 0.013-0.174 0.036v0.562c0.060 0.009 0.118 0.013 0.172 0.013 0.197 0 0.282-0.152 0.282-0.331zM33.143 22.923c0 0.407-0.242 0.642-0.636 0.642-0.192 0-0.378-0.036-0.49-0.087v-1.372c0.078-0.058 0.251-0.107 0.338-0.107v0.53c0.096-0.083 0.213-0.127 0.318-0.127 0.333 0 0.47 0.23 0.47 0.521z"></path>
<path d="M33.333 22.433c0.047-0.020 0.105-0.031 0.17-0.031s0.121 0.011 0.168 0.031v1.11h-0.338v-1.11zM33.329 22.079c0-0.094 0.078-0.172 0.172-0.172 0.096 0 0.175 0.076 0.175 0.172 0 0.092-0.078 0.172-0.175 0.172-0.094 0-0.172-0.076-0.172-0.172z"></path>
<path d="M34.519 23.256v-0.192h-0.065c-0.152 0-0.291 0.034-0.291 0.139 0 0.081 0.054 0.11 0.163 0.11 0.087 0 0.159-0.027 0.192-0.056zM34.848 22.838v0.589c-0.121 0.092-0.316 0.141-0.58 0.141-0.235 0-0.43-0.096-0.43-0.309 0-0.32 0.311-0.398 0.68-0.409-0.007-0.139-0.063-0.175-0.186-0.175-0.065 0-0.237 0.029-0.26 0.029-0.054 0-0.096-0.034-0.132-0.132l-0.027-0.081c0.139-0.051 0.275-0.087 0.423-0.087 0.322 0 0.51 0.121 0.51 0.434z"></path>
</svg>
