<svg width="165" height="165" viewBox="0 0 165 165" fill="none" xmlns="http://www.w3.org/2000/svg">
<path fill-rule="evenodd" clip-rule="evenodd" d="M120.763 112.784C104.188 116.781 87.9672 121.769 71.9067 127.478C69.6119 128.346 67.1203 127.219 66.5124 125.015C65.2197 120.322 64.0727 116.711 62.7952 112.033C62.2597 110.07 63.4076 107.936 65.4441 107.193C81.5099 101.712 97.7277 97.4043 114.319 93.831C116.148 93.4565 118.073 94.801 118.732 96.8616C120.073 101.056 121.239 104.427 122.544 108.639C123.136 110.549 122.353 112.4 120.763 112.784ZM37.6212 103.827C36.6405 98.7784 35.6499 94.987 34.688 89.9503C34.3134 87.9809 35.3862 85.745 37.176 84.9038C61.7123 74.1241 87.586 67.6016 114.159 64.2384C115.908 64.0104 117.677 65.3014 118.328 67.2324C119.73 71.3858 120.926 74.7365 122.288 78.9096C122.945 80.9228 122.07 82.8771 120.352 83.156C93.3343 87.4588 66.9966 94.675 42.0741 106.009C40.0716 106.978 38.0413 105.985 37.6212 103.827ZM49.5676 46.4483C66.0017 41.7218 82.4001 38.6527 99.3733 36.5742C101.226 36.3748 103.035 37.571 103.705 39.3947C105.281 43.6903 106.564 47.1134 108.107 51.4331C108.839 53.483 107.75 55.5267 105.759 55.7913C88.3907 58.3454 71.5578 61.8561 54.767 66.9867C52.7189 67.6625 50.7029 66.6345 50.1853 64.6418C48.9632 59.9278 47.8529 56.3054 46.6523 51.6066C46.1132 49.495 47.4265 47.1152 49.5676 46.4483ZM82 7C40.579 7 7 40.579 7 82C7 123.421 40.579 157 82 157C123.421 157 157 123.421 157 82C157 40.579 123.421 7 82 7V7Z" fill="#2C2A29"/>
</svg>
