<svg version="1.1" xmlns="http://www.w3.org/2000/svg" width="43" height="32" viewBox="0 0 43 32">
<title>maestro</title>
<path fill="#6c6bbd" d="M25.033 20.992h-7.932v-14.254h7.932v14.254z"></path>
<path fill="#d32011" d="M17.604 13.865c0-2.892 1.354-5.467 3.462-7.127-1.542-1.214-3.487-1.938-5.602-1.938-5.006 0-9.064 4.059-9.064 9.065s4.058 9.065 9.064 9.065c2.115 0 4.060-0.724 5.602-1.938-2.108-1.66-3.462-4.236-3.462-7.127z"></path>
<path fill="#0099df" d="M35.733 13.865c0 5.007-4.058 9.065-9.064 9.065-2.115 0-4.060-0.724-5.603-1.938 2.109-1.66 3.463-4.236 3.463-7.127s-1.354-5.467-3.463-7.127c1.542-1.214 3.488-1.938 5.603-1.938 5.006 0 9.064 4.059 9.064 9.065z"></path>
<path fill="#110f0d" d="M27.716 25.020c0.105 0 0.257 0.020 0.373 0.066l-0.161 0.493c-0.111-0.046-0.221-0.060-0.327-0.060-0.342 0-0.514 0.221-0.514 0.619v1.35h-0.524v-2.407h0.519v0.292c0.136-0.212 0.333-0.353 0.635-0.353zM25.781 25.559h-0.856v1.088c0 0.241 0.085 0.403 0.348 0.403 0.136 0 0.307-0.046 0.463-0.136l0.151 0.448c-0.166 0.116-0.428 0.187-0.654 0.187-0.62 0-0.836-0.333-0.836-0.892v-1.097h-0.489v-0.478h0.489v-0.73h0.529v0.73h0.856v0.478zM19.078 26.072c0.056-0.348 0.267-0.584 0.64-0.584 0.337 0 0.554 0.212 0.609 0.584h-1.249zM20.872 26.284c-0.005-0.75-0.469-1.264-1.143-1.264-0.705 0-1.198 0.514-1.198 1.264 0 0.765 0.514 1.263 1.234 1.263 0.363 0 0.694-0.090 0.987-0.337l-0.257-0.388c-0.201 0.161-0.458 0.252-0.7 0.252-0.337 0-0.644-0.156-0.72-0.589h1.787c0.005-0.066 0.010-0.131 0.010-0.201zM23.172 25.695c-0.146-0.091-0.443-0.207-0.75-0.207-0.287 0-0.458 0.106-0.458 0.282 0 0.161 0.181 0.206 0.407 0.236l0.247 0.035c0.524 0.076 0.841 0.297 0.841 0.72 0 0.458-0.403 0.786-1.097 0.786-0.393 0-0.756-0.101-1.043-0.312l0.247-0.408c0.176 0.136 0.439 0.252 0.801 0.252 0.357 0 0.549-0.105 0.549-0.292 0-0.135-0.136-0.212-0.423-0.251l-0.247-0.035c-0.539-0.076-0.831-0.318-0.831-0.71 0-0.478 0.393-0.771 1.002-0.771 0.383 0 0.73 0.086 0.982 0.252l-0.227 0.423zM29.63 25.517c-0.108 0-0.208 0.019-0.3 0.056s-0.172 0.091-0.24 0.159c-0.067 0.068-0.12 0.15-0.159 0.245s-0.058 0.2-0.058 0.314c0 0.115 0.019 0.219 0.058 0.314s0.092 0.177 0.159 0.245c0.067 0.068 0.148 0.121 0.24 0.159s0.193 0.056 0.3 0.056c0.108 0 0.208-0.018 0.3-0.056s0.174-0.091 0.241-0.159c0.069-0.068 0.122-0.15 0.161-0.245s0.058-0.199 0.058-0.314c0-0.114-0.019-0.219-0.058-0.314s-0.092-0.177-0.161-0.245c-0.067-0.068-0.148-0.121-0.241-0.159s-0.193-0.056-0.3-0.056zM29.63 25.020c0.187 0 0.36 0.032 0.519 0.097s0.297 0.154 0.413 0.267c0.116 0.114 0.207 0.248 0.273 0.402s0.099 0.323 0.099 0.505-0.033 0.35-0.099 0.505c-0.066 0.154-0.156 0.289-0.273 0.403s-0.254 0.202-0.413 0.267c-0.159 0.065-0.332 0.097-0.519 0.097s-0.36-0.032-0.519-0.097c-0.159-0.065-0.296-0.154-0.411-0.267s-0.206-0.248-0.271-0.403c-0.066-0.155-0.099-0.323-0.099-0.505s0.033-0.35 0.099-0.505c0.066-0.154 0.156-0.289 0.271-0.402s0.252-0.203 0.411-0.267c0.159-0.065 0.332-0.097 0.519-0.097zM16.019 26.284c0-0.423 0.277-0.771 0.73-0.771 0.433 0 0.725 0.333 0.725 0.771s-0.292 0.77-0.725 0.77c-0.453 0-0.73-0.347-0.73-0.77zM17.968 26.284v-1.203h-0.523v0.292c-0.167-0.217-0.418-0.353-0.76-0.353-0.675 0-1.203 0.529-1.203 1.264s0.528 1.264 1.203 1.264c0.342 0 0.594-0.136 0.76-0.353v0.292h0.523v-1.203zM15.018 27.487v-1.511c0-0.569-0.363-0.952-0.946-0.957-0.307-0.005-0.625 0.090-0.846 0.428-0.166-0.267-0.428-0.428-0.796-0.428-0.256 0-0.508 0.076-0.705 0.357v-0.297h-0.523v2.407h0.529v-1.334c0-0.418 0.232-0.64 0.589-0.64 0.348 0 0.524 0.227 0.524 0.635v1.339h0.529v-1.334c0-0.418 0.242-0.64 0.589-0.64 0.358 0 0.529 0.227 0.529 0.635v1.339h0.528z"></path>
</svg>
