<svg version="1.1" xmlns="http://www.w3.org/2000/svg" width="43" height="32" viewBox="0 0 43 32">
<title>mastercard</title>
<path fill="#ff5f00" d="M25.033 8.872h-7.932v14.256h7.932v-14.256z"></path>
<path fill="#eb001b" d="M17.605 16c-0.001-1.373 0.31-2.728 0.91-3.963s1.473-2.317 2.553-3.165c-1.337-1.051-2.943-1.705-4.634-1.887s-3.399 0.116-4.929 0.86c-1.53 0.744-2.82 1.903-3.722 3.345s-1.381 3.109-1.381 4.81c0 1.701 0.479 3.368 1.381 4.81s2.192 2.601 3.722 3.345c1.53 0.744 3.238 1.042 4.929 0.86s3.297-0.835 4.634-1.887c-1.080-0.848-1.953-1.93-2.553-3.165s-0.911-2.59-0.91-3.963v0z"></path>
<path fill="#f79e1b" d="M35.733 16c0 1.701-0.478 3.368-1.381 4.81s-2.192 2.601-3.722 3.345c-1.53 0.744-3.238 1.042-4.929 0.86s-3.297-0.835-4.634-1.887c1.079-0.849 1.951-1.931 2.551-3.166s0.911-2.59 0.911-3.962c0-1.373-0.312-2.728-0.911-3.962s-1.472-2.317-2.551-3.166c1.337-1.051 2.943-1.705 4.634-1.887s3.399 0.116 4.929 0.86c1.53 0.744 2.82 1.903 3.722 3.345s1.381 3.109 1.381 4.81v0z"></path>
</svg>
