<svg version="1.1" xmlns="http://www.w3.org/2000/svg" width="43" height="32" viewBox="0 0 43 32">
<title>visa</title>
<path fill="#12219b" d="M28.621 11.116l-0.373 2.213c-1.117-0.633-3.66-0.782-3.66 0.383 0 0.463 0.575 0.781 1.269 1.165 1.052 0.582 2.375 1.314 2.375 2.929 0 2.58-2.688 3.528-4.47 3.528s-2.948-0.582-2.948-0.582l0.388-2.314c1.069 0.882 4.308 1.132 4.308-0.266 0-0.587-0.638-0.934-1.377-1.336-1.020-0.554-2.235-1.214-2.235-2.758 0-2.829 3.077-3.411 4.373-3.411 1.199 0 2.348 0.449 2.348 0.449zM34.936 21.155h2.398l-2.090-10.305h-2.099c-0.969 0-1.205 0.768-1.205 0.768l-3.894 9.537h2.722l0.544-1.531h3.319l0.306 1.531zM32.063 17.51l1.372-3.856 0.772 3.856h-2.144zM11.909 17.94l2.489-7.088h2.81l-4.154 10.305h-2.721l-2.269-8.952c-1.473-0.909-2.731-1.178-2.731-1.178l0.048-0.174h4.115c1.132 0 1.239 0.928 1.239 0.928l0.878 4.633 0.295 1.526zM16.594 21.157h2.611l1.632-10.305h-2.611l-1.632 10.305z"></path>
</svg>
