<svg version="1.1" xmlns="http://www.w3.org/2000/svg" width="43" height="32" viewBox="0 0 43 32">
<title>applepay-white</title>
<path fill="#fff" d="M11.381 10.855c0.377-0.481 0.632-1.128 0.565-1.788-0.552 0.028-1.225 0.372-1.614 0.853-0.35 0.413-0.66 1.086-0.579 1.719 0.619 0.055 1.238-0.316 1.628-0.784z"></path>
<path fill="#fff" d="M11.939 11.764c-0.899-0.055-1.664 0.521-2.093 0.521s-1.087-0.494-1.798-0.48c-0.926 0.014-1.784 0.548-2.254 1.399-0.966 1.701-0.255 4.224 0.685 5.609 0.456 0.685 1.006 1.44 1.731 1.413 0.685-0.027 0.953-0.453 1.785-0.453s1.073 0.453 1.798 0.439c0.751-0.014 1.221-0.686 1.677-1.372 0.523-0.781 0.738-1.536 0.751-1.577-0.013-0.014-1.449-0.576-1.462-2.263-0.014-1.412 1.127-2.084 1.181-2.126-0.644-0.973-1.65-1.083-1.999-1.11z"></path>
<path fill="#fff" d="M19.768 9.85c1.954 0 3.315 1.376 3.315 3.379 0 2.010-1.389 3.393-3.364 3.393h-2.164v3.515h-1.563v-10.287h3.776zM17.556 15.282h1.794c1.361 0 2.136-0.748 2.136-2.046s-0.775-2.039-2.129-2.039h-1.801v4.085z"></path>
<path fill="#fff" d="M23.491 18.006c0-1.312 0.984-2.117 2.729-2.217l2.010-0.121v-0.577c0-0.834-0.551-1.333-1.472-1.333-0.873 0-1.417 0.428-1.549 1.098h-1.424c0.084-1.355 1.214-2.353 3.029-2.353 1.78 0 2.917 0.962 2.917 2.467v5.169h-1.445v-1.233h-0.035c-0.426 0.834-1.354 1.362-2.317 1.362-1.438 0-2.443-0.913-2.443-2.26zM28.23 17.329v-0.592l-1.808 0.114c-0.9 0.064-1.41 0.471-1.41 1.112 0 0.656 0.53 1.084 1.34 1.084 1.054 0 1.877-0.741 1.877-1.718z"></path>
<path fill="#fff" d="M31.094 22.896v-1.248c0.111 0.028 0.363 0.028 0.488 0.028 0.698 0 1.075-0.299 1.305-1.069 0-0.014 0.133-0.456 0.133-0.463l-2.652-7.507h1.633l1.857 6.103h0.028l1.857-6.103h1.591l-2.75 7.892c-0.628 1.818-1.354 2.403-2.875 2.403-0.126 0-0.503-0.014-0.614-0.036z"></path>
</svg>
