<svg version="1.1" xmlns="http://www.w3.org/2000/svg" width="115" height="32" viewBox="0 0 115 32">
<title>brand-BancadeInversion-primario-positivo</title>
<path d="M35.434 16.314c-1.695 0.409-3.354 0.919-4.997 1.503-0.235 0.089-0.489-0.027-0.552-0.252-0.132-0.48-0.25-0.849-0.38-1.328-0.055-0.201 0.063-0.419 0.271-0.495 1.643-0.561 3.302-1.001 4.998-1.367 0.187-0.038 0.384 0.099 0.451 0.31 0.137 0.429 0.257 0.774 0.39 1.204 0.060 0.195-0.020 0.385-0.182 0.424zM26.93 15.398c-0.1-0.516-0.202-0.904-0.3-1.419-0.038-0.201 0.071-0.43 0.254-0.516 2.509-1.103 5.156-1.77 7.873-2.113 0.179-0.023 0.36 0.109 0.426 0.306 0.143 0.425 0.266 0.767 0.405 1.194 0.067 0.206-0.022 0.406-0.198 0.434-2.763 0.44-5.457 1.178-8.006 2.337-0.205 0.099-0.412-0.002-0.455-0.223zM28.153 9.531c1.681-0.483 3.358-0.797 5.094-1.010 0.189-0.020 0.375 0.102 0.443 0.288 0.161 0.439 0.293 0.789 0.45 1.231 0.075 0.21-0.037 0.419-0.24 0.446-1.776 0.261-3.498 0.62-5.215 1.145-0.209 0.069-0.416-0.036-0.468-0.24-0.125-0.482-0.239-0.853-0.361-1.333-0.055-0.216 0.079-0.459 0.298-0.527zM31.469 5.496c-4.236 0-7.67 3.434-7.67 7.67s3.434 7.67 7.67 7.67c4.236 0 7.67-3.434 7.67-7.67s-3.434-7.67-7.67-7.67z"></path>
<path d="M45.502 10.191c0-0.485-0.311-0.686-0.923-0.686h-0.731v1.372h0.722c0.594 0 0.933-0.238 0.933-0.686zM44.432 7.1c-0.192 0-0.393 0.018-0.585 0.046v1.216h0.622c0.549 0 0.805-0.229 0.805-0.622 0-0.375-0.265-0.64-0.841-0.64zM47.002 10.255c0 1.070-1.079 1.783-2.304 1.783h-2.249v-5.907c0.75-0.11 1.317-0.183 1.984-0.183 1.234 0 2.222 0.576 2.222 1.582 0 0.576-0.302 0.96-0.841 1.17 0.832 0.238 1.189 0.741 1.189 1.554z"></path>
<path d="M50.284 10.867v-0.786h-0.265c-0.622 0-1.189 0.137-1.189 0.567 0 0.329 0.22 0.448 0.668 0.448 0.357 0 0.649-0.11 0.786-0.229zM51.628 9.157v2.405c-0.494 0.375-1.289 0.576-2.368 0.576-0.96 0-1.755-0.393-1.755-1.262 0-1.308 1.271-1.628 2.78-1.673-0.027-0.567-0.256-0.713-0.759-0.713-0.265 0-0.969 0.119-1.061 0.119-0.219 0-0.393-0.137-0.539-0.539l-0.11-0.329c0.567-0.21 1.125-0.357 1.728-0.357 1.317 0 2.085 0.494 2.085 1.774z"></path>
<path d="M56.602 8.783v3.255h-1.372v-2.77c0-0.485-0.32-0.732-0.878-0.732-0.21 0-0.411 0.027-0.585 0.073v3.429h-1.381l0.009-4.069c0.576-0.384 1.509-0.594 2.267-0.594 1.051 0 1.939 0.521 1.939 1.408z"></path>
<path d="M57.196 9.807c0-1.6 1.115-2.441 2.56-2.441 0.402 0 0.768 0.055 1.207 0.155-0.055 0.457-0.247 0.859-0.457 1.088-0.155-0.046-0.411-0.082-0.558-0.082-0.923 0-1.298 0.475-1.298 1.198 0 0.731 0.347 1.18 1.216 1.18 0.238 0 0.512-0.046 0.85-0.165l0.247 1.097c-0.503 0.201-1.024 0.293-1.435 0.293-1.408 0-2.331-0.841-2.331-2.322z"></path>
<path d="M64.181 10.867v-0.786h-0.265c-0.622 0-1.189 0.137-1.189 0.567 0 0.329 0.219 0.448 0.667 0.448 0.357 0 0.649-0.11 0.786-0.229zM65.525 9.157v2.405c-0.494 0.375-1.289 0.576-2.368 0.576-0.96 0-1.755-0.393-1.755-1.262 0-1.308 1.271-1.628 2.779-1.673-0.027-0.567-0.256-0.713-0.759-0.713-0.265 0-0.969 0.119-1.061 0.119-0.219 0-0.393-0.137-0.539-0.539l-0.11-0.329c0.567-0.21 1.125-0.357 1.728-0.357 1.317 0 2.085 0.494 2.085 1.774z"></path>
<path d="M45.328 18.666v-2.304c-0.192-0.082-0.421-0.137-0.695-0.137-0.786 0-1.161 0.43-1.161 1.408 0 0.677 0.402 1.097 1.106 1.097 0.247 0 0.503-0.018 0.75-0.064zM46.709 13.427v6.035c-0.494 0.238-1.253 0.366-2.076 0.366-1.609 0-2.533-0.795-2.533-2.286 0-1.509 0.896-2.478 2.066-2.478 0.485 0 0.869 0.137 1.161 0.375v-1.573c0.32-0.238 1.033-0.439 1.381-0.439z"></path>
<path d="M48.894 16.947h1.509v-0.009c0-0.604-0.302-0.96-0.713-0.96s-0.704 0.247-0.795 0.969zM51.783 17.752h-2.907c0.073 0.64 0.402 1.006 1.051 1.006 0.521 0 1.033-0.091 1.426-0.219 0.192 0.21 0.311 0.485 0.347 0.988-0.53 0.192-1.143 0.32-1.966 0.32-1.326 0-2.249-0.777-2.249-2.24 0-1.536 0.905-2.542 2.295-2.542 1.253 0 2.057 0.805 2.057 2.103 0 0.21-0.018 0.366-0.055 0.585z"></path>
<path d="M54.333 19.736v-5.98c0.384-0.073 1.015-0.073 1.399 0v5.98h-1.399z"></path>
<path d="M61.063 16.481v3.255h-1.372v-2.77c0-0.485-0.32-0.731-0.878-0.731-0.21 0-0.411 0.027-0.585 0.073v3.429h-1.381l0.009-4.069c0.576-0.384 1.509-0.594 2.267-0.594 1.051 0 1.939 0.521 1.939 1.408z"></path>
<path d="M66.201 15.173l-1.683 4.544c-0.247 0.064-0.466 0.091-0.704 0.091-0.247 0-0.475-0.027-0.704-0.091l-1.691-4.562c0.457-0.091 0.933-0.101 1.408 0l0.987 3.045 0.987-3.026c0.476-0.101 0.942-0.101 1.399 0z"></path>
<path d="M67.737 16.947h1.509v-0.009c0-0.604-0.302-0.96-0.713-0.96s-0.704 0.247-0.795 0.969zM70.626 17.752h-2.908c0.073 0.64 0.402 1.006 1.051 1.006 0.521 0 1.033-0.091 1.426-0.219 0.192 0.21 0.311 0.485 0.348 0.988-0.531 0.192-1.143 0.32-1.966 0.32-1.326 0-2.249-0.777-2.249-2.24 0-1.536 0.905-2.542 2.295-2.542 1.253 0 2.057 0.805 2.057 2.103 0 0.21-0.018 0.366-0.055 0.585z"></path>
<path d="M74.146 16.261c-0.695 0-0.997 0.037-1.307 0.22v3.255h-1.381l0.009-4.069c0.658-0.411 1.198-0.594 1.948-0.594 0.494 0 0.741 0.091 0.942 0.174 0 0.402-0.037 0.759-0.21 1.015z"></path>
<path d="M75.983 18.776c0.348 0 0.668-0.128 0.668-0.357s-0.21-0.338-0.713-0.475c-0.823-0.21-1.253-0.704-1.253-1.344 0-1.042 0.85-1.564 2.103-1.564 0.448 0 0.969 0.101 1.179 0.192 0 0.347-0.128 0.823-0.329 1.088-0.302-0.11-0.594-0.174-0.841-0.174-0.448 0-0.731 0.11-0.731 0.356 0 0.183 0.229 0.338 0.677 0.494 0.878 0.293 1.326 0.594 1.326 1.298 0 1.042-0.786 1.554-2.066 1.554-0.476 0-0.759-0.037-1.271-0.119-0.055-0.192-0.082-0.384-0.082-0.585 0-0.238 0.037-0.439 0.11-0.613 0.503 0.165 0.905 0.247 1.225 0.247z"></path>
<path d="M78.891 15.201c0.192-0.082 0.43-0.128 0.695-0.128s0.494 0.046 0.686 0.128v4.535h-1.381v-4.535zM78.872 13.756c0-0.384 0.32-0.704 0.704-0.704 0.393 0 0.713 0.311 0.713 0.704 0 0.375-0.32 0.704-0.713 0.704-0.384 0-0.704-0.311-0.704-0.704z"></path>
<path d="M83.032 14.36l0.805-1.518 0.283 0.128c0.503 0.229 0.567 0.43 0.549 0.622-0.009 0.11-0.082 0.402-0.53 0.786l-0.412 0.357-0.695-0.375zM84.495 17.441c0-0.75-0.366-1.189-1.006-1.189-0.622 0-1.006 0.439-1.006 1.189 0 0.786 0.375 1.198 1.006 1.198 0.64 0 1.006-0.411 1.006-1.198zM81.103 17.441c0-1.463 0.987-2.377 2.386-2.377 1.454 0 2.387 0.951 2.387 2.377 0 1.472-0.942 2.386-2.387 2.386-1.454 0-2.386-0.942-2.386-2.386z"></path>
<path d="M90.777 16.481v3.255h-1.372v-2.77c0-0.485-0.32-0.731-0.878-0.731-0.21 0-0.411 0.027-0.585 0.073v3.429h-1.381l0.009-4.069c0.576-0.384 1.509-0.594 2.267-0.594 1.051 0 1.939 0.521 1.939 1.408z"></path>
<path d="M43.506 25.038c0.222 0 0.421-0.019 0.581-0.063v-1.645c-0.16-0.087-0.353-0.145-0.547-0.145-0.61 0-0.822 0.411-0.822 1.035 0 0.581 0.334 0.818 0.788 0.818zM44.459 21.971v3.237c-0.227 0.102-0.585 0.15-0.972 0.15-0.779 0-1.147-0.508-1.147-1.156 0-0.847 0.411-1.345 1.050-1.345 0.3 0 0.542 0.087 0.697 0.203v-0.963c0.087-0.068 0.281-0.126 0.373-0.126z"></path>
<path d="M45.437 23.93h1.292v-0.048c0-0.498-0.247-0.75-0.619-0.75-0.358 0-0.619 0.227-0.672 0.798zM47.096 24.182h-1.669c0.010 0.532 0.271 0.866 0.769 0.866 0.256 0 0.547-0.058 0.74-0.145 0.058 0.063 0.097 0.145 0.111 0.285-0.222 0.092-0.528 0.174-0.91 0.174-0.687 0-1.093-0.464-1.093-1.181 0-0.847 0.435-1.326 1.103-1.326 0.6 0 0.977 0.411 0.977 1.074 0 0.092-0.010 0.165-0.029 0.252z"></path>
<path d="M47.71 22.097c0.087-0.068 0.276-0.126 0.373-0.126v3.338h-0.373v-3.212z"></path>
<path d="M52.467 23.819v1.060c-0.281 0.31-0.735 0.479-1.277 0.479-0.89 0-1.495-0.6-1.495-1.635 0-1.006 0.6-1.616 1.495-1.616 0.527 0 0.943 0.193 1.204 0.518-0.034 0.126-0.154 0.203-0.271 0.232-0.184-0.266-0.494-0.421-0.934-0.421-0.687 0-1.108 0.479-1.108 1.287 0 0.832 0.426 1.301 1.108 1.301 0.339 0 0.638-0.077 0.89-0.242v-0.895c0.102-0.097 0.256-0.111 0.387-0.068z"></path>
<path d="M54.155 23.21c-0.397 0-0.595 0.029-0.755 0.116v1.984h-0.372v-2.216c0.271-0.15 0.614-0.223 0.909-0.223 0.145 0 0.227 0.024 0.286 0.044 0 0.111-0.015 0.223-0.068 0.295z"></path>
<path d="M56.594 22.886v2.216c-0.184 0.131-0.716 0.223-1.016 0.223-0.566 0-0.929-0.208-0.929-0.789v-1.577c0.111-0.053 0.227-0.073 0.372-0.073v1.596c0 0.353 0.208 0.513 0.644 0.513 0.208 0 0.401-0.034 0.556-0.077v-1.964c0.102-0.053 0.247-0.068 0.373-0.068z"></path>
<path d="M58.984 24.081c0-0.503-0.281-0.895-0.948-0.895-0.135 0-0.276 0.019-0.421 0.053v1.698c0.145 0.053 0.324 0.097 0.518 0.097 0.527 0 0.852-0.281 0.852-0.953zM59.361 24.139c0 0.692-0.339 1.219-1.065 1.219-0.227 0-0.489-0.073-0.682-0.189v0.977c-0.077 0.073-0.261 0.126-0.372 0.126v-3.271c0.154-0.068 0.469-0.135 0.769-0.135 0.837 0 1.35 0.435 1.35 1.272z"></path>
<path d="M61.674 24.1c0-0.576-0.29-0.91-0.789-0.91-0.489 0-0.784 0.334-0.784 0.91 0 0.61 0.29 0.924 0.784 0.924 0.498 0 0.789-0.314 0.789-0.924zM59.719 24.1c0-0.755 0.469-1.243 1.166-1.243 0.711 0 1.166 0.498 1.166 1.243 0 0.779-0.46 1.258-1.166 1.258-0.711 0-1.166-0.494-1.166-1.258z"></path>
<path d="M65.163 24.332c0-0.256-0.165-0.363-0.489-0.363h-0.387v0.726h0.382c0.314 0 0.493-0.126 0.493-0.363zM64.597 22.697c-0.102 0-0.208 0.010-0.31 0.024v0.643h0.329c0.29 0 0.426-0.121 0.426-0.329 0-0.198-0.14-0.339-0.445-0.339zM65.956 24.366c0 0.566-0.571 0.943-1.219 0.943h-1.19v-3.125c0.397-0.058 0.697-0.097 1.050-0.097 0.653 0 1.175 0.305 1.175 0.837 0 0.305-0.159 0.508-0.445 0.619 0.44 0.126 0.629 0.392 0.629 0.823z"></path>
<path d="M67.661 24.69v-0.416h-0.141c-0.329 0-0.629 0.073-0.629 0.3 0 0.174 0.116 0.237 0.353 0.237 0.189 0 0.343-0.058 0.416-0.121zM68.372 23.785v1.272c-0.261 0.198-0.682 0.305-1.253 0.305-0.508 0-0.929-0.208-0.929-0.668 0-0.692 0.673-0.861 1.471-0.885-0.015-0.3-0.136-0.377-0.402-0.377-0.141 0-0.513 0.063-0.561 0.063-0.116 0-0.208-0.073-0.286-0.286l-0.058-0.174c0.3-0.111 0.595-0.189 0.915-0.189 0.697 0 1.103 0.261 1.103 0.939z"></path>
<path d="M71.036 23.587v1.722h-0.726v-1.466c0-0.256-0.169-0.387-0.464-0.387-0.111 0-0.218 0.015-0.31 0.039v1.814h-0.731l0.005-2.153c0.305-0.203 0.798-0.314 1.2-0.314 0.556 0 1.026 0.276 1.026 0.745z"></path>
<path d="M71.351 24.129c0-0.847 0.59-1.292 1.355-1.292 0.213 0 0.406 0.029 0.638 0.082-0.029 0.242-0.131 0.455-0.242 0.576-0.082-0.024-0.218-0.044-0.295-0.044-0.489 0-0.687 0.252-0.687 0.634 0 0.387 0.184 0.624 0.643 0.624 0.126 0 0.271-0.024 0.45-0.087l0.131 0.58c-0.266 0.107-0.542 0.155-0.759 0.155-0.745 0-1.234-0.445-1.234-1.229z"></path>
<path d="M75.28 24.095c0-0.397-0.194-0.629-0.532-0.629-0.329 0-0.532 0.232-0.532 0.629 0 0.416 0.198 0.634 0.532 0.634 0.339 0 0.532-0.218 0.532-0.634zM73.484 24.095c0-0.774 0.523-1.258 1.263-1.258 0.769 0 1.263 0.503 1.263 1.258 0 0.779-0.498 1.263-1.263 1.263-0.769 0-1.263-0.498-1.263-1.263z"></path>
<path d="M76.421 22.203c0.169-0.126 0.537-0.232 0.731-0.232v3.338h-0.731v-3.106z"></path>
<path d="M79.358 24.095c0-0.397-0.194-0.629-0.532-0.629-0.329 0-0.532 0.232-0.532 0.629 0 0.416 0.198 0.634 0.532 0.634 0.339 0 0.532-0.218 0.532-0.634zM77.563 24.095c0-0.774 0.522-1.258 1.263-1.258 0.769 0 1.263 0.503 1.263 1.258 0 0.779-0.499 1.263-1.263 1.263-0.769 0-1.263-0.498-1.263-1.263z"></path>
<path d="M84.158 23.587v1.722h-0.721v-1.466c0-0.256-0.164-0.387-0.455-0.387-0.135 0-0.266 0.029-0.372 0.073 0.039 0.106 0.058 0.222 0.058 0.348v1.432h-0.721v-1.466c0-0.256-0.165-0.387-0.455-0.387-0.111 0-0.218 0.015-0.309 0.039v1.814h-0.731l0.005-2.153c0.29-0.203 0.745-0.314 1.127-0.314 0.305 0 0.566 0.102 0.755 0.266 0.247-0.16 0.59-0.266 0.88-0.266 0.527 0 0.939 0.281 0.939 0.745z"></path>
<path d="M86.369 24.061c0-0.445-0.232-0.605-0.605-0.605-0.15 0-0.271 0.029-0.378 0.077v1.214c0.131 0.019 0.257 0.029 0.373 0.029 0.426 0 0.61-0.329 0.61-0.716zM87.090 23.969c0 0.881-0.523 1.389-1.374 1.389-0.416 0-0.818-0.077-1.060-0.189v-2.966c0.169-0.126 0.542-0.232 0.731-0.232v1.147c0.208-0.179 0.46-0.276 0.687-0.276 0.721 0 1.016 0.498 1.016 1.127z"></path>
<path d="M87.501 22.91c0.102-0.044 0.227-0.068 0.368-0.068s0.261 0.024 0.363 0.068v2.4h-0.731v-2.4zM87.491 22.145c0-0.203 0.169-0.372 0.373-0.372 0.208 0 0.377 0.164 0.377 0.372 0 0.198-0.169 0.373-0.377 0.373-0.203 0-0.373-0.165-0.373-0.373z"></path>
<path d="M90.065 24.69v-0.416h-0.14c-0.329 0-0.629 0.073-0.629 0.3 0 0.174 0.116 0.237 0.353 0.237 0.189 0 0.343-0.058 0.416-0.121zM90.777 23.785v1.272c-0.261 0.198-0.682 0.305-1.253 0.305-0.508 0-0.929-0.208-0.929-0.668 0-0.692 0.673-0.861 1.471-0.885-0.014-0.3-0.136-0.377-0.402-0.377-0.14 0-0.513 0.063-0.561 0.063-0.116 0-0.208-0.073-0.286-0.286l-0.058-0.174c0.3-0.111 0.595-0.189 0.914-0.189 0.697 0 1.103 0.261 1.103 0.939z"></path>
</svg>
