<svg version="1.1" xmlns="http://www.w3.org/2000/svg" width="48" height="32" viewBox="0 0 48 32">
<title>brand-Bancolombia-filiales-panama-secundario-positivo</title>
<path d="M19.036 22.35c0-0.272-0.163-0.537-0.681-0.537-0.106 0-0.212 0.019-0.291 0.041v1.135h0.238c0.529 0 0.734-0.287 0.734-0.639zM19.327 22.343c0 0.495-0.393 0.892-0.987 0.892h-0.276v0.828h-0.303v-2.428c0.193-0.041 0.42-0.076 0.624-0.076 0.684 0 0.942 0.427 0.942 0.783z"></path>
<path d="M20.747 23.75v-0.605h-0.094c-0.397 0-0.768 0.094-0.768 0.386 0 0.242 0.151 0.325 0.42 0.325 0.182 0 0.34-0.049 0.442-0.106zM21.034 22.744v1.165c-0.189 0.117-0.469 0.182-0.794 0.182-0.348 0-0.643-0.155-0.643-0.499 0-0.522 0.537-0.65 1.15-0.658v-0.125c0-0.329-0.144-0.412-0.427-0.412-0.132 0-0.446 0.083-0.484 0.083-0.057 0-0.098-0.030-0.129-0.117l-0.027-0.072c0.223-0.087 0.424-0.144 0.65-0.144 0.443 0 0.703 0.17 0.703 0.598z"></path>
<path d="M23.037 22.732v1.331h-0.291v-1.248c0-0.276-0.163-0.401-0.503-0.401-0.163 0-0.318 0.027-0.435 0.061v1.588h-0.291v-1.732c0.144-0.102 0.56-0.174 0.794-0.174 0.442 0 0.726 0.185 0.726 0.575z"></path>
<path d="M24.618 23.75v-0.605h-0.094c-0.397 0-0.768 0.094-0.768 0.386 0 0.242 0.151 0.325 0.42 0.325 0.182 0 0.34-0.049 0.442-0.106zM24.905 22.744v1.165c-0.189 0.117-0.469 0.182-0.794 0.182-0.348 0-0.643-0.155-0.643-0.499 0-0.522 0.537-0.65 1.15-0.658v-0.125c0-0.329-0.144-0.412-0.427-0.412-0.132 0-0.446 0.083-0.484 0.083-0.057 0-0.098-0.030-0.129-0.117l-0.027-0.072c0.223-0.087 0.424-0.144 0.65-0.144 0.443 0 0.703 0.17 0.703 0.598z"></path>
<path d="M28.143 22.732v1.331h-0.287v-1.248c0-0.276-0.155-0.401-0.48-0.401-0.182 0-0.363 0.057-0.484 0.125 0.034 0.083 0.049 0.178 0.049 0.284v1.24h-0.288v-1.248c0-0.276-0.155-0.401-0.48-0.401-0.163 0-0.318 0.027-0.435 0.061v1.588h-0.291v-1.732c0.14-0.102 0.545-0.174 0.771-0.174 0.246 0 0.435 0.068 0.56 0.197 0.144-0.106 0.488-0.197 0.688-0.197 0.42 0 0.677 0.185 0.677 0.575z"></path>
<path d="M29.383 21.953l-0.151-0.087 0.386-0.628 0.057 0.027c0.098 0.045 0.117 0.091 0.113 0.132 0 0.034-0.030 0.106-0.136 0.215l-0.269 0.34zM29.724 23.75v-0.605h-0.094c-0.397 0-0.768 0.094-0.768 0.386 0 0.242 0.151 0.325 0.42 0.325 0.182 0 0.34-0.049 0.442-0.106zM30.011 22.744v1.165c-0.189 0.117-0.469 0.182-0.794 0.182-0.348 0-0.643-0.155-0.643-0.499 0-0.522 0.537-0.65 1.15-0.658v-0.125c0-0.329-0.144-0.412-0.427-0.412-0.132 0-0.446 0.083-0.484 0.083-0.057 0-0.099-0.030-0.129-0.117l-0.027-0.072c0.223-0.087 0.424-0.144 0.65-0.144 0.443 0 0.703 0.17 0.703 0.598z"></path>
<path d="M10.529 19.23c0-0.285-0.183-0.403-0.543-0.403h-0.43v0.806h0.425c0.349 0 0.548-0.14 0.548-0.403zM9.9 17.414c-0.113 0-0.231 0.011-0.344 0.027v0.715h0.366c0.322 0 0.473-0.134 0.473-0.365 0-0.22-0.156-0.376-0.495-0.376zM11.41 19.268c0 0.629-0.634 1.048-1.354 1.048h-1.322v-3.472c0.441-0.064 0.774-0.108 1.166-0.108 0.726 0 1.306 0.339 1.306 0.93 0 0.339-0.177 0.564-0.494 0.688 0.489 0.14 0.699 0.435 0.699 0.914z"></path>
<path d="M13.304 19.628v-0.462h-0.156c-0.366 0-0.699 0.081-0.699 0.333 0 0.193 0.129 0.263 0.392 0.263 0.21 0 0.382-0.064 0.462-0.134zM14.094 18.623v1.413c-0.29 0.221-0.758 0.339-1.392 0.339-0.564 0-1.032-0.231-1.032-0.742 0-0.768 0.747-0.957 1.634-0.983-0.016-0.333-0.151-0.419-0.446-0.419-0.156 0-0.57 0.070-0.623 0.070-0.129 0-0.231-0.081-0.317-0.317l-0.065-0.193c0.333-0.124 0.661-0.21 1.016-0.21 0.774 0 1.225 0.29 1.225 1.043z"></path>
<path d="M17.054 18.403v1.913h-0.806v-1.628c0-0.285-0.188-0.43-0.516-0.43-0.124 0-0.242 0.016-0.344 0.043v2.015h-0.812l0.005-2.392c0.339-0.226 0.887-0.349 1.333-0.349 0.618 0 1.139 0.306 1.139 0.828z"></path>
<path d="M17.403 19.005c0-0.941 0.656-1.435 1.505-1.435 0.236 0 0.451 0.032 0.709 0.091-0.032 0.269-0.145 0.505-0.269 0.64-0.091-0.027-0.242-0.048-0.328-0.048-0.543 0-0.763 0.279-0.763 0.704 0 0.43 0.204 0.693 0.715 0.693 0.14 0 0.301-0.027 0.5-0.097l0.145 0.645c-0.296 0.118-0.602 0.172-0.844 0.172-0.828 0-1.37-0.494-1.37-1.365z"></path>
<path d="M21.767 18.967c0-0.441-0.215-0.699-0.591-0.699-0.366 0-0.591 0.258-0.591 0.699 0 0.462 0.22 0.704 0.591 0.704 0.376 0 0.591-0.242 0.591-0.704zM19.773 18.967c0-0.86 0.58-1.397 1.403-1.397 0.855 0 1.403 0.559 1.403 1.397 0 0.865-0.554 1.403-1.403 1.403-0.855 0-1.403-0.554-1.403-1.403z"></path>
<path d="M23.036 16.866c0.188-0.14 0.597-0.258 0.811-0.258v3.708h-0.811v-3.45z"></path>
<path d="M26.298 18.967c0-0.441-0.215-0.699-0.591-0.699-0.366 0-0.591 0.258-0.591 0.699 0 0.462 0.221 0.704 0.591 0.704 0.376 0 0.591-0.242 0.591-0.704zM24.304 18.967c0-0.86 0.58-1.397 1.403-1.397 0.855 0 1.403 0.559 1.403 1.397 0 0.865-0.554 1.403-1.403 1.403-0.855 0-1.403-0.554-1.403-1.403z"></path>
<path d="M31.63 18.403v1.913h-0.801v-1.628c0-0.285-0.183-0.43-0.505-0.43-0.151 0-0.296 0.032-0.414 0.081 0.043 0.118 0.065 0.247 0.065 0.387v1.591h-0.801v-1.628c0-0.285-0.183-0.43-0.505-0.43-0.124 0-0.242 0.016-0.344 0.043v2.015h-0.811l0.005-2.392c0.323-0.226 0.828-0.349 1.252-0.349 0.339 0 0.629 0.113 0.838 0.296 0.274-0.177 0.656-0.296 0.978-0.296 0.586 0 1.043 0.312 1.043 0.828z"></path>
<path d="M34.086 18.929c0-0.494-0.258-0.672-0.672-0.672-0.167 0-0.301 0.032-0.419 0.086v1.349c0.145 0.022 0.285 0.032 0.414 0.032 0.473 0 0.677-0.365 0.677-0.795zM34.887 18.827c0 0.978-0.58 1.542-1.526 1.542-0.462 0-0.908-0.086-1.177-0.21v-3.295c0.188-0.14 0.602-0.258 0.811-0.258v1.274c0.231-0.199 0.511-0.306 0.763-0.306 0.801 0 1.129 0.554 1.129 1.252z"></path>
<path d="M35.343 17.65c0.113-0.048 0.252-0.075 0.408-0.075s0.29 0.027 0.403 0.075v2.666h-0.811v-2.666zM35.333 16.801c0-0.226 0.188-0.414 0.414-0.414 0.231 0 0.419 0.183 0.419 0.414 0 0.22-0.188 0.414-0.419 0.414-0.226 0-0.414-0.183-0.414-0.414z"></path>
<path d="M38.192 19.628v-0.462h-0.156c-0.365 0-0.699 0.081-0.699 0.333 0 0.193 0.129 0.263 0.393 0.263 0.209 0 0.381-0.064 0.462-0.134zM38.982 18.623v1.413c-0.29 0.221-0.758 0.339-1.392 0.339-0.564 0-1.032-0.231-1.032-0.742 0-0.768 0.747-0.957 1.634-0.983-0.016-0.333-0.15-0.419-0.446-0.419-0.156 0-0.57 0.070-0.623 0.070-0.129 0-0.231-0.081-0.317-0.317l-0.065-0.193c0.333-0.124 0.661-0.21 1.016-0.21 0.774 0 1.225 0.29 1.225 1.043z"></path>
<path d="M20.971 10.112c0.045 0.172 0.22 0.261 0.397 0.203 1.455-0.444 2.914-0.748 4.419-0.969 0.172-0.023 0.267-0.2 0.203-0.377-0.134-0.374-0.201-0.56-0.338-0.932-0.058-0.158-0.215-0.261-0.375-0.244-1.471 0.18-2.892 0.445-4.316 0.854-0.185 0.058-0.299 0.264-0.253 0.446 0.104 0.407 0.157 0.61 0.262 1.018z"></path>
<path d="M26.868 10.317c-0.057-0.167-0.21-0.279-0.361-0.259-2.302 0.291-4.545 0.855-6.671 1.788-0.155 0.073-0.248 0.266-0.216 0.437 0.083 0.436 0.125 0.654 0.21 1.091 0.036 0.187 0.212 0.273 0.386 0.189 2.16-0.981 4.442-1.605 6.783-1.977 0.149-0.024 0.225-0.193 0.168-0.367-0.118-0.361-0.178-0.541-0.299-0.901z"></path>
<path d="M26.861 12.751c-0.057-0.178-0.224-0.295-0.382-0.262-1.437 0.309-2.843 0.682-4.235 1.156-0.177 0.064-0.276 0.249-0.229 0.419 0.111 0.405 0.166 0.607 0.278 1.014 0.053 0.191 0.269 0.288 0.467 0.213 1.392-0.494 2.797-0.926 4.233-1.272 0.138-0.033 0.206-0.193 0.154-0.359-0.113-0.364-0.17-0.546-0.287-0.909z"></path>
</svg>
