<svg version="1.1" xmlns="http://www.w3.org/2000/svg" width="115" height="32" viewBox="0 0 115 32">
<title>brand-Bancolombia-endoso-primario-positivo</title>
<path d="M13.055 11.636c0.066 0.256 0.325 0.387 0.588 0.301 2.157-0.658 4.318-1.108 6.549-1.436 0.256-0.034 0.396-0.296 0.302-0.559-0.198-0.554-0.298-0.83-0.501-1.381-0.086-0.234-0.318-0.387-0.556-0.362-2.18 0.267-4.286 0.66-6.397 1.266-0.275 0.086-0.444 0.391-0.374 0.662 0.154 0.603 0.232 0.905 0.389 1.509z"></path>
<path d="M21.796 11.938c-0.084-0.248-0.311-0.413-0.536-0.384-3.413 0.431-6.736 1.268-9.887 2.651-0.23 0.108-0.368 0.395-0.319 0.647 0.123 0.646 0.186 0.97 0.312 1.617 0.054 0.277 0.315 0.404 0.572 0.28 3.201-1.454 6.583-2.379 10.053-2.931 0.221-0.036 0.333-0.287 0.249-0.545-0.175-0.535-0.264-0.802-0.444-1.335z"></path>
<path d="M21.786 15.547c-0.085-0.264-0.332-0.437-0.567-0.389-2.131 0.458-4.214 1.011-6.277 1.714-0.262 0.095-0.409 0.369-0.34 0.621 0.164 0.6 0.247 0.9 0.413 1.502 0.078 0.283 0.398 0.427 0.693 0.316 2.063-0.732 4.146-1.372 6.275-1.885 0.204-0.049 0.305-0.287 0.229-0.532-0.168-0.54-0.253-0.81-0.425-1.348z"></path>
<path d="M29.922 14.955c0-0.727-0.466-1.029-1.385-1.029h-1.097v2.057h1.083c0.891 0 1.399-0.357 1.399-1.028zM28.317 10.32c-0.288 0-0.59 0.027-0.878 0.069v1.824h0.933c0.823 0 1.207-0.343 1.207-0.933 0-0.562-0.398-0.96-1.262-0.96zM32.17 15.051c0 1.604-1.618 2.674-3.456 2.674h-3.374v-8.859c1.125-0.165 1.975-0.274 2.976-0.274 1.851 0 3.333 0.864 3.333 2.372 0 0.864-0.453 1.44-1.262 1.755 1.248 0.356 1.783 1.111 1.783 2.331z"></path>
<path d="M37.003 15.97v-1.179h-0.398c-0.932 0-1.783 0.206-1.783 0.85 0 0.494 0.329 0.672 1.001 0.672 0.535 0 0.974-0.165 1.179-0.343zM39.019 13.405v3.607c-0.741 0.562-1.934 0.864-3.552 0.864-1.44 0-2.633-0.59-2.633-1.892 0-1.961 1.906-2.441 4.169-2.51-0.041-0.85-0.384-1.070-1.139-1.070-0.397 0-1.453 0.178-1.591 0.178-0.329 0-0.59-0.206-0.809-0.809l-0.165-0.494c0.85-0.315 1.687-0.535 2.592-0.535 1.975 0 3.127 0.74 3.127 2.66z"></path>
<path d="M46.57 12.843v4.882h-2.057v-4.155c0-0.727-0.48-1.097-1.317-1.097-0.315 0-0.617 0.041-0.878 0.11v5.143h-2.071l0.014-6.103c0.864-0.576 2.263-0.891 3.401-0.891 1.577 0 2.907 0.782 2.907 2.112z"></path>
<path d="M47.462 14.379c0-2.4 1.673-3.662 3.84-3.662 0.603 0 1.152 0.082 1.81 0.233-0.082 0.686-0.37 1.289-0.686 1.632-0.233-0.069-0.617-0.123-0.837-0.123-1.385 0-1.947 0.713-1.947 1.796 0 1.097 0.521 1.769 1.824 1.769 0.357 0 0.768-0.069 1.275-0.247l0.37 1.646c-0.754 0.302-1.536 0.439-2.153 0.439-2.112 0-3.497-1.262-3.497-3.483z"></path>
<path d="M58.598 14.283c0-1.124-0.549-1.783-1.508-1.783-0.933 0-1.509 0.658-1.509 1.783 0 1.179 0.562 1.797 1.509 1.797 0.96 0 1.508-0.617 1.508-1.797zM53.51 14.283c0-2.194 1.481-3.566 3.579-3.566 2.18 0 3.579 1.426 3.579 3.566 0 2.208-1.412 3.579-3.579 3.579-2.181 0-3.579-1.413-3.579-3.579z"></path>
<path d="M61.835 8.921c0.48-0.357 1.522-0.658 2.071-0.658v9.463h-2.071v-8.804z"></path>
<path d="M70.159 14.283c0-1.124-0.549-1.783-1.509-1.783-0.933 0-1.509 0.658-1.509 1.783 0 1.179 0.562 1.797 1.509 1.797 0.96 0 1.509-0.617 1.509-1.797zM65.071 14.283c0-2.194 1.481-3.566 3.579-3.566 2.181 0 3.579 1.426 3.579 3.566 0 2.208-1.413 3.579-3.579 3.579-2.181 0-3.579-1.413-3.579-3.579z"></path>
<path d="M83.763 12.843v4.882h-2.043v-4.155c0-0.727-0.466-1.097-1.289-1.097-0.384 0-0.754 0.082-1.056 0.206 0.11 0.302 0.165 0.631 0.165 0.987v4.059h-2.043v-4.155c0-0.727-0.466-1.097-1.289-1.097-0.315 0-0.617 0.041-0.878 0.11v5.143h-2.071l0.013-6.103c0.823-0.576 2.112-0.891 3.195-0.891 0.864 0 1.605 0.288 2.139 0.754 0.699-0.453 1.673-0.754 2.496-0.754 1.495 0 2.661 0.795 2.661 2.112z"></path>
<path d="M90.031 14.187c0-1.262-0.658-1.714-1.714-1.714-0.425 0-0.768 0.082-1.069 0.219v3.442c0.37 0.055 0.727 0.082 1.056 0.082 1.207 0 1.728-0.932 1.728-2.030zM92.074 13.927c0 2.496-1.481 3.936-3.895 3.936-1.179 0-2.317-0.219-3.003-0.535v-8.406c0.48-0.357 1.536-0.658 2.071-0.658v3.25c0.59-0.507 1.303-0.782 1.947-0.782 2.043 0 2.88 1.412 2.88 3.195z"></path>
<path d="M93.24 10.923c0.288-0.124 0.645-0.192 1.042-0.192s0.741 0.068 1.028 0.192v6.802h-2.071v-6.802zM93.213 8.756c0-0.576 0.48-1.056 1.056-1.056 0.59 0 1.069 0.466 1.069 1.056 0 0.562-0.48 1.056-1.069 1.056-0.576 0-1.056-0.466-1.056-1.056z"></path>
<path d="M100.508 15.97v-1.179h-0.398c-0.933 0-1.783 0.206-1.783 0.85 0 0.494 0.329 0.672 1.001 0.672 0.535 0 0.974-0.165 1.179-0.343zM102.524 13.405v3.607c-0.741 0.562-1.934 0.864-3.552 0.864-1.44 0-2.633-0.59-2.633-1.892 0-1.961 1.906-2.441 4.169-2.51-0.041-0.85-0.384-1.070-1.138-1.070-0.398 0-1.454 0.178-1.591 0.178-0.329 0-0.59-0.206-0.809-0.809l-0.165-0.494c0.85-0.315 1.687-0.535 2.592-0.535 1.975 0 3.127 0.74 3.127 2.66z"></path>
<path d="M26.87 25.312c0.332 0 0.628-0.029 0.867-0.094v-2.456c-0.238-0.13-0.527-0.217-0.816-0.217-0.91 0-1.228 0.614-1.228 1.546 0 0.867 0.498 1.221 1.177 1.221zM28.293 20.733v4.832c-0.339 0.152-0.874 0.224-1.452 0.224-1.163 0-1.712-0.758-1.712-1.726 0-1.264 0.614-2.008 1.567-2.008 0.448 0 0.809 0.13 1.040 0.303v-1.437c0.13-0.101 0.419-0.188 0.556-0.188z"></path>
<path d="M29.752 23.658h1.928v-0.072c0-0.744-0.368-1.119-0.924-1.119-0.535 0-0.925 0.339-1.004 1.192zM32.229 24.034h-2.492c0.014 0.794 0.404 1.293 1.148 1.293 0.383 0 0.816-0.087 1.105-0.217 0.087 0.094 0.144 0.217 0.166 0.426-0.332 0.137-0.787 0.26-1.358 0.26-1.026 0-1.632-0.693-1.632-1.762 0-1.264 0.65-1.979 1.647-1.979 0.896 0 1.459 0.614 1.459 1.603 0 0.137-0.014 0.245-0.043 0.375z"></path>
<path d="M33.147 20.921c0.13-0.101 0.412-0.188 0.556-0.188v4.983h-0.556v-4.796z"></path>
<path d="M40.246 23.492v1.582c-0.419 0.462-1.098 0.715-1.907 0.715-1.329 0-2.232-0.896-2.232-2.441 0-1.502 0.896-2.412 2.232-2.412 0.787 0 1.408 0.289 1.798 0.773-0.051 0.188-0.231 0.303-0.404 0.347-0.275-0.397-0.737-0.628-1.394-0.628-1.026 0-1.654 0.715-1.654 1.921 0 1.242 0.635 1.943 1.654 1.943 0.506 0 0.953-0.115 1.329-0.361v-1.336c0.152-0.144 0.383-0.166 0.578-0.101z"></path>
<path d="M42.767 22.582c-0.592 0-0.888 0.043-1.127 0.173v2.961h-0.556v-3.308c0.404-0.224 0.917-0.332 1.358-0.332 0.217 0 0.34 0.036 0.426 0.065 0 0.166-0.022 0.332-0.101 0.441z"></path>
<path d="M46.407 22.098v3.308c-0.274 0.195-1.069 0.332-1.517 0.332-0.845 0-1.387-0.311-1.387-1.177v-2.354c0.166-0.079 0.339-0.108 0.556-0.108v2.383c0 0.527 0.311 0.766 0.961 0.766 0.311 0 0.599-0.051 0.83-0.116v-2.932c0.152-0.079 0.368-0.101 0.556-0.101z"></path>
<path d="M49.975 23.882c0-0.751-0.419-1.336-1.416-1.336-0.202 0-0.412 0.029-0.628 0.079v2.535c0.217 0.079 0.484 0.144 0.773 0.144 0.787 0 1.271-0.419 1.271-1.423zM50.539 23.969c0 1.033-0.505 1.82-1.589 1.82-0.34 0-0.73-0.108-1.019-0.282v1.459c-0.115 0.108-0.39 0.188-0.556 0.188v-4.882c0.231-0.101 0.7-0.202 1.148-0.202 1.249 0 2.015 0.65 2.015 1.899z"></path>
<path d="M53.991 23.911c0-0.859-0.433-1.358-1.177-1.358-0.729 0-1.17 0.498-1.17 1.358 0 0.91 0.433 1.379 1.17 1.379 0.744 0 1.177-0.47 1.177-1.379zM51.074 23.911c0-1.127 0.701-1.856 1.74-1.856 1.062 0 1.741 0.744 1.741 1.856 0 1.163-0.686 1.878-1.741 1.878-1.062 0-1.74-0.737-1.74-1.878z"></path>
<path d="M59.2 24.258c0-0.383-0.246-0.542-0.73-0.542h-0.578v1.083h0.571c0.47 0 0.737-0.188 0.737-0.542zM58.354 21.816c-0.151 0-0.31 0.014-0.462 0.036v0.961h0.491c0.433 0 0.636-0.181 0.636-0.491 0-0.296-0.209-0.506-0.665-0.506zM60.384 24.308c0 0.845-0.852 1.408-1.82 1.408h-1.777v-4.666c0.592-0.087 1.040-0.144 1.567-0.144 0.975 0 1.755 0.455 1.755 1.25 0 0.455-0.238 0.758-0.664 0.924 0.657 0.188 0.939 0.585 0.939 1.228z"></path>
<path d="M62.929 24.792v-0.621h-0.21c-0.491 0-0.939 0.108-0.939 0.448 0 0.26 0.173 0.354 0.528 0.354 0.282 0 0.513-0.087 0.621-0.181zM63.991 23.441v1.899c-0.39 0.296-1.019 0.455-1.871 0.455-0.758 0-1.387-0.311-1.387-0.997 0-1.033 1.004-1.286 2.196-1.322-0.022-0.448-0.202-0.563-0.6-0.563-0.209 0-0.765 0.094-0.837 0.094-0.174 0-0.311-0.108-0.426-0.426l-0.087-0.26c0.448-0.166 0.888-0.282 1.365-0.282 1.040 0 1.647 0.39 1.647 1.401z"></path>
<path d="M67.968 23.145v2.571h-1.083v-2.188c0-0.383-0.253-0.578-0.693-0.578-0.166 0-0.325 0.022-0.462 0.058v2.708h-1.091l0.007-3.214c0.455-0.303 1.192-0.47 1.791-0.47 0.83 0 1.531 0.412 1.531 1.112z"></path>
<path d="M68.438 23.954c0-1.264 0.881-1.928 2.022-1.928 0.318 0 0.607 0.043 0.953 0.123-0.043 0.361-0.195 0.679-0.361 0.859-0.123-0.036-0.325-0.065-0.44-0.065-0.73 0-1.026 0.376-1.026 0.946 0 0.578 0.275 0.932 0.961 0.932 0.188 0 0.405-0.036 0.672-0.13l0.195 0.867c-0.397 0.159-0.809 0.231-1.134 0.231-1.112 0-1.841-0.664-1.841-1.834z"></path>
<path d="M74.302 23.904c0-0.592-0.289-0.939-0.794-0.939-0.491 0-0.794 0.347-0.794 0.939 0 0.621 0.296 0.946 0.794 0.946 0.506 0 0.794-0.325 0.794-0.946zM71.623 23.904c0-1.155 0.78-1.878 1.885-1.878 1.148 0 1.885 0.751 1.885 1.878 0 1.163-0.744 1.885-1.885 1.885-1.148 0-1.885-0.744-1.885-1.885z"></path>
<path d="M76.007 21.080c0.253-0.188 0.802-0.347 1.090-0.347v4.983h-1.090v-4.637z"></path>
<path d="M80.391 23.904c0-0.592-0.289-0.939-0.794-0.939-0.491 0-0.794 0.347-0.794 0.939 0 0.621 0.296 0.946 0.794 0.946 0.506 0 0.794-0.325 0.794-0.946zM77.711 23.904c0-1.155 0.78-1.878 1.885-1.878 1.148 0 1.885 0.751 1.885 1.878 0 1.163-0.744 1.885-1.885 1.885-1.148 0-1.885-0.744-1.885-1.885z"></path>
<path d="M87.555 23.145v2.571h-1.076v-2.188c0-0.383-0.246-0.578-0.679-0.578-0.202 0-0.397 0.043-0.556 0.108 0.058 0.159 0.087 0.332 0.087 0.52v2.138h-1.076v-2.188c0-0.383-0.245-0.578-0.679-0.578-0.166 0-0.325 0.022-0.462 0.058v2.708h-1.091l0.007-3.214c0.433-0.303 1.112-0.47 1.683-0.47 0.455 0 0.845 0.152 1.127 0.397 0.368-0.238 0.881-0.397 1.314-0.397 0.787 0 1.401 0.419 1.401 1.112z"></path>
<path d="M90.857 23.853c0-0.665-0.347-0.903-0.903-0.903-0.224 0-0.404 0.043-0.563 0.116v1.813c0.195 0.029 0.383 0.043 0.556 0.043 0.636 0 0.91-0.491 0.91-1.069zM91.932 23.716c0 1.314-0.78 2.073-2.051 2.073-0.621 0-1.221-0.116-1.582-0.282v-4.427c0.253-0.188 0.809-0.347 1.091-0.347v1.712c0.311-0.267 0.686-0.412 1.026-0.412 1.076 0 1.516 0.744 1.516 1.683z"></path>
<path d="M92.546 22.134c0.152-0.065 0.34-0.101 0.549-0.101s0.39 0.036 0.542 0.101v3.582h-1.091v-3.582zM92.532 20.993c0-0.303 0.253-0.556 0.556-0.556 0.311 0 0.563 0.246 0.563 0.556 0 0.296-0.253 0.556-0.563 0.556-0.304 0-0.556-0.246-0.556-0.556z"></path>
<path d="M96.375 24.792v-0.621h-0.21c-0.491 0-0.939 0.108-0.939 0.448 0 0.26 0.173 0.354 0.527 0.354 0.282 0 0.513-0.087 0.621-0.181zM97.436 23.441v1.899c-0.39 0.296-1.019 0.455-1.871 0.455-0.758 0-1.387-0.311-1.387-0.997 0-1.033 1.004-1.286 2.196-1.322-0.022-0.448-0.203-0.563-0.6-0.563-0.21 0-0.766 0.094-0.838 0.094-0.173 0-0.311-0.108-0.426-0.426l-0.087-0.26c0.448-0.166 0.888-0.282 1.365-0.282 1.040 0 1.647 0.39 1.647 1.401z"></path>
</svg>
