<svg version="1.1" xmlns="http://www.w3.org/2000/svg" width="115" height="32" viewBox="0 0 115 32">
<title>brand-Bancolombia-filiales-puertorico-primario-positivo</title>
<path d="M13.623 10.423c0.066 0.256 0.325 0.387 0.588 0.301 2.157-0.658 4.318-1.108 6.549-1.436 0.256-0.034 0.396-0.296 0.302-0.559-0.198-0.554-0.298-0.83-0.501-1.381-0.086-0.234-0.318-0.387-0.556-0.362-2.18 0.267-4.286 0.66-6.397 1.266-0.275 0.086-0.444 0.391-0.374 0.662 0.154 0.603 0.232 0.905 0.389 1.509z"></path>
<path d="M22.363 10.726c-0.084-0.248-0.311-0.413-0.536-0.384-3.413 0.431-6.736 1.268-9.887 2.65-0.23 0.108-0.368 0.395-0.319 0.647 0.123 0.646 0.186 0.97 0.312 1.617 0.054 0.277 0.315 0.404 0.572 0.28 3.201-1.454 6.583-2.379 10.053-2.931 0.221-0.036 0.333-0.286 0.249-0.545-0.175-0.535-0.264-0.802-0.444-1.335z"></path>
<path d="M22.354 14.334c-0.085-0.264-0.332-0.437-0.567-0.389-2.131 0.458-4.214 1.011-6.277 1.714-0.262 0.095-0.409 0.369-0.34 0.621 0.164 0.6 0.247 0.9 0.413 1.502 0.078 0.283 0.398 0.427 0.693 0.316 2.063-0.732 4.146-1.372 6.275-1.885 0.204-0.049 0.305-0.287 0.229-0.532-0.168-0.54-0.253-0.81-0.425-1.348z"></path>
<path d="M30.489 13.743c0-0.727-0.466-1.029-1.385-1.029h-1.097v2.057h1.083c0.891 0 1.399-0.357 1.399-1.028zM28.885 9.107c-0.288 0-0.59 0.027-0.878 0.069v1.824h0.933c0.823 0 1.207-0.343 1.207-0.932 0-0.562-0.398-0.96-1.262-0.96zM32.738 13.839c0 1.604-1.618 2.674-3.456 2.674h-3.374v-8.859c1.125-0.165 1.975-0.274 2.976-0.274 1.851 0 3.332 0.864 3.332 2.372 0 0.864-0.453 1.44-1.262 1.755 1.248 0.356 1.783 1.111 1.783 2.331z"></path>
<path d="M37.571 14.757v-1.179h-0.398c-0.933 0-1.783 0.206-1.783 0.85 0 0.494 0.329 0.672 1.001 0.672 0.535 0 0.974-0.165 1.179-0.343zM39.586 12.193v3.607c-0.74 0.562-1.933 0.864-3.552 0.864-1.44 0-2.633-0.59-2.633-1.893 0-1.961 1.906-2.441 4.169-2.51-0.041-0.85-0.384-1.070-1.138-1.070-0.398 0-1.454 0.178-1.591 0.178-0.329 0-0.59-0.206-0.809-0.809l-0.165-0.494c0.85-0.315 1.687-0.535 2.592-0.535 1.975 0 3.127 0.741 3.127 2.66z"></path>
<path d="M47.138 11.631v4.882h-2.057v-4.155c0-0.727-0.48-1.097-1.317-1.097-0.315 0-0.617 0.041-0.878 0.11v5.143h-2.071l0.013-6.103c0.864-0.576 2.263-0.891 3.401-0.891 1.577 0 2.907 0.782 2.907 2.112z"></path>
<path d="M48.030 13.167c0-2.4 1.673-3.662 3.84-3.662 0.603 0 1.152 0.082 1.81 0.233-0.082 0.686-0.37 1.289-0.686 1.632-0.233-0.069-0.617-0.123-0.837-0.123-1.385 0-1.947 0.713-1.947 1.796 0 1.097 0.521 1.769 1.824 1.769 0.357 0 0.768-0.069 1.275-0.247l0.37 1.646c-0.754 0.302-1.536 0.439-2.153 0.439-2.112 0-3.497-1.262-3.497-3.483z"></path>
<path d="M59.166 13.071c0-1.124-0.549-1.783-1.509-1.783-0.933 0-1.509 0.658-1.509 1.783 0 1.179 0.562 1.797 1.509 1.797 0.96 0 1.509-0.617 1.509-1.797zM54.078 13.071c0-2.194 1.481-3.566 3.579-3.566 2.181 0 3.579 1.426 3.579 3.566 0 2.208-1.413 3.579-3.579 3.579-2.181 0-3.579-1.413-3.579-3.579z"></path>
<path d="M62.402 7.709c0.48-0.357 1.522-0.658 2.071-0.658v9.463h-2.071v-8.804z"></path>
<path d="M70.727 13.071c0-1.124-0.549-1.783-1.508-1.783-0.933 0-1.509 0.658-1.509 1.783 0 1.179 0.562 1.797 1.509 1.797 0.96 0 1.508-0.617 1.508-1.797zM65.639 13.071c0-2.194 1.481-3.566 3.579-3.566 2.18 0 3.579 1.426 3.579 3.566 0 2.208-1.413 3.579-3.579 3.579-2.181 0-3.579-1.413-3.579-3.579z"></path>
<path d="M84.331 11.631v4.882h-2.043v-4.155c0-0.727-0.466-1.097-1.289-1.097-0.384 0-0.754 0.082-1.056 0.206 0.11 0.302 0.165 0.631 0.165 0.987v4.059h-2.043v-4.155c0-0.727-0.466-1.097-1.289-1.097-0.315 0-0.617 0.041-0.878 0.11v5.143h-2.071l0.014-6.103c0.823-0.576 2.112-0.891 3.195-0.891 0.864 0 1.604 0.288 2.139 0.754 0.699-0.453 1.673-0.754 2.496-0.754 1.495 0 2.661 0.795 2.661 2.112z"></path>
<path d="M90.599 12.975c0-1.262-0.658-1.714-1.714-1.714-0.425 0-0.768 0.082-1.070 0.219v3.442c0.37 0.055 0.727 0.082 1.056 0.082 1.207 0 1.728-0.932 1.728-2.030zM92.642 12.714c0 2.496-1.481 3.936-3.895 3.936-1.179 0-2.318-0.219-3.003-0.535v-8.406c0.48-0.357 1.536-0.658 2.071-0.658v3.25c0.59-0.507 1.303-0.782 1.947-0.782 2.043 0 2.88 1.412 2.88 3.195z"></path>
<path d="M93.808 9.711c0.288-0.123 0.645-0.192 1.042-0.192s0.741 0.069 1.029 0.192v6.802h-2.071v-6.802zM93.78 7.544c0-0.576 0.48-1.056 1.056-1.056 0.59 0 1.070 0.466 1.070 1.056 0 0.562-0.48 1.056-1.070 1.056-0.576 0-1.056-0.466-1.056-1.056z"></path>
<path d="M101.077 14.757v-1.179h-0.398c-0.933 0-1.783 0.206-1.783 0.85 0 0.494 0.329 0.672 1.001 0.672 0.535 0 0.974-0.165 1.179-0.343zM103.092 12.193v3.607c-0.74 0.562-1.933 0.864-3.551 0.864-1.44 0-2.633-0.59-2.633-1.893 0-1.961 1.906-2.441 4.169-2.51-0.041-0.85-0.384-1.070-1.138-1.070-0.398 0-1.454 0.178-1.591 0.178-0.329 0-0.59-0.206-0.809-0.809l-0.165-0.494c0.85-0.315 1.687-0.535 2.592-0.535 1.975 0 3.126 0.741 3.126 2.66z"></path>
<path d="M29.252 20.918c0-0.691-0.413-1.363-1.728-1.363-0.269 0-0.538 0.048-0.739 0.106v2.88h0.605c1.344 0 1.862-0.73 1.862-1.622zM29.992 20.899c0 1.258-0.998 2.265-2.506 2.265h-0.701v2.102h-0.768v-6.163c0.49-0.106 1.066-0.192 1.584-0.192 1.738 0 2.39 1.085 2.39 1.987z"></path>
<path d="M34.705 20.457v4.397c-0.365 0.259-1.421 0.442-2.016 0.442-1.123 0-1.843-0.413-1.843-1.565v-3.13c0.221-0.106 0.451-0.144 0.739-0.144v3.168c0 0.701 0.413 1.018 1.277 1.018 0.413 0 0.797-0.067 1.104-0.154v-3.897c0.202-0.106 0.49-0.134 0.739-0.134z"></path>
<path d="M36.645 22.531h2.563v-0.096c0-0.989-0.49-1.488-1.229-1.488-0.71 0-1.229 0.451-1.334 1.584zM39.937 23.030h-3.312c0.019 1.056 0.538 1.718 1.526 1.718 0.509 0 1.085-0.115 1.469-0.288 0.115 0.125 0.192 0.288 0.221 0.566-0.442 0.182-1.046 0.346-1.805 0.346-1.363 0-2.17-0.922-2.17-2.342 0-1.68 0.864-2.63 2.189-2.63 1.19 0 1.939 0.816 1.939 2.131 0 0.182-0.019 0.326-0.058 0.499z"></path>
<path d="M43.22 21.1c-0.787 0-1.181 0.058-1.497 0.23v3.936h-0.739v-4.397c0.538-0.298 1.219-0.442 1.805-0.442 0.288 0 0.451 0.048 0.566 0.086 0 0.221-0.029 0.442-0.134 0.585z"></path>
<path d="M46.83 25.238c-0.154 0.077-0.509 0.134-0.941 0.134-0.893 0-1.353-0.317-1.353-1.305v-2.966h-0.576c0-0.595 0.739-1.334 1.315-1.43v0.826h1.536c0 0.182-0.067 0.461-0.211 0.605h-1.325v2.784c0 0.624 0.202 0.845 0.749 0.845 0.23 0 0.375-0.029 0.653-0.096 0.115 0.115 0.154 0.326 0.154 0.605z"></path>
<path d="M51.313 22.867c0-1.142-0.576-1.805-1.565-1.805-0.969 0-1.555 0.662-1.555 1.805 0 1.209 0.576 1.834 1.555 1.834 0.989 0 1.565-0.624 1.565-1.834zM47.435 22.867c0-1.497 0.931-2.467 2.313-2.467 1.411 0 2.313 0.989 2.313 2.467 0 1.546-0.912 2.496-2.313 2.496-1.411 0-2.313-0.979-2.313-2.496z"></path>
<path d="M57.39 22.329c1.209 0 1.737-0.585 1.737-1.488 0-0.73-0.442-1.277-1.747-1.277-0.269 0-0.528 0.029-0.73 0.077v2.688h0.739zM59.319 25.266l-1.411-2.304c-0.096 0-0.192 0.010-0.298 0.010h-0.96v2.294h-0.768v-6.173c0.518-0.106 1.075-0.182 1.603-0.182 1.738 0 2.41 0.998 2.41 1.93 0 0.883-0.48 1.632-1.315 1.958l1.565 2.467h-0.826z"></path>
<path d="M61.239 20.515c0.106-0.058 0.24-0.077 0.375-0.077 0.144 0 0.269 0.019 0.374 0.077v4.752h-0.749v-4.752zM61.096 19.046c0-0.278 0.24-0.509 0.518-0.509 0.288 0 0.528 0.221 0.528 0.509 0 0.269-0.24 0.499-0.528 0.499-0.279 0-0.518-0.221-0.518-0.499z"></path>
<path d="M63.169 22.924c0-1.613 0.989-2.525 2.438-2.525 0.403 0 0.826 0.038 1.267 0.163-0.029 0.25-0.134 0.499-0.259 0.643-0.182-0.067-0.605-0.163-0.893-0.163-1.277 0-1.766 0.854-1.766 1.843 0 1.066 0.461 1.814 1.622 1.814 0.346 0 0.768-0.106 1.143-0.259l0.154 0.614c-0.442 0.192-1.027 0.307-1.536 0.307-1.306 0-2.17-0.874-2.17-2.438z"></path>
<path d="M71.348 22.867c0-1.142-0.576-1.805-1.565-1.805-0.969 0-1.555 0.662-1.555 1.805 0 1.209 0.576 1.834 1.555 1.834 0.989 0 1.565-0.624 1.565-1.834zM67.47 22.867c0-1.497 0.931-2.467 2.313-2.467 1.411 0 2.314 0.989 2.314 2.467 0 1.546-0.912 2.496-2.314 2.496-1.411 0-2.313-0.979-2.313-2.496z"></path>
</svg>
