<svg version="1.1" xmlns="http://www.w3.org/2000/svg" width="48" height="32" viewBox="0 0 48 32">
<title>brand-FundacionGrupoBancolombia-secundario-positivo</title>
<path d="M12.542 15.068v0.923h1.098c0 0.104-0.012 0.187-0.062 0.283h-1.036v1.227h-0.333v-2.712h1.639v0.279h-1.306z"></path>
<path d="M15.816 15.417v1.905c-0.158 0.112-0.616 0.191-0.873 0.191-0.487 0-0.799-0.179-0.799-0.678v-1.356c0.096-0.046 0.196-0.062 0.32-0.062v1.373c0 0.304 0.179 0.441 0.553 0.441 0.179 0 0.345-0.029 0.478-0.067v-1.689c0.087-0.046 0.212-0.058 0.32-0.058z"></path>
<path d="M18.046 16.037v1.464h-0.32v-1.373c0-0.304-0.179-0.441-0.553-0.441-0.179 0-0.349 0.029-0.478 0.067v1.747h-0.32v-1.905c0.158-0.112 0.616-0.191 0.874-0.191 0.487 0 0.799 0.204 0.799 0.632z"></path>
<path d="M19.494 17.268c0.191 0 0.362-0.017 0.499-0.054v-1.414c-0.137-0.075-0.303-0.125-0.47-0.125-0.524 0-0.707 0.354-0.707 0.89 0 0.499 0.287 0.703 0.678 0.703zM20.313 14.631v2.783c-0.195 0.087-0.503 0.129-0.836 0.129-0.67 0-0.986-0.437-0.986-0.994 0-0.728 0.354-1.156 0.903-1.156 0.258 0 0.466 0.075 0.599 0.175v-0.828c0.075-0.058 0.241-0.108 0.32-0.108z"></path>
<path d="M22.094 17.156v-0.665h-0.104c-0.437 0-0.844 0.104-0.844 0.424 0 0.266 0.166 0.358 0.462 0.358 0.2 0 0.375-0.054 0.487-0.116zM22.41 16.050v1.281c-0.208 0.129-0.516 0.2-0.873 0.2-0.383 0-0.707-0.171-0.707-0.549 0-0.574 0.591-0.715 1.265-0.724v-0.137c0-0.362-0.158-0.453-0.47-0.453-0.146 0-0.491 0.092-0.532 0.092-0.062 0-0.108-0.033-0.141-0.129l-0.029-0.079c0.246-0.096 0.466-0.158 0.715-0.158 0.487 0 0.774 0.187 0.774 0.657z"></path>
<path d="M22.834 16.486c0-0.699 0.429-1.094 1.057-1.094 0.175 0 0.358 0.017 0.549 0.071-0.012 0.108-0.058 0.216-0.112 0.279-0.079-0.029-0.262-0.071-0.387-0.071-0.553 0-0.765 0.37-0.765 0.799 0 0.462 0.2 0.786 0.703 0.786 0.15 0 0.333-0.046 0.495-0.112l0.067 0.266c-0.191 0.083-0.445 0.133-0.665 0.133-0.566 0-0.94-0.379-0.94-1.056z"></path>
<path d="M24.881 15.442c0.046-0.025 0.104-0.033 0.162-0.033 0.062 0 0.117 0.008 0.162 0.033v2.059h-0.324v-2.059zM24.818 14.806c0-0.121 0.104-0.22 0.225-0.22 0.125 0 0.229 0.096 0.229 0.22 0 0.116-0.104 0.216-0.229 0.216-0.121 0-0.225-0.096-0.225-0.216z"></path>
<path d="M26.599 15.085l0.424-0.69 0.062 0.029c0.108 0.050 0.129 0.1 0.125 0.146 0 0.037-0.033 0.116-0.15 0.237l-0.295 0.374-0.166-0.096zM27.397 16.462c0-0.495-0.25-0.782-0.678-0.782-0.42 0-0.674 0.287-0.674 0.782 0 0.524 0.25 0.794 0.674 0.794 0.428 0 0.678-0.27 0.678-0.794zM25.717 16.462c0-0.649 0.404-1.069 1.002-1.069 0.611 0 1.002 0.428 1.002 1.069 0 0.67-0.395 1.081-1.002 1.081-0.611 0-1.002-0.424-1.002-1.081z"></path>
<path d="M29.881 16.037v1.464h-0.32v-1.373c0-0.304-0.179-0.441-0.553-0.441-0.179 0-0.349 0.029-0.478 0.067v1.747h-0.32v-1.905c0.158-0.112 0.616-0.191 0.873-0.191 0.487 0 0.799 0.204 0.799 0.632z"></path>
<path d="M14.427 20.161v0.911c-0.241 0.266-0.632 0.412-1.098 0.412-0.765 0-1.285-0.516-1.285-1.406 0-0.865 0.516-1.389 1.285-1.389 0.453 0 0.811 0.166 1.036 0.445-0.029 0.108-0.133 0.175-0.233 0.2-0.158-0.229-0.424-0.362-0.803-0.362-0.591 0-0.953 0.412-0.953 1.106 0 0.715 0.366 1.119 0.953 1.119 0.291 0 0.549-0.067 0.765-0.208v-0.769c0.087-0.083 0.22-0.096 0.333-0.058z"></path>
<path d="M15.879 19.637c-0.341 0-0.512 0.025-0.649 0.1v1.705h-0.32v-1.905c0.233-0.129 0.528-0.191 0.782-0.191 0.125 0 0.195 0.021 0.245 0.037 0 0.096-0.012 0.191-0.058 0.254z"></path>
<path d="M17.975 19.358v1.905c-0.158 0.112-0.616 0.191-0.874 0.191-0.487 0-0.799-0.179-0.799-0.678v-1.356c0.096-0.046 0.195-0.062 0.32-0.062v1.373c0 0.304 0.179 0.441 0.553 0.441 0.179 0 0.345-0.029 0.478-0.067v-1.689c0.087-0.046 0.212-0.058 0.32-0.058z"></path>
<path d="M20.030 20.386c0-0.433-0.241-0.77-0.815-0.77-0.116 0-0.237 0.017-0.362 0.046v1.46c0.125 0.046 0.279 0.083 0.445 0.083 0.453 0 0.732-0.241 0.732-0.819zM20.355 20.435c0 0.595-0.291 1.048-0.915 1.048-0.196 0-0.42-0.062-0.587-0.162v0.84c-0.067 0.062-0.225 0.108-0.32 0.108v-2.812c0.133-0.058 0.403-0.116 0.661-0.116 0.72 0 1.16 0.374 1.16 1.094z"></path>
<path d="M22.343 20.402c0-0.495-0.25-0.782-0.678-0.782-0.42 0-0.674 0.287-0.674 0.782 0 0.524 0.25 0.795 0.674 0.795 0.428 0 0.678-0.27 0.678-0.795zM20.663 20.402c0-0.649 0.403-1.069 1.002-1.069 0.611 0 1.002 0.428 1.002 1.069 0 0.67-0.395 1.082-1.002 1.082-0.611 0-1.002-0.424-1.002-1.082z"></path>
<path d="M13.507 24.542c0-0.22-0.141-0.312-0.42-0.312h-0.333v0.624h0.329c0.27 0 0.424-0.108 0.424-0.312zM13.021 23.137c-0.087 0-0.179 0.008-0.266 0.021v0.553h0.283c0.25 0 0.366-0.104 0.366-0.283 0-0.17-0.121-0.291-0.383-0.291zM14.189 24.572c0 0.487-0.491 0.811-1.048 0.811h-1.023v-2.687c0.341-0.050 0.599-0.083 0.903-0.083 0.562 0 1.011 0.262 1.011 0.72 0 0.262-0.137 0.437-0.383 0.532 0.379 0.108 0.541 0.337 0.541 0.707z"></path>
<path d="M15.655 24.85v-0.358h-0.121c-0.283 0-0.541 0.062-0.541 0.258 0 0.15 0.1 0.204 0.304 0.204 0.162 0 0.295-0.050 0.358-0.104zM16.267 24.073v1.094c-0.225 0.171-0.586 0.262-1.077 0.262-0.437 0-0.799-0.179-0.799-0.574 0-0.595 0.578-0.74 1.264-0.761-0.012-0.258-0.116-0.324-0.345-0.324-0.121 0-0.441 0.054-0.482 0.054-0.1 0-0.179-0.062-0.245-0.246l-0.050-0.15c0.258-0.096 0.512-0.162 0.786-0.162 0.599 0 0.948 0.225 0.948 0.807z"></path>
<path d="M18.557 23.902v1.481h-0.624v-1.26c0-0.221-0.146-0.333-0.399-0.333-0.096 0-0.187 0.013-0.266 0.033v1.56h-0.628l0.004-1.851c0.262-0.175 0.686-0.27 1.032-0.27 0.478 0 0.882 0.237 0.882 0.641z"></path>
<path d="M18.828 24.368c0-0.728 0.507-1.111 1.165-1.111 0.183 0 0.349 0.025 0.549 0.071-0.025 0.208-0.113 0.391-0.208 0.495-0.071-0.021-0.187-0.037-0.254-0.037-0.42 0-0.591 0.216-0.591 0.545 0 0.333 0.158 0.537 0.553 0.537 0.108 0 0.233-0.021 0.387-0.075l0.113 0.499c-0.229 0.092-0.466 0.133-0.653 0.133-0.64 0-1.061-0.383-1.061-1.057z"></path>
<path d="M22.205 24.339c0-0.341-0.166-0.541-0.457-0.541-0.283 0-0.458 0.2-0.458 0.541 0 0.358 0.171 0.545 0.458 0.545 0.291 0 0.457-0.187 0.457-0.545zM20.662 24.339c0-0.666 0.449-1.081 1.086-1.081 0.661 0 1.085 0.433 1.085 1.081 0 0.67-0.428 1.086-1.085 1.086-0.661 0-1.086-0.428-1.086-1.086z"></path>
<path d="M23.187 22.712c0.145-0.108 0.462-0.2 0.628-0.2v2.87h-0.628v-2.671z"></path>
<path d="M25.712 24.339c0-0.341-0.166-0.541-0.457-0.541-0.283 0-0.457 0.2-0.457 0.541 0 0.358 0.17 0.545 0.457 0.545 0.291 0 0.457-0.187 0.457-0.545zM24.168 24.339c0-0.666 0.449-1.081 1.086-1.081 0.661 0 1.086 0.433 1.086 1.081 0 0.67-0.428 1.086-1.086 1.086-0.661 0-1.086-0.428-1.086-1.086z"></path>
<path d="M29.838 23.902v1.481h-0.62v-1.26c0-0.221-0.141-0.333-0.391-0.333-0.117 0-0.229 0.025-0.32 0.062 0.033 0.092 0.050 0.191 0.050 0.299v1.231h-0.62v-1.26c0-0.221-0.141-0.333-0.391-0.333-0.096 0-0.187 0.013-0.266 0.033v1.56h-0.628l0.004-1.851c0.25-0.175 0.641-0.27 0.969-0.27 0.262 0 0.487 0.087 0.649 0.229 0.212-0.137 0.508-0.229 0.757-0.229 0.453 0 0.807 0.241 0.807 0.641z"></path>
<path d="M31.739 24.31c0-0.383-0.2-0.52-0.52-0.52-0.129 0-0.233 0.025-0.324 0.067v1.044c0.112 0.017 0.22 0.025 0.32 0.025 0.366 0 0.524-0.283 0.524-0.616zM32.359 24.231c0 0.757-0.449 1.194-1.181 1.194-0.358 0-0.703-0.067-0.911-0.162v-2.55c0.146-0.108 0.466-0.2 0.628-0.2v0.986c0.179-0.154 0.395-0.237 0.591-0.237 0.62 0 0.873 0.429 0.873 0.969z"></path>
<path d="M32.712 23.32c0.087-0.037 0.196-0.058 0.316-0.058s0.225 0.021 0.312 0.058v2.063h-0.628v-2.063zM32.704 22.662c0-0.175 0.145-0.32 0.32-0.32 0.179 0 0.324 0.141 0.324 0.32 0 0.17-0.145 0.32-0.324 0.32-0.175 0-0.32-0.141-0.32-0.32z"></path>
<path d="M34.917 24.85v-0.358h-0.121c-0.283 0-0.541 0.062-0.541 0.258 0 0.15 0.1 0.204 0.304 0.204 0.162 0 0.295-0.050 0.358-0.104zM35.528 24.073v1.094c-0.225 0.171-0.586 0.262-1.077 0.262-0.437 0-0.798-0.179-0.798-0.574 0-0.595 0.578-0.74 1.264-0.761-0.013-0.258-0.117-0.324-0.345-0.324-0.121 0-0.441 0.054-0.482 0.054-0.1 0-0.179-0.062-0.246-0.246l-0.050-0.15c0.258-0.096 0.512-0.162 0.786-0.162 0.599 0 0.948 0.225 0.948 0.807z"></path>
<path d="M17.666 11.617c-0.859 0.207-1.699 0.465-2.531 0.761-0.119 0.045-0.248-0.013-0.279-0.128-0.067-0.243-0.126-0.43-0.193-0.672-0.028-0.102 0.032-0.212 0.137-0.251 0.832-0.284 1.672-0.507 2.532-0.692 0.095-0.019 0.194 0.050 0.229 0.157 0.070 0.217 0.13 0.392 0.198 0.61 0.031 0.099-0.010 0.195-0.092 0.215zM13.359 11.154c-0.051-0.261-0.102-0.458-0.152-0.719-0.019-0.102 0.036-0.218 0.129-0.261 1.271-0.558 2.611-0.896 3.988-1.070 0.091-0.012 0.182 0.055 0.216 0.155 0.073 0.215 0.135 0.389 0.205 0.605 0.034 0.104-0.011 0.206-0.1 0.22-1.4 0.223-2.764 0.597-4.055 1.184-0.104 0.050-0.209-0.001-0.231-0.113zM13.978 8.182c0.851-0.245 1.701-0.404 2.58-0.512 0.096-0.010 0.19 0.052 0.224 0.146 0.082 0.223 0.148 0.4 0.228 0.624 0.038 0.106-0.019 0.212-0.122 0.226-0.9 0.132-1.772 0.314-2.641 0.58-0.106 0.035-0.21-0.018-0.237-0.121-0.063-0.244-0.121-0.432-0.183-0.675-0.028-0.109 0.040-0.233 0.151-0.267zM18.904 6.632h-6.697c-0.049 0-0.088 0.040-0.088 0.088v6.711c0 0.049 0.039 0.088 0.088 0.088h6.697c0.049 0 0.088-0.040 0.088-0.088v-6.711c0-0.049-0.040-0.088-0.088-0.088z"></path>
</svg>
