<svg version="1.1" xmlns="http://www.w3.org/2000/svg" width="76" height="32" viewBox="0 0 76 32">
<title>brand-FundacionGrupoBancolombia-primario-positivo</title>
<path d="M26.761 19.105c-1.631 0.393-3.227 0.884-4.807 1.446-0.226 0.085-0.471-0.026-0.531-0.242-0.127-0.462-0.24-0.817-0.366-1.277-0.053-0.193 0.060-0.403 0.261-0.476 1.581-0.539 3.177-0.963 4.809-1.315 0.18-0.037 0.369 0.096 0.434 0.298 0.132 0.413 0.247 0.744 0.375 1.159 0.058 0.188-0.019 0.37-0.175 0.408zM18.579 18.223c-0.097-0.497-0.194-0.87-0.289-1.365-0.037-0.194 0.069-0.414 0.245-0.496 2.414-1.061 4.96-1.703 7.575-2.033 0.172-0.022 0.346 0.105 0.41 0.295 0.138 0.409 0.256 0.738 0.39 1.149 0.065 0.198-0.021 0.39-0.19 0.418-2.658 0.423-5.25 1.133-7.702 2.249-0.197 0.095-0.397-0.002-0.438-0.215zM19.755 12.578c1.617-0.465 3.231-0.767 4.901-0.972 0.182-0.020 0.36 0.098 0.426 0.278 0.155 0.423 0.282 0.759 0.433 1.184 0.072 0.202-0.035 0.403-0.231 0.429-1.709 0.251-3.365 0.597-5.017 1.102-0.201 0.066-0.4-0.035-0.451-0.231-0.12-0.464-0.23-0.82-0.348-1.283-0.053-0.208 0.076-0.442 0.287-0.508zM29.112 9.635h-12.722c-0.092 0-0.167 0.075-0.167 0.168v12.747c0 0.093 0.075 0.168 0.167 0.168h12.722c0.092 0 0.167-0.075 0.167-0.168v-12.747c0-0.093-0.075-0.168-0.167-0.168z"></path>
<path d="M32.172 10.288v1.116h1.327c0 0.126-0.015 0.226-0.075 0.342h-1.252v1.483h-0.402v-3.278h1.981v0.337h-1.579z"></path>
<path d="M36.129 10.71v2.303c-0.191 0.136-0.744 0.231-1.056 0.231-0.588 0-0.965-0.216-0.965-0.82v-1.639c0.115-0.055 0.236-0.075 0.387-0.075v1.659c0 0.367 0.216 0.533 0.669 0.533 0.216 0 0.418-0.035 0.578-0.080v-2.041c0.106-0.055 0.257-0.070 0.387-0.070z"></path>
<path d="M38.824 11.459v1.77h-0.387v-1.659c0-0.367-0.216-0.533-0.669-0.533-0.216 0-0.422 0.035-0.578 0.080v2.112h-0.387v-2.303c0.191-0.136 0.744-0.231 1.056-0.231 0.589 0 0.965 0.246 0.965 0.764z"></path>
<path d="M40.574 12.948c0.231 0 0.438-0.020 0.603-0.065v-1.71c-0.166-0.090-0.367-0.151-0.568-0.151-0.634 0-0.855 0.427-0.855 1.076 0 0.603 0.347 0.85 0.819 0.85zM41.565 9.76v3.364c-0.236 0.106-0.608 0.156-1.011 0.156-0.809 0-1.192-0.528-1.192-1.202 0-0.88 0.428-1.398 1.091-1.398 0.312 0 0.563 0.091 0.724 0.211v-1.001c0.090-0.070 0.292-0.131 0.387-0.131z"></path>
<path d="M43.717 12.812v-0.804h-0.126c-0.528 0-1.021 0.126-1.021 0.513 0 0.322 0.201 0.432 0.558 0.432 0.241 0 0.453-0.065 0.588-0.141zM44.099 11.474v1.549c-0.251 0.156-0.623 0.241-1.056 0.241-0.463 0-0.855-0.206-0.855-0.664 0-0.694 0.714-0.865 1.528-0.875v-0.166c0-0.437-0.191-0.548-0.568-0.548-0.176 0-0.593 0.111-0.644 0.111-0.075 0-0.131-0.040-0.171-0.156l-0.035-0.096c0.297-0.116 0.563-0.191 0.865-0.191 0.588 0 0.935 0.226 0.935 0.794z"></path>
<path d="M44.612 12.002c0-0.845 0.518-1.322 1.277-1.322 0.211 0 0.432 0.020 0.664 0.085-0.015 0.131-0.070 0.261-0.136 0.337-0.096-0.035-0.317-0.085-0.468-0.085-0.669 0-0.925 0.447-0.925 0.965 0 0.558 0.241 0.95 0.85 0.95 0.181 0 0.402-0.055 0.598-0.136l0.080 0.322c-0.231 0.101-0.538 0.161-0.805 0.161-0.684 0-1.136-0.457-1.136-1.277z"></path>
<path d="M47.086 10.74c0.055-0.030 0.126-0.040 0.196-0.040 0.076 0 0.141 0.010 0.196 0.040v2.489h-0.392v-2.489zM47.011 9.971c0-0.146 0.126-0.266 0.271-0.266 0.151 0 0.277 0.116 0.277 0.266 0 0.141-0.126 0.261-0.277 0.261-0.146 0-0.271-0.116-0.271-0.261z"></path>
<path d="M49.163 10.308l0.513-0.835 0.076 0.035c0.131 0.060 0.156 0.121 0.151 0.176 0 0.045-0.040 0.141-0.181 0.287l-0.357 0.452-0.201-0.116zM50.128 11.972c0-0.598-0.301-0.945-0.819-0.945-0.508 0-0.815 0.347-0.815 0.945 0 0.633 0.302 0.96 0.815 0.96 0.518 0 0.819-0.327 0.819-0.96zM48.097 11.972c0-0.784 0.488-1.292 1.212-1.292 0.739 0 1.212 0.518 1.212 1.292 0 0.809-0.478 1.307-1.212 1.307-0.739 0-1.212-0.513-1.212-1.307z"></path>
<path d="M53.13 11.459v1.77h-0.387v-1.659c0-0.367-0.216-0.533-0.669-0.533-0.216 0-0.422 0.035-0.578 0.080v2.112h-0.387v-2.303c0.191-0.136 0.744-0.231 1.056-0.231 0.588 0 0.965 0.246 0.965 0.764z"></path>
<path d="M34.449 16.444v1.101c-0.291 0.322-0.764 0.498-1.327 0.498-0.925 0-1.554-0.623-1.554-1.699 0-1.046 0.624-1.679 1.554-1.679 0.548 0 0.98 0.201 1.252 0.538-0.035 0.131-0.161 0.211-0.282 0.241-0.191-0.276-0.513-0.437-0.97-0.437-0.714 0-1.151 0.498-1.151 1.337 0 0.865 0.443 1.352 1.151 1.352 0.352 0 0.664-0.080 0.925-0.251v-0.93c0.105-0.101 0.266-0.116 0.402-0.070z"></path>
<path d="M36.204 15.81c-0.412 0-0.618 0.030-0.784 0.121v2.061h-0.387v-2.303c0.282-0.156 0.639-0.231 0.945-0.231 0.151 0 0.236 0.025 0.297 0.045 0 0.116-0.015 0.231-0.070 0.307z"></path>
<path d="M38.739 15.474v2.303c-0.191 0.136-0.744 0.231-1.056 0.231-0.588 0-0.965-0.216-0.965-0.82v-1.639c0.115-0.055 0.236-0.075 0.387-0.075v1.659c0 0.367 0.216 0.533 0.669 0.533 0.216 0 0.418-0.035 0.578-0.080v-2.041c0.105-0.055 0.256-0.070 0.387-0.070z"></path>
<path d="M41.223 16.716c0-0.523-0.292-0.93-0.985-0.93-0.141 0-0.287 0.020-0.438 0.055v1.765c0.151 0.055 0.337 0.101 0.538 0.101 0.548 0 0.885-0.292 0.885-0.99zM41.615 16.776c0 0.719-0.352 1.267-1.106 1.267-0.236 0-0.508-0.075-0.709-0.196v1.016c-0.080 0.075-0.272 0.131-0.387 0.131v-3.399c0.161-0.070 0.488-0.141 0.799-0.141 0.87 0 1.403 0.453 1.403 1.322z"></path>
<path d="M44.019 16.736c0-0.598-0.302-0.945-0.819-0.945-0.508 0-0.815 0.347-0.815 0.945 0 0.634 0.302 0.96 0.815 0.96 0.518 0 0.819-0.327 0.819-0.96zM41.987 16.736c0-0.784 0.488-1.292 1.212-1.292 0.739 0 1.212 0.518 1.212 1.292 0 0.809-0.478 1.307-1.212 1.307-0.739 0-1.212-0.513-1.212-1.307z"></path>
<path d="M33.338 21.74c0-0.267-0.171-0.377-0.508-0.377h-0.402v0.754h0.397c0.327 0 0.513-0.131 0.513-0.377zM32.75 20.041c-0.105 0-0.216 0.010-0.322 0.025v0.669h0.342c0.302 0 0.443-0.126 0.443-0.342 0-0.206-0.146-0.352-0.463-0.352zM34.163 21.776c0 0.588-0.593 0.98-1.267 0.98h-1.237v-3.248c0.412-0.060 0.724-0.101 1.091-0.101 0.679 0 1.222 0.317 1.222 0.87 0 0.317-0.166 0.528-0.463 0.644 0.458 0.131 0.654 0.407 0.654 0.855z"></path>
<path d="M35.934 22.113v-0.432h-0.146c-0.342 0-0.654 0.075-0.654 0.312 0 0.181 0.121 0.246 0.367 0.246 0.196 0 0.357-0.060 0.432-0.126zM36.673 21.172v1.322c-0.271 0.206-0.709 0.317-1.302 0.317-0.528 0-0.965-0.216-0.965-0.694 0-0.719 0.699-0.895 1.529-0.92-0.015-0.312-0.141-0.392-0.418-0.392-0.146 0-0.533 0.065-0.583 0.065-0.121 0-0.216-0.075-0.297-0.297l-0.060-0.181c0.312-0.116 0.618-0.196 0.95-0.196 0.724 0 1.146 0.272 1.146 0.975z"></path>
<path d="M39.442 20.966v1.79h-0.754v-1.523c0-0.267-0.176-0.402-0.483-0.402-0.115 0-0.226 0.015-0.322 0.040v1.885h-0.759l0.005-2.237c0.317-0.211 0.829-0.327 1.247-0.327 0.578 0 1.066 0.287 1.066 0.774z"></path>
<path d="M39.769 21.529c0-0.88 0.614-1.342 1.408-1.342 0.221 0 0.422 0.030 0.664 0.085-0.030 0.251-0.136 0.473-0.251 0.598-0.086-0.025-0.226-0.045-0.307-0.045-0.508 0-0.714 0.261-0.714 0.659 0 0.402 0.191 0.649 0.669 0.649 0.131 0 0.282-0.025 0.468-0.090l0.136 0.603c-0.277 0.111-0.563 0.161-0.79 0.161-0.774 0-1.282-0.463-1.282-1.277z"></path>
<path d="M43.852 21.494c0-0.412-0.201-0.654-0.553-0.654-0.342 0-0.553 0.241-0.553 0.654 0 0.432 0.206 0.659 0.553 0.659 0.352 0 0.553-0.226 0.553-0.659zM41.986 21.494c0-0.804 0.543-1.307 1.312-1.307 0.799 0 1.312 0.523 1.312 1.307 0 0.81-0.518 1.312-1.312 1.312-0.799 0-1.312-0.518-1.312-1.312z"></path>
<path d="M45.039 19.528c0.176-0.131 0.558-0.241 0.759-0.241v3.469h-0.759v-3.228z"></path>
<path d="M48.090 21.494c0-0.412-0.201-0.654-0.553-0.654-0.342 0-0.553 0.241-0.553 0.654 0 0.432 0.206 0.659 0.553 0.659 0.352 0 0.553-0.226 0.553-0.659zM46.225 21.494c0-0.804 0.543-1.307 1.312-1.307 0.799 0 1.312 0.523 1.312 1.307 0 0.81-0.518 1.312-1.312 1.312-0.799 0-1.312-0.518-1.312-1.312z"></path>
<path d="M53.078 20.966v1.79h-0.749v-1.523c0-0.267-0.171-0.402-0.473-0.402-0.141 0-0.277 0.030-0.387 0.075 0.041 0.111 0.061 0.231 0.061 0.362v1.488h-0.749v-1.523c0-0.267-0.171-0.402-0.473-0.402-0.116 0-0.226 0.015-0.322 0.040v1.885h-0.759l0.005-2.237c0.302-0.211 0.774-0.327 1.172-0.327 0.317 0 0.589 0.106 0.784 0.277 0.256-0.166 0.613-0.277 0.915-0.277 0.548 0 0.976 0.292 0.976 0.774z"></path>
<path d="M55.376 21.459c0-0.463-0.241-0.628-0.628-0.628-0.156 0-0.282 0.030-0.392 0.080v1.262c0.136 0.020 0.266 0.030 0.387 0.030 0.443 0 0.634-0.342 0.634-0.744zM56.125 21.363c0 0.915-0.543 1.443-1.428 1.443-0.432 0-0.85-0.080-1.101-0.196v-3.082c0.176-0.131 0.563-0.241 0.759-0.241v1.192c0.216-0.186 0.478-0.287 0.714-0.287 0.749 0 1.056 0.518 1.056 1.172z"></path>
<path d="M56.553 20.262c0.105-0.045 0.236-0.070 0.382-0.070s0.271 0.025 0.377 0.070v2.494h-0.759v-2.494zM56.543 19.468c0-0.211 0.176-0.387 0.387-0.387 0.216 0 0.392 0.171 0.392 0.387 0 0.206-0.176 0.387-0.392 0.387-0.211 0-0.387-0.171-0.387-0.387z"></path>
<path d="M59.218 22.113v-0.432h-0.146c-0.342 0-0.653 0.075-0.653 0.312 0 0.181 0.121 0.246 0.367 0.246 0.196 0 0.357-0.060 0.432-0.126zM59.957 21.172v1.322c-0.272 0.206-0.709 0.317-1.302 0.317-0.528 0-0.965-0.216-0.965-0.694 0-0.719 0.699-0.895 1.529-0.92-0.015-0.312-0.141-0.392-0.418-0.392-0.146 0-0.533 0.065-0.583 0.065-0.121 0-0.216-0.075-0.297-0.297l-0.060-0.181c0.312-0.116 0.619-0.196 0.95-0.196 0.724 0 1.147 0.272 1.147 0.975z"></path>
</svg>
